<svg width="331" height="53" viewBox="0 0 331 53" fill="none" xmlns="http://www.w3.org/2000/svg">
<path d="M46.7692 34.1683C48.5456 34.1683 49.9857 32.7282 49.9857 30.9518C49.9857 29.1754 48.5456 27.7354 46.7692 27.7354C44.9928 27.7354 43.5527 29.1754 43.5527 30.9518C43.5527 32.7282 44.9928 34.1683 46.7692 34.1683Z" fill="#FFA300"/>
<path d="M19.0841 23.0264C18.5098 23.0264 17.8205 22.9116 17.2461 22.7967L4.72487 19.2356C3.80587 19.0059 3.34638 18.0869 3.57613 17.1679C3.80587 16.2489 4.72487 15.7894 5.64386 16.0191L18.0503 19.5802C19.199 19.9248 20.4626 19.5802 21.3816 18.7761C22.3006 17.8571 22.6452 16.7084 22.3006 15.4448L19.0841 2.8086C18.8544 1.8896 19.4288 1.08549 20.2329 0.855737C21.1519 0.625989 21.956 1.20036 22.1857 2.00448L25.4022 14.6406C25.9766 17.053 25.2873 19.4653 23.5642 21.0736C22.4155 22.3372 20.8072 23.0264 19.0841 23.0264Z" fill="#A5E0DA"/>
<path d="M36.1993 21.6473C34.8208 21.6473 33.3275 21.1878 32.0639 20.4986C29.7664 19.0052 28.3879 16.478 28.5028 13.721L28.9623 2.34847C28.9623 1.42948 29.7664 0.740234 30.6854 0.740234C31.6044 0.740234 32.2936 1.54435 32.2936 2.46335L31.8341 13.8359C31.7192 15.4441 32.5233 16.8226 33.787 17.7416C35.1655 18.5457 36.7737 18.6606 38.1522 17.9714L48.2611 12.6871C49.0652 12.2276 50.0991 12.5723 50.4437 13.3764C50.9032 14.1805 50.5586 15.2144 49.7545 15.559L39.7604 20.7283C38.6117 21.3027 37.3481 21.6473 36.1993 21.6473Z" fill="#A5E0DA"/>
<path d="M35.5099 21.3022C34.1314 21.3022 32.638 20.8427 31.3744 20.0386C29.0769 18.5453 27.6984 16.018 27.8133 13.2611L28.2728 1.88851C28.2728 0.969518 29.0769 0.280273 29.9959 0.280273C30.9149 0.280273 31.6041 1.08439 31.6041 2.00339L31.1447 13.3759C31.0298 14.9842 31.8339 16.3627 33.0975 17.2816C34.476 18.0858 36.0842 18.2006 37.4627 17.5114L47.5717 12.2272C48.3758 11.7677 49.4096 12.1123 49.7543 12.9164C50.2138 13.7205 49.8691 14.7544 49.065 15.099L39.071 20.3832C37.9222 20.9576 36.7735 21.3022 35.5099 21.3022Z" fill="#66CCC3"/>
<path d="M17.9341 22.2218C17.3597 22.2218 16.6705 22.1069 16.0961 21.992L3.68971 18.4309C2.77072 18.2012 2.31122 17.2822 2.54097 16.3632C2.77072 15.4442 3.68971 14.9847 4.6087 15.2144L17.13 18.7755C18.2787 19.1202 19.5423 18.7755 20.4613 17.9714C21.3803 17.0524 21.725 15.9037 21.3803 14.6401L18.1639 2.00391C17.9341 1.19979 18.3936 0.280798 19.3126 0.0510494C20.2316 -0.178699 21.0357 0.395672 21.2655 1.19979L24.4819 13.8359C25.0563 16.2483 24.3671 18.6607 22.6439 20.2689C21.3803 21.5325 19.6572 22.2218 17.9341 22.2218Z" fill="#004F3F"/>
<path d="M18.7382 52.3181C18.5085 52.3181 18.1639 52.2032 17.9341 52.0883C17.13 51.6288 16.7854 50.7098 17.2449 49.9057L22.5291 39.7968C23.7927 37.3844 26.2051 35.7762 28.962 35.7762C31.719 35.6613 34.2462 37.0398 35.7396 39.3373L41.8279 48.9867C42.2874 49.7908 42.0577 50.7098 41.3684 51.2842C40.6792 51.8586 39.6453 51.514 39.071 50.8247L32.9826 41.1753C32.1785 39.7968 30.6851 39.1075 29.0769 39.1075C27.4687 39.2224 26.0902 40.0265 25.4009 41.405L20.1167 51.5139C19.887 51.9734 19.3126 52.3181 18.7382 52.3181Z" fill="#A5E0DA"/>
<path d="M19.7734 52.0896C19.5436 52.0896 19.199 51.9747 18.9693 51.8598C18.1652 51.4003 17.8205 50.4813 18.28 49.6772L23.5642 39.5683C24.8279 37.1559 27.2402 35.5477 29.9972 35.5477C32.7542 35.4328 35.2814 36.8113 36.7748 39.1088L42.8631 48.7582C43.3226 49.5623 43.0928 50.4813 42.4036 51.0557C41.5995 51.5152 40.6805 51.2854 40.1061 50.5962L34.0178 40.9468C33.2137 39.5683 31.7203 38.879 30.1121 38.879C28.5038 38.9939 27.1253 39.798 26.4361 41.1765L21.1519 51.2854C20.9221 51.8598 20.3478 52.0896 19.7734 52.0896Z" fill="#008B7B"/>
<path d="M48.6073 47.1499C48.1478 47.1499 47.6883 46.9201 47.4586 46.5755L37.3497 35.5476C35.5117 33.5947 34.9373 30.8377 35.7414 28.3105C36.5455 25.7833 38.6133 23.8304 41.1405 23.256L55.7295 19.9247C56.6485 19.6949 57.4526 20.2693 57.6824 21.1883C57.9121 22.1073 57.3378 22.9114 56.4188 23.1412L41.8298 26.4725C40.3364 26.8171 39.1876 27.851 38.843 29.2295C38.3835 30.608 38.7282 32.2162 39.762 33.2501L49.8709 44.278C50.4453 44.9673 50.4453 46.0011 49.7561 46.5755C49.4114 46.9201 49.0668 47.1499 48.6073 47.1499Z" fill="#A5E0DA"/>
<path d="M48.9511 45.8852C48.4916 45.8852 48.0321 45.6555 47.8023 45.3108L37.6934 34.2829C35.8554 32.3301 35.2811 29.5731 36.0852 27.0458C36.8893 24.5186 38.957 22.5658 41.4843 21.9914L56.0733 18.66C56.9923 18.4303 57.7964 19.0047 58.0261 19.9236C58.2559 20.8426 57.6815 21.6468 56.7625 21.8765L42.1735 25.3227C40.6801 25.6674 39.5314 26.7012 39.1868 28.0797C38.7273 29.5731 39.0719 31.0664 39.9909 32.2152L50.0998 43.2431C50.6742 43.9323 50.6742 44.9662 49.9849 45.5406C49.7552 45.7703 49.4106 45.8852 48.9511 45.8852Z" fill="#00A899"/>
<path d="M10.9275 49.6771C10.5828 49.6771 10.2382 49.5622 9.89359 49.3325C9.20435 48.7581 9.08947 47.7242 9.66384 47.035L18.624 36.1219C19.6579 34.8583 20.0025 33.1352 19.4281 31.527C18.8538 29.9187 17.4753 28.8849 15.867 28.5402L1.96727 26.2428C1.04828 26.1279 0.47391 25.2089 0.588784 24.4048C0.703658 23.4858 1.62265 22.9114 2.42677 23.0263L16.3265 25.3238C19.1984 25.7833 21.381 27.6212 22.4149 30.3782C23.4487 33.0203 22.8744 36.0071 21.1513 38.1897L12.1911 49.1027C11.8465 49.4473 11.387 49.6771 10.9275 49.6771Z" fill="#A5E0DA"/>
<path d="M10.3532 48.4124C10.0086 48.4124 9.66399 48.2976 9.31937 48.0678C8.63013 47.4934 8.51525 46.4596 9.08962 45.7703L18.0498 34.8573C19.0837 33.5937 19.4283 31.8706 18.8539 30.2623C18.2796 28.6541 16.9011 27.6202 15.2928 27.2756L1.39305 24.9781C0.474062 24.8632 -0.100309 23.9442 0.0145652 23.1401C0.129439 22.2211 1.04843 21.6468 1.85255 21.7616L15.7523 24.0591C18.6242 24.5186 20.8068 26.3566 21.8407 29.1136C22.8745 31.7557 22.3001 34.7424 20.577 36.925L11.6169 47.8381C11.2722 48.1827 10.8127 48.4124 10.3532 48.4124Z" fill="#007C6B"/>
<path d="M37.1188 15.5589C38.8952 15.5589 40.3353 14.1189 40.3353 12.3425C40.3353 10.566 38.8952 9.12598 37.1188 9.12598C35.3424 9.12598 33.9023 10.566 33.9023 12.3425C33.9023 14.1189 35.3424 15.5589 37.1188 15.5589Z" fill="#FF7700"/>
<path d="M30.3415 48.8734C32.1179 48.8734 33.558 47.4333 33.558 45.6569C33.558 43.8805 32.1179 42.4404 30.3415 42.4404C28.5651 42.4404 27.125 43.8805 27.125 45.6569C27.125 47.4333 28.5651 48.8734 30.3415 48.8734Z" fill="#FFBD00"/>
<path d="M13.3395 35.5462C15.1159 35.5462 16.556 34.1062 16.556 32.3298C16.556 30.5533 15.1159 29.1133 13.3395 29.1133C11.5631 29.1133 10.123 30.5533 10.123 32.3298C10.123 34.1062 11.5631 35.5462 13.3395 35.5462Z" fill="#FFA300"/>
<path d="M15.6384 16.4769C17.4148 16.4769 18.8548 15.0368 18.8548 13.2604C18.8548 11.484 17.4148 10.0439 15.6384 10.0439C13.8619 10.0439 12.4219 11.484 12.4219 13.2604C12.4219 15.0368 13.8619 16.4769 15.6384 16.4769Z" fill="#FFA300"/>
<path d="M100.874 35.5482H80.4263C80.7709 37.2713 81.6899 38.5349 83.0684 39.5688C84.4469 40.4878 86.17 41.0622 88.2378 41.0622C89.6163 41.0622 90.8799 40.8324 92.0286 40.4878C93.0625 40.0283 94.0963 39.4539 95.0153 38.5349L99.1508 43.015C96.6236 45.8869 92.8327 47.3802 88.008 47.3802C84.9064 47.3802 82.2643 46.8059 79.8519 45.5423C77.5545 44.3935 75.7165 42.6704 74.4529 40.6027C73.1893 38.5349 72.5 36.1226 72.5 33.3656C72.5 30.7235 73.0744 28.3111 74.338 26.2434C75.6016 24.0608 77.3247 22.4525 79.5073 21.3038C81.6899 20.1551 84.2172 19.4658 86.8593 19.4658C89.5014 19.4658 91.9137 20.0402 94.0963 21.1889C96.279 22.3377 97.8872 23.9459 99.1508 26.1285C100.414 28.3111 100.989 30.7235 100.989 33.5953C101.104 33.5953 100.989 34.2846 100.874 35.5482ZM82.6089 26.8178C81.3453 27.8516 80.6561 29.2301 80.4263 30.9532H93.7517C93.522 29.2301 92.7178 27.8516 91.5691 26.8178C90.3055 25.7839 88.927 25.3244 87.089 25.3244C85.251 25.3244 83.7577 25.8988 82.6089 26.8178Z" fill="#00A899"/>
<path d="M133.843 9.58691V46.921H126.377V43.7045C124.424 46.002 121.667 47.2656 117.876 47.2656C115.349 47.2656 113.051 46.6913 110.983 45.5425C108.916 44.3938 107.307 42.7855 106.159 40.7178C105.01 38.6501 104.436 36.1228 104.436 33.3659C104.436 30.6089 105.01 28.0817 106.159 26.0139C107.307 23.9462 108.916 22.2231 110.983 21.1892C113.051 20.0405 115.349 19.4661 117.876 19.4661C121.322 19.4661 124.079 20.5 126.032 22.6826V9.58691H133.843ZM124.194 38.7649C125.458 37.3865 126.147 35.5485 126.147 33.251C126.147 30.9535 125.458 29.1155 124.194 27.737C122.93 26.3585 121.207 25.6693 119.254 25.6693C117.187 25.6693 115.578 26.3585 114.315 27.737C113.051 29.1155 112.362 30.9535 112.362 33.251C112.362 35.5485 113.051 37.3865 114.315 38.7649C115.578 40.1434 117.301 40.8327 119.254 40.8327C121.322 40.8327 122.93 40.1434 124.194 38.7649Z" fill="#00A899"/>
<path d="M168.42 19.8105V46.9208H160.953V43.7044C159.919 44.8531 158.655 45.7721 157.277 46.3465C155.784 46.9208 154.29 47.2655 152.567 47.2655C149.006 47.2655 146.249 46.2316 144.066 44.1639C141.999 42.0961 140.965 39.1094 140.965 35.0888V19.8105H148.776V33.9401C148.776 38.3053 150.614 40.4879 154.29 40.4879C156.128 40.4879 157.622 39.9135 158.77 38.6499C159.919 37.3863 160.493 35.5483 160.493 33.1359V19.8105H168.42Z" fill="#00A899"/>
<path d="M186.341 16.3642H174.279V11.999H203.457V16.3642H191.396V47.1505H186.456V16.3642H186.341Z" fill="#FFBD00"/>
<path d="M207.708 14.5254C207.134 13.9511 206.789 13.1469 206.789 12.3428C206.789 11.4238 207.134 10.7346 207.708 10.1602C208.282 9.58583 209.087 9.24121 210.006 9.24121C210.925 9.24121 211.729 9.58583 212.303 10.1602C212.877 10.7346 213.222 11.4238 213.222 12.3428C213.222 13.2618 212.877 14.0659 212.303 14.6403C211.729 15.2147 210.925 15.5593 210.006 15.5593C209.087 15.3295 208.282 15.0998 207.708 14.5254ZM207.593 20.4989H212.418V47.1497H207.593V20.4989Z" fill="#FFBD00"/>
<path d="M243.893 23.2559C245.846 25.2088 246.88 28.0806 246.88 31.8715V47.1497H242.055V32.4458C242.055 29.9186 241.481 27.9657 240.217 26.5872C238.953 25.3236 237.23 24.6344 234.933 24.6344C232.291 24.6344 230.223 25.4385 228.73 26.9319C227.236 28.4252 226.432 30.6078 226.432 33.4797V47.2646H221.607V20.4989H226.202V24.5195C227.121 23.141 228.5 22.1072 230.108 21.303C231.716 20.6138 233.669 20.1543 235.737 20.1543C239.298 20.2692 241.94 21.303 243.893 23.2559Z" fill="#FFBD00"/>
<path d="M266.294 34.7431L260.78 39.9125V47.1495H255.955V9.81543H260.78V33.8241L275.369 20.4987H281.227L269.97 31.5266L282.261 47.1495H276.288L266.294 34.7431Z" fill="#FFBD00"/>
<path d="M309.831 35.4333H288.235C288.579 37.7308 289.613 39.6836 291.336 41.0621C293.06 42.4406 295.242 43.2447 297.884 43.2447C301.101 43.2447 303.628 42.2109 305.581 40.0282L308.223 43.1298C306.959 44.5083 305.466 45.6571 303.743 46.3463C301.905 47.0356 299.952 47.4951 297.769 47.4951C294.898 47.4951 292.485 46.9207 290.303 45.7719C288.12 44.6232 286.397 43.015 285.248 40.9472C284.099 38.8795 283.41 36.4671 283.41 33.9399C283.41 31.4127 283.985 29.0003 285.133 26.9326C286.282 24.8649 287.89 23.2566 289.958 22.1079C292.026 20.9591 294.323 20.3848 296.85 20.3848C299.378 20.3848 301.675 20.9591 303.628 22.1079C305.581 23.2566 307.189 24.8649 308.338 26.9326C309.487 29.0003 310.061 31.4127 310.061 34.0548C309.946 34.3994 309.831 34.8589 309.831 35.4333ZM290.877 26.4731C289.269 27.8516 288.35 29.6896 288.12 31.9871H305.236C305.007 29.6896 304.087 27.8516 302.479 26.4731C300.871 25.0946 299.033 24.2905 296.621 24.2905C294.438 24.2905 292.485 25.0946 290.877 26.4731Z" fill="#FFBD00"/>
<path d="M324.993 21.4179C326.601 20.6138 328.669 20.1543 330.967 20.1543V24.8641C330.737 24.8641 330.277 24.8641 329.818 24.8641C327.176 24.8641 325.108 25.6683 323.615 27.1616C322.121 28.655 321.432 30.9525 321.432 33.8243V47.1497H316.607V20.4989H321.202V24.979C322.007 23.4856 323.27 22.222 324.993 21.4179Z" fill="#FFBD00"/>
</svg>
