<svg width="30" height="30" viewBox="0 0 30 30" fill="none" xmlns="http://www.w3.org/2000/svg">
<circle cx="15" cy="15" r="15" fill="#F47E16"/>
<path d="M7 9.59961H8.8H23.2" stroke="white" stroke-width="1.5" stroke-linecap="round" stroke-linejoin="round"/>
<path d="M11.5 9.6V7.8C11.5 7.32261 11.6896 6.86477 12.0272 6.52721C12.3648 6.18964 12.8226 6 13.3 6H16.9C17.3774 6 17.8352 6.18964 18.1728 6.52721C18.5103 6.86477 18.7 7.32261 18.7 7.8V9.6M21.4 9.6V22.2C21.4 22.6774 21.2103 23.1352 20.8728 23.4728C20.5352 23.8104 20.0774 24 19.6 24H10.6C10.1226 24 9.66476 23.8104 9.3272 23.4728C8.98963 23.1352 8.79999 22.6774 8.79999 22.2V9.6H21.4Z" stroke="white" stroke-width="1.5" stroke-linecap="round" stroke-linejoin="round"/>
<path d="M13.3 14.0996V19.4996" stroke="white" stroke-width="1.5" stroke-linecap="round" stroke-linejoin="round"/>
<path d="M16.9 14.0996V19.4996" stroke="white" stroke-width="1.5" stroke-linecap="round" stroke-linejoin="round"/>
</svg>
