<svg width="30" height="30" viewBox="0 0 30 30" fill="none" xmlns="http://www.w3.org/2000/svg">
<path d="M9.38867 3.08265L6 6.47132L6.08265 26.5554L23.2739 26.4727L23.1086 3L9.38867 3.08265Z" fill="#EFF8F8"/>
<path d="M9.38867 6.4714V3.08273L6 6.4714H9.38867Z" fill="#FCD734"/>
<path d="M23.9354 22.5883C24.8446 23.4975 24.8446 24.8199 24.0181 25.6464L23.2742 26.3902C22.4477 27.2168 21.0426 27.2167 20.2161 26.3076L18.8937 24.9852C17.9846 24.076 17.9846 22.7536 18.8111 21.9271L19.5549 21.1833C20.3814 20.3568 21.7865 20.3568 22.613 21.2659L23.9354 22.5883Z" fill="#009688"/>
<path d="M22.3637 20.5222C22.8596 21.0181 22.8596 21.8446 22.3637 22.3405L19.8016 24.9026C19.3057 25.3986 18.4792 25.3986 17.9833 24.9026C17.4874 24.4067 17.4874 23.5802 17.9833 23.0843L20.5454 20.5222C21.0413 19.9436 21.8678 19.9436 22.3637 20.5222Z" fill="#00796B"/>
<path d="M22.2829 20.2741C22.7788 20.77 22.7788 21.5965 22.2829 22.1751L19.6381 24.8199C19.1422 25.3158 18.3157 25.3158 17.7372 24.8199C17.2413 24.324 17.2413 23.4975 17.7372 22.919L20.382 20.2741C20.9605 19.7782 21.787 19.7782 22.2829 20.2741Z" fill="#FCD734"/>
<path d="M17.9843 22.7535L18.6455 22.0923L19.1414 21.5964L19.3067 21.4311L19.5546 21.1831L20.4638 20.274C20.3811 20.1913 20.2985 20.026 20.1332 19.9434L17.7363 22.4229C17.7363 22.5055 17.9016 22.6708 17.9843 22.7535Z" fill="#B2DFDB"/>
<path d="M19.5531 16.6375L12.2798 14.3233L12.1972 14.4059L15.1726 17.2987L16.247 18.3731C16.495 18.2078 16.9082 18.2078 17.1562 18.4558C17.4042 18.7038 17.4868 19.1997 17.1562 19.5303C16.9082 19.8609 16.4123 19.8609 16.0817 19.5303C15.8338 19.2823 15.8338 18.8691 15.9991 18.6211L15.0073 17.5466L12.0319 14.6539L11.9492 14.7365L14.3461 22.0098C14.3461 22.0098 15.9164 21.1833 17.6521 22.423L20.049 19.9435C18.7266 18.2905 19.5531 16.6375 19.5531 16.6375Z" fill="#B2DFDB"/>
</svg>
