<svg width="30" height="30" viewBox="0 0 30 30" fill="none" xmlns="http://www.w3.org/2000/svg">
<path d="M9.38867 3.08265L6 6.47132L6.08265 26.5554L23.2739 26.4727L23.1086 3L9.38867 3.08265Z" fill="#EEF0F0"/>
<path d="M9.38867 6.4714V3.08273L6 6.4714H9.38867Z" fill="#C6CFCE"/>
<path d="M23.9359 22.5883C24.8451 23.4975 24.8451 24.8199 24.0186 25.6464L23.2747 26.3902C22.4482 27.2167 21.0431 27.2167 20.2166 26.3076L18.8942 24.9852C17.9851 24.076 17.9851 22.7536 18.8116 21.9271L19.5554 21.1833C20.3819 20.3568 21.787 20.3568 22.6135 21.2659L23.9359 22.5883Z" fill="#C6CFCE"/>
<path d="M22.3648 20.5222C22.8607 21.0181 22.8607 21.8446 22.3648 22.3405L19.8027 24.9027C19.3068 25.3986 18.4803 25.3986 17.9844 24.9027C17.4885 24.4067 17.4885 23.5802 17.9844 23.0843L20.5465 20.5222C21.0424 19.9436 21.8689 19.9436 22.3648 20.5222Z" fill="#C6CFCE"/>
<path d="M22.2831 20.2741C22.779 20.77 22.779 21.5965 22.2831 22.1751L19.6382 24.8199C19.1423 25.3158 18.3158 25.3158 17.7373 24.8199C17.2414 24.324 17.2414 23.4975 17.7373 22.919L20.3821 20.2741C20.9607 19.7782 21.7872 19.7782 22.2831 20.2741Z" fill="#C6CFCE"/>
<path d="M17.9846 22.7535L18.6458 22.0923L19.1418 21.5964L19.3071 21.4311L19.555 21.1831L20.4642 20.274C20.3815 20.1913 20.2989 20.026 20.1336 19.9434L17.7367 22.4229C17.7367 22.5055 17.902 22.6708 17.9846 22.7535Z" fill="#C6CFCE"/>
<path d="M19.554 16.6375L12.2808 14.3233L12.1981 14.4059L15.1736 17.2987L16.248 18.3731C16.496 18.2078 16.9092 18.2078 17.1572 18.4558C17.4051 18.7038 17.4878 19.1997 17.1572 19.5303C16.9092 19.8609 16.4133 19.8609 16.0827 19.5303C15.8348 19.2823 15.8348 18.8691 16.0001 18.6211L15.0083 17.5466L12.0328 14.6539L11.9502 14.7365L14.3471 22.0098C14.3471 22.0098 15.9174 21.1833 17.6531 22.423L20.0499 19.9435C18.7275 18.2905 19.554 16.6375 19.554 16.6375Z" fill="#C6CFCE"/>
</svg>
