<svg width="222" height="159" viewBox="0 0 222 159" fill="none" xmlns="http://www.w3.org/2000/svg">
<path d="M142.314 1.5549C141.741 0.777451 141.25 0.450103 140.105 0C140.473 0.491022 141.455 1.5549 142.314 1.5549ZM136.054 8.51104C136.872 9.04298 139.941 12.071 140.596 13.9941C139.286 13.3394 136.626 9.45217 136.054 8.51104ZM142.396 1.5549C143.173 0.982043 143.705 0.736533 144.933 0.613777C144.483 1.02296 143.255 1.80041 142.396 1.5549ZM142.273 2.37327C142.723 2.08684 143.746 1.5549 145.301 1.39123C144.606 1.92317 143.419 2.78246 142.273 2.37327ZM137.404 43.0462L136.586 42.9235C136.79 41.6959 136.954 40.4684 137.158 39.1999C134.253 37.5632 129.67 33.2667 128.197 29.7068C131.348 31.0571 135.767 37.0312 137.158 38.9953C137.322 38.0133 137.445 36.9903 137.609 35.9673C135.399 34.126 130.12 29.3795 128.975 26.106C130.489 28.4793 136.013 29.8705 137.69 35.4763C137.813 34.5352 137.977 33.5941 138.1 32.6529C135.767 30.6479 130.571 24.7148 129.957 23.2826C131.88 25.2876 137.158 30.3206 138.14 32.3256C138.222 31.6709 138.304 31.0162 138.427 30.3615C136.831 29.5022 131.184 24.7966 130.693 21.3185C131.798 21.8914 137.199 27.9064 138.468 30.116C138.55 29.5022 138.631 28.8884 138.713 28.2747C136.954 26.7198 132.576 19.6409 131.757 18.577C133.517 20.2137 137.936 25.083 138.754 27.8655C138.836 27.2517 138.918 26.597 139 25.9832C137.404 24.3874 133.23 16.6538 132.903 15.7536C134.581 18.577 138.263 21.4413 139.041 25.5331C139.163 24.592 139.286 23.61 139.409 22.6688C137.158 20.6638 134.212 15.1398 133.967 13.2167C135.808 15.1398 138.631 20.6638 139.45 22.5052C139.573 21.6868 139.654 20.9093 139.777 20.091C138.918 18.8225 135.358 13.0121 134.581 11.8664C135.931 12.3983 138.795 16.6129 139.818 19.9273L140.186 17.1039C138.181 14.1578 135.89 11.7027 135.481 9.82043C136.299 10.3933 139.491 15.2217 140.227 16.9812C140.473 15.1808 140.718 13.3803 140.923 11.6208C139.573 10.9252 137.117 8.22461 136.586 7.28349C137.363 7.81543 140.145 9.61584 140.964 11.4163C141.046 10.6797 141.168 9.94319 141.25 9.20666C139.123 8.55196 137.813 6.54696 137.199 5.85134C138.631 6.38328 140.391 8.06094 141.25 9.0839L141.373 8.22461C140.35 7.11981 138.14 5.40124 137.895 4.33736C138.959 4.8693 140.391 6.75155 141.373 8.18369C141.455 7.529 141.537 6.91522 141.619 6.30145C140.596 5.60583 139.491 5.3194 138.55 2.82337C139 3.06889 141.087 4.74654 141.659 6.13777C141.741 5.64675 141.782 5.11481 141.864 4.62379C141.209 4.50103 139.491 2.82337 138.959 1.92317C139.45 1.96409 141.496 3.92817 141.864 4.50103C141.905 4.09185 141.987 3.64174 142.028 3.23256C141.496 2.90521 139.818 2.04592 139.286 1.18664C140.064 1.39123 141.537 2.33235 142.069 3.15072L142.191 2.29143C141.005 2.33235 140.105 1.26847 139.573 0.572859C140.964 1.06388 141.823 1.84133 142.191 2.25052C142.232 1.84133 142.314 1.43215 142.355 1.06388C142.314 1.47307 142.273 1.88225 142.232 2.29143C142.191 2.61878 142.15 2.94613 142.15 3.27348C142.805 2.53695 144.565 2.00501 145.424 2.00501C144.646 2.74154 142.723 3.15072 142.15 3.3144C142.11 3.7645 142.069 4.17368 142.028 4.62379C142.437 4.2146 145.056 2.74154 145.547 2.82337C144.769 3.55991 142.601 4.82838 141.987 4.70562C141.946 5.23757 141.864 5.72859 141.823 6.26053C142.723 5.03297 145.178 3.92817 145.71 3.80542C144.155 5.9741 143.01 5.9741 141.823 6.38328C141.741 6.99706 141.7 7.65176 141.619 8.26553C142.928 7.11981 144.81 5.68767 145.956 5.44216C145.424 6.38328 142.887 7.529 141.578 8.30645L141.496 9.12482C142.601 8.34737 144.728 7.20165 146.201 7.03798C145.465 7.529 143.664 9.16574 141.455 9.24758C141.373 9.94319 141.291 10.6797 141.209 11.3753C142.478 9.86135 145.547 8.83839 146.406 8.55196C145.669 9.28849 142.682 11.2526 141.168 11.6208C141.087 12.3574 141.005 13.0939 140.923 13.8304C142.15 12.1937 145.71 10.1478 146.611 9.82043C145.833 10.5979 142.396 13.5849 140.882 13.9532C140.759 14.9352 140.636 15.8764 140.555 16.8584C141.864 15.2217 145.956 11.6208 146.856 11.2935C145.997 12.9712 143.214 14.7307 140.555 17.0221C140.432 17.9223 140.35 18.8225 140.227 19.7227C142.11 16.8584 145.792 13.7077 147.183 13.5031C146.16 14.3624 141.578 18.7816 140.186 20.0091C140.105 20.7866 139.982 21.564 139.9 22.3415C141.332 20.6229 145.219 16.3265 147.388 14.9762C146.692 16.7357 142.519 21.1549 139.859 22.6279C139.736 23.4872 139.654 24.3465 139.532 25.1649C141.455 21.6868 145.465 19.8864 147.756 17.6768C147.224 18.4542 141.537 24.5511 139.45 25.9423L139.245 27.6609C140.964 25.1649 146.12 21.8505 148.165 20.7457C147.143 21.5231 141.373 27.0062 139.163 28.2747L138.959 30.0342C140.964 28.111 147.388 23.9373 148.534 23.6509C147.183 26.8016 140.882 29.8296 138.918 30.3615L138.672 32.2028C140.391 30.4433 146.447 27.129 148.738 25.7377C147.797 26.9244 141.455 31.2208 138.631 32.6529L138.304 35.3126C141.373 30.5661 146.897 30.5661 148.984 28.6839C147.061 31.5072 140.923 34.6579 138.222 35.9673C138.1 36.9903 137.977 38.0133 137.854 38.9953C139.818 37.3995 145.506 32.8575 148.82 32.3665C146.488 35.4354 141.046 38.3815 137.813 39.2408C137.731 40.5502 137.568 41.7778 137.404 43.0462Z" fill="#007C6B"/>
<path fill-rule="evenodd" clip-rule="evenodd" d="M161.463 17.8814L163.018 14.3215C158.517 18.6179 156.062 19.5999 153.238 21.6868C152.42 22.3006 151.642 23.2008 150.906 23.8145C151.724 23.9782 152.706 24.2646 153.279 24.4283C152.665 24.4692 149.965 24.5102 149.474 24.6329H149.433C148.492 24.8375 147.346 24.7966 145.873 25.8195C144.441 26.8016 143.909 31.3026 141.74 35.2308L142.354 36.4174L140.881 36.5811C140.062 37.7677 139.039 38.8316 137.73 39.65C135.234 41.2458 132.452 41.9823 131.306 43.4963C131.019 43.8646 130.61 44.7239 130.242 45.8287C131.797 45.2149 133.72 45.2149 133.72 45.2149C133.72 45.2149 131.715 45.8696 129.751 47.5473C129.096 50.5343 129.26 54.1761 132.779 55.1581C137.526 45.2558 143.541 34.0851 161.463 17.8814ZM134.293 55.7309C140.922 58.0633 146.691 51.8028 147.346 50.9844C147.346 50.9844 146.2 49.184 145.873 48.5293C145.873 48.5293 146.855 49.8387 147.591 50.4115C149.556 49.0203 152.42 45.5423 153.075 44.3147C151.888 43.8646 147.755 38.8725 147.019 38.3406C147.019 38.3406 152.461 40.7957 154.179 41.3276C157.248 38.8725 159.499 33.8396 160.358 32.4893C159.294 31.7527 154.466 30.5252 154.466 30.5252C155.448 30.4843 158.885 31.4663 160.644 32.0801C160.849 31.7936 161.135 31.4254 161.422 31.0162C159.867 30.5661 157.453 30.1569 157.044 30.2387C158.026 30.116 160.522 30.2797 161.913 30.4024C162.977 29.0112 164.204 27.2926 164.859 25.7786C164.123 25.8195 159.049 25.3285 158.271 24.8375C158.271 24.8375 163.672 25.5331 164.614 25.2058C165.677 23.9782 166.168 20.4592 166.168 20.4592C166.005 20.4592 161.586 20.582 159.908 20.8275C159.908 20.8275 163.836 20.091 165.964 19.8864C165.964 19.8864 166.005 19.2317 165.636 18.4542C164.9 18.1678 162.036 17.8814 161.422 17.9223C142.968 36.9085 138.303 46.5652 134.293 55.7309Z" fill="#FCEE4D"/>
<path opacity="0.1" fill-rule="evenodd" clip-rule="evenodd" d="M22.9541 154.099C34.534 154.099 43.9452 154.876 43.9452 155.818C43.9452 156.759 34.534 157.536 22.9541 157.536C11.3741 157.536 1.96289 156.759 1.96289 155.818C1.96289 154.876 11.3741 154.099 22.9541 154.099Z" fill="#008B7B"/>
<path opacity="0.1" fill-rule="evenodd" clip-rule="evenodd" d="M193.992 155.122C209.091 155.122 221.325 155.899 221.325 156.841C221.325 157.782 209.091 158.559 193.992 158.559C178.893 158.559 166.658 157.782 166.658 156.841C166.617 155.899 178.893 155.122 193.992 155.122Z" fill="#008B7B"/>
<path d="M137.729 22.5461H45.1719V152.912H137.729V22.5461Z" fill="url(#paint0_linear)"/>
<path fill-rule="evenodd" clip-rule="evenodd" d="M54.297 30.5661H128.646C129.505 30.5661 130.242 31.3026 130.242 32.1619V140.841C130.242 141.701 129.505 142.437 128.646 142.437H54.297C53.4377 142.437 52.7012 141.701 52.7012 140.841V32.1619C52.7012 31.2617 53.4377 30.5661 54.297 30.5661Z" fill="white"/>
<path d="M72.3841 48.9385H63.1365V58.1861H72.3841V48.9385ZM62.2773 47.2608H74.0618V59.9046H61.418V47.2608H62.2773Z" fill="#00A899"/>
<path d="M65.0994 52.7439L66.9817 54.5853L70.3779 51.189L71.2781 52.0892L66.9817 56.4266L64.1992 53.6441L65.0994 52.7439Z" fill="#FFDE30"/>
<path d="M105.076 48.0383H79.4199V49.8796H105.076V48.0383Z" fill="#00A899"/>
<path d="M121.525 53.1531H79.4199V55.0763H121.525V53.1531Z" fill="#00A899"/>
<path d="M121.525 57.204H79.4199V59.1272H121.525V57.204Z" fill="#00A899"/>
<path d="M72.3841 70.8708H63.1365V80.1184H72.3841V70.8708ZM62.2773 69.1931H74.0618V81.837H61.418V69.1931H62.2773Z" fill="#00A899"/>
<path d="M72.3841 92.844H63.1365V102.092H72.3841V92.844ZM62.2773 91.1255H74.0618V103.769H61.418V91.1255H62.2773Z" fill="#00A899"/>
<path d="M72.3841 114.776H63.1365V124.024H72.3841V114.776ZM62.2773 113.099H74.0618V125.742H61.418V113.099H62.2773Z" fill="#00A899"/>
<path d="M65.0994 74.6762L66.9817 76.5585L70.3779 73.1213L71.2781 74.0215L66.9817 78.3589L64.1992 75.5764L65.0994 74.6762Z" fill="#FFDE30"/>
<path d="M65.0994 96.6085L66.9817 98.4907L70.3779 95.0536L71.2781 95.9947L66.9817 100.291L64.1992 97.5087L65.0994 96.6085Z" fill="#FFDE30"/>
<path d="M65.0994 118.541L66.9817 120.423L70.3779 117.027L71.2781 117.927L66.9817 122.223L64.1992 119.482L65.0994 118.541Z" fill="#FFDE30"/>
<path d="M105.076 70.0115H79.4199V71.8528H105.076V70.0115Z" fill="#00A899"/>
<path d="M105.076 91.9438H79.4199V93.7851H105.076V91.9438Z" fill="#00A899"/>
<path d="M105.076 113.876H79.4199V115.717H105.076V113.876Z" fill="#00A899"/>
<path d="M121.525 75.0854H79.4199V77.0086H121.525V75.0854Z" fill="#00A899"/>
<path d="M121.525 97.0177H79.4199V98.9409H121.525V97.0177Z" fill="#00A899"/>
<path d="M121.525 118.95H79.4199V120.873H121.525V118.95Z" fill="#00A899"/>
<path d="M121.525 79.1772H79.4199V81.1004H121.525V79.1772Z" fill="#00A899"/>
<path d="M121.525 101.11H79.4199V103.033H121.525V101.11Z" fill="#00A899"/>
<path d="M121.525 123.042H79.4199V124.965H121.525V123.042Z" fill="#00A899"/>
<path fill-rule="evenodd" clip-rule="evenodd" d="M91.4927 15.9582C93.5796 15.9582 95.2572 14.2805 95.2572 12.1937C95.2572 10.1069 93.5796 8.4292 91.4927 8.4292C89.4059 8.4292 87.7282 10.1069 87.7282 12.1937C87.7282 14.2396 89.4059 15.9582 91.4927 15.9582ZM62.4406 35.5172H120.545C120.627 35.5172 120.709 35.4763 120.79 35.4354C120.872 35.3536 120.872 35.3126 120.872 35.1899C120.422 30.0342 116.453 24.9603 110.97 24.9603H102.459V18.7407C102.459 17.7177 101.6 16.8584 100.577 16.8584H97.6305V13.3803C97.6305 10.025 94.889 7.24257 91.4927 7.24257C88.1374 7.24257 85.355 9.98411 85.355 13.3803V16.8584H82.4088C81.3859 16.8584 80.5266 17.7177 80.5266 18.7407V24.9194H72.0156C66.5325 24.9194 62.5634 30.0342 62.1133 35.149C62.1133 35.2308 62.1133 35.3126 62.1951 35.3945C62.277 35.4763 62.3179 35.5172 62.4406 35.5172Z" fill="#FFBD00"/>
<path fill-rule="evenodd" clip-rule="evenodd" d="M39.3618 154.795C39.3618 155.081 39.6482 156.227 34.206 156.063C33.4695 155.736 32.4465 155.367 32.3238 155.408C32.201 155.449 32.0374 156.022 32.0374 156.022C31.3417 156.104 29.3776 156.268 29.2549 155.654C28.9685 154.385 29.5413 152.585 30.2779 151.93H30.4415C30.4415 152.176 30.8098 152.953 31.5054 152.912C32.201 152.871 33.0194 152.176 33.224 151.726C33.6332 151.848 35.5563 153.976 37.0294 154.222C38.5434 154.467 39.1572 154.017 39.3618 154.795Z" fill="#004F3F"/>
<path fill-rule="evenodd" clip-rule="evenodd" d="M33.2646 151.726L33.3464 149.639L30.3594 149.68L30.4821 151.93L30.523 152.053C30.6049 152.38 30.9732 152.953 31.546 152.912C32.1189 152.871 32.7736 152.38 33.1009 151.971L33.2646 151.726Z" fill="url(#paint1_linear)"/>
<path fill-rule="evenodd" clip-rule="evenodd" d="M6.34049 154.795C6.34049 155.081 6.05406 156.227 11.4962 156.063C12.2327 155.736 13.2557 155.367 13.3785 155.408C13.5012 155.449 13.6649 156.022 13.6649 156.022C14.3605 156.104 16.3246 156.268 16.4474 155.654C16.7338 154.385 16.1609 152.585 15.4244 151.93H15.2607C15.2607 152.176 14.8924 152.953 14.1968 152.912C13.5012 152.871 12.6829 152.176 12.4783 151.726C12.0691 151.848 10.1459 153.976 8.67284 154.222C7.15886 154.467 6.50416 154.017 6.34049 154.795Z" fill="#004F3F"/>
<path fill-rule="evenodd" clip-rule="evenodd" d="M12.4373 151.726L12.3555 149.639L15.3425 149.68L15.2198 151.93L15.1788 152.053C15.097 152.38 14.7287 152.953 14.1559 152.912C13.583 152.871 12.9283 152.38 12.601 151.971L12.4373 151.726Z" fill="url(#paint2_linear)"/>
<path fill-rule="evenodd" clip-rule="evenodd" d="M16.4064 100.332C15.2198 106.961 12.3964 126.929 11.5371 150.621H16.7747C18.125 143.542 21.5621 120.587 24.3037 106.961C25.9404 117.395 27.5362 134.785 28.5183 150.826H33.9195C35.188 133.722 33.4694 113.999 31.6281 100.168C25.7358 102.419 20.7028 102.01 16.4064 100.332Z" fill="#66CCC3"/>
<path fill-rule="evenodd" clip-rule="evenodd" d="M22.2181 76.1902L20.4177 75.9856L19.2719 76.8449L18.0444 77.7042C17.3079 81.3868 15.6711 100.127 15.753 104.26C20.0494 105.938 26.1463 105.57 32.0385 103.319C31.4247 99.0636 28.806 81.1822 28.6014 77.3768L25.3688 75.9856L22.2181 76.1902Z" fill="#A8D8D2"/>
<path fill-rule="evenodd" clip-rule="evenodd" d="M25.3672 75.9447C25.7764 75.9447 28.5997 76.272 30.1546 77.295C31.7095 78.318 36.0878 84.2512 36.2924 104.383H33.6327C32.5279 98.4499 29.7864 86.9518 29.3772 85.1104C28.968 83.2691 27.986 81.7142 27.986 81.7142L25.3672 75.9447Z" fill="#A8D8D2"/>
<path fill-rule="evenodd" clip-rule="evenodd" d="M39.1581 79.0954L42.3088 82.4098L43.9456 86.6244L11.8246 107.125L7.03711 99.5955L39.1581 79.0954Z" fill="#FFD80F"/>
<path fill-rule="evenodd" clip-rule="evenodd" d="M39.1582 79.0954L43.9457 86.6244L50.82 76.8858L39.1582 79.0954Z" fill="#FEF7A8"/>
<path fill-rule="evenodd" clip-rule="evenodd" d="M49.265 79.0545L50.8199 76.8449L48.1602 77.3359C48.242 77.6632 48.3647 77.9906 48.5284 78.277C48.733 78.6044 48.9785 78.8908 49.265 79.0545Z" fill="#004F3F"/>
<path fill-rule="evenodd" clip-rule="evenodd" d="M0.407633 107.043L2.28988 109.989C3.10825 111.257 4.78591 111.626 6.01346 110.807L10.2281 108.107L5.44061 100.578L1.226 103.278C-0.00155194 104.097 -0.369818 105.774 0.407633 107.043Z" fill="#FFD80F"/>
<path fill-rule="evenodd" clip-rule="evenodd" d="M20.4164 75.9447C18.3704 76.272 17.1429 76.6403 14.8924 78.6453C12.6009 80.6094 8.26358 85.6424 7.4043 88.7113C8.09991 92.0666 14.1968 98.9409 17.5112 102.46L19.3116 100.905C18.8615 99.1455 14.2786 90.1025 13.1329 88.9159C14.2786 87.9747 16.8155 85.4378 17.3475 83.5146L20.4164 75.9447Z" fill="#A8D8D2"/>
<path fill-rule="evenodd" clip-rule="evenodd" d="M17.6738 102.296C17.7966 102.501 19.1878 106.838 21.1928 105.856C23.2387 104.874 22.584 102.951 21.8066 101.969C21.0291 101.028 19.5561 100.987 19.3106 100.823L17.6738 102.296Z" fill="url(#paint3_linear)"/>
<path fill-rule="evenodd" clip-rule="evenodd" d="M34.4505 104.424C34.4505 104.792 34.205 105.652 34.1641 106.347C34.1641 107.002 35.0234 108.188 34.7778 109.252C34.5323 110.316 34.3687 111.257 34.6551 111.339C34.9415 111.421 37.3148 108.393 36.2918 104.424H34.4505Z" fill="url(#paint4_linear)"/>
<path fill-rule="evenodd" clip-rule="evenodd" d="M25.3687 75.4127C25.9007 75.0035 26.228 74.4307 26.3917 73.7351C26.6372 72.7939 26.7599 70.0115 26.1462 68.2929C25.3278 68.7839 23.8547 69.0704 21.4815 68.9885C21.4815 68.9885 21.4815 70.0933 21.4815 70.2979C21.2769 70.3798 20.7859 70.6662 20.704 70.748C20.704 71.239 20.8677 72.7939 20.9495 73.0804H20.7859C20.6222 72.4257 20.2539 71.4846 19.4765 71.8528C18.7399 72.1802 19.1082 73.776 20.4585 74.1443C20.4176 74.1852 20.3767 74.1852 20.3357 74.2261V76.5584C20.4994 76.804 21.727 78.768 23.241 78.9726C24.4685 78.6862 25.1641 77.295 25.2869 76.7221V75.4127H25.3687Z" fill="url(#paint5_linear)"/>
<path fill-rule="evenodd" clip-rule="evenodd" d="M25.3671 75.8628V75.4127C25.0807 75.6173 24.7124 75.781 24.3033 75.8628C23.7713 75.9447 21.8482 75.9038 21.2344 74.4716C21.2344 74.4716 22.1346 77.1722 23.8941 77.0904C24.7943 77.0086 25.2853 76.5585 25.3671 75.8628Z" fill="#FFBD00"/>
<path fill-rule="evenodd" clip-rule="evenodd" d="M21.5212 68.9476C21.5212 68.9476 21.5212 70.0524 21.5212 70.257C21.3166 70.3389 20.8256 70.6253 20.7437 70.7071C20.7437 71.1982 20.9074 72.7531 20.9892 73.0395H20.8256C20.6619 72.3848 20.2936 71.4437 19.5162 71.8119C18.7796 72.1393 19.1479 73.7351 20.4982 74.1034C19.3116 74.6762 18.0431 74.308 18.0022 72.8349C16.7746 72.5894 15.5471 68.3748 18.5751 67.4746C18.084 65.7969 19.1888 63.5873 21.4803 64.9376C21.9304 64.3648 22.5032 63.8328 23.4444 63.9147C24.0991 63.9556 24.7537 64.5694 24.9174 65.2241C25.6949 64.8967 27.2907 65.3059 27.2089 66.9017C27.1679 68.4975 25.8176 69.4387 21.5212 68.9476Z" fill="#004F3F"/>
<path fill-rule="evenodd" clip-rule="evenodd" d="M10.7192 68.7021L11.1284 67.3518C11.2102 67.0654 11.4148 66.8608 11.7012 66.7789L13.0515 66.3697C13.1743 66.3288 13.2561 66.2061 13.2561 66.0833C13.2561 65.9606 13.1743 65.8378 13.0515 65.7969L11.7012 65.3877C11.4148 65.3059 11.2102 65.1013 11.1284 64.8148L10.7192 63.4645C10.6783 63.3418 10.5555 63.2599 10.4327 63.2599C10.31 63.2599 10.1872 63.3418 10.1463 63.4645L9.73714 64.8148C9.6553 65.1013 9.45071 65.3059 9.16428 65.3877L7.81397 65.7969C7.69121 65.8378 7.60938 65.9606 7.60938 66.0833C7.60938 66.2061 7.69121 66.3288 7.81397 66.3697L9.16428 66.7789C9.45071 66.8608 9.6553 67.0654 9.73714 67.3518L10.1463 68.7021C10.1872 68.8249 10.31 68.9067 10.4327 68.9067C10.5555 68.9067 10.6783 68.8249 10.7192 68.7021Z" fill="#A8D8D2"/>
<path fill-rule="evenodd" clip-rule="evenodd" d="M37.1928 74.2261L37.4383 73.4077C37.4792 73.2441 37.602 73.1213 37.8066 73.0395L38.6249 72.794C38.7068 72.753 38.7477 72.7121 38.7477 72.6303C38.7477 72.5485 38.7068 72.4666 38.6249 72.4666L37.8066 72.2211C37.6429 72.1802 37.5201 72.0574 37.4383 71.8528L37.1928 71.0345C37.1519 70.9526 37.111 70.9117 37.0291 70.9117C36.9473 70.9117 36.8654 70.9526 36.8654 71.0345L36.6199 71.8528C36.579 72.0165 36.4563 72.1393 36.2517 72.2211L35.4333 72.4666C35.3515 72.5075 35.3105 72.5485 35.3105 72.6303C35.3105 72.7121 35.3515 72.794 35.4333 72.794L36.2517 73.0395C36.4153 73.0804 36.5381 73.2031 36.6199 73.4077L36.8654 74.2261C36.9064 74.3079 36.9473 74.3489 37.0291 74.3489C37.111 74.3489 37.1519 74.3079 37.1928 74.2261Z" fill="white"/>
<path fill-rule="evenodd" clip-rule="evenodd" d="M38.9531 71.1572L39.1577 70.4616C39.1987 70.2979 39.3214 70.2161 39.4442 70.1752L40.1398 69.9706C40.2216 69.9297 40.2625 69.8888 40.2625 69.8069C40.2625 69.7251 40.2216 69.6842 40.1398 69.6433L39.4442 69.4387C39.2805 69.3977 39.1987 69.275 39.1577 69.1522L38.9531 68.4566C38.9122 68.3748 38.8713 68.3339 38.7895 68.3339C38.7076 68.3339 38.6667 68.3748 38.6258 68.4566L38.4212 69.1522C38.3803 69.3159 38.2575 69.3977 38.1348 69.4387L37.4392 69.6433C37.3573 69.6842 37.3164 69.7251 37.3164 69.8069C37.3164 69.8888 37.3573 69.9297 37.4392 69.9706L38.1348 70.1752C38.2984 70.2161 38.3803 70.3389 38.4212 70.4616L38.6258 71.1572C38.6667 71.2391 38.7076 71.28 38.7895 71.28C38.8713 71.28 38.9122 71.2391 38.9531 71.1572Z" fill="white"/>
<path fill-rule="evenodd" clip-rule="evenodd" d="M190.637 54.7489L190.31 53.6032C190.228 53.2759 189.982 53.0303 189.655 52.9485L188.509 52.6212C188.387 52.5803 188.305 52.4984 188.305 52.3757C188.305 52.2529 188.387 52.1711 188.509 52.1301L189.655 51.8028C189.982 51.721 190.228 51.4754 190.31 51.1481L190.637 50.0024C190.678 49.8796 190.76 49.7978 190.883 49.7978C191.005 49.7978 191.087 49.8796 191.128 50.0024L191.455 51.1481C191.537 51.4754 191.783 51.721 192.11 51.8028L193.256 52.1301C193.379 52.1711 193.46 52.2529 193.46 52.3757C193.46 52.4984 193.379 52.5803 193.256 52.6212L192.11 52.9485C191.783 53.0303 191.537 53.2759 191.455 53.6032L191.128 54.7489C191.087 54.8717 191.005 54.9535 190.883 54.9535C190.801 54.9126 190.678 54.8308 190.637 54.7489Z" fill="#DDF4F2"/>
<path fill-rule="evenodd" clip-rule="evenodd" d="M187.978 50.8617L186.382 50.166C185.932 49.9615 185.482 50.0024 185.073 50.2888L183.641 51.2708C183.518 51.3527 183.313 51.3527 183.191 51.2708C183.068 51.1481 183.027 50.9844 183.068 50.8207L183.763 49.2249C183.968 48.7748 183.927 48.3247 183.641 47.9155L182.659 46.4834C182.577 46.3606 182.577 46.156 182.7 46.0333C182.822 45.9105 182.986 45.8696 183.15 45.9105L184.745 46.6061C185.196 46.8107 185.646 46.7698 186.055 46.4834L187.487 45.5013C187.61 45.4195 187.814 45.4195 187.937 45.5423C188.06 45.665 188.101 45.8287 188.06 45.9924L187.364 47.5882C187.16 48.0383 187.201 48.4884 187.487 48.8976L188.469 50.3297C188.551 50.4525 188.551 50.6571 188.428 50.7798C188.305 50.9026 188.142 50.9435 187.978 50.8617Z" fill="#DDF4F2"/>
<path opacity="0.1" fill-rule="evenodd" clip-rule="evenodd" d="M157.657 155.163C171.979 155.163 183.599 155.94 183.599 156.881C183.599 157.823 171.979 158.6 157.657 158.6C143.336 158.6 131.715 157.823 131.715 156.881C131.715 155.94 143.336 155.163 157.657 155.163Z" fill="#008B7B"/>
<path d="M134.322 53.6231L131.816 55.3233L135.056 60.0975L137.562 58.3973L134.322 53.6231Z" fill="#FFA300"/>
<path d="M131.667 46.4285L126.08 50.2195L130.285 56.4159L135.872 52.6249L131.667 46.4285Z" fill="#FF8317"/>
<path d="M161.462 45.8696H153.893V49.9205H161.462V45.8696Z" fill="#FFA300"/>
<path fill-rule="evenodd" clip-rule="evenodd" d="M150.66 49.3068H164.654V53.9306C162.404 53.5214 160.03 53.2759 157.657 53.2759C155.284 53.2759 152.911 53.4804 150.66 53.9306V49.3068Z" fill="#FF7700"/>
<path fill-rule="evenodd" clip-rule="evenodd" d="M164.654 46.9744V44.4784C164.654 40.632 161.504 37.4813 157.657 37.4813C153.811 37.4813 150.66 40.632 150.66 44.4784V46.9744H164.654Z" fill="#FF8317"/>
<path fill-rule="evenodd" clip-rule="evenodd" d="M152.01 46.9744C152.01 45.5832 152.256 38.5043 162.854 39.8137C161.585 38.3815 159.703 37.4813 157.657 37.4813C153.811 37.4813 150.66 40.632 150.66 44.4784V46.9744H152.01Z" fill="#FFA759"/>
<path fill-rule="evenodd" clip-rule="evenodd" d="M157.656 52.0074C182.207 52.0074 202.094 71.8938 202.094 96.4448C202.094 120.996 182.207 140.882 157.656 140.882C133.105 140.882 113.219 120.996 113.219 96.4448C113.219 71.8938 133.105 52.0074 157.656 52.0074Z" fill="#007C6B"/>
<path fill-rule="evenodd" clip-rule="evenodd" d="M157.657 60.5593C177.462 60.5593 193.502 76.5994 193.502 96.4039C193.502 116.208 177.462 132.248 157.657 132.248C137.853 132.248 121.812 116.208 121.812 96.4039C121.813 76.6403 137.853 60.5593 157.657 60.5593Z" fill="#DDF4F2"/>
<path fill-rule="evenodd" clip-rule="evenodd" d="M157.657 92.6394C159.744 92.6394 161.462 94.358 161.462 96.4449C161.462 98.5317 159.744 100.25 157.657 100.25C155.57 100.25 153.852 98.5317 153.852 96.4449C153.852 94.3171 155.57 92.6394 157.657 92.6394Z" fill="#BEE9E4"/>
<path fill-rule="evenodd" clip-rule="evenodd" d="M131.553 84.824L165.556 101.805L166.947 98.6954L131.553 84.824Z" fill="#004F3F"/>
<path d="M158.354 60.5593H156.922V66.0833H158.354V60.5593Z" fill="#009887"/>
<path d="M140.042 65.2175L139.439 65.5659L142.206 70.3474L142.808 69.9991L140.042 65.2175Z" fill="#009887"/>
<path d="M126.79 78.1941L126.441 78.7962L131.223 81.5627L131.571 80.9605L126.79 78.1941Z" fill="#009887"/>
<path d="M127.336 95.7083H121.812V97.1405H127.336V95.7083Z" fill="#009887"/>
<path d="M131.205 111.274L126.424 114.04L126.772 114.642L131.554 111.876L131.205 111.274Z" fill="#009887"/>
<path d="M142.173 122.515L139.406 127.297L140.008 127.645L142.775 122.863L142.173 122.515Z" fill="#009887"/>
<path d="M158.354 126.765H156.922V132.289H158.354V126.765Z" fill="#009887"/>
<path d="M173.139 122.539L172.537 122.887L175.304 127.669L175.906 127.321L173.139 122.539Z" fill="#009887"/>
<path d="M184.132 111.301L183.783 111.903L188.565 114.67L188.913 114.068L184.132 111.301Z" fill="#009887"/>
<path d="M193.544 95.7083H188.02V97.1405H193.544V95.7083Z" fill="#009887"/>
<path d="M188.532 78.1751L183.75 80.9415L184.098 81.5436L188.88 78.7772L188.532 78.1751Z" fill="#009887"/>
<path d="M175.28 65.1779L172.514 69.9595L173.116 70.3078L175.882 65.5263L175.28 65.1779Z" fill="#009887"/>
<path d="M169.858 92.1474L130.346 104.811L130.558 105.473L170.07 92.8098L169.858 92.1474Z" fill="#004F3F"/>
<path fill-rule="evenodd" clip-rule="evenodd" d="M165.391 155.695C165.391 155.94 165.145 156.881 169.728 156.759C170.342 156.472 171.201 156.186 171.324 156.227C171.447 156.268 171.57 156.718 171.57 156.718C172.143 156.8 173.779 156.922 173.902 156.431C174.148 155.367 173.656 153.853 173.043 153.322H172.879C172.879 153.526 172.552 154.181 171.979 154.14C171.406 154.099 170.71 153.526 170.547 153.117C170.219 153.24 168.583 154.999 167.355 155.204C166.087 155.367 165.555 154.999 165.391 155.695Z" fill="#004F3F"/>
<path fill-rule="evenodd" clip-rule="evenodd" d="M197.512 117.109C193.216 118.5 186.341 118.786 183.968 118.132C180.736 120.014 173.698 126.274 171.979 129.466C171.447 131.226 169.933 143.951 170.383 151.03C170.424 151.726 170.506 152.462 170.547 153.158L170.67 153.362C170.956 153.731 171.488 154.099 171.979 154.14C172.47 154.181 172.757 153.69 172.838 153.444V153.322C172.797 145.956 178.853 137.813 180.817 130.448C184.336 129.712 191.047 130.039 195.344 124.679C196.776 122.919 197.349 120.178 197.512 117.109Z" fill="url(#paint6_linear)"/>
<path fill-rule="evenodd" clip-rule="evenodd" d="M218.095 145.138C218.34 145.179 219.24 145.506 219.568 140.923C219.322 140.269 219.158 139.409 219.158 139.286C219.199 139.164 219.69 139.082 219.69 139.082C219.813 138.509 220.1 136.913 219.609 136.75C218.586 136.381 217.031 136.75 216.417 137.322L216.376 137.486C216.581 137.486 217.235 137.895 217.113 138.427C216.99 139 216.376 139.614 215.967 139.778C216.049 140.105 217.644 141.905 217.726 143.174C217.849 144.401 217.44 144.892 218.095 145.138Z" fill="#004F3F"/>
<path fill-rule="evenodd" clip-rule="evenodd" d="M216.007 139.778C210.483 140.105 196.98 141.169 192.315 137.609C191.006 136.259 188.878 132.208 187.609 129.343C190.31 128.689 192.97 126.643 194.729 124.433C196.284 122.51 197.471 119.646 197.471 117.109C198.085 118.827 198.862 130.162 198.248 132.289C204.672 134.458 209.419 136.831 216.375 137.445L216.498 137.486C216.743 137.568 217.193 137.936 217.112 138.427C217.03 138.918 216.58 139.409 216.211 139.655L216.007 139.778Z" fill="url(#paint7_linear)"/>
<path fill-rule="evenodd" clip-rule="evenodd" d="M189.533 87.811C190.188 88.1793 189.574 89.2841 189.328 89.6524L190.024 90.2661C191.702 88.6703 192.438 84.6194 190.433 83.4737C190.433 81.8779 185.85 80.9776 184.254 81.6733C182.208 82.5326 182.208 85.8469 184.664 86.0515C185.564 86.338 186.791 86.2561 187.241 86.2152C187.364 86.4198 187.282 87.2791 187.282 87.4837C187.446 87.5246 188.019 87.5246 188.183 87.4837C188.183 87.6474 187.896 88.834 187.732 89.2432C188.101 88.7931 188.755 87.3609 189.533 87.811Z" fill="#004F3F"/>
<path d="M187.693 89.2432C187.815 88.8749 188.102 87.6883 188.143 87.4837C187.979 87.5246 187.447 87.5246 187.242 87.4837C187.283 87.2791 187.324 86.4198 187.202 86.2152C186.711 86.2561 185.524 86.2971 184.624 86.0515C184.174 86.7881 182.864 89.4478 183.232 89.9797C183.396 90.1843 184.092 90.2252 184.215 90.3071C184.337 90.3889 184.419 91.9029 184.665 92.1484C184.91 92.1893 185.319 92.1075 185.81 91.9438C185.933 92.3121 186.097 93.335 186.22 93.9079C187.406 93.335 188.797 92.5167 189.984 91.3709C189.984 90.7981 189.984 90.5117 189.943 90.348L189.247 89.7342C189.534 89.325 190.107 88.2611 189.452 87.8929C188.756 87.3609 188.102 88.7931 187.693 89.2432Z" fill="url(#paint8_linear)"/>
<path d="M190.147 86.0929H182.863V93.9083H190.147V86.0929Z" fill="url(#paint9_linear)"/>
<path fill-rule="evenodd" clip-rule="evenodd" d="M185.85 91.9438C185.891 92.1484 185.972 92.4348 186.054 92.8031C186.791 92.4348 187.896 91.1664 188.1 90.7162C187.814 91.0845 186.75 91.6165 185.85 91.9438Z" fill="#FFD600"/>
<path fill-rule="evenodd" clip-rule="evenodd" d="M174.966 74.1852C174.639 71.1572 175.334 67.5973 177.953 68.6203C178.812 68.9476 179.385 70.0934 178.976 71.0754C178.485 72.3439 176.889 73.4896 176.644 74.5126C176.521 82.2461 178.485 86.5017 180.817 89.0386C180.367 90.2662 179.467 91.9847 178.444 93.2532C173.738 85.2741 173.943 80.814 174.966 74.1852L176.685 74.5535L174.966 74.1852Z" fill="url(#paint10_linear)"/>
<path fill-rule="evenodd" clip-rule="evenodd" d="M202.258 72.8758C202.135 72.1393 202.135 68.0883 200.212 68.252C198.166 68.4566 198.698 70.7071 199.025 71.4027C199.394 72.0984 199.967 72.3848 200.253 73.3668C199.516 80.0775 197.348 84.2921 194.934 87.1154C194.934 87.1154 196.734 89.1204 198.616 90.8799C201.399 85.2332 202.422 75.2491 202.258 72.8758Z" fill="url(#paint11_linear)"/>
<path fill-rule="evenodd" clip-rule="evenodd" d="M194.689 97.5496C194.894 97.9997 195.507 99.8002 195.712 100.823C196.244 103.728 197.717 111.053 197.471 117.109C193.298 118.459 186.751 118.745 184.173 118.173L183.927 118.132C183.6 115.554 183.887 107.575 184.705 101.232C185.114 98.0407 185.605 95.2582 186.26 93.7851C186.26 93.8261 186.26 93.867 186.301 93.9079C186.383 93.867 186.505 93.8261 186.587 93.7851C187.692 93.2123 188.96 92.4757 190.065 91.4119C190.065 91.3709 190.065 91.3709 190.065 91.33C191.62 90.348 193.38 89.0795 195.016 87.1973C195.016 87.1973 196.817 89.2023 198.699 90.9618C199.026 91.2482 199.313 91.5346 199.64 91.821C198.535 94.5217 196.694 96.4858 194.689 97.5496Z" fill="#FCEE4D"/>
<path fill-rule="evenodd" clip-rule="evenodd" d="M178.484 93.2941C179.507 92.0257 180.407 90.3071 180.857 89.0795C182.085 90.4298 183.435 91.2891 184.621 91.9438C184.662 92.0257 184.703 92.1075 184.744 92.1484C184.826 92.1484 184.908 92.1484 185.031 92.1484C185.399 92.353 185.767 92.5167 186.054 92.6804C186.135 93.0486 186.217 93.4578 186.258 93.7442C185.726 95.0536 185.235 97.4269 184.867 100.168C182.289 99.0227 178.238 95.7492 177.379 94.3989C177.747 94.1125 178.115 93.7442 178.484 93.2941Z" fill="#FBE91A"/>
<path fill-rule="evenodd" clip-rule="evenodd" d="M172.919 151.848L170.423 151.685C170.423 151.439 170.382 151.235 170.382 150.989C169.891 143.91 171.405 131.185 171.977 129.425C173.737 126.233 180.734 119.973 183.967 118.091C184.048 118.132 184.13 118.132 184.212 118.132C186.831 118.704 193.378 118.418 197.511 117.068C197.511 117.436 197.47 117.845 197.429 118.213C197.142 120.423 196.119 122.714 194.769 124.392C193.01 126.561 190.35 128.607 187.649 129.302C185.071 129.957 182.575 130.039 180.857 130.407C180.652 132.74 175.046 147.02 174.269 151.889L172.919 151.848Z" fill="#66CCC3"/>
<path fill-rule="evenodd" clip-rule="evenodd" d="M214.863 137.281V137.322V137.363V137.404V137.445V137.486V137.527V137.568V137.609V137.65V137.691V137.732V137.772V137.813V137.854V137.895V137.936V137.977V138.018V138.1V138.141V138.182V138.223V138.264V138.304V138.345V138.386V138.427V138.468V138.509V138.591V138.632V138.673V138.714V138.755V138.795V138.836V138.877V138.918V138.959V139V139.041V139.082V139.123V139.164V139.205V139.246V139.286V139.327V139.368V139.409V139.45V139.491V139.532V139.573V139.614V139.655V139.696V139.737V139.778C214.863 140.35 214.904 140.76 214.904 140.76C213.431 141.005 196.409 140.841 192.686 137.691C192.604 137.65 192.522 137.568 192.44 137.527C191.131 136.177 189.003 132.126 187.734 129.261C190.435 128.607 193.095 126.561 194.854 124.351C196.205 122.714 197.227 120.382 197.514 118.173C197.555 117.804 197.596 117.395 197.596 117.027C198.21 118.745 198.987 130.08 198.373 132.208C204.184 134.294 208.726 136.504 214.863 137.281Z" fill="#66CCC3"/>
<defs>
<linearGradient id="paint0_linear" x1="91.4766" y1="150.394" x2="91.4766" y2="16.8764" gradientUnits="userSpaceOnUse">
<stop stop-color="#66CCC3"/>
<stop offset="1" stop-color="#7DD4CC"/>
</linearGradient>
<linearGradient id="paint1_linear" x1="30.3544" y1="151.301" x2="33.3445" y2="151.301" gradientUnits="userSpaceOnUse">
<stop stop-color="#FFA58E"/>
<stop offset="1" stop-color="#FFC39F"/>
</linearGradient>
<linearGradient id="paint2_linear" x1="12.353" y1="151.301" x2="15.3432" y2="151.301" gradientUnits="userSpaceOnUse">
<stop stop-color="#FFA58E"/>
<stop offset="1" stop-color="#FFC39F"/>
</linearGradient>
<linearGradient id="paint3_linear" x1="17.66" y1="103.45" x2="22.559" y2="103.45" gradientUnits="userSpaceOnUse">
<stop stop-color="#FFA58E"/>
<stop offset="1" stop-color="#FFC39F"/>
</linearGradient>
<linearGradient id="paint4_linear" x1="34.1998" y1="107.865" x2="36.5722" y2="107.865" gradientUnits="userSpaceOnUse">
<stop stop-color="#FFA58E"/>
<stop offset="1" stop-color="#FFC39F"/>
</linearGradient>
<linearGradient id="paint5_linear" x1="19.1778" y1="73.5963" x2="26.6435" y2="73.5963" gradientUnits="userSpaceOnUse">
<stop stop-color="#FFA58E"/>
<stop offset="1" stop-color="#FFC39F"/>
</linearGradient>
<linearGradient id="paint6_linear" x1="170.268" y1="135.612" x2="197.495" y2="135.612" gradientUnits="userSpaceOnUse">
<stop stop-color="#FFA58E"/>
<stop offset="1" stop-color="#FFC39F"/>
</linearGradient>
<linearGradient id="paint7_linear" x1="187.626" y1="128.639" x2="217.163" y2="128.639" gradientUnits="userSpaceOnUse">
<stop stop-color="#FFA58E"/>
<stop offset="1" stop-color="#FFC39F"/>
</linearGradient>
<linearGradient id="paint8_linear" x1="183.194" y1="89.9713" x2="190.035" y2="89.9713" gradientUnits="userSpaceOnUse">
<stop stop-color="#FFA58E"/>
<stop offset="1" stop-color="#FFC39F"/>
</linearGradient>
<linearGradient id="paint9_linear" x1="188.196" y1="91.9962" x2="185.098" y2="88.2749" gradientUnits="userSpaceOnUse">
<stop stop-color="#FFA58E"/>
<stop offset="1" stop-color="#FFC39F"/>
</linearGradient>
<linearGradient id="paint10_linear" x1="174.366" y1="80.8829" x2="180.839" y2="80.8829" gradientUnits="userSpaceOnUse">
<stop stop-color="#FFA58E"/>
<stop offset="1" stop-color="#FFC39F"/>
</linearGradient>
<linearGradient id="paint11_linear" x1="194.962" y1="79.558" x2="202.279" y2="79.558" gradientUnits="userSpaceOnUse">
<stop stop-color="#FFA58E"/>
<stop offset="1" stop-color="#FFC39F"/>
</linearGradient>
</defs>
</svg>
