<svg width="24" height="24" viewBox="0 0 24 24" fill="none" xmlns="http://www.w3.org/2000/svg">
<path d="M20.9762 11.4384L12.9503 19.4644C11.967 20.4476 10.6335 21 9.24295 21C7.85243 21 6.51887 20.4476 5.53562 19.4644C4.55238 18.4811 4 17.1476 4 15.7571C4 14.3665 4.55238 13.033 5.53562 12.0497L13.5616 4.02375C14.2171 3.36825 15.1061 3 16.0332 3C16.9602 3 17.8492 3.36825 18.5047 4.02375C19.1602 4.67924 19.5284 5.56829 19.5284 6.4953C19.5284 7.42231 19.1602 8.31135 18.5047 8.96685L10.47 16.9928C10.1422 17.3206 9.69772 17.5047 9.23421 17.5047C8.77071 17.5047 8.32619 17.3206 7.99844 16.9928C7.67069 16.6651 7.48656 16.2206 7.48656 15.7571C7.48656 15.2935 7.67069 14.849 7.99844 14.5213L15.4131 7.11537" stroke="#4DB6AC" stroke-width="1.5" stroke-linecap="round" stroke-linejoin="round"/>
</svg>
