<svg width="30" height="30" viewBox="0 0 30 30" fill="none" xmlns="http://www.w3.org/2000/svg">
<path d="M26.9155 24.5915C26.9155 24.7606 26.662 24.8451 26.4084 24.8451H3.50704C3.25352 24.8451 3 24.7606 3 24.5915V24C3 23.831 3.25352 23.7465 3.50704 23.7465H26.493C26.7465 23.7465 27 23.831 27 24V24.5915H26.9155Z" fill="#C6CFCE"/>
<path d="M25.9026 9.38028H3.76172V23.662H25.9026V9.38028Z" fill="#EEF0F0"/>
<path d="M26.493 7.01408H16.6901V6.67606C16.6901 6.25352 16.4366 6 16.1831 6H13.6479C13.3944 6 13.1408 6.33803 13.1408 6.67606V7.01408H3.50704C3.25352 7.01408 3 7.26761 3 7.60563V8.87324C3 9.21127 3.25352 9.46479 3.50704 9.46479H26.493C26.7465 9.46479 27 9.21127 27 8.87324V7.60563C26.9155 7.26761 26.7465 7.01408 26.493 7.01408Z" fill="#C6CFCE"/>
<path d="M8.91437 15.2118H6.9707V21.0428H8.91437V15.2118Z" fill="#C6CFCE"/>
<path d="M12.3792 16.5636H10.4355V21.0424H12.3792V16.5636Z" fill="#C6CFCE"/>
<path d="M15.8441 17.5778H13.9004V21.0426H15.8441V17.5778Z" fill="#C6CFCE"/>
<path d="M19.3089 12.0849H17.3652V21.0426H19.3089V12.0849Z" fill="#C6CFCE"/>
<path d="M22.7737 14.7047H20.8301V21.0427H22.7737V14.7047Z" fill="#C6CFCE"/>
</svg>
