<svg width="30" height="30" viewBox="0 0 30 30" fill="none" xmlns="http://www.w3.org/2000/svg">
<path d="M26.9155 24.5915C26.9155 24.7605 26.662 24.8451 26.4084 24.8451H3.50704C3.25352 24.8451 3 24.7605 3 24.5915V24C3 23.831 3.25352 23.7465 3.50704 23.7465H26.493C26.7465 23.7465 27 23.831 27 24V24.5915H26.9155Z" fill="#00796B"/>
<path d="M25.9017 9.38031H3.76086V23.662H25.9017V9.38031Z" fill="#EFF8F8"/>
<path d="M26.493 7.01408H16.6901V6.67606C16.6901 6.25352 16.4366 6 16.1831 6H13.6479C13.3944 6 13.1408 6.33803 13.1408 6.67606V7.01408H3.50704C3.25352 7.01408 3 7.26761 3 7.60563V8.87324C3 9.21127 3.25352 9.46479 3.50704 9.46479H26.493C26.7465 9.46479 27 9.21127 27 8.87324V7.60563C26.9155 7.26761 26.7465 7.01408 26.493 7.01408Z" fill="#00796B"/>
<path d="M8.91534 15.2119H6.97168V21.0428H8.91534V15.2119Z" fill="#4DB6AC"/>
<path d="M12.3798 16.5636H10.4362V21.0425H12.3798V16.5636Z" fill="#4DB6AC"/>
<path d="M15.8443 17.5779H13.9006V21.0427H15.8443V17.5779Z" fill="#4DB6AC"/>
<path d="M19.3104 12.0849H17.3667V21.0426H19.3104V12.0849Z" fill="#4DB6AC"/>
<path d="M22.7748 14.7047H20.8312V21.0427H22.7748V14.7047Z" fill="#4DB6AC"/>
</svg>
