<svg width="36" height="36" viewBox="0 0 36 36" fill="none" xmlns="http://www.w3.org/2000/svg">
<rect width="36" height="36" rx="5" fill="#009688"/>
<path fill-rule="evenodd" clip-rule="evenodd" d="M17.7938 4.3125C17.0704 4.3125 16.3899 4.5798 15.853 5.06414L15.851 5.06596C15.2541 5.6095 14.9151 6.38493 14.9151 7.19124V7.30541C13.2582 7.87092 11.774 8.94427 10.7132 10.3469C9.53546 11.899 8.92361 13.7453 8.92361 15.687V22.5907L6.25076 25.2636C5.96348 25.5509 5.8125 25.9257 5.8125 26.328V27.7126C5.8125 28.5446 6.48314 29.2153 7.31517 29.2153H13.7004C14.1481 31.0619 15.815 32.4375 17.7938 32.4375C19.781 32.4375 21.4409 31.0613 21.8874 29.2153H28.2724C29.1045 29.2153 29.7751 28.5446 29.7751 27.7126V26.328C29.7751 25.9142 29.6078 25.5476 29.3466 25.2733L26.6725 22.5993V15.6955C26.6725 13.7532 26.0518 11.8989 24.8835 10.3563C23.8227 8.95322 22.3383 7.87957 20.6811 7.31396V7.19979C20.6811 6.39337 20.3404 5.61656 19.7436 5.07308C19.199 4.58084 18.5187 4.3125 17.7938 4.3125ZM17.1801 6.53967C17.3529 6.38308 17.561 6.30075 17.7938 6.30075C18.0193 6.30075 18.2352 6.38394 18.4066 6.53881C18.5922 6.70895 18.7014 6.95257 18.7014 7.19979V7.66132C18.7014 8.33452 19.1437 8.90848 19.7779 9.09768C22.6689 9.96691 24.6928 12.6801 24.6928 15.6955V22.7981C24.6928 23.1891 24.8419 23.5733 25.1311 23.8625L27.7954 26.5268V27.2356H7.7922V26.5268L10.4565 23.8625C10.7438 23.5752 10.8948 23.2004 10.8948 22.7981V15.6955C10.8948 12.6801 12.9187 9.96685 15.8098 9.09765C16.444 8.90842 16.8862 8.33449 16.8862 7.66132V7.19979C16.8862 6.94527 16.9921 6.70683 17.1761 6.5433L17.1801 6.53967ZM17.7938 30.4578C16.9202 30.4578 16.1591 29.952 15.7938 29.2153H19.7938C19.4285 29.952 18.6674 30.4578 17.7938 30.4578Z" fill="white"/>
<path d="M24.8237 19.2725C28.3853 19.2725 31.2725 16.3853 31.2725 12.8237C31.2725 9.2622 28.3853 6.375 24.8237 6.375C21.2622 6.375 18.375 9.2622 18.375 12.8237C18.375 16.3853 21.2622 19.2725 24.8237 19.2725Z" fill="#EB5757"/>
<path d="M23.415 14.928H24.675V11.6205C24.675 11.4585 24.6795 11.289 24.6885 11.112L23.946 11.7285C23.898 11.7675 23.85 11.796 23.802 11.814C23.754 11.829 23.7075 11.8365 23.6625 11.8365C23.5845 11.8365 23.514 11.82 23.451 11.787C23.391 11.751 23.346 11.7135 23.316 11.6745L22.875 11.0895L24.918 9.375H26.07V14.928H27.15V15.936H23.415V14.928Z" fill="white"/>
</svg>
