<svg width="30" height="30" viewBox="0 0 30 30" fill="none" xmlns="http://www.w3.org/2000/svg">
<path d="M3.75 5H10.5C11.6935 5 12.8381 5.47411 13.682 6.31802C14.5259 7.16193 15 8.30653 15 9.5V25.25C15 24.3549 14.6444 23.4964 14.0115 22.8635C13.3786 22.2306 12.5201 21.875 11.625 21.875H3.75V5Z" fill="white" stroke="#4DB6AC" stroke-width="1.5" stroke-linecap="round" stroke-linejoin="round"/>
<path d="M26.25 5H19.5C18.3065 5 17.1619 5.47411 16.318 6.31802C15.4741 7.16193 15 8.30653 15 9.5V25.25C15 24.3549 15.3556 23.4964 15.9885 22.8635C16.6214 22.2306 17.4799 21.875 18.375 21.875H26.25V5Z" fill="#FCD734" stroke="#4DB6AC" stroke-width="1.5" stroke-linecap="round" stroke-linejoin="round"/>
</svg>
