<svg width="18" height="18" viewBox="0 0 18 18" fill="none" xmlns="http://www.w3.org/2000/svg">
<path d="M14.9229 6.048H12.5469V8.424H14.9229V6.048Z" fill="#4DB6AC"/>
<path d="M11.626 6.048H9.25V8.424H11.626V6.048Z" fill="#4DB6AC"/>
<path d="M8.32131 6.04799H5.94531V8.42399H8.32131V6.04799Z" fill="#4DB6AC"/>
<path d="M5.02444 6.048H2.64844V8.424H5.02444V6.048Z" fill="#4DB6AC"/>
<path d="M14.9229 9.44551H12.5469V11.8215H14.9229V9.44551Z" fill="#4DB6AC"/>
<path d="M11.626 9.44551H9.25V11.8215H11.626V9.44551Z" fill="#4DB6AC"/>
<path d="M8.32131 9.44551H5.94531V11.8215H8.32131V9.44551Z" fill="#4DB6AC"/>
<path d="M5.02444 9.44551H2.64844V11.8215H5.02444V9.44551Z" fill="#4DB6AC"/>
<path d="M11.626 12.87H9.25V15.246H11.626V12.87Z" fill="#4DB6AC"/>
<path d="M8.32131 12.87H5.94531V15.246H8.32131V12.87Z" fill="#4DB6AC"/>
<path d="M5.02444 12.87H2.64844V15.246H5.02444V12.87Z" fill="#4DB6AC"/>
<path d="M16.7175 2.0475H15.1875H15.111V2.403C15.111 3.0375 14.5935 3.5595 13.9545 3.5595H13.428C12.7935 3.5595 12.2715 3.042 12.2715 2.403V2.0475H5.562V2.403C5.562 3.0375 5.0445 3.5595 4.4055 3.5595H3.879C3.2445 3.5595 2.7225 3.042 2.7225 2.403V2.0475H2.646H1.116C0.504 2.0475 0 2.547 0 3.1635V4.6935V15.354V16.884C0 17.496 0.504 18 1.1205 18H2.6505H15.192H16.722C17.3385 18 17.8425 17.496 17.8425 16.8795V15.3495V4.6935V3.1635C17.8335 2.547 17.334 2.0475 16.7175 2.0475ZM16.0605 16.3575H1.557V4.8555L16.0875 4.887L16.0605 16.3575Z" fill="#4DB6AC"/>
<path d="M3.87837 3.1095H4.40488C4.79638 3.1095 5.11137 2.79 5.11137 2.403V0.7065C5.11137 0.315 4.79188 0 4.40488 0H3.87837C3.48687 0 3.17188 0.3195 3.17188 0.7065V2.3985C3.17188 2.79 3.48687 3.1095 3.87837 3.1095Z" fill="#4DB6AC"/>
<path d="M13.4292 3.1095H13.9557C14.3472 3.1095 14.6622 2.79 14.6622 2.403V0.7065C14.6622 0.315 14.3427 0 13.9557 0H13.4292C13.0377 0 12.7227 0.3195 12.7227 0.7065V2.3985C12.7227 2.79 13.0377 3.1095 13.4292 3.1095Z" fill="#4DB6AC"/>
</svg>
