<svg width="30" height="30" viewBox="0 0 30 30" fill="none" xmlns="http://www.w3.org/2000/svg">
<path fill-rule="evenodd" clip-rule="evenodd" d="M7.88027 16.5004L3.7935 23.8257C3.72232 23.9503 3.74011 24.0986 3.83502 24.2053C3.92992 24.3121 4.07228 24.3477 4.2087 24.2943L26.0424 15.5928C26.1729 15.5395 26.25 15.4208 26.25 15.2844C26.25 15.148 26.167 15.0294 26.0424 14.976L4.2087 6.27453C4.07228 6.22114 3.92992 6.25673 3.83502 6.3635C3.74011 6.47026 3.72232 6.61855 3.7935 6.74311L7.88027 14.0685L18.2188 15.1658C18.2959 15.1717 18.3552 15.2251 18.3552 15.2844C18.3552 15.3437 18.2959 15.3971 18.2188 15.403L7.88027 16.5004Z" fill="#80CBC4"/>
</svg>
