<svg width="20" height="19" viewBox="0 0 20 19" fill="none" xmlns="http://www.w3.org/2000/svg">
<path d="M5.09091 15.4235H3.45455C2.06364 15.4235 1 14.3598 1 12.9689V7.24166C1 5.85075 2.06364 4.78711 3.45455 4.78711H5.09091V15.4235Z" stroke="#009887" stroke-miterlimit="10"/>
<path d="M5.0918 15.4232C9.18271 15.4232 12.7827 16.8141 15.4827 18.3687C15.9736 18.6141 16.5463 18.1232 16.5463 17.5505V1.84141C16.5463 1.26869 15.9736 0.777778 15.4827 1.10505C12.8645 2.6596 9.18271 4.78687 5.0918 4.78687V15.4232Z" stroke="#009887" stroke-miterlimit="10"/>
<path d="M17.3631 13.7867H16.5449V7.24121H17.3631C18.2631 7.24121 18.9995 7.97757 18.9995 8.87757V12.1503C18.9995 13.0503 18.2631 13.7867 17.3631 13.7867Z" stroke="#009887" stroke-miterlimit="10"/>
</svg>
