<svg width="30" height="30" viewBox="0 0 30 30" fill="none" xmlns="http://www.w3.org/2000/svg">
<path d="M3 11.8049C3 10.9268 3.73171 10.2683 4.53659 10.2683H16.7561C17.6341 10.2683 18.2927 11 18.2927 11.8049V11.9512V19.1951C18.2927 20.0732 17.561 20.7317 16.7561 20.7317H10.2439H9.5122L7.68293 22.6342L6.14634 20.7317H4.60976C3.73171 20.7317 3.07317 20 3.07317 19.1951V11.8049H3Z" fill="#4DB6AC"/>
<path d="M27.0006 16.8537C27.0006 17.7317 26.2689 18.3902 25.464 18.3902H23.8543L22.2445 20.3659L20.4153 18.4634H19.6835H13.1714C12.2933 18.4634 11.6348 17.7317 11.6348 16.9268V9.68293V9.53659C11.6348 8.65854 12.3665 8 13.1714 8H25.3909C26.2689 8 26.9275 8.73171 26.9275 9.53659V16.8537H27.0006Z" fill="#FCD734"/>
</svg>
