<svg width="215" height="174" viewBox="0 0 215 174" fill="none" xmlns="http://www.w3.org/2000/svg">
<path d="M70.9253 166.722C70.4704 166.722 70.0913 166.494 69.8639 166.039L43.4038 114.635C43.1005 114.029 43.3279 113.346 43.9345 113.043C44.541 112.74 45.2234 112.967 45.5266 113.574L71.9868 164.978C72.29 165.584 72.0626 166.267 71.456 166.57C71.3044 166.722 71.077 166.722 70.9253 166.722Z" fill="#008B7B"/>
<path d="M44.4652 166.722C44.3136 166.722 44.0861 166.646 43.9345 166.57C43.3279 166.267 43.1005 165.584 43.4038 164.978L69.8639 113.574C70.1672 112.967 70.8495 112.74 71.456 113.043C72.0626 113.346 72.29 114.029 71.9868 114.635L45.5266 166.039C45.2992 166.494 44.9201 166.722 44.4652 166.722Z" fill="#008B7B"/>
<path d="M155.158 166.722C154.703 166.722 154.324 166.494 154.096 166.039L127.636 114.635C127.333 114.029 127.56 113.346 128.167 113.043C128.773 112.74 129.456 112.967 129.759 113.574L156.219 164.978C156.522 165.584 156.295 166.267 155.688 166.57C155.537 166.722 155.309 166.722 155.158 166.722Z" fill="#008B7B"/>
<path d="M128.698 166.722C128.546 166.722 128.319 166.646 128.167 166.57C127.56 166.267 127.333 165.584 127.636 164.978L154.096 113.574C154.4 112.967 155.082 112.74 155.688 113.043C156.295 113.346 156.522 114.029 156.219 114.635L129.759 166.039C129.532 166.494 129.153 166.722 128.698 166.722Z" fill="#008B7B"/>
<path d="M181.77 82.413H44.1621L68.1203 0H205.652L181.77 82.413Z" fill="white"/>
<path d="M178.359 78.6222H49.2424L70.9261 3.79082H200.042L178.359 78.6222Z" fill="#66CCC3"/>
<path d="M110.273 11.9033L111.183 8.87062H74.3358L73.426 11.9033H110.273Z" fill="white"/>
<path d="M97.4606 17.8162L98.3704 14.7835H73.0475L72.1377 17.8162H97.4606Z" fill="white"/>
<path d="M88.7421 23.7308L89.6519 20.6981H71.6832L70.7734 23.7308H88.7421Z" fill="white"/>
<path d="M188.973 92.7242L188.518 94.5436L187.381 96.9693C187.381 96.9693 188.745 98.1064 190.64 99.0919C193.066 100.229 194.734 97.879 193.9 97.0451C193.597 96.7419 192.99 97.1968 192.687 96.7419C191.853 95.6048 193.445 93.1791 193.445 93.1791L188.973 92.7242Z" fill="#FFAB92"/>
<path d="M188.547 89.39L187.082 92.0444L192.855 95.2318L194.321 92.5774L188.547 89.39Z" fill="white"/>
<path d="M126.12 33.4353C126.12 33.4353 128.546 33.8143 129.077 34.345C129.911 35.103 130.896 38.4385 130.896 38.4385L128.395 36.9982L126.272 33.8901L126.12 33.4353Z" fill="url(#paint0_linear)"/>
<path d="M129.229 39.9556L115.734 18.8785L116.72 18.651L130.821 38.97L129.229 39.9556Z" fill="white"/>
<path d="M129.152 44.8062L126.954 42.2288C126.954 42.2288 124.832 40.8643 124.301 39.424C123.391 36.9983 125.059 33.587 125.438 34.1176C127.106 36.6192 129.456 36.0128 130.441 37.3015C130.896 37.8321 131.351 40.8643 131.351 40.8643L132.791 42.4562L129.152 44.8062Z" fill="url(#paint1_linear)"/>
<path d="M132.033 41.6236L127.864 43.2155L128.849 44.4284L132.64 42.3059L132.033 41.6236Z" fill="#FBE600"/>
<path d="M133.052 40.7553L128.062 45.0685L133.07 50.8605L138.059 46.5473L133.052 40.7553Z" fill="white"/>
<path d="M178.206 49.5072C178.206 44.9589 177.296 40.7896 177.296 40.7896C177.296 40.7896 171.232 40.5621 171.762 44.2008C171.99 46.0959 172.066 48.0669 171.99 49.7346C171.99 49.7346 173.43 51.1749 176.311 51.1749C178.509 51.2507 178.206 49.5072 178.206 49.5072Z" fill="url(#paint2_linear)"/>
<path d="M175.704 30.9333C173.961 29.6444 169.791 26.8392 168.047 30.1751C167.516 31.2366 168.274 31.3124 167.137 34.7242C166.455 36.6954 165.697 37.4536 165.166 38.2117C164.863 38.6666 165.924 39.349 166.151 39.4248C166.379 44.2013 167.971 45.8693 168.653 46.0967C172.672 47.3098 178.434 42.6849 178.737 38.7425C179.04 33.8902 177.448 32.298 175.704 30.9333Z" fill="url(#paint3_linear)"/>
<path d="M181.694 31.085C177.145 26.0053 172.52 30.1752 169.26 24.6406C169.032 24.2615 165.242 27.0667 165.469 31.1608C165.697 34.421 168.502 36.6955 169.715 37.4537C170.246 37.7569 170.549 37.6053 170.776 37.3778C171.383 36.8471 171.914 36.3164 172.444 36.6197C173.581 37.2262 172.823 39.1216 171.989 40.1831C170.321 42.2301 173.278 47.6131 177.979 47.0824C183.817 46.4001 186.091 35.9373 181.694 31.085Z" fill="#014E3F"/>
<path d="M186.167 97.1973H168.653V106.523H186.167V97.1973Z" fill="#00A899"/>
<path d="M173.96 157.244L174.263 160.579L172.899 162.171L168.502 161.565L168.123 154.742L173.96 157.244Z" fill="url(#paint4_linear)"/>
<path d="M173.885 159.897C173.657 160.58 173.657 160.883 172.748 160.883C171.08 160.883 169.639 159.822 168.805 159.139C167.819 158.381 167.137 159.063 167.137 159.063C167.137 159.063 164.711 161.262 162.967 162.399C160.769 163.84 157.053 163.764 157.053 165.508H176.159C176.159 165.508 175.325 162.096 174.795 159.746C174.643 159.367 174.036 159.291 173.885 159.897Z" fill="#014E3F"/>
<path d="M174.262 164.218H168.046C167.894 164.218 167.742 164.067 167.742 163.915C167.742 163.763 167.894 163.612 168.046 163.612H174.262C174.413 163.612 174.565 163.763 174.565 163.915C174.565 164.067 174.489 164.218 174.262 164.218Z" fill="#00B8AB"/>
<path d="M164.028 161.186L163.497 161.565L164.331 162.551L164.862 162.172L164.028 161.186Z" fill="#00B8AB"/>
<path d="M165.165 160.352L164.558 160.731L165.468 161.717L165.999 161.338L165.165 160.352Z" fill="#00B8AB"/>
<path d="M166.226 159.443L165.696 159.897L166.529 160.883L167.136 160.428L166.226 159.443Z" fill="#00B8AB"/>
<path d="M187.531 157.244L188.516 161.641L195.111 162.55L193.444 154.743L187.531 157.244Z" fill="url(#paint5_linear)"/>
<path d="M188.365 159.897C188.593 160.58 188.593 160.883 189.503 160.883C191.171 160.883 192.611 159.822 193.445 159.139C194.431 158.381 195.113 159.063 195.113 159.063C195.113 159.063 197.539 161.262 199.283 162.399C201.482 163.84 205.197 163.764 205.197 165.508H186.091C186.091 165.508 186.925 162.096 187.456 159.746C187.531 159.367 188.138 159.291 188.365 159.897Z" fill="#014E3F"/>
<path d="M194.127 164.218H187.911C187.759 164.218 187.607 164.067 187.607 163.915C187.607 163.763 187.759 163.612 187.911 163.612H194.127C194.278 163.612 194.43 163.763 194.43 163.915C194.43 164.067 194.278 164.218 194.127 164.218Z" fill="#00B8AB"/>
<path d="M198.147 161.187L198.753 161.566L197.844 162.552L197.313 162.173L198.147 161.187Z" fill="#00B8AB"/>
<path d="M197.083 160.352L197.614 160.731L196.78 161.717L196.174 161.338L197.083 160.352Z" fill="#00B8AB"/>
<path d="M195.945 159.443L196.476 159.897L195.642 160.883L195.112 160.428L195.945 159.443Z" fill="#00B8AB"/>
<path d="M176.387 96.2118H165.469V157.396H176.387V96.2118Z" fill="#00A899"/>
<path d="M196.402 157.396H185.485L177.145 96.2118H188.062L196.402 157.396Z" fill="#00A899"/>
<path d="M165.318 99.6236L189.579 107.509L188.442 99.4719L165.318 99.6236Z" fill="#009887"/>
<path d="M193.143 155.046C192.991 155.046 192.84 154.97 192.84 154.818L185.106 98.3345C185.106 98.1828 185.182 98.0312 185.334 98.0312C185.486 98.0312 185.637 98.107 185.637 98.2586L193.371 154.742C193.446 154.818 193.295 154.97 193.143 155.046C193.143 154.97 193.143 155.046 193.143 155.046Z" fill="#DBF2F0"/>
<path d="M168.123 155.046C167.971 155.046 167.82 154.894 167.82 154.743V98.2589C167.82 98.1072 167.971 97.9556 168.123 97.9556C168.275 97.9556 168.426 98.1072 168.426 98.2589V154.743C168.426 154.894 168.275 155.046 168.123 155.046Z" fill="#DBF2F0"/>
<path d="M201.255 65.5059C197.085 62.0183 188.139 54.3608 185.106 52.0863C182.832 50.3425 179.041 49.2811 175.781 49.2811C170.777 49.2811 167.517 51.3281 165.318 52.4654L150.989 60.2745L135.294 42.0026L128.774 47.5373C128.774 47.5373 140.526 62.0941 143.786 66.0366C147.198 70.1307 150.609 70.7373 154.552 68.9935C156.826 68.0078 163.195 64.5961 163.195 64.5961C163.195 74.6797 163.195 99.6993 163.195 99.6993H190.944L186.243 64.4444L195.645 72.1778L187.457 89.5399L194.356 93.3307C194.356 93.3307 201.255 79.6078 203.378 75.1346C204.743 72.3294 204.515 68.3111 201.255 65.5059Z" fill="#006B5C"/>
<path d="M134.686 42.4576L127.485 48.522L129.607 51.251L134.535 46.7785L134.686 42.4576Z" fill="#006B5C"/>
<path d="M170.548 154.743H163.574V157.396H170.548V154.743Z" fill="#00A899"/>
<path d="M190.413 154.743H197.463L197.766 157.396H190.792L190.413 154.743Z" fill="#00A899"/>
<path d="M174.49 155.046H167.137C166.985 155.046 166.834 154.894 166.834 154.742C166.834 154.591 166.985 154.439 167.137 154.439H174.49C174.642 154.439 174.793 154.591 174.793 154.742C174.793 154.894 174.642 155.046 174.49 155.046Z" fill="#DBF2F0"/>
<path d="M194.658 155.046H187.304C187.153 155.046 187.001 154.894 187.001 154.742C187.001 154.591 187.153 154.439 187.304 154.439H194.658C194.809 154.439 194.961 154.591 194.961 154.742C194.961 154.894 194.885 155.046 194.658 155.046Z" fill="#DBF2F0"/>
<path d="M175.249 129.799H170.625C170.473 129.799 170.321 129.647 170.321 129.495C170.321 129.344 170.473 129.192 170.625 129.192H175.249C175.4 129.192 175.552 129.344 175.552 129.495C175.552 129.647 175.4 129.799 175.249 129.799Z" fill="#009887"/>
<path d="M175.249 128.358C175.173 128.358 175.173 128.358 175.097 128.282L172.671 126.69C172.52 126.614 172.52 126.387 172.596 126.311C172.671 126.159 172.899 126.159 172.975 126.235L175.4 127.827C175.552 127.903 175.552 128.13 175.476 128.206C175.4 128.282 175.325 128.358 175.249 128.358Z" fill="#009887"/>
<path d="M185.939 132.983C185.863 132.983 185.863 132.983 185.787 132.907L183.362 131.315C183.21 131.239 183.21 131.012 183.286 130.936C183.362 130.784 183.589 130.784 183.665 130.86L186.091 132.452C186.242 132.528 186.242 132.755 186.166 132.831C186.091 132.907 186.015 132.983 185.939 132.983Z" fill="#009887"/>
<path d="M187.607 129.799H183.514C183.362 129.799 183.21 129.647 183.21 129.495C183.21 129.344 183.362 129.192 183.514 129.192H187.607C187.759 129.192 187.91 129.344 187.91 129.495C187.91 129.647 187.759 129.799 187.607 129.799Z" fill="#009887"/>
<path d="M187.456 89.5396L195.113 93.7847L196.856 90.8283L190.792 87.8719L187.456 89.5396Z" fill="#006B5C"/>
<path d="M128.47 34.4966L128.167 33.8901C128.167 33.8901 125.969 33.0563 126.12 33.5111C126.499 34.6482 128.091 35.103 128.091 35.103L128.167 34.6482L128.47 34.4966Z" fill="#004F3F"/>
<path d="M128.85 46.0203L134.611 42.609L129.532 46.7783L128.85 46.0203Z" fill="#00B8AB"/>
<path d="M-8 174H236.965L239.391 165.584H-5.57386L-8 174Z" fill="#66CCC3"/>
<path d="M165.924 165.584L163.498 174H216.721L219.147 165.584H165.924Z" fill="#A5E0DA"/>
<path d="M21.4915 84.46C21.4915 84.46 22.0979 91.8889 20.506 93.2534C19.2931 94.2389 13.7593 93.4809 14.4416 92.1164C15.9577 89.3874 16.2609 85.8245 16.2609 85.8245L21.4915 84.46Z" fill="url(#paint6_linear)"/>
<path d="M27.7853 84.157C28.6192 83.7779 28.9225 83.323 28.8467 83.1714C28.6192 82.5648 28.2402 81.3517 28.3918 80.2903C28.6192 78.0916 30.1356 76.4995 29.4532 75.6655C26.7996 72.4053 18.0807 71.8746 14.8206 77.7883C14.8206 77.7883 17.55 88.5544 23.9944 89.8432C26.1173 90.2223 27.7853 84.157 27.7853 84.157Z" fill="url(#paint7_linear)"/>
<path d="M29.9076 90.9041L25.435 96.5137L22.8577 95.6799L28.5431 88.4784L29.9076 90.9041Z" fill="url(#paint8_linear)"/>
<path d="M38.5517 85.749L32.2588 81.6549L26.9517 92.8758L32.2588 97.2732L38.5517 85.749Z" fill="#66CCC3"/>
<path d="M28.1643 102.429C28.1643 102.429 34.078 107.205 36.1251 108.57C37.5656 109.48 39.082 109.252 39.6885 107.357C40.8257 104.173 44.1617 94.7712 44.1617 94.7712L42.6454 94.0889L37.3382 104.4L30.363 99.017L28.1643 102.429Z" fill="url(#paint9_linear)"/>
<path d="M36.58 107.281C34.8362 106.144 29.9839 102.277 28.8467 101.367L28.1643 102.429C28.1643 102.429 34.078 107.205 36.1251 108.57C37.5656 109.48 39.082 109.252 39.6885 107.357C39.8401 107.054 39.9159 106.675 40.0676 106.22C39.461 107.888 38.0205 108.191 36.58 107.281Z" fill="#FBE600"/>
<path d="M38.3239 85.5973L47.1187 84.46L40.2193 97.6522L32.2585 97.2731L38.3239 85.5973Z" fill="#008B7B"/>
<path d="M157.508 112.133H105.498V116.227H157.508V112.133Z" fill="#FFBD00"/>
<path d="M126.348 112.133H100.267V116.227H126.348V112.133Z" fill="#FF7700"/>
<path d="M73.4274 112.133H21.417V116.227H73.4274V112.133Z" fill="#FFBD00"/>
<path d="M42.3428 112.133H16.2617V116.227H42.3428V112.133Z" fill="#FF7700"/>
<path d="M46.8916 140.11L52.8811 162.4L57.0511 162.173L52.2746 140.11H46.8916Z" fill="url(#paint10_linear)"/>
<path d="M54.2458 162.173L48.2563 140.11H46.8916L52.8811 162.4L57.0511 162.173V161.945L54.2458 162.173Z" fill="url(#paint11_linear)"/>
<path d="M52.5019 160.884C52.6535 161.414 52.6535 161.718 53.4117 161.718C54.8522 161.718 55.9136 160.808 56.6718 160.277C57.43 159.671 58.0365 160.277 58.0365 160.277C58.0365 160.277 60.0077 162.097 61.5241 163.082C63.3437 164.295 66.3764 164.144 66.3764 165.66H51.7437C51.7437 165.66 51.2888 162.779 51.7437 160.884C51.8195 160.429 52.3502 160.353 52.5019 160.884Z" fill="#00A899"/>
<path d="M60.6144 161.869L61.0692 162.248L60.387 163.082L59.9321 162.703L60.6144 161.869Z" fill="white"/>
<path d="M59.7042 161.187L60.1591 161.566L59.4768 162.4L59.022 162.021L59.7042 161.187Z" fill="white"/>
<path d="M58.7946 160.504L59.2494 160.808L58.5671 161.642L58.1123 161.338L58.7946 160.504Z" fill="white"/>
<path d="M34.7603 140.11L35.4426 162.4L39.5367 162.173L40.2191 140.11H34.7603Z" fill="url(#paint12_linear)"/>
<path d="M35.8975 140.11H34.7603L35.4426 162.4L36.504 162.324L35.8975 140.11Z" fill="url(#paint13_linear)"/>
<path d="M35.0638 160.884C35.2154 161.414 35.2154 161.718 35.9736 161.718C37.4141 161.718 38.5513 160.808 39.3095 160.201C40.1435 159.519 40.6742 160.201 40.6742 160.201C40.6742 160.201 42.6455 162.021 44.1618 163.006C45.9814 164.22 49.0899 164.144 49.0899 165.584H34.2298C34.2298 165.584 33.7749 162.703 34.2298 160.732C34.3814 160.353 34.8363 160.277 35.0638 160.884Z" fill="#00A899"/>
<path d="M43.2521 161.869L43.7069 162.248L43.0247 163.082L42.5698 162.703L43.2521 161.869Z" fill="white"/>
<path d="M42.3418 161.187L42.7966 161.49L42.0386 162.4L41.5837 162.021L42.3418 161.187Z" fill="white"/>
<path d="M41.4324 160.429L41.8872 160.808L41.1292 161.641L40.6743 161.262L41.4324 160.429Z" fill="white"/>
<path d="M33.6995 146.251H55.459C53.9427 141.02 51.0616 131.163 50.1518 128.055C48.7871 123.43 46.2852 121.61 40.7505 121.61C37.1871 121.61 28.3165 121.61 28.3165 121.61H8.90738C8.90738 121.61 8.75575 131.922 18.0054 131.922C24.1466 131.922 33.6995 131.922 33.6995 131.922V146.251Z" fill="#00A899"/>
<path d="M108.986 63.0039C108.986 63.0039 109.289 60.8811 109.44 59.8196C109.516 59.2131 109.137 58.3033 108.986 57.8484C108.606 56.332 109.668 56.4837 109.82 55.8771C110.274 54.6641 110.35 54.5883 110.502 53.451C110.729 52.1621 112.701 54.4366 113.08 56.5595C113.535 59.2131 112.018 61.8667 112.322 64.6719L108.986 63.0039Z" fill="url(#paint14_linear)"/>
<path d="M53.6389 146.251L49.8486 148.222L49.3938 146.251H53.6389Z" fill="url(#paint15_linear)"/>
<path d="M133.626 156.713H127.031V153.757H132.868L133.626 156.713Z" fill="#00A899"/>
<path d="M101.63 156.713H94.8838L95.3386 153.757H100.872L101.63 156.713Z" fill="#009887"/>
<path d="M98.5222 156.107L98.0674 160.807L99.2803 162.475L103.146 161.792L103.677 154.818L98.5222 156.107Z" fill="url(#paint16_linear)"/>
<path d="M98.2202 160.58C98.4476 161.187 98.3718 161.414 99.2058 161.414C100.722 161.414 101.935 160.504 102.693 159.822C103.527 159.14 104.134 159.822 104.134 159.822C104.134 159.822 106.257 161.793 107.849 162.779C109.82 164.068 113.08 163.992 113.08 165.508H96.1731C96.1731 165.508 96.9313 162.476 97.3862 160.353C97.5378 160.05 97.9927 159.974 98.2202 160.58Z" fill="#00A899"/>
<path d="M106.938 161.642L107.393 162.021L106.635 162.931L106.18 162.552L106.938 161.642Z" fill="white"/>
<path d="M105.953 160.884L106.408 161.263L105.65 162.172L105.195 161.793L105.953 160.884Z" fill="white"/>
<path d="M104.967 160.125L105.422 160.504L104.664 161.414L104.209 161.035L104.967 160.125Z" fill="white"/>
<path d="M100.494 126.008L96.5513 156.714H104.891L110.123 124.34L100.494 126.008Z" fill="#009887"/>
<path d="M95.1102 85.2943C95.1102 85.2943 95.6409 92.3442 94.1248 93.6328C92.9877 94.5425 87.6813 93.7845 88.3635 92.5716C89.8038 89.9942 90.1071 86.6587 90.1071 86.6587L95.1102 85.2943Z" fill="url(#paint17_linear)"/>
<path d="M98.5224 79.987C99.7355 78.4706 97.6126 78.1674 96.7028 76.651C95.6414 74.8314 95.793 72.7085 94.7315 72.4811C90.7891 71.5713 83.6623 76.2719 84.7237 82.7922C84.7237 82.7922 91.4714 89.6157 97.3851 87.1896C100.569 85.7491 98.5224 79.987 98.5224 79.987Z" fill="url(#paint18_linear)"/>
<path d="M124.376 156.562L125.665 161.716L131.047 161.413L129.152 153.757L124.376 156.562Z" fill="url(#paint19_linear)"/>
<path d="M125.741 160.58C125.969 161.187 125.893 161.414 126.727 161.414C128.243 161.414 129.456 160.504 130.214 159.822C131.048 159.14 131.655 159.822 131.655 159.822C131.655 159.822 133.778 161.793 135.37 162.779C137.341 164.068 140.601 163.992 140.601 165.508H124.907C124.907 165.508 124.452 162.476 124.907 160.353C124.983 160.05 125.514 159.974 125.741 160.58Z" fill="#00A899"/>
<path d="M134.46 161.642L134.915 162.021L134.157 162.931L133.702 162.552L134.46 161.642Z" fill="white"/>
<path d="M133.475 160.884L133.929 161.263L133.171 162.172L132.717 161.793L133.475 160.884Z" fill="white"/>
<path d="M132.489 160.125L132.943 160.504L132.185 161.414L131.73 161.035L132.489 160.125Z" fill="white"/>
<path d="M102.162 121.61C102.162 121.61 111.032 121.61 114.596 121.61C120.13 121.61 122.708 123.43 123.997 128.055C126.196 135.637 132.261 156.714 132.261 156.714H123.315L115.051 131.922C115.051 131.922 97.9918 131.922 91.8506 131.922C82.601 131.922 82.7526 121.61 82.7526 121.61H102.162Z" fill="#00A899"/>
<path d="M116.112 131.314C116.036 131.314 115.96 131.314 115.884 131.239C115.733 131.163 115.733 130.935 115.884 130.784L119.902 126.235C119.978 126.084 120.205 126.084 120.357 126.235C120.509 126.311 120.509 126.539 120.357 126.69L116.339 131.239C116.263 131.314 116.188 131.314 116.112 131.314Z" fill="#009887"/>
<path d="M98.5985 103.339C98.5985 103.339 106.104 92.0418 108.379 88.1752C110.653 84.3843 112.321 80.8209 112.776 77.7882C113.383 73.8458 115.051 63.1556 115.051 63.1556L108.151 62.17L105.422 79.0013L96.8547 92.4967L98.5985 103.339Z" fill="#007C6B"/>
<path d="M82.7527 121.61C82.7527 121.686 82.7527 125.098 84.4965 127.979L105.346 122.748L82.7527 121.61Z" fill="#009887"/>
<path d="M102.163 94.3922L98.0684 91.0562C98.0684 91.0562 92.1547 91.0562 89.3494 91.0562C86.2409 91.0562 83.8148 92.3451 82.3743 95.6052C81.5403 97.5007 79.569 102.429 77.9011 106.295C76.5364 109.556 79.1141 111.754 81.4645 111.754H82.8292C82.6017 116.455 82.3743 121.686 82.3743 122.748H105.347L102.163 94.3922Z" fill="#007C6B"/>
<path d="M94.5807 67.553C93.5951 68.9936 92.1546 69.6001 91.169 69.6759C91.0932 69.6759 91.0932 69.6759 91.0173 69.6759C89.8801 69.7517 88.667 70.1308 87.6814 70.6615C81.9193 73.8459 81.7677 79.608 83.8905 83.7021C85.2552 86.2798 82.2984 87.1896 83.1324 88.7818C84.2696 91.1321 91.0932 90.5256 93.4435 86.8864C94.2775 85.7491 94.2775 84.157 92.6853 82.5648C91.5481 81.3517 91.3206 80.7452 91.3964 80.2903C91.5481 79.4563 92.382 79.6079 92.7611 79.6838C94.2016 79.9112 91.0932 76.9544 93.3677 76.3478C94.7324 76.0445 95.718 75.1347 96.1729 74.1491C97.4618 72.1779 95.5664 66.1125 94.5807 67.553Z" fill="#014E3F"/>
<path d="M129.911 154.06H124.074C123.922 154.06 123.771 153.909 123.771 153.757C123.771 153.605 123.922 153.454 124.074 153.454H129.911C130.062 153.454 130.214 153.605 130.214 153.757C130.214 153.909 130.062 154.06 129.911 154.06Z" fill="#DBF2F0"/>
<path d="M114.747 130.556C114.747 130.556 114.672 130.556 114.747 130.556C114.52 130.556 114.444 130.405 114.444 130.177L114.823 127.903C114.823 127.752 114.975 127.6 115.202 127.676C115.354 127.676 115.505 127.827 115.43 128.055L115.051 130.329C114.975 130.405 114.899 130.556 114.747 130.556Z" fill="#009887"/>
<path d="M127.257 131.846H78.7341V135.637H127.257V131.846Z" fill="#FFBD00"/>
<path d="M98.2191 131.846H73.8818V135.637H98.2191V131.846Z" fill="#FF7700"/>
<path d="M119.221 165.584H95.1112C94.5047 165.584 94.0498 165.129 94.0498 164.523C94.0498 163.916 94.5047 163.461 95.1112 163.461H119.221C122.026 163.461 124.377 161.187 124.377 158.306V142.991C124.377 140.186 122.102 137.835 119.221 137.835H95.1112C94.5047 137.835 94.0498 137.38 94.0498 136.774C94.0498 136.167 94.5047 135.712 95.1112 135.712H119.221C123.239 135.712 126.575 138.973 126.575 143.067V158.382C126.575 162.248 123.239 165.584 119.221 165.584Z" fill="#014E3F"/>
<path d="M97.5372 165.584H73.4274C72.8209 165.584 72.366 165.129 72.366 164.523C72.366 163.916 72.8209 163.461 73.4274 163.461H97.5372C100.342 163.461 102.693 161.187 102.693 158.306V142.991C102.693 140.186 100.418 137.835 97.5372 137.835H86.6196C86.013 137.835 85.5581 137.38 85.5581 136.774C85.5581 136.167 86.013 135.712 86.6196 135.712H97.5372C101.556 135.712 104.891 138.973 104.891 143.067V158.382C104.891 162.248 101.631 165.584 97.5372 165.584Z" fill="#014E3F"/>
<path d="M94.3531 137.759H79.0381C75.0198 137.759 71.6838 134.499 71.6838 130.405V106.295C71.6838 105.689 72.1387 105.234 72.7453 105.234C73.3518 105.234 73.8067 105.689 73.8067 106.295V130.405C73.8067 133.21 76.0812 135.561 78.9623 135.561H94.3531C94.9597 135.561 95.4145 136.016 95.4145 136.622C95.4145 137.305 94.9597 137.759 94.3531 137.759Z" fill="#014E3F"/>
<path d="M118.462 137.759H103.147C99.1292 137.759 95.7932 134.499 95.7932 130.405V106.295C95.7932 105.689 96.2481 105.234 96.8547 105.234C97.4612 105.234 97.9161 105.689 97.9161 106.295V130.405C97.9161 133.21 100.191 135.561 103.072 135.561H118.387C118.993 135.561 119.448 136.016 119.448 136.622C119.6 137.305 119.069 137.759 118.462 137.759Z" fill="#014E3F"/>
<path d="M101.404 107.433H98.6743V120.322H101.404V107.433Z" fill="#FFBD00"/>
<path d="M98.9777 107.433H69.864V120.322H98.9777V107.433Z" fill="#FF7700"/>
<path d="M73.4272 110.162C73.4272 110.541 73.124 110.92 72.6692 110.92C72.2902 110.92 71.9111 110.617 71.9111 110.162C71.9111 109.783 72.2144 109.404 72.6692 109.404C73.124 109.48 73.4272 109.783 73.4272 110.162Z" fill="#FFBD00"/>
<path d="M73.4272 117.591C73.4272 117.97 73.124 118.349 72.6692 118.349C72.2902 118.349 71.9111 118.046 71.9111 117.591C71.9111 117.212 72.2144 116.833 72.6692 116.833C73.124 116.833 73.4272 117.136 73.4272 117.591Z" fill="#FFBD00"/>
<path d="M97.6128 110.162C97.6128 110.541 97.3096 110.92 96.8547 110.92C96.4757 110.92 96.0967 110.617 96.0967 110.162C96.0967 109.783 96.3999 109.404 96.8547 109.404C97.3096 109.48 97.6128 109.783 97.6128 110.162Z" fill="#FFBD00"/>
<path d="M97.6125 117.591C97.6125 117.97 97.3093 118.349 96.8545 118.349C96.4755 118.349 96.0964 118.046 96.0964 117.591C96.0964 117.212 96.3997 116.833 96.8545 116.833C97.3093 116.833 97.6125 117.136 97.6125 117.591Z" fill="#FFBD00"/>
<path d="M115.582 66.9457L109.972 66.3393L110.124 62.3974L115.961 63.1555L115.582 66.9457Z" fill="white"/>
<path d="M113.079 67.0979L108.91 66.4914C108.758 66.4914 108.607 66.3398 108.683 66.1882C108.683 66.0366 108.834 65.885 108.986 65.9608L113.155 66.5672C113.307 66.5672 113.458 66.7188 113.382 66.8704C113.382 67.022 113.231 67.0979 113.079 67.0979Z" fill="#00B8AB"/>
<path d="M42.2667 131.314C42.1909 131.314 42.1151 131.314 42.0392 131.239C41.8876 131.163 41.8876 130.935 42.0392 130.784L46.0569 126.235C46.1327 126.084 46.3602 126.084 46.5118 126.235C46.6634 126.311 46.6634 126.539 46.5118 126.69L42.4941 131.239C42.4941 131.314 42.4183 131.314 42.2667 131.314Z" fill="#009887"/>
<path d="M8.90723 121.61C8.90723 121.686 8.90723 125.098 10.651 127.979L27.4066 122.748L8.90723 121.61Z" fill="#009887"/>
<path d="M40.9021 130.556C40.6747 130.556 40.5989 130.405 40.5989 130.177L40.9779 127.903C40.9779 127.752 41.1295 127.6 41.3569 127.676C41.5085 127.676 41.6602 127.827 41.5843 128.055L41.2053 130.329C41.2053 130.405 41.0537 130.556 40.9021 130.556Z" fill="#009887"/>
<path d="M31.6526 99.3959C31.6526 99.3959 27.8617 96.1358 24.829 93.558C22.3271 91.3593 20.0526 89.9188 16.565 91.1319C7.08787 94.392 8.37675 121.61 8.30094 122.748H27.4826V103.869L29.2264 104.855L31.6526 99.3959Z" fill="#007C6B"/>
<path d="M51.2135 131.846H2.69067V135.637H51.2135V131.846Z" fill="#FFBD00"/>
<path d="M22.1754 131.846H-2.16187V135.637H22.1754V131.846Z" fill="#FF7700"/>
<path d="M43.1765 165.584H18.9909C18.3843 165.584 17.9294 165.129 17.9294 164.523C17.9294 163.916 18.3843 163.461 18.9909 163.461H43.1007C45.9059 163.461 48.2562 161.187 48.2562 158.306V142.991C48.2562 140.186 45.9817 137.835 43.1007 137.835H18.9909C18.3843 137.835 17.9294 137.38 17.9294 136.774C17.9294 136.167 18.3843 135.712 18.9909 135.712H43.1007C47.119 135.712 50.4549 138.972 50.4549 143.067V158.382C50.4549 162.248 47.1948 165.584 43.1765 165.584Z" fill="#014E3F"/>
<path d="M21.493 165.584H-2.61678C-3.22332 165.584 -3.67822 165.129 -3.67822 164.523C-3.67822 163.916 -3.22332 163.461 -2.61678 163.461H21.493C24.2982 163.461 26.6486 161.187 26.6486 158.306V142.991C26.6486 140.186 24.3741 137.835 21.493 137.835H10.5754C9.96883 137.835 9.51393 137.38 9.51393 136.774C9.51393 136.167 9.96883 135.712 10.5754 135.712H21.493C25.5113 135.712 28.8473 138.972 28.8473 143.067V158.382C28.8473 162.248 25.5871 165.584 21.493 165.584Z" fill="#014E3F"/>
<path d="M18.3087 137.76H2.99365C-1.02465 137.76 -4.3606 134.499 -4.3606 130.405V106.295C-4.3606 105.689 -3.90569 105.234 -3.29916 105.234C-2.69262 105.234 -2.23772 105.689 -2.23772 106.295V130.405C-2.23772 133.211 0.036788 135.561 2.91783 135.561H18.2329C18.8394 135.561 19.2943 136.016 19.2943 136.622C19.3701 137.305 18.9152 137.76 18.3087 137.76Z" fill="#014E3F"/>
<path d="M42.4185 137.76H27.1035C23.0852 137.76 19.7493 134.499 19.7493 130.405V106.295C19.7493 105.689 20.2042 105.234 20.8107 105.234C21.4172 105.234 21.8721 105.689 21.8721 106.295V130.405C21.8721 133.211 24.1467 135.561 27.0277 135.561H42.3427C42.9493 135.561 43.4042 136.016 43.4042 136.622C43.5558 137.305 43.0251 137.76 42.4185 137.76Z" fill="#014E3F"/>
<path d="M25.3598 107.433H22.6304V120.322H25.3598V107.433Z" fill="#FFBD00"/>
<path d="M22.9338 107.432H-6.17993V120.321H22.9338V107.432Z" fill="#FF7700"/>
<path d="M21.5696 110.162C21.5696 110.541 21.2664 110.92 20.8115 110.92C20.4325 110.92 20.0535 110.617 20.0535 110.162C20.0535 109.783 20.3567 109.404 20.8115 109.404C21.2664 109.48 21.5696 109.783 21.5696 110.162Z" fill="#FFBD00"/>
<path d="M21.5691 117.591C21.5691 117.97 21.2659 118.349 20.811 118.349C20.432 118.349 20.053 118.046 20.053 117.591C20.053 117.212 20.3562 116.833 20.811 116.833C21.2659 116.833 21.5691 117.136 21.5691 117.591Z" fill="#FFBD00"/>
<path d="M42.3423 94.7704C42.3423 94.7704 41.8875 93.4817 41.8875 92.2689C41.9633 91.1318 42.7971 90.3737 42.9487 90.8286C43.0245 91.2834 42.6455 93.0269 42.8729 92.6479C43.1003 92.2689 44.2374 89.9189 44.2374 89.9189C44.2374 89.9189 45.7535 92.9511 45.2987 94.3156C44.8439 95.7559 42.7213 95.8317 42.7213 95.8317L42.3423 94.7704Z" fill="url(#paint20_linear)"/>
<path d="M29.5293 87.341C29.5293 87.341 32.1067 86.6587 31.6519 86.1281C31.1971 85.5975 29.0745 86.0523 28.4681 87.1894C27.7858 88.5539 28.6197 89.0845 28.6197 89.0845L29.5293 87.341Z" fill="url(#paint21_linear)"/>
<path d="M30.135 106.067C30.0592 106.067 29.9834 106.067 29.9076 105.991L22.7819 99.7751C22.6303 99.6235 22.6303 99.4718 22.7819 99.3202C22.9335 99.1686 23.0851 99.1686 23.2368 99.3202L30.3625 105.536C30.5141 105.688 30.5141 105.84 30.3625 105.991C30.2867 106.067 30.2108 106.067 30.135 106.067Z" fill="#007C6B"/>
<path d="M29.833 77.7881C30.5912 74.8313 27.5585 72.026 24.3742 71.4195C18.233 70.2064 14.5938 74.3006 13.684 78.5463V78.6221C13.0775 81.3515 12.4709 83.0195 6.78464 87.4169C3.29706 90.0705 11.1062 96.2117 16.565 92.5725C18.7637 91.1319 21.4173 87.3411 20.8866 83.1711C20.6591 81.579 20.9624 80.9725 21.3415 80.745C21.948 80.2143 22.4788 80.8208 22.7062 81.1241C23.5402 82.1855 23.1611 78.0914 25.2082 79.077C27.1794 79.9868 29.4539 79.1528 29.833 77.7881Z" fill="#014E3F"/>
<path d="M31.5008 99.7752L30.8944 103.338L30.0605 103.035L31.5008 99.7752Z" fill="#FBE600"/>
<path d="M40.0672 146.251L34.9883 148.222V146.251H40.0672Z" fill="url(#paint22_linear)"/>
<defs>
<linearGradient id="paint0_linear" x1="126.149" y1="35.9289" x2="130.894" y2="35.9289" gradientUnits="userSpaceOnUse">
<stop stop-color="#FFA58E"/>
<stop offset="1" stop-color="#FFC39F"/>
</linearGradient>
<linearGradient id="paint1_linear" x1="124.082" y1="39.4336" x2="132.797" y2="39.4336" gradientUnits="userSpaceOnUse">
<stop stop-color="#FFA58E"/>
<stop offset="1" stop-color="#FFC39F"/>
</linearGradient>
<linearGradient id="paint2_linear" x1="171.653" y1="46.0337" x2="178.192" y2="46.0337" gradientUnits="userSpaceOnUse">
<stop stop-color="#FFA58E"/>
<stop offset="1" stop-color="#FFC39F"/>
</linearGradient>
<linearGradient id="paint3_linear" x1="165.106" y1="37.5" x2="178.75" y2="37.5" gradientUnits="userSpaceOnUse">
<stop stop-color="#FFA58E"/>
<stop offset="1" stop-color="#FFC39F"/>
</linearGradient>
<linearGradient id="paint4_linear" x1="168.093" y1="158.435" x2="174.298" y2="158.435" gradientUnits="userSpaceOnUse">
<stop stop-color="#FFA58E"/>
<stop offset="1" stop-color="#FFC39F"/>
</linearGradient>
<linearGradient id="paint5_linear" x1="187.529" y1="158.646" x2="195.088" y2="158.646" gradientUnits="userSpaceOnUse">
<stop stop-color="#FFA58E"/>
<stop offset="1" stop-color="#FFC39F"/>
</linearGradient>
<linearGradient id="paint6_linear" x1="14.3537" y1="89.0525" x2="21.5774" y2="89.0525" gradientUnits="userSpaceOnUse">
<stop stop-color="#FFA58E"/>
<stop offset="1" stop-color="#FFC39F"/>
</linearGradient>
<linearGradient id="paint7_linear" x1="14.776" y1="81.5222" x2="29.594" y2="81.5222" gradientUnits="userSpaceOnUse">
<stop stop-color="#FFA58E"/>
<stop offset="1" stop-color="#FFC39F"/>
</linearGradient>
<linearGradient id="paint8_linear" x1="22.8695" y1="92.5012" x2="29.8817" y2="92.5012" gradientUnits="userSpaceOnUse">
<stop stop-color="#FFA58E"/>
<stop offset="1" stop-color="#FFC39F"/>
</linearGradient>
<linearGradient id="paint9_linear" x1="28.1712" y1="101.514" x2="44.2146" y2="101.514" gradientUnits="userSpaceOnUse">
<stop stop-color="#FFA58E"/>
<stop offset="1" stop-color="#FFC39F"/>
</linearGradient>
<linearGradient id="paint10_linear" x1="46.8566" y1="151.252" x2="57.0563" y2="151.252" gradientUnits="userSpaceOnUse">
<stop stop-color="#FFA58E"/>
<stop offset="1" stop-color="#FFC39F"/>
</linearGradient>
<linearGradient id="paint11_linear" x1="46.8566" y1="151.252" x2="57.0563" y2="151.252" gradientUnits="userSpaceOnUse">
<stop stop-color="#FFA58E"/>
<stop offset="1" stop-color="#FFC39F"/>
</linearGradient>
<linearGradient id="paint12_linear" x1="34.7851" y1="151.252" x2="40.2091" y2="151.252" gradientUnits="userSpaceOnUse">
<stop stop-color="#FFA58E"/>
<stop offset="1" stop-color="#FFC39F"/>
</linearGradient>
<linearGradient id="paint13_linear" x1="34.7851" y1="151.252" x2="36.5302" y2="151.252" gradientUnits="userSpaceOnUse">
<stop stop-color="#FFA58E"/>
<stop offset="1" stop-color="#FFC39F"/>
</linearGradient>
<linearGradient id="paint14_linear" x1="108.901" y1="58.9126" x2="113.254" y2="58.9126" gradientUnits="userSpaceOnUse">
<stop stop-color="#FFA58E"/>
<stop offset="1" stop-color="#FFC39F"/>
</linearGradient>
<linearGradient id="paint15_linear" x1="49.4239" y1="147.23" x2="53.6076" y2="147.23" gradientUnits="userSpaceOnUse">
<stop stop-color="#FFA58E"/>
<stop offset="1" stop-color="#FFC39F"/>
</linearGradient>
<linearGradient id="paint16_linear" x1="98.0309" y1="158.649" x2="103.661" y2="158.649" gradientUnits="userSpaceOnUse">
<stop stop-color="#FFA58E"/>
<stop offset="1" stop-color="#FFC39F"/>
</linearGradient>
<linearGradient id="paint17_linear" x1="88.3508" y1="89.6324" x2="95.1934" y2="89.6324" gradientUnits="userSpaceOnUse">
<stop stop-color="#FFA58E"/>
<stop offset="1" stop-color="#FFC39F"/>
</linearGradient>
<linearGradient id="paint18_linear" x1="84.6109" y1="79.9711" x2="99.158" y2="79.9711" gradientUnits="userSpaceOnUse">
<stop stop-color="#FFA58E"/>
<stop offset="1" stop-color="#FFC39F"/>
</linearGradient>
<linearGradient id="paint19_linear" x1="124.372" y1="157.734" x2="131.062" y2="157.734" gradientUnits="userSpaceOnUse">
<stop stop-color="#FFA58E"/>
<stop offset="1" stop-color="#FFC39F"/>
</linearGradient>
<linearGradient id="paint20_linear" x1="41.8854" y1="92.896" x2="45.3663" y2="92.896" gradientUnits="userSpaceOnUse">
<stop stop-color="#FFA58E"/>
<stop offset="1" stop-color="#FFC39F"/>
</linearGradient>
<linearGradient id="paint21_linear" x1="28.2278" y1="87.5426" x2="31.7087" y2="87.5426" gradientUnits="userSpaceOnUse">
<stop stop-color="#FFA58E"/>
<stop offset="1" stop-color="#FFC39F"/>
</linearGradient>
<linearGradient id="paint22_linear" x1="34.9577" y1="147.23" x2="40.0299" y2="147.23" gradientUnits="userSpaceOnUse">
<stop stop-color="#FFA58E"/>
<stop offset="1" stop-color="#FFC39F"/>
</linearGradient>
</defs>
</svg>
