<svg width="18" height="18" viewBox="0 0 18 18" fill="none" xmlns="http://www.w3.org/2000/svg">
<path fill-rule="evenodd" clip-rule="evenodd" d="M7.875 15.75C3.5325 15.75 0 12.2175 0 7.875C0 3.5325 3.5325 0 7.875 0C12.2175 0 15.75 3.5325 15.75 7.875C15.75 12.2175 12.2175 15.75 7.875 15.75ZM7.875 2.25C4.77338 2.25 2.25 4.77338 2.25 7.875C2.25 10.9766 4.77338 13.5 7.875 13.5C10.9766 13.5 13.5 10.9766 13.5 7.875C13.5 4.77338 10.9766 2.25 7.875 2.25ZM14.9782 13.3875L17.6704 16.0796C18.1102 16.5195 18.1102 17.2305 17.6704 17.6704C17.451 17.8898 17.163 18 16.875 18C16.587 18 16.299 17.8898 16.0796 17.6704L13.3875 14.9783C13.9826 14.5159 14.5159 13.9826 14.9782 13.3875Z" fill="#4DB6AC"/>
</svg>
