<svg width="460" height="278" viewBox="0 0 460 278" fill="none" xmlns="http://www.w3.org/2000/svg">
<path d="M35.7736 260.723H399.654C459.759 225.793 448.918 154.245 432.296 142.2C409.531 125.698 373.878 187.61 351.595 176.408C287.876 144.007 420.131 53.0669 366.892 31.9881C332.202 18.2567 308.112 123.169 265.834 86.5521C243.791 67.5209 263.786 39.6969 259.57 17.1727C252.946 -18.6011 195.25 -0.292626 144.661 89.202C123.341 126.903 94.0716 56.4395 70.2224 48.2489C48.0596 40.5401 -18.6699 75.2298 50.3481 153.402C72.3905 178.335 -36.1353 188.814 35.7736 260.723Z" fill="#DBF2F0"/>
<path d="M157.549 19.5817C157.188 16.5705 156.345 14.4023 154.176 13.3183C147.913 9.94568 132.134 15.4864 125.63 23.9179C116.475 35.8425 124.786 54.151 133.7 55.235C144.059 56.56 159.356 35.3607 157.549 19.5817Z" fill="#FFF9BC"/>
<path d="M239.214 268.312H130.086V269.396H239.214V268.312Z" fill="#FBE600"/>
<path d="M156.947 276.141H88.531V277.225H156.947V276.141Z" fill="#FBE600"/>
<path d="M275.831 276.141H185.614V277.225H275.831V276.141Z" fill="#FBE600"/>
<path d="M99.2512 268.432H66.6091V269.516H99.2512V268.432Z" fill="#FBE600"/>
<path d="M322.446 268.312H256.318V269.396H322.446V268.312Z" fill="#FBE600"/>
<path d="M460 260.121H0V261.205H460V260.121Z" fill="#FBE600"/>
<path d="M398.088 260.121H393.391V261.205H398.088V260.121Z" fill="#006B5C"/>
<path d="M274.145 112.81C272.7 110.763 271.134 108.715 271.134 105.704C271.134 98.3562 274.386 97.9949 274.145 90.6474C273.904 83.2999 268.363 83.5408 268.123 76.1934C268.123 75.2298 268.123 74.3866 268.363 73.6639C268.966 72.7003 269.447 71.6162 269.809 70.6526C269.929 70.4117 269.929 70.2913 270.05 70.0504C270.652 68.1232 271.013 66.0755 271.013 64.0279C271.013 53.5487 262.461 44.9967 251.982 44.9967C241.503 44.9967 232.951 53.5487 232.951 64.0279C232.951 66.0755 233.312 68.1232 233.915 70.0504C234.035 70.2913 234.035 70.4117 234.155 70.6526C234.517 71.7367 234.999 72.7003 235.601 73.7843C235.721 74.5071 235.842 75.3502 235.842 76.3138C235.601 83.6613 230.06 83.4204 229.819 90.7679C229.578 98.1153 232.831 98.4767 232.831 105.824C232.831 108.835 231.385 110.883 229.819 112.931C228.374 114.978 226.928 117.146 226.928 120.278C226.928 129.432 234.396 136.9 243.551 136.9H260.655C269.809 136.9 277.277 129.432 277.277 120.278C277.156 117.026 275.711 114.978 274.145 112.81Z" fill="#014E3F"/>
<path d="M319.194 86.1908L321.121 77.7592C321.603 75.7116 323.168 74.1457 325.096 73.7844C328.95 72.8208 332.443 76.3138 331.6 80.2887C331.118 82.3363 329.552 83.9022 327.625 84.2635L319.194 86.1908Z" fill="#FBE600"/>
<path d="M307.992 90.1656L306.546 83.7817C306.185 82.2159 304.98 81.0114 303.535 80.7705C300.524 80.0478 297.874 82.6977 298.596 85.7089C298.958 87.2748 300.162 88.4793 301.608 88.7202L307.992 90.1656Z" fill="#004F3F"/>
<path d="M314.375 79.0842L318.953 71.7367C320.037 70.0504 320.037 67.7618 318.953 66.0755C316.905 62.7029 311.966 62.7029 309.798 66.0755C308.714 67.7618 308.714 70.0504 309.798 71.7367L314.375 79.0842Z" fill="#004F3F"/>
<path d="M314.857 104.138H313.894V90.7679L325.457 79.2046L326.179 79.9273L314.857 91.2497V104.138Z" fill="#006B5C"/>
<path d="M314.857 109.679H313.894V96.6699L303.535 86.3112L304.258 85.5885L314.857 96.3086V109.679Z" fill="#006B5C"/>
<path d="M314.978 71.3753H313.894V103.776H314.978V71.3753Z" fill="#006B5C"/>
<path d="M226.085 116.785L209.463 147.861L213.799 150.511L234.276 121.844L226.085 116.785Z" fill="#FFBE8E"/>
<path d="M211.752 143.646L216.57 146.657L234.276 121.844L226.086 116.785L211.752 143.646Z" fill="#FF7700"/>
<path d="M234.749 121.017C235.806 118.575 234.683 115.739 232.241 114.681C229.799 113.624 226.963 114.747 225.906 117.189C224.848 119.631 225.971 122.467 228.413 123.524C230.855 124.582 233.691 123.459 234.749 121.017Z" fill="#FF7700"/>
<path d="M239.335 91.9724L226.086 116.785L234.276 121.844L250.658 98.9585L239.335 91.9724Z" fill="#FF7700"/>
<path d="M238.492 95.4654L240.178 132.685H264.027L273.904 93.5382C274.507 91.0088 272.579 88.4793 269.93 88.4793H245.237C241.383 88.4793 238.372 91.611 238.492 95.4654Z" fill="#FF7700"/>
<path d="M240.178 114.978C243.837 114.978 246.803 112.012 246.803 108.354C246.803 104.695 243.837 101.729 240.178 101.729C236.519 101.729 233.553 104.695 233.553 108.354C233.553 112.012 236.519 114.978 240.178 114.978Z" fill="#FF7700"/>
<path d="M249.092 89.6838C252.103 91.8519 252.826 95.9473 250.658 98.9585C248.489 101.97 244.394 102.692 241.383 100.524C238.372 98.3563 237.649 94.2609 239.817 91.2497C241.865 88.2384 246.08 87.6362 249.092 89.6838Z" fill="#FF7700"/>
<path d="M238.984 92.8345L233.997 106.015L246.502 110.747L251.489 97.5661L238.984 92.8345Z" fill="#FF7700"/>
<path d="M272.218 101.367C268.846 102.692 264.991 101.006 263.546 97.6335C262.221 94.2609 263.907 90.4065 267.28 88.9611C270.652 87.6362 274.507 89.3225 275.952 92.6951C277.277 96.0677 275.591 100.043 272.218 101.367Z" fill="#FF7700"/>
<path d="M276.193 93.5382L283.059 120.76L273.784 123.771L263.546 97.6335L276.193 93.5382Z" fill="#FF7700"/>
<path d="M280.168 126.421C277.638 127.385 274.868 126.18 273.904 123.651C272.941 121.121 274.145 118.351 276.675 117.387C279.204 116.424 281.975 117.628 282.938 120.158C283.781 122.687 282.577 125.458 280.168 126.421Z" fill="#FF7700"/>
<path d="M290.406 150.27L284.986 152.077L273.784 123.771L283.059 120.76L290.406 150.27Z" fill="#FF7700"/>
<path d="M245.237 101.729C248.896 101.729 251.862 98.7628 251.862 95.1041C251.862 91.4453 248.896 88.4793 245.237 88.4793C241.579 88.4793 238.613 91.4453 238.613 95.1041C238.613 98.7628 241.579 101.729 245.237 101.729Z" fill="#FF7700"/>
<path d="M259.45 74.6275H248.128V88.4793H259.45V74.6275Z" fill="#FFBE8E"/>
<path d="M253.789 94.1405C256.915 94.1405 259.45 91.6059 259.45 88.4793C259.45 85.3527 256.915 82.8181 253.789 82.8181C250.662 82.8181 248.128 85.3527 248.128 88.4793C248.128 91.6059 250.662 94.1405 253.789 94.1405Z" fill="#FFBE8E"/>
<path d="M259.932 71.3753H257.402V66.196H259.932C261.377 66.196 262.461 67.4005 262.461 68.7254C262.461 70.1708 261.257 71.3753 259.932 71.3753Z" fill="#FFBE8E"/>
<path d="M240.178 56.56H259.45V81.3727H247.525C242.707 81.3727 238.974 77.3979 239.214 72.5799L240.178 56.56Z" fill="#FFBE8E"/>
<path d="M259.33 66.196H259.812V51.501H244.514C240.54 51.501 237.287 54.7532 237.287 58.7281V59.0894H237.769C242.105 59.0894 246.321 60.5348 249.814 63.1847C252.705 65.1119 255.957 66.196 259.33 66.196Z" fill="#014E3F"/>
<path d="M224.64 102.692H168.149V119.555H224.64V102.692Z" fill="#FBE600"/>
<path d="M252.223 144.609C258.809 144.609 264.148 139.27 264.148 132.685C264.148 126.099 258.809 120.76 252.223 120.76C245.637 120.76 240.299 126.099 240.299 132.685C240.299 139.27 245.637 144.609 252.223 144.609Z" fill="#A5E0DA"/>
<path d="M201.273 151.114C200.068 150.27 199.827 148.705 200.67 147.5C201.513 146.296 203.079 146.055 204.284 146.898C205.488 147.741 205.729 149.307 204.886 150.511C204.043 151.716 202.477 151.957 201.273 151.114Z" fill="#FFBE8E"/>
<path d="M196.334 150.511C195.973 150.752 195.732 150.993 195.491 151.354C194.286 152.92 194.768 155.209 196.334 156.413C197.9 157.618 200.188 157.136 201.393 155.57L205.006 150.511L201.393 146.898L196.334 150.511Z" fill="#FFBE8E"/>
<path d="M252.223 258.917C254.086 258.917 255.596 257.407 255.596 255.544C255.596 253.681 254.086 252.171 252.223 252.171C250.361 252.171 248.851 253.681 248.851 255.544C248.851 257.407 250.361 258.917 252.223 258.917Z" fill="#008B7B"/>
<path d="M239.214 258.917C241.077 258.917 242.587 257.407 242.587 255.544C242.587 253.681 241.077 252.171 239.214 252.171C237.352 252.171 235.842 253.681 235.842 255.544C235.842 257.407 237.352 258.917 239.214 258.917Z" fill="#008B7B"/>
<path d="M240.299 132.685H250.778H264.027L265.352 133.648C269.688 137.021 272.218 142.2 272.218 147.62V152.8C272.218 156.775 268.966 160.027 264.991 160.027H244.273C240.299 160.027 237.046 156.775 237.046 152.8V145.814C237.167 141.237 238.251 136.78 240.299 132.685Z" fill="#FFD600"/>
<path d="M281.131 157.979C282.456 157.497 283.058 155.932 282.577 154.607C282.095 153.282 280.529 152.679 279.204 153.161C277.879 153.643 277.277 155.209 277.759 156.534C278.361 157.859 279.806 158.461 281.131 157.979Z" fill="#FFBE8E"/>
<path d="M286.792 159.545C286.672 159.184 286.431 158.822 286.19 158.581L282.215 153.884L277.879 156.534L280.167 162.195C280.89 164.002 282.938 164.965 284.865 164.243C286.551 163.52 287.515 161.472 286.792 159.545Z" fill="#FFBE8E"/>
<path d="M283.058 120.76L291.61 154.968L286.792 156.534L273.784 123.771L283.058 120.76Z" fill="#FFBE8E"/>
<path d="M235.48 160.027C239.472 160.027 242.707 156.791 242.707 152.8C242.707 148.808 239.472 145.573 235.48 145.573C231.489 145.573 228.253 148.808 228.253 152.8C228.253 156.791 231.489 160.027 235.48 160.027Z" fill="#FFD600"/>
<path d="M256.078 160.027C260.069 160.027 263.305 156.791 263.305 152.8C263.305 148.808 260.069 145.573 256.078 145.573C252.086 145.573 248.851 148.808 248.851 152.8C248.851 156.791 252.086 160.027 256.078 160.027Z" fill="#FFD600"/>
<path d="M248.971 255.544H255.596V260.121H246.321C245.478 260.121 244.876 259.519 244.876 258.676C244.876 258.194 245.117 257.712 245.598 257.471L248.971 255.544Z" fill="#006B5C"/>
<path d="M235.962 255.544H242.587V260.121H233.312C232.469 260.121 231.867 259.519 231.867 258.676C231.867 258.194 232.108 257.712 232.59 257.471L235.962 255.544Z" fill="#006B5C"/>
<path d="M254.753 195.68C257.946 195.68 260.534 193.092 260.534 189.899C260.534 186.705 257.946 184.117 254.753 184.117C251.559 184.117 248.971 186.705 248.971 189.899C248.971 193.092 251.559 195.68 254.753 195.68Z" fill="#008B7B"/>
<path d="M260.534 189.899L255.596 255.544H248.971V189.899H260.534Z" fill="#FFA300"/>
<path d="M248.971 152.8V189.899L260.534 190.26L263.305 153.282L248.971 152.8Z" fill="#FFF05C"/>
<path d="M236.806 195.68C239.999 195.68 242.587 193.092 242.587 189.899C242.587 186.705 239.999 184.117 236.806 184.117C233.612 184.117 231.024 186.705 231.024 189.899C231.024 193.092 233.612 195.68 236.806 195.68Z" fill="#008B7B"/>
<path d="M242.587 189.899V255.544H235.962L231.024 189.899H242.587Z" fill="#FFA300"/>
<path d="M242.587 152.8V189.899L231.024 190.26L228.253 153.282L242.587 152.8Z" fill="#FFF05C"/>
<path d="M231.024 190.26H260.534L263.304 153.282H228.253L231.024 190.26Z" fill="#FFD600"/>
<path d="M356.292 119.555H108.767V260.242H356.292V119.555Z" fill="#66CCC3"/>
<path d="M314.376 119.556C307.751 119.556 302.331 114.135 302.331 107.51V100.404H326.421V107.51C326.421 114.135 321 119.556 314.376 119.556Z" fill="#009887"/>
<path d="M326.421 104.379H302.331V105.463H326.421V104.379Z" fill="white"/>
<path d="M356.292 206.159H108.767L356.292 167.495V206.159Z" fill="#00B8AB"/>
<path d="M356.292 206.159H108.767V260.242H356.292V206.159Z" fill="#00B8AB"/>
<path d="M106.96 73.6639H89.9766V55.1145C89.9766 49.4534 94.5537 44.8763 100.215 44.8763C105.635 44.8763 110.694 49.2125 110.935 54.6327L111.658 68.7254C111.778 71.4958 109.61 73.6639 106.96 73.6639Z" fill="#FFBE8E"/>
<path d="M111.658 68.8459C111.778 71.4958 109.61 73.6639 106.96 73.6639H89.9766V55.1145C89.9766 49.4534 94.5537 44.8763 100.215 44.8763C102.985 44.8763 105.876 45.9603 107.803 47.6466C109.61 49.4534 110.814 51.8624 110.935 54.5123L111.658 68.8459Z" fill="#FFBE8E"/>
<path d="M113.705 46.2012V51.7419C113.705 52.2237 113.705 52.5851 113.585 52.9464H103.226V40.54H108.165C111.176 40.54 113.705 43.0695 113.705 46.2012Z" fill="#014E3F"/>
<path d="M95.5172 43.0695V60.5348H84.7971V53.6691C84.9176 47.8875 89.6151 43.0695 95.5172 43.0695Z" fill="#014E3F"/>
<path d="M112.38 51.742H101.299C96.9625 51.742 93.4695 48.2489 93.4695 43.9127C93.4695 41.865 95.1558 40.1787 97.2034 40.1787C99.2511 40.1787 100.937 41.865 100.937 43.9127C100.937 44.1536 101.058 44.274 101.299 44.274H112.38V51.742Z" fill="#014E3F"/>
<path d="M108.405 48.008H102.624C100.576 48.008 98.8896 46.3217 98.8896 44.274C98.8896 42.2263 100.576 40.54 102.624 40.54H108.405C110.453 40.54 112.139 42.2263 112.139 44.274C112.139 46.3217 110.453 48.008 108.405 48.008Z" fill="#014E3F"/>
<path d="M116.716 50.0556C116.716 53.1873 114.187 55.7168 111.055 55.7168C107.924 55.7168 105.033 53.1873 105.033 50.0556C105.033 46.9239 107.924 44.3945 111.055 44.3945C114.187 44.5149 116.716 47.0444 116.716 50.0556Z" fill="#014E3F"/>
<path d="M108.526 48.8511H92.9878V54.6328H108.526V48.8511Z" fill="#014E3F"/>
<path d="M105.394 54.5123H93.4695V61.9802H105.394V54.5123Z" fill="#014E3F"/>
<path d="M94.674 68.9663C89.2537 68.9663 84.9175 64.6301 84.9175 59.2098H102.744V60.8961C102.624 65.3528 99.1306 68.9663 94.674 68.9663Z" fill="#014E3F"/>
<path d="M96.3604 88.3589C92.8674 88.3589 89.9766 85.468 89.9766 81.975V68.9663H102.744V81.975C102.744 85.468 99.9739 88.3589 96.3604 88.3589Z" fill="#FFBE8E"/>
<path d="M105.515 64.7506H108.285V59.2098H105.515C103.949 59.2098 102.744 60.4143 102.744 61.9802C102.624 63.5461 103.949 64.7506 105.515 64.7506Z" fill="#FFBE8E"/>
<path d="M109.61 52.4647H102.624V59.0894H102.865C106.599 59.2099 109.61 56.1986 109.61 52.4647Z" fill="#014E3F"/>
<path d="M96.3604 88.3588C99.8862 88.3588 102.744 85.5007 102.744 81.975C102.744 78.4492 99.8862 75.5911 96.3604 75.5911C92.8347 75.5911 89.9766 78.4492 89.9766 81.975C89.9766 85.5007 92.8347 88.3588 96.3604 88.3588Z" fill="#FFBE8E"/>
<path d="M69.7406 182.069C65.6453 182.069 62.2727 178.697 62.2727 174.601C62.2727 170.506 65.6453 167.133 69.7406 167.133C73.8359 167.133 77.2085 170.506 77.2085 174.601C77.2085 178.697 73.8359 182.069 69.7406 182.069ZM69.7406 168.097C66.1271 168.097 63.2363 170.988 63.2363 174.601C63.2363 178.215 66.1271 181.106 69.7406 181.106C73.3541 181.106 76.2449 178.215 76.2449 174.601C76.2449 170.988 73.3541 168.097 69.7406 168.097Z" fill="#006B5C"/>
<path d="M94.3127 174.601H45.1689V208.448H94.3127V174.601Z" fill="#009887"/>
<path d="M138.031 119.14C141.739 118.075 143.882 114.205 142.817 110.497C141.751 106.789 137.882 104.646 134.173 105.712C130.465 106.777 128.323 110.647 129.388 114.355C130.453 118.063 134.323 120.206 138.031 119.14Z" fill="#FFBD00"/>
<path d="M104.19 99.8016L132.255 118.351L140.927 107.51L117.078 83.9022L104.19 99.8016Z" fill="#FFBD00"/>
<path d="M170.558 115.46C170.558 117.749 168.751 119.555 166.462 119.555C164.174 119.555 162.367 117.749 162.367 115.46C162.367 113.172 164.174 111.365 166.462 111.365C168.751 111.365 170.558 113.172 170.558 115.46Z" fill="#FFBE8E"/>
<path d="M162.367 116.424C162.367 114.738 161.042 113.292 159.356 113.292C157.67 113.292 156.224 114.617 156.224 116.303C156.224 117.99 157.549 119.435 159.235 119.435C161.042 119.556 162.367 118.11 162.367 116.424Z" fill="#FFBE8E"/>
<path d="M165.258 111.485L158.392 113.533L159.235 119.556H166.463L165.258 111.485Z" fill="#FFBE8E"/>
<path d="M118.403 96.9108C115.271 101.608 108.887 102.933 104.19 99.8016C99.492 96.6699 98.167 90.286 101.299 85.5885C104.43 80.8909 110.814 79.566 115.512 82.6977C120.209 85.8294 121.534 92.2133 118.403 96.9108Z" fill="#FFBD00"/>
<path d="M84.0635 101.212C89.6292 100.214 93.332 94.8933 92.334 89.3276C91.336 83.762 86.015 80.0591 80.4494 81.0571C74.8837 82.0551 71.1809 87.3761 72.1789 92.9417C73.1769 98.5074 78.4978 102.21 84.0635 101.212Z" fill="#FFBD00"/>
<path d="M114.428 146.416L112.26 189.899H100.456V146.416H114.428Z" fill="#00A899"/>
<path d="M87.4731 152.854C91.0328 151.365 92.7118 147.273 91.2232 143.713C89.7347 140.154 85.6423 138.475 82.0826 139.963C78.5229 141.452 76.8439 145.544 78.3325 149.104C79.821 152.664 83.9134 154.343 87.4731 152.854Z" fill="#FFFCE4"/>
<path d="M107.442 153.402C111.3 153.402 114.428 150.274 114.428 146.416C114.428 142.558 111.3 139.43 107.442 139.43C103.583 139.43 100.456 142.558 100.456 146.416C100.456 150.274 103.583 153.402 107.442 153.402Z" fill="#FFFCE4"/>
<path d="M117.319 88.4793L114.789 139.55H77.4495L74.92 88.4793C74.6791 84.384 77.9313 81.0114 82.0266 81.0114H110.092C114.187 80.8909 117.439 84.384 117.319 88.4793Z" fill="#FFBD00"/>
<path d="M114.789 139.43L114.428 146.416V146.777C114.187 150.511 111.176 153.402 107.442 153.402H84.7972C81.0632 153.402 78.052 150.511 77.8111 146.777V146.416L77.4497 139.43H114.789Z" fill="#00A899"/>
<path d="M91.6629 147.38L86.1222 190.38L74.4385 188.814L77.8111 145.573L91.6629 147.38Z" fill="#00A899"/>
<path d="M109.011 256.043C109.562 253.712 108.118 251.377 105.788 250.826C103.457 250.276 101.121 251.719 100.571 254.05C100.021 256.381 101.464 258.716 103.795 259.266C106.125 259.817 108.461 258.374 109.011 256.043Z" fill="#FFFCE4"/>
<path d="M100.456 255.062V189.899H112.26L109.128 255.062H100.456Z" fill="#00A899"/>
<path d="M69.1387 254.46L74.4385 188.815L86.1222 190.38L77.6906 255.544L69.1387 254.46Z" fill="#00A899"/>
<path d="M113.464 260.121H100.456V254.942H109.128L114.066 257.592C114.428 257.833 114.789 258.194 114.789 258.676C114.789 259.639 114.187 260.121 113.464 260.121Z" fill="#014E3F"/>
<path d="M82.1473 260.121H69.1387V254.942H77.8111L82.7496 257.592C83.1109 257.833 83.4723 258.194 83.4723 258.676C83.3518 259.639 82.87 260.121 82.1473 260.121Z" fill="#014E3F"/>
<path d="M66.4686 127.472C70.3073 127.082 73.1032 123.655 72.7135 119.816C72.3238 115.977 68.8961 113.181 65.0574 113.571C61.2188 113.961 58.4228 117.389 58.8125 121.227C59.2022 125.066 62.63 127.862 66.4686 127.472Z" fill="#FFBD00"/>
<path d="M90.6992 97.0313L71.5476 124.614L59.3821 117.749L72.8725 87.0339L90.6992 97.0313Z" fill="#FFBD00"/>
<path d="M71.3066 171.951C73.4747 171.47 74.9201 169.181 74.3178 167.013C73.836 164.845 71.5475 163.399 69.3794 164.002C67.2113 164.483 65.7659 166.772 66.3681 168.94C66.8499 171.108 69.018 172.554 71.3066 171.951Z" fill="#FFBE8E"/>
<path d="M70.4633 163.761C68.777 164.122 67.2111 163.159 66.7293 161.472C66.368 159.786 67.3316 158.22 69.0179 157.738C70.7042 157.377 72.27 158.341 72.7518 160.027C73.1132 161.713 72.0291 163.399 70.4633 163.761Z" fill="#FFBE8E"/>
<path d="M66.2476 167.736L66.6089 160.629L72.7519 160.147L74.3177 167.133L66.2476 167.736Z" fill="#FFBE8E"/>
<path d="M72.7519 120.519V160.75L66.7294 161.352L66.2476 159.304L65.7658 156.293L58.9001 121.844L72.7519 120.519Z" fill="#FFBD00"/>
<path d="M66.7294 161.352L72.7519 160.75V158.1L66.2476 159.304L66.7294 161.352Z" fill="#FFBE8E"/>
<path d="M160.32 113.533L159.235 119.555H156.826L135.989 119.435L138.398 105.824L156.826 112.328L160.32 113.533Z" fill="#FFBD00"/>
<path d="M160.319 113.533L159.235 119.555H156.826V112.328L160.319 113.533Z" fill="#FFBE8E"/>
<path d="M344.488 92.5746C343.043 99.5607 340.513 106.306 338.466 113.172C336.418 120.278 334.25 127.385 334.37 134.732C334.37 144.248 338.225 153.763 344.729 160.75C347.258 163.52 350.27 165.808 352.317 169.061C354.245 172.192 354.967 176.649 352.799 179.66C349.667 183.996 342.802 183.033 338.104 185.803C332.202 189.176 331.359 197.969 334.732 203.871C338.104 209.773 353.281 226.756 375.083 222.541C384.839 220.613 397.968 211.339 397.607 201.462C397.245 191.103 387.368 182.792 387.73 172.433C387.971 165.688 392.548 159.906 396.402 154.486C400.377 148.945 403.991 142.321 402.184 135.816C399.534 126.18 387.128 123.289 381.225 115.34C377.371 110.16 376.528 103.415 376.287 97.0313C376.046 90.6474 376.167 84.0226 374.119 78.0001C368.94 63.1847 350.511 64.9915 344.488 92.5746Z" fill="#FFBD00"/>
<path d="M346.536 183.635L346.295 182.672C348.584 182.069 350.872 181.226 352.438 179.299C354.606 176.408 353.763 172.192 351.956 169.302C350.631 167.133 348.704 165.327 346.897 163.52C346.054 162.797 345.331 161.954 344.488 161.111C337.863 154.004 334.009 144.489 334.009 134.732C334.009 127.264 336.057 120.037 338.225 113.051C338.947 110.763 339.67 108.474 340.393 106.186C340.875 104.62 341.357 103.054 341.838 101.488L342.802 101.849C342.32 103.415 341.838 104.981 341.357 106.547C340.634 108.715 339.911 111.124 339.188 113.413C337.141 120.278 335.093 127.505 335.093 134.853C335.093 144.248 338.827 153.643 345.331 160.509C346.054 161.352 346.897 162.074 347.74 162.918C349.668 164.724 351.595 166.652 353.04 168.94C354.967 172.072 355.931 176.769 353.522 180.022C351.474 182.069 348.945 183.033 346.536 183.635Z" fill="#006B5C"/>
<path d="M388.332 122.205C385.682 120.278 382.912 118.231 380.864 115.46C376.889 110.04 376.046 103.054 375.805 96.9108C375.805 95.9472 375.685 94.9836 375.685 94.02C375.564 88.5997 375.323 83.059 373.637 78.0001C371.589 72.3389 367.374 68.9663 362.556 69.2072C356.413 69.5686 348.704 75.9524 345.09 92.695C344.729 94.1405 344.368 95.5858 344.006 97.2722L343.043 97.0313C343.525 95.4654 343.886 94.02 344.127 92.5746C347.861 75.3502 356.051 68.7254 362.556 68.3641C367.856 68.0027 372.433 71.6162 374.601 77.7592C376.407 82.9386 376.648 88.5997 376.769 94.02C376.769 94.9836 376.769 95.9472 376.889 96.9108C377.13 102.933 377.853 109.799 381.707 114.858C383.635 117.508 386.405 119.555 388.934 121.362L388.332 122.205Z" fill="#006B5C"/>
<path d="M390.862 163.761L389.898 163.279C391.343 160.509 393.271 157.979 395.077 155.45C395.439 154.968 395.68 154.486 396.041 154.125C399.414 149.427 403.629 142.441 401.702 135.816C400.498 131.721 397.366 128.83 394.836 126.783L395.439 125.939C398.209 127.987 401.461 130.998 402.666 135.455C404.593 142.562 400.257 149.789 396.764 154.607C396.402 155.088 396.161 155.57 395.8 155.932C394.114 158.581 392.186 161.111 390.862 163.761Z" fill="#006B5C"/>
<path d="M392.789 188.574L392.307 187.61C391.825 186.646 391.223 185.683 390.741 184.599L391.705 184.117C392.186 185.081 392.668 186.044 393.27 187.008L393.752 187.971L392.789 188.574Z" fill="#006B5C"/>
<path d="M368.217 223.625C353.281 223.625 342.802 214.23 338.586 209.652L339.309 208.93C344.006 213.989 356.894 225.311 374.962 221.818C384.237 220.011 397.486 211.098 397.125 201.341C397.125 200.016 396.884 198.571 396.402 197.126L397.366 196.885C397.848 198.45 398.088 199.896 398.088 201.341C398.45 211.7 384.718 221.095 375.082 222.902C372.794 223.384 370.505 223.625 368.217 223.625Z" fill="#006B5C"/>
<path d="M333.286 194.837L332.323 194.717C332.684 190.501 334.732 187.008 337.863 185.201C339.791 184.117 342.079 183.515 344.368 183.033C344.97 182.912 345.693 182.792 346.295 182.551L346.536 183.515C345.934 183.635 345.211 183.876 344.609 183.996C342.441 184.478 340.272 184.96 338.466 186.044C335.454 187.73 333.648 190.983 333.286 194.837Z" fill="#006B5C"/>
<path d="M367.976 129.432H366.892V240.608H367.976V129.432Z" fill="#006B5C"/>
<path d="M367.855 161.593L366.892 161.472C368.578 151.354 380.021 145.211 380.503 144.85L380.985 145.693C380.864 145.814 369.421 152.077 367.855 161.593Z" fill="#006B5C"/>
<path d="M366.892 205.437C365.808 198.691 357.617 194.235 357.617 194.114L358.099 193.271C358.46 193.512 366.771 197.969 367.976 205.316L366.892 205.437Z" fill="#006B5C"/>
<path d="M367.253 260.121C357.015 260.121 348.824 251.81 348.824 241.692V236.874H385.682V241.692C385.682 251.931 377.491 260.121 367.253 260.121Z" fill="#006B5C"/>
<path d="M355.449 259.158C351.113 256.869 348.343 252.412 348.343 247.474V243.619H349.427V247.474C349.427 252.051 351.956 256.146 355.931 258.194L355.449 259.158Z" fill="#006B5C"/>
<path d="M385.682 240.247H348.824V241.331H385.682V240.247Z" fill="white"/>
<path d="M385.682 236.392H362.194V237.476H385.682V236.392Z" fill="#006B5C"/>
<path d="M391.343 260.121H367.735V261.205H391.343V260.121Z" fill="#006B5C"/>
<path d="M163.09 260.121H95.2761V261.205H163.09V260.121Z" fill="#006B5C"/>
<path d="M222.472 260.121H185.614V261.205H222.472V260.121Z" fill="#006B5C"/>
<path d="M233.192 260.121H228.494V261.205H233.192V260.121Z" fill="#006B5C"/>
<path d="M295.465 260.121H279.324V261.205H295.465V260.121Z" fill="#006B5C"/>
<path d="M327.264 260.121H303.053V261.205H327.264V260.121Z" fill="#006B5C"/>
<path d="M88.1698 260.121H69.1387V261.205H88.1698V260.121Z" fill="#006B5C"/>
<path d="M189.107 102.211H184.65V103.295H189.107V102.211Z" fill="#004F3F"/>
<path d="M225.122 119.555H224.158V103.174H193.443V102.211H225.122V119.555Z" fill="#004F3F"/>
<path d="M216.208 118.953H124.546V120.037H216.208V118.953Z" fill="#006B5C"/>
<path d="M227.049 118.953H220.665V120.037H227.049V118.953Z" fill="#006B5C"/>
<path d="M329.793 118.833H246.682V119.917H329.793V118.833Z" fill="#006B5C"/>
<path d="M303.776 20.1839H302.692V23.0747H303.776V20.1839Z" fill="#FBE600"/>
<path d="M303.776 37.4083H302.692V40.2991H303.776V37.4083Z" fill="#FBE600"/>
<path d="M298.623 21.1763L297.684 21.7184L299.129 24.2218L300.068 23.6798L298.623 21.1763Z" fill="#FBE600"/>
<path d="M307.293 36.0785L306.354 36.6206L307.799 39.124L308.738 38.582L307.293 36.0785Z" fill="#FBE600"/>
<path d="M294.737 24.6477L294.195 25.5865L296.698 27.0319L297.24 26.0931L294.737 24.6477Z" fill="#FBE600"/>
<path d="M309.695 33.2665L309.153 34.2053L311.656 35.6507L312.198 34.7119L309.695 33.2665Z" fill="#FBE600"/>
<path d="M296.067 29.6995H293.176V30.7835H296.067V29.6995Z" fill="#FBE600"/>
<path d="M313.291 29.6995H310.401V30.7835H313.291V29.6995Z" fill="#FBE600"/>
<path d="M296.719 33.3794L294.215 34.8248L294.757 35.7636L297.261 34.3182L296.719 33.3794Z" fill="#FBE600"/>
<path d="M311.627 24.7153L309.124 26.1607L309.666 27.0995L312.169 25.6541L311.627 24.7153Z" fill="#FBE600"/>
<path d="M299.158 36.1865L297.713 38.6902L298.652 39.2322L300.097 36.7284L299.158 36.1865Z" fill="#FBE600"/>
<path d="M307.791 21.2075L306.345 23.7113L307.284 24.2532L308.729 21.7495L307.791 21.2075Z" fill="#FBE600"/>
<path d="M158.272 56.1986H157.188V59.0894H158.272V56.1986Z" fill="#FBE600"/>
<path d="M158.272 73.423H157.188V76.3138H158.272V73.423Z" fill="#FBE600"/>
<path d="M153.169 57.3196L152.23 57.8617L153.675 60.3651L154.614 59.8231L153.169 57.3196Z" fill="#FBE600"/>
<path d="M161.786 72.1068L160.847 72.649L162.293 75.1524L163.232 74.6103L161.786 72.1068Z" fill="#FBE600"/>
<path d="M149.302 60.7468L148.76 61.6856L151.264 63.131L151.806 62.1922L149.302 60.7468Z" fill="#FBE600"/>
<path d="M164.18 69.3248L163.638 70.2636L166.141 71.709L166.683 70.7702L164.18 69.3248Z" fill="#FBE600"/>
<path d="M150.563 65.7142H147.672V66.7982H150.563V65.7142Z" fill="#FBE600"/>
<path d="M167.787 65.7142H164.896V66.7982H167.787V65.7142Z" fill="#FBE600"/>
<path d="M151.202 69.4148L148.699 70.8602L149.241 71.799L151.744 70.3536L151.202 69.4148Z" fill="#FBE600"/>
<path d="M166.108 60.744L163.605 62.1895L164.147 63.1282L166.65 61.6828L166.108 60.744Z" fill="#FBE600"/>
<path d="M153.688 72.1309L152.243 74.6346L153.182 75.1765L154.627 72.6728L153.688 72.1309Z" fill="#FBE600"/>
<path d="M162.261 57.2565L160.815 59.7602L161.754 60.3021L163.199 57.7984L162.261 57.2565Z" fill="#FBE600"/>
<path d="M418.926 176.769H417.842V179.66H418.926V176.769Z" fill="#FBE600"/>
<path d="M418.926 193.994H417.842V196.885H418.926V193.994Z" fill="#FBE600"/>
<path d="M413.919 177.839L412.98 178.381L414.426 180.885L415.364 180.343L413.919 177.839Z" fill="#FBE600"/>
<path d="M422.486 192.8L421.547 193.342L422.992 195.846L423.931 195.304L422.486 192.8Z" fill="#FBE600"/>
<path d="M409.972 181.381L409.43 182.32L411.933 183.765L412.475 182.826L409.972 181.381Z" fill="#FBE600"/>
<path d="M424.846 189.954L424.304 190.893L426.807 192.339L427.349 191.4L424.846 189.954Z" fill="#FBE600"/>
<path d="M411.217 186.285H408.327V187.369H411.217V186.285Z" fill="#FBE600"/>
<path d="M428.442 186.285H425.551V187.369H428.442V186.285Z" fill="#FBE600"/>
<path d="M411.956 189.962L409.452 191.407L409.994 192.346L412.498 190.9L411.956 189.962Z" fill="#FBE600"/>
<path d="M426.922 181.395L424.418 182.841L424.96 183.779L427.464 182.334L426.922 181.395Z" fill="#FBE600"/>
<path d="M414.353 192.74L412.907 195.244L413.846 195.786L415.291 193.282L414.353 192.74Z" fill="#FBE600"/>
<path d="M422.925 177.866L421.479 180.37L422.418 180.912L423.864 178.408L422.925 177.866Z" fill="#FBE600"/>
<path d="M249.212 74.2661C249.212 75.832 248.007 77.0365 246.441 77.157C244.876 77.157 243.671 75.9525 243.551 74.3866L249.212 74.2661Z" fill="white"/>
<path d="M330.528 181.72L193.357 203.413L193.526 204.484L330.697 182.791L330.528 181.72Z" fill="#007C6B"/>
<path d="M321.001 193.109L238.198 206.204L238.368 207.275L321.17 194.18L321.001 193.109Z" fill="#007C6B"/>
<path d="M233.808 206.882L230.715 207.371L230.884 208.442L233.977 207.953L233.808 206.882Z" fill="#007C6B"/>
</svg>
