<svg width="284" height="187" viewBox="0 0 284 187" fill="none" xmlns="http://www.w3.org/2000/svg">
<path d="M111.031 66.5313C106.071 71.6198 110.522 84.2136 118.535 82.4327C127.056 80.5245 125.784 67.1674 118.026 64.8776C114.973 64.1143 112.557 64.8776 111.031 66.5313Z" fill="#DBF2F0"/>
<path d="M150.712 83.0687C148.804 84.8497 146.642 86.3762 143.971 86.8851C139.011 88.03 134.306 85.8674 130.109 83.3232C125.657 80.6517 121.206 77.8531 117.009 74.8C113.956 72.6375 110.904 70.2204 109.123 66.913C106.961 63.0966 106.834 58.517 107.216 54.1919C107.47 51.266 106.198 48.7218 105.562 45.9232C104.417 40.4531 105.562 34.0925 110.649 31.0395C113.193 29.513 115.864 29.6402 118.662 30.9123C120.697 31.8028 122.732 33.0749 124.894 33.7109C129.473 34.983 134.56 33.2021 139.139 32.3116C142.445 31.6755 146.006 31.2939 149.313 32.3116C152.874 33.4565 154.655 36.1279 156.563 39.181C158.216 41.8524 160.76 43.7606 162.795 46.0504C165.465 49.1034 166.356 53.047 165.465 57.1177C164.066 62.9694 160.76 68.0579 157.834 73.2735C155.799 76.581 153.637 80.2701 150.712 83.0687Z" fill="#014E3F"/>
<path d="M113.575 138.914C119.552 129.628 123.24 118.306 118.153 107.875C117.644 106.857 117.009 105.712 115.864 105.331C113.447 104.567 110.141 105.331 108.106 106.603C100.856 110.928 96.4048 118.942 92.335 126.066C88.1379 133.444 84.4496 141.204 80.1254 148.582C78.3448 151.635 76.6914 154.688 75.674 157.996C74.9109 160.922 74.7837 164.229 75.9283 167.155C80.7613 179.495 93.8612 164.356 97.931 159.777C103.527 153.289 108.869 146.293 113.575 138.914Z" fill="#FFD600"/>
<path d="M143.463 82.9415C142.827 83.5776 142.064 84.2136 141.173 84.5953C139.011 85.7402 136.34 85.6129 134.051 84.8497C131.762 84.0864 129.6 82.8143 127.692 81.415C122.35 77.5987 115.609 72.5102 112.43 66.7857C110.395 63.2238 108.996 58.8987 110.904 54.9551C112.557 51.5204 115.864 49.1034 119.552 48.7218C119.807 48.7218 120.188 48.7218 120.442 48.849C120.697 48.9762 120.951 49.3579 121.206 49.6123C122.605 51.9021 123.622 54.3191 125.275 56.3545C127.056 58.517 129.345 60.1708 131.762 61.6973C135.704 64.1143 140.029 65.8953 143.717 68.5667C146.388 70.6021 146.515 75.0545 145.879 78.1075C145.497 79.8885 144.607 81.6694 143.463 82.9415Z" fill="#014E3F"/>
<path d="M173.605 127.084C175.513 120.214 176.53 113.09 172.206 108.384C170.298 106.221 166.864 104.822 163.939 103.677C158.47 101.642 152.747 98.8429 146.897 97.9524C140.665 97.0619 133.67 96.4259 127.565 97.8252C123.622 98.7157 119.934 100.242 116.373 102.023C111.667 104.313 108.233 105.839 106.707 110.673C105.053 115.889 104.036 121.359 103.4 126.702C101.747 142.603 103.909 158.505 103.909 174.406C103.909 175.933 103.909 177.586 104.672 178.986C106.198 181.784 110.522 181.784 113.575 181.784C123.622 181.784 133.797 181.784 143.844 181.784C148.041 181.784 151.221 182.166 155.164 182.929C158.47 183.565 161.268 182.039 162.922 179.367C164.448 176.823 164.575 173.897 164.702 171.099C165.338 160.031 167.119 149.091 170.171 138.405C170.934 135.352 172.461 131.282 173.605 127.084Z" fill="#FDEB21"/>
<path d="M149.186 106.984C151.348 103.55 151.857 99.2245 149.059 95.917C147.787 94.3905 145.498 94.2633 143.59 94.1361C139.774 94.0088 135.959 94.5177 132.271 95.281C128.709 96.0442 125.148 97.4435 123.622 100.878C122.477 103.422 122.859 106.348 124.385 108.638C125.784 110.801 127.946 112.327 130.49 112.836C134.56 113.727 139.266 113.599 143.208 112.073C145.498 111.182 147.66 109.274 149.186 106.984Z" fill="#FDEB21"/>
<path d="M195.353 143.621C196.879 146.42 198.406 149.218 199.932 151.89C202.984 157.487 208.58 170.081 199.55 173.261C194.972 174.788 192.428 173.261 189.376 169.954C178.056 157.487 168.263 143.367 160.632 128.356C157.834 122.759 150.203 108.129 159.36 104.822C162.286 103.804 165.592 104.059 168.39 105.458C169.662 106.094 170.68 106.984 171.824 108.002C178.438 113.981 183.271 121.614 187.468 129.373C190.012 134.207 192.682 138.914 195.353 143.621Z" fill="#FFD600"/>
<path d="M149.313 163.975C150.076 163.848 150.839 163.72 151.73 163.593C155.545 162.957 159.488 162.321 163.303 161.431C170.934 159.777 178.565 158.378 186.323 157.614C187.086 157.487 187.977 157.487 188.74 157.36C192.174 157.105 195.862 156.978 199.042 158.632C202.221 160.286 204.765 164.102 204.002 167.791C203.493 170.335 201.458 172.371 199.169 173.388C196.88 174.406 194.463 174.533 192.047 174.661C184.161 175.169 176.276 175.678 168.391 176.314C164.448 176.569 160.632 176.823 156.69 177.078C153.001 177.332 149.186 177.841 145.37 177.841C143.844 177.841 142.064 177.586 140.665 176.569C138.757 175.169 137.739 172.116 137.485 169.699C137.358 168.427 137.612 166.901 138.63 166.137C139.138 165.756 139.774 165.629 140.41 165.501C143.335 164.993 146.388 164.484 149.313 163.975Z" fill="#FFD600"/>
<path d="M118.789 166.773H81.3972V174.152H118.789V166.773Z" fill="#009887"/>
<path d="M87.7565 167.41L78.3449 119.324C78.0906 118.052 76.9459 117.161 75.6741 117.161H12.8456C11.9553 117.161 11.1922 117.67 10.6835 118.306L7.7583 121.741L10.302 121.232L19.5863 168.554C19.8407 169.827 20.9853 170.717 22.2572 170.717H85.0857C86.8662 170.717 88.1381 169.191 87.7565 167.41Z" fill="#009887"/>
<path d="M19.4591 174.025H82.2876C83.941 174.025 85.2128 172.498 84.9585 170.844L75.5469 122.759C75.2925 121.486 74.1479 120.596 72.8761 120.596H10.0476C8.39419 120.596 7.12236 122.122 7.37673 123.776L16.7883 171.862C17.0426 173.134 18.1873 174.025 19.4591 174.025Z" fill="#DBF2F0"/>
<path d="M39.1725 146.165C39.8084 149.473 42.8608 152.017 46.0404 152.017C49.3471 152.017 51.3821 149.346 50.7462 146.165C50.1102 142.858 47.0579 140.314 43.8783 140.314C40.6987 140.314 38.6638 142.858 39.1725 146.165Z" fill="#00B8AB"/>
<path d="M140.41 175.678C138.502 176.06 137.103 177.714 135.196 178.222C133.924 178.604 132.398 178.35 131.126 177.968C129.981 177.586 128.709 177.332 127.565 176.95C126.674 176.696 125.403 176.06 124.385 176.187C121.714 176.696 119.171 178.604 116.754 179.876C116.245 180.131 115.61 180.385 114.974 180.258C114.338 180.131 113.829 179.367 114.21 178.986C113.575 179.622 112.557 180.894 111.54 180.385C111.031 180.131 110.777 179.622 111.031 179.113C110.649 179.495 110.268 180.003 109.759 180.131C109.25 180.385 108.487 180.258 108.233 179.749C108.106 179.495 108.106 179.24 107.979 178.986C107.979 178.095 108.233 177.205 108.614 176.314C110.522 172.244 114.719 169.19 118.408 166.646C119.043 166.265 119.679 165.756 120.442 165.501C121.078 165.247 121.841 165.247 122.477 165.247C126.929 165.247 131.507 166.01 135.704 167.41C136.595 167.664 137.612 167.41 138.502 167.282C139.138 167.155 139.901 167.028 140.537 167.282C141.3 167.537 141.809 168.046 142.318 168.682C143.208 169.827 143.844 171.353 143.717 172.88C143.59 174.024 143.59 175.169 142.318 175.424C141.809 175.551 141.3 175.424 140.665 175.551C140.665 175.678 140.537 175.678 140.41 175.678Z" fill="#FFA300"/>
<path d="M141.173 109.274C143.971 108.384 146.133 106.73 147.024 103.931C147.787 101.514 146.642 98.7157 146.388 96.1715C146.133 93.7545 146.133 91.3375 146.261 89.0477C146.388 86.8851 146.642 84.5953 146.261 82.3055C146.006 81.0334 145.37 81.2878 144.099 80.779C142.827 80.2701 141.428 80.2701 140.029 80.2701C137.231 80.2701 129.854 80.0157 128.073 82.5599C127.31 83.7048 127.183 85.1041 127.183 86.5035C127.183 88.1572 126.802 90.3198 126.547 92.4824C126.42 93.5001 126.547 94.5177 126.293 95.5354C126.166 96.6803 125.657 97.698 125.275 98.8429C123.876 102.914 125.148 106.857 129.6 108.765C133.034 110.165 137.485 110.419 141.173 109.274Z" fill="#FFBE8E"/>
<path d="M146.261 82.4326C146.006 81.1605 145.37 81.4149 144.099 80.906C142.827 80.3972 141.428 80.3972 140.029 80.3972C137.231 80.3972 129.854 80.1428 128.073 82.687C127.31 83.8319 127.183 85.2312 127.183 86.6305C127.183 88.2843 126.802 90.4469 126.547 92.6095C126.42 93.6271 126.547 94.6448 126.293 95.6625C126.166 96.553 125.911 97.3162 125.53 98.2067C128.328 99.2244 131.38 99.4788 134.178 98.7156C139.266 97.4435 143.208 94.2632 146.006 90.0652C146.006 89.6836 146.006 89.4292 146.006 89.0475C146.388 86.885 146.642 84.5952 146.261 82.4326Z" fill="#C9936F"/>
<path d="M150.458 66.2769C150.458 62.4606 149.949 58.8987 148.931 55.9728C144.734 43.1245 128.709 39.9442 119.171 49.2306C108.487 59.5347 112.557 84.0864 123.876 92.7368C126.929 95.0265 130.999 95.7898 134.687 94.8993C145.752 91.7191 150.458 77.9803 150.458 66.2769Z" fill="#FFBE8E"/>
<path d="M148.931 55.9728C144.734 43.1245 128.709 39.9442 119.171 49.2306C117.899 50.3755 116.881 51.7748 116.118 53.1742C116.627 53.683 117.263 54.0646 117.772 54.4463C121.841 56.8633 126.293 58.7714 130.871 59.9163C132.906 60.4252 134.941 60.8068 136.595 62.0789C137.485 62.8422 138.248 63.7327 138.757 64.7504C139.393 66.0225 139.901 67.2946 140.41 68.6939C141.428 71.6197 141.809 74.6728 142.191 77.7259C142.191 77.9803 142.318 78.3619 142.572 78.6163C142.827 78.8708 143.081 78.8708 143.463 78.8708C145.243 78.8708 146.133 77.0898 147.532 76.1993C148.423 75.6905 149.186 75.0544 149.949 74.5456C150.458 71.8742 150.712 69.0755 150.712 66.4041C150.458 62.4606 149.822 58.8987 148.931 55.9728Z" fill="#C9936F"/>
<path d="M140.41 64.1143C140.919 65.3864 141.173 66.7857 141.555 68.185C142.191 71.2381 142.191 74.2912 142.191 77.3442C142.191 77.7259 142.191 77.9803 142.445 78.2347C142.7 78.4891 142.954 78.6163 143.208 78.6163C144.989 78.7435 146.006 77.217 147.533 76.4537C149.059 75.6905 150.585 74.9272 151.984 73.9095C155.799 70.8565 154.909 65.8952 154.782 61.5701C154.655 59.1531 154.655 56.7361 153.892 54.3191C153.129 51.7748 151.602 49.485 149.822 47.5769C144.607 41.9796 136.849 39.0537 129.218 39.5626C125.403 39.817 121.206 41.3435 118.535 44.1422C116.245 46.432 119.044 49.6123 120.951 51.1388C124.64 54.0646 128.837 56.4816 133.161 58.2626C135.069 59.0259 137.104 59.6619 138.503 61.1884C139.393 62.0789 140.029 63.0966 140.41 64.1143Z" fill="#014E3F"/>
<path d="M148.296 66.5312C153.256 63.8598 154.782 70.602 153.892 74.0367C153.51 75.436 153.002 76.8353 152.111 77.9802C150.967 79.5068 147.533 82.051 145.625 80.3972C144.735 79.634 144.607 78.3619 144.607 77.0898C144.607 74.0367 144.989 68.4394 148.296 66.5312Z" fill="#FFA300"/>
<path d="M219.391 145.402C220.027 144.003 219.9 142.476 219.518 141.077C219.137 139.678 218.374 138.533 217.483 137.133C216.72 135.861 215.83 134.462 215.321 132.681C214.812 130.9 214.94 128.992 215.448 127.465C216.466 124.158 218.628 121.741 220.027 119.197C220.79 117.924 221.299 116.652 221.553 115.253C221.808 113.854 221.68 112.327 221.044 110.928C222.189 111.946 222.825 113.726 222.952 115.38C223.079 117.034 222.571 118.688 221.935 120.214C220.663 123.267 218.755 125.684 217.992 128.356C217.61 129.628 217.483 130.9 217.738 132.172C217.992 133.444 218.628 134.844 219.264 136.243C219.9 137.642 220.536 139.296 220.663 140.95C221.044 142.476 220.663 144.257 219.391 145.402Z" fill="white"/>
<path d="M220.027 173.897C214.812 173.897 210.742 169.699 210.742 164.611V147.183H229.438V164.611C229.438 169.699 225.241 173.897 220.027 173.897Z" fill="#DBF2F0"/>
<path d="M230.71 153.289C226.259 153.289 222.571 156.978 222.571 161.558C222.571 166.137 226.259 169.826 230.71 169.826C235.162 169.826 238.85 166.137 238.85 161.558C238.85 156.978 235.162 153.289 230.71 153.289ZM230.71 166.773C227.785 166.773 225.496 164.356 225.496 161.431C225.496 158.505 227.785 156.088 230.71 156.088C233.635 156.088 235.925 158.505 235.925 161.431C235.925 164.356 233.635 166.773 230.71 166.773Z" fill="#DBF2F0"/>
<g opacity="0.2">
<path opacity="0.2" d="M213.541 163.72C213.032 163.72 212.523 163.212 212.523 162.703V149.727C212.523 149.218 213.032 148.709 213.541 148.709C214.049 148.709 214.558 149.218 214.558 149.727V162.703C214.558 163.339 214.049 163.72 213.541 163.72Z" fill="white"/>
</g>
<path d="M225.114 147.183V169.19C225.114 171.862 222.952 173.897 220.408 173.897H224.733C227.404 173.897 229.438 171.735 229.438 169.19V147.183H225.114Z" fill="#66CCC3"/>
<path d="M160.759 66.7857L160.124 66.2768L160.378 65.8952C163.303 61.9517 168.645 54.5734 166.101 49.7394C165.211 48.0857 163.558 47.068 161.904 45.9231C160.505 45.0326 158.979 44.0149 157.834 42.6156C156.944 41.4707 156.435 40.1986 156.054 38.9265C155.799 38.1632 155.418 37.2727 155.036 36.6367C152.747 32.1843 147.66 30.0217 142.191 31.1666C140.41 31.5483 138.502 32.1843 136.595 32.9476C133.034 34.3469 129.218 35.8734 125.53 34.8557C124.004 34.4741 122.859 33.5836 121.841 32.6932C121.206 32.1843 120.57 31.5483 119.806 31.1666C118.153 30.2761 116.373 29.7673 114.465 29.7673C110.395 29.7673 106.961 32.3115 105.562 36.0006C103.781 40.7074 105.562 44.5238 107.47 48.5945C108.106 49.9938 108.869 51.5204 109.377 53.0469L108.614 53.3013C108.106 51.7748 107.343 50.2483 106.707 48.8489C104.672 44.651 102.891 40.7074 104.672 35.619C106.198 31.5483 109.886 28.8768 114.338 28.8768C116.373 28.8768 118.407 29.3857 120.188 30.4034C120.951 30.9122 121.714 31.421 122.35 31.9299C123.368 32.8204 124.385 33.5836 125.784 33.9653C129.218 34.8557 132.906 33.4564 136.34 32.1843C138.248 31.421 140.283 30.6578 142.191 30.2761C148.168 29.1313 153.51 31.5483 155.927 36.2551C156.308 37.0183 156.69 37.9088 156.944 38.6721C157.453 39.9442 157.834 41.2163 158.597 42.234C159.615 43.5061 161.014 44.5238 162.413 45.4142C164.193 46.5591 165.847 47.704 166.864 49.485C169.789 54.8279 164.321 62.2061 161.141 66.5313L160.759 66.7857Z" fill="#AAE2DC"/>
<path d="M132.271 89.0476C131.126 89.0476 129.854 88.9204 128.582 88.7932L128.837 87.2666C133.288 87.9027 137.612 87.2666 141.555 85.4857C142.572 84.9768 143.463 84.468 144.353 83.9592C145.752 82.9415 147.024 81.5422 147.914 80.0156L149.186 80.7789C148.168 82.4326 146.769 83.9592 145.243 85.2313C144.353 85.8673 143.336 86.3762 142.191 87.0122C139.138 88.2843 135.705 89.0476 132.271 89.0476Z" fill="#66CCC3"/>
<path d="M124.385 86.1218C126.166 84.5953 130.236 84.7225 131.507 86.3762C132.525 87.5211 132.143 89.0477 131.126 90.0653C129.854 91.2102 128.328 91.2102 126.674 90.8286C124.639 90.3198 122.223 87.9028 124.385 86.1218Z" fill="#66CCC3"/>
<path d="M122.732 39.4353C123.622 39.4353 124.512 39.4353 125.275 39.4353C126.166 39.3081 127.056 39.3081 127.819 39.1809C129.472 38.9265 131.253 38.5448 132.906 38.4176C134.687 38.1632 136.34 38.036 138.121 38.1632C139.901 38.2904 141.682 38.672 143.208 39.5625C143.59 39.8169 143.971 40.0714 144.353 40.3258C144.734 40.5802 144.989 40.9618 145.37 41.3435C145.625 41.7251 145.879 42.1067 146.133 42.4884C146.388 42.87 146.515 43.3788 146.642 43.7605C146.769 44.2693 146.769 44.6509 146.769 45.1598C146.769 45.6686 146.642 46.0503 146.515 46.5591C146.388 46.9407 146.261 47.4496 146.261 47.8312C146.133 48.2128 146.133 48.5945 146.261 48.9761C146.388 49.7394 146.642 50.6299 147.024 51.3931C147.405 52.1564 147.787 52.9197 148.168 53.6829C148.55 54.4462 148.931 55.3367 149.059 56.0999C149.186 56.4816 149.186 56.9904 149.186 57.372C149.186 57.7537 149.059 58.2625 148.931 58.6441C149.186 57.7537 149.059 56.8632 148.804 56.0999C148.55 55.3367 148.168 54.5734 147.787 53.8101C147.405 53.0469 146.896 52.2836 146.515 51.5203C146.133 50.7571 145.752 49.8666 145.625 48.9761C145.625 48.4673 145.497 48.0856 145.625 47.5768C145.625 47.068 145.752 46.6863 145.879 46.3047C146.006 45.9231 146.006 45.5414 146.006 45.0326C146.006 44.6509 146.006 44.2693 145.879 43.8877C145.497 42.3611 144.353 40.9618 142.954 40.1986C141.555 39.3081 139.901 39.0537 138.121 38.9265C136.467 38.7992 134.687 38.9265 133.034 39.0537C131.38 39.1809 129.6 39.4353 127.819 39.6897C126.929 39.8169 126.038 39.8169 125.148 39.8169C124.512 39.5625 123.622 39.5625 122.732 39.4353Z" fill="#009887"/>
<path d="M150.33 64.6231C143.335 66.4041 140.665 79.5068 148.423 82.051C156.69 84.8497 162.667 72.7646 157.198 66.9129C155.036 64.6231 152.62 63.9871 150.33 64.6231Z" fill="#DBF2F0"/>
<path d="M152.62 66.2768C147.787 67.0401 144.862 77.217 149.822 80.0156C155.163 83.0687 160.124 73.9095 156.944 68.6938C155.799 66.7857 154.146 66.0224 152.62 66.2768Z" fill="#66CCC3"/>
<path d="M153.637 65.5136L151.729 65.2592C153.001 54.4463 152.492 40.4531 142.699 36.1279C138.121 33.9653 133.924 32.566 126.42 33.9653C125.275 33.8381 124.512 33.4565 124.512 33.4565C131.253 30.149 138.502 32.1844 143.462 34.4742C154.273 39.3082 154.909 54.0646 153.637 65.5136Z" fill="#DBF2F0"/>
<path d="M196.116 54.1919H226.132C238.85 54.1919 249.406 43.7606 249.406 30.9123C249.406 18.1912 238.977 7.63269 226.132 7.63269H196.116C183.398 7.63269 172.842 18.064 172.842 30.9123C172.842 43.7606 183.271 54.1919 196.116 54.1919Z" fill="#FFD600"/>
<path d="M182.889 66.404V45.0326L199.678 54.1918L182.889 66.404Z" fill="#FFD600"/>
<path d="M220.281 33.0749H186.45C185.306 33.0749 184.416 32.1844 184.416 31.0395C184.416 29.8946 185.306 29.0042 186.45 29.0042H220.281C221.426 29.0042 222.316 29.8946 222.316 31.0395C222.316 32.1844 221.426 33.0749 220.281 33.0749Z" fill="white"/>
<path d="M235.67 33.0749H227.276C226.132 33.0749 225.241 32.1844 225.241 31.0395C225.241 29.8946 226.132 29.0042 227.276 29.0042H235.67C236.815 29.0042 237.705 29.8946 237.705 31.0395C237.705 32.1844 236.815 33.0749 235.67 33.0749Z" fill="white"/>
<path d="M201.84 19.845H235.67C236.815 19.845 237.705 20.7354 237.705 21.8803C237.705 23.0252 236.815 23.9157 235.67 23.9157H201.84C200.695 23.9157 199.805 23.0252 199.805 21.8803C199.805 20.7354 200.695 19.845 201.84 19.845Z" fill="white"/>
<path d="M186.578 19.845H194.972C196.116 19.845 197.007 20.7354 197.007 21.8803C197.007 23.0252 196.116 23.9157 194.972 23.9157H186.578C185.433 23.9157 184.543 23.0252 184.543 21.8803C184.543 20.7354 185.433 19.845 186.578 19.845Z" fill="white"/>
<path d="M209.089 41.4708H186.578C185.433 41.4708 184.543 40.5803 184.543 39.4354C184.543 38.2905 185.433 37.4 186.578 37.4H209.089C210.234 37.4 211.124 38.2905 211.124 39.4354C211.124 40.5803 210.234 41.4708 209.089 41.4708Z" fill="white"/>
<path d="M246.226 67.2946C244.573 67.2946 242.792 67.0401 241.648 65.3864C239.358 62.0789 235.797 59.1531 231.855 62.4605C229.565 64.3687 231.346 68.3122 229.311 70.3476C227.53 72.0014 225.368 71.7469 224.478 74.5456C223.206 78.6163 227.276 82.3055 228.548 85.8674C229.693 88.9204 227.149 90.0653 226.004 92.3551C225.114 94.1361 225.623 96.0442 226.513 97.8252C228.166 100.878 231.855 103.295 230.964 107.239C230.201 110.546 229.565 113.472 232.491 115.889C234.525 117.543 238.214 119.197 237.832 122.25C237.705 123.395 236.942 124.285 236.688 125.43C236.306 127.211 237.451 128.865 238.85 130.01C241.775 132.681 244.446 135.352 246.735 138.66C247.753 140.186 251.568 143.367 250.042 145.402C252.84 141.713 255.765 138.278 258.309 134.462C260.344 131.282 263.523 126.702 261.361 122.886C260.725 121.741 259.453 120.723 259.072 119.451C258.436 117.034 260.852 114.871 261.743 112.709C263.142 109.529 262.124 105.712 259.708 103.295C258.563 102.15 257.291 100.878 257.164 99.2245C257.037 97.4436 258.054 95.7898 258.563 94.2633C259.072 92.7367 259.326 91.2102 259.453 89.6837C259.581 88.5388 259.581 87.5211 259.326 86.3762C258.817 84.3408 257.037 83.1959 255.638 81.7966C252.458 78.3619 254.112 74.2912 252.713 70.3476C251.568 66.9129 248.77 67.2946 246.226 67.2946Z" fill="#FDEB20"/>
<path d="M251.059 149.727L250.042 149.6C251.187 136.879 250.296 123.013 247.625 108.511C244.827 93.3728 241.521 81.1606 237.196 70.3476C235.543 66.1497 233.762 62.2061 231.855 58.517L232.745 58.0082C234.653 61.6973 236.561 65.768 238.214 69.966C242.538 80.9061 245.845 92.9912 248.643 108.256C251.314 123.013 252.204 137.006 251.059 149.727Z" fill="#007C6B"/>
<path d="M243.683 89.5565C242.793 88.666 242.157 88.2844 241.266 87.6483C240.885 87.3939 240.503 87.1395 240.122 86.8851C234.271 82.8143 227.785 79.634 221.044 77.217L221.426 76.1993C228.294 78.6163 234.78 81.9238 240.758 85.9946C241.139 86.249 241.521 86.5034 241.902 86.7578C242.792 87.2667 243.556 87.7755 244.446 88.7932L243.683 89.5565Z" fill="#007C6B"/>
<path d="M246.99 104.44C240.63 100.242 233.127 97.4436 225.623 96.1715L225.75 95.1538C233.381 96.4259 241.012 99.3518 247.498 103.55L246.99 104.44Z" fill="#007C6B"/>
<path d="M249.533 122.25C243.555 117.034 236.306 113.345 228.421 111.691L228.675 110.673C236.56 112.454 244.064 116.144 250.169 121.486L249.533 122.25Z" fill="#007C6B"/>
<path d="M244.319 88.7932L243.301 88.666C243.81 81.2877 245.591 74.0367 248.643 67.2946L249.533 67.6762C246.481 74.5456 244.7 81.5422 244.319 88.7932Z" fill="#007C6B"/>
<path d="M247.753 103.677L246.862 103.295C249.915 96.6804 254.493 90.5742 259.962 85.7402L260.598 86.5035C255.129 91.2103 250.678 97.1892 247.753 103.677Z" fill="#007C6B"/>
<path d="M250.805 122.377L249.788 122.122C250.169 120.087 250.932 118.052 252.077 116.144C253.349 113.981 255.002 112.073 256.528 110.292C257.673 109.02 258.818 107.62 260.089 106.348L260.853 107.112C259.708 108.384 258.436 109.656 257.291 110.928C255.765 112.709 254.239 114.49 252.967 116.652C251.95 118.561 251.187 120.469 250.805 122.377Z" fill="#007C6B"/>
<path d="M267.212 92.4823C268.484 92.7367 269.628 92.7367 270.773 91.719C272.935 89.6837 275.86 88.0299 278.277 90.9558C279.676 92.7367 277.895 95.2809 279.04 96.9347C280.057 98.4612 281.711 98.4612 281.965 100.624C282.347 103.804 278.913 105.839 277.387 108.256C276.115 110.292 277.768 111.437 278.277 113.345C278.658 114.744 278.023 116.144 277.132 117.288C275.479 119.324 272.554 120.469 272.554 123.522C272.554 125.939 272.681 128.229 270.264 129.628C268.611 130.646 265.686 131.154 265.431 133.571C265.304 134.335 265.813 135.225 265.813 135.988C265.813 137.261 264.795 138.405 263.651 139.041C261.107 140.568 258.818 142.095 256.783 144.257C255.893 145.148 252.713 147.056 253.476 148.71C251.95 145.656 250.297 142.731 249.025 139.55C248.007 137.006 246.354 133.19 248.389 130.646C249.025 129.882 250.042 129.373 250.424 128.483C251.187 126.829 249.788 124.921 249.406 123.267C248.898 120.723 250.042 118.179 252.204 116.78C253.222 116.144 254.239 115.38 254.621 114.235C255.002 112.963 254.366 111.691 254.239 110.419C254.112 109.274 254.112 108.129 254.239 106.984C254.366 106.221 254.366 105.331 254.748 104.567C255.384 103.168 256.91 102.532 258.055 101.769C260.853 99.7333 260.217 96.5531 261.743 93.8816C263.396 91.3374 265.304 92.1007 267.212 92.4823Z" fill="#007C6B"/>
<path d="M253.222 151.635L252.204 151.508C253.222 142.095 255.638 132.045 259.708 121.741C263.905 111.055 267.975 102.659 272.681 95.4082C274.461 92.6096 276.369 89.9381 278.277 87.5211L279.04 88.1572C277.132 90.5742 275.224 93.1184 273.444 96.0442C268.865 103.295 264.795 111.564 260.598 122.25C256.656 132.427 254.112 142.349 253.222 151.635Z" fill="#FDEB20"/>
<path d="M265.94 109.02L265.304 108.129C266.194 107.493 266.703 107.239 267.466 106.984C267.721 106.857 268.102 106.73 268.357 106.603C273.317 104.44 278.404 102.914 283.746 102.15L283.873 103.168C278.658 103.931 273.571 105.458 268.738 107.493C268.357 107.62 268.102 107.748 267.848 107.875C267.212 108.384 266.703 108.511 265.94 109.02Z" fill="#FDEB20"/>
<path d="M261.489 119.324L261.107 118.433C266.449 116.271 272.299 115.253 278.15 115.38V116.398C272.426 116.271 266.703 117.288 261.489 119.324Z" fill="#FDEB20"/>
<path d="M257.292 131.918L256.783 131.027C261.997 127.974 267.975 126.32 273.953 126.193V127.211C268.102 127.338 262.252 128.992 257.292 131.918Z" fill="#FDEB20"/>
<path d="M266.449 108.384L265.431 108.256C266.067 102.914 265.813 97.5708 264.541 92.3551L265.558 92.1007C266.83 97.4436 267.212 102.914 266.449 108.384Z" fill="#FDEB20"/>
<path d="M260.98 118.561C259.708 113.472 257.292 108.511 254.112 104.313L254.875 103.677C258.182 108.002 260.598 112.963 261.997 118.306L260.98 118.561Z" fill="#FDEB20"/>
<path d="M256.147 131.79C256.147 130.264 255.893 128.865 255.384 127.465C254.748 125.812 253.858 124.158 253.095 122.758C252.459 121.614 251.823 120.596 251.06 119.451L251.95 118.942C252.586 120.087 253.349 121.105 253.985 122.25C254.875 123.776 255.765 125.43 256.401 127.084C256.91 128.61 257.164 130.137 257.164 131.79H256.147Z" fill="#FDEB20"/>
<path d="M240.631 148.073H265.94L261.489 173.516H245.082L240.631 148.073Z" fill="#FFBD00"/>
<path d="M237.431 148.125H269.099V141.002H237.431V148.125Z" fill="#FFD600"/>
<g opacity="0.1">
<path opacity="0.1" d="M265.431 151.508H241.139L240.631 148.073H265.94L265.431 151.508Z" fill="#231F20"/>
</g>
<path d="M274.207 182.929H4.96014C2.16211 182.929 0 180.767 0 178.222C0 175.551 2.16211 173.516 4.96014 173.516H274.207C277.005 173.516 279.167 175.678 279.167 178.222C279.167 180.894 277.005 182.929 274.207 182.929Z" fill="#00B8AB"/>
<path d="M64.1003 13.9932H54.0528C49.7286 13.9932 46.2947 17.5551 46.2947 21.753C46.2947 24.4245 47.6937 26.7143 49.7286 28.1136V33.5836L55.3247 29.5129H64.2275C68.5517 29.5129 71.9857 25.951 71.9857 21.753C71.8585 17.5551 68.4246 13.9932 64.1003 13.9932Z" fill="#00B8AB"/>
<path d="M53.4169 22.8979C54.049 22.8979 54.5615 22.3854 54.5615 21.7531C54.5615 21.1207 54.049 20.6082 53.4169 20.6082C52.7847 20.6082 52.2722 21.1207 52.2722 21.7531C52.2722 22.3854 52.7847 22.8979 53.4169 22.8979Z" fill="white"/>
<path d="M59.0131 22.8979C59.6452 22.8979 60.1577 22.3854 60.1577 21.7531C60.1577 21.1207 59.6452 20.6082 59.0131 20.6082C58.3809 20.6082 57.8684 21.1207 57.8684 21.7531C57.8684 22.3854 58.3809 22.8979 59.0131 22.8979Z" fill="white"/>
<path d="M64.7362 22.8979C65.3684 22.8979 65.8808 22.3854 65.8808 21.7531C65.8808 21.1207 65.3684 20.6082 64.7362 20.6082C64.104 20.6082 63.5916 21.1207 63.5916 21.7531C63.5916 22.3854 64.104 22.8979 64.7362 22.8979Z" fill="white"/>
<path d="M192.174 85.4857C190.647 82.8143 186.705 81.5422 182.889 85.8674C179.074 81.415 175.131 82.8143 173.605 85.4857C169.789 91.9735 182.889 99.7334 182.889 99.7334C182.889 99.7334 195.989 91.9735 192.174 85.4857Z" fill="#00B8AB"/>
<path d="M121.969 15.5197H114.211C110.014 15.5197 106.452 12.085 106.452 7.75986C106.452 3.5619 109.886 0 114.211 0H121.969C126.166 0 129.727 3.43469 129.727 7.75986C129.727 11.9578 126.293 15.5197 121.969 15.5197Z" fill="#00B8AB"/>
<path d="M118.153 11.1945C117.644 11.1945 117.136 11.0673 116.754 10.6857L106.579 0.890449L107.215 0.254395L117.39 10.0496C117.771 10.4313 118.535 10.4313 118.916 10.0496L129.091 0.254395L129.727 0.890449L119.552 10.6857C119.043 10.9401 118.662 11.1945 118.153 11.1945Z" fill="white"/>
<path d="M114.998 8.18828L106.628 14.6216L107.093 15.2268L115.463 8.79348L114.998 8.18828Z" fill="white"/>
<path d="M121.204 8.27828L120.74 8.88354L129.111 15.3158L129.575 14.7105L121.204 8.27828Z" fill="white"/>
<path d="M81.0156 75.8177H72.8759C67.7886 75.8177 63.5916 71.6197 63.5916 66.5313C63.5916 61.4428 67.7886 57.2449 72.8759 57.2449H81.0156C86.103 57.2449 90.3 61.4428 90.3 66.5313C90.3 71.6197 86.103 75.8177 81.0156 75.8177Z" fill="#00B8AB"/>
<path d="M76.9458 81.6694L81.6516 75.436H72.24L76.9458 81.6694Z" fill="#00B8AB"/>
<path d="M83.9409 68.9482H82.7962V65.7679V65.2591V64.7503C82.5418 65.0047 82.4147 65.1319 82.4147 65.1319L81.7788 65.6407L81.27 64.8775L83.0506 63.4781H83.9409V68.9482Z" fill="white"/>
<path d="M75.4197 63.2238H71.6042C69.9508 63.2238 68.679 64.4959 68.679 66.1496C68.679 67.1673 69.1877 68.0578 69.9508 68.5666V70.602L72.1129 69.0755H75.4197C77.073 69.0755 78.3449 67.8034 78.3449 66.1496C78.3449 64.6231 76.9459 63.2238 75.4197 63.2238Z" fill="white"/>
</svg>
