<svg width="22" height="24" viewBox="0 0 22 24" fill="none" xmlns="http://www.w3.org/2000/svg">
<path d="M20.4311 9.26829C19.8964 8.0065 19.1268 6.86829 18.1552 5.89919C17.177 4.92358 16.0423 4.1626 14.7772 3.62927C13.8185 3.22602 12.8143 2.96585 11.7774 2.85528V2.15285H12.5599C12.873 2.15285 13.1338 1.89919 13.1338 1.58049V0.572358C13.1338 0.260163 12.8795 0 12.5599 0H8.70588C8.39286 0 8.13201 0.253659 8.13201 0.572358V1.58699C8.13201 1.89919 8.38634 2.15935 8.70588 2.15935H9.48843V2.85528C8.45807 2.96585 7.4538 3.22602 6.48865 3.62927C5.22353 4.1626 4.08231 4.93008 3.11064 5.89919C2.13897 6.86829 1.36946 8.0065 0.834721 9.26829C0.280414 10.5756 0 11.961 0 13.3919C0 14.8228 0.280414 16.2146 0.834721 17.5219C1.36946 18.7837 2.13897 19.922 3.11064 20.8911C4.08883 21.8667 5.22353 22.6276 6.48865 23.161C7.80595 23.7203 9.19497 24 10.6297 24C12.0643 24 13.4599 23.7203 14.7706 23.1675C16.0358 22.6341 17.177 21.8667 18.1487 20.8976C19.1268 19.9219 19.8898 18.7902 20.4246 17.5285C20.9789 16.2211 21.2593 14.8293 21.2593 13.3984C21.2658 11.961 20.9854 10.5756 20.4311 9.26829ZM10.6297 22.1073C5.81044 22.1073 1.89116 18.1984 1.89116 13.3919C1.89116 8.58537 5.81044 4.67642 10.6297 4.67642C15.4489 4.67642 19.3681 8.58537 19.3681 13.3919C19.3747 18.1984 15.4489 22.1073 10.6297 22.1073Z" fill="#E96835"/>
<path d="M10.9751 5.86668C8.00791 5.85367 5.21029 7.6553 4.09515 10.5886C2.66047 14.361 4.56468 18.5886 8.34701 20.0195C12.1293 21.4504 16.3682 19.5512 17.8028 15.7789L10.949 13.1838L10.9751 5.86668Z" fill="#F6D64A"/>
</svg>
