<svg width="30" height="30" viewBox="0 0 30 30" fill="none" xmlns="http://www.w3.org/2000/svg">
<circle cx="15" cy="15" r="15" fill="#F47E16"/>
<path d="M7 9.59998H8.8H23.2" stroke="white" stroke-width="1.5" stroke-linecap="round" stroke-linejoin="round"/>
<path d="M21.4008 9.6V22.2C21.4008 22.6774 21.2111 23.1352 20.8736 23.4728C20.536 23.8104 20.0782 24 19.6008 24H10.6008C10.1234 24 9.66555 23.8104 9.32799 23.4728C8.99042 23.1352 8.80078 22.6774 8.80078 22.2V9.6H21.4008ZM11.5008 9.6V7.8C11.5008 7.32261 11.6904 6.86477 12.028 6.52721C12.3656 6.18964 12.8234 6 13.3008 6H16.9008C17.3782 6 17.836 6.18964 18.1736 6.52721C18.5111 6.86477 18.7008 7.32261 18.7008 7.8V9.6" fill="white"/>
<path d="M11.5008 9.6V7.8C11.5008 7.32261 11.6904 6.86477 12.028 6.52721C12.3656 6.18964 12.8234 6 13.3008 6H16.9008C17.3782 6 17.836 6.18964 18.1736 6.52721C18.5111 6.86477 18.7008 7.32261 18.7008 7.8V9.6M21.4008 9.6V22.2C21.4008 22.6774 21.2111 23.1352 20.8736 23.4728C20.536 23.8104 20.0782 24 19.6008 24H10.6008C10.1234 24 9.66555 23.8104 9.32799 23.4728C8.99042 23.1352 8.80078 22.6774 8.80078 22.2V9.6H21.4008Z" stroke="white" stroke-width="1.5" stroke-linecap="round" stroke-linejoin="round"/>
<path d="M13.3008 14.1V19.5" stroke="white" stroke-width="1.5" stroke-linecap="round" stroke-linejoin="round"/>
<path d="M16.8984 14.1V19.5" stroke="white" stroke-width="1.5" stroke-linecap="round" stroke-linejoin="round"/>
</svg>
