<svg width="24" height="24" viewBox="0 0 24 24" fill="none" xmlns="http://www.w3.org/2000/svg">
<path d="M4 6.59998H5.8H20.2" stroke="#F47E16" stroke-width="1.5" stroke-linecap="round" stroke-linejoin="round"/>
<path d="M8.49999 6.6V4.8C8.49999 4.32261 8.68963 3.86477 9.0272 3.52721C9.36476 3.18964 9.8226 3 10.3 3H13.9C14.3774 3 14.8352 3.18964 15.1728 3.52721C15.5103 3.86477 15.7 4.32261 15.7 4.8V6.6M18.4 6.6V19.2C18.4 19.6774 18.2103 20.1352 17.8728 20.4728C17.5352 20.8104 17.0774 21 16.6 21H7.59999C7.1226 21 6.66476 20.8104 6.3272 20.4728C5.98963 20.1352 5.79999 19.6774 5.79999 19.2V6.6H18.4Z" stroke="#F47E16" stroke-width="1.5" stroke-linecap="round" stroke-linejoin="round"/>
<path d="M10.3 11.1V16.5" stroke="#F47E16" stroke-width="1.5" stroke-linecap="round" stroke-linejoin="round"/>
<path d="M13.9 11.1V16.5" stroke="#F47E16" stroke-width="1.5" stroke-linecap="round" stroke-linejoin="round"/>
</svg>
