<svg width="18" height="18" viewBox="0 0 18 18" fill="none" xmlns="http://www.w3.org/2000/svg">
<rect x="0.1" y="0.1" width="17.8" height="17.8" rx="2.9" fill="white" stroke="#FF7700" stroke-width="0.2"/>
<path fill-rule="evenodd" clip-rule="evenodd" d="M3.375 4.27324C3.375 4.07703 3.53369 3.91797 3.72945 3.91797H14.2705C14.4663 3.91797 14.625 4.07703 14.625 4.27324C14.625 4.46946 14.4663 4.62852 14.2705 4.62852H3.72945C3.53369 4.62852 3.375 4.46946 3.375 4.27324Z" fill="#FF7700" stroke="#FF7700" stroke-width="0.5" stroke-miterlimit="10" stroke-linecap="round" stroke-linejoin="round"/>
<path fill-rule="evenodd" clip-rule="evenodd" d="M8.05626 2.96055C7.53079 2.96055 7.13469 3.35757 7.13469 3.88427V3.91825H10.8641V3.88427C10.8641 3.35757 10.468 2.96055 9.94256 2.96055H8.05626ZM6.42578 3.88427C6.42578 2.96515 7.13927 2.25 8.05626 2.25H9.94256C10.8596 2.25 11.573 2.96515 11.573 3.88427V4.27353C11.573 4.46974 11.4143 4.6288 11.2186 4.6288H6.78023C6.58447 4.6288 6.42578 4.46974 6.42578 4.27353V3.88427Z" fill="#FF7700" stroke="#FF7700" stroke-width="0.5" stroke-miterlimit="10" stroke-linecap="round" stroke-linejoin="round"/>
<path fill-rule="evenodd" clip-rule="evenodd" d="M7.5068 6.14258C7.70255 6.14258 7.86125 6.30164 7.86125 6.49785V13.1709C7.86125 13.3671 7.70255 13.5261 7.5068 13.5261C7.31104 13.5261 7.15234 13.3671 7.15234 13.1709V6.49785C7.15234 6.30164 7.31104 6.14258 7.5068 6.14258Z" fill="#FF7700" stroke="#FF7700" stroke-width="0.5" stroke-miterlimit="10" stroke-linecap="round" stroke-linejoin="round"/>
<path fill-rule="evenodd" clip-rule="evenodd" d="M10.5068 6.14258C10.7026 6.14258 10.8612 6.30164 10.8612 6.49785V13.1709C10.8612 13.3671 10.7026 13.5261 10.5068 13.5261C10.311 13.5261 10.1523 13.3671 10.1523 13.1709V6.49785C10.1523 6.30164 10.311 6.14258 10.5068 6.14258Z" fill="#FF7700" stroke="#FF7700" stroke-width="0.5" stroke-miterlimit="10" stroke-linecap="round" stroke-linejoin="round"/>
<path fill-rule="evenodd" clip-rule="evenodd" d="M4.30435 4.02872C4.37127 3.95801 4.46424 3.91797 4.56148 3.91797H13.4382C13.5354 3.91797 13.6284 3.95801 13.6953 4.02872C13.7623 4.09942 13.7973 4.19459 13.7922 4.29192L13.2933 13.7921C13.2877 14.8888 12.339 15.7502 11.2745 15.7502H6.72518C5.63786 15.7502 4.7734 14.8687 4.70704 13.8044L4.70682 13.8009L4.70684 13.8009L4.20752 4.29192C4.20241 4.19459 4.23742 4.09942 4.30435 4.02872ZM4.93508 4.62852L5.41466 13.7618C5.46005 14.4762 6.03769 15.0396 6.72518 15.0396H11.2745C11.9821 15.0396 12.5844 14.4604 12.5844 13.7823C12.5844 13.776 12.5846 13.7698 12.5849 13.7636L13.0646 4.62852H4.93508Z" fill="#FF7700" stroke="#FF7700" stroke-width="0.5" stroke-miterlimit="10" stroke-linecap="round" stroke-linejoin="round"/>
</svg>
