<svg width="18" height="18" viewBox="0 0 18 18" fill="none" xmlns="http://www.w3.org/2000/svg">
<path d="M3 4.9502H4.35H15.15" stroke="#F47E16" stroke-width="1.5" stroke-linecap="round" stroke-linejoin="round"/>
<path d="M13.8001 4.95V14.4C13.8001 14.758 13.6579 15.1014 13.4047 15.3546C13.1515 15.6078 12.8081 15.75 12.4501 15.75H5.7001C5.34206 15.75 4.99868 15.6078 4.7455 15.3546C4.49233 15.1014 4.3501 14.758 4.3501 14.4V4.95H13.8001ZM6.3751 4.95V3.6C6.3751 3.24196 6.51733 2.89858 6.7705 2.64541C7.02368 2.39223 7.36705 2.25 7.7251 2.25H10.4251C10.7831 2.25 11.1265 2.39223 11.3797 2.64541C11.6329 2.89858 11.7751 3.24196 11.7751 3.6V4.95" fill="white"/>
<path d="M6.3751 4.95V3.6C6.3751 3.24196 6.51733 2.89858 6.7705 2.64541C7.02368 2.39223 7.36705 2.25 7.7251 2.25H10.4251C10.7831 2.25 11.1265 2.39223 11.3797 2.64541C11.6329 2.89858 11.7751 3.24196 11.7751 3.6V4.95M13.8001 4.95V14.4C13.8001 14.758 13.6579 15.1014 13.4047 15.3546C13.1515 15.6078 12.8081 15.75 12.4501 15.75H5.7001C5.34206 15.75 4.99868 15.6078 4.7455 15.3546C4.49233 15.1014 4.3501 14.758 4.3501 14.4V4.95H13.8001Z" stroke="#F47E16" stroke-width="1.5" stroke-linecap="round" stroke-linejoin="round"/>
<path d="M7.7251 8.3252V12.3752" stroke="#F47E16" stroke-width="1.5" stroke-linecap="round" stroke-linejoin="round"/>
<path d="M10.4248 8.3252V12.3752" stroke="#F47E16" stroke-width="1.5" stroke-linecap="round" stroke-linejoin="round"/>
</svg>
