<svg width="18" height="18" viewBox="0 0 18 18" fill="none" xmlns="http://www.w3.org/2000/svg">
<path d="M3 4.94995H4.35H15.15" stroke="#F47E16" stroke-linecap="round" stroke-linejoin="round"/>
<path d="M6.37497 4.95V3.6C6.37497 3.24196 6.51721 2.89858 6.77038 2.64541C7.02355 2.39223 7.36693 2.25 7.72497 2.25H10.425C10.783 2.25 11.1264 2.39223 11.3796 2.64541C11.6327 2.89858 11.775 3.24196 11.775 3.6V4.95M13.8 4.95V14.4C13.8 14.758 13.6577 15.1014 13.4046 15.3546C13.1514 15.6078 12.808 15.75 12.45 15.75H5.69998C5.34193 15.75 4.99856 15.6078 4.74538 15.3546C4.49221 15.1014 4.34998 14.758 4.34998 14.4V4.95H13.8Z" stroke="#F47E16" stroke-linecap="round" stroke-linejoin="round"/>
<path d="M7.72498 8.32495V12.3749" stroke="#F47E16" stroke-linecap="round" stroke-linejoin="round"/>
<path d="M10.425 8.32495V12.3749" stroke="#F47E16" stroke-linecap="round" stroke-linejoin="round"/>
</svg>
