<svg width="18" height="18" viewBox="0 0 18 18" fill="none" xmlns="http://www.w3.org/2000/svg">
<rect x="0.1" y="0.1" width="17.8" height="17.8" rx="2.9" fill="white" stroke="#FF7700" stroke-width="0.2"/>
<path d="M6.04412 8.42837C5.86765 8.2519 5.86765 7.98719 6.04412 7.81072C6.22059 7.63425 6.48529 7.63425 6.66176 7.81072L8.51471 9.66366V2.95778C8.51471 2.69307 8.69118 2.5166 8.95588 2.5166C9.22059 2.5166 9.39706 2.69307 9.39706 2.95778V9.66366L11.25 7.81072C11.4265 7.63425 11.6912 7.63425 11.8676 7.81072C12.0441 7.98719 12.0441 8.2519 11.8676 8.42837L9.22059 11.0754C9.13235 11.0754 9.04412 11.1637 8.95588 11.1637C8.86765 11.1637 8.77941 11.1637 8.69118 11.0754L6.04412 8.42837ZM14.8676 10.9872C14.8676 10.7225 15.0441 10.546 15.3088 10.546C15.5735 10.546 15.75 10.7225 15.75 10.9872V13.4578C15.75 13.9872 15.4853 14.5166 15.1324 14.8695C14.7794 15.2225 14.25 15.4872 13.7206 15.4872H4.27941C3.75 15.4872 3.22059 15.2225 2.86765 14.8695C2.51471 14.5166 2.25 13.9872 2.25 13.4578V10.9872C2.25 10.7225 2.42647 10.546 2.69118 10.546C2.95588 10.546 3.13235 10.7225 3.13235 10.9872V13.4578C3.13235 13.8107 3.30882 14.0754 3.48529 14.2519C3.66176 14.4284 4.01471 14.6048 4.27941 14.6048H13.6324C13.9853 14.6048 14.25 14.4284 14.4265 14.2519C14.6029 14.0754 14.7794 13.7225 14.7794 13.4578V10.9872H14.8676Z" fill="#FF7700" stroke="#FF7700" stroke-width="0.5"/>
</svg>
