<svg width="24" height="24" viewBox="0 0 24 24" fill="none" xmlns="http://www.w3.org/2000/svg">
<path d="M11.0512 4.89771H4.78915C4.31464 4.89771 3.85956 5.0862 3.52403 5.42173C3.1885 5.75726 3 6.21234 3 6.68685V19.2109C3 19.6854 3.1885 20.1405 3.52403 20.476C3.85956 20.8115 4.31464 21 4.78915 21H17.3132C17.7877 21 18.2428 20.8115 18.5783 20.476C18.9138 20.1405 19.1023 19.6854 19.1023 19.2109V12.9489" stroke="#F47E16" stroke-width="1.5" stroke-linecap="round" stroke-linejoin="round"/>
<path d="M17.7605 3.55582C18.1163 3.19993 18.599 3 19.1023 3C19.6056 3 20.0883 3.19993 20.4442 3.55582C20.8001 3.9117 21 4.39438 21 4.89768C21 5.40097 20.8001 5.88365 20.4442 6.23954L11.9457 14.738L8.36743 15.6326L9.26201 12.0543L17.7605 3.55582Z" stroke="#F47E16" stroke-width="1.5" stroke-linecap="round" stroke-linejoin="round"/>
</svg>
