<svg width="18" height="18" viewBox="0 0 18 18" fill="none" xmlns="http://www.w3.org/2000/svg">
<path d="M12.4626 2.81403C12.6414 2.63521 12.8537 2.49336 13.0874 2.39659C13.321 2.29981 13.5714 2.25 13.8243 2.25C14.0772 2.25 14.3276 2.29981 14.5612 2.39659C14.7949 2.49336 15.0072 2.63521 15.186 2.81403C15.3648 2.99285 15.5066 3.20513 15.6034 3.43877C15.7002 3.67241 15.75 3.92282 15.75 4.17571C15.75 4.4286 15.7002 4.67901 15.6034 4.91265C15.5066 5.14628 15.3648 5.35857 15.186 5.53739L5.99462 14.7287L2.25 15.75L3.27126 12.0054L12.4626 2.81403Z" fill="#0D352D"/>
</svg>
