<svg width="18" height="18" viewBox="0 0 18 18" fill="none" xmlns="http://www.w3.org/2000/svg">
<path d="M9.71163 3.67326H14.4081C14.764 3.67326 15.1053 3.81464 15.357 4.06629C15.6086 4.31793 15.75 4.65924 15.75 5.01512V14.4081C15.75 14.764 15.6086 15.1053 15.357 15.357C15.1053 15.6086 14.764 15.75 14.4081 15.75H5.01512C4.65923 15.75 4.31793 15.6086 4.06628 15.357C3.81463 15.1053 3.67326 14.764 3.67326 14.4081V9.71164" stroke="#F47E16" stroke-width="1.5" stroke-linecap="round" stroke-linejoin="round"/>
<path d="M4.6796 2.66686C4.41269 2.39995 4.05068 2.25 3.6732 2.25C3.29573 2.25 2.93372 2.39995 2.66681 2.66686C2.3999 2.93378 2.24995 3.29579 2.24995 3.67326C2.24995 4.05073 2.3999 4.41274 2.66681 4.67965L9.04064 11.0535L11.7244 11.7244L11.0534 9.0407L4.6796 2.66686Z" stroke="#F47E16" stroke-width="1.5" stroke-linecap="round" stroke-linejoin="round"/>
</svg>
