<svg width="24" height="24" viewBox="0 0 24 24" fill="none" xmlns="http://www.w3.org/2000/svg">
<path d="M16.625 3H5V21H16.625C17.45 21 18.125 20.325 18.125 19.5V4.5C18.125 3.675 17.45 3 16.625 3ZM7.25 15C7.2875 12.6375 8.3375 12.675 9.4625 12.3C10.175 12.075 10.55 11.8875 10.55 11.4C10.55 10.6875 9.725 10.4625 9.725 9.1875C9.725 8.1375 10.4 7.5 11.375 7.5C12.35 7.5 13.025 8.1375 13.025 9.1875C13.025 10.425 12.2 10.65 12.2 11.4C12.2 11.8875 12.575 12.075 13.2875 12.3C14.4125 12.675 15.4625 12.6375 15.5 15H7.25Z" stroke="#4DB6AC" stroke-miterlimit="10"/>
</svg>
