<svg width="25" height="24" viewBox="0 0 25 24" fill="none" xmlns="http://www.w3.org/2000/svg">
<path fill-rule="evenodd" clip-rule="evenodd" d="M13.4891 15.9594V10.2168H10.6938C10.5687 10.2168 10.4673 10.2813 10.4673 10.3608V11.394C10.4673 11.4736 10.5687 11.5381 10.6938 11.5381H11.172V15.9594H10.5995C10.4744 15.9594 10.373 16.0239 10.373 16.1034V17.0349C10.373 17.1145 10.4744 17.179 10.5995 17.179H14.0616C14.1867 17.179 14.288 17.1145 14.288 17.0349V16.1034C14.288 16.0239 14.1867 15.9594 14.0616 15.9594H13.4891Z" fill="#FF0000"/>
<path fill-rule="evenodd" clip-rule="evenodd" d="M13.5295 8.16902C13.5295 8.91386 12.9243 9.5177 12.1778 9.5177C11.4313 9.5177 10.8262 8.91386 10.8262 8.16902C10.8262 7.42415 11.4313 6.82031 12.1778 6.82031C12.9243 6.82031 13.5295 7.42415 13.5295 8.16902Z" fill="#FF0000"/>
<path fill-rule="evenodd" clip-rule="evenodd" d="M12.3276 19.7543C7.9343 19.7543 4.36007 16.2759 4.36007 12.0004C4.36007 7.72495 7.9343 4.24658 12.3276 4.24658C16.7209 4.24658 20.2952 7.72495 20.2952 12.0004C20.2952 16.2759 16.7209 19.7543 12.3276 19.7543ZM12.331 3C7.22347 3 3.08301 7.02942 3.08301 12C3.08301 16.9705 7.22347 21 12.331 21C17.4386 21 21.5791 16.9705 21.5791 12C21.5791 7.02942 17.4386 3 12.331 3Z" fill="#FF0000"/>
</svg>
