<svg width="23" height="20" viewBox="0 0 23 20" fill="none" xmlns="http://www.w3.org/2000/svg">
<path fill-rule="evenodd" clip-rule="evenodd" d="M8.8223 1.55386C10.0062 -0.517954 12.8749 -0.517954 14.0588 1.55386L14.0648 1.56432L22.5647 16.8644C22.5717 16.877 22.5785 16.8898 22.585 16.9028C22.9224 17.5777 22.7833 18.3026 22.4592 18.8119C22.1331 19.3244 21.5388 19.75 20.7905 19.75H1.99054C0.584876 19.75 -0.416215 18.3272 0.171395 16.9561C0.185473 16.9232 0.201302 16.8912 0.218813 16.86L8.8223 1.55386ZM10.5603 2.54349C10.5598 2.54437 10.5593 2.54525 10.5588 2.54614L2.01285 17.75H20.7629C20.7641 17.7487 20.7653 17.7473 20.7665 17.7458L12.3197 2.54167C11.9029 1.81884 10.9763 1.81944 10.5603 2.54349Z" fill="#EB4747"/>
<path fill-rule="evenodd" clip-rule="evenodd" d="M11.502 5.55005C12.0542 5.55005 12.502 5.99776 12.502 6.55005L12.502 12.55C12.502 13.1023 12.0542 13.55 11.502 13.55C10.9497 13.55 10.502 13.1023 10.502 12.55L10.502 6.55005C10.502 5.99776 10.9497 5.55005 11.502 5.55005Z" fill="#EB4747"/>
<path d="M11.502 16.55C12.0542 16.55 12.502 16.1023 12.502 15.55C12.502 14.9978 12.0542 14.55 11.502 14.55C10.9497 14.55 10.502 14.9978 10.502 15.55C10.502 16.1023 10.9497 16.55 11.502 16.55Z" fill="#EB4747"/>
</svg>
