<svg width="19" height="24" viewBox="0 0 19 24" fill="none" xmlns="http://www.w3.org/2000/svg">
<path d="M18.9277 5.05664V23.1397C18.9277 23.6227 18.5057 24 17.9933 24H0.934327C0.648001 24 0.391814 23.8793 0.226047 23.6982C0.0904187 23.5472 0 23.351 0 23.1397V0.875514C0 0.392495 0.421954 0.0151367 0.934327 0.0151367H13.5176C13.6834 0.0151367 13.8341 0.0604196 13.9848 0.120797L15.9288 1.87174L18.6263 4.39249C18.8071 4.57363 18.9277 4.81514 18.9277 5.05664Z" fill="#66CCC3"/>
<path d="M18.9296 5.0566H13.5195V0C13.6853 0 13.836 0.0452828 13.9867 0.10566C14.062 0.150943 14.1525 0.196226 14.2127 0.256603L15.9307 1.8717L18.6282 4.39245C18.809 4.57358 18.9296 4.81509 18.9296 5.0566Z" fill="#2B9F91"/>
<path opacity="0.4" d="M0.934327 0C0.421954 0 0 0.377358 0 0.830188V16.0604H7.80615C9.13229 16.0604 10.2022 14.9887 10.2022 13.6604V0H0.934327Z" fill="#2B9F91"/>
<path d="M15.0103 11.6226H3.51203C3.43668 11.6226 3.36133 11.5472 3.36133 11.4717V10.6264C3.36133 10.5358 3.42161 10.4755 3.51203 10.4755H14.9952C15.0706 10.4755 15.1459 10.5509 15.1459 10.6264V11.4717C15.1459 11.5472 15.0856 11.6226 15.0103 11.6226Z" fill="white"/>
<path d="M11.2113 7.72835H3.55584C3.45035 7.72835 3.375 7.65288 3.375 7.5774V6.73212C3.375 6.64155 3.45035 6.58118 3.55584 6.58118H11.2264C11.3318 6.58118 11.4072 6.65665 11.4072 6.73212V7.5774C11.3921 7.65288 11.3168 7.72835 11.2113 7.72835Z" fill="white"/>
<path d="M9.49389 15.4265H3.57146C3.46597 15.4265 3.39062 15.351 3.39062 15.2755V14.4302C3.39062 14.3397 3.46597 14.2793 3.57146 14.2793H9.49389C9.59938 14.2793 9.67473 14.3548 9.67473 14.4302V15.2755C9.67473 15.351 9.58431 15.4265 9.49389 15.4265Z" fill="white"/>
<path d="M16.2767 15.4265H10.8215C10.716 15.4265 10.6406 15.351 10.6406 15.2755V14.4302C10.6406 14.3397 10.716 14.2793 10.8215 14.2793H16.2767C16.3822 14.2793 16.4576 14.3548 16.4576 14.4302V15.2755C16.4726 15.351 16.3822 15.4265 16.2767 15.4265Z" fill="white"/>
<path d="M16.8628 19.2152H13.7433C13.6378 19.2152 13.5625 19.1397 13.5625 19.0642V18.2189C13.5625 18.1284 13.6378 18.068 13.7433 18.068H16.8628C16.9683 18.068 17.0436 18.1435 17.0436 18.2189V19.0642C17.0436 19.1397 16.9532 19.2152 16.8628 19.2152Z" fill="white"/>
<path d="M12.5542 19.2152H3.57257C3.49722 19.2152 3.42188 19.1397 3.42188 19.0642V18.2189C3.42188 18.1284 3.48215 18.068 3.57257 18.068H12.5542C12.6295 18.068 12.7049 18.1435 12.7049 18.2189V19.0642C12.7049 19.1397 12.6295 19.2152 12.5542 19.2152Z" fill="white"/>
</svg>
