<svg width="18" height="18" viewBox="0 0 18 18" fill="none" xmlns="http://www.w3.org/2000/svg">
<rect x="0.1" y="0.1" width="17.8" height="17.8" rx="2.9" fill="white" stroke="#FF7700" stroke-width="0.2"/>
<path d="M11.25 4.16204C11.0625 3.97685 11.0625 3.69907 11.25 3.51389C11.4375 3.3287 11.7188 3.3287 11.9063 3.51389L15.5625 7.125C15.6563 7.21759 15.75 7.31018 15.75 7.49537C15.75 7.58796 15.75 7.68056 15.6563 7.68056C15.6563 7.68056 15.6563 7.68056 15.6563 7.77315L12 11.3843C11.8125 11.5694 11.5313 11.5694 11.3438 11.3843C11.1563 11.1991 11.1563 10.9213 11.3438 10.7361L14.25 7.86574L4.59375 7.86574C4.21875 7.86574 3.84375 8.05093 3.5625 8.23611C3.28125 8.51389 3.1875 8.79167 3.1875 9.25463L3.1875 14.162C3.1875 14.4398 3 14.625 2.71875 14.625C2.4375 14.625 2.25 14.4398 2.25 14.162L2.25 9.34722C2.25 8.69908 2.53125 8.14352 2.90625 7.68056C3.375 7.21759 3.9375 7.03241 4.59375 7.03241L14.1563 7.03241L11.25 4.16204Z" fill="#FF7700" stroke="#FF7700" stroke-width="0.5"/>
</svg>
