<svg width="69" height="19" viewBox="0 0 69 19" fill="none" xmlns="http://www.w3.org/2000/svg">
<path d="M4.75876 5.28105C4.75876 7.81115 4.75876 10.3413 4.75876 12.8714C4.75876 13.819 5.32252 17.4204 4.30952 17.9066C3.07696 18.4982 2.13611 17.2768 1.76382 16.25C0.836217 13.6916 1.05186 10.4615 1.89485 7.92034C2.22646 6.92069 3.0478 4.51054 4.30016 4.24217C6.64076 3.74062 7.91706 8.39742 8.43693 9.89513C9.04392 11.6439 9.52163 13.4547 9.80337 15.286C9.84668 15.5676 10.4791 13.9977 10.7767 13.6575C13.0989 11.0037 16.6805 10.1706 20.0704 10.0355C21.0398 9.9969 21.9561 10.0575 22.7659 10.6345C22.8636 10.7042 23.5059 11.1648 23.2713 11.3832C22.4829 12.1173 20.5856 11.437 19.8832 10.9059C18.5941 9.93121 18.5482 9.081 20.2763 8.76267C21.7473 8.4917 23.2785 8.47763 24.7687 8.48189C26.2278 8.48606 28.1115 8.36155 29.4109 9.19319C30.0478 9.6008 30.5103 10.428 30.4217 11.1961C30.3196 12.0806 29.2771 12.3061 28.5686 12.4502C26.7938 12.8112 24.2922 12.7808 24.1697 10.3725C24.0292 7.60792 28.8781 7.33371 30.665 7.30263C30.8133 7.30005 33.9215 7.43969 33.8752 7.55533C33.8113 7.71518 33.3166 7.63079 33.2201 7.61149C32.6032 7.4881 32.4153 6.95518 32.4807 6.36671C32.8397 3.13569 36.9757 1.72435 39.6873 1.38762C41.7333 1.13354 44.3753 1.41674 44.8161 3.85845C44.8646 4.12677 44.8536 4.90734 44.8536 4.17666C44.8536 3.03761 46.6904 3.47193 47.1934 3.99884C47.5522 4.37475 48.6725 6.30907 47.7736 6.69429C46.3906 7.28702 47.0261 4.25354 47.3525 3.78357C48.7747 1.73563 52.9931 1.40831 55.13 2.30482C55.8334 2.59992 57.7992 5.11724 56.8334 5.91747C56.1677 6.46905 55.6479 5.91777 55.5699 5.26233C55.3684 3.57026 58.0402 3.57317 59.1732 3.88652C60.0164 4.11976 60.114 5.77166 59.4539 6.2544C58.8254 6.71405 57.0434 7.47001 57.9003 5.91747C59.8278 2.42539 63.9943 0.90094 67.7649 0.90094" stroke="black" stroke-linecap="round" stroke-linejoin="round"/>
</svg>
