<svg width="250" height="196" viewBox="0 0 250 196" fill="none" xmlns="http://www.w3.org/2000/svg">
<g clip-path="url(#clip0)">
<path d="M231.273 86.5045C225.988 86.5045 221.737 82.2652 221.737 76.9947C221.737 71.8388 225.873 67.5995 231.158 67.4849C222.197 40.5597 196.691 21.0819 166.705 21.0819C154.297 21.0819 142.808 24.4046 132.812 30.1333C120.175 11.9158 99.2646 0 75.4824 0C57.7894 0 41.7049 6.5308 29.5266 17.4155C31.3648 19.3632 32.6286 21.9985 32.6286 24.8629C32.6286 30.8208 27.8032 35.633 21.829 35.633C19.6461 35.633 17.578 34.9455 15.9696 33.9143C9.88043 44.2261 6.31885 56.2565 6.31885 69.089C6.31885 95.5559 21.2545 118.586 43.1984 130.158H220.473C229.32 118.7 234.605 104.378 234.605 88.796C234.605 87.8794 234.605 86.8482 234.49 85.9316C233.456 86.2753 232.422 86.5045 231.273 86.5045Z" fill="#DBF2F0"/>
<path d="M3.56158 100.368C9.30607 100.368 14.0165 105.066 14.0165 110.794C14.0165 116.523 9.42096 121.106 3.79136 121.221C13.6719 150.781 41.5901 171.978 74.4485 171.978C88.0055 171.978 100.643 168.426 111.558 162.124C125.23 181.946 148.208 195.007 174.173 195.007C193.474 195.007 211.167 187.789 224.494 175.988C222.426 173.925 221.163 170.946 221.163 167.738C221.163 161.207 226.448 155.937 232.996 155.937C235.409 155.937 237.592 156.624 239.43 157.885C246.094 146.542 250 133.366 250 119.273C250 90.2853 233.571 65.0787 209.559 52.3608H15.3952C5.74449 65.0787 0 80.7755 0 97.8473C0 98.8785 0 99.9096 0.11489 100.941C1.1489 100.597 2.29779 100.368 3.56158 100.368Z" fill="#DBF2F0"/>
<path d="M84.1 119.961C85.8234 119.961 87.5467 119.961 89.1552 119.961C89.0403 132.335 90.419 143.907 91.1083 156.167C89.385 156.281 87.6616 156.281 85.9383 156.396C85.3638 144.022 83.9851 132.335 84.1 119.961Z" fill="#FEF075"/>
<path d="M91.7975 120.076C93.1762 119.961 94.5549 119.961 95.9335 119.961C96.6229 131.418 93.7506 142.532 97.1973 153.302C95.8187 153.646 94.5549 154.104 93.1762 154.448C89.2699 143.793 92.6018 131.533 91.7975 120.076Z" fill="#FEF075"/>
<path d="M99.0357 119.961C100.414 119.961 101.793 119.961 103.172 119.846C103.402 133.022 102.138 144.022 99.4953 156.969C98.1166 156.739 96.8528 156.625 95.4741 156.396C97.7719 143.563 99.1506 133.022 99.0357 119.961Z" fill="#FEF075"/>
<path d="M106.848 119.731C108.227 120.075 109.491 120.075 110.869 120.304C107.078 136.918 106.963 137.949 110.869 154.562C109.491 154.906 108.112 155.021 106.848 155.25C102.942 138.522 103.057 136.574 106.848 119.731Z" fill="#FEF075"/>
<path d="M113.167 120.075C114.546 120.075 115.924 120.075 117.303 120.075C116.958 133.481 119.141 139.095 111.214 151.24C110.065 150.667 108.916 149.979 107.767 149.407C115.12 138.064 112.822 132.678 113.167 120.075Z" fill="#FEF075"/>
<path d="M119.601 120.075C120.979 119.961 122.358 119.961 123.737 119.846C125.23 133.595 119.715 141.272 126.609 153.531C125.345 154.104 124.196 154.563 122.932 155.135C115.465 141.845 121.209 134.512 119.601 120.075Z" fill="#FEF075"/>
<path d="M128.103 120.19C129.367 120.534 130.746 120.877 132.009 121.107C127.069 135.314 138.673 139.095 125.805 149.865C124.886 149.063 123.852 148.146 122.933 147.344C134.077 137.949 123.163 134.512 128.103 120.19Z" fill="#FEF075"/>
<path d="M130.976 120.19C132.354 119.961 133.618 119.846 134.997 119.617C137.409 133.137 138.558 141.043 135.801 154.677C134.422 154.448 133.158 154.219 131.78 153.99C134.537 140.814 133.273 133.252 130.976 120.19Z" fill="#FEF075"/>
<path d="M140.741 120.075C142.12 119.961 143.498 119.846 144.877 119.846C145.681 133.481 147.52 139.782 141.545 152.844C140.281 152.386 139.018 151.927 137.754 151.354C143.384 138.98 141.545 133.022 140.741 120.075Z" fill="#FEF075"/>
<path d="M149.932 117.555C151.311 117.784 152.574 118.013 153.953 118.357C150.277 133.939 150.277 140.928 152.23 156.625C150.851 156.739 149.472 156.969 148.209 157.083C146.14 141.043 146.026 133.366 149.932 117.555Z" fill="#FEF075"/>
<path d="M157.745 120.648C158.779 121.336 159.813 122.138 160.732 122.825C144.992 137.72 170.268 134.856 155.677 153.073C154.528 152.386 153.379 151.584 152.345 150.896C164.638 135.429 139.477 135.887 157.745 120.648Z" fill="#FEF075"/>
<path d="M161.651 113.659C162.915 114.117 164.293 114.461 165.557 114.92C162.57 123.513 160.042 142.876 169.923 147.917C169.234 148.948 168.429 149.865 167.74 150.896C155.562 144.595 158.204 122.825 161.651 113.659Z" fill="#FEF075"/>
<path d="M170.957 120.419C172.221 120.992 173.37 121.565 174.634 122.138C164.064 136.689 175.782 142.303 166.476 156.396C165.327 155.708 164.179 155.135 163.145 154.448C171.531 141.73 160.272 135.314 170.957 120.419Z" fill="#FEF075"/>
<path d="M182.331 120.305C175.667 137.033 177.276 138.064 181.527 154.792C179.918 155.136 178.195 155.365 176.586 155.708C172.221 138.751 170.268 135.887 177.506 118.93C179.114 119.273 180.723 119.846 182.331 120.305Z" fill="#FEF075"/>
<path d="M82.6064 118.013C84.3297 118.013 86.0531 118.013 87.6615 118.013C87.5466 130.387 88.9253 141.959 89.6146 154.219C87.8913 154.333 86.1679 154.333 84.4446 154.448C83.8702 142.074 82.4915 130.501 82.6064 118.013Z" fill="white"/>
<path d="M90.3039 118.127C91.6825 118.013 93.0612 118.013 94.4399 118.013C95.1292 129.47 92.257 140.584 95.7037 151.354C94.325 151.698 93.0612 152.156 91.6825 152.5C87.7763 141.844 91.1081 129.699 90.3039 118.127Z" fill="white"/>
<path d="M97.542 118.013C98.9207 118.013 100.299 118.013 101.678 117.898C101.908 131.074 100.644 142.073 98.0016 155.02C96.6229 154.791 95.3591 154.677 93.9805 154.448C96.2783 141.615 97.6569 131.074 97.542 118.013Z" fill="white"/>
<path d="M105.355 117.784C106.733 118.127 107.997 118.127 109.376 118.357C105.584 134.97 105.469 136.001 109.376 152.615C107.997 152.958 106.618 153.073 105.355 153.302C101.448 136.574 101.563 134.626 105.355 117.784Z" fill="white"/>
<path d="M111.673 118.127C113.052 118.127 114.431 118.127 115.809 118.127C115.465 131.533 117.648 137.147 109.72 149.292C108.571 148.719 107.422 148.032 106.273 147.459C113.511 136.23 111.214 130.731 111.673 118.127Z" fill="white"/>
<path d="M118.107 118.242C119.486 118.127 120.864 118.127 122.243 118.013C123.736 131.762 118.222 139.438 125.115 151.698C123.851 152.271 122.702 152.729 121.439 153.302C113.971 139.897 119.715 132.564 118.107 118.242Z" fill="white"/>
<path d="M126.609 118.242C127.873 118.586 129.252 118.93 130.516 119.159C125.575 133.366 137.179 137.147 124.312 147.917C123.393 147.115 122.359 146.199 121.439 145.397C132.584 136.116 121.669 132.564 126.609 118.242Z" fill="white"/>
<path d="M129.482 118.242C130.861 118.013 132.124 117.898 133.503 117.669C135.916 131.189 137.065 139.095 134.307 152.729C132.929 152.5 131.665 152.271 130.286 152.042C133.043 138.865 131.78 131.303 129.482 118.242Z" fill="white"/>
<path d="M139.247 118.127C140.626 118.013 142.005 117.898 143.383 117.898C144.188 131.532 146.026 137.834 140.052 150.896C138.788 150.437 137.524 149.979 136.26 149.406C141.89 137.032 139.937 131.189 139.247 118.127Z" fill="white"/>
<path d="M148.438 115.606C149.817 115.836 151.081 116.065 152.459 116.408C148.783 131.991 148.783 138.98 150.736 154.677C149.357 154.791 147.979 155.02 146.715 155.135C144.647 139.094 144.532 131.532 148.438 115.606Z" fill="white"/>
<path d="M156.251 118.815C157.285 119.502 158.319 120.304 159.238 120.992C143.498 135.887 168.774 133.022 154.183 151.24C153.034 150.552 151.885 149.75 150.851 149.063C163.145 133.481 137.984 133.939 156.251 118.815Z" fill="white"/>
<path d="M160.157 111.826C161.421 112.284 162.8 112.628 164.063 113.086C161.076 121.679 158.549 141.042 168.429 146.084C167.74 147.115 166.936 148.032 166.246 149.063C154.068 142.646 156.71 120.877 160.157 111.826Z" fill="white"/>
<path d="M169.463 118.585C170.727 119.158 171.876 119.731 173.14 120.304C162.57 134.855 174.289 140.469 164.983 154.562C163.834 153.875 162.685 153.302 161.651 152.614C170.038 139.896 158.779 133.366 169.463 118.585Z" fill="white"/>
<path d="M180.837 118.356C174.174 135.084 175.782 136.116 180.033 152.844C178.425 153.187 176.701 153.416 175.093 153.76C170.727 136.803 168.774 133.939 176.012 116.981C177.62 117.325 179.229 117.898 180.837 118.356Z" fill="white"/>
<path d="M177.964 123.398H85.5931C73.185 123.398 63.0747 113.315 63.0747 100.941C63.0747 88.567 73.185 78.4844 85.5931 78.4844H178.079C190.487 78.4844 200.598 88.567 200.598 100.941C200.483 113.315 190.372 123.398 177.964 123.398Z" fill="#007C6B"/>
<path d="M184.054 123.398H79.5039C70.4276 123.398 63.0747 116.065 63.0747 107.014C63.0747 97.9622 70.4276 90.6294 79.5039 90.6294H184.168C193.245 90.6294 200.598 97.9622 200.598 107.014C200.483 116.065 193.13 123.398 184.054 123.398Z" fill="#009887"/>
<path d="M180.377 86.2758H83.1805C82.1465 86.2758 81.3423 85.4738 81.3423 84.4426C81.3423 83.4114 82.1465 82.6094 83.1805 82.6094H180.377C181.411 82.6094 182.215 83.4114 182.215 84.4426C182.215 85.3592 181.411 86.2758 180.377 86.2758Z" fill="#006B5C"/>
<path d="M180.262 37.4663H83.2949V84.9005H180.262V37.4663Z" fill="white"/>
<path d="M135.685 102.545C136.764 102.545 137.638 101.673 137.638 100.597C137.638 99.5215 136.764 98.6494 135.685 98.6494C134.606 98.6494 133.732 99.5215 133.732 100.597C133.732 101.673 134.606 102.545 135.685 102.545Z" fill="white"/>
<path opacity="0.8" d="M133.043 99.4516C133.043 100.139 132.354 100.712 131.665 100.712C130.975 100.712 130.401 100.024 130.401 99.337C130.401 98.6495 131.09 98.0767 131.78 98.0767C132.469 98.1912 133.043 98.7641 133.043 99.4516Z" fill="white"/>
<path opacity="0.6" d="M128.562 99.7953C128.907 100.368 128.677 101.056 128.103 101.285C127.528 101.628 126.839 101.399 126.609 100.826C126.265 100.254 126.494 99.5661 127.069 99.337C127.643 99.1078 128.333 99.337 128.562 99.7953Z" fill="white"/>
<path opacity="0.4" d="M125.001 102.431C125.46 102.66 125.575 103.347 125.346 103.806C125.116 104.264 124.426 104.378 123.967 104.149C123.507 103.92 123.392 103.233 123.622 102.774C123.967 102.316 124.541 102.087 125.001 102.431Z" fill="white"/>
<path opacity="0.12" d="M123.392 106.555C123.852 106.555 124.081 106.899 124.081 107.357C124.081 107.816 123.737 108.045 123.277 108.045C122.818 108.045 122.588 107.701 122.588 107.243C122.588 106.785 122.933 106.441 123.392 106.555Z" fill="white"/>
<path d="M127.758 115.263C128.837 115.263 129.711 114.391 129.711 113.315C129.711 112.24 128.837 111.368 127.758 111.368C126.68 111.368 125.805 112.24 125.805 113.315C125.805 114.391 126.68 115.263 127.758 115.263Z" fill="white"/>
<path opacity="0.8" d="M130.516 114.461C130.516 113.774 131.205 113.201 131.894 113.201C132.584 113.201 133.158 113.888 133.158 114.576C133.158 115.263 132.469 115.836 131.779 115.836C131.09 115.836 130.516 115.263 130.516 114.461Z" fill="white"/>
<path opacity="0.6" d="M134.881 114.117C134.536 113.544 134.766 112.857 135.34 112.628C135.915 112.284 136.604 112.513 136.834 113.086C137.178 113.659 136.949 114.346 136.374 114.576C135.915 114.919 135.225 114.69 134.881 114.117Z" fill="white"/>
<path opacity="0.4" d="M138.443 111.597C137.983 111.368 137.869 110.68 138.098 110.222C138.328 109.764 139.017 109.649 139.477 109.878C139.937 110.107 140.051 110.795 139.822 111.253C139.477 111.711 138.903 111.826 138.443 111.597Z" fill="white"/>
<path opacity="0.12" d="M140.165 107.472C139.706 107.472 139.476 107.128 139.476 106.67C139.476 106.212 139.821 105.982 140.28 105.982C140.74 105.982 140.97 106.326 140.97 106.784C140.97 107.128 140.625 107.472 140.165 107.472Z" fill="white"/>
</g>
<defs>
<clipPath id="clip0">
<rect width="250" height="195.122" fill="white"/>
</clipPath>
</defs>
</svg>
