<svg width="30" height="36" viewBox="0 0 30 36" fill="none" xmlns="http://www.w3.org/2000/svg">
<path d="M4.09766 5.28992H5.56107C5.92692 5.28992 6.29277 5.43686 6.51228 5.65726C6.73179 5.87767 6.87813 6.17155 6.87813 6.5389C6.87813 6.7593 6.80497 6.97971 6.7318 7.20012C6.58545 7.42053 6.43912 7.56747 6.2196 7.71441C6.00009 7.78788 5.78058 7.86135 5.63423 7.86135H5.12204V9.55114H4.244V5.28992H4.09766ZM4.9757 6.09808V7.20012H5.34156C5.4879 7.20012 5.63424 7.12665 5.70741 7.05318C5.78058 6.97971 5.85375 6.83277 5.85375 6.68584C5.85375 6.5389 5.78058 6.39196 5.63423 6.31849C5.48789 6.24502 5.34155 6.17155 5.12204 6.17155L4.9757 6.09808Z" fill="white"/>
<path d="M3.65889 35.6329C1.82963 35.6329 0.366211 34.1635 0.366211 32.3268V4.40842C0.366211 2.57168 1.82963 1.10229 3.65889 1.10229H21.0735L28.9028 8.96352V32.3268C28.9028 34.1635 27.4394 35.6329 25.6101 35.6329H3.65889Z" fill="#F6F6F6"/>
<path d="M20.9268 1.46931L28.5366 9.11013V32.3265C28.5366 33.9428 27.2195 35.2652 25.6098 35.2652H3.65854C2.04878 35.2652 0.731707 33.9428 0.731707 32.3265V4.40809C0.731707 2.79176 2.04878 1.46931 3.65854 1.46931H20.9268ZM21.2195 0.734619H3.65854C1.60976 0.734619 0 2.35095 0 4.40809V32.3265C0 34.3836 1.60976 35.9999 3.65854 35.9999H25.6098C27.6585 35.9999 29.2683 34.3836 29.2683 32.3265V8.81625L21.2195 0.734619Z" fill="#E0E0E0"/>
<path d="M3.29268 35.2806C1.46341 35.2806 0 33.8112 0 31.9745V4.05612C0 2.21939 1.46341 0.75 3.29268 0.75H20.7073L28.5366 8.61122V31.9745C28.5366 33.8112 27.0732 35.2806 25.2439 35.2806H3.29268Z" fill="#D84953"/>
<path d="M20.9268 1.46944L28.5366 9.11025V32.3266C28.5366 33.9429 27.2195 35.2654 25.6098 35.2654H3.65854C2.04878 35.2654 0.731707 33.9429 0.731707 32.3266V4.40821C0.731707 2.79188 2.04878 1.46944 3.65854 1.46944H20.9268ZM21.2195 0.734741H3.65854C1.60976 0.734741 0 2.35107 0 4.40821V32.3266C0 34.3837 1.60976 36 3.65854 36H25.6098C27.6585 36 29.2683 34.3837 29.2683 32.3266V8.81637L21.2195 0.734741Z" fill="#C4434C"/>
<path d="M22.2441 7.71429L29.3417 14.8408V7.71429H22.2441Z" fill="#C4434C"/>
<path d="M30.0002 8.81633H24.8783C22.8295 8.81633 21.2197 7.2 21.2197 5.14286V0H30.0002V8.81633Z" fill="#ECA4A9"/>
<path d="M7.53516 5.28955H8.99857C9.58394 5.28955 10.0961 5.50996 10.462 5.87731C10.8278 6.24465 11.0474 6.75894 11.0474 7.42016C11.0474 8.08139 10.8278 8.59567 10.462 8.96302C10.0961 9.33037 9.58393 9.55078 8.9254 9.55078H7.53516V5.28955ZM8.48638 6.09771V8.74261H8.85223C9.21809 8.74261 9.51076 8.66914 9.80344 8.44873C10.023 8.22833 10.1693 7.93445 10.1693 7.42016C10.1693 7.12629 10.0961 6.90588 10.023 6.68547C9.94979 6.46506 9.73028 6.31812 9.51076 6.24465C9.29125 6.17118 9.07174 6.09771 8.85223 6.09771H8.48638Z" fill="white"/>
<path d="M3.73438 5.25H5.19779C5.56364 5.25 5.92949 5.39694 6.149 5.61735C6.36851 5.83776 6.51485 6.13163 6.51485 6.49898C6.51485 6.71939 6.44169 6.9398 6.36851 7.1602C6.22217 7.38061 6.07583 7.52755 5.85632 7.67449C5.63681 7.74796 5.41729 7.82143 5.27095 7.82143H4.75876V9.51122H3.88071V5.25H3.73438ZM4.61242 6.05816V7.1602H4.97828C5.12462 7.1602 5.27096 7.08674 5.34413 7.01327C5.4173 6.9398 5.49047 6.79286 5.49047 6.64592C5.49047 6.49898 5.41729 6.35204 5.27095 6.27857C5.12461 6.2051 4.97827 6.13163 4.75876 6.13163L4.61242 6.05816Z" fill="white"/>
<path d="M11.7803 5.28955H14.1217V6.09771H12.6583V6.97935H14.1217V7.78751H12.6583V9.55078H11.7803V5.28955Z" fill="white"/>
<path d="M23.2686 22.7754H13.3905C12.8052 22.7754 12.293 23.2897 12.293 23.8774C12.293 24.4652 12.8052 24.9795 13.3905 24.9795H23.2686C23.8539 24.9795 24.3661 24.4652 24.3661 23.8774C24.293 23.2897 23.8539 22.7754 23.2686 22.7754Z" fill="#ECA4A9"/>
<path d="M23.2686 27.1838H13.3905C12.8052 27.1838 12.293 27.6981 12.293 28.2859C12.293 28.8736 12.8052 29.3879 13.3905 29.3879H23.2686C23.8539 29.3879 24.3661 28.8736 24.3661 28.2859C24.3661 27.6981 23.8539 27.1838 23.2686 27.1838Z" fill="#ECA4A9"/>
<path d="M23.5605 18.3677H5.63369C5.04833 18.3677 4.53613 18.882 4.53613 19.4697C4.53613 20.0575 5.04833 20.5718 5.63369 20.5718H23.5605C24.1459 20.5718 24.6581 20.0575 24.6581 19.4697C24.6581 18.882 24.2191 18.3677 23.5605 18.3677Z" fill="#ECA4A9"/>
<path d="M10.2433 28.2856C10.2433 28.8733 9.73111 29.3876 9.14575 29.3876H5.48721C4.90184 29.3876 4.38965 28.8733 4.38965 28.2856V23.8774C4.38965 23.2897 4.90184 22.7754 5.48721 22.7754H9.14575C9.73111 22.7754 10.2433 23.2897 10.2433 23.8774V28.2856Z" fill="#ECA4A9"/>
</svg>
