<svg width="30" height="36" viewBox="0 0 30 36" fill="none" xmlns="http://www.w3.org/2000/svg">
<path d="M4.09766 5.28992H5.56107C5.92692 5.28992 6.29277 5.43686 6.51228 5.65726C6.73179 5.87767 6.87813 6.17155 6.87813 6.5389C6.87813 6.7593 6.80497 6.97971 6.7318 7.20012C6.58545 7.42053 6.43912 7.56747 6.2196 7.71441C6.00009 7.78788 5.78058 7.86135 5.63423 7.86135H5.12204V9.55114H4.244V5.28992H4.09766ZM4.9757 6.09808V7.20012H5.34156C5.4879 7.20012 5.63424 7.12665 5.70741 7.05318C5.78058 6.97971 5.85375 6.83277 5.85375 6.68584C5.85375 6.5389 5.78058 6.39196 5.63423 6.31849C5.48789 6.24502 5.34155 6.17155 5.12204 6.17155L4.9757 6.09808Z" fill="white"/>
<path d="M3.65889 35.6329C1.82963 35.6329 0.366211 34.1635 0.366211 32.3268V4.40842C0.366211 2.57168 1.82963 1.10229 3.65889 1.10229H21.0735L28.9028 8.96352V32.3268C28.9028 34.1635 27.4394 35.6329 25.6101 35.6329H3.65889Z" fill="#F6F6F6"/>
<path d="M20.9268 1.46931L28.5366 9.11013V32.3265C28.5366 33.9428 27.2195 35.2652 25.6098 35.2652H3.65854C2.04878 35.2652 0.731707 33.9428 0.731707 32.3265V4.40809C0.731707 2.79176 2.04878 1.46931 3.65854 1.46931H20.9268ZM21.2195 0.734619H3.65854C1.60976 0.734619 0 2.35095 0 4.40809V32.3265C0 34.3836 1.60976 35.9999 3.65854 35.9999H25.6098C27.6585 35.9999 29.2683 34.3836 29.2683 32.3265V8.81625L21.2195 0.734619Z" fill="#E0E0E0"/>
<path d="M3.29268 35.2806C1.46341 35.2806 0 33.8112 0 31.9745V4.05612C0 2.21939 1.46341 0.75 3.29268 0.75H20.7073L28.5366 8.61122V31.9745C28.5366 33.8112 27.0732 35.2806 25.2439 35.2806H3.29268Z" fill="#80CBC4"/>
<path d="M3 4.05373H3.90326C4.00067 4.05373 4.08037 4.07611 4.14236 4.12089C4.20434 4.16566 4.24862 4.22498 4.27519 4.29886L5.21165 6.91807C5.25372 7.03224 5.29578 7.15648 5.33784 7.2908C5.38212 7.42512 5.42308 7.56615 5.46071 7.7139C5.49171 7.56615 5.52713 7.42512 5.56698 7.2908C5.60904 7.15648 5.65 7.03224 5.68985 6.91807L6.61967 4.29886C6.64181 4.23618 6.68498 4.18021 6.74918 4.13096C6.81339 4.07947 6.89198 4.05373 6.98496 4.05373H7.89486L5.95551 8.94627H4.93935L3 4.05373Z" fill="white"/>
<path d="M12.6855 6.49832C12.6855 6.85203 12.6246 7.17887 12.5028 7.47884C12.3833 7.77658 12.2139 8.03515 11.9948 8.25453C11.7756 8.47168 11.511 8.64182 11.2011 8.76494C10.8934 8.88583 10.5513 8.94627 10.175 8.94627H8.29538V4.05373H10.175C10.5513 4.05373 10.8934 4.11529 11.2011 4.23841C11.511 4.36154 11.7756 4.53168 11.9948 4.74882C12.2139 4.96597 12.3833 5.22454 12.5028 5.52451C12.6246 5.82225 12.6855 6.14685 12.6855 6.49832ZM11.5365 6.49832C11.5365 6.25655 11.5055 6.03828 11.4435 5.84352C11.3815 5.64876 11.2918 5.48422 11.1745 5.3499C11.0594 5.21334 10.9177 5.10925 10.7494 5.03761C10.5812 4.96373 10.3897 4.9268 10.175 4.9268H9.42445V8.0732H10.175C10.3897 8.0732 10.5812 8.03738 10.7494 7.96575C10.9177 7.89187 11.0594 7.78778 11.1745 7.65346C11.2918 7.5169 11.3815 7.35124 11.4435 7.15648C11.5055 6.96172 11.5365 6.74233 11.5365 6.49832Z" fill="white"/>
<path d="M18 6.49832C18 6.85203 17.9391 7.18111 17.8174 7.48556C17.6978 7.79002 17.5284 8.05529 17.3093 8.2814C17.0901 8.50526 16.8255 8.68099 16.5156 8.8086C16.2079 8.9362 15.8658 9 15.4895 9C15.1131 9 14.77 8.9362 14.46 8.8086C14.1501 8.68099 13.8844 8.50526 13.663 8.2814C13.4439 8.05529 13.2734 7.79002 13.1516 7.48556C13.0321 7.18111 12.9723 6.85203 12.9723 6.49832C12.9723 6.14462 13.0321 5.81554 13.1516 5.51108C13.2734 5.20663 13.4439 4.94247 13.663 4.7186C13.8844 4.49474 14.1501 4.31901 14.46 4.1914C14.77 4.0638 15.1131 4 15.4895 4C15.8658 4 16.2079 4.06492 16.5156 4.19476C16.8255 4.32236 17.0901 4.4981 17.3093 4.72196C17.5284 4.94582 17.6978 5.20998 17.8174 5.51444C17.9391 5.81889 18 6.14685 18 6.49832ZM16.851 6.49832C16.851 6.25655 16.82 6.0394 16.758 5.84688C16.696 5.65212 16.6064 5.48758 16.489 5.35326C16.3739 5.21894 16.2322 5.11596 16.064 5.04432C15.8957 4.97269 15.7042 4.93687 15.4895 4.93687C15.2725 4.93687 15.0788 4.97269 14.9083 5.04432C14.7401 5.11596 14.5973 5.21894 14.48 5.35326C14.3648 5.48758 14.2763 5.65212 14.2143 5.84688C14.1523 6.0394 14.1213 6.25655 14.1213 6.49832C14.1213 6.74233 14.1523 6.96172 14.2143 7.15648C14.2763 7.349 14.3648 7.51242 14.48 7.64674C14.5973 7.78106 14.7401 7.88404 14.9083 7.95567C15.0788 8.02507 15.2725 8.05977 15.4895 8.05977C15.7042 8.05977 15.8957 8.02507 16.064 7.95567C16.2322 7.88404 16.3739 7.78106 16.489 7.64674C16.6064 7.51242 16.696 7.349 16.758 7.15648C16.82 6.96172 16.851 6.74233 16.851 6.49832Z" fill="white"/>
<path d="M20.9268 1.46944L28.5366 9.11025V32.3266C28.5366 33.9429 27.2195 35.2654 25.6098 35.2654H3.65854C2.04878 35.2654 0.731707 33.9429 0.731707 32.3266V4.40821C0.731707 2.79188 2.04878 1.46944 3.65854 1.46944H20.9268ZM21.2195 0.734741H3.65854C1.60976 0.734741 0 2.35107 0 4.40821V32.3266C0 34.3837 1.60976 36 3.65854 36H25.6098C27.6585 36 29.2683 34.3837 29.2683 32.3266V8.81637L21.2195 0.734741Z" fill="#E0F2F1"/>
<path d="M22.2441 7.71429L29.3417 14.8408V7.71429H22.2441Z" fill="#B2DFDB"/>
<path d="M30.0002 8.81633H24.8783C22.8295 8.81633 21.2197 7.2 21.2197 5.14286V0H30.0002V8.81633Z" fill="#E0F2F1"/>
<path d="M21.2685 15H8.73301C6.68031 15 5 16.7395 5 18.8645V25.1355C5 27.262 6.68031 29 8.73301 29H21.267C23.3212 29 25 27.2605 25 25.1355V18.8645C25.0015 16.7395 23.3212 15 21.2685 15ZM12.2873 25.7137C12.1612 25.7775 12.0155 25.6827 12.0155 25.5381V18.4712C12.0155 18.3251 12.1657 18.2303 12.2918 18.2971L18.519 22.1197L12.2873 25.7137Z" fill="#E0F2F1"/>
</svg>
