<svg width="30" height="36" viewBox="0 0 30 36" fill="none" xmlns="http://www.w3.org/2000/svg">
<path d="M3.65792 35.6327C1.82865 35.6327 0.365234 34.1633 0.365234 32.3265V4.40817C0.365234 2.57144 1.82865 1.10205 3.65792 1.10205H21.0726L28.9018 8.96328V32.3265C28.9018 34.1633 27.4384 35.6327 25.6091 35.6327H3.65792Z" fill="#F6F6F6"/>
<path d="M20.9268 1.46944L28.5366 9.11025V32.3266C28.5366 33.9429 27.2195 35.2654 25.6098 35.2654H3.65854C2.04878 35.2654 0.731707 33.9429 0.731707 32.3266V4.40821C0.731707 2.79188 2.04878 1.46944 3.65854 1.46944H20.9268ZM21.2195 0.734741H3.65854C1.60976 0.734741 0 2.35107 0 4.40821V32.3266C0 34.3837 1.60976 36 3.65854 36H25.6098C27.6585 36 29.2683 34.3837 29.2683 32.3266V8.81637L21.2195 0.734741Z" fill="#E0E0E0"/>
<path d="M3.65792 35.6327C1.82865 35.6327 0.365234 34.1633 0.365234 32.3265V4.40817C0.365234 2.57144 1.82865 1.10205 3.65792 1.10205H21.0726L28.9018 8.96328V32.3265C28.9018 34.1633 27.4384 35.6327 25.6091 35.6327H3.65792Z" fill="#F78852"/>
<path d="M20.9268 1.46944L28.5366 9.11025V32.3266C28.5366 33.9429 27.2195 35.2654 25.6098 35.2654H3.65854C2.04878 35.2654 0.731707 33.9429 0.731707 32.3266V4.40821C0.731707 2.79188 2.04878 1.46944 3.65854 1.46944H20.9268ZM21.2195 0.734741H3.65854C1.60976 0.734741 0 2.35107 0 4.40821V32.3266C0 34.3837 1.60976 36 3.65854 36H25.6098C27.6585 36 29.2683 34.3837 29.2683 32.3266V8.81637L21.2195 0.734741Z" fill="#E27140"/>
<path d="M22.2441 7.71429L29.3417 14.8408V7.71429H22.2441Z" fill="#E27140"/>
<path d="M30.0002 8.81633H24.8783C22.8295 8.81633 21.2197 7.2 21.2197 5.14286V0H30.0002V8.81633Z" fill="#FBC3A9"/>
<path d="M3.73438 4.50049H6.09172C6.68106 4.50049 7.27038 4.73718 7.62398 5.09223C7.97758 5.44727 8.21332 5.92067 8.21332 6.51241C8.21332 6.86745 8.09545 7.2225 7.97758 7.57754C7.74185 7.93259 7.50612 8.16929 7.15252 8.40598C6.79892 8.52433 6.44531 8.64268 6.20958 8.64268H5.38451V11.3647H3.97011V4.50049H3.73438ZM5.14878 5.80232V7.57754H5.73811C5.97385 7.57754 6.20958 7.4592 6.32745 7.34085C6.44532 7.2225 6.56318 6.9858 6.56318 6.74911C6.56318 6.51241 6.44531 6.27571 6.20958 6.15737C5.97384 6.03902 5.73811 5.92067 5.38451 5.92067L5.14878 5.80232Z" fill="white"/>
<path d="M9.39355 4.5H11.7509C12.3402 4.5 12.9296 4.7367 13.2832 5.09174C13.6368 5.44679 13.8725 5.92018 13.8725 6.51192C13.8725 6.86697 13.7546 7.22201 13.6368 7.57706C13.401 7.9321 13.1653 8.1688 12.8117 8.40549C12.4581 8.52384 12.1045 8.64219 11.8688 8.64219H11.0437V11.3642H9.6293V4.5H9.39355ZM10.808 5.80183V7.57706H11.3973C11.633 7.57706 11.8688 7.45871 11.9866 7.34036C12.1045 7.22201 12.2224 6.98532 12.2224 6.74862C12.2224 6.51192 12.1045 6.27523 11.8688 6.15688C11.633 6.03853 11.3973 5.92018 11.0437 5.92018L10.808 5.80183Z" fill="white"/>
<path d="M14.4609 4.5H19.0578V5.92018H17.5255V11.3642H16.1111V6.03853H14.5788V4.5H14.4609Z" fill="white"/>
<path d="M13.902 30.1221C11.0484 30.1221 8.78008 27.8446 8.78008 24.9793C8.78008 22.4079 10.6825 20.2772 13.1703 19.9099V17.7058C9.43862 18.0732 6.58496 21.2323 6.58496 24.9793C6.58496 29.0201 9.87764 32.3262 13.902 32.3262C17.7069 32.3262 20.7801 29.4609 21.1459 25.714H18.9508C18.585 28.2119 16.463 30.1221 13.902 30.1221Z" fill="#E0E0E0"/>
<path d="M14.6343 24.2449V19.9102C14.4148 19.9102 14.1221 19.8367 13.9026 19.8367C13.6831 19.8367 13.3904 19.8367 13.1709 19.9102V24.2449H14.6343Z" fill="#E0E0E0"/>
<path d="M13.9026 19.8367C14.1221 19.8367 14.4148 19.8367 14.6343 19.9102V17.7061C14.4148 17.7061 14.1221 17.6326 13.9026 17.6326C13.6831 17.6326 13.3904 17.6326 13.1709 17.7061V19.9102C13.3904 19.8367 13.6831 19.8367 13.9026 19.8367Z" fill="#E0E0E0"/>
<path d="M14.6338 25.7143H18.9509C18.9509 25.4939 19.024 25.2 19.024 24.9796C19.024 24.7592 19.024 24.4653 18.9509 24.2449H14.6338V25.7143Z" fill="#E0E0E0"/>
<path d="M21.1463 24.2449H18.9512C18.9512 24.4653 19.0243 24.7592 19.0243 24.9796C19.0243 25.2 19.0243 25.4939 18.9512 25.7143H21.1463C21.1463 25.4939 21.2195 25.2 21.2195 24.9796C21.2195 24.7592 21.2195 24.4653 21.1463 24.2449Z" fill="#E0E0E0"/>
<path d="M14.6343 24.2449H13.1709V25.7143H14.6343V24.2449Z" fill="#E0E0E0"/>
<path d="M23.2684 21.3061C22.683 18.4408 20.4147 16.1633 17.5611 15.5755C17.122 15.5021 16.6099 15.4286 16.0977 15.4286V17.6327V21.3061V22.7755H17.5611H21.2196H23.4147C23.4147 22.2612 23.3416 21.747 23.2684 21.3061ZM17.5611 21.3061V17.8531C19.244 18.3674 20.4879 19.6163 21.0001 21.3061H17.5611Z" fill="#E0E0E0"/>
</svg>
