<svg width="109" height="96" viewBox="0 0 109 96" fill="none" xmlns="http://www.w3.org/2000/svg">
<path fill-rule="evenodd" clip-rule="evenodd" d="M98.9451 50.8261C98.9451 75.7746 78.7208 95.9998 53.7723 95.9998C28.8221 95.9998 8.59863 75.7746 8.59863 50.8261C8.59863 25.8768 28.8221 5.65332 53.7723 5.65332C78.7208 5.65332 98.9451 25.8768 98.9451 50.8261Z" fill="#FCD734"/>
<path fill-rule="evenodd" clip-rule="evenodd" d="M88.3342 21.7499C80.0478 11.9103 67.6434 5.65332 53.7723 5.65332C28.823 5.65332 8.59863 25.8768 8.59863 50.8261C8.59863 56.068 9.50158 61.0969 11.1431 65.7777C36.6173 50.6556 62.3273 35.9373 88.3342 21.7499Z" fill="#FCDC59"/>
<path fill-rule="evenodd" clip-rule="evenodd" d="M58.9956 95.6907C69.3591 94.4962 78.6572 89.8056 85.6678 82.8145C78.6139 86.2045 71.5785 89.6334 64.5343 93.041C62.6922 93.9325 60.8404 94.8054 58.9956 95.6907Z" fill="#FCDC59"/>
<path fill-rule="evenodd" clip-rule="evenodd" d="M87.3979 50.1105C87.3979 69.0777 72.024 84.4516 53.0568 84.4516C34.0897 84.4516 18.7158 69.0777 18.7158 50.1105C18.7158 31.1434 34.0897 15.7695 53.0568 15.7695C72.024 15.7695 87.3979 31.1434 87.3979 50.1105Z" fill="#F47E16"/>
<path fill-rule="evenodd" clip-rule="evenodd" d="M88.3676 51.5418C88.3676 70.2536 73.2004 85.4226 54.4877 85.4226C35.7751 85.4226 20.6079 70.2536 20.6079 51.5418C20.6079 32.8301 35.7751 17.6611 54.4877 17.6611C73.2004 17.6611 88.3676 32.8301 88.3676 51.5418Z" fill="#F8A724"/>
<path fill-rule="evenodd" clip-rule="evenodd" d="M69.084 32.2593H58.0428C59.983 33.9591 61.3887 36.3976 61.7898 39.7965H69.084V43.4913H61.8569C61.1872 51.0285 55.7669 55.8312 47.2022 56.1272C52.4219 62.113 58.11 69.6493 63.7299 77.2607H57.306C52.0871 70.3146 47.2022 63.8862 40.9116 56.4965V51.9155H44.5923C51.8194 51.9155 55.7006 48.59 56.1689 43.4913H40.9116V39.7965H55.9683C55.0318 35.5106 51.4845 33.3681 45.6631 33.3681H40.9116V28.5645H69.084V32.2593Z" fill="#F47E16"/>
<path fill-rule="evenodd" clip-rule="evenodd" d="M68.1432 31.3188H57.102C59.0431 33.0187 60.4478 35.4572 60.8498 38.856H68.1432V42.5509H60.917C60.2473 50.0881 54.827 54.8908 46.2614 55.1868C51.4811 61.1725 57.1691 68.7088 62.79 76.3203H56.366C51.1463 69.3741 46.2614 62.9457 39.9717 55.5561V50.9751H43.6515C50.8786 50.9751 54.7607 47.6496 55.2281 42.5509H39.9717V38.856H55.0275C54.091 34.5702 50.5446 32.4276 44.7223 32.4276H39.9717V27.624H68.1432V31.3188Z" fill="#FCD734"/>
<path fill-rule="evenodd" clip-rule="evenodd" d="M6.57309 49.3975L8.57158 53.0525L12.2266 55.051L8.57158 57.0495L6.57309 60.7046L4.57459 57.0495L0.92041 55.051L4.57459 53.0525L6.57309 49.3975Z" fill="#FBFCE6"/>
<path fill-rule="evenodd" clip-rule="evenodd" d="M12.2267 12.8926L13.2436 14.7524L15.1043 15.7702L13.2436 16.788L12.2267 18.6486L11.2089 16.788L9.34912 15.7702L11.2089 14.7524L12.2267 12.8926Z" fill="#FBFCE6"/>
<path fill-rule="evenodd" clip-rule="evenodd" d="M81.5715 7.3252L83.5399 10.9237L87.1376 12.8913L83.5399 14.8597L81.5715 18.4574L79.603 14.8597L76.0054 12.8913L79.603 10.9237L81.5715 7.3252Z" fill="#FBFCE6"/>
<path fill-rule="evenodd" clip-rule="evenodd" d="M80.1906 80.4111L81.6192 83.0237L84.2317 84.4523L81.6192 85.8809L80.1906 88.4935L78.7619 85.8809L76.1494 84.4523L78.7619 83.0237L80.1906 80.4111Z" fill="#FBFCE6"/>
<path fill-rule="evenodd" clip-rule="evenodd" d="M106.252 52.3721L107.199 54.1037L108.929 55.0509L107.199 55.998L106.252 57.7288L105.304 55.998L103.573 55.0509L105.304 54.1037L106.252 52.3721Z" fill="#FBFCE6"/>
<path fill-rule="evenodd" clip-rule="evenodd" d="M106.252 32.9648L106.577 33.5594L107.172 33.8855L106.577 34.2106L106.252 34.8052L105.927 34.2106L105.331 33.8855L105.927 33.5594L106.252 32.9648Z" fill="#FBFCE6"/>
<mask id="mask0" mask-type="alpha" maskUnits="userSpaceOnUse" x="0" y="32" width="2" height="3">
<path fill-rule="evenodd" clip-rule="evenodd" d="M0 32.9648H1.84105V34.8052H0V32.9648Z" fill="white"/>
</mask>
<g mask="url(#mask0)">
<path fill-rule="evenodd" clip-rule="evenodd" d="M0.920614 32.9648L1.24574 33.5594L1.84123 33.8855L1.24574 34.2106L0.920614 34.8052L0.5946 34.2106L0 33.8855L0.5946 33.5594L0.920614 32.9648Z" fill="#FBFCE6"/>
</g>
<path opacity="0.5" fill-rule="evenodd" clip-rule="evenodd" d="M100.951 25.1786L101.048 25.0775C102.875 23.1867 102.822 20.1734 100.931 18.3472L100.708 18.1315L100.82 17.8416C101.764 15.3885 100.541 12.6341 98.088 11.6896L97.9566 11.6391L97.9542 11.4985C97.9086 8.87022 95.741 6.77662 93.1127 6.82217L92.8021 6.82759L92.6759 6.54366C91.6093 4.14123 88.7967 3.05847 86.3943 4.12532L86.2658 4.18226L86.1646 4.08463C84.2738 2.25844 81.2606 2.31084 79.4344 4.20163L79.2187 4.4249L78.9288 4.3134C76.4756 3.36894 73.7213 4.59194 72.7768 7.04508L72.7263 7.17633L72.5857 7.17872C69.9574 7.22446 67.8638 9.39209 67.9094 12.0204L67.9148 12.331L67.6309 12.457C65.2284 13.5238 64.1457 16.3364 65.2124 18.7386L65.2694 18.8673L65.1718 18.9685C63.3456 20.8593 63.3978 23.8725 65.2887 25.6985L65.5121 25.9144L65.4004 26.2043C64.4561 28.6575 65.6792 31.4117 68.1323 32.3563L68.2635 32.4068L68.2659 32.5474C68.3116 35.1757 70.4793 37.2693 73.1075 37.2238L73.4181 37.2183L73.5441 37.5022C74.611 39.9047 77.4233 40.9874 79.8258 39.9208L79.9544 39.8637L80.0556 39.9613C81.9464 41.7875 84.9595 41.7351 86.7857 39.8445L87.0016 39.6208L87.2915 39.7325C89.7446 40.677 92.4988 39.454 93.4433 37.0008L93.494 36.8696L93.6346 36.867C96.2629 36.8215 98.3565 34.6539 98.3107 32.0255L98.3055 31.715L98.5892 31.5889C100.992 30.5221 102.075 27.7096 101.008 25.3071L100.951 25.1786Z" fill="#B2DFDB"/>
<path fill-rule="evenodd" clip-rule="evenodd" d="M99.8341 22.0329L99.9068 21.9252C101.264 19.9137 100.733 17.1828 98.7216 15.8258L98.4839 15.6656L98.539 15.3841C99.0043 13.0027 97.4511 10.6948 95.0697 10.2295L94.9421 10.2046L94.9174 10.0772C94.4547 7.69523 92.1486 6.1395 89.7666 6.6022L89.4852 6.6569L89.3249 6.41902C87.9702 4.40606 85.2399 3.8726 83.227 5.22752L83.1193 5.29987L83.0117 5.22734C81.0001 3.87031 78.2693 4.40094 76.9123 6.41249L76.752 6.65002L76.4706 6.59514C74.0891 6.12979 71.7813 7.68306 71.316 10.0645L71.2911 10.1919L71.1637 10.2166C68.7817 10.6795 67.226 12.9855 67.6887 15.3675L67.7434 15.649L67.5055 15.809C65.4925 17.1639 64.9591 19.8942 66.3138 21.907L66.3863 22.0148L66.3138 22.1225C64.9568 24.134 65.4872 26.8649 67.4988 28.2217L67.7365 28.3821L67.6814 28.6636C67.2163 31.045 68.7695 33.3527 71.151 33.8182L71.2784 33.8431L71.3031 33.9705C71.7659 36.3525 74.072 37.9082 76.454 37.4455L76.7354 37.3908L76.8955 37.6287C78.2504 39.6416 80.9805 40.1751 82.9935 38.8204L83.1013 38.7478L83.209 38.8204C85.2205 40.1774 87.9512 39.6468 89.3082 37.6354L89.4686 37.3975L89.7501 37.4526C92.1315 37.9179 94.4391 36.3646 94.9045 33.9832L94.9295 33.8558L95.057 33.8309C97.4389 33.3682 98.9946 31.0622 98.5318 28.6802L98.4772 28.3987L98.7149 28.2387C100.728 26.8838 101.262 24.1535 99.9066 22.1405L99.8341 22.0329Z" fill="#4DB6AC"/>
<path fill-rule="evenodd" clip-rule="evenodd" d="M91.6277 16.4363C91.2851 16.0863 90.7296 16.0863 90.3869 16.4363L79.8749 27.1719L75.8343 23.0454C75.4916 22.6954 74.9361 22.6954 74.5934 23.0454C74.2508 23.3953 74.2508 23.9626 74.5934 24.3126L79.2545 29.0727C79.597 29.4226 80.1529 29.4224 80.4953 29.0727L91.6277 17.7035C91.9704 17.3536 91.9703 16.7863 91.6277 16.4363Z" fill="white"/>
</svg>
