<svg width="24" height="112" viewBox="0 0 24 112" fill="none" xmlns="http://www.w3.org/2000/svg">
<path d="M0 12C0 5.37258 5.37258 0 12 0C18.6274 0 24 5.37258 24 12V112H0V12Z" fill="#009688"/>
<circle cx="12" cy="12" r="11.5" fill="white" stroke="#009887"/>
<path d="M11.1442 9.295C11.1442 9.47167 11.0876 9.615 10.9742 9.725C10.8642 9.835 10.6792 9.89 10.4192 9.89H8.42922L8.16922 11.4C8.49589 11.3333 8.79422 11.3 9.06422 11.3C9.44422 11.3 9.77755 11.3567 10.0642 11.47C10.3542 11.5833 10.5976 11.74 10.7942 11.94C10.9909 12.14 11.1392 12.375 11.2392 12.645C11.3392 12.9117 11.3892 13.2 11.3892 13.51C11.3892 13.8933 11.3209 14.2433 11.1842 14.56C11.0509 14.8767 10.8642 15.1483 10.6242 15.375C10.3842 15.5983 10.0992 15.7717 9.76922 15.895C9.44255 16.0183 9.08589 16.08 8.69922 16.08C8.47255 16.08 8.25755 16.0567 8.05422 16.01C7.85089 15.9633 7.65922 15.9017 7.47922 15.825C7.30255 15.745 7.13755 15.655 6.98422 15.555C6.83422 15.4517 6.69922 15.3433 6.57922 15.23L6.95922 14.705C7.03922 14.5917 7.14589 14.535 7.27922 14.535C7.36255 14.535 7.44589 14.5617 7.52922 14.615C7.61589 14.6683 7.71589 14.7267 7.82922 14.79C7.94255 14.8533 8.07422 14.9117 8.22422 14.965C8.37422 15.0183 8.55589 15.045 8.76922 15.045C8.99589 15.045 9.19589 15.0083 9.36922 14.935C9.54255 14.8617 9.68589 14.76 9.79922 14.63C9.91589 14.4967 10.0026 14.34 10.0592 14.16C10.1192 13.9767 10.1492 13.7783 10.1492 13.565C10.1492 13.1717 10.0342 12.865 9.80422 12.645C9.57755 12.4217 9.24255 12.31 8.79922 12.31C8.44922 12.31 8.09755 12.3733 7.74422 12.5L6.97422 12.28L7.57422 8.77H11.1442V9.295ZM16.71 13.275H17.62V13.99C17.62 14.0567 17.5983 14.115 17.555 14.165C17.5117 14.2117 17.4483 14.235 17.365 14.235H16.71V16H15.63V14.235H12.58C12.4967 14.235 12.4233 14.21 12.36 14.16C12.2967 14.1067 12.2567 14.0417 12.24 13.965L12.115 13.34L15.54 8.765H16.71V13.275ZM15.63 10.91C15.63 10.8033 15.6333 10.6883 15.64 10.565C15.6467 10.4417 15.6583 10.3133 15.675 10.18L13.43 13.275H15.63V10.91Z" fill="#0D352D"/>
</svg>
