<svg width="20" height="18" viewBox="0 0 20 18" fill="none" xmlns="http://www.w3.org/2000/svg">
<path d="M1 1H6.4C7.35478 1 8.27045 1.37928 8.94558 2.05442C9.62072 2.72955 10 3.64522 10 4.6V17.2C10 16.4839 9.71554 15.7972 9.20919 15.2908C8.70284 14.7845 8.01608 14.5 7.3 14.5H1V1Z" stroke="#4DB6AC" stroke-width="1.5" stroke-linecap="round" stroke-linejoin="round"/>
<path d="M19 1H13.6C12.6452 1 11.7295 1.37928 11.0544 2.05442C10.3793 2.72955 10 3.64522 10 4.6V17.2C10 16.4839 10.2845 15.7972 10.7908 15.2908C11.2972 14.7845 11.9839 14.5 12.7 14.5H19V1Z" stroke="#4DB6AC" stroke-width="1.5" stroke-linecap="round" stroke-linejoin="round"/>
</svg>
