<svg width="131" height="113" viewBox="0 0 131 113" fill="none" xmlns="http://www.w3.org/2000/svg">
<path fill-rule="evenodd" clip-rule="evenodd" d="M98.9451 67.8261C98.9451 92.7746 78.7208 113 53.7723 113C28.8221 113 8.59863 92.7746 8.59863 67.8261C8.59863 42.8768 28.8221 22.6533 53.7723 22.6533C78.7208 22.6533 98.9451 42.8768 98.9451 67.8261Z" fill="#FCD734"/>
<path fill-rule="evenodd" clip-rule="evenodd" d="M88.3342 38.7499C80.0478 28.9103 67.6434 22.6533 53.7723 22.6533C28.823 22.6533 8.59863 42.8768 8.59863 67.8261C8.59863 73.068 9.50158 78.0969 11.1431 82.7777C36.6173 67.6556 62.3273 52.9373 88.3342 38.7499Z" fill="#FCDC59"/>
<path fill-rule="evenodd" clip-rule="evenodd" d="M58.9956 112.691C69.3591 111.496 78.6572 106.806 85.6678 99.8145C78.6139 103.204 71.5785 106.633 64.5343 110.041C62.6922 110.932 60.8404 111.805 58.9956 112.691Z" fill="#FCDC59"/>
<path fill-rule="evenodd" clip-rule="evenodd" d="M87.3979 67.1105C87.3979 86.0777 72.024 101.452 53.0568 101.452C34.0897 101.452 18.7158 86.0777 18.7158 67.1105C18.7158 48.1434 34.0897 32.7695 53.0568 32.7695C72.024 32.7695 87.3979 48.1434 87.3979 67.1105Z" fill="#F47E16"/>
<path fill-rule="evenodd" clip-rule="evenodd" d="M88.3676 68.5418C88.3676 87.2536 73.2004 102.423 54.4877 102.423C35.7751 102.423 20.6079 87.2536 20.6079 68.5418C20.6079 49.8301 35.7751 34.6611 54.4877 34.6611C73.2004 34.6611 88.3676 49.8301 88.3676 68.5418Z" fill="#F8A724"/>
<path fill-rule="evenodd" clip-rule="evenodd" d="M69.084 49.2593H58.0428C59.983 50.9591 61.3887 53.3976 61.7898 56.7965H69.084V60.4913H61.8569C61.1872 68.0285 55.7669 72.8312 47.2022 73.1272C52.4219 79.113 58.11 86.6493 63.7299 94.2607H57.306C52.0871 87.3146 47.2022 80.8862 40.9116 73.4965V68.9155H44.5923C51.8194 68.9155 55.7006 65.59 56.1689 60.4913H40.9116V56.7965H55.9683C55.0318 52.5106 51.4845 50.3681 45.6631 50.3681H40.9116V45.5645H69.084V49.2593Z" fill="#F47E16"/>
<path fill-rule="evenodd" clip-rule="evenodd" d="M68.1432 48.3188H57.102C59.0431 50.0187 60.4478 52.4572 60.8498 55.856H68.1432V59.5509H60.917C60.2473 67.0881 54.827 71.8908 46.2614 72.1868C51.4811 78.1725 57.1691 85.7088 62.79 93.3203H56.366C51.1463 86.3741 46.2614 79.9457 39.9717 72.5561V67.9751H43.6515C50.8786 67.9751 54.7607 64.6496 55.2281 59.5509H39.9717V55.856H55.0275C54.091 51.5702 50.5446 49.4276 44.7223 49.4276H39.9717V44.624H68.1432V48.3188Z" fill="#FCD734"/>
<path fill-rule="evenodd" clip-rule="evenodd" d="M6.57309 66.3975L8.57158 70.0525L12.2266 72.051L8.57158 74.0495L6.57309 77.7046L4.57459 74.0495L0.92041 72.051L4.57459 70.0525L6.57309 66.3975Z" fill="#FBFCE6"/>
<path fill-rule="evenodd" clip-rule="evenodd" d="M12.2267 29.8926L13.2436 31.7524L15.1043 32.7702L13.2436 33.788L12.2267 35.6486L11.2089 33.788L9.34912 32.7702L11.2089 31.7524L12.2267 29.8926Z" fill="#FBFCE6"/>
<path fill-rule="evenodd" clip-rule="evenodd" d="M81.5715 24.3252L83.5399 27.9237L87.1376 29.8913L83.5399 31.8597L81.5715 35.4574L79.603 31.8597L76.0054 29.8913L79.603 27.9237L81.5715 24.3252Z" fill="#FBFCE6"/>
<path fill-rule="evenodd" clip-rule="evenodd" d="M80.1906 97.4111L81.6192 100.024L84.2317 101.452L81.6192 102.881L80.1906 105.493L78.7619 102.881L76.1494 101.452L78.7619 100.024L80.1906 97.4111Z" fill="#FBFCE6"/>
<path fill-rule="evenodd" clip-rule="evenodd" d="M106.252 69.3721L107.199 71.1037L108.929 72.0509L107.199 72.998L106.252 74.7288L105.304 72.998L103.573 72.0509L105.304 71.1037L106.252 69.3721Z" fill="#FBFCE6"/>
<path fill-rule="evenodd" clip-rule="evenodd" d="M106.252 49.9648L106.577 50.5594L107.172 50.8855L106.577 51.2106L106.252 51.8052L105.927 51.2106L105.331 50.8855L105.927 50.5594L106.252 49.9648Z" fill="#FBFCE6"/>
<mask id="mask0" mask-type="alpha" maskUnits="userSpaceOnUse" x="0" y="49" width="2" height="3">
<path fill-rule="evenodd" clip-rule="evenodd" d="M0 49.9648H1.84105V51.8052H0V49.9648Z" fill="white"/>
</mask>
<g mask="url(#mask0)">
<path fill-rule="evenodd" clip-rule="evenodd" d="M0.920614 49.9648L1.24574 50.5594L1.84123 50.8855L1.24574 51.2106L0.920614 51.8052L0.5946 51.2106L0 50.8855L0.5946 50.5594L0.920614 49.9648Z" fill="#FBFCE6"/>
</g>
<path opacity="0.5" fill-rule="evenodd" clip-rule="evenodd" d="M123.878 42.8734L124.045 42.7011C127.154 39.4815 127.065 34.3506 123.846 31.241L123.465 30.8738L123.655 30.3801C125.263 26.203 123.181 21.5129 119.004 19.9047L118.78 19.8187L118.776 19.5793C118.698 15.1039 115.007 11.539 110.532 11.6166L110.003 11.6258L109.788 11.1423C107.972 7.05155 103.183 5.20787 99.0922 7.02447L98.8734 7.12142L98.7011 6.95518C95.4815 3.8456 90.3506 3.93483 87.2411 7.1544L86.8739 7.53457L86.3801 7.34472C82.203 5.73653 77.513 7.819 75.9048 11.9961L75.8188 12.2196L75.5794 12.2237C71.104 12.3016 67.5391 15.9925 67.6166 20.4679L67.6259 20.9968L67.1425 21.2113C63.0516 23.0279 61.2079 27.817 63.0243 31.9075L63.1215 32.1266L62.9552 32.2989C59.8457 35.5185 59.9346 40.6493 63.1542 43.7586L63.5346 44.1261L63.3445 44.6198C61.7366 48.797 63.8191 53.4868 67.9962 55.0953L68.2197 55.1813L68.2237 55.4207C68.3016 59.8961 71.9926 63.461 76.4679 63.3834L76.9968 63.3742L77.2114 63.8576C79.0279 67.9484 83.8167 69.7921 87.9075 67.9758L88.1266 67.8786L88.2989 68.0448C91.5185 71.1544 96.6491 71.0651 99.7586 67.8459L100.126 67.4651L100.62 67.6553C104.797 69.2635 109.487 67.1809 111.095 63.0038L111.181 62.7804L111.421 62.776C115.896 62.6984 119.461 59.0075 119.383 54.532L119.374 54.0032L119.857 53.7886C123.948 51.972 125.792 47.183 123.976 43.0921L123.878 42.8734Z" fill="#EB5757"/>
<path fill-rule="evenodd" clip-rule="evenodd" d="M121.977 37.517L122.1 37.3337C124.411 33.9085 123.507 29.2586 120.082 26.9478L119.678 26.675L119.771 26.1957C120.564 22.1407 117.919 18.211 113.864 17.4186L113.647 17.3763L113.604 17.1593C112.817 13.1034 108.89 10.4543 104.834 11.2422L104.355 11.3354L104.082 10.9303C101.775 7.50271 97.126 6.59435 93.6984 8.90145L93.5151 9.02465L93.3318 8.90115C89.9066 6.59044 85.2567 7.49399 82.946 10.9192L82.6731 11.3236L82.1939 11.2302C78.1388 10.4378 74.2091 13.0827 73.4168 17.1377L73.3744 17.3546L73.1575 17.3967C69.1015 18.1849 66.4525 22.1116 67.2404 26.1675L67.3335 26.6468L66.9285 26.9193C63.5008 29.2264 62.5925 33.8755 64.8993 37.3028L65.0228 37.4864L64.8993 37.6697C62.5886 41.0949 63.4918 45.7449 66.917 48.0553L67.3218 48.3284L67.228 48.8077C66.436 52.8627 69.0808 56.7921 73.1358 57.5848L73.3528 57.6271L73.3948 57.8441C74.183 61.9 78.1097 64.5491 82.1656 63.7612L82.6449 63.668L82.9174 64.0731C85.2245 67.5007 89.8733 68.4091 93.3009 66.1023L93.4845 65.9788L93.6678 66.1023C97.093 68.413 101.743 67.5094 104.053 64.0845L104.326 63.6795L104.806 63.7732C108.861 64.5656 112.79 61.9207 113.583 57.8657L113.625 57.6488L113.842 57.6064C117.898 56.8185 120.547 52.8918 119.759 48.8359L119.666 48.3566L120.071 48.0841C123.498 45.777 124.407 41.1279 122.1 37.7003L121.977 37.517Z" fill="#EB5757"/>
<path d="M103.527 27.6882L83.5369 47.6784" stroke="white" stroke-width="2.34" stroke-linecap="round"/>
<path d="M83.5383 27.6878L103.529 47.678" stroke="white" stroke-width="2.34" stroke-linecap="round"/>
</svg>
