<svg width="36" height="36" viewBox="0 0 36 36" fill="none" xmlns="http://www.w3.org/2000/svg">
<path d="M10 12.6001H11.8H26.2" stroke="#F47E16" stroke-width="1.5" stroke-linecap="round" stroke-linejoin="round"/>
<path d="M14.5 12.6V10.8C14.5 10.3226 14.6896 9.86477 15.0272 9.52721C15.3648 9.18964 15.8226 9 16.3 9H19.9C20.3774 9 20.8352 9.18964 21.1728 9.52721C21.5103 9.86477 21.7 10.3226 21.7 10.8V12.6M24.4 12.6V25.2C24.4 25.6774 24.2103 26.1352 23.8728 26.4728C23.5352 26.8104 23.0774 27 22.6 27H13.6C13.1226 27 12.6648 26.8104 12.3272 26.4728C11.9896 26.1352 11.8 25.6774 11.8 25.2V12.6H24.4Z" stroke="#F47E16" stroke-width="1.5" stroke-linecap="round" stroke-linejoin="round"/>
<path d="M16.3 17.1001V22.5001" stroke="#F47E16" stroke-width="1.5" stroke-linecap="round" stroke-linejoin="round"/>
<path d="M19.9 17.1001V22.5001" stroke="#F47E16" stroke-width="1.5" stroke-linecap="round" stroke-linejoin="round"/>
<rect opacity="0.1" width="36" height="36" rx="5" fill="#F47E16"/>
</svg>
