<svg width="289" height="193" viewBox="0 0 289 193" fill="none" xmlns="http://www.w3.org/2000/svg">
<path d="M88.1787 89.6102C103.294 86.1347 112.729 71.0642 109.254 55.9493C105.778 40.8345 90.7076 31.3989 75.5927 34.8744C60.4778 38.35 51.0423 53.4204 54.5178 68.5353C57.9933 83.6502 73.0638 93.0858 88.1787 89.6102Z" fill="#B2DFDB"/>
<path d="M103.077 87.4225C97.3449 92.2392 89.9272 95.1773 81.8834 95.1773C73.8395 95.1773 66.4219 92.2873 60.69 87.4707C45.3249 95.37 34.4874 111.554 33.7167 130.483C33.7167 130.483 33.6685 146.378 33.6685 146.523C33.6685 153.17 55.2472 158.565 81.787 158.565C108.375 158.565 129.906 153.17 129.906 146.523L129.954 130.483C129.328 111.506 118.49 95.3218 103.077 87.4225Z" fill="#B2DFDB"/>
<path d="M269.733 0H19.2667C8.62183 0 0 8.62183 0 19.2667V173.4C0 184.045 8.62183 192.667 19.2667 192.667H269.733C280.378 192.667 289 184.045 289 173.4V19.2667C289 8.62183 280.378 0 269.733 0ZM274.55 168.583C274.55 173.882 270.215 178.217 264.917 178.217H24.0833C18.785 178.217 14.45 173.882 14.45 168.583V24.0833C14.45 18.785 18.785 14.45 24.0833 14.45H264.917C270.215 14.45 274.55 18.785 274.55 24.0833V168.583Z" fill="#B2DFDB"/>
<path d="M250.467 74.6584H154.133C151.484 74.6584 149.317 76.8259 149.317 79.4751C149.317 82.1242 151.484 84.2917 154.133 84.2917H250.467C253.116 84.2917 255.283 82.1242 255.283 79.4751C255.283 76.8259 253.116 74.6584 250.467 74.6584Z" fill="#B2DFDB"/>
<path d="M250.467 108.375H154.133C151.484 108.375 149.317 110.543 149.317 113.192C149.317 115.841 151.484 118.008 154.133 118.008H250.467C253.116 118.008 255.283 115.841 255.283 113.192C255.283 110.543 253.116 108.375 250.467 108.375Z" fill="#B2DFDB"/>
<path d="M250.467 142.092H154.133C151.484 142.092 149.317 144.259 149.317 146.908C149.317 149.557 151.484 151.725 154.133 151.725H250.467C253.116 151.725 255.283 149.557 255.283 146.908C255.283 144.259 253.116 142.092 250.467 142.092Z" fill="#B2DFDB"/>
<path d="M250.467 40.9417H154.133C151.484 40.9417 149.317 43.1092 149.317 45.7584C149.317 48.4075 151.484 50.575 154.133 50.575H250.467C253.116 50.575 255.283 48.4075 255.283 45.7584C255.283 43.1092 253.116 40.9417 250.467 40.9417Z" fill="#B2DFDB"/>
</svg>
