<svg width="197" height="140" viewBox="0 0 197 140" fill="none" xmlns="http://www.w3.org/2000/svg">
<path opacity="0.4" d="M185.151 101.49C180.826 101.49 177.271 97.9347 177.271 93.6097C177.271 89.3439 180.707 85.8484 184.973 85.7299C177.567 63.5124 156.653 47.5157 131.947 47.5157C121.816 47.5157 112.277 50.2411 104.101 54.9808C93.7924 39.9914 76.6109 30.2157 57.1187 30.2157C42.6033 30.2157 29.3912 35.6664 19.3193 44.5534C20.8597 46.1531 21.8077 48.3452 21.8077 50.7151C21.8077 55.5733 17.8381 59.5428 12.9799 59.5428C11.2025 59.5428 9.5436 59.0096 8.12168 58.0617C3.08571 66.5339 0.182617 76.4874 0.182617 87.0926C0.182617 108.895 12.4467 127.854 30.5169 137.393H176.205C183.492 127.973 187.817 116.123 187.817 103.326C187.817 102.556 187.817 101.786 187.758 101.016C186.928 101.312 186.04 101.49 185.151 101.49Z" fill="#A5E0DA"/>
<path opacity="0.3" d="M58.5399 94.9725C72.2827 94.9725 83.4235 83.8317 83.4235 70.0888C83.4235 56.346 72.2827 45.2052 58.5399 45.2052C44.797 45.2052 33.6562 56.346 33.6562 70.0888C33.6562 83.8317 44.797 94.9725 58.5399 94.9725Z" fill="#009887"/>
<path d="M149.426 126.492V137.274H90.3573C88.8761 137.274 87.5134 136.682 86.5655 135.675C85.6175 134.727 84.9658 133.364 84.9658 131.883C84.9658 128.921 87.3949 126.492 90.3573 126.492H149.426Z" fill="#009887"/>
<path d="M134.909 126.492H160.978V127.677H134.909C132.598 127.677 130.703 129.572 130.703 131.883C130.703 133.009 131.117 134.075 131.947 134.845C132.717 135.616 133.783 136.09 134.909 136.09H160.978V137.274H134.909C133.428 137.274 132.065 136.682 131.117 135.675C130.169 134.727 129.518 133.364 129.518 131.883C129.518 128.921 131.947 126.492 134.909 126.492Z" fill="#A5E0DA"/>
<path d="M159.734 136.09V127.736H134.91C132.599 127.736 130.703 129.632 130.703 131.942C130.703 133.068 131.118 134.134 131.947 134.905C132.718 135.675 133.784 136.149 134.91 136.149H159.734V136.09Z" fill="white"/>
<path opacity="0.3" d="M130.881 133.127C130.762 132.772 130.703 132.357 130.703 131.942C130.703 129.632 132.599 127.736 134.91 127.736H159.734V130.106H134.91C133.014 130.106 131.414 131.409 130.881 133.127Z" fill="#004F3F"/>
<path d="M155.825 122.226C155.825 124.596 153.929 126.492 151.559 126.492H91.542V117.96H151.559C152.744 117.96 153.81 118.434 154.581 119.204C155.351 120.034 155.825 121.1 155.825 122.226Z" fill="#FFBD00"/>
<path d="M121.343 122.226C121.343 124.596 119.447 126.492 117.077 126.492H91.542V117.96H117.077C118.262 117.96 119.329 118.434 120.099 119.204C120.869 120.034 121.343 121.1 121.343 122.226Z" fill="#FFD600"/>
<path d="M117.077 125.307C118.736 125.307 120.158 123.944 120.158 122.226C120.158 121.396 119.862 120.626 119.269 120.034C118.677 119.441 117.907 119.145 117.137 119.145H92.7861V125.247H117.077V125.307Z" fill="white"/>
<path opacity="0.3" d="M117.078 119.204C117.907 119.204 118.678 119.5 119.211 120.093C119.803 120.685 120.1 121.456 120.1 122.285C120.1 122.522 120.1 122.7 120.04 122.878C119.922 122.285 119.626 121.752 119.211 121.337C118.618 120.745 117.848 120.448 117.078 120.448H92.7275V119.204H117.078Z" fill="#004F3F"/>
<path d="M162.995 110.317C162.995 114.642 159.44 118.197 155.115 118.197H101.438V102.437H155.115C157.307 102.437 159.262 103.326 160.684 104.748C162.106 106.17 162.995 108.125 162.995 110.317Z" fill="#A5E0DA"/>
<path d="M134.852 110.317C134.852 114.642 131.298 118.197 126.973 118.197H101.378V102.437H126.973C129.165 102.437 131.12 103.326 132.542 104.748C133.964 106.17 134.852 108.125 134.852 110.317Z" fill="#009887"/>
<path d="M126.969 116.953C130.642 116.953 133.663 113.991 133.663 110.258C133.663 108.481 132.952 106.822 131.708 105.518C130.464 104.274 128.746 103.563 126.969 103.563H102.618V116.894H126.969V116.953Z" fill="white"/>
<path opacity="0.3" d="M126.969 103.622C128.746 103.622 130.405 104.333 131.708 105.577C132.952 106.822 133.663 108.54 133.663 110.317C133.663 110.85 133.604 111.324 133.486 111.858C133.189 110.673 132.597 109.547 131.708 108.658C130.464 107.414 128.746 106.703 126.969 106.703H102.618V103.622H126.969Z" fill="#004F3F"/>
<path d="M146.523 88.396V102.615H92.0754C90.1203 102.615 88.3429 101.845 87.0395 100.542C85.736 99.2381 84.9658 97.4607 84.9658 95.5056C84.9658 91.5953 88.1651 88.396 92.0754 88.396H146.523Z" fill="#FFD600"/>
<path d="M120.337 88.396H151.56V89.5809H120.278C117.019 89.5809 114.412 92.247 114.412 95.4464C114.412 97.046 115.005 98.5272 116.13 99.5936C117.256 100.719 118.737 101.312 120.278 101.312H151.56V102.497H120.278C118.322 102.497 116.545 101.727 115.242 100.423C113.938 99.1197 113.168 97.3423 113.168 95.3871C113.227 91.5953 116.367 88.396 120.337 88.396Z" fill="#FFBD00"/>
<path d="M150.374 101.43V89.6401H120.336C117.078 89.6401 114.471 92.3062 114.471 95.5056C114.471 97.1052 115.063 98.5864 116.189 99.6528C117.315 100.779 118.796 101.371 120.336 101.371H150.374V101.43Z" fill="white"/>
<path opacity="0.3" d="M114.532 96.6905C114.472 96.335 114.413 95.9202 114.413 95.5648C114.413 92.3062 117.079 89.6993 120.279 89.6993H150.376V91.9507H120.338C117.435 91.8915 115.065 93.9651 114.532 96.6905Z" fill="#004F3F"/>
<path d="M150.848 76.9613V88.4552H109.79C108.19 88.4552 106.768 87.8035 105.702 86.7963C104.635 85.7298 104.043 84.3079 104.043 82.7082C104.043 79.5089 106.591 76.9613 109.79 76.9613H150.848Z" fill="#009887"/>
<path d="M137.934 76.9613H160.981V78.1462H137.934C135.446 78.1462 133.432 80.1606 133.432 82.649C133.432 83.8339 133.906 85.0189 134.735 85.8483C135.565 86.6778 136.749 87.1517 137.934 87.1517H160.981V88.3367H137.934C136.335 88.3367 134.913 87.685 133.846 86.6778C132.78 85.6113 132.188 84.1894 132.188 82.5897C132.188 79.5089 134.735 76.9613 137.934 76.9613Z" fill="#A5E0DA"/>
<path d="M159.737 87.211V78.1462H137.934C135.446 78.1462 133.432 80.1606 133.432 82.649C133.432 83.8339 133.906 85.0189 134.735 85.8483C135.565 86.6778 136.749 87.1517 137.934 87.1517H159.737V87.211Z" fill="white"/>
<path opacity="0.3" d="M133.491 83.5378C133.432 83.2415 133.432 83.0045 133.432 82.7083C133.432 80.22 135.446 78.2056 137.934 78.2056H159.737V79.8645H137.934C135.742 79.8052 133.846 81.4049 133.491 83.5378Z" fill="#004F3F"/>
<path opacity="0.3" d="M141.958 112.687H156.889C157.481 112.687 157.955 112.213 157.955 111.621V109.014C157.955 108.421 157.481 107.947 156.889 107.947H142.018C141.425 107.947 140.951 108.421 140.951 109.014V111.621C140.892 112.213 141.366 112.687 141.958 112.687Z" fill="#009887"/>
<path opacity="0.3" d="M130.112 123.766H148.656C149.604 123.766 150.315 122.996 150.315 122.107C150.315 121.159 149.545 120.448 148.656 120.448H130.112C129.164 120.448 128.453 121.219 128.453 122.107C128.453 122.996 129.223 123.766 130.112 123.766Z" fill="#FFD600"/>
<path opacity="0.3" d="M98.7715 134.312H122.826C124.011 134.312 124.959 133.364 124.959 132.179C124.959 130.994 124.011 130.046 122.826 130.046H98.7715C97.5866 130.046 96.6387 130.994 96.6387 132.179C96.6387 133.364 97.5866 134.312 98.7715 134.312Z" fill="white"/>
<path opacity="0.3" d="M108.426 85.2559H126.378C126.97 85.2559 127.444 84.7819 127.444 84.1894V81.5826C127.444 80.9901 126.97 80.5161 126.378 80.5161H108.426C107.833 80.5161 107.359 80.9901 107.359 81.5826V84.1302C107.359 84.7226 107.833 85.2559 108.426 85.2559Z" fill="white"/>
<path opacity="0.3" d="M89.4122 97.8162H109.852C110.563 97.8162 111.096 97.283 111.096 96.572V93.6097C111.096 92.8987 110.563 92.3655 109.852 92.3655H89.4122C88.7012 92.3655 88.168 92.8987 88.168 93.6097V96.572C88.168 97.2237 88.7604 97.8162 89.4122 97.8162Z" fill="white"/>
<path d="M148.715 69.3185H122.054V77.0798H148.715V69.3185Z" fill="#006B5C"/>
<path d="M148.719 69.3185H136.04V77.0798H148.719V69.3185Z" fill="#007C6B"/>
<path d="M116.309 68.6076L135.09 62.8014L156.774 68.6076L136.038 72.3401L116.309 68.6076Z" fill="#009887"/>
<path d="M156.778 83.4785H154.586L155.178 81.701H156.245L156.778 83.4785Z" fill="#007C6B"/>
<path d="M156.677 81.4603C156.766 80.9113 156.393 80.3939 155.844 80.3048C155.295 80.2157 154.778 80.5885 154.689 81.1376C154.6 81.6867 154.972 82.2041 155.522 82.2932C156.071 82.3823 156.588 82.0094 156.677 81.4603Z" fill="#007C6B"/>
<path d="M155.942 68.5482H155.468V80.8123H155.942V68.5482Z" fill="#007C6B"/>
<path d="M49.6519 106.822C49.415 106.585 49.178 106.407 48.8817 106.229C48.8817 106.229 47.4006 104.866 45.5047 105.34C44.0828 105.696 43.668 107.236 43.6088 107.947C42.8978 108.303 41.1204 109.428 39.5208 112.095C39.4615 112.154 39.4615 112.213 39.4023 112.272C39.2838 112.332 39.2245 112.391 39.106 112.45C39.106 112.569 39.106 112.687 39.106 112.806C38.2173 114.524 37.5064 116.538 37.0916 118.789C37.0916 118.079 37.0324 117.308 37.0324 116.538C36.9139 110.08 37.3879 107.414 37.7434 106.348C37.9211 106.466 38.0988 106.525 38.2766 106.644C41.1797 107.947 41.5351 108.836 41.5351 108.836C41.5351 108.836 43.0163 107.533 42.5423 104.215C42.0091 100.897 38.3951 101.904 37.8618 103.03C35.3142 102.26 35.3142 104.807 37.5064 106.229C37.0916 107.355 36.6177 110.08 36.7362 116.538C36.7362 117.249 36.7954 117.96 36.7954 118.671C36.7954 118.671 36.7362 118.671 36.7362 118.612C36.5584 117.131 36.3807 115.946 36.2029 114.879C36.3214 114.227 36.2029 113.576 35.8475 113.102C35.7882 112.806 35.729 112.569 35.6697 112.332C35.255 110.613 34.8995 109.606 34.6033 109.073C34.6625 108.836 35.3142 105.044 31.3447 104.629C28.7971 104.333 27.0197 106.229 26.0125 107.651C24.9461 108.777 24.7683 109.962 24.7683 109.962C28.6786 107.059 33.0629 108.481 34.307 108.895C34.544 109.369 35.018 110.376 35.492 112.45C35.492 112.569 35.5512 112.628 35.5512 112.746C34.8995 112.213 33.9516 112.213 32.7666 113.28C32.6481 112.865 32.1742 111.858 31.1077 111.561C29.8043 111.206 27.4344 112.272 28.5601 116.834C27.9084 116.834 27.3752 116.953 27.1382 117.012C26.9012 116.538 26.3087 115.531 24.7091 115.886C22.6354 116.301 22.043 121.219 22.043 121.219C23.6426 117.664 27.2567 117.249 27.2567 117.249V117.19C27.4937 117.131 28.0269 117.012 28.6786 117.012C28.6786 117.071 28.7378 117.19 28.7378 117.249C29.4488 119.323 30.6337 120.567 30.6337 120.567C30.6337 120.567 31.2262 119.56 32.4111 118.434C33.0629 118.967 33.7146 119.737 34.3663 120.804C34.3663 121.219 34.3663 121.574 34.4255 121.989C34.2478 121.87 34.0701 121.811 33.8331 121.752C32.4111 121.337 31.0485 122.107 30.5152 122.463C30.456 122.167 30.2783 121.752 29.4488 121.752C28.2639 121.752 27.0197 124.24 27.0197 127.025C27.0197 127.025 29.2711 125.781 31.167 125.129C32.8259 124.536 32.2334 122.463 30.7522 122.522C31.3447 122.167 32.5296 121.574 33.7738 121.93C34.0108 121.989 34.1885 122.107 34.4255 122.226C34.6033 123.47 34.9588 124.714 35.3735 125.484C35.3735 125.484 35.7882 125.129 36.4399 124.655C36.4992 124.833 36.6177 124.951 36.6769 125.129C36.6769 126.788 36.7954 128.565 37.0324 130.461H34.781C34.781 136.386 36.0252 137.097 36.6177 137.097C37.2101 137.097 37.8026 137.097 37.8026 137.097C37.8026 137.097 38.3951 137.097 38.9875 137.097C39.58 137.097 40.8242 136.386 40.8242 130.461H38.1581C38.2766 126.551 39.343 123.885 41.2982 122.344C42.3646 123.351 44.2605 123.944 44.2605 123.944C44.2605 123.944 44.9715 122.344 44.853 121.1C45.6824 121.041 46.3934 121.159 46.8081 121.219C46.8081 121.337 46.8673 121.456 46.9858 121.515C47.756 121.989 49.0595 123.233 49.415 125.603C49.415 125.603 50.2444 118.789 46.9858 120.863C46.9266 120.922 46.8673 120.982 46.8081 121.041C46.3341 120.982 45.6232 120.863 44.7937 120.922C44.7345 120.448 44.5567 120.093 44.142 119.856C43.0163 119.263 42.3646 120.034 42.1276 120.448C41.5351 120.034 41.0019 120.034 40.7057 120.567C40.4095 121.159 40.6464 121.752 41.1204 122.226C39.106 123.766 38.0396 126.492 37.9211 130.461H37.7434H37.6841C37.6249 129.395 37.5656 128.447 37.5656 127.499C37.7433 125.899 37.8618 124.477 38.0396 123.174C38.5136 122.7 38.9283 122.226 39.2838 121.752C40.3502 120.389 39.6392 119.441 38.5728 119.204C39.106 116.123 39.58 114.701 39.817 114.168C40.2317 114.524 40.8834 114.998 41.7721 115.709C43.905 117.545 48.0523 118.967 48.0523 118.967C48.0523 118.967 46.7489 108.481 39.817 112.095C41.2389 109.784 42.8386 108.658 43.6088 108.244C43.6088 108.303 43.6088 108.303 43.6088 108.303C43.6088 108.303 49.178 106.585 51.7256 112.983C51.6663 113.043 51.9626 109.251 49.6519 106.822ZM37.3879 130.52H37.2694C37.2694 130.283 37.3286 130.046 37.3286 129.869C37.3286 130.106 37.3286 130.343 37.3879 130.52ZM36.8546 124.299C36.9139 124.24 36.9731 124.181 37.0324 124.181C37.0324 124.773 37.0916 125.366 37.0916 125.958C37.0324 125.721 36.9139 125.544 36.8546 125.366C36.8546 125.01 36.8546 124.655 36.8546 124.299ZM36.5584 118.612C36.3807 118.552 36.2029 118.552 36.0252 118.552C35.6697 117.605 35.3142 116.953 35.0772 116.538C35.5512 116.242 35.9067 115.827 36.0844 115.412C36.2029 116.36 36.3807 117.427 36.5584 118.612ZM32.4704 118.434C33.1221 117.842 33.8923 117.249 34.8403 116.716C35.0772 117.131 35.3735 117.723 35.729 118.612C35.5512 118.612 35.4327 118.671 35.255 118.73C34.6625 118.967 34.3663 119.678 34.307 120.626C33.7738 119.678 33.1221 118.967 32.4704 118.434ZM36.6177 124.536C36.6177 124.596 36.6177 124.714 36.6177 124.773C36.6177 124.714 36.5584 124.655 36.5584 124.596L36.6177 124.536ZM37.1509 126.551C37.2101 127.321 37.2101 128.032 37.2694 128.684C37.2101 129.098 37.2101 129.454 37.1509 129.869C36.9731 128.447 36.9139 127.084 36.8546 125.84C36.9731 126.077 37.0324 126.314 37.1509 126.551ZM37.2694 123.944C37.4471 123.766 37.6249 123.648 37.7434 123.47C37.6249 124.359 37.5064 125.366 37.3879 126.432C37.3879 125.544 37.3286 124.714 37.2694 123.944ZM38.3951 119.263C38.0988 119.204 37.8026 119.263 37.5064 119.323C37.4471 119.263 37.3879 119.204 37.2694 119.086C37.6841 116.657 38.3951 114.761 39.106 113.339C39.1653 113.635 39.343 113.872 39.6392 114.168C39.4615 114.642 38.9283 116.064 38.3951 119.263Z" fill="#009887"/>
<path d="M179.112 107C179.112 107 184.563 106.763 187.881 110.91C187.881 110.91 187.585 107.651 185.333 105.696C183.082 103.741 179.468 105.518 179.112 107Z" fill="#009887"/>
<path d="M175.969 115.176C175.969 115.176 166.609 115.176 163.231 118.79C163.231 118.79 163.765 114.287 168.03 113.102C172.296 111.917 175.969 115.176 175.969 115.176Z" fill="#009887"/>
<path d="M179.645 101.904C179.645 101.904 182.608 100.068 185.748 101.312C185.748 101.312 183.733 99.0606 181.363 99.5346C179.053 100.009 179.645 101.904 179.645 101.904Z" fill="#009887"/>
<path d="M172.652 98.2902C172.652 98.2902 167.201 97.2238 165.009 98.8235C165.009 98.8235 166.905 95.6241 170.459 95.9204C173.955 96.0981 172.652 98.2902 172.652 98.2902Z" fill="#009887"/>
<path d="M179.17 97.6978C179.17 97.6978 183.08 95.9204 185.569 95.6835C185.569 95.6835 181.955 94.617 180.888 95.4465C179.822 96.1574 179.17 97.6978 179.17 97.6978Z" fill="#009887"/>
<path d="M175.318 95.6243C175.318 95.6243 172.533 94.0839 170.696 93.7284C170.696 93.7284 173.481 93.1952 174.192 93.8469C174.903 94.4393 175.318 95.6243 175.318 95.6243Z" fill="#009887"/>
<path d="M179.703 112.687C179.703 112.687 182.902 111.147 185.924 112.095C185.924 112.095 184.384 109.666 182.428 110.08C180.473 110.495 179.822 111.561 179.703 112.687Z" fill="#009887"/>
<path d="M175.199 103.089C175.199 103.089 171.052 102.734 168.03 105.044C168.03 105.044 168.682 101.727 171.052 101.371C173.481 100.956 174.607 101.904 175.199 103.089Z" fill="#009887"/>
<path d="M175.079 120.034C175.079 120.034 176.086 120.982 175.79 122.522C175.494 124.063 171.761 125.247 169.925 125.07C169.984 125.07 170.162 117.249 175.079 120.034Z" fill="#009887"/>
<path d="M180.826 117.842C180.826 117.842 181.833 118.671 183.136 118.197C184.44 117.723 185.151 115.827 185.151 115.827C185.151 115.827 177.804 114.168 180.826 117.842Z" fill="#009887"/>
<path d="M179.642 121.396C179.642 121.396 178.99 122.167 179.583 123.055C180.116 124.003 183.315 124.892 183.315 124.892C183.315 124.892 183.671 122.404 183.019 121.811C182.367 121.159 180.116 120.567 179.642 121.396Z" fill="#009887"/>
<path d="M175.019 107.414C176.501 107.296 178.811 106.94 178.515 108.184C178.159 109.369 173.894 111.206 173.894 111.206C173.894 111.206 169.213 108.481 170.576 107.414C171.939 106.407 175.019 107.414 175.019 107.414Z" fill="#009887"/>
<path d="M176.268 94.5577C174.965 93.906 174.491 90.8252 176.742 89.581C178.993 88.3368 181.422 88.6923 181.422 88.6923C181.422 88.6923 180.356 91.7139 180.178 92.7803C179.941 93.7875 178.756 95.8019 176.268 94.5577Z" fill="#009887"/>
<path d="M176.979 94.3207H176.683V128.21H176.979V94.3207Z" fill="#009887"/>
<path d="M176.742 101.667C175.083 99.5345 172.357 98.1126 172.357 98.1126L172.476 97.9348C172.476 97.9348 175.261 99.3567 176.919 101.549L176.742 101.667Z" fill="#009887"/>
<path d="M176.921 123.174L176.743 123.055C177.454 121.693 179.765 121.634 179.883 121.634V121.811C179.883 121.871 177.573 121.93 176.921 123.174Z" fill="#009887"/>
<path d="M174.673 120.508L174.495 120.389C174.495 120.33 175.028 119.5 175.799 119.382C176.154 119.323 176.569 119.441 176.924 119.737L176.806 119.915C176.51 119.678 176.154 119.56 175.858 119.619C175.147 119.678 174.673 120.448 174.673 120.508Z" fill="#009887"/>
<path d="M176.738 116.361C175.968 115.176 175.612 115.116 175.612 115.116V114.939C175.672 114.939 176.086 114.998 176.916 116.242L176.738 116.361Z" fill="#009887"/>
<path d="M176.921 118.967L176.743 118.849C178.224 117.071 180.239 116.242 180.239 116.242L180.298 116.42C180.298 116.42 178.343 117.249 176.921 118.967Z" fill="#009887"/>
<path d="M176.921 100.305L176.743 100.186C177.632 98.468 179.587 97.2238 179.646 97.1646L179.765 97.3423C179.765 97.4015 177.75 98.705 176.921 100.305Z" fill="#009887"/>
<path d="M176.921 104.807L176.743 104.689C177.869 102.674 179.765 101.608 179.765 101.608L179.883 101.786C179.824 101.786 178.047 102.852 176.921 104.807Z" fill="#009887"/>
<path d="M176.737 104.274C175.849 103.445 174.604 102.911 174.604 102.911L174.664 102.734C174.723 102.734 175.967 103.267 176.856 104.096L176.737 104.274Z" fill="#009887"/>
<path d="M176.921 109.251L176.743 109.132C177.573 107.592 179.646 106.466 179.765 106.407L179.883 106.585C179.824 106.644 177.75 107.77 176.921 109.251Z" fill="#009887"/>
<path d="M176.916 114.642L176.798 114.524C178.042 113.28 179.938 112.391 179.938 112.391L179.997 112.569C179.997 112.569 178.101 113.398 176.916 114.642Z" fill="#009887"/>
<path d="M181.775 126.551H176.858H171.94C171.94 126.551 172.474 137.156 174.844 137.156H176.858H178.872C181.242 137.156 181.775 126.551 181.775 126.551Z" fill="#009887"/>
<path d="M176.741 97.9941C176.267 96.6314 174.964 95.328 174.904 95.328L175.023 95.2095C175.082 95.2687 176.385 96.5129 176.919 97.9941H176.741Z" fill="#009887"/>
<path d="M56.4657 92.8988C70.2085 92.8988 81.3493 81.7581 81.3493 68.0152C81.3493 54.2724 70.2085 43.1316 56.4657 43.1316C42.7228 43.1316 31.582 54.2724 31.582 68.0152C31.582 81.7581 42.7228 92.8988 56.4657 92.8988Z" fill="#009887"/>
<path d="M56.4649 89.285C68.2117 89.285 77.7345 79.7623 77.7345 68.0154C77.7345 56.2686 68.2117 46.7458 56.4649 46.7458C44.718 46.7458 35.1953 56.2686 35.1953 68.0154C35.1953 79.7623 44.718 89.285 56.4649 89.285Z" fill="#A5E0DA"/>
<path d="M76.5518 68.0153C76.5518 79.0945 67.5463 88.1 56.4671 88.1C55.2229 88.1 53.9788 87.9815 52.7938 87.7445C52.3199 87.6853 51.8459 87.5668 51.3719 87.4483C50.3647 87.152 49.3575 86.8558 48.4096 86.4411C46.9877 85.7894 45.625 85.0191 44.3808 84.1305C41.7147 82.1161 39.5226 79.45 38.1599 76.3691C37.6267 75.1842 37.1527 73.8808 36.8565 72.5773C36.501 71.1554 36.3232 69.615 36.3232 68.0746C36.3232 67.5414 36.3232 67.0081 36.3825 66.5342C36.4417 65.8825 36.501 65.2307 36.6195 64.579C38.1006 56.2845 44.6178 49.7673 52.8531 48.3454C53.5048 48.2269 54.1565 48.1677 54.8082 48.1084C55.3414 48.0492 55.8154 48.0492 56.3486 48.0492C57.8891 48.0492 59.4295 48.2269 60.8514 48.5824C62.1548 48.8786 63.4582 49.2934 64.6432 49.8858C67.724 51.3078 70.3901 53.4406 72.4045 56.1067C73.3524 57.3509 74.1227 58.6544 74.7151 60.1355C75.1298 61.0835 75.4853 62.0907 75.7223 63.0979C75.8408 63.5718 75.9593 64.0458 76.0185 64.5198C76.4333 65.527 76.5518 66.7712 76.5518 68.0153Z" fill="white"/>
<path d="M58.5245 68.0165C58.5284 66.8712 57.6032 65.9397 56.4579 65.9357C55.3127 65.9318 54.3811 66.8571 54.3772 68.0023C54.3733 69.1475 55.2985 70.0791 56.4438 70.083C57.589 70.0869 58.5206 69.1617 58.5245 68.0165Z" fill="#006B5C"/>
<path d="M56.763 51.9001H56.1706C56.0521 51.9001 55.9336 51.7816 55.9336 51.6631V49.5302C55.9336 49.4117 56.0521 49.2932 56.1706 49.2932H56.7038C56.8223 49.2932 56.9408 49.4117 56.9408 49.5302V51.6631C57 51.7816 56.8815 51.9001 56.763 51.9001Z" fill="#FBE600"/>
<path d="M48.4125 54.0924C48.1755 54.2109 47.8793 54.1516 47.7015 53.9146L46.9313 52.5519C46.8128 52.315 46.8721 52.0187 47.1091 51.841C47.346 51.7225 47.6423 51.7817 47.82 52.0187L48.5902 53.3814C48.7087 53.6184 48.6495 53.9146 48.4125 54.0924Z" fill="#FBE600"/>
<path d="M42.4864 59.9577C42.3679 60.1947 42.0124 60.3132 41.7754 60.1355L40.4127 59.3653C40.1757 59.2468 40.0573 58.8913 40.235 58.6543C40.3535 58.4173 40.709 58.2988 40.946 58.4766L42.3086 59.2468C42.5456 59.4245 42.6641 59.7208 42.4864 59.9577Z" fill="#FBE600"/>
<path d="M40.35 67.719V68.2523C40.35 68.3708 40.2315 68.4892 40.113 68.4892H37.9802C37.8617 68.4892 37.7432 68.3708 37.7432 68.2523V67.719C37.7432 67.6005 37.8617 67.4821 37.9802 67.4821H40.113C40.2315 67.4821 40.35 67.6005 40.35 67.719Z" fill="#FBE600"/>
<path d="M42.4854 76.0728C42.6039 76.3098 42.5447 76.606 42.3077 76.7837L40.945 77.5539C40.708 77.6724 40.4118 77.6132 40.2341 77.3762C40.1156 77.1392 40.1748 76.843 40.4118 76.6652L41.7745 75.895C42.0707 75.7173 42.3669 75.8358 42.4854 76.0728Z" fill="#FBE600"/>
<path d="M48.4095 81.9976C48.6465 82.1161 48.765 82.4715 48.5873 82.7085L47.8171 84.0712C47.6986 84.3082 47.3431 84.4267 47.1061 84.2489C46.8691 84.1304 46.7506 83.775 46.9284 83.538L47.6986 82.1753C47.8171 81.9383 48.1725 81.8198 48.4095 81.9976Z" fill="#FBE600"/>
<path d="M56.1706 84.1304H56.7038C56.8223 84.1304 56.9408 84.2489 56.9408 84.3674V86.5002C56.9408 86.6187 56.8223 86.7372 56.7038 86.7372H56.1706C56.0521 86.7372 55.9336 86.6187 55.9336 86.5002V84.3674C55.9336 84.2489 56.0521 84.1304 56.1706 84.1304Z" fill="#FBE600"/>
<path d="M64.5241 81.9975C64.761 81.879 65.0573 81.9382 65.235 82.1752L66.0052 83.5379C66.1237 83.7749 66.0645 84.0711 65.8275 84.2489C65.5905 84.3673 65.2943 84.3081 65.1165 84.0711L64.3463 82.7084C64.1686 82.4122 64.2871 82.116 64.5241 81.9975Z" fill="#FBE600"/>
<path d="M70.3893 76.0728C70.5078 75.8358 70.8633 75.7173 71.1003 75.895L72.463 76.6652C72.6999 76.7837 72.8184 77.1392 72.6407 77.3762C72.5222 77.6132 72.1667 77.7317 71.9297 77.5539L70.5671 76.7837C70.3301 76.606 70.2708 76.3098 70.3893 76.0728Z" fill="#FBE600"/>
<path d="M72.585 68.3116V67.7784C72.585 67.6599 72.7035 67.5414 72.822 67.5414H74.9548C75.0733 67.5414 75.1918 67.6599 75.1918 67.7784V68.3116C75.1918 68.4301 75.0733 68.5486 74.9548 68.5486H72.822C72.6442 68.5486 72.585 68.4301 72.585 68.3116Z" fill="#FBE600"/>
<path d="M70.3893 59.9578C70.2708 59.7208 70.3301 59.4246 70.5671 59.2468L71.9297 58.4766C72.1667 58.3581 72.463 58.4174 72.6407 58.6543C72.7592 58.8913 72.6999 59.1876 72.463 59.3653L71.1003 60.1355C70.8633 60.3133 70.5671 60.1948 70.3893 59.9578Z" fill="#FBE600"/>
<path d="M64.5241 54.0924C64.2871 53.974 64.1686 53.6185 64.3463 53.3815L65.1165 52.0188C65.235 51.7818 65.5905 51.6633 65.8275 51.8411C66.0645 51.9596 66.183 52.315 66.0052 52.552L65.235 53.9147C65.0573 54.1517 64.761 54.2109 64.5241 54.0924Z" fill="#FBE600"/>
<path d="M54.9841 68.2522L55.5173 69.1409L45.5046 74.9471C45.2676 75.0656 44.9714 75.0063 44.7936 74.7693C44.6751 74.5323 44.7344 74.2361 44.9714 74.0584L54.9841 68.2522Z" fill="#006B5C"/>
<path d="M56.9984 66.5933H55.9912V52.6703C55.9912 52.5518 56.1097 52.4333 56.2282 52.4333H56.7614C56.8799 52.4333 56.9984 52.5518 56.9984 52.6703V66.5933Z" fill="#006B5C"/>
<path d="M68.3765 79.5683L57.4751 68.6669C57.5936 68.4892 57.6528 68.2522 57.6528 68.0745C57.6528 67.4228 57.1196 66.8895 56.4679 66.8895C56.4087 66.8895 56.3494 66.8895 56.2309 66.8895C56.1124 66.8895 55.9347 66.9488 55.8162 67.0673L53.0908 64.3419L52.7354 64.6974L55.4607 67.4227C55.4015 67.5412 55.3422 67.6597 55.283 67.8375C55.283 67.8967 55.283 67.956 55.283 68.0745C55.283 68.7262 55.8162 69.2594 56.4679 69.2594C56.7049 69.2594 56.8826 69.2002 57.0604 69.0817L68.021 79.9238L68.3765 79.5683Z" fill="#009887"/>
<path d="M197 138.47C197 138.853 196.904 139.235 196.712 139.554C196.52 139.809 196.232 140 195.943 140H31.0567C30.4803 140 30 139.363 30 138.534C30 138.151 30.0961 137.769 30.2882 137.45C30.4803 137.195 30.7685 137.004 31.0567 137.004H195.943C196.52 136.94 197 137.641 197 138.47Z" fill="#FFBD00"/>
<path d="M105.483 44.8842C105.483 44.8842 101.407 49.2208 98.7863 51.8228C95.8745 47.703 93.909 45.4624 91.07 41.9208C93.4722 43.5832 99.2958 48.7149 99.2958 48.7149L105.483 44.8842Z" fill="#009887"/>
<path d="M127.759 33.7537C124.337 35.0547 115.602 40.2587 115.602 40.2587C115.602 40.2587 103.809 31.4408 101.043 29.7062C107.085 31.6577 116.184 36.7171 116.184 36.7171C116.184 36.7171 124.92 34.2597 127.759 33.7537Z" fill="#009887"/>
<path d="M90.126 1.37328C87.9421 2.89111 81.3178 8.81787 81.3178 8.81787C81.3178 8.81787 73.0191 1.51783 70.9809 0C75.3486 1.66239 81.9001 5.99905 81.9001 5.99905C81.9001 5.99905 88.0877 1.87922 90.126 1.37328Z" fill="#009887"/>
</svg>
