<svg width="24" height="24" viewBox="0 0 24 24" fill="none" xmlns="http://www.w3.org/2000/svg">
<path d="M8.05882 10.8824C7.82353 10.6471 7.82353 10.2941 8.05882 10.0588C8.29412 9.82353 8.64706 9.82353 8.88235 10.0588L11.3529 12.5294V3.58824C11.3529 3.23529 11.7059 3 11.9412 3C12.2941 3 12.5294 3.23529 12.5294 3.58824V12.5294L15 10.0588C15.2353 9.82353 15.5882 9.82353 15.8235 10.0588C16.0588 10.2941 16.0588 10.6471 15.8235 10.8824L12.2941 14.4118C12.1765 14.4118 12.0588 14.5294 11.9412 14.5294C11.8235 14.5294 11.7059 14.5294 11.5882 14.4118L8.05882 10.8824ZM19.8235 14.2941C19.8235 13.9412 20.0588 13.7059 20.4118 13.7059C20.7647 13.7059 21 13.9412 21 14.2941V17.5882C21 18.2941 20.6471 19 20.1765 19.4706C19.7059 19.9412 19 20.2941 18.2941 20.2941H5.70588C5 20.2941 4.29412 19.9412 3.82353 19.4706C3.35294 19 3 18.2941 3 17.5882V14.2941C3 13.9412 3.23529 13.7059 3.58824 13.7059C3.94118 13.7059 4.17647 13.9412 4.17647 14.2941V17.5882C4.17647 18.0588 4.41176 18.4118 4.64706 18.6471C4.88235 18.8824 5.35294 19.1176 5.70588 19.1176H18.1765C18.6471 19.1176 19 18.8824 19.2353 18.6471C19.4706 18.4118 19.7059 17.9412 19.7059 17.5882V14.2941H19.8235Z" fill="#FF7700" stroke="#FF7700"/>
</svg>
