<svg width="184" height="115" viewBox="0 0 184 115" fill="none" xmlns="http://www.w3.org/2000/svg">
<rect width="184" height="115" fill="#EFF8F8"/>
<path fill-rule="evenodd" clip-rule="evenodd" d="M101.649 50.8197H76.7912C75.8089 50.8197 75 51.6733 75 52.7248V71.0826C75 72.1341 75.8089 72.9876 76.7912 73H101.649C102.631 73 103.44 72.1341 103.44 71.0826V52.7372C103.44 51.6857 102.631 50.8197 101.649 50.8197ZM77.0339 52.997H101.395V70.8105H77.0339V52.997Z" fill="#4DB6AC"/>
<path fill-rule="evenodd" clip-rule="evenodd" d="M81.1479 54.9514C84.1641 55.0009 84.1641 59.8007 81.1479 59.8625C78.1433 59.8007 78.1433 55.0009 81.1479 54.9514Z" fill="#FABF2C"/>
<path fill-rule="evenodd" clip-rule="evenodd" d="M77.6927 68.1508L86.0479 61.4831C87.9546 63.0912 88.9138 63.8953 88.9138 63.8953C92.9007 60.7408 94.9 59.1574 94.9 59.1574L100.747 63.7221V70.1053H77.6927V68.1508Z" fill="#FABF2C"/>
<path fill-rule="evenodd" clip-rule="evenodd" d="M83.2281 43.0387L107.577 48.3704C108.536 48.5807 109.16 49.595 108.964 50.6218C108.478 51.5001 106.017 70.1177 104.549 69.9445V62.8438L106.918 50.4486L83.0663 45.2283L82.2342 49.6074H80.1541L81.1248 44.5355C81.3213 43.4964 82.2689 42.8284 83.2281 43.0387Z" fill="#4DB6AC"/>
</svg>
