<svg width="20" height="18" viewBox="0 0 20 18" fill="none" xmlns="http://www.w3.org/2000/svg">
<path d="M8.52699 1.82931L1.23087 14.0096C1.08044 14.2701 1.00085 14.5655 1.00001 14.8663C0.999164 15.1671 1.0771 15.4629 1.22607 15.7243C1.37504 15.9856 1.58984 16.2034 1.84911 16.356C2.10838 16.5085 2.40308 16.5905 2.70388 16.5938H17.2961C17.5969 16.5905 17.8916 16.5085 18.1509 16.356C18.4102 16.2034 18.625 15.9856 18.7739 15.7243C18.9229 15.4629 19.0008 15.1671 19 14.8663C18.9992 14.5655 18.9196 14.2701 18.7691 14.0096L11.473 1.82931C11.3194 1.57615 11.1032 1.36684 10.8452 1.22158C10.5872 1.07631 10.2961 1 10 1C9.7039 1 9.41281 1.07631 9.15479 1.22158C8.89678 1.36684 8.68056 1.57615 8.52699 1.82931V1.82931Z" stroke="#EB4747" stroke-width="1.5" stroke-linecap="round" stroke-linejoin="round"/>
<path d="M10 6.25684V9.70247" stroke="#EB4747" stroke-width="1.5" stroke-linecap="round" stroke-linejoin="round"/>
<path d="M10 13.1484H10.0085" stroke="#EB4747" stroke-width="1.5" stroke-linecap="round" stroke-linejoin="round"/>
</svg>
