<svg width="36" height="36" viewBox="0 0 36 36" fill="none" xmlns="http://www.w3.org/2000/svg">
<circle cx="18" cy="18" r="18" fill="#EFF8F8"/>
<path d="M19.4 19.632L17.992 15.784C17.9227 15.6133 17.8507 15.4107 17.776 15.176C17.7013 14.9413 17.6267 14.688 17.552 14.416C17.4827 14.688 17.4107 14.944 17.336 15.184C17.2613 15.4187 17.1893 15.624 17.12 15.8L15.72 19.632H19.4ZM23.2 24H21.536C21.3493 24 21.1973 23.9547 21.08 23.864C20.9627 23.768 20.8747 23.6507 20.816 23.512L19.952 21.152H15.16L14.296 23.512C14.2533 23.6347 14.1707 23.7467 14.048 23.848C13.9253 23.9493 13.7733 24 13.592 24H11.912L16.464 12.432H18.656L23.2 24Z" fill="#EB5757"/>
</svg>
