<svg width="38" height="38" viewBox="0 0 38 38" fill="none" xmlns="http://www.w3.org/2000/svg">
<path opacity="0.01" fill-rule="evenodd" clip-rule="evenodd" d="M4 4L4 34L34 34L34 4L4 4Z" fill="white"/>
<g filter="url(#filter0_d)">
<circle r="15" transform="matrix(1 0 0 -1 19 19)" fill="#FF7700"/>
</g>
<path fill-rule="evenodd" clip-rule="evenodd" d="M14.7071 23.9179C14.3166 24.3084 14.3166 24.9416 14.7071 25.3321L15.1679 25.7929C15.5584 26.1834 16.1916 26.1834 16.5821 25.7929L23.2929 19.0821C23.6834 18.6916 23.6834 18.0584 23.2929 17.6679L16.5821 10.9571C16.1916 10.5666 15.5584 10.5666 15.1679 10.9571L14.7071 11.4179C14.3166 11.8084 14.3166 12.4416 14.7071 12.8321L20.25 18.375L14.7071 23.9179Z" fill="white"/>
<defs>
<filter id="filter0_d" x="0" y="0" width="38" height="38" filterUnits="userSpaceOnUse" color-interpolation-filters="sRGB">
<feFlood flood-opacity="0" result="BackgroundImageFix"/>
<feColorMatrix in="SourceAlpha" type="matrix" values="0 0 0 0 0 0 0 0 0 0 0 0 0 0 0 0 0 0 127 0"/>
<feOffset/>
<feGaussianBlur stdDeviation="2"/>
<feColorMatrix type="matrix" values="0 0 0 0 0.992157 0 0 0 0 0.529412 0 0 0 0 0.160784 0 0 0 0.5 0"/>
<feBlend mode="normal" in2="BackgroundImageFix" result="effect1_dropShadow"/>
<feBlend mode="normal" in="SourceGraphic" in2="effect1_dropShadow" result="shape"/>
</filter>
</defs>
</svg>
