<svg width="36" height="36" viewBox="0 0 36 36" fill="none" xmlns="http://www.w3.org/2000/svg">
<circle cx="18" cy="18" r="18" fill="#EFF8F8"/>
<path d="M24.1161 12.0267C24.1286 12.0267 24.1411 12.0391 24.1411 12.0516V15.5903C24.4911 15.6443 24.8287 15.7315 25.1538 15.8478V12.0516C25.1538 11.4784 24.687 11.0132 24.1119 11.0132H19.2966V12.0225H24.1161V12.0267Z" fill="#009688"/>
<path d="M19.3949 11.0132H14.8563V12.0225H19.3949V11.0132Z" fill="#009688"/>
<path d="M10.0419 22.514C10.0294 22.514 10.0169 22.5015 10.0169 22.4891V12.0516C10.0169 12.0391 10.0294 12.0267 10.0419 12.0267H14.8945V11.0132H10.0419C9.46678 11.0132 9 11.4784 9 12.0516V22.4891C9 23.0622 9.46678 23.5274 10.0419 23.5274H17.9313C17.7938 23.2034 17.6813 22.867 17.6021 22.5181H10.0419V22.514Z" fill="#009688"/>
<path d="M13.9245 12.3935C13.9245 12.6363 14.1262 12.8353 14.3722 12.8353C14.6182 12.8353 14.8199 12.6363 14.8199 12.3935V10.4418C14.8199 10.1991 14.6182 10 14.3722 10C14.1262 10 13.9245 10.1991 13.9245 10.4418V12.3935Z" fill="#009688"/>
<path d="M19.5953 12.3935C19.5953 12.6363 19.797 12.8353 20.043 12.8353C20.2889 12.8353 20.4906 12.6363 20.4906 12.3935V10.4418C20.4906 10.1991 20.2889 10 20.043 10C19.797 10 19.5953 10.1991 19.5953 10.4418V12.3935Z" fill="#009688"/>
<path d="M13.0755 14.3401H11.4126C11.1 14.3401 10.8458 14.5935 10.8458 14.905V15.9641C10.8458 16.2756 11.1 16.529 11.4126 16.529H13.0755C13.3881 16.529 13.6381 16.2756 13.6381 15.9641V14.9009C13.6381 14.5894 13.3839 14.3401 13.0755 14.3401Z" fill="#009688"/>
<path d="M16.3348 14.3524H14.6719C14.3593 14.3524 14.1093 14.6057 14.1093 14.9172V15.9805C14.1093 16.292 14.3635 16.5412 14.6719 16.5412H16.3348C16.6474 16.5412 16.9016 16.2878 16.9016 15.9805V14.9172C16.9016 14.6057 16.6474 14.3524 16.3348 14.3524Z" fill="#009688"/>
<path d="M19.6936 14.3524H18.0307C17.7181 14.3524 17.4639 14.6057 17.4639 14.9172V15.9805C17.4639 16.292 17.7181 16.5412 18.0307 16.5412H19.6936C20.0062 16.5412 20.2604 16.2878 20.2604 15.9805V14.9172C20.2562 14.6057 20.0062 14.3524 19.6936 14.3524Z" fill="#009688"/>
<path d="M22.9571 14.3149H21.2942C20.9816 14.3149 20.7274 14.5683 20.7274 14.8798V15.9431C20.7274 15.9888 20.7357 16.0344 20.744 16.0801C21.4984 15.7229 22.3402 15.5194 23.228 15.5194C23.3238 15.5194 23.4238 15.5236 23.5197 15.5277V14.8798C23.5197 14.5683 23.2696 14.3149 22.9571 14.3149Z" fill="#009688"/>
<path d="M13.0469 16.8151H11.3882C11.0756 16.8151 10.8214 17.0684 10.8214 17.3758V18.439C10.8214 18.7505 11.0756 19.0039 11.3882 19.0039H13.0511C13.3636 19.0039 13.6137 18.7505 13.6137 18.439V17.3758C13.6137 17.0684 13.3595 16.8151 13.0469 16.8151Z" fill="#009688"/>
<path d="M16.3104 16.8322H14.6475C14.3349 16.8322 14.0848 17.0855 14.0848 17.397V18.4561C14.0848 18.7676 14.3391 19.0168 14.6475 19.0168H16.3104C16.623 19.0168 16.8772 18.7635 16.8772 18.4561V17.3929C16.8772 17.0814 16.623 16.8322 16.3104 16.8322Z" fill="#009688"/>
<path d="M17.4395 17.3929V18.4561C17.4395 18.7386 17.6478 18.9711 17.9229 19.0127C18.2897 18.1612 18.8565 17.4136 19.5608 16.8322H18.0021C17.6937 16.8322 17.4395 17.0814 17.4395 17.3929Z" fill="#009688"/>
<path d="M12.9632 19.4193H11.3003C10.9877 19.4193 10.7335 19.6727 10.7335 19.9842V21.0474C10.7335 21.3589 10.9877 21.6081 11.3003 21.6081H12.9632C13.2757 21.6081 13.5258 21.3548 13.5258 21.0474V19.9842C13.5258 19.6685 13.2757 19.4193 12.9632 19.4193Z" fill="#009688"/>
<path d="M16.2599 19.3949H14.597C14.2844 19.3949 14.0344 19.6483 14.0344 19.9598V21.023C14.0344 21.3345 14.2886 21.5837 14.597 21.5837H16.2599C16.5725 21.5837 16.8225 21.3304 16.8225 21.023V19.9598C16.8225 19.6483 16.5725 19.3949 16.2599 19.3949Z" fill="#009688"/>
<path d="M25.1574 15.8476C24.8323 15.7313 24.4906 15.6441 24.1447 15.5901C23.9404 15.5569 23.7321 15.5361 23.5237 15.5236C23.4278 15.5195 23.332 15.5153 23.2319 15.5153C22.3442 15.5153 21.5023 15.7188 20.748 16.076C20.3229 16.2795 19.927 16.5329 19.5644 16.8278C18.8559 17.4093 18.2891 18.1569 17.9265 19.0083C17.6306 19.7019 17.4639 20.462 17.4639 21.2595C17.4639 21.6873 17.5139 22.1067 17.6014 22.5096C17.6806 22.8585 17.7889 23.1991 17.9306 23.5189C18.8142 25.5665 20.8564 27.0036 23.2319 27.0036C26.4119 27.0036 29 24.4243 29 21.2553C28.9958 18.7674 27.3913 16.6409 25.1574 15.8476ZM23.2278 25.6247C20.8147 25.6247 18.8517 23.6684 18.8517 21.2636C18.8517 18.8588 20.8147 16.9026 23.2278 16.9026C25.6409 16.9026 27.6038 18.8588 27.6038 21.2636C27.608 23.6684 25.645 25.6247 23.2278 25.6247Z" fill="#80CBC4"/>
<path d="M23.1329 21.4752C23.2454 21.2467 23.4621 21.1221 23.6163 21.1969L24.1748 21.4669C24.1915 21.3963 24.1998 21.3215 24.1998 21.2426C24.1998 21.0308 24.1373 20.8356 24.0331 20.6736L23.9164 20.9145C23.8372 21.0765 23.608 21.1263 23.3996 21.0266C23.1912 20.9269 23.087 20.7151 23.1662 20.5531L23.3371 20.2042C23.2704 20.1918 23.2037 20.1835 23.1371 20.1835C22.5494 20.1835 22.0701 20.657 22.0701 21.2467C22.0701 21.8324 22.5452 22.31 23.1371 22.31C23.2996 22.31 23.4538 22.2726 23.5913 22.2062L23.2204 22.0276C23.0579 21.9487 23.0204 21.6995 23.1329 21.4752Z" fill="#009688"/>
<path d="M23.3945 21.027C23.6029 21.1267 23.8321 21.0768 23.9113 20.9149L24.028 20.674L24.9616 18.7551C25.0408 18.5931 24.9366 18.3813 24.7282 18.2816C24.5198 18.1819 24.2906 18.2318 24.2114 18.3937L23.332 20.2005L23.1611 20.5494C23.082 20.7155 23.1862 20.9273 23.3945 21.027Z" fill="#009688"/>
<path d="M26.5754 22.6302L24.1748 21.4672L23.6163 21.1972C23.4579 21.1225 23.2412 21.2471 23.1329 21.4755C23.0203 21.704 23.0578 21.949 23.2162 22.0238L23.5871 22.2024L26.1753 23.4525C26.3336 23.5273 26.5504 23.4027 26.6587 23.1743C26.7671 22.95 26.7296 22.7049 26.5754 22.6302Z" fill="#009688"/>
</svg>
