<svg width="36" height="36" viewBox="0 0 36 36" fill="none" xmlns="http://www.w3.org/2000/svg">
<circle cx="18" cy="18" r="18" fill="#EFF8F8"/>
<path d="M27.5996 23.9691H8.3996V25.1383H27.5996V23.9691Z" fill="#B2DFDB"/>
<path d="M13.8157 10.7999H11.0464V23.9692H13.8157V10.7999Z" fill="#80CBC4"/>
<path d="M13.8157 12.0307H11.0464V12.5845H13.8157V12.0307Z" fill="white"/>
<path d="M13.8157 22.123H11.0464V22.6768H13.8157V22.123Z" fill="white"/>
<path d="M24.8298 12.2768H22.0605V23.9691H24.8298V12.2768Z" fill="#80CBC4"/>
<path d="M24.8298 13.3847H22.0605V13.877H24.8298V13.3847Z" fill="#26A69A"/>
<path d="M24.8298 22.3691H22.0605V22.8614H24.8298V22.3691Z" fill="#26A69A"/>
<path d="M20.1332 11.9611L18.2996 12.1752L19.6773 23.9714L21.5109 23.7572L20.1332 11.9611Z" fill="#80CBC4"/>
<path d="M20.2394 13.0331L18.4058 13.248L18.4631 13.7369L20.2967 13.5221L20.2394 13.0331Z" fill="white"/>
<path d="M20.3995 14.246L18.5533 14.4921L18.4918 13.9383L20.3379 13.7537L20.3995 14.246Z" fill="white"/>
<path d="M21.3223 22.6153L19.5377 22.8614L19.4761 22.3076L21.2608 22.123L21.3223 22.6153Z" fill="white"/>
<path d="M18.3689 13.5692H14.5535V23.9692H18.3689V13.5692Z" fill="#26A69A"/>
<path d="M18.3689 14.5538H14.5535V16.1538H18.3689V14.5538Z" fill="#B2DFDB"/>
<path d="M18.3689 21.3847H14.5535V22.9847H18.3689V21.3847Z" fill="#B2DFDB"/>
<path d="M24.461 14.4922H22.4918V20.3383H24.461V14.4922Z" fill="#26A69A"/>
</svg>
