<svg width="176" height="137" viewBox="0 0 176 137" fill="none" xmlns="http://www.w3.org/2000/svg">
<path d="M123.338 132.805H121.97C121.52 132.805 121.15 132.37 121.15 131.839V121.652C121.15 121.121 121.52 120.702 121.97 120.702H123.338V118.787H36.6463C35.2948 118.787 34.1846 120.075 34.1846 121.652V131.839C34.1846 133.416 35.2787 134.704 36.6463 134.704H123.338V132.805Z" fill="#136FB6"/>
<path d="M123.338 132.804H121.97C121.519 132.804 121.149 132.369 121.149 131.838V121.651C121.149 121.12 121.519 120.701 121.97 120.701H123.338V118.786H78.3506V134.719H123.338V132.804Z" fill="#00695C"/>
<path d="M121.151 131.854V121.651C121.151 121.12 121.521 120.701 121.972 120.701H36.6477C36.1972 120.701 35.8271 121.136 35.8271 121.651V131.838C35.8271 132.369 36.1972 132.804 36.6477 132.804H121.972C121.521 132.804 121.151 132.385 121.151 131.854Z" fill="white"/>
<path d="M121.15 131.854V121.651C121.15 121.12 121.52 120.701 121.971 120.701H76.7102C76.2597 120.701 75.8896 121.136 75.8896 121.651V131.838C75.8896 132.369 76.2597 132.804 76.7102 132.804H121.971C121.52 132.804 121.15 132.385 121.15 131.854Z" fill="#C6CFCE"/>
<path d="M114.471 117.595H113.49C113.168 117.595 112.911 117.306 112.911 116.936V105.396C112.911 105.042 113.168 104.737 113.49 104.737H114.471V103.433H39.8309C38.8655 103.433 38.0771 104.318 38.0771 105.396V116.936C38.0771 118.014 38.8655 118.899 39.8309 118.899H114.471V117.595Z" fill="#00695C"/>
<path d="M114.472 117.595H113.49C113.168 117.595 112.911 117.306 112.911 116.935V105.396C112.911 105.042 113.168 104.736 113.49 104.736H114.472V103.433H69.6777V118.899H114.472V117.595Z" fill="#021E4C"/>
<path d="M112.913 116.935V105.396C112.913 105.042 113.17 104.736 113.492 104.736H39.8331C39.5113 104.736 39.2539 105.026 39.2539 105.396V116.935C39.2539 117.289 39.5113 117.595 39.8331 117.595H113.508C113.186 117.595 112.913 117.305 112.913 116.935Z" fill="white"/>
<path d="M112.912 116.935V105.396C112.912 105.042 113.169 104.736 113.491 104.736H68.504C68.1822 104.736 67.9248 105.026 67.9248 105.396V116.935C67.9248 117.289 68.1822 117.595 68.504 117.595H113.491C113.185 117.595 112.912 117.305 112.912 116.935Z" fill="#C6CFCE"/>
<path d="M47.4736 123.904L44.6096 122.117L41.7617 123.904V114.988H44.6096H47.4736V123.904Z" fill="#FDAF4C"/>
<path d="M47.6826 102.21H48.6319C48.9376 102.21 49.1951 101.936 49.1951 101.598V95.0321C49.1951 94.6942 48.9376 94.4206 48.6319 94.4206H47.6826V93.1653H108.132C109.081 93.1653 109.837 94.0021 109.837 95.016V101.582C109.837 102.596 109.065 103.433 108.132 103.433H47.6826V102.21Z" fill="#00695C"/>
<path d="M47.6826 102.21H48.6319C48.9376 102.21 49.1951 101.936 49.1951 101.598V95.0321C49.1951 94.6942 48.9376 94.4206 48.6319 94.4206H47.6826V93.1653H79.0416V103.433H47.6826V102.21Z" fill="#FCD734"/>
<path d="M49.194 101.598V95.0321C49.194 94.6941 48.9366 94.4205 48.6309 94.4205H108.131C108.453 94.4205 108.694 94.6941 108.694 95.0321V101.598C108.694 101.936 108.437 102.21 108.131 102.21H48.6309C48.9366 102.21 49.194 101.936 49.194 101.598Z" fill="#C3D0E0"/>
<path d="M49.194 101.598V95.0321C49.194 94.6941 48.9366 94.4205 48.6309 94.4205H80.1829C80.5047 94.4205 80.746 94.6941 80.746 95.0321V101.598C80.746 101.936 80.4886 102.21 80.1829 102.21H48.6309C48.9366 102.21 49.194 101.936 49.194 101.598Z" fill="#E4E7EB"/>
<path d="M114.184 85.1184C113.797 87.114 113.604 81.7227 113.604 83.9275C113.604 86.4059 113.862 88.7878 114.344 91.0087H56.3408V85.1184H114.184Z" fill="#D7E7EC"/>
<path opacity="0.2" d="M114.182 85.1187C114.102 85.5854 114.021 86.0521 113.941 86.5188H61.6328V85.1187H114.182Z" fill="#FCD734"/>
<path d="M54.022 83.0101H114.793C115.163 83.0101 115.453 83.2837 115.453 83.6056V85.1023H87.5692V90.9925H115.469V92.4892C115.469 92.8272 115.179 93.0847 114.809 93.0847H54.022C53.6519 93.0847 53.3623 92.8111 53.3623 92.4892V83.5895C53.3623 83.2837 53.668 83.0101 54.022 83.0101Z" fill="#85BFEF"/>
<path d="M39.0259 83.0105H86.008C85.638 83.0105 85.3483 83.2841 85.3483 83.606V92.5218C85.3483 92.8598 85.638 93.1173 86.008 93.1173H39.0259C38.6558 93.1173 38.3662 92.8437 38.3662 92.5218V83.6221C38.3662 83.2841 38.6558 83.0105 39.0259 83.0105Z" fill="#74B1E7"/>
<path d="M39.0259 83.0105H86.008C85.638 83.0105 85.3483 83.2841 85.3483 83.606V85.6016H38.3662V83.606C38.3662 83.2841 38.6558 83.0105 39.0259 83.0105Z" fill="#6CA4D7"/>
<path d="M119.412 81.6107H118.35C117.996 81.6107 117.706 81.2888 117.706 80.8864V68.2369C117.706 67.8506 117.996 67.5288 118.35 67.5288H119.412V66.0964H37.6276C36.5656 66.0964 35.7129 67.062 35.7129 68.2369V80.8864C35.7129 82.0774 36.5656 83.0269 37.6276 83.0269H119.412V81.6107Z" fill="#004D40"/>
<path d="M119.412 81.6104H118.35C117.996 81.6104 117.707 81.2885 117.707 80.8862V68.2366C117.707 67.8504 117.996 67.5285 118.35 67.5285H119.412V66.0962H70.3223V83.0266H119.412V81.6104Z" fill="#01284C"/>
<path d="M117.691 80.9022V68.2527C117.691 67.8664 117.98 67.5446 118.334 67.5446H37.628C37.274 67.5446 36.9844 67.8664 36.9844 68.2527V80.9022C36.9844 81.2885 37.274 81.6264 37.628 81.6264H118.35C117.98 81.6104 117.691 81.2885 117.691 80.9022Z" fill="white"/>
<path d="M117.691 80.9022V68.2527C117.691 67.8664 117.98 67.5446 118.334 67.5446H69.0352C68.6812 67.5446 68.3916 67.8664 68.3916 68.2527V80.9022C68.3916 81.2885 68.6812 81.6264 69.0352 81.6264H118.334C117.98 81.6104 117.691 81.2885 117.691 80.9022Z" fill="#C6CFCE"/>
<path d="M45.9923 86.1487L42.8548 84.2013L39.7334 86.1487V78.7456H42.8548H45.9923V86.1487Z" fill="url(#paint0_linear)"/>
<path d="M108.935 38.4471C108.597 40.4427 108.404 42.5832 108.404 44.788C108.404 47.2664 108.645 49.6483 109.08 51.8692H56.4502V38.4471H108.935Z" fill="#B2DFDB"/>
<path opacity="0.2" d="M108.935 38.4471C108.855 38.9139 108.79 39.3806 108.726 39.8473H61.2451V38.4471H108.935Z" fill="#004D40"/>
<path d="M54.3424 36.3551H109.498C109.836 36.3551 110.093 36.6287 110.093 36.9506V38.4473H84.7681V51.8693H110.093V53.366C110.093 53.704 109.82 53.9615 109.498 53.9615H54.3424C54.0045 53.9615 53.7471 53.6879 53.7471 53.366V36.9506C53.7471 36.6126 54.0045 36.3551 54.3424 36.3551Z" fill="#33A7B4"/>
<path d="M40.7311 36.3551H83.369C83.0311 36.3551 82.7736 36.6287 82.7736 36.9506V53.366C82.7736 53.704 83.0472 53.9615 83.369 53.9615H40.7311C40.3932 53.9615 40.1357 53.6879 40.1357 53.366V36.9506C40.1357 36.6126 40.3932 36.3551 40.7311 36.3551Z" fill="#3DC6C8"/>
<path d="M40.7311 36.3551H83.369C83.0311 36.3551 82.7736 36.6287 82.7736 36.9506V38.9462H40.1357V36.9506C40.1357 36.6126 40.3932 36.3551 40.7311 36.3551Z" fill="#39BABC"/>
<path d="M46.2188 64.6959H47.2646C47.6025 64.6959 47.8921 64.374 47.8921 63.9716V56.1662C47.8921 55.7639 47.6025 55.4259 47.2646 55.4259H46.2188V53.9614H112.444C113.474 53.9614 114.311 54.9431 114.311 56.1502V63.9555C114.311 65.1626 113.474 66.1443 112.444 66.1443H46.2188V64.6959Z" fill="#004D40"/>
<path d="M46.2188 64.6959H47.2646C47.6025 64.6959 47.8921 64.374 47.8921 63.9716V56.1662C47.8921 55.7639 47.6025 55.4259 47.2646 55.4259H46.2188V53.9614H80.5865V66.1443H46.2188V64.6959Z" fill="#009688"/>
<path d="M47.8921 63.9556V56.1502C47.8921 55.7479 47.6025 55.4099 47.2646 55.4099H112.46C112.798 55.4099 113.088 55.7479 113.088 56.1502V63.9556C113.088 64.3579 112.814 64.6798 112.46 64.6798H47.2646C47.6025 64.6959 47.8921 64.374 47.8921 63.9556Z" fill="#B2DFDB"/>
<path d="M47.8921 63.9556V56.1502C47.8921 55.7479 47.6025 55.4099 47.2646 55.4099H81.8416C82.1794 55.4099 82.4691 55.7479 82.4691 56.1502V63.9556C82.4691 64.3579 82.1955 64.6798 81.8416 64.6798H47.2646C47.6025 64.6959 47.8921 64.374 47.8921 63.9556Z" fill="#D7E7EC"/>
<path d="M65.2063 27.5036V26.2644C55.0537 26.2644 45.2389 24.2366 37.5641 20.5673L37.3066 21.7421C45.0458 25.4597 54.9571 27.5036 65.2063 27.5036Z" fill="#004D40"/>
<path d="M114.873 26.2644H64.5928V27.6324H114.873V26.2644Z" fill="#009688"/>
<path d="M114.873 27.6484H64.5928V36.4838H114.873V27.6484Z" fill="#009688"/>
<path d="M67.4111 27.5196H93.3317C87.0245 26.2804 81.2644 25.5401 72.9299 21.7742H37.291C46.0117 25.4757 56.5505 27.5035 67.4111 27.5196Z" fill="#004D40"/>
<path d="M67.4111 27.9704H93.3317C87.0245 27.3267 81.2644 26.9565 72.9299 25.0253H37.291C46.0117 26.9243 56.5505 27.9704 67.4111 27.9704Z" fill="#B2DFDB"/>
<path d="M68.1498 35.1964H35.6484V36.4678H68.1498V35.1964Z" fill="#2EAAD0"/>
<path d="M72.2219 20.5352H37.291V21.7744H72.2219V20.5352Z" fill="#2EAAD0"/>
<path d="M99.8464 27.5036V26.2644C89.6938 26.2644 79.879 24.2366 72.2042 20.5673L71.9307 21.7421C79.702 25.4597 89.6133 27.5036 99.8464 27.5036Z" fill="#009688"/>
<path d="M68.9049 27.5681H37.2725V35.1643H68.9049V27.5681Z" fill="#D8E2E3"/>
<path d="M113.779 27.5681H68.8086V35.1643H113.779V27.5681Z" fill="#C6CFCE"/>
<path d="M19.5657 51.2088C19.5657 51.2088 23.9697 52.3763 25.5278 51.9487C27.0858 51.5211 24.9237 50.0206 26.4747 48.6778C28.7086 46.7019 27.9254 41.5169 25.4868 43.6875C23.049 45.8815 23.9039 47.5899 24.5164 46.255C25.129 44.92 27.6543 41.8311 23.7332 40.3658C19.8121 38.9006 17.4095 40.7413 20.0546 43.3524C22.6762 45.9643 17.7993 38.3575 16.8289 40.925C15.8585 43.4925 18.2293 44.2114 19.0138 44.5139C19.7991 44.8397 16.793 41.2548 16.0422 44.0732C15.2453 46.9166 17.0066 49.0643 19.5657 51.2088Z" fill="#00352D"/>
<path d="M18.541 134.479L23.5395 134.477L20.5946 82.0886L9.86914 79.2543C9.86992 79.2777 12.6742 113.385 18.541 134.479Z" fill="#004D40"/>
<path d="M24.7062 82.9607L39.5306 134.788L33.6287 135.149L12.4805 80.1765L24.7062 82.9607Z" fill="#00796B"/>
<path d="M29.9723 55.1096C29.9723 55.1096 24.1187 51.2911 19.1846 58.1457C14.2512 65.0237 9.32511 79.1548 9.32511 79.1548L25.2023 83.7654L29.6343 63.2661C29.6351 63.2896 32.2212 56.396 29.9723 55.1096Z" fill="#80CBC4"/>
<path d="M30.0295 55.3897C30.0295 55.3897 31.7822 55.1668 31.2104 60.5378C30.6394 65.9323 29.1123 76.4289 28.3326 79.0839C28.1435 79.7475 27.4005 82.8004 25.9564 81.0176C24.535 79.2107 23.3845 72.1602 25.4001 62.9383C26.704 57.003 29.1153 55.4202 30.0295 55.3897Z" fill="#4DB6AC"/>
<path d="M27.4514 80.0756C27.4514 80.0756 26.569 74.7297 25.1062 73.7926C23.666 72.8313 18.0891 69.5669 18.0891 69.5669L16.6773 72.9708C16.6773 72.9708 25.5675 81.2887 26.5826 81.466C27.621 81.6426 27.4624 80.4039 27.4514 80.0756Z" fill="#4DB6AC"/>
<path d="M20.7079 53.0485C21.7629 55.8301 22.4177 57.1697 22.5865 57.3049C23.6969 58.2303 26.8255 55.6376 26.4035 54.9475C25.9815 54.2574 25.2547 50.7607 25.2601 50.2206C25.2414 49.6579 20.0897 51.4026 20.7079 53.0485Z" fill="#F7B68B"/>
<path d="M22.4205 50.9724C23.3449 50.5425 24.2732 50.2298 24.81 50.1415C24.8881 51.0778 24.9429 52.0149 24.9163 52.6261C24.857 54.3651 23.5756 55.3468 22.7786 56.0776C22.5966 56.248 22.3895 56.3723 22.1355 56.4982C21.9089 56.0362 21.476 55.0179 20.7289 53.0241C20.4233 52.3066 21.336 51.525 22.4205 50.9724Z" fill="#EC9568"/>
<path d="M17.8048 45.5869L18.4013 53.6183C18.4013 53.6183 18.535 55.5152 19.3157 55.7004C20.0728 55.8864 22.0786 55.5143 22.8522 54.7843C23.6492 54.0535 24.9306 53.0718 24.9899 51.3327C25.0492 49.5937 24.5599 45.4788 24.5599 45.4788C24.5599 45.4788 23.8597 44.1876 21.3156 45.3054C18.7722 46.4466 17.8048 45.5869 17.8048 45.5869Z" fill="#F7B68B"/>
<path d="M17.9497 43.6102C17.602 43.7392 17.0035 44.0878 16.9066 44.7014C16.8105 45.3384 17.449 46.1856 18.0147 46.2606C18.5804 46.3356 22.1107 45.936 22.5264 45.7344C22.9421 45.5327 23.7547 45.2709 24.0829 44.5557C24.3024 44.1024 22.8928 43.3513 22.1051 43.6593C20.1611 44.4754 19.2468 43.0975 17.9497 43.6102Z" fill="#00352D"/>
<path d="M23.1955 44.7027L23.4519 48.1682L23.8639 49.9619L24.2852 49.9243L25.0566 49.8282C25.0566 49.8282 25.949 44.9159 24.7383 44.5104C23.505 44.129 23.233 44.4198 23.1955 44.7027Z" fill="#00352D"/>
<path d="M24.3674 50.2739C24.3775 50.5787 24.6659 50.7804 24.97 50.7468L25.2974 50.7124C25.6015 50.6787 25.8508 50.4122 25.8172 50.1082L25.728 48.8436C25.6944 48.5396 25.4295 48.3371 25.1254 48.3708L24.7979 48.4052C24.4939 48.4388 24.268 48.7045 24.2782 49.0094L24.3674 50.2739Z" fill="#F0BF97"/>
<path d="M22.0365 134.433L12.777 134.742C12.777 134.742 14.9702 130.843 18.6865 131.094C22.4028 131.346 22.0365 134.433 22.0365 134.433Z" fill="#212957"/>
<path d="M37.0003 134.919L30.1554 135.148C30.1554 135.148 31.7469 131.503 34.5005 131.74C37.2541 131.977 37.0003 134.919 37.0003 134.919Z" fill="#281617"/>
<path d="M5.21289 58.5425L6.25946 59.6577L5.50761 60.3401L5.40521 60.0853L5.21289 58.5425Z" fill="#C5E1F9"/>
<path d="M13.3569 58.646L12.699 57.9168C12.699 57.9168 9.34445 57.9584 8.07081 58.4704C6.79639 58.9589 5.47589 60.1766 5.47589 60.1766C5.47589 60.1766 5.58055 59.0934 5.28439 58.6573C5.08668 58.3587 4.31699 57.7976 3.74735 57.6053C3.13004 57.3912 1.85559 57.1755 1.85559 57.1755L1.19065 57.6437L4.61797 61.1912L6.62146 61.4529L13.3569 58.646Z" fill="#EAF4FE"/>
<path d="M13.5481 58.6396C13.5481 58.6396 9.65048 58.5819 8.41903 58.9517C7.2579 59.3191 6.28352 59.6568 5.93819 60.5603L10.4158 67.4528C10.4158 67.4528 12.2255 66.829 13.7992 66.8704C15.3729 66.9117 17.932 66.9437 17.932 66.9437L13.5481 58.6396Z" fill="#009688"/>
<path d="M5.02716 60.7544C5.02716 60.7544 5.31548 60.2518 4.6833 59.5922C4.05113 58.9326 2.87977 57.5868 0.887235 57.6533C0.840351 57.6549 4.28741 66.0137 4.28741 66.0137L8.72573 66.8044L9.24067 66.7638L5.02716 60.7544Z" fill="#009688"/>
<path d="M5.93668 60.5837L5.02716 60.7549L9.2524 67.116L10.0971 67.1113L10.1369 66.8987L5.93668 60.5837Z" fill="#00796B"/>
<path d="M11.9152 69.5391L11.7909 68.6278C11.2187 68.3652 10.477 67.944 9.72825 67.3117C9.00371 66.7021 8.56288 66.1535 8.42455 66.2285C8.33232 66.2785 8.36672 66.606 8.89745 67.7385" fill="#EC9568"/>
<path d="M14.8539 66.882L13.3333 66.3225L12.3643 65.4159C12.3643 65.4159 11.243 64.1623 10.5507 63.8099C9.85833 63.4574 9.54811 63.3034 9.34027 63.4043C9.13242 63.5051 8.88004 63.6778 9.00273 63.8381C9.14885 63.9975 9.69818 64.2843 10.2358 64.9236C10.75 65.5637 10.9235 65.8396 11.379 66.1295C11.8346 66.4195 12.4457 67.1502 12.4457 67.1502C12.4457 67.1502 12.3144 67.4363 12.1527 67.5121C11.9909 67.5879 10.4117 66.6782 10.1734 66.5688C9.93425 66.436 8.29171 65.0355 8.29171 65.0355L7.51655 64.3102C7.51655 64.3102 7.04145 64.1383 6.8844 64.3548C6.7508 64.5705 6.91645 64.6119 7.30795 65.0918C7.69945 65.5716 7.92529 66.0101 7.92529 66.0101L8.2652 66.3508L9.52955 67.6701L11.5815 68.6814C11.5815 68.6814 11.6917 69.1706 11.6948 69.2644C11.698 69.3582 11.7488 69.4739 11.9613 69.5137C12.1738 69.5536 13.4983 69.8615 13.8585 70.1076C14.2188 70.3538 14.8837 70.5898 15.0033 70.6563C15.1229 70.7227 15.2557 71.1877 15.3776 71.3245C15.4995 71.4613 17.1069 72.5108 17.1069 72.5108L18.4016 71.2235L18.5984 70.0902L17.6271 69.1133L16.6136 66.8702L14.8539 66.882Z" fill="#F7B68B"/>
<path d="M101.649 103.791C101.649 103.791 97.5575 100.106 100.722 94.2501C102.485 91.017 101.558 82.1543 95.8848 84.89C90.2113 87.6483 91.7483 84.2118 88.5386 85.7492C85.3289 87.2866 83.9049 89.5701 84.3344 92.0797C84.7638 94.5893 84.4926 99.3598 82.5035 100.287C80.537 101.214 71.0887 106.346 77.169 112.835C83.272 119.369 105.401 114.598 101.649 103.791Z" fill="#00352D"/>
<path d="M99.659 103.203C99.659 103.203 103.208 114.576 103.027 116.068C102.846 117.56 101.693 122.172 100.314 121.426C98.9356 120.657 96.9917 116.362 96.404 112.925C95.7937 109.489 89.8038 98.2294 99.659 103.203Z" fill="#FABF2C"/>
<path d="M96.0655 101.937C95.5908 101.937 90.1433 101.349 90.1433 101.349L86.4363 102.977C86.4363 102.977 84.5828 102.864 85.0349 105.871C85.5096 108.878 90.3694 120.59 91.2961 121.177C92.2228 121.765 99.4108 122.805 100.564 122.33C101.716 121.856 103.818 121.63 103.818 121.63C103.818 121.63 103.818 113.174 104.045 112.699C104.271 112.224 104.384 109.443 101.716 107.363C99.9081 105.939 96.0655 101.937 96.0655 101.937Z" fill="#FCD734"/>
<path d="M87.9496 104.379C87.9496 104.379 95.7253 114.824 95.8383 116.316C95.9513 117.831 94.5725 122.24 93.058 121.765C91.5436 121.29 88.7634 117.47 87.4976 114.236C86.2092 110.981 81.8015 100.422 87.9496 104.379Z" fill="#FABF2C"/>
<path d="M90.0293 93.8206L90.73 101.349L95.5898 101.937L94.437 97.1893L90.0293 93.8206Z" fill="#F7B68B"/>
<path d="M95.0933 99.6992C94.9577 99.654 94.8221 99.5861 94.6865 99.5183C93.1494 98.7496 91.4768 97.6417 90.3466 96.5791L90.0527 93.2556L94.4604 96.8504L95.0933 99.6992Z" fill="#EC9568"/>
<path d="M98.846 89.5251C98.846 89.5251 99.185 93.346 98.1453 95.5617C97.1055 97.7548 97.2185 99.4957 94.8904 98.3426C92.5622 97.1896 89.895 95.2226 89.3299 93.9339C88.7422 92.6678 89.6689 90.9269 91.1834 91.7408C92.6978 92.5547 92.5848 91.4017 94.0766 91.6278C95.5911 91.8539 98.3713 91.6278 98.846 89.5251Z" fill="#F7B68B"/>
<path d="M97.5808 123.619C97.5808 123.619 110.103 118.171 115.189 117.131C120.297 116.091 124.682 113.31 122.603 118.871C120.523 124.433 106.622 134.404 106.622 134.404C106.622 134.404 92.9244 137.524 97.5808 123.619Z" fill="#004D40"/>
<path d="M116.114 119.098C116.114 119.098 111.006 121.765 109.627 124.772" stroke="#3B47BC" stroke-width="1.2035" stroke-miterlimit="10"/>
<path d="M117.448 106.821L114.147 110.393L117.629 114.53L117.765 114.123C117.765 114.123 116.883 111.23 117.222 109.692C117.607 108.177 117.448 106.821 117.448 106.821Z" fill="#EAF4FE"/>
<path d="M109.968 106.414C109.968 106.414 113.11 108.833 114.127 110.009C115.144 111.184 117.517 113.83 117.608 114.01C117.608 114.01 116.116 109.918 117.472 106.843C117.495 106.798 118.286 106.776 118.286 106.776C118.286 106.776 117.472 108.946 117.495 110.416C117.517 111.885 117.743 113.694 118.308 115.05C118.421 115.299 117.02 115.254 117.02 115.254L108.905 107.296L109.199 106.708L109.968 106.414Z" fill="#C5E1F9"/>
<path d="M102.507 115.435L109.175 106.685C109.175 106.685 112.498 109.014 114.464 111.229C116.431 113.445 117.425 115.118 117.425 115.118L109.514 121.539C109.514 121.516 103.75 115.615 102.507 115.435Z" fill="#009688"/>
<path d="M118.283 115.028C118.283 115.028 117.853 115.322 117.424 115.096C117.311 115.05 109.513 121.517 109.513 121.517C109.513 121.517 109.626 121.856 110.078 121.743C110.507 121.607 118.283 115.028 118.283 115.028Z" fill="#00796B"/>
<path d="M111.616 117.718C111.616 117.718 112.068 117.809 112.34 118.08C112.611 118.351 112.701 118.464 112.701 118.464L113.583 118.871L114.013 118.532V119.301C114.013 119.301 113.968 119.731 113.787 119.821C113.606 119.911 113.289 119.979 113.289 119.979C113.289 119.979 113.221 120.296 112.995 120.477C112.769 120.658 112.634 120.725 112.634 120.725L112.43 121.019L111.978 121.132L111.797 121.268L110.915 121.381C110.915 121.381 110.192 120.59 110.147 120.273C110.101 119.934 110.147 119.55 110.237 119.482C110.328 119.414 110.214 119.03 110.237 118.939C110.26 118.849 110.147 118.623 110.282 118.578C110.418 118.532 110.621 118.532 110.689 118.623C110.757 118.736 110.554 118.284 110.554 118.284C110.554 118.284 110.554 117.967 110.712 117.944C110.87 117.922 111.209 118.216 111.209 118.216C111.209 118.216 111.3 118.284 111.345 118.374C111.39 118.464 111.322 118.148 111.345 118.012C111.368 117.854 111.413 117.696 111.616 117.718Z" fill="#F7B68B"/>
<path d="M106.011 110.619C106.373 110.619 105.243 111.953 105.763 112.066C106.26 112.202 109.447 110.416 109.447 110.416L110.464 110.28L107.978 112.27C107.797 112.36 109.583 111.117 110.532 110.71C111.074 110.484 111.459 110.597 111.594 110.551C111.979 110.416 108.317 112.835 108.317 112.835L109.876 112.338C109.876 112.338 110.713 112.157 110.306 112.631C110.08 112.88 109.741 112.948 109.266 113.604C108.791 114.259 106.554 116.226 104.271 116.52C103.141 116.656 102.372 117.289 102.372 117.289L95.8848 122.579C95.8848 122.579 91.8614 122.308 92.4265 119.572C92.9916 116.814 97.241 116.678 100.609 115.571C102.824 114.847 102.982 114.237 103.457 113.762C103.932 113.287 104.836 110.597 106.011 110.619Z" fill="#F7B68B"/>
<path d="M115.89 130.334C115.89 130.334 118.897 130.809 119.597 130.56C120.298 130.334 123.779 130.221 125.045 131.035C126.311 131.849 127.237 133.816 123.304 134.63C119.371 135.444 114.15 134.743 113.449 134.291C112.748 133.816 114.964 129.882 115.89 130.334Z" fill="#281616"/>
<path d="M116.342 130.108C116.342 130.108 101.627 119.437 98.8464 118.171C96.0662 116.904 91.3194 114.463 90.144 117.018C88.9912 119.572 88.7426 123.054 89.3303 126.174C89.918 129.294 95.4785 133.138 99.5245 133.477C100.926 133.59 99.8636 128.141 99.8636 128.141L113.765 133.816L116.342 130.108Z" fill="#00796B"/>
<path d="M113.674 132.324C113.674 132.324 93.2629 124.795 92.2231 123.755C91.1833 122.715 92.1101 127.802 92.4491 129.091" stroke="#7E89FD" stroke-width="1.2035" stroke-miterlimit="10"/>
<path d="M103.027 131.261C103.027 131.261 105.355 129.181 106.847 128.932C108.361 128.706 110.328 128.005 110.78 129.633C111.255 131.261 109.04 134.155 105.92 134.856C102.801 135.557 101.897 136.258 100.247 135.67C98.9809 135.195 98.6193 133.59 98.8453 132.776C99.0714 131.962 101.626 131.736 103.027 131.261Z" fill="#281616"/>
<path d="M101.025 10.0906C97.6462 9.67213 94.2674 9.26979 90.8885 8.85136C86.5282 8.40073 82.7149 10.4446 82.377 13.3737C82.0069 16.3671 81.6369 19.3766 81.2829 22.37C80.945 25.2829 82.1035 27.6809 87.8475 31.3019C91.2746 33.4746 94.5891 35.1644 97.8393 36.2909L101.025 10.0906Z" fill="#004D40"/>
<path d="M101.009 10.0908C104.387 10.5093 107.766 10.9116 111.161 11.33C115.489 11.9416 118.707 14.8384 118.337 17.7675C117.967 20.7609 117.597 23.7704 117.243 26.7638C116.873 29.6767 115.168 31.7206 108.732 33.845C104.886 35.1164 101.25 35.9693 97.8389 36.2912L101.009 10.0908Z" fill="#00352D"/>
<path d="M98.8842 27.4557L66.7207 10.2838L67.0586 8.86755L134.426 17.1718L134.266 18.5398L98.8842 27.4557Z" fill="#00352D"/>
<path d="M99.0604 26.0877L66.8809 8.91585L102.246 0L134.426 17.1558L99.0604 26.0877Z" fill="#004D40"/>
<path d="M120.156 29.6605C119.802 29.6123 119.561 29.3065 119.593 28.9524L120.558 21.0827L100.446 10.3482C100.14 10.1873 100.012 9.80104 100.189 9.47917C100.35 9.17339 100.736 9.04464 101.058 9.22167L121.556 20.1492C121.781 20.278 121.926 20.5194 121.894 20.793L120.88 29.0973C120.816 29.4513 120.494 29.7088 120.156 29.6605Z" fill="#FCD734"/>
<path d="M120.637 20.8734L101.458 10.6379C101.41 10.6057 101.362 10.5575 101.346 10.4931C101.329 10.4287 101.329 10.3643 101.362 10.316C101.41 10.2356 101.506 10.1712 101.603 10.1873L120.862 20.4389C120.911 20.4711 120.959 20.5194 120.975 20.5838C120.991 20.6481 120.991 20.7125 120.959 20.7608C120.911 20.8573 120.814 20.9056 120.718 20.8895C120.685 20.9056 120.653 20.8895 120.637 20.8734Z" fill="#F0CA67"/>
<path d="M105.366 10.6379C105.206 12.0059 103.42 12.9232 101.408 12.6818C99.3971 12.4404 97.9008 11.1207 98.0617 9.75276C98.2226 8.38481 99.9924 7.46748 102.004 7.72497C104.031 7.95028 105.527 9.26996 105.366 10.6379Z" fill="#30363D"/>
<path d="M104.788 10.0586C104.659 11.0886 102.905 11.7323 100.862 11.4748C98.8186 11.2173 97.274 10.1873 97.3866 9.15734C97.5154 8.12735 99.2692 7.48361 101.313 7.74111C103.372 7.98251 104.917 9.02859 104.788 10.0586Z" fill="#484F59"/>
<path d="M121.057 31.1895C120.977 31.785 120.43 32.2195 119.834 32.139C119.239 32.0586 118.804 31.5275 118.885 30.9159L119.351 27.0374C119.432 26.4419 119.979 26.0074 120.574 26.0879C121.17 26.1683 121.604 26.6994 121.524 27.311L121.057 31.1895Z" fill="#F4DA80"/>
<path d="M122.567 39.2361C121.811 38.3671 121.827 36.6612 121.892 32.0423C121.86 30.9319 121.152 29.934 120.122 29.8053C120.122 29.8053 120.106 29.8053 120.09 29.8053H120.074C119.06 29.6765 118.127 30.4812 117.821 31.5434C116.775 36.0335 116.389 37.7073 115.44 38.351C115.021 39.3649 116.453 40.765 118.69 41.0547C118.69 41.0547 118.706 41.0547 118.722 41.0547H118.738C121.007 41.3444 122.728 40.3305 122.567 39.2361Z" fill="#FCD734"/>
<path d="M118.497 40.363C118.948 40.4113 119.367 40.4113 119.753 40.363C119.833 40.1055 119.882 39.832 119.882 39.5745C119.672 38.7215 119.833 36.919 120.252 32.0266C120.284 31.6242 120.268 31.2541 120.236 30.9161C120.042 30.9 119.865 30.9 119.672 30.8839H119.656C119.64 30.8839 119.624 30.8839 119.624 30.8839C119.431 30.8678 119.254 30.8195 119.077 30.7874C118.964 31.0931 118.868 31.4472 118.803 31.8495C118.031 36.6937 117.741 38.4801 117.339 39.2526C117.274 39.5101 117.258 39.7837 117.274 40.0573C117.645 40.186 118.031 40.2987 118.465 40.363C118.465 40.363 118.481 40.363 118.497 40.363Z" fill="#F0CA67"/>
<path d="M120.106 30.2882L120.959 23.2875C121.104 22.1609 121.12 21.2275 121.023 21.2114C120.911 21.1953 120.718 22.1126 120.573 23.2392L119.72 30.2399L120.106 30.2882Z" fill="#F0CA67"/>
<path d="M122.424 27.3914C122.295 28.4858 121.297 29.2743 120.187 29.1456C119.093 29.0169 118.304 28.019 118.449 26.9086C118.578 25.8142 119.575 25.0256 120.686 25.1705C121.78 25.2831 122.553 26.2809 122.424 27.3914Z" fill="#FCD734"/>
<path d="M122.118 27.1178C122.038 27.8259 121.394 28.3248 120.686 28.2283C119.978 28.1478 119.479 27.5041 119.559 26.796C119.64 26.0878 120.283 25.5889 120.992 25.6694C121.716 25.7821 122.215 26.4258 122.118 27.1178Z" fill="#F4DA80"/>
<path d="M172.264 70.9409C172.602 70.2665 174.22 67.9732 172.04 64.3084C169.859 60.6661 166.42 61.3181 165.364 55.2252C164.307 49.1322 161.453 45.9396 155.766 47.0637C150.079 48.1879 150.641 45.0403 146.505 43.1067C142.369 41.1731 134.704 45.9621 138.255 54.9104C140.458 60.4413 140.975 62.4423 150.506 64.6231C160.194 66.8265 155.945 71.5255 159.722 75.0779C163.521 78.6077 170.152 75.2128 172.264 70.9409Z" fill="#00352D"/>
<path d="M137.603 66.1745C139.963 66.6466 142.84 65.8147 145.492 63.9486C145.447 63.7463 145.425 63.5214 145.38 63.2741C144.458 58.5302 145.829 55.6748 146.594 54.2359C147.38 52.7969 141.446 55.4949 141.446 55.4949C141.604 55.9221 142.323 60.5087 139.985 63.409C138.659 65.0503 138.03 65.7023 137.603 66.1745Z" fill="#F7B68B"/>
<path d="M146.593 54.2359C146.054 55.2476 145.222 56.9338 145.087 59.4969C143.334 61.7228 141.266 63.3865 139.198 64.3758C139.423 64.106 139.693 63.7912 139.985 63.409C142.323 60.5087 141.603 55.8996 141.446 55.4949C141.446 55.4949 147.38 52.7969 146.593 54.2359Z" fill="#EC9568"/>
<path d="M145.38 47.401C145.38 47.401 142.165 49.1772 140.907 51.6503C139.648 54.1235 138.164 56.7315 138.569 58.4628C138.996 60.1715 141.109 59.4071 143.761 58.8C145.829 58.3279 148.527 56.8889 148.167 56.057C147.38 54.2134 146.391 56.1245 146.054 56.1695C145.177 56.2819 146.953 53.7413 147.38 53.5839C149.583 52.8419 143.716 52.0775 145.38 47.401Z" fill="#F7B68B"/>
<path d="M141.625 53.2464C141.265 54.1008 141.445 54.9776 142.029 55.225C142.591 55.4498 143.356 54.9552 143.693 54.1008C144.053 53.2464 143.873 52.3471 143.288 52.1223C142.726 51.8974 141.984 52.3921 141.625 53.2464Z" stroke="#212957" stroke-width="0.8279" stroke-miterlimit="10"/>
<path d="M139.446 51.6054C139.086 52.4598 139.266 53.3366 139.851 53.584C140.413 53.8088 141.177 53.3142 141.514 52.4598C141.874 51.6054 141.694 50.7286 141.11 50.4813C140.548 50.2339 139.806 50.7511 139.446 51.6054Z" stroke="#212957" stroke-width="0.8279" stroke-miterlimit="10"/>
<path d="M141.11 50.4813C140.548 50.2564 139.783 50.7511 139.446 51.6054C139.086 52.4598 139.266 53.3366 139.851 53.584" stroke="white" stroke-width="0.8279" stroke-miterlimit="10"/>
<path d="M143.445 53.8761L146.975 54.9778" stroke="#212957" stroke-width="0.8279" stroke-miterlimit="10"/>
<path d="M134.23 104.733C134.073 104.238 133.983 103.721 133.848 103.249C133.263 102.485 132.724 102.035 132.274 102.013C130.543 101.945 129.936 103.744 132.476 115.458C132.544 115.772 133.016 119.505 133.623 122.045C134.028 123.731 134.68 124.698 134.702 124.541C135.129 117.369 134.769 106.532 134.23 104.733Z" fill="#F7B68B"/>
<path d="M132.995 127.396C131.646 128.948 129.938 129.914 129.421 129.577C128.926 129.262 131.017 126.677 132.545 125.26C133.714 124.159 134.343 123.911 134.838 124.226C135.355 124.541 134.343 125.822 132.995 127.396Z" fill="#194866"/>
<path d="M133.107 126.587C132.231 127.644 130.949 128.228 130.567 127.891C130.163 127.554 132.298 125.778 132.86 125.103C133.355 124.496 133.961 124.024 133.737 122.9C133.399 121.213 133.467 119.82 133.692 119.842C133.692 119.842 134.568 119.707 134.568 120.202C134.591 121.528 134.905 123.911 134.816 124.114C134.546 124.676 134.029 125.485 133.107 126.587Z" fill="#F7B68B"/>
<path d="M141.11 109.207C140.952 108.713 140.84 108.218 140.682 107.723C140.076 106.982 139.536 106.554 139.087 106.554C137.356 106.554 136.299 111.208 139.581 119.999C139.761 120.494 142.616 129.33 142.616 128.97C142.908 121.798 141.694 111.006 141.11 109.207Z" fill="#F7B68B"/>
<path d="M144.236 131.533C144.281 133.332 143.831 134.816 143.224 134.838C142.617 134.861 142.077 133.422 142.032 131.623C141.987 129.824 142.437 128.341 143.044 128.318C143.651 128.296 144.191 129.735 144.236 131.533Z" fill="#194866"/>
<path d="M143.762 130.072C143.942 131.376 143.403 132.59 142.796 132.59C142.188 132.59 141.806 131.556 141.941 130.229C142.121 128.543 142.436 127.869 141.986 126.902C141.536 125.89 141.671 124.946 141.851 124.833C142.031 124.721 142.751 125.171 142.728 125.665C142.706 126.362 142.93 127.037 143.02 127.239C143.29 127.801 143.56 128.7 143.762 130.072Z" fill="#F7B68B"/>
<path d="M128.387 81.0134C128.387 81.0134 126.432 82.7896 127.264 87.0614C127.848 90.0517 128.387 95.8973 129.354 98.5279C129.781 99.652 130.231 100.731 130.523 101.046C131.467 102.058 133.153 103.609 133.378 101.743C133.625 99.8769 133.49 90.8836 134.681 89.0175C135.895 87.1513 140.795 81.1933 128.387 81.0134Z" fill="#B2DFDB"/>
<path d="M129.939 101.923C130.298 103.834 130.231 104.441 130.231 105.363C130.231 105.363 132.973 104.666 134.816 105.925C135.064 106.105 134.884 103.632 134.704 103.047C134.592 102.665 134.232 101.473 133.872 100.641C133.513 99.8094 131.602 97.6735 131.49 97.0215C131.377 96.3695 129.467 94.4134 128.995 98.4155C128.882 99.3373 129.826 101.271 129.939 101.923Z" fill="#B2DFDB"/>
<path d="M139.446 85.1278C139.446 85.1278 141.02 87.3761 141.514 89.2197C142.009 91.0409 142.099 95.6724 140.84 98.258C139.581 100.866 141.2 101.675 141.245 102.507C141.312 103.339 140.548 106.105 139.222 106.195C137.918 106.284 135.221 103.766 135.625 102.44C136.007 101.113 134.209 94.166 134.164 91.7378C134.119 89.3097 134.366 84.2509 139.446 85.1278Z" fill="#B2DFDB"/>
<path d="M139.986 101.473C139.986 101.473 141.424 101.473 141.829 105.633C142.233 109.792 142.368 113.412 142.368 113.412C142.368 113.412 137.558 113.007 137.738 113.817C137.918 114.648 136.546 108.6 135.94 106.779C135.333 104.958 136.389 103.025 136.906 101.878C137.423 100.709 139.469 101.046 139.986 101.473Z" fill="#B2DFDB"/>
<path d="M172.108 60.531L173.254 60.9132C173.254 60.9132 174.806 60.8233 174.985 61.0706C175.165 61.2954 173.794 61.4078 173.794 61.4078L171.995 61.3404L172.108 60.531Z" fill="#EC9568"/>
<path d="M172.084 61.0931L173.231 61.4753C173.231 61.4753 174.782 61.3854 174.962 61.6327C175.142 61.8576 173.77 61.97 173.77 61.97L171.972 61.9025L172.084 61.0931Z" fill="#EC9568"/>
<path d="M171.41 60.1487L172.557 60.5309C172.557 60.5309 174.108 60.441 174.288 60.6883C174.468 60.9131 173.097 61.0255 173.097 61.0255L171.298 60.9581L171.41 60.1487Z" fill="#EC9568"/>
<path d="M169.206 59.9916C169.206 59.9916 169.611 59.1372 171.072 59.2946C172.533 59.452 173.634 59.9017 172.668 59.9916C171.701 60.0815 172.016 59.9916 172.443 60.8684C172.87 61.7453 172.87 61.7453 172.87 61.7453C172.87 61.7453 173.859 62.0376 174.174 62.2174C174.488 62.3748 174.376 62.6896 174.376 62.6896L172.623 62.3748C172.623 62.3748 171.297 61.6554 170.847 61.6104C170.397 61.5654 169.273 61.8802 169.273 61.8802L169.206 59.9916Z" fill="#F7B68B"/>
<path d="M126.162 46.3667L125.083 45.6472C125.083 45.6472 124.161 44.2758 123.846 44.2758C123.531 44.2758 124.341 45.4899 124.341 45.4899L125.555 46.9513L126.162 46.3667Z" fill="#EC9568"/>
<path d="M125.691 46.7485L124.612 46.0291C124.612 46.0291 123.69 44.6576 123.375 44.6576C123.061 44.6576 123.87 45.8717 123.87 45.8717L125.084 47.3331L125.691 46.7485Z" fill="#EC9568"/>
<path d="M126.927 46.704L125.847 45.9845C125.847 45.9845 124.926 44.613 124.611 44.613C124.296 44.613 125.105 45.8271 125.105 45.8271L126.319 47.2885L126.927 46.704Z" fill="#EC9568"/>
<path d="M127.892 48.3227C127.892 48.3227 128.567 47.1761 127.848 46.4341C126.769 45.31 125.69 44.658 126.229 45.5348C126.791 46.4117 126.656 46.0744 125.645 46.2992C124.633 46.5241 124.633 46.5241 124.633 46.5241C124.633 46.5241 123.734 45.8721 123.397 45.7372C123.06 45.5798 122.857 45.8721 122.857 45.8721L124.274 47.1536C124.274 47.1536 125.735 47.8056 126.072 48.1429C126.409 48.4801 128.05 49.267 128.05 49.267L127.892 48.3227Z" fill="#F7B68B"/>
<path d="M142.12 81.7778C142.12 81.7778 141.805 86.6791 142.03 89.8942C142.255 93.1318 137.624 93.4241 127.554 88.4104C126.498 87.8932 126.116 83.509 129.038 76.2694C131.982 69.0298 140.187 76.4493 142.12 81.7778Z" fill="#80CBC4"/>
<path d="M138.818 62.8696C138.818 62.8696 136.548 56.934 134.637 53.9437C132.704 50.9534 129.557 47.1763 129.557 47.1763C129.557 47.1763 127.534 47.491 127.489 49.0649C127.444 50.6387 128.231 50.7286 129.759 53.6739C131.288 56.6192 134.772 63.4766 133.85 67.0964C132.929 70.6937 138.638 63.2518 138.818 62.8696Z" fill="#80CBC4"/>
<path d="M150.506 66.1295C150.506 66.1295 147.022 64.151 145.741 63.7463C144.459 63.3416 139.604 65.9722 139.402 66.4893C139.042 67.3661 140.278 62.4423 140.278 62.4423L137.469 61.7903C137.469 61.7903 133.985 64.7131 130.433 71.7504C126.882 78.7651 125.96 80.0017 126.072 81.4631C126.072 81.4631 125.713 79.8443 129.939 79.8893C133.535 79.9343 135.491 79.7994 139.469 83.5765C146.55 90.299 143.335 84.5208 144.235 81.1933C144.976 78.4504 146.37 76.2695 147.539 75.0779C148.73 73.8863 145.875 70.9185 150.506 66.1295Z" fill="#B2DFDB"/>
<path d="M149.809 66.3094C149.809 66.3094 157.519 63.5664 160.014 62.5322C162.509 61.4755 169.185 58.5077 169.185 58.5077C169.185 58.5077 169.926 61.498 169.567 62.2624C169.23 63.0268 158.283 68.7151 153.293 70.806C148.303 72.9194 147.426 75.9997 147.044 74.7631C146.639 73.5265 146.527 69.7943 149.809 66.3094Z" fill="#80CBC4"/>
<path d="M141.874 56.192C142.324 56.192 142.773 56.2145 143.201 56.237C143.133 57.0689 142.391 57.7209 141.492 57.7209C140.615 57.7209 139.896 57.0914 139.783 56.282C140.458 56.2145 141.155 56.192 141.874 56.192Z" fill="white"/>
<defs>
<linearGradient id="paint0_linear" x1="42.86" y1="86.1449" x2="42.86" y2="78.7504" gradientUnits="userSpaceOnUse">
<stop offset="0.863" stop-color="#5DCEC9"/>
<stop offset="1" stop-color="#33A7B4"/>
</linearGradient>
</defs>
</svg>
