<svg width="36" height="36" viewBox="0 0 36 36" fill="none" xmlns="http://www.w3.org/2000/svg">
<circle cx="18" cy="18" r="18" fill="#EFF8F8"/>
<path d="M8.3996 15.444C8.3996 14.7416 8.98496 14.2147 9.62887 14.2147H19.4045C20.1069 14.2147 20.6337 14.8001 20.6337 15.444V15.5611V21.3562C20.6337 22.0586 20.0484 22.5855 19.4045 22.5855H14.1947H13.6094L12.1459 24.1074L10.9167 22.5855H9.6874C8.98496 22.5855 8.45813 22.0001 8.45813 21.3562V15.444H8.3996Z" fill="#4DB6AC"/>
<path d="M27.6001 19.483C27.6001 20.1854 27.0148 20.7122 26.3709 20.7122H25.083L23.7952 22.2927L22.3318 20.7708H21.7465H16.5367C15.8343 20.7708 15.3074 20.1854 15.3074 19.5415V13.7464V13.6293C15.3074 12.9269 15.8928 12.4 16.5367 12.4H26.3123C27.0148 12.4 27.5416 12.9854 27.5416 13.6293V19.483H27.6001Z" fill="#B2DFDB"/>
</svg>
