<svg width="14" height="20" viewBox="0 0 14 20" fill="none" xmlns="http://www.w3.org/2000/svg">
<path d="M6.72798 1C6.077 1 5.45267 1.2586 4.99236 1.71892C4.53204 2.17924 4.27344 2.80356 4.27344 3.45455V10C4.27344 10.651 4.53204 11.2753 4.99236 11.7356C5.45267 12.1959 6.077 12.4545 6.72798 12.4545C7.37897 12.4545 8.00329 12.1959 8.46361 11.7356C8.92393 11.2753 9.18253 10.651 9.18253 10V3.45455C9.18253 2.80356 8.92393 2.17924 8.46361 1.71892C8.00329 1.2586 7.37897 1 6.72798 1V1Z" stroke="#4DB6AC" stroke-width="1.5" stroke-linecap="round" stroke-linejoin="round"/>
<path d="M12.4545 8.36377V10.0001C12.4545 11.5191 11.8511 12.9759 10.7771 14.0499C9.70299 15.124 8.24624 15.7274 6.72727 15.7274C5.20831 15.7274 3.75155 15.124 2.67748 14.0499C1.60341 12.9759 1 11.5191 1 10.0001V8.36377" stroke="#4DB6AC" stroke-width="1.5" stroke-linecap="round" stroke-linejoin="round"/>
<path d="M6.72656 15.7271V18.9998" stroke="#4DB6AC" stroke-width="1.5" stroke-linecap="round" stroke-linejoin="round"/>
<path d="M3.45312 19H9.99858" stroke="#4DB6AC" stroke-width="1.5" stroke-linecap="round" stroke-linejoin="round"/>
</svg>
