<svg width="31" height="38" viewBox="0 0 31 38" fill="none" xmlns="http://www.w3.org/2000/svg">
<path fill-rule="evenodd" clip-rule="evenodd" d="M7.95137 26.4716C8.19154 26.2315 8.56514 26.2315 8.80531 26.4716C9.04547 26.7118 9.04547 27.0854 8.80531 27.3256L6.53705 29.5938C6.29688 29.834 5.92328 29.834 5.68311 29.5938L4.69575 28.6065C4.45558 28.3663 4.45558 27.9927 4.69575 27.7525C4.93592 27.5124 5.30952 27.5124 5.54968 27.7525L6.11008 28.3129L7.95137 26.4716Z" fill="#009688"/>
<path fill-rule="evenodd" clip-rule="evenodd" d="M14.4901 27.8862C14.8371 27.8862 15.1039 28.1531 15.1039 28.5C15.1039 28.8469 14.8371 29.1138 14.4901 29.1138H10.0337C9.68678 29.1138 9.41992 28.8469 9.41992 28.5C9.41992 28.1531 9.68678 27.8862 10.0337 27.8862H14.4901Z" fill="#B2DFDB"/>
<path fill-rule="evenodd" clip-rule="evenodd" d="M17.5329 23.1099C17.8799 23.1099 18.1467 23.3767 18.1467 23.7236C18.1467 24.0705 17.8799 24.3374 17.5329 24.3374H10.061C9.71412 24.3374 9.44727 24.0705 9.44727 23.7236C9.44727 23.3767 9.71412 23.1099 10.061 23.1099H17.5329Z" fill="#B2DFDB"/>
<path fill-rule="evenodd" clip-rule="evenodd" d="M7.95137 21.6953C8.19154 21.4551 8.56514 21.4551 8.80531 21.6953C9.04547 21.9354 9.04547 22.309 8.80531 22.5492L6.53705 24.8175C6.29688 25.0576 5.92328 25.0576 5.68311 24.8175L4.69575 23.8301C4.45558 23.5899 4.45558 23.2163 4.69575 22.9762C4.93592 22.736 5.30952 22.736 5.54968 22.9762L6.11008 23.5366L7.95137 21.6953Z" fill="#009688"/>
<path fill-rule="evenodd" clip-rule="evenodd" d="M7.95137 16.9184C8.19154 16.6782 8.56514 16.6782 8.80531 16.9184C9.04547 17.1586 9.04547 17.5322 8.80531 17.7723L6.53705 20.0406C6.29688 20.2808 5.92328 20.2808 5.68311 20.0406L4.69575 19.0532C4.45558 18.8131 4.45558 18.4395 4.69575 18.1993C4.93592 17.9591 5.30952 17.9591 5.54968 18.1993L6.11008 18.7597L7.95137 16.9184Z" fill="#009688"/>
<path fill-rule="evenodd" clip-rule="evenodd" d="M18.6798 18.333C19.0267 18.333 19.2935 18.5999 19.2935 18.9468C19.2935 19.2937 19.0267 19.5605 18.6798 19.5605H10.0337C9.68678 19.5605 9.41992 19.2937 9.41992 18.9468C9.41992 18.5999 9.68678 18.333 10.0337 18.333H18.6798Z" fill="#B2DFDB"/>
<path fill-rule="evenodd" clip-rule="evenodd" d="M18.6798 13.5562C19.0267 13.5562 19.2935 13.823 19.2935 14.1699C19.2935 14.5168 19.0267 14.7837 18.6798 14.7837H10.0337C9.68678 14.7837 9.41992 14.5168 9.41992 14.1699C9.41992 13.823 9.68678 13.5562 10.0337 13.5562H18.6798Z" fill="#B2DFDB"/>
<path fill-rule="evenodd" clip-rule="evenodd" d="M7.95137 12.142C8.19154 11.9019 8.56514 11.9019 8.80531 12.142C9.04547 12.3822 9.04547 12.7558 8.80531 12.996L6.53705 15.2642C6.29688 15.5044 5.92328 15.5044 5.68311 15.2642L4.69575 14.2769C4.45558 14.0367 4.45558 13.6631 4.69575 13.4229C4.93592 13.1828 5.30952 13.1828 5.54968 13.4229L6.11008 13.9833L7.95137 12.142Z" fill="#009688"/>
<path fill-rule="evenodd" clip-rule="evenodd" d="M15.5288 2.40169H13.4207V1.4677C13.4207 1.06742 13.2606 0.693821 12.9937 0.426967C12.7269 0.160112 12.3533 0 11.953 0C11.5527 0 11.1791 0.160112 10.9122 0.426967C10.6454 0.693821 10.4853 1.06742 10.4853 1.4677V2.40169H8.37713C7.41646 2.40169 6.64258 3.17556 6.64258 4.13624C6.64258 5.09691 7.41646 5.87079 8.37713 5.87079H15.5822C16.5429 5.87079 17.3167 5.09691 17.3167 4.13624C17.2634 3.17556 16.4895 2.40169 15.5288 2.40169ZM12.4867 2.16152H11.3926V1.4677C11.3926 1.30759 11.446 1.17416 11.5527 1.06742C11.6594 0.960675 11.7929 0.907304 11.953 0.907304C12.1131 0.907304 12.2465 0.960675 12.3533 1.06742C12.46 1.17416 12.5134 1.30759 12.5134 1.4677V2.16152H12.4867Z" fill="#4DB6AC"/>
<path fill-rule="evenodd" clip-rule="evenodd" d="M2.34832 3.81592H5.71068C5.71068 3.92266 5.68399 4.0294 5.68399 4.13614C5.68399 5.57716 6.85815 6.778 8.32585 6.778H15.5309C16.9719 6.778 18.1728 5.60384 18.1728 4.13614C18.1728 4.0294 18.1728 3.92266 18.1461 3.81592H21.5084C22.7893 3.81592 23.8568 4.88333 23.8568 6.16423V22.0687C23.7233 22.0687 23.6166 22.0687 23.4832 22.0687C22.8427 22.0687 22.2023 22.1488 21.6152 22.2822V9.95356C21.6152 9.90019 21.5618 9.87351 21.5351 9.87351H2.34832C2.29495 9.87351 2.26826 9.92688 2.26826 9.95356V32.903C2.26826 32.9564 2.32163 32.9831 2.34832 32.9831H14.8638C15.0506 33.7836 15.3441 34.5308 15.7444 35.2513H2.34832C1.06742 35.2513 0 34.1839 0 32.903V6.16423C0 4.85665 1.06742 3.81592 2.34832 3.81592Z" fill="#B2DFDB"/>
<path fill-rule="evenodd" clip-rule="evenodd" d="M23.4818 23.8569C19.559 23.8569 16.4102 27.0325 16.4102 30.9286C16.4102 34.8513 19.5857 38.0002 23.4818 38.0002C27.4045 38.0002 30.5534 34.8246 30.5534 30.9286C30.5801 27.0058 27.4045 23.8569 23.4818 23.8569ZM28.2585 28.8471L22.6012 34.5044C22.1742 34.9314 21.4537 34.9314 21 34.5044L18.4382 31.9426C18.0113 31.5156 18.0113 30.7951 18.4382 30.3415C18.8652 29.9145 19.5857 29.9145 20.0394 30.3415L21.8006 32.1027L26.6574 27.246C27.0843 26.819 27.8048 26.819 28.2585 27.246C28.6854 27.6996 28.6854 28.3935 28.2585 28.8471Z" fill="#4DB6AC"/>
</svg>
