<svg width="36" height="36" viewBox="0 0 36 36" fill="none" xmlns="http://www.w3.org/2000/svg">
<circle cx="18" cy="18" r="18" fill="#EFF8F8"/>
<path d="M13.5109 8.46615L10.8 11.1771L10.8661 27.2443L24.6191 27.1782L24.4869 8.40002L13.5109 8.46615Z" fill="#B2DFDB"/>
<path d="M13.5111 11.1771V8.46619L10.8002 11.1771H13.5111Z" fill="#FCD734"/>
<path d="M25.1481 24.0707C25.8755 24.798 25.8755 25.8559 25.2142 26.5171L24.6192 27.1122C23.958 27.7734 22.8339 27.7734 22.1727 27.0461L21.1148 25.9881C20.3875 25.2608 20.3875 24.2029 21.0487 23.5417L21.6437 22.9466C22.3049 22.2854 23.429 22.2854 24.0902 23.0127L25.1481 24.0707Z" fill="#009688"/>
<path d="M23.8916 22.4177C24.2883 22.8145 24.2883 23.4757 23.8916 23.8724L21.8418 25.9221C21.4451 26.3189 20.7839 26.3189 20.3872 25.9221C19.9905 25.5254 19.9905 24.8642 20.3872 24.4675L22.4369 22.4177C22.8337 21.9549 23.4949 21.9549 23.8916 22.4177Z" fill="#00796B"/>
<path d="M23.8262 22.2193C24.2229 22.616 24.2229 23.2772 23.8262 23.7401L21.7103 25.8559C21.3136 26.2526 20.6524 26.2526 20.1896 25.8559C19.7928 25.4592 19.7928 24.798 20.1896 24.3351L22.3054 22.2193C22.7683 21.8226 23.4295 21.8226 23.8262 22.2193Z" fill="#009688"/>
<path d="M20.3873 24.2028L20.9162 23.6738L21.313 23.2771L21.4452 23.1449L21.6436 22.9465L22.3709 22.2192C22.3048 22.1531 22.2386 22.0208 22.1064 21.9547L20.1889 23.9383C20.1889 24.0044 20.3211 24.1367 20.3873 24.2028Z" fill="#B2DFDB"/>
<path d="M21.6434 19.31L15.8248 17.4586L15.7587 17.5247L18.1391 19.839L18.9986 20.6985C19.197 20.5663 19.5276 20.5663 19.7259 20.7646C19.9243 20.963 19.9904 21.3597 19.7259 21.6242C19.5276 21.8887 19.1309 21.8887 18.8664 21.6242C18.668 21.4258 18.668 21.0952 18.8003 20.8969L18.0068 20.0373L15.6265 17.7231L15.5604 17.7892L17.4779 23.6078C17.4779 23.6078 18.7341 22.9466 20.1227 23.9384L22.0402 21.9548C20.9822 20.6324 21.6434 19.31 21.6434 19.31Z" fill="#00897B"/>
</svg>
