<svg width="190" height="30" viewBox="0 0 190 30" fill="none" xmlns="http://www.w3.org/2000/svg">
<path d="M26.8173 19.5928C27.8359 19.5928 28.6616 18.767 28.6616 17.7484C28.6616 16.7298 27.8359 15.9041 26.8173 15.9041C25.7986 15.9041 24.9729 16.7298 24.9729 17.7484C24.9729 18.767 25.7986 19.5928 26.8173 19.5928Z" fill="#FFA300"/>
<path d="M10.9423 13.2033C10.613 13.2033 10.2178 13.1374 9.88843 13.0716L2.70863 11.0296C2.18167 10.8979 1.91819 10.3709 2.04993 9.84395C2.18167 9.317 2.70863 9.05352 3.23558 9.18526L10.3495 11.2272C11.0082 11.4248 11.7328 11.2272 12.2597 10.7661C12.7867 10.2392 12.9843 9.58048 12.7867 8.85591L10.9423 1.61024C10.8106 1.08328 11.14 0.622193 11.601 0.490454C12.128 0.358714 12.5891 0.688063 12.7208 1.14915L14.5652 8.39482C14.8945 9.77808 14.4993 11.1613 13.5113 12.0835C12.8526 12.8081 11.9304 13.2033 10.9423 13.2033Z" fill="#A5E0DA"/>
<path d="M20.7606 12.4128C19.9702 12.4128 19.1139 12.1494 18.3893 11.7542C17.0719 10.8978 16.2815 9.44871 16.3473 7.86784L16.6108 1.34674C16.6108 0.819779 17.0719 0.424561 17.5989 0.424561C18.1258 0.424561 18.521 0.885649 18.521 1.41261L18.2575 7.93371C18.1917 8.85589 18.6528 9.64632 19.3773 10.1733C20.1678 10.6344 21.0899 10.7002 21.8804 10.305L27.6769 7.27501C28.138 7.01153 28.7308 7.20914 28.9284 7.67023C29.1919 8.13132 28.9943 8.72415 28.5332 8.92175L22.8026 11.8859C22.1439 12.2152 21.4193 12.4128 20.7606 12.4128Z" fill="#A5E0DA"/>
<path d="M20.3651 12.2148C19.5747 12.2148 18.7183 11.9513 17.9938 11.4902C16.6764 10.6339 15.8859 9.1848 15.9518 7.60392L16.2153 1.08282C16.2153 0.555863 16.6764 0.160645 17.2033 0.160645C17.7303 0.160645 18.1255 0.621733 18.1255 1.14869L17.862 7.66979C17.7962 8.59197 18.2573 9.38241 18.9818 9.90936C19.7723 10.3705 20.6944 10.4363 21.4849 10.0411L27.2814 7.0111C27.7425 6.74762 28.3353 6.94523 28.5329 7.40631C28.7964 7.8674 28.5988 8.46023 28.1377 8.65784L22.4071 11.6878C21.7484 12.0172 21.0897 12.2148 20.3651 12.2148Z" fill="#66CCC3"/>
<path d="M10.2857 12.7421C9.9563 12.7421 9.56108 12.6763 9.23174 12.6104L2.11781 10.5684C1.59085 10.4367 1.32737 9.90973 1.45911 9.38277C1.59085 8.85581 2.11781 8.59234 2.64476 8.72408L9.82456 10.766C10.4833 10.9636 11.2078 10.766 11.7348 10.3049C12.2617 9.77799 12.4594 9.11929 12.2617 8.39473L10.4174 1.14906C10.2857 0.687969 10.5491 0.161012 11.0761 0.0292721C11.603 -0.102467 12.0641 0.226881 12.1959 0.687969L14.0402 7.93364C14.3696 9.3169 13.9744 10.7002 12.9863 11.6223C12.2617 12.3469 11.2737 12.7421 10.2857 12.7421Z" fill="#004F3F"/>
<path d="M10.7441 30C10.6124 30 10.4147 29.9342 10.283 29.8683C9.82192 29.6048 9.62431 29.0779 9.88779 28.6168L12.9178 22.8202C13.6424 21.437 15.0256 20.5148 16.6065 20.5148C18.1874 20.4489 19.6365 21.2394 20.4928 22.5568L23.9839 28.0898C24.2474 28.5509 24.1156 29.0779 23.7204 29.4072C23.3252 29.7366 22.7324 29.539 22.403 29.1437L18.9119 23.6107C18.4509 22.8202 17.5945 22.425 16.6724 22.425C15.7502 22.4909 14.9598 22.952 14.5645 23.7424L11.5345 29.539C11.4028 29.8024 11.0734 30 10.7441 30Z" fill="#A5E0DA"/>
<path d="M11.3356 29.8682C11.2039 29.8682 11.0063 29.8023 10.8746 29.7365C10.4135 29.473 10.2159 28.946 10.4793 28.4849L13.5093 22.6884C14.2339 21.3051 15.6172 20.383 17.1981 20.383C18.7789 20.3171 20.2281 21.1075 21.0844 22.4249L24.5755 27.958C24.8389 28.4191 24.7072 28.946 24.312 29.2754C23.8509 29.5389 23.3239 29.4071 22.9946 29.0119L19.5035 23.4788C19.0424 22.6884 18.1861 22.2932 17.2639 22.2932C16.3417 22.3591 15.5513 22.8201 15.1561 23.6106L12.1261 29.4071C11.9943 29.7365 11.665 29.8682 11.3356 29.8682Z" fill="#008B7B"/>
<path d="M27.8694 27.0362C27.6059 27.0362 27.3424 26.9044 27.2107 26.7068L21.4141 20.3833C20.3602 19.2635 20.0309 17.6827 20.492 16.2335C20.9531 14.7844 22.1387 13.6646 23.5878 13.3353L31.9533 11.425C32.4803 11.2933 32.9413 11.6227 33.0731 12.1496C33.2048 12.6766 32.8755 13.1377 32.3485 13.2694L23.9831 15.1796C23.1268 15.3772 22.4681 15.9701 22.2704 16.7605C22.007 17.5509 22.2046 18.4731 22.7974 19.0659L28.5939 25.3894C28.9233 25.7846 28.9233 26.3775 28.5281 26.7068C28.3305 26.9044 28.1329 27.0362 27.8694 27.0362Z" fill="#A5E0DA"/>
<path d="M28.0691 26.3113C27.8056 26.3113 27.5421 26.1796 27.4104 25.982L21.6138 19.6585C20.5599 18.5387 20.2306 16.9578 20.6917 15.5087C21.1528 14.0595 22.3384 12.9398 23.7875 12.6104L32.153 10.7002C32.68 10.5685 33.1411 10.8978 33.2728 11.4248C33.4045 11.9517 33.0752 12.4128 32.5482 12.5445L24.1828 14.5206C23.3265 14.7182 22.6678 15.3111 22.4702 16.1015C22.2067 16.9578 22.4043 17.8141 22.9312 18.4728L28.7278 24.7963C29.0571 25.1915 29.0571 25.7844 28.6619 26.1137C28.5302 26.2454 28.3326 26.3113 28.0691 26.3113Z" fill="#00A899"/>
<path d="M6.26841 28.4852C6.07081 28.4852 5.8732 28.4193 5.67559 28.2876C5.28037 27.9582 5.2145 27.3654 5.54385 26.9702L10.6817 20.7126C11.2745 19.988 11.4721 19 11.1428 18.0778C10.8134 17.1556 10.023 16.5628 9.10081 16.3652L1.13058 15.0478C0.603618 14.9819 0.274269 14.4549 0.340139 13.9939C0.406009 13.4669 0.932966 13.1376 1.39405 13.2034L9.36429 14.5208C11.011 14.7843 12.2626 15.8382 12.8554 17.4191C13.4482 18.9341 13.1189 20.6467 12.1308 21.8982L6.99298 28.1559C6.79537 28.3535 6.53189 28.4852 6.26841 28.4852Z" fill="#A5E0DA"/>
<path d="M5.93663 27.7603C5.73902 27.7603 5.54141 27.6945 5.3438 27.5627C4.94858 27.2334 4.88271 26.6406 5.21206 26.2453L10.3499 19.9877C10.9427 19.2631 11.1403 18.2751 10.811 17.3529C10.4816 16.4308 9.6912 15.8379 8.76903 15.6403L0.798789 14.3229C0.271831 14.2571 -0.0575179 13.7301 0.0083518 13.269C0.0742215 12.742 0.601179 12.4127 1.06227 12.4786L9.03251 13.796C10.6792 14.0594 11.9308 15.1134 12.5236 16.6942C13.1164 18.2092 12.7871 19.9218 11.799 21.1734L6.66119 27.431C6.46359 27.6286 6.20011 27.7603 5.93663 27.7603Z" fill="#007C6B"/>
<path d="M21.2858 8.92162C22.3044 8.92162 23.1301 8.09587 23.1301 7.07726C23.1301 6.05865 22.3044 5.23291 21.2858 5.23291C20.2672 5.23291 19.4414 6.05865 19.4414 7.07726C19.4414 8.09587 20.2672 8.92162 21.2858 8.92162Z" fill="#FF7700"/>
<path d="M17.4 28.0239C18.4186 28.0239 19.2444 27.1982 19.2444 26.1796C19.2444 25.1609 18.4186 24.3352 17.4 24.3352C16.3814 24.3352 15.5557 25.1609 15.5557 26.1796C15.5557 27.1982 16.3814 28.0239 17.4 28.0239Z" fill="#FFBD00"/>
<path d="M7.6488 20.3833C8.6674 20.3833 9.49315 19.5575 9.49315 18.5389C9.49315 17.5203 8.6674 16.6946 7.6488 16.6946C6.63019 16.6946 5.80444 17.5203 5.80444 18.5389C5.80444 19.5575 6.63019 20.3833 7.6488 20.3833Z" fill="#FFA300"/>
<path d="M8.96838 9.44847C9.98698 9.44847 10.8127 8.62273 10.8127 7.60412C10.8127 6.58551 9.98698 5.75977 8.96838 5.75977C7.94977 5.75977 7.12402 6.58551 7.12402 7.60412C7.12402 8.62273 7.94977 9.44847 8.96838 9.44847Z" fill="#FFA300"/>
<path d="M57.8418 20.3829H46.117C46.3146 21.3709 46.8416 22.0955 47.632 22.6883C48.4225 23.2153 49.4105 23.5446 50.5962 23.5446C51.3866 23.5446 52.1112 23.4129 52.7699 23.2153C53.3627 22.9518 53.9555 22.6225 54.4825 22.0955L56.8538 24.6644C55.4047 26.3112 53.231 27.1675 50.4644 27.1675C48.686 27.1675 47.1709 26.8381 45.7877 26.1136C44.4703 25.4549 43.4164 24.4668 42.6918 23.2812C41.9672 22.0955 41.572 20.7122 41.572 19.1314C41.572 17.6164 41.9014 16.2331 42.6259 15.0474C43.3505 13.7959 44.3385 12.8737 45.5901 12.215C46.8416 11.5564 48.2907 11.1611 49.8057 11.1611C51.3207 11.1611 52.704 11.4905 53.9555 12.1492C55.2071 12.8079 56.1292 13.7301 56.8538 14.9816C57.5784 16.2331 57.9077 17.6164 57.9077 19.2631C57.9736 19.2631 57.9077 19.6583 57.8418 20.3829ZM47.3686 15.3768C46.644 15.9696 46.2488 16.7601 46.117 17.7481H53.7579C53.6262 16.7601 53.1651 15.9696 52.5064 15.3768C51.7818 14.784 50.9914 14.5205 49.9375 14.5205C48.8836 14.5205 48.0273 14.8498 47.3686 15.3768Z" fill="#00A899"/>
<path d="M76.7479 5.49658V26.9042H72.4664V25.0599C71.3466 26.3773 69.7657 27.1019 67.592 27.1019C66.1429 27.1019 64.8255 26.7725 63.6398 26.1138C62.4542 25.4551 61.532 24.5329 60.8733 23.3473C60.2146 22.1616 59.8853 20.7125 59.8853 19.1316C59.8853 17.5507 60.2146 16.1016 60.8733 14.916C61.532 13.7303 62.4542 12.7423 63.6398 12.1494C64.8255 11.4907 66.1429 11.1614 67.592 11.1614C69.5681 11.1614 71.149 11.7542 72.2688 13.0057V5.49658H76.7479ZM71.2148 22.2275C71.9394 21.4371 72.3346 20.3831 72.3346 19.0657C72.3346 17.7484 71.9394 16.6944 71.2148 15.904C70.4903 15.1136 69.5022 14.7183 68.3824 14.7183C67.1968 14.7183 66.2746 15.1136 65.55 15.904C64.8255 16.6944 64.4303 17.7484 64.4303 19.0657C64.4303 20.3831 64.8255 21.4371 65.55 22.2275C66.2746 23.0179 67.2627 23.4131 68.3824 23.4131C69.5681 23.4131 70.4903 23.0179 71.2148 22.2275Z" fill="#00A899"/>
<path d="M96.5725 11.3591V26.9044H92.2909V25.06C91.6981 25.7187 90.9735 26.2457 90.1831 26.575C89.3268 26.9044 88.4705 27.102 87.4824 27.102C85.4405 27.102 83.8596 26.5092 82.6081 25.3235C81.4224 24.1379 80.8296 22.4252 80.8296 20.1198V11.3591H85.3087V19.4611C85.3087 21.9642 86.3627 23.2157 88.4705 23.2157C89.5244 23.2157 90.3807 22.8863 91.0394 22.1618C91.6981 21.4372 92.0274 20.3833 92.0274 19V11.3591H96.5725Z" fill="#00A899"/>
<path d="M106.847 9.38318H99.9307V6.88013H116.662V9.38318H109.745V27.0363H106.913V9.38318H106.847Z" fill="#FFBD00"/>
<path d="M119.101 8.32908C118.771 7.99973 118.574 7.53864 118.574 7.07755C118.574 6.5506 118.771 6.15538 119.101 5.82603C119.43 5.49668 119.891 5.29907 120.418 5.29907C120.945 5.29907 121.406 5.49668 121.735 5.82603C122.065 6.15538 122.262 6.5506 122.262 7.07755C122.262 7.60451 122.065 8.0656 121.735 8.39495C121.406 8.7243 120.945 8.92191 120.418 8.92191C119.891 8.79017 119.43 8.65843 119.101 8.32908ZM119.035 11.7543H121.801V27.0361H119.035V11.7543Z" fill="#FFBD00"/>
<path d="M139.849 13.3354C140.969 14.4552 141.562 16.1019 141.562 18.2756V27.0363H138.795V18.6049C138.795 17.1558 138.466 16.036 137.741 15.2456C137.017 14.521 136.029 14.1258 134.711 14.1258C133.196 14.1258 132.011 14.5869 131.154 15.4432C130.298 16.2995 129.837 17.551 129.837 19.1978V27.1021H127.071V11.7545H129.705V14.0599C130.232 13.2695 131.023 12.6767 131.945 12.2156C132.867 11.8204 133.987 11.5569 135.173 11.5569C137.214 11.6228 138.73 12.2156 139.849 13.3354Z" fill="#FFBD00"/>
<path d="M152.693 19.9221L149.531 22.8863V27.0361H146.764V5.62842H149.531V19.3952L157.896 11.7543H161.256L154.801 18.0778L161.849 27.0361H158.423L152.693 19.9221Z" fill="#FFBD00"/>
<path d="M177.657 20.3177H165.274C165.471 21.635 166.064 22.7548 167.052 23.5453C168.04 24.3357 169.292 24.7968 170.807 24.7968C172.651 24.7968 174.1 24.204 175.22 22.9524L176.735 24.7309C176.011 25.5214 175.154 26.1801 174.166 26.5753C173.112 26.9705 171.993 27.234 170.741 27.234C169.094 27.234 167.711 26.9046 166.46 26.2459C165.208 25.5872 164.22 24.6651 163.561 23.4794C162.903 22.2937 162.507 20.9105 162.507 19.4613C162.507 18.0122 162.837 16.6289 163.495 15.4433C164.154 14.2576 165.076 13.3355 166.262 12.6768C167.448 12.0181 168.765 11.6887 170.214 11.6887C171.663 11.6887 172.981 12.0181 174.1 12.6768C175.22 13.3355 176.142 14.2576 176.801 15.4433C177.46 16.6289 177.789 18.0122 177.789 19.5272C177.723 19.7248 177.657 19.9883 177.657 20.3177ZM166.789 15.1798C165.867 15.9703 165.34 17.0242 165.208 18.3416H175.023C174.891 17.0242 174.364 15.9703 173.442 15.1798C172.52 14.3894 171.466 13.9283 170.082 13.9283C168.831 13.9283 167.711 14.3894 166.789 15.1798Z" fill="#FFBD00"/>
<path d="M186.35 12.2815C187.272 11.8204 188.458 11.5569 189.775 11.5569V14.2575C189.643 14.2575 189.38 14.2575 189.117 14.2575C187.602 14.2575 186.416 14.7186 185.56 15.5749C184.703 16.4312 184.308 17.7486 184.308 19.3954V27.0363H181.542V11.7545H184.176V14.3234C184.637 13.4671 185.362 12.7425 186.35 12.2815Z" fill="#FFBD00"/>
</svg>
