<svg width="18" height="18" viewBox="0 0 18 18" fill="none" xmlns="http://www.w3.org/2000/svg">
<path d="M8.79599 2.25C8.30775 2.25 7.83951 2.44395 7.49427 2.78919C7.14903 3.13443 6.95508 3.60267 6.95508 4.09091V9C6.95508 9.48824 7.14903 9.95648 7.49427 10.3017C7.83951 10.647 8.30775 10.8409 8.79599 10.8409C9.28423 10.8409 9.75247 10.647 10.0977 10.3017C10.4429 9.95648 10.6369 9.48824 10.6369 9V4.09091C10.6369 3.60267 10.4429 3.13443 10.0977 2.78919C9.75247 2.44395 9.28423 2.25 8.79599 2.25V2.25Z" stroke="#4DB6AC" stroke-linecap="round" stroke-linejoin="round"/>
<path d="M13.0909 7.77271V8.99998C13.0909 10.1392 12.6384 11.2318 11.8328 12.0373C11.0272 12.8429 9.93468 13.2954 8.79545 13.2954C7.65623 13.2954 6.56366 12.8429 5.75811 12.0373C4.95256 11.2318 4.5 10.1392 4.5 8.99998V7.77271" stroke="#4DB6AC" stroke-linecap="round" stroke-linejoin="round"/>
<path d="M8.79492 13.2954V15.75" stroke="#4DB6AC" stroke-linecap="round" stroke-linejoin="round"/>
<path d="M6.3418 15.75H11.2509" stroke="#4DB6AC" stroke-linecap="round" stroke-linejoin="round"/>
</svg>
