<svg width="18" height="18" viewBox="0 0 18 18" fill="none" xmlns="http://www.w3.org/2000/svg">
<path d="M7.64258 9.67205C7.9341 10.0618 8.30604 10.3843 8.73316 10.6176C9.16027 10.851 9.63258 10.9897 10.118 11.0245C10.6035 11.0593 11.0908 10.9892 11.5468 10.8191C12.0028 10.649 12.4169 10.3828 12.761 10.0386L14.7975 8.00212C15.4157 7.36198 15.7579 6.5046 15.7501 5.61467C15.7424 4.72473 15.3854 3.87343 14.7561 3.24413C14.1268 2.61482 13.2755 2.25786 12.3856 2.25013C11.4956 2.24239 10.6383 2.58451 9.99812 3.20278L8.83053 4.36358" stroke="#4DB6AC" stroke-linecap="round" stroke-linejoin="round"/>
<path d="M10.3577 8.31438C10.0661 7.92464 9.69421 7.60216 9.26709 7.36881C8.83998 7.13545 8.36767 6.99669 7.88221 6.96192C7.39674 6.92715 6.90948 6.9972 6.45347 7.1673C5.99746 7.33741 5.58337 7.60359 5.23928 7.94781L3.20278 9.98431C2.58451 10.6245 2.24239 11.4818 2.25013 12.3718C2.25786 13.2617 2.61482 14.113 3.24413 14.7423C3.87343 15.3716 4.72473 15.7286 5.61467 15.7363C6.5046 15.744 7.36198 15.4019 8.00212 14.7836L9.16293 13.6228" stroke="#4DB6AC" stroke-linecap="round" stroke-linejoin="round"/>
</svg>
