<svg width="18" height="18" viewBox="0 0 18 18" fill="none" xmlns="http://www.w3.org/2000/svg">
<path d="M2.68212 10.5633C2.5432 10.3246 2.23712 10.2438 1.99847 10.3827C1.75981 10.5216 1.67896 10.8277 1.81788 11.0664L2.68212 10.5633ZM4.50482 14.6885L4.07269 14.94L4.50482 15.1885V14.6885ZM13.5337 14.6885V15.1885L13.9677 14.9368L13.5337 14.6885ZM15.75 10.8148L16.184 11.0631L15.75 10.3148V10.8148ZM6.75 10.3148C6.47386 10.3148 6.25 10.5387 6.25 10.8148C6.25 11.091 6.47386 11.3148 6.75 11.3148V10.3148ZM1.81788 11.0664L4.07269 14.94L4.93694 14.4369L2.68212 10.5633L1.81788 11.0664ZM4.50482 15.1885H13.5337V14.1885H4.50482V15.1885ZM13.9677 14.9368L16.184 11.0631L15.316 10.5665L13.0997 14.4402L13.9677 14.9368ZM15.75 10.3148H6.75V11.3148H15.75V10.3148Z" fill="#4DB6AC"/>
<path d="M11.2404 3H6.75964L2.25 10.8148L4.47591 14.7077L8.92817 7.00188" stroke="#4DB6AC" stroke-linecap="round" stroke-linejoin="round"/>
<path fill-rule="evenodd" clip-rule="evenodd" d="M6.75977 3L11.2694 10.8148H15.7501L11.2405 3H6.75977Z" stroke="#4DB6AC" stroke-linecap="round" stroke-linejoin="round"/>
</svg>
