<svg width="34" height="30" viewBox="0 0 34 30" fill="none" xmlns="http://www.w3.org/2000/svg">
<path fill-rule="evenodd" clip-rule="evenodd" d="M26.6487 7.8197H1.79122C0.808938 7.8197 0 8.67327 0 9.72476V28.0826C0 29.1341 0.808938 29.9876 1.79122 30H26.6487C27.631 30 28.44 29.1341 28.44 28.0826V9.73713C28.44 8.68564 27.631 7.8197 26.6487 7.8197ZM2.03392 9.99696H26.3945V27.8105H2.03392V9.99696Z" fill="#4DB6AC"/>
<path fill-rule="evenodd" clip-rule="evenodd" d="M6.14793 11.9514C9.16411 12.0009 9.16411 16.8006 6.14793 16.8625C3.1433 16.8006 3.1433 12.0009 6.14793 11.9514Z" fill="#FABF2C"/>
<path fill-rule="evenodd" clip-rule="evenodd" d="M2.69269 25.1508L11.0479 18.4831C12.9546 20.0913 13.9138 20.8954 13.9138 20.8954C17.9007 17.7409 19.9 16.1575 19.9 16.1575L25.7474 20.7222V27.1054H2.69269V25.1508Z" fill="#FABF2C"/>
<path fill-rule="evenodd" clip-rule="evenodd" d="M8.22806 0.0386836L32.5771 5.37036C33.5363 5.58066 34.1603 6.59504 33.9638 7.62179C33.4785 8.5001 31.017 27.1177 29.5494 26.9445V19.8438L31.9184 7.44861L8.06628 2.22826L7.23423 6.60741H5.1541L6.12482 1.53551C6.32128 0.496392 7.26889 -0.171615 8.22806 0.0386836Z" fill="#4DB6AC"/>
</svg>
