<svg width="300" height="204" viewBox="0 0 300 204" fill="none" xmlns="http://www.w3.org/2000/svg">
<path d="M282.743 147.8C276.445 147.8 271.268 142.623 271.268 136.324C271.268 130.112 276.272 125.022 282.484 124.849C271.699 92.4935 241.242 69.1976 205.263 69.1976C190.508 69.1976 176.617 73.1665 164.71 80.069C149.697 58.2398 124.676 44.0034 96.2894 44.0034C75.1504 44.0034 55.9097 51.9413 41.2419 64.8835C43.4852 67.2131 44.8657 70.4055 44.8657 73.8567C44.8657 80.9318 39.0849 86.7127 32.0098 86.7127C29.4214 86.7127 27.0055 85.9361 24.9347 84.5556C17.6008 96.8938 13.373 111.389 13.373 126.833C13.373 158.585 31.2333 186.195 57.5491 200.086H269.715C280.327 186.368 286.626 169.111 286.626 150.475C286.626 149.353 286.626 148.231 286.54 147.11C285.332 147.541 284.037 147.8 282.743 147.8Z" fill="#EFF8F8"/>
<path opacity="0.3" d="M98.3612 138.309C118.375 138.309 134.599 122.085 134.599 102.071C134.599 82.0571 118.375 65.8328 98.3612 65.8328C78.3474 65.8328 62.123 82.0571 62.123 102.071C62.123 122.085 78.3474 138.309 98.3612 138.309Z" fill="#009887"/>
<path d="M230.716 184.21V199.913H144.693C142.536 199.913 140.552 199.051 139.171 197.584C137.791 196.203 136.842 194.219 136.842 192.062C136.842 187.748 140.379 184.21 144.693 184.21H230.716Z" fill="#009887"/>
<path d="M209.576 184.21H247.54V185.936H209.576C206.211 185.936 203.45 188.697 203.45 192.062C203.45 193.701 204.054 195.254 205.262 196.376C206.384 197.498 207.937 198.188 209.576 198.188H247.54V199.913H209.576C207.419 199.913 205.435 199.051 204.054 197.584C202.674 196.203 201.725 194.219 201.725 192.062C201.725 187.748 205.262 184.21 209.576 184.21Z" fill="#A5E0DA"/>
<path d="M245.729 198.188V186.022H209.577C206.212 186.022 203.451 188.783 203.451 192.148C203.451 193.788 204.055 195.341 205.263 196.462C206.385 197.584 207.938 198.274 209.577 198.274H245.729V198.188Z" fill="white"/>
<path opacity="0.3" d="M203.71 193.874C203.537 193.356 203.451 192.752 203.451 192.148C203.451 188.783 206.212 186.022 209.577 186.022H245.729V189.473H209.577C206.816 189.473 204.487 191.372 203.71 193.874Z" fill="#004F3F"/>
<path d="M240.033 177.998C240.033 181.449 237.272 184.21 233.821 184.21H146.418V171.786H233.821C235.547 171.786 237.1 172.476 238.221 173.598C239.343 174.806 240.033 176.359 240.033 177.998Z" fill="#FFBD00"/>
<path d="M189.817 177.998C189.817 181.449 187.056 184.21 183.605 184.21H146.418V171.786H183.605C185.331 171.786 186.884 172.476 188.006 173.598C189.127 174.806 189.817 176.359 189.817 177.998Z" fill="#FFD600"/>
<path d="M183.606 182.485C186.022 182.485 188.092 180.5 188.092 177.998C188.092 176.79 187.661 175.669 186.798 174.806C185.935 173.943 184.814 173.511 183.692 173.511H148.23V182.398H183.606V182.485Z" fill="white"/>
<path opacity="0.3" d="M183.606 173.598C184.814 173.598 185.936 174.029 186.712 174.892C187.575 175.755 188.006 176.876 188.006 178.084C188.006 178.429 188.006 178.688 187.92 178.947C187.748 178.084 187.316 177.308 186.712 176.704C185.849 175.841 184.728 175.41 183.606 175.41H148.145V173.598H183.606Z" fill="#004F3F"/>
<path d="M250.474 160.656C250.474 166.954 245.298 172.131 238.999 172.131H160.828V149.18H238.999C242.191 149.18 245.039 150.474 247.109 152.545C249.18 154.616 250.474 157.463 250.474 160.656Z" fill="#A5E0DA"/>
<path d="M209.489 160.656C209.489 166.954 204.312 172.131 198.014 172.131H160.74V149.18H198.014C201.206 149.18 204.053 150.474 206.124 152.545C208.195 154.616 209.489 157.463 209.489 160.656Z" fill="#009887"/>
<path d="M198.016 170.319C203.366 170.319 207.766 166.005 207.766 160.569C207.766 157.981 206.731 155.565 204.919 153.667C203.107 151.855 200.605 150.82 198.016 150.82H162.555V170.233H198.016V170.319Z" fill="white"/>
<path opacity="0.3" d="M198.016 150.906C200.605 150.906 203.021 151.941 204.919 153.753C206.731 155.565 207.766 158.067 207.766 160.656C207.766 161.432 207.68 162.122 207.507 162.899C207.076 161.173 206.213 159.534 204.919 158.24C203.107 156.428 200.605 155.392 198.016 155.392H162.555V150.906H198.016Z" fill="#004F3F"/>
<path d="M226.488 128.731V149.439H147.196C144.348 149.439 141.76 148.317 139.862 146.419C137.963 144.521 136.842 141.932 136.842 139.085C136.842 133.391 141.501 128.731 147.196 128.731H226.488Z" fill="#FFD600"/>
<path d="M188.352 128.731H233.822V130.457H188.266C183.52 130.457 179.724 134.34 179.724 138.999C179.724 141.329 180.587 143.486 182.226 145.039C183.866 146.678 186.023 147.541 188.266 147.541H233.822V149.266H188.266C185.419 149.266 182.83 148.145 180.932 146.247C179.034 144.348 177.912 141.76 177.912 138.913C177.998 133.391 182.571 128.731 188.352 128.731Z" fill="#FFBD00"/>
<path d="M232.097 147.713V130.543H188.352C183.607 130.543 179.811 134.426 179.811 139.085C179.811 141.415 180.673 143.572 182.313 145.125C183.952 146.764 186.109 147.627 188.352 147.627H232.097V147.713Z" fill="white"/>
<path opacity="0.3" d="M179.895 140.811C179.809 140.293 179.723 139.689 179.723 139.171C179.723 134.426 183.605 130.63 188.264 130.63H232.095V133.908H188.351C184.123 133.822 180.672 136.842 179.895 140.811Z" fill="#004F3F"/>
<path d="M232.785 112.079V128.818H172.992C170.663 128.818 168.592 127.869 167.039 126.402C165.486 124.849 164.623 122.778 164.623 120.448C164.623 115.789 168.333 112.079 172.992 112.079H232.785Z" fill="#009887"/>
<path d="M213.977 112.079H247.54V113.805H213.977C210.353 113.805 207.419 116.738 207.419 120.362C207.419 122.088 208.11 123.813 209.318 125.021C210.525 126.229 212.251 126.919 213.977 126.919H247.54V128.645H213.977C211.647 128.645 209.576 127.696 208.023 126.229C206.47 124.676 205.607 122.605 205.607 120.276C205.607 115.789 209.318 112.079 213.977 112.079Z" fill="#A5E0DA"/>
<path d="M245.729 127.006V113.805H213.977C210.353 113.805 207.42 116.738 207.42 120.362C207.42 122.088 208.11 123.813 209.318 125.021C210.526 126.229 212.252 126.919 213.977 126.919H245.729V127.006Z" fill="white"/>
<path opacity="0.3" d="M207.506 121.656C207.42 121.225 207.42 120.88 207.42 120.448C207.42 116.825 210.353 113.891 213.977 113.891H245.729V116.307H213.977C210.785 116.221 208.024 118.55 207.506 121.656Z" fill="#004F3F"/>
<path opacity="0.3" d="M219.845 164.107H241.588C242.451 164.107 243.141 163.416 243.141 162.554V158.757C243.141 157.894 242.451 157.204 241.588 157.204H219.931C219.069 157.204 218.378 157.894 218.378 158.757V162.554C218.292 163.416 218.982 164.107 219.845 164.107Z" fill="#009887"/>
<path opacity="0.3" d="M202.588 180.241H229.594C230.974 180.241 232.01 179.12 232.01 177.826C232.01 176.445 230.888 175.41 229.594 175.41H202.588C201.207 175.41 200.172 176.531 200.172 177.826C200.172 179.12 201.294 180.241 202.588 180.241Z" fill="#FFD600"/>
<path opacity="0.3" d="M156.944 195.599H191.974C193.7 195.599 195.08 194.219 195.08 192.493C195.08 190.768 193.7 189.387 191.974 189.387H156.944C155.218 189.387 153.838 190.768 153.838 192.493C153.838 194.219 155.218 195.599 156.944 195.599Z" fill="white"/>
<path opacity="0.3" d="M171.01 124.159H197.153C198.016 124.159 198.706 123.468 198.706 122.606V118.809C198.706 117.946 198.016 117.256 197.153 117.256H171.01C170.147 117.256 169.457 117.946 169.457 118.809V122.519C169.457 123.382 170.147 124.159 171.01 124.159Z" fill="white"/>
<path opacity="0.3" d="M143.314 142.45H173.081C174.116 142.45 174.893 141.674 174.893 140.638V136.324C174.893 135.289 174.116 134.512 173.081 134.512H143.314C142.278 134.512 141.502 135.289 141.502 136.324V140.638C141.502 141.587 142.365 142.45 143.314 142.45Z" fill="white"/>
<path d="M229.68 100.949H190.854V112.252H229.68V100.949Z" fill="#006B5C"/>
<path d="M229.681 100.949H211.217V112.252H229.681V100.949Z" fill="#007C6B"/>
<path d="M182.484 99.9136L209.836 91.458L241.414 99.9136L211.216 105.349L182.484 99.9136Z" fill="#009887"/>
<path d="M241.413 121.57H238.221L239.084 118.981H240.637L241.413 121.57Z" fill="#007C6B"/>
<path d="M241.267 118.631C241.397 117.831 240.854 117.078 240.055 116.948C239.255 116.818 238.501 117.361 238.372 118.161C238.242 118.961 238.785 119.714 239.585 119.844C240.384 119.974 241.138 119.431 241.267 118.631Z" fill="#007C6B"/>
<path d="M240.206 99.8271H239.516V117.687H240.206V99.8271Z" fill="#007C6B"/>
<path d="M85.418 155.565C85.0729 155.22 84.7278 154.961 84.2964 154.702C84.2964 154.702 82.1393 152.718 79.3783 153.408C77.3076 153.926 76.7036 156.169 76.6173 157.204C75.5819 157.722 72.9935 159.361 70.6639 163.244C70.5776 163.33 70.5776 163.417 70.4913 163.503C70.3188 163.589 70.2325 163.676 70.0599 163.762C70.0599 163.934 70.0599 164.107 70.0599 164.28C68.7657 166.782 67.7304 169.715 67.1264 172.994C67.1264 171.959 67.0401 170.837 67.0401 169.715C66.8675 160.311 67.5578 156.428 68.0755 154.875C68.3343 155.047 68.5932 155.134 68.852 155.306C73.0798 157.204 73.5975 158.499 73.5975 158.499C73.5975 158.499 75.7545 156.6 75.0643 151.769C74.2877 146.937 69.0246 148.404 68.248 150.043C64.5379 148.921 64.5379 152.632 67.7303 154.702C67.1264 156.342 66.4361 160.311 66.6087 169.715C66.6087 170.751 66.695 171.786 66.695 172.821C66.695 172.821 66.6087 172.821 66.6087 172.735C66.3498 170.578 66.091 168.852 65.8322 167.299C66.0047 166.35 65.8322 165.401 65.3145 164.711C65.2282 164.28 65.1419 163.934 65.0556 163.589C64.4517 161.087 63.934 159.62 63.5026 158.844C63.5888 158.499 64.5379 152.977 58.7571 152.373C55.047 151.941 52.4586 154.702 50.9918 156.773C49.4387 158.412 49.1799 160.138 49.1799 160.138C54.8744 155.91 61.2593 157.981 63.0712 158.585C63.4163 159.275 64.1065 160.742 64.7968 163.762C64.7968 163.934 64.8831 164.021 64.8831 164.193C63.934 163.417 62.5535 163.417 60.8278 164.97C60.6553 164.366 59.965 162.899 58.412 162.468C56.5138 161.95 53.0625 163.503 54.7019 170.147C53.7528 170.147 52.9763 170.319 52.6311 170.405C52.286 169.715 51.4232 168.248 49.0936 168.766C46.0738 169.37 45.2109 176.531 45.2109 176.531C47.5405 171.355 52.8037 170.751 52.8037 170.751V170.664C53.1488 170.578 53.9253 170.405 54.8744 170.405C54.8744 170.492 54.9607 170.664 54.9607 170.751C55.9961 173.77 57.7217 175.582 57.7217 175.582C57.7217 175.582 58.5845 174.116 60.3102 172.476C61.2593 173.253 62.2083 174.374 63.1574 175.927C63.1574 176.531 63.1574 177.049 63.2437 177.653C62.9849 177.481 62.726 177.394 62.3809 177.308C60.3102 176.704 58.3257 177.826 57.5492 178.343C57.4629 177.912 57.204 177.308 55.9961 177.308C54.2705 177.308 52.4586 180.932 52.4586 184.987C52.4586 184.987 55.7373 183.175 58.4983 182.226C60.9141 181.363 60.0513 178.343 57.8943 178.43C58.7571 177.912 60.4827 177.049 62.2946 177.567C62.6398 177.653 62.8986 177.826 63.2437 177.998C63.5026 179.81 64.0203 181.622 64.6242 182.744C64.6242 182.744 65.2282 182.226 66.1773 181.536C66.2636 181.795 66.4361 181.967 66.5224 182.226C66.5224 184.642 66.695 187.23 67.0401 189.991H63.7614C63.7614 198.619 65.5733 199.655 66.4361 199.655C67.2989 199.655 68.1618 199.655 68.1618 199.655C68.1618 199.655 69.0246 199.655 69.8874 199.655C70.7502 199.655 72.5621 198.619 72.5621 189.991H68.6794C68.852 184.297 70.4051 180.414 73.2524 178.171C74.8054 179.638 77.5664 180.5 77.5664 180.5C77.5664 180.5 78.6018 178.171 78.4292 176.359C79.6372 176.273 80.6725 176.445 81.2765 176.531C81.2765 176.704 81.3628 176.877 81.5354 176.963C82.657 177.653 84.5552 179.465 85.0729 182.916C85.0729 182.916 86.2808 172.994 81.5354 176.014C81.4491 176.1 81.3628 176.186 81.2765 176.273C80.5863 176.186 79.5509 176.014 78.3429 176.1C78.2567 175.41 77.9978 174.892 77.3938 174.547C75.7545 173.684 74.8054 174.806 74.4603 175.41C73.5975 174.806 72.8209 174.806 72.3895 175.582C71.9581 176.445 72.3033 177.308 72.9935 177.998C70.0599 180.242 68.5069 184.21 68.3343 189.991H68.0755H67.9892C67.9029 188.438 67.8166 187.058 67.8166 185.677C68.0755 183.348 68.248 181.277 68.5069 179.379C69.1971 178.688 69.8011 177.998 70.3188 177.308C71.8719 175.324 70.8365 173.943 69.2834 173.598C70.0599 169.111 70.7502 167.041 71.0953 166.264C71.6993 166.782 72.6484 167.472 73.9426 168.507C77.0487 171.182 83.0884 173.253 83.0884 173.253C83.0884 173.253 81.1902 157.981 71.0953 163.244C73.1661 159.879 75.4957 158.24 76.6173 157.636C76.6173 157.722 76.6173 157.722 76.6173 157.722C76.6173 157.722 84.7278 155.22 88.4379 164.538C88.3516 164.625 88.783 159.103 85.418 155.565ZM67.5578 190.078H67.3852C67.3852 189.732 67.4715 189.387 67.4715 189.129C67.4715 189.474 67.4715 189.819 67.5578 190.078ZM66.7813 181.018C66.8675 180.932 66.9538 180.846 67.0401 180.846C67.0401 181.708 67.1264 182.571 67.1264 183.434C67.0401 183.089 66.8675 182.83 66.7813 182.571C66.7813 182.053 66.7813 181.536 66.7813 181.018ZM66.3498 172.735C66.091 172.649 65.8322 172.649 65.5733 172.649C65.0556 171.268 64.5379 170.319 64.1928 169.715C64.8831 169.284 65.4008 168.68 65.6596 168.076C65.8322 169.456 66.091 171.009 66.3498 172.735ZM60.3964 172.476C61.3455 171.613 62.4672 170.751 63.8477 169.974C64.1928 170.578 64.6242 171.441 65.1419 172.735C64.8831 172.735 64.7105 172.821 64.4517 172.908C63.5888 173.253 63.1574 174.288 63.0712 175.669C62.2946 174.288 61.3455 173.253 60.3964 172.476ZM66.4361 181.363C66.4361 181.449 66.4361 181.622 66.4361 181.708C66.4361 181.622 66.3498 181.536 66.3498 181.449L66.4361 181.363ZM67.2127 184.297C67.2989 185.418 67.2989 186.454 67.3852 187.403C67.2989 188.007 67.2989 188.525 67.2127 189.129C66.9538 187.058 66.8675 185.073 66.7813 183.261C66.9538 183.607 67.0401 183.952 67.2127 184.297ZM67.3852 180.5C67.6441 180.242 67.9029 180.069 68.0755 179.81C67.9029 181.104 67.7304 182.571 67.5578 184.124C67.5578 182.83 67.4715 181.622 67.3852 180.5ZM69.0246 173.684C68.5932 173.598 68.1618 173.684 67.7303 173.77C67.6441 173.684 67.5578 173.598 67.3852 173.425C67.9892 169.888 69.0246 167.127 70.0599 165.056C70.1462 165.487 70.4051 165.833 70.8365 166.264C70.5776 166.954 69.8011 169.025 69.0246 173.684Z" fill="#009887"/>
<path d="M273.945 155.824C273.945 155.824 281.883 155.479 286.715 161.519C286.715 161.519 286.284 156.773 283.005 153.926C279.726 151.079 274.463 153.667 273.945 155.824Z" fill="#009887"/>
<path d="M269.371 167.731C269.371 167.731 255.738 167.731 250.82 172.994C250.82 172.994 251.597 166.437 257.809 164.711C264.021 162.985 269.371 167.731 269.371 167.731Z" fill="#009887"/>
<path d="M274.72 148.404C274.72 148.404 279.034 145.729 283.607 147.541C283.607 147.541 280.674 144.262 277.222 144.953C273.857 145.643 274.72 148.404 274.72 148.404Z" fill="#009887"/>
<path d="M264.538 143.141C264.538 143.141 256.601 141.588 253.408 143.917C253.408 143.917 256.169 139.258 261.346 139.689C266.437 139.948 264.538 143.141 264.538 143.141Z" fill="#009887"/>
<path d="M274.031 142.278C274.031 142.278 279.726 139.69 283.35 139.344C283.35 139.344 278.086 137.791 276.533 138.999C274.98 140.035 274.031 142.278 274.031 142.278Z" fill="#009887"/>
<path d="M268.421 139.258C268.421 139.258 264.366 137.015 261.691 136.497C261.691 136.497 265.747 135.721 266.782 136.67C267.817 137.533 268.421 139.258 268.421 139.258Z" fill="#009887"/>
<path d="M274.807 164.107C274.807 164.107 279.466 161.864 283.866 163.244C283.866 163.244 281.623 159.707 278.776 160.311C275.928 160.915 274.979 162.468 274.807 164.107Z" fill="#009887"/>
<path d="M268.249 150.129C268.249 150.129 262.209 149.612 257.809 152.977C257.809 152.977 258.758 148.145 262.209 147.627C265.746 147.023 267.386 148.404 268.249 150.129Z" fill="#009887"/>
<path d="M268.077 174.806C268.077 174.806 269.544 176.186 269.112 178.43C268.681 180.673 263.245 182.399 260.57 182.14C260.657 182.14 260.915 170.751 268.077 174.806Z" fill="#009887"/>
<path d="M276.445 171.614C276.445 171.614 277.911 172.822 279.81 172.131C281.708 171.441 282.743 168.68 282.743 168.68C282.743 168.68 272.044 166.264 276.445 171.614Z" fill="#009887"/>
<path d="M274.72 176.79C274.72 176.79 273.771 177.912 274.634 179.206C275.41 180.587 280.07 181.881 280.07 181.881C280.07 181.881 280.587 178.257 279.638 177.394C278.689 176.445 275.41 175.582 274.72 176.79Z" fill="#009887"/>
<path d="M267.99 156.428C270.147 156.255 273.512 155.738 273.08 157.55C272.562 159.275 266.35 161.95 266.35 161.95C266.35 161.95 259.534 157.981 261.518 156.428C263.503 154.961 267.99 156.428 267.99 156.428Z" fill="#009887"/>
<path d="M269.803 137.705C267.905 136.756 267.215 132.269 270.493 130.457C273.772 128.645 277.31 129.163 277.31 129.163C277.31 129.163 275.757 133.564 275.498 135.117C275.153 136.583 273.427 139.517 269.803 137.705Z" fill="#009887"/>
<path d="M270.838 137.36H270.406V186.713H270.838V137.36Z" fill="#009887"/>
<path d="M270.492 148.059C268.076 144.953 264.107 142.882 264.107 142.882L264.28 142.623C264.28 142.623 268.335 144.694 270.751 147.886L270.492 148.059Z" fill="#009887"/>
<path d="M270.751 179.379L270.492 179.206C271.528 177.222 274.893 177.136 275.065 177.136V177.395C275.065 177.481 271.7 177.567 270.751 179.379Z" fill="#009887"/>
<path d="M267.472 175.496L267.213 175.324C267.213 175.237 267.989 174.029 269.111 173.857C269.629 173.77 270.233 173.943 270.75 174.374L270.578 174.633C270.146 174.288 269.629 174.116 269.197 174.202C268.162 174.288 267.472 175.41 267.472 175.496Z" fill="#009887"/>
<path d="M270.493 169.456C269.371 167.731 268.854 167.645 268.854 167.645V167.386C268.94 167.386 269.544 167.472 270.752 169.284L270.493 169.456Z" fill="#009887"/>
<path d="M270.751 173.253L270.492 173.08C272.649 170.492 275.583 169.284 275.583 169.284L275.669 169.543C275.669 169.543 272.822 170.751 270.751 173.253Z" fill="#009887"/>
<path d="M270.751 146.074L270.492 145.902C271.786 143.4 274.634 141.588 274.72 141.501L274.893 141.76C274.893 141.847 271.959 143.745 270.751 146.074Z" fill="#009887"/>
<path d="M270.751 152.632L270.492 152.459C272.132 149.526 274.893 147.973 274.893 147.973L275.065 148.232C274.979 148.232 272.39 149.785 270.751 152.632Z" fill="#009887"/>
<path d="M270.491 151.855C269.197 150.647 267.385 149.871 267.385 149.871L267.471 149.612C267.557 149.612 269.369 150.388 270.663 151.596L270.491 151.855Z" fill="#009887"/>
<path d="M270.751 159.103L270.492 158.93C271.7 156.687 274.72 155.047 274.893 154.961L275.065 155.22C274.979 155.306 271.959 156.946 270.751 159.103Z" fill="#009887"/>
<path d="M270.751 166.954L270.578 166.782C272.39 164.97 275.151 163.676 275.151 163.676L275.237 163.935C275.237 163.935 272.476 165.143 270.751 166.954Z" fill="#009887"/>
<path d="M277.827 184.297H270.665H263.504C263.504 184.297 264.28 199.741 267.732 199.741H270.665H273.599C277.05 199.741 277.827 184.297 277.827 184.297Z" fill="#009887"/>
<path d="M270.491 142.709C269.801 140.725 267.903 138.827 267.816 138.827L267.989 138.654C268.075 138.74 269.973 140.552 270.75 142.709H270.491Z" fill="#009887"/>
<path d="M95.3417 135.289C115.355 135.289 131.58 119.065 131.58 99.0509C131.58 79.0371 115.355 62.8127 95.3417 62.8127C75.3279 62.8127 59.1035 79.0371 59.1035 99.0509C59.1035 119.065 75.3279 135.289 95.3417 135.289Z" fill="#009887"/>
<path d="M95.3402 130.026C112.447 130.026 126.315 116.158 126.315 99.0512C126.315 81.9441 112.447 68.0762 95.3402 68.0762C78.2332 68.0762 64.3652 81.9441 64.3652 99.0512C64.3652 116.158 78.2332 130.026 95.3402 130.026Z" fill="#A5E0DA"/>
<path d="M124.591 99.0509C124.591 115.186 111.476 128.3 95.3415 128.3C93.5296 128.3 91.7177 128.128 89.9921 127.783C89.3018 127.696 88.6116 127.524 87.9213 127.351C86.4545 126.92 84.9877 126.488 83.6072 125.884C81.5365 124.935 79.552 123.814 77.7401 122.519C73.8575 119.586 70.665 115.703 68.6806 111.217C67.904 109.491 67.2138 107.593 66.7824 105.695C66.2647 103.624 66.0059 101.381 66.0059 99.1372C66.0059 98.3607 66.0059 97.5841 66.0921 96.8939C66.1784 95.9448 66.2647 94.9957 66.4373 94.0466C68.5943 81.9672 78.0852 72.4763 90.0783 70.4055C91.0274 70.233 91.9765 70.1467 92.9256 70.0604C93.7021 69.9741 94.3924 69.9741 95.1689 69.9741C97.4122 69.9741 99.6556 70.233 101.726 70.7507C103.624 71.1821 105.523 71.786 107.248 72.6488C111.735 74.7196 115.618 77.8257 118.551 81.7084C119.932 83.5203 121.053 85.4185 121.916 87.5755C122.52 88.956 123.038 90.4228 123.383 91.8896C123.555 92.5798 123.728 93.2701 123.814 93.9603C124.418 95.4271 124.591 97.239 124.591 99.0509Z" fill="white"/>
<path d="M98.3371 99.0526C98.3428 97.3847 96.9954 96.0281 95.3276 96.0224C93.6598 96.0167 92.3031 97.3641 92.2974 99.0319C92.2917 100.7 93.6391 102.056 95.307 102.062C96.9748 102.068 98.3314 100.72 98.3371 99.0526Z" fill="#006B5C"/>
<path d="M95.7724 75.5823H94.9096C94.737 75.5823 94.5645 75.4097 94.5645 75.2371V72.131C94.5645 71.9584 94.737 71.7859 94.9096 71.7859H95.6861C95.8587 71.7859 96.0312 71.9584 96.0312 72.131V75.2371C96.1175 75.4097 95.945 75.5823 95.7724 75.5823Z" fill="#FBE600"/>
<path d="M83.6066 78.7749C83.2615 78.9474 82.8301 78.8612 82.5712 78.516L81.4496 76.5316C81.277 76.1864 81.3633 75.755 81.7084 75.4962C82.0535 75.3236 82.4849 75.4099 82.7438 75.755L83.8654 77.7395C84.038 78.0846 83.9517 78.516 83.6066 78.7749Z" fill="#FBE600"/>
<path d="M74.9775 87.3168C74.805 87.6619 74.2873 87.8345 73.9422 87.5757L71.9577 86.454C71.6126 86.2814 71.44 85.7638 71.6988 85.4186C71.8714 85.0735 72.3891 84.9009 72.7342 85.1598L74.7187 86.2814C75.0638 86.5403 75.2364 86.9717 74.9775 87.3168Z" fill="#FBE600"/>
<path d="M71.8725 98.6195V99.3961C71.8725 99.5686 71.7 99.7412 71.5274 99.7412H68.4213C68.2487 99.7412 68.0762 99.5686 68.0762 99.3961V98.6195C68.0762 98.447 68.2487 98.2744 68.4213 98.2744H71.5274C71.7 98.2744 71.8725 98.447 71.8725 98.6195Z" fill="#FBE600"/>
<path d="M74.9783 110.785C75.1508 111.13 75.0645 111.562 74.7194 111.82L72.7349 112.942C72.3898 113.115 71.9584 113.028 71.6996 112.683C71.527 112.338 71.6133 111.907 71.9584 111.648L73.9429 110.526C74.3743 110.267 74.8057 110.44 74.9783 110.785Z" fill="#FBE600"/>
<path d="M83.6059 119.413C83.951 119.586 84.1236 120.104 83.8647 120.449L82.7431 122.433C82.5705 122.778 82.0528 122.951 81.7077 122.692C81.3626 122.52 81.19 122.002 81.4488 121.657L82.5705 119.672C82.7431 119.327 83.2608 119.155 83.6059 119.413Z" fill="#FBE600"/>
<path d="M94.9096 122.52H95.6861C95.8587 122.52 96.0312 122.692 96.0312 122.865V125.971C96.0312 126.143 95.8587 126.316 95.6861 126.316H94.9096C94.737 126.316 94.5645 126.143 94.5645 125.971V122.865C94.5645 122.692 94.737 122.52 94.9096 122.52Z" fill="#FBE600"/>
<path d="M107.075 119.413C107.42 119.241 107.851 119.327 108.11 119.672L109.232 121.657C109.404 122.002 109.318 122.433 108.973 122.692C108.628 122.865 108.197 122.778 107.938 122.433L106.816 120.449C106.557 120.017 106.73 119.586 107.075 119.413Z" fill="#FBE600"/>
<path d="M115.618 110.785C115.79 110.44 116.308 110.267 116.653 110.526L118.637 111.648C118.983 111.82 119.155 112.338 118.896 112.683C118.724 113.028 118.206 113.201 117.861 112.942L115.876 111.82C115.531 111.562 115.445 111.13 115.618 110.785Z" fill="#FBE600"/>
<path d="M118.809 99.4823V98.7057C118.809 98.5332 118.981 98.3606 119.154 98.3606H122.26C122.432 98.3606 122.605 98.5332 122.605 98.7057V99.4823C122.605 99.6548 122.432 99.8274 122.26 99.8274H119.154C118.895 99.8274 118.809 99.6548 118.809 99.4823Z" fill="#FBE600"/>
<path d="M115.618 87.3168C115.445 86.9717 115.531 86.5403 115.876 86.2814L117.861 85.1598C118.206 84.9872 118.637 85.0735 118.896 85.4186C119.069 85.7637 118.983 86.1951 118.637 86.454L116.653 87.5756C116.308 87.8345 115.876 87.6619 115.618 87.3168Z" fill="#FBE600"/>
<path d="M107.075 78.7749C106.73 78.6023 106.557 78.0846 106.816 77.7395L107.938 75.7551C108.11 75.4099 108.628 75.2374 108.973 75.4962C109.318 75.6688 109.491 76.1865 109.232 76.5316L108.11 78.5161C107.851 78.8612 107.42 78.9475 107.075 78.7749Z" fill="#FBE600"/>
<path d="M93.1825 99.396L93.9591 100.69L79.3775 109.146C79.0324 109.318 78.601 109.232 78.3421 108.887C78.1696 108.542 78.2559 108.11 78.601 107.852L93.1825 99.396Z" fill="#006B5C"/>
<path d="M96.1172 96.9801H94.6504V76.704C94.6504 76.5315 94.823 76.3589 94.9955 76.3589H95.772C95.9446 76.3589 96.1172 76.5315 96.1172 76.704V96.9801Z" fill="#006B5C"/>
<path d="M112.683 115.876L96.8068 100C96.9794 99.7414 97.0656 99.3962 97.0656 99.1374C97.0656 98.1883 96.2891 97.4118 95.34 97.4118C95.2537 97.4118 95.1675 97.4118 94.9949 97.4118C94.8223 97.4118 94.5635 97.498 94.3909 97.6706L90.422 93.7017L89.9043 94.2193L93.8732 98.1883C93.787 98.3608 93.7007 98.5334 93.6144 98.7923C93.6144 98.8785 93.6144 98.9648 93.6144 99.1374C93.6144 100.086 94.3909 100.863 95.34 100.863C95.6851 100.863 95.944 100.777 96.2028 100.604L112.165 116.394L112.683 115.876Z" fill="#009887"/>
<path d="M300 201.812C300 202.33 299.827 202.847 299.482 203.279C299.137 203.624 298.62 203.883 298.102 203.883H1.89819C0.862813 203.883 0 203.02 0 201.898C0 201.381 0.172563 200.863 0.517688 200.431C0.862813 200.086 1.3805 199.827 1.89819 199.827H298.102C299.137 199.741 300 200.69 300 201.812Z" fill="#FFBD00"/>
<path d="M166.73 65.3649C166.73 65.3649 160.794 71.6804 156.977 75.4697C152.737 69.47 149.875 66.207 145.74 61.0493C149.239 63.4703 157.719 70.9436 157.719 70.9436L166.73 65.3649Z" fill="#009887"/>
<path d="M199.168 49.1557C194.185 51.0504 181.464 58.629 181.464 58.629C181.464 58.629 164.29 45.7874 160.262 43.2612C169.061 46.1032 182.312 53.4713 182.312 53.4713C182.312 53.4713 195.034 49.8925 199.168 49.1557Z" fill="#009887"/>
<path d="M144.363 1.99991C141.183 4.21033 131.536 12.8415 131.536 12.8415C131.536 12.8415 119.45 2.21042 116.482 0C122.843 2.42094 132.384 8.73644 132.384 8.73644C132.384 8.73644 141.395 2.73672 144.363 1.99991Z" fill="#009887"/>
</svg>
