<svg width="24" height="24" viewBox="0 0 24 24" fill="none" xmlns="http://www.w3.org/2000/svg">
<path fill-rule="evenodd" clip-rule="evenodd" d="M13.1303 15.9598V10.2173H10.4101C10.2883 10.2173 10.1897 10.2818 10.1897 10.3613V11.3945C10.1897 11.4741 10.2883 11.5386 10.4101 11.5386H10.8755V15.9598H10.3183C10.1966 15.9598 10.0979 16.0244 10.0979 16.1039V17.0354C10.0979 17.115 10.1966 17.1795 10.3183 17.1795H13.6875C13.8092 17.1795 13.9079 17.115 13.9079 17.0354V16.1039C13.9079 16.0244 13.8092 15.9598 13.6875 15.9598H13.1303Z" fill="#009688"/>
<path fill-rule="evenodd" clip-rule="evenodd" d="M13.1691 8.16927C13.1691 8.9141 12.5802 9.51794 11.8537 9.51794C11.1272 9.51794 10.5383 8.9141 10.5383 8.16927C10.5383 7.4244 11.1272 6.82056 11.8537 6.82056C12.5802 6.82056 13.1691 7.4244 13.1691 8.16927Z" fill="#009688"/>
<path fill-rule="evenodd" clip-rule="evenodd" d="M11.9988 19.7539C7.72326 19.7539 4.24489 16.2755 4.24489 12C4.24489 7.72452 7.72326 4.24615 11.9988 4.24615C16.2742 4.24615 19.7526 7.72452 19.7526 12C19.7526 16.2755 16.2742 19.7539 11.9988 19.7539ZM12 3C7.02942 3 3 7.02942 3 12C3 16.9705 7.02942 21 12 21C16.9705 21 21 16.9705 21 12C21 7.02942 16.9705 3 12 3Z" fill="#009688"/>
</svg>
