<svg width="24" height="24" viewBox="0 0 24 24" fill="none" xmlns="http://www.w3.org/2000/svg">
<path fill-rule="evenodd" clip-rule="evenodd" d="M13.1306 15.9594V10.2168H10.4103C10.2886 10.2168 10.1899 10.2813 10.1899 10.3608V11.394C10.1899 11.4736 10.2886 11.5381 10.4103 11.5381H10.8757V15.9594H10.3185C10.1968 15.9594 10.0981 16.0239 10.0981 16.1034V17.0349C10.0981 17.1145 10.1968 17.179 10.3185 17.179H13.6877C13.8095 17.179 13.9081 17.1145 13.9081 17.0349V16.1034C13.9081 16.0239 13.8095 15.9594 13.6877 15.9594H13.1306Z" fill="#00352D"/>
<path fill-rule="evenodd" clip-rule="evenodd" d="M13.1694 8.16902C13.1694 8.91386 12.5804 9.5177 11.854 9.5177C11.1275 9.5177 10.5386 8.91386 10.5386 8.16902C10.5386 7.42415 11.1275 6.82031 11.854 6.82031C12.5804 6.82031 13.1694 7.42415 13.1694 8.16902Z" fill="#00352D"/>
<path fill-rule="evenodd" clip-rule="evenodd" d="M11.9988 19.7539C7.72326 19.7539 4.24489 16.2755 4.24489 12C4.24489 7.72452 7.72326 4.24615 11.9988 4.24615C16.2742 4.24615 19.7526 7.72452 19.7526 12C19.7526 16.2755 16.2742 19.7539 11.9988 19.7539ZM12 3C7.02942 3 3 7.02942 3 12C3 16.9705 7.02942 21 12 21C16.9705 21 21 16.9705 21 12C21 7.02942 16.9705 3 12 3Z" fill="#00352D"/>
</svg>
