<svg width="299" height="242" viewBox="0 0 299 242" fill="none" xmlns="http://www.w3.org/2000/svg">
<path d="M64.8367 240.25C51.3335 240.25 31.293 228.248 31.293 205.53C31.293 194.386 39.3306 180.777 62.0503 172.847C79.3044 166.846 53.584 158.595 53.584 128.59C53.584 112.517 69.8736 97.1928 112.098 97.1928C145.963 97.1928 138.676 76.1897 178.114 69.7602C199.119 66.3311 237.592 79.2973 233.413 110.695C229.983 136.627 212.622 138.127 222.267 155.916C225.375 161.595 237.056 170.597 253.239 166.417C274.565 160.952 286.568 171.454 293.534 182.598C307.252 204.459 295.035 240.25 254.954 240.25C211.014 240.25 64.8367 240.25 64.8367 240.25Z" fill="#EFF8F8"/>
<path d="M173.291 182.919C174.577 184.312 175.006 185.92 174.256 186.777C173.506 187.527 171.791 187.098 170.505 185.705C169.219 184.312 168.79 182.705 169.541 181.848C170.291 181.098 172.005 181.526 173.291 182.919Z" fill="white"/>
<path d="M209.836 174.99C209.514 177.991 206.514 181.098 202.763 182.17C197.297 183.777 190.546 182.384 191.617 179.598C192.475 177.562 196.976 180.67 201.905 180.027C206.192 179.491 209.086 176.276 209.622 171.561C209.943 168.775 208.764 165.453 208.764 165.453C208.764 165.453 204.906 175.74 196.333 173.597C194.404 173.061 194.189 171.025 198.369 170.811C200.405 170.704 203.191 169.418 204.477 168.025C208.014 164.382 206.085 159.345 205.978 158.916C204.906 161.06 199.226 167.918 197.512 165.453C195.797 162.988 205.335 161.81 203.191 156.345C202.441 154.309 200.619 153.559 199.441 152.273C197.297 150.022 196.761 148.629 197.083 144.771C197.083 144.771 196.011 149.272 185.937 150.987C175.864 152.701 189.688 163.953 185.723 166.632C181.758 169.311 178.971 160.952 179.614 156.559C179.614 156.559 172.22 155.702 174.792 161.488C173.613 161.703 172.648 162.453 171.791 163.524C169.433 166.632 169.005 172.204 173.72 175.74C180.257 180.562 178.971 182.384 178.436 182.706C175.22 184.635 169.326 177.562 167.826 171.561C167.826 171.561 163.003 175.633 166.111 180.991C164.182 184.956 168.147 193.422 182.186 197.386C190.653 199.744 195.583 198.887 198.583 197.386C201.048 196.208 202.12 194.493 202.656 193.957C206.299 192.028 209.407 189.778 207.585 184.849C207.693 184.742 207.8 184.742 207.8 184.635C211.015 181.527 210.05 176.062 209.836 174.99ZM196.869 188.707C195.904 187.956 196.547 185.92 197.833 185.706C199.226 185.492 201.477 186.242 203.834 186.135C201.584 188.921 198.798 190.207 196.869 188.707Z" fill="#66CCC3"/>
<path d="M190.224 156.131C190.545 157.845 189.902 159.346 188.938 159.453C187.973 159.56 186.901 158.381 186.687 156.667C186.366 154.952 187.009 153.452 187.973 153.345C188.938 153.237 190.009 154.416 190.224 156.131Z" fill="white"/>
<path d="M192.581 174.99C193.439 175.097 194.189 175.526 194.082 176.062C194.082 176.598 193.224 176.919 192.367 176.812C191.51 176.705 190.76 176.276 190.867 175.74C190.974 175.205 191.724 174.99 192.581 174.99Z" fill="white"/>
<path d="M198.583 197.28C195.583 198.78 190.653 199.638 182.186 197.28C168.04 193.315 164.182 184.85 166.111 180.885C163.003 175.634 167.826 171.455 167.826 171.455C169.326 177.456 175.22 184.421 178.436 182.599C178.971 182.278 180.257 180.456 173.72 175.634C169.005 172.098 169.433 166.526 171.791 163.418C183.794 171.991 193.01 183.778 198.583 197.28Z" fill="#00A899"/>
<path d="M175.971 168.882C176.293 169.739 175.971 170.704 175.221 170.918C174.471 171.24 173.614 170.704 173.292 169.846C172.971 168.989 173.292 168.025 174.042 167.81C174.792 167.596 175.65 168.025 175.971 168.882Z" fill="white"/>
<path d="M179.615 203.065L179.079 202.637C179.079 202.637 181.33 199.636 185.188 186.349C186.045 183.348 186.795 179.919 187.653 176.169C189.367 168.775 191.296 160.309 194.404 151.736L195.047 151.951C191.939 160.523 190.01 168.882 188.296 176.276C187.438 180.026 186.581 183.562 185.724 186.456C181.973 200.065 179.722 202.958 179.615 203.065Z" fill="white"/>
<path d="M190.439 167.489L189.796 167.275C191.082 162.239 195.154 159.131 196.333 158.381L196.762 159.024C195.476 159.774 191.618 162.667 190.439 167.489Z" fill="white"/>
<path d="M186.794 182.599L186.151 182.385C187.544 176.491 184.329 174.026 181.007 171.455C178.756 169.74 176.506 168.026 175.648 165.132L176.291 164.918C177.042 167.49 179.185 169.097 181.436 170.812C184.758 173.491 188.294 176.17 186.794 182.599Z" fill="white"/>
<path d="M183.043 195.135L182.4 194.814C184.008 190.849 186.044 187.205 193.439 184.955L193.653 185.598C186.58 187.848 184.651 191.385 183.043 195.135Z" fill="white"/>
<path d="M250.775 207.781C251.954 209.281 252.918 218.39 243.702 220.855C232.235 223.855 224.09 209.067 221.839 214.747C219.589 220.426 238.022 226.641 243.809 223.105C244.345 226.427 240.594 231.57 236.95 231.785C229.341 232.213 222.59 223.534 221.089 227.07C218.946 231.892 232.235 235.535 236.522 233.392C235.343 236.178 228.805 242.286 220.339 239.822C215.731 242.286 209.837 240.786 204.157 237.143C201.37 235.321 198.691 232.964 196.119 230.392C188.403 222.355 188.724 213.032 189.367 208.96C187.117 203.066 188.724 197.708 191.725 193.851C192.69 192.565 193.868 191.386 195.155 190.422C196.976 188.921 199.013 187.957 200.834 187.421C202.871 181.206 211.23 180.563 212.301 180.67C202.978 191.064 211.23 208.531 216.374 204.888C219.589 202.745 212.409 198.994 211.337 189.457C209.944 176.491 225.054 176.384 225.054 176.384C218.839 181.635 218.839 198.03 223.233 198.244C229.234 198.566 221.839 183.028 228.805 176.277C235.879 169.526 251.311 178.956 251.311 178.956C244.773 184.528 253.454 189.886 251.525 194.601C248.739 201.352 238.129 197.065 238.772 201.137C239.522 205.209 249.81 201.673 252.382 198.03C252.597 199.209 252.49 202.53 248.739 205.745C241.558 211.96 230.627 203.173 229.663 208.639C229.127 212.818 245.738 214.318 250.775 207.781Z" fill="#FBE600"/>
<path d="M232.663 198.029C233.842 198.029 234.913 198.672 234.806 199.315C234.806 200.065 233.734 200.601 232.556 200.601C231.377 200.601 230.305 199.958 230.412 199.315C230.412 198.458 231.484 197.922 232.663 198.029Z" fill="white"/>
<path d="M233.156 183.244C233.688 181.427 233.244 179.697 232.165 179.382C231.085 179.066 229.779 180.284 229.248 182.101C228.716 183.919 229.16 185.648 230.239 185.964C231.319 186.28 232.625 185.062 233.156 183.244Z" fill="white"/>
<path d="M215.945 224.391C217.445 225.034 218.409 226.213 218.088 227.07C217.766 227.927 216.266 228.141 214.766 227.606C213.265 226.963 212.301 225.784 212.622 224.927C212.944 223.962 214.444 223.748 215.945 224.391Z" fill="white"/>
<path d="M204.8 205.423C204.692 206.281 203.942 206.816 203.299 206.709C202.656 206.602 202.228 205.852 202.335 204.995C202.442 204.138 203.192 203.602 203.835 203.709C204.585 203.816 205.014 204.566 204.8 205.423Z" fill="white"/>
<path d="M204.263 226.213V237.036C201.476 235.214 198.797 232.856 196.225 230.285C188.509 222.248 188.83 212.925 189.473 208.853C187.223 202.959 188.83 197.601 191.831 193.744C192.796 192.458 193.974 191.279 195.26 190.314C201.048 201.245 204.263 213.568 204.263 226.213Z" fill="#66CCC3"/>
<path d="M202.656 198.886C202.335 201.565 200.834 203.494 199.227 203.28C197.726 203.066 196.762 200.815 197.083 198.136C197.405 195.457 198.905 193.528 200.513 193.743C202.12 193.957 202.978 196.207 202.656 198.886Z" fill="white"/>
<path d="M189.688 237.786L189.26 237.25C200.834 229.427 216.695 216.032 223.446 204.352C235.878 183.028 246.916 180.027 247.345 179.92L247.559 180.563C247.452 180.563 236.307 183.67 224.09 204.674C215.195 219.783 193.868 234.892 189.688 237.786Z" fill="#FFAA45"/>
<path d="M221.41 208.638L220.767 208.209C224.946 201.672 229.769 202.744 233.627 203.601C234.698 203.816 235.77 204.137 236.735 204.137V204.887C235.77 204.887 234.698 204.566 233.52 204.351C229.769 203.494 225.375 202.53 221.41 208.638Z" fill="#FFAA45"/>
<path d="M204.264 226.427L203.835 225.892C212.408 218.819 210.158 211.961 208.122 205.853C207.479 203.817 206.836 201.995 206.621 200.174L207.372 200.066C207.586 201.781 208.122 203.603 208.765 205.532C210.694 211.64 213.159 219.034 204.264 226.427Z" fill="#FFAA45"/>
<path d="M228.698 197.494L228.162 197.065C232.878 190.957 241.13 189.564 246.488 191.278L246.274 191.921C241.022 190.207 232.985 191.814 228.698 197.494Z" fill="#FFAA45"/>
<path d="M218.088 232.428C216.159 231.678 214.444 230.821 212.729 230.071C208.335 227.928 204.799 226.213 201.905 228.678L201.477 228.142C204.799 225.356 208.657 227.285 213.158 229.428C214.873 230.285 216.587 231.142 218.409 231.785L218.088 232.428Z" fill="#FFAA45"/>
<path d="M134.711 208.53C136.747 214.424 133.639 221.068 128.173 226.961C125.494 229.855 122.172 232.641 118.528 234.998C114.884 237.463 111.241 238.856 107.811 239.499C100.953 240.892 94.9511 239.606 91.8432 238.535C84.4486 239.928 78.4472 236.927 74.4819 232.641C71.1597 228.997 69.1235 224.39 68.802 220.639C61.8361 216.996 62.8006 206.923 63.2293 205.851C73.5174 219.032 95.8085 212.816 92.7006 205.958C90.7715 201.672 84.9844 209.495 73.4103 208.744C57.8708 207.78 60.7644 189.885 60.7644 189.885C65.587 198.243 84.9845 201.672 86.1633 196.528C87.7708 189.563 67.9447 195.135 61.4074 185.491C54.8701 175.847 69.1235 159.559 69.1235 159.559C74.3748 168.453 82.4124 159.237 87.5565 162.452C94.9511 167.167 87.7708 178.74 92.5934 178.74C97.5232 178.74 95.487 165.774 91.6289 162.023C93.1293 161.916 96.9873 162.881 99.988 167.81C105.775 177.454 93.2364 188.706 99.4522 190.849C104.489 192.671 109.633 173.382 102.989 166.095C105.025 165.024 115.956 165.774 116.921 177.133C118.1 191.278 99.0235 197.814 105.239 201.565C107.49 202.958 110.383 201.136 112.955 198.029C115.635 194.707 118.1 189.777 119.278 185.384C120.136 182.276 120.243 179.383 119.493 177.454C120.886 177.454 122.279 178.097 123.672 179.061C126.351 180.99 128.602 184.419 128.281 187.206C127.209 196.314 115.635 202.422 119.386 204.994C124.637 208.53 131.603 193.635 129.995 188.063C133.425 190.206 139.319 199.1 134.711 208.53Z" fill="#A5E0DA"/>
<path d="M87.9863 185.598C88.3078 184.205 89.1652 183.133 90.0225 183.348C90.8799 183.562 91.3085 184.848 90.987 186.241C90.6655 187.634 89.8082 188.706 88.9508 188.491C88.2006 188.384 87.6648 187.098 87.9863 185.598Z" fill="white"/>
<path d="M70.6233 182.171C72.6595 183.135 73.8383 184.957 73.3025 186.135C72.7667 187.314 70.6233 187.421 68.5871 186.457C66.5509 185.492 65.372 183.671 65.9079 182.492C66.5509 181.313 68.5871 181.206 70.6233 182.171Z" fill="white"/>
<path d="M91.0935 219.891C92.058 220.212 92.4867 221.069 92.2723 221.927C91.9508 222.677 90.9863 223.105 90.129 222.677C89.2716 222.248 88.7358 221.498 88.9501 220.641C89.1644 219.998 90.129 219.569 91.0935 219.891Z" fill="white"/>
<path d="M82.9481 221.175C85.9488 222.139 87.985 224.282 87.4492 226.104C86.9133 227.926 84.0198 228.569 80.9119 227.604C77.9112 226.64 75.875 224.497 76.4108 222.675C76.9467 220.853 79.8402 220.21 82.9481 221.175Z" fill="white"/>
<path d="M134.711 208.531C136.747 214.425 133.639 221.069 128.174 226.962C125.494 229.856 122.172 232.642 118.528 234.999C114.885 237.464 111.241 238.857 107.812 239.5V226.105C107.812 216.354 109.633 206.817 113.17 198.03C115.849 194.708 118.314 189.778 119.493 185.385C120.886 183.242 122.279 181.099 123.887 179.062C126.566 180.991 128.817 184.42 128.495 187.207C127.423 196.315 115.849 202.423 119.6 204.995C124.851 208.531 131.817 193.636 130.21 188.064C133.425 190.207 139.319 199.101 134.711 208.531Z" fill="#66CCC3"/>
<path d="M120.564 235.106C115.42 225.354 105.132 207.459 93.5577 197.707C71.0524 178.74 69.6592 165.131 69.6592 164.595L70.4094 164.488C70.4094 164.595 71.8026 178.419 94.0936 197.172C105.775 206.923 116.17 224.926 121.314 234.784L120.564 235.106Z" fill="#66CCC3"/>
<path d="M97.7375 201.565C90.8787 195.35 93.1293 189.885 94.9511 185.491C95.487 184.205 95.9156 183.027 96.2372 181.955L96.8802 182.062C96.6658 183.241 96.13 184.42 95.5941 185.706C93.7723 190.099 91.7361 195.136 98.1662 200.922L97.7375 201.565Z" fill="#66CCC3"/>
<path d="M115.099 225.354C108.455 213.781 99.8811 215.067 92.2721 216.138C89.8072 216.46 87.4495 216.888 85.3062 216.674V215.924C87.3424 216.031 89.5929 215.71 92.0578 215.388C99.5596 214.317 108.776 212.923 115.635 224.925L115.099 225.354Z" fill="#66CCC3"/>
<path d="M85.9488 190.743C79.733 183.992 79.733 174.026 82.9481 168.025L83.5911 168.347C80.4832 174.133 80.8047 183.992 86.4846 190.207L85.9488 190.743Z" fill="#66CCC3"/>
<path d="M117.135 228.463C114.562 224.069 117.563 219.89 121.1 215.068C122.386 213.246 123.779 211.425 124.958 209.389L125.601 209.71C124.422 211.746 123.029 213.675 121.743 215.497C118.313 220.319 115.527 224.069 117.885 228.034L117.135 228.463Z" fill="#66CCC3"/>
<path d="M115.635 210.674C116.599 208.959 118.207 208.102 119.171 208.745C120.136 209.281 120.136 211.209 119.064 212.817C118.1 214.531 116.492 215.389 115.528 214.746C114.563 214.21 114.67 212.281 115.635 210.674Z" fill="white"/>
<path d="M238.986 45.9704L238.45 45.4346C239.307 44.6845 239.736 44.2559 239.736 44.2559L240.164 44.7917C240.272 44.7917 239.736 45.2203 238.986 45.9704Z" fill="#A5E0DA"/>
<path d="M213.266 154.202L212.623 153.88C213.159 152.809 213.587 151.737 213.909 150.666L214.552 150.88C214.23 151.952 213.802 153.13 213.266 154.202ZM215.409 147.344L214.659 147.237C214.874 146.165 214.981 144.986 215.088 143.7H215.838C215.838 144.986 215.624 146.165 215.409 147.344ZM215.195 140.164C215.195 139.092 215.088 137.914 214.874 136.628L215.624 136.521C215.731 137.807 215.838 138.985 215.945 140.057L215.195 140.164ZM214.445 133.199C214.23 132.127 214.123 131.056 213.802 129.663L214.552 129.555C214.766 130.948 214.981 132.02 215.195 133.092L214.445 133.199ZM213.159 126.126C212.944 125.162 212.73 123.876 212.516 122.59L213.266 122.483C213.48 123.769 213.695 125.055 213.909 126.019L213.159 126.126ZM211.98 119.054C211.873 117.768 211.766 116.589 211.766 115.518H212.516C212.516 116.589 212.623 117.768 212.73 119.054H211.98ZM212.623 111.981L211.873 111.874C211.98 111.231 212.087 110.588 212.194 109.945C212.301 109.41 212.409 108.874 212.516 108.338L213.159 108.445C213.052 108.981 212.944 109.517 212.837 110.052C212.837 110.695 212.73 111.338 212.623 111.981ZM245.095 111.767C244.238 111.767 243.38 111.767 242.416 111.66V110.91C243.595 111.017 244.881 111.017 245.952 111.017V111.767C245.738 111.767 245.417 111.767 245.095 111.767ZM249.596 111.446L249.489 110.695C250.668 110.481 251.847 110.267 252.918 109.838L253.133 110.481C252.061 110.91 250.882 111.231 249.596 111.446ZM238.879 111.231C237.7 111.017 236.522 110.695 235.343 110.374L235.557 109.731C236.629 110.052 237.808 110.374 238.986 110.588L238.879 111.231ZM232.02 109.195C230.949 108.767 229.877 108.124 228.805 107.588L229.127 106.945C230.091 107.481 231.163 108.016 232.235 108.552L232.02 109.195ZM256.455 108.874L256.026 108.338C256.991 107.695 257.848 106.838 258.491 105.98L259.027 106.409C258.384 107.373 257.419 108.231 256.455 108.874ZM225.805 105.552C224.84 104.802 223.983 104.052 223.125 103.194L223.661 102.659C224.519 103.516 225.376 104.266 226.341 104.909L225.805 105.552ZM214.23 105.123L213.587 104.909C213.909 103.73 214.338 102.659 214.874 101.587L215.409 101.801C214.981 102.873 214.552 103.944 214.23 105.123ZM260.742 103.087L260.099 102.873C260.42 101.908 260.527 100.837 260.527 99.7652C260.527 99.6581 260.527 99.5509 260.527 99.4437H261.277C261.277 99.5509 261.277 99.6581 261.277 99.7652C261.17 101.051 261.063 102.123 260.742 103.087ZM220.661 100.515C219.91 99.5509 219.267 98.5865 218.624 97.5149L219.267 97.1934C219.91 98.1578 220.553 99.1223 221.304 100.087L220.661 100.515ZM217.017 98.6936L216.374 98.3722C217.017 97.3006 217.66 96.3361 218.303 95.3717L218.839 95.8004C218.196 96.6576 217.553 97.622 217.017 98.6936ZM259.884 96.1218C259.563 95.0502 259.027 93.9786 258.491 92.9071L259.134 92.5856C259.777 93.6572 260.313 94.7288 260.634 95.9075L259.884 96.1218ZM216.91 94.3001C216.374 93.2285 216.052 92.0498 215.624 90.871L216.267 90.6567C216.588 91.7283 217.017 92.9071 217.446 93.9786L216.91 94.3001ZM221.196 93.0142L220.661 92.4784C221.518 91.6212 222.375 90.7639 223.34 90.1209L223.768 90.6567C222.911 91.4068 222.054 92.157 221.196 93.0142ZM256.455 90.1209C255.598 89.2637 254.74 88.5136 253.776 87.8706L254.204 87.2276C255.169 87.8706 256.133 88.6207 256.991 89.5851L256.455 90.1209ZM226.769 88.7279L226.448 88.0849C227.519 87.442 228.591 87.0133 229.663 86.4775L229.984 87.1205C228.805 87.6563 227.734 88.1921 226.769 88.7279ZM214.874 87.442C214.659 86.2632 214.552 85.0845 214.552 83.7986H215.302C215.302 84.9773 215.409 86.1561 215.624 87.3348L214.874 87.442ZM250.668 86.3704C250.346 86.2632 250.025 86.1561 249.596 86.0489C248.846 85.8346 247.989 85.6203 247.238 85.5131L247.346 84.763C248.203 84.8702 248.953 85.0845 249.81 85.2988C250.132 85.4059 250.561 85.5131 250.882 85.6203L250.668 86.3704ZM233.199 86.0489L232.985 85.4059C234.164 85.0845 235.343 84.8702 236.522 84.6558L236.629 85.4059C235.557 85.5131 234.378 85.7274 233.199 86.0489ZM243.702 85.0845C242.523 84.9773 241.344 84.9773 240.165 84.9773V84.2272C241.344 84.2272 242.523 84.2272 243.809 84.3344L243.702 85.0845ZM215.302 80.2623L214.552 80.1552C214.659 78.9764 214.873 77.7977 215.088 76.6189L215.731 76.7261C215.624 78.012 215.409 79.1907 215.302 80.2623ZM216.91 73.5113L216.267 73.297C216.481 72.6541 216.803 72.0111 217.017 71.3682C217.231 70.9395 217.446 70.5109 217.66 69.9751L218.303 70.2966C218.089 70.7252 217.874 71.1538 217.66 71.5825C217.446 72.2254 217.124 72.8684 216.91 73.5113ZM220.125 67.189L219.482 66.7603C220.125 65.7959 220.768 64.8315 221.518 63.7599L222.054 64.1885C221.411 65.2601 220.768 66.3317 220.125 67.189ZM224.304 61.5096L223.768 61.0809C224.519 60.2236 225.269 59.2592 226.019 58.2948L226.555 58.7234C225.805 59.6879 225.055 60.5451 224.304 61.5096ZM228.913 56.0445L228.377 55.6158C229.127 54.7586 229.984 53.9013 230.842 53.044L231.377 53.5798C230.52 54.3299 229.663 55.1872 228.913 56.0445ZM233.842 50.9008L233.306 50.365C234.164 49.5078 235.021 48.6505 235.879 47.9004L236.414 48.4362C235.557 49.1863 234.7 50.0436 233.842 50.9008Z" fill="#FFD259"/>
<path d="M210.372 158.915L209.836 158.487C210.158 158.058 210.479 157.522 210.801 157.094L211.444 157.522C211.122 157.951 210.694 158.38 210.372 158.915Z" fill="#A5E0DA"/>
<path d="M101.703 154.736C101.382 153.665 100.846 152.7 100.096 151.736L100.631 151.307C101.382 152.272 102.025 153.343 102.453 154.522L101.703 154.736ZM97.4163 149.593C96.559 149.057 95.4873 148.521 94.3084 148.2L94.5227 147.557C95.7016 147.985 96.8805 148.521 97.845 149.057L97.4163 149.593ZM90.879 147.343C89.8073 147.128 88.6285 146.914 87.4496 146.807L87.5568 146.057C88.8428 146.164 90.0217 146.378 91.0934 146.592L90.879 147.343ZM59.05 147.128V146.378C59.9073 146.378 60.7647 146.378 61.622 146.271L62.5866 146.164V146.914L61.622 147.021C60.8719 147.021 60.0145 147.128 59.05 147.128ZM55.5134 147.021C54.3346 146.914 53.1557 146.807 51.9769 146.592L52.084 145.842C53.2629 146.057 54.4417 146.164 55.6206 146.271L55.5134 147.021ZM66.2303 146.7V145.949C67.4091 145.842 68.588 145.842 69.7668 145.735V146.485C68.588 146.592 67.4091 146.592 66.2303 146.7ZM83.9131 146.485C82.8414 146.378 81.6625 146.378 80.3765 146.378V145.628C81.6625 145.628 82.8414 145.735 83.9131 145.735V146.485ZM73.3034 146.378V145.628C74.5894 145.628 75.7683 145.521 76.84 145.521V146.271C75.6611 146.271 74.4823 146.271 73.3034 146.378ZM48.4403 145.949C47.2615 145.628 46.0826 145.414 45.0109 144.985L45.2253 144.342C46.2969 144.664 47.4758 144.985 48.6546 145.306L48.4403 145.949ZM41.5815 143.699C40.5098 143.27 39.331 142.735 38.3665 142.199L38.688 141.556C39.6525 142.092 40.7242 142.628 41.903 143.056L41.5815 143.699ZM35.3658 140.377C34.2941 139.627 33.4367 138.877 32.5794 138.127L33.0081 137.591C33.8654 138.341 34.7228 139.091 35.7944 139.734L35.3658 140.377ZM30.0073 135.448C29.2572 134.483 28.6141 133.412 28.1855 132.34L28.8285 132.019C29.2572 132.983 29.793 134.055 30.5432 135.019L30.0073 135.448ZM27.3281 128.804C27.3281 128.59 27.3281 128.268 27.3281 128.054C27.3281 127.09 27.4353 126.125 27.7568 125.161L28.3998 125.375C28.1855 126.232 27.9711 127.197 27.9711 128.054C27.9711 128.268 27.9711 128.483 27.9711 128.697L27.3281 128.804ZM29.793 122.267L29.15 121.839C29.793 120.874 30.5432 119.91 31.4005 119.053L31.9364 119.588C31.1862 120.446 30.436 121.303 29.793 122.267ZM34.6156 117.231L34.1869 116.695C35.0443 116.052 36.1159 115.302 37.0805 114.659L37.5091 115.302C36.4374 115.838 35.4729 116.588 34.6156 117.231ZM40.5098 113.48L40.1883 112.837C41.1529 112.302 42.2245 111.766 43.4034 111.23L43.7249 111.873C42.546 112.409 41.5815 112.945 40.5098 113.48ZM46.94 110.587L46.7256 109.944C47.7973 109.515 48.869 109.087 50.0478 108.658L50.2622 109.301C49.0833 109.73 48.0116 110.158 46.94 110.587Z" fill="#FFD259"/>
<path d="M89.2713 95.2636L69.4451 113.373L64.1939 104.479L88.7354 95.3707L60.0143 97.4067L55.9419 90.4414L89.1641 95.2636C89.2713 95.1564 89.3785 95.1564 89.2713 95.2636Z" fill="#FFA300"/>
<path d="M88.8425 95.2637L64.3009 104.372L57.5493 106.837C57.0135 107.051 56.4776 106.515 56.6919 105.98L60.2285 97.1925L88.8425 95.2637Z" fill="#FBE600"/>
<path d="M69.3386 113.91L63.873 104.587L64.5161 104.266L69.553 112.838L84.9852 98.6934L85.4139 99.2292L69.3386 113.91Z" fill="#FF7700"/>
<path d="M74.3483 95.9166L71.5688 96.1152L71.6223 96.8635L74.4018 96.6648L74.3483 95.9166Z" fill="white"/>
<path d="M68.4481 96.3611L60.1099 96.957L60.1634 97.7053L68.5016 97.1093L68.4481 96.3611Z" fill="white"/>
<path d="M93.13 130.733C90.9867 130.733 89.272 129.018 89.272 126.875C89.272 124.732 90.9867 123.018 93.13 123.018C95.2734 123.018 96.9881 124.732 96.9881 126.875C96.9881 129.018 95.2734 130.733 93.13 130.733ZM93.13 123.553C91.4153 123.553 89.915 124.946 89.915 126.768C89.915 128.483 91.3082 129.983 93.13 129.983C94.8447 129.983 96.3451 128.59 96.3451 126.768C96.3451 125.054 94.8447 123.553 93.13 123.553Z" fill="#66CCC3"/>
<path d="M37.1867 174.562H36.4365C36.4365 171.241 33.7573 168.562 30.4351 168.562V167.811C33.7573 167.811 36.4365 165.132 36.4365 161.811H37.1867C37.1867 165.132 39.8659 167.811 43.1881 167.811V168.562C39.8659 168.562 37.1867 171.241 37.1867 174.562ZM32.5784 168.24C34.6146 168.883 36.115 170.49 36.758 172.419C37.401 170.383 39.0085 168.883 40.9376 168.24C38.9014 167.597 37.401 165.99 36.758 164.061C36.115 165.99 34.6146 167.597 32.5784 168.24Z" fill="#66CCC3"/>
<path d="M265.456 23.4675L255.596 43.9349L248.63 38.5769L265.027 23.6819L243.165 34.3977L237.806 30.2185L265.456 23.4675C265.456 23.3604 265.456 23.4675 265.456 23.4675Z" fill="#FFA300"/>
<path d="M265.134 23.6824L248.63 38.5775L244.129 42.6495C243.807 42.971 243.164 42.7566 243.164 42.2209V34.1839L265.134 23.6824C265.134 23.5752 265.134 23.6824 265.134 23.6824Z" fill="#FBE600"/>
<path d="M257.51 26.922L256.065 27.627L256.394 28.3011L257.839 27.5961L257.51 26.922Z" fill="white"/>
<path d="M254.592 28.3893L243.034 34.0293L243.363 34.7034L254.921 29.0634L254.592 28.3893Z" fill="white"/>
<path d="M255.704 44.5788L248.417 38.8993L248.845 38.3636L255.49 43.4L265.135 23.3613L265.778 23.6828L255.704 44.5788Z" fill="#FF7700"/>
<path d="M197.189 85.1911V94.1925C197.189 104.694 194.831 114.874 190.545 123.983C189.259 126.769 187.758 129.448 186.044 132.02C183.043 136.627 179.614 140.914 175.648 144.664C170.076 150.022 163.538 154.523 156.144 157.845C137.175 149.272 123.35 132.877 117.777 113.481C115.955 107.266 115.098 100.836 115.098 94.0853V85.084H197.189V85.1911Z" fill="white"/>
<path d="M297.392 240.25H0V241H297.392V240.25Z" fill="#66CCC3"/>
<path d="M190.439 124.09C189.153 126.876 187.652 129.555 185.938 132.127C184.652 134.163 183.258 136.092 181.758 137.913C179.829 140.271 177.793 142.628 175.542 144.772C169.97 150.13 163.432 154.63 156.038 157.952C138.784 150.13 125.816 135.877 119.386 118.732C118.743 117.018 118.207 115.303 117.671 113.588C126.352 110.588 135.354 109.945 143.392 111.874C143.499 111.874 143.499 111.874 143.606 111.981C158.181 115.41 158.717 121.733 178.007 124.09C182.187 124.411 187.438 124.197 190.439 124.09Z" fill="#FFD259"/>
<path d="M181.757 137.914C179.828 140.271 177.792 142.629 175.541 144.772C169.968 150.13 163.431 154.63 156.036 157.952C138.782 150.13 125.815 135.878 119.385 118.732C127.53 117.446 137.818 120.447 143.926 126.769C145.32 128.162 146.713 129.555 148.106 130.841C158.394 139.735 169.968 144.557 181.757 137.914Z" fill="#FFC159"/>
<path d="M197.189 226.213V235.214H115.098V226.213C115.098 198.78 131.173 173.812 156.144 162.561C158.287 163.525 160.323 164.597 162.359 165.775C183.686 178.206 197.189 201.138 197.189 226.213Z" fill="white"/>
<path d="M197.189 80.2617H115.098V85.191H197.189V80.2617Z" fill="#66CCC3"/>
<path d="M197.189 235.32H115.098V240.25H197.189V235.32Z" fill="#66CCC3"/>
<path d="M171.469 132.77C167.825 135.77 166.218 144.986 171.255 142.735C176.291 140.485 180.257 133.198 178.542 130.305C177.899 128.912 173.934 130.841 171.469 132.77Z" fill="white"/>
<path d="M189.368 235.322H122.816C135.247 235.322 145.214 228.892 150.68 220.212C152.93 216.569 154.538 212.497 155.074 208.425C155.288 207.139 155.395 205.853 155.395 204.674V161.061H156.788V204.674C156.788 214.854 162.683 225.249 172.435 230.928C177.258 233.607 183.045 235.322 189.368 235.322Z" fill="#FFC159"/>
<path d="M175.542 144.772C169.97 150.13 163.432 154.63 156.038 157.952C137.069 149.379 123.244 132.984 117.671 113.588C115.85 107.373 114.992 100.944 114.992 94.1927V85.1914H153.251C131.818 103.516 149.393 157.416 175.542 144.772Z" fill="#FEF59D"/>
<path d="M175.542 144.772C169.97 150.13 163.432 154.63 156.038 157.952C138.784 150.13 125.816 135.877 119.386 118.732C118.743 117.018 118.207 115.303 117.671 113.588C126.352 110.588 135.354 109.945 143.392 111.874C143.499 111.874 143.499 111.874 143.606 111.981C144.571 132.234 158.181 153.13 175.542 144.772Z" fill="#FFC159"/>
<path d="M175.541 144.772C169.968 150.13 163.431 154.63 156.036 157.952C138.782 150.13 125.815 135.878 119.385 118.732C127.53 117.446 137.818 120.447 143.926 126.769C145.32 128.162 146.713 129.555 148.106 130.841C153.786 142.736 163.86 150.451 175.541 144.772Z" fill="#FFAA45"/>
<path d="M159.467 53.0428L158.824 50.5781L157.859 54.3287L159.467 53.0428Z" fill="#004F3F"/>
<path d="M177.258 50.7933C176.293 48.543 174.793 46.9356 173.292 45.7568C171.792 44.5781 170.292 43.3993 169.649 41.149C168.148 35.7911 170.506 34.8266 168.791 29.4687C167.077 24.1108 163.111 25.3967 161.397 20.1459C161.182 19.5029 161.075 18.86 161.075 18.217C161.29 17.3598 161.397 16.5025 161.504 15.6452C161.504 15.5381 161.504 15.3237 161.504 15.2166C161.611 13.7164 161.397 12.109 160.968 10.6088C158.825 2.89332 150.894 -1.60734 143.178 0.535833C135.462 2.67901 130.961 10.6088 133.104 18.3242C133.533 19.8244 134.176 21.3246 135.033 22.5034C135.14 22.6105 135.248 22.7177 135.248 22.8249C135.783 23.575 136.319 24.2179 136.962 24.7537C137.284 25.2895 137.498 25.8253 137.605 26.5754C138.891 32.0405 134.819 32.8978 136.105 38.3629C136.105 38.47 136.105 38.5772 136.212 38.6843L137.177 36.0054L137.498 36.1125L137.82 35.2553L137.498 35.1481L137.712 34.5052L138.034 34.6123L138.356 33.8622C138.999 31.9333 140.928 30.5403 142.964 30.7546H145H146.072L145.321 25.8253L144.893 25.9325C141.571 26.4682 138.57 24.0036 138.356 20.7888L137.498 11.5732C139.963 11.466 142.535 12.0018 144.786 13.2877C146.822 14.4665 149.287 14.7879 151.537 14.4665H151.859C152.823 14.3593 153.681 15.0023 153.895 15.9667C154.002 16.9311 153.359 17.7884 152.395 18.0027H152.073L152.502 20.896L153.895 30.4331C153.895 30.5403 153.895 30.5403 153.895 30.6474H159.789C159.789 30.6474 159.789 30.6474 159.896 30.6474V30.9689V30.6474C160.004 30.6474 160.218 30.6474 160.325 30.6474C162.361 30.9689 163.969 32.362 164.505 34.2908C164.505 34.398 164.505 34.5052 164.612 34.5052V34.9338L165.683 43.7208H165.362L165.469 44.4709H165.791L166.219 48.1143H165.898L166.648 54.3295C166.755 55.5083 166.326 56.5799 165.362 57.33C165.255 57.4371 165.148 57.5443 165.04 57.5443L156.896 62.3664C158.396 63.5452 159.468 65.0454 160.325 66.7599H163.111C177.579 66.5456 179.615 56.2584 177.258 50.7933Z" fill="#004F3F"/>
<path d="M138.998 49.4004L139.105 51.4364V49.4004H138.998Z" fill="#DDD6FF"/>
<path d="M140.069 65.2598L143.177 66.3314L144.998 64.9383L146.177 63.9739L145.963 63.6524L148.964 61.2949H146.927H140.819L138.783 63.3309C138.568 63.9739 138.354 64.6168 138.14 65.367C138.675 65.0455 139.426 65.0455 140.069 65.2598Z" fill="#009887"/>
<path d="M140.926 70.0824H139.212C138.997 70.0824 138.676 70.0824 138.354 69.9753C138.033 69.8681 137.711 69.6538 137.497 69.4395C137.497 69.6538 137.497 69.8681 137.497 70.0824H140.926Z" fill="#009887"/>
<path d="M157.216 62.2598L147.25 68.1535L144.356 69.868C144.035 69.9752 143.82 70.0824 143.499 70.0824H147.678V72.2255H146.285H138.462H137.39H132.353H131.282H130.746H111.67C109.419 72.2255 107.705 74.0472 107.705 76.1904C107.705 76.5119 107.705 76.8334 107.812 77.0477L118.207 123.555H122.815C122.815 123.447 122.815 123.34 122.815 123.233L120.565 108.017L120.243 108.124L120.136 107.266L120.458 107.159L120.243 105.338L119.815 105.445L115.635 80.2624L116.385 80.1553L116.814 82.9414L116.385 80.2624H119.922L127.209 123.662H131.817C131.817 123.555 131.817 123.555 131.817 123.447L131.71 122.054H131.389L129.138 98.2651H129.46L129.138 95.0503H128.817L128.495 91.8356H128.817L127.745 80.2624H142.427H156.788C159.574 80.2624 161.717 78.0121 161.717 75.3331V71.7969C161.717 69.9752 161.289 68.2607 160.539 66.6533C159.788 64.9387 158.717 63.4385 157.216 62.2598Z" fill="#009887"/>
<path d="M144.999 64.8301L143.178 66.2231L140.07 65.1516C139.427 64.9372 138.677 65.0444 138.141 65.2587C137.605 65.5802 137.069 66.0088 136.855 66.6518C136.533 67.6162 136.855 68.5806 137.498 69.2236C137.712 69.4379 138.034 69.6522 138.355 69.7594C138.569 69.8665 138.891 69.8665 139.212 69.8665H140.927H143.499C143.821 69.8665 144.142 69.7594 144.356 69.6522L147.25 67.9377L144.999 64.8301Z" fill="url(#paint0_linear)"/>
<path d="M131.924 70.0815L138.783 63.3305L140.819 61.2945H146.928H148.964L151.643 59.1513L152.072 59.6871L146.392 64.1878L146.178 63.8663L144.999 64.8308L147.25 68.1527L157.216 62.2589L165.361 57.4368C165.468 57.3296 165.575 57.3296 165.683 57.2225C166.647 56.4724 167.076 55.2936 166.969 54.222L166.218 48.0068H165.897L165.468 44.3634H165.79L165.683 43.6133H165.361L164.289 34.8263C164.289 34.612 164.182 34.3977 164.182 34.2905C163.753 32.576 162.36 31.3972 160.646 31.1829C160.538 31.1829 160.431 31.1829 160.324 31.1829H160.217H157.323L145.321 39.0055V30.7543H143.284C141.141 30.6471 139.319 31.933 138.676 33.8619L138.355 34.612L138.676 34.7191L138.462 35.3621L138.14 35.2549L137.819 36.1122L138.14 36.2194L135.675 42.7561C135.461 43.2918 135.354 43.7205 135.354 44.2563C135.354 46.6138 137.283 48.5426 139.641 48.5426C140.605 48.5426 141.462 48.2211 142.213 47.6854L142.641 48.2211C141.784 48.8641 140.712 49.2927 139.641 49.2927C139.426 49.2927 139.319 49.2927 139.105 49.2927L139.212 51.3288L139.319 53.6862L130.531 64.8308L131.924 70.0815ZM152.286 58.7227L153.68 57.6511L154.108 58.1869L152.715 59.2585L152.286 58.7227ZM157.002 43.6133L157.645 43.399L160.217 53.2576L155.823 56.6867L155.394 56.1509L157.752 54.3292L158.717 50.5786L157.002 43.6133Z" fill="#FFD259"/>
<path d="M145.32 38.8988L157.323 31.0762H154.323C154.323 30.8618 154.323 30.6475 154.323 30.326C154.323 30.2189 154.323 30.2189 154.323 30.1117L152.929 20.5746L152.501 17.6813H152.822C153.787 17.5742 154.43 16.6097 154.323 15.6453C154.215 14.6809 153.251 14.0379 152.286 14.1451H151.965C149.607 14.4666 147.249 14.0379 145.213 12.9663C142.963 11.7876 140.498 11.1446 137.926 11.2518L138.783 20.4674C139.105 23.7894 142.105 26.1469 145.32 25.6111L145.749 25.5039L146.499 30.4332H145.428V38.8988H145.32ZM142.856 22.0748C141.784 22.182 140.819 21.3247 140.819 20.2531L144.677 20.0388C144.785 21.1104 144.034 22.0748 142.856 22.0748Z" fill="url(#paint1_linear)"/>
<path d="M137.498 70.082H131.925L132.461 72.2252H137.498H138.569H146.393H147.679V70.082H143.499H140.927H137.498Z" fill="#004F3F"/>
<path d="M131.389 72.2254H132.461L131.925 70.0823L130.532 64.8315L126.031 47.9004H124.959L131.389 72.2254Z" fill="white"/>
<path d="M130.746 72.2254H131.389L124.959 47.9004H97.0951H96.0234L101.168 67.6176L130.746 72.2254ZM112.635 57.5447C114.028 57.5447 115.421 58.6163 115.742 60.0093C116.064 61.4024 115.314 62.474 113.921 62.474C112.527 62.474 111.134 61.4024 110.813 60.0093C110.491 58.7234 111.241 57.5447 112.635 57.5447Z" fill="#66CCC3"/>
<path d="M113.92 62.5816C115.313 62.5816 116.063 61.5101 115.742 60.117C115.42 58.7239 114.027 57.6523 112.634 57.6523C111.241 57.6523 110.491 58.7239 110.812 60.117C111.134 61.4029 112.527 62.5816 113.92 62.5816Z" fill="white"/>
<path d="M111.777 72.225H130.745L101.167 67.6172L102.453 72.225H103.525H111.669H111.777Z" fill="#A5E0DA"/>
<path d="M127.209 123.555L124.851 124.948C124.53 125.162 124.315 125.484 124.315 125.805C124.315 126.341 124.744 126.769 125.28 126.769H131.71V123.555H127.209Z" fill="#40327A"/>
<path d="M118.208 123.555L115.85 124.948C115.529 125.162 115.314 125.484 115.314 125.805C115.314 126.341 115.743 126.769 116.279 126.769H122.709V123.555H118.208Z" fill="#40327A"/>
<path d="M157.86 54.3286L155.502 56.1503L155.931 56.7933L160.325 53.3642L157.752 43.3984L157.002 43.6128L158.824 50.5781L159.467 53.0427L157.86 54.3286Z" fill="white"/>
<path d="M153.692 57.5984L152.343 58.6562L152.806 59.2465L154.155 58.1886L153.692 57.5984Z" fill="white"/>
<path d="M146.178 63.9748L146.392 64.2962L152.072 59.7956L151.643 59.2598L148.964 61.2958L145.963 63.6533L146.178 63.9748Z" fill="white"/>
<path d="M139.534 49.401C140.605 49.401 141.677 49.0795 142.534 48.3294L142.106 47.7936C141.356 48.3294 140.498 48.6509 139.534 48.6509C137.176 48.6509 135.247 46.722 135.247 44.3645C135.247 43.8287 135.354 43.4001 135.569 42.8643L138.033 36.3276L137.712 36.2204L137.39 36.1133L136.426 38.7922L134.926 42.7571L134.818 43.0786C134.711 43.5072 134.604 44.043 134.604 44.4717C134.604 47.0435 136.533 49.1866 139.105 49.401C139.212 49.401 139.427 49.401 139.534 49.401Z" fill="white"/>
<path d="M138.462 35.4703L138.676 34.7202L138.355 34.613L138.033 34.5059L137.712 35.1488L138.033 35.3631L138.462 35.4703Z" fill="white"/>
<path d="M154.216 31.0765H157.216H160.11H160.217C160.324 31.0765 160.431 31.0765 160.538 31.0765C162.253 31.2909 163.646 32.5768 164.075 34.1841C164.075 34.2913 164.182 34.5056 164.182 34.7199L165.254 43.507H165.575H165.897L164.825 34.7199V34.2913C164.825 34.1842 164.825 34.077 164.718 34.077C164.182 32.1481 162.575 30.6479 160.538 30.4336C160.431 30.4336 160.217 30.4336 160.11 30.4336V30.7551V30.4336C160.11 30.4336 160.11 30.4336 160.003 30.4336H154.108C154.216 30.5408 154.216 30.8622 154.216 31.0765Z" fill="white"/>
<path d="M165.896 47.8993H166.218L166.539 47.7921L166.111 44.2559H165.789L165.468 44.363L165.896 47.8993Z" fill="white"/>
<path d="M140.819 20.2534C140.926 21.325 141.783 22.1822 142.855 22.0751C143.927 21.9679 144.784 21.1106 144.677 20.0391L140.819 20.2534Z" fill="white"/>
<path d="M131.388 121.947H131.71H132.031L129.781 98.1582H129.459L129.138 98.2654L131.388 121.947Z" fill="#00A899"/>
<path d="M128.817 95.0504L129.138 94.9433H129.567L129.245 91.7285H128.817L128.495 91.8357L128.817 95.0504Z" fill="#00A899"/>
<path d="M120.243 108.123L120.565 108.015H120.886L120.779 107.158H120.457L120.029 107.265L120.243 108.123Z" fill="#00A899"/>
<path d="M116.384 80.1543L115.634 80.2615L119.814 105.444H120.135L120.457 105.337L116.813 82.9404L116.384 80.1543Z" fill="#00A899"/>
<path d="M164.289 148.415C162.359 147.343 163.431 144.557 164.931 144.771C168.147 144.986 166.753 149.701 164.289 148.415Z" fill="white"/>
<path d="M197.189 232.212V235.32H115.098V226.318C115.098 198.886 131.173 173.918 156.144 162.666C158.287 163.63 160.323 164.702 162.359 165.881C152.714 174.882 146.391 184.741 144.998 197.278C142.748 216.674 151.643 233.927 197.189 232.212Z" fill="#FEF59D"/>
<path d="M189.368 235.32H122.816C135.247 235.32 145.214 228.891 150.68 220.211C154.966 225.14 161.932 228.891 172.435 230.82C177.258 233.606 183.045 235.32 189.368 235.32Z" fill="#FFAA45"/>
<path d="M115.421 240.25H114.67V226.212C114.67 210.246 120.136 194.707 130.103 182.17L130.639 182.599C120.779 194.922 115.313 210.353 115.313 226.105V240.25H115.421Z" fill="#00A899"/>
<path d="M133.21 179.705L132.674 179.277C135.997 175.633 139.64 172.311 143.605 169.418L144.034 169.954C140.176 172.847 136.532 176.062 133.21 179.705Z" fill="#00A899"/>
<path d="M193.974 206.709C188.616 188.599 175.97 173.169 159.145 164.489L159.466 163.846C176.399 172.633 189.259 188.171 194.617 206.495L193.974 206.709Z" fill="#00A899"/>
<path d="M196.226 217.531C196.012 216.245 195.905 214.959 195.583 213.674L196.333 213.566C196.548 214.852 196.762 216.138 196.976 217.424L196.226 217.531Z" fill="#00A899"/>
<path d="M197.511 240.25H196.761V226.212C196.761 224.069 196.654 221.819 196.439 219.676L197.19 219.568C197.404 221.712 197.511 223.962 197.511 226.212V240.25Z" fill="#00A899"/>
<path d="M155.394 150.773V161.06V173.169C155.823 172.634 156.359 171.991 156.787 171.455V160.953V150.666H155.394V150.773Z" fill="#FFAA45"/>
<path d="M163.004 234.893H117.993V235.643H163.004V234.893Z" fill="white"/>
<path d="M166.003 235H164.503V235.75H166.003V235Z" fill="white"/>
<path d="M192.904 235H176.078V235.75H192.904V235Z" fill="#00A899"/>
<path d="M158.287 157.309L157.965 156.666C160.323 155.488 162.574 154.202 164.717 152.809L165.146 153.452C163.002 154.845 160.645 156.131 158.287 157.309Z" fill="#00A899"/>
<path d="M166.218 152.7L165.79 152.057C173.72 146.699 180.472 139.948 185.616 131.912C187.33 129.34 188.724 126.661 190.01 123.875C191.617 120.446 192.903 117.016 193.975 113.373L194.618 113.587C193.546 117.231 192.26 120.767 190.653 124.196C189.367 126.982 187.866 129.661 186.152 132.34C181.007 140.484 174.256 147.342 166.218 152.7Z" fill="#00A899"/>
<path d="M195.368 111.446L194.725 111.231C194.832 110.803 194.939 110.374 195.047 109.945L195.69 110.052C195.582 110.588 195.475 111.017 195.368 111.446Z" fill="#00A899"/>
<path d="M127.315 134.484C126.672 133.519 125.922 132.448 125.279 131.376L125.922 131.055C126.565 132.126 127.208 133.091 127.958 134.055L127.315 134.484Z" fill="#00A899"/>
<path d="M155.502 158.059C145 153.237 135.676 145.736 128.71 136.413L129.246 135.984C136.105 145.2 145.321 152.594 155.716 157.416L155.502 158.059Z" fill="#00A899"/>
<path d="M197.512 95.2648H196.762V80.5841H150.894V79.834H197.512V95.2648Z" fill="#00A899"/>
<path d="M185.616 84.8691H134.389V85.6193H185.616V84.8691Z" fill="#00A899"/>
<path d="M191.724 84.8691H189.688V85.6193H191.724V84.8691Z" fill="#00A899"/>
<path d="M148.428 79.834H146.713V80.5841H148.428V79.834Z" fill="#00A899"/>
<path d="M121.635 47.5781H119.385V48.3282H121.635V47.5781Z" fill="#66CCC3"/>
<path d="M99.559 62.5803L95.5938 47.5781H115.741V48.2211H96.4511L100.202 62.4732L99.559 62.5803Z" fill="#66CCC3"/>
<defs>
<linearGradient id="paint0_linear" x1="136.739" y1="67.4796" x2="147.225" y2="67.4796" gradientUnits="userSpaceOnUse">
<stop stop-color="#FFA58E"/>
<stop offset="1" stop-color="#FFC39F"/>
</linearGradient>
<linearGradient id="paint1_linear" x1="137.805" y1="25.1261" x2="157.267" y2="25.1261" gradientUnits="userSpaceOnUse">
<stop stop-color="#FFA58E"/>
<stop offset="1" stop-color="#FFC39F"/>
</linearGradient>
</defs>
</svg>
