<svg width="207" height="141" viewBox="0 0 207 141" fill="none" xmlns="http://www.w3.org/2000/svg">
<path opacity="0.4" d="M194.824 101.841C190.484 101.841 186.917 98.274 186.917 93.934C186.917 89.6535 190.365 86.1458 194.645 86.0269C187.214 63.7324 166.227 47.6804 141.436 47.6804C131.27 47.6804 121.698 50.4152 113.494 55.1713C103.149 40.13 85.9078 30.3204 66.3481 30.3204C51.7824 30.3204 38.5246 35.79 28.4178 44.7078C29.9636 46.313 30.9148 48.5127 30.9148 50.8908C30.9148 55.7659 26.9315 59.7491 22.0565 59.7491C20.2729 59.7491 18.6082 59.2141 17.1814 58.2628C12.128 66.7645 9.21484 76.7524 9.21484 87.3943C9.21484 109.273 21.5214 128.297 39.6542 137.869H185.846C193.159 128.416 197.499 116.526 197.499 103.684C197.499 102.911 197.499 102.138 197.44 101.365C196.607 101.663 195.716 101.841 194.824 101.841Z" fill="#A5E0DA"/>
<path opacity="0.3" d="M67.7745 95.3014C81.5649 95.3014 92.7443 84.1221 92.7443 70.3316C92.7443 56.5412 81.5649 45.3618 67.7745 45.3618C53.9841 45.3618 42.8047 56.5412 42.8047 70.3316C42.8047 84.1221 53.9841 95.3014 67.7745 95.3014Z" fill="#009887"/>
<path d="M158.977 126.93V137.75H99.7031C98.2168 137.75 96.8494 137.155 95.8982 136.145C94.9469 135.194 94.293 133.826 94.293 132.34C94.293 129.367 96.7305 126.93 99.7031 126.93H158.977Z" fill="#009887"/>
<path d="M144.41 126.93H170.569V128.119H144.41C142.091 128.119 140.189 130.021 140.189 132.34C140.189 133.469 140.605 134.54 141.438 135.312C142.21 136.085 143.281 136.561 144.41 136.561H170.569V137.75H144.41C142.924 137.75 141.556 137.155 140.605 136.145C139.654 135.194 139 133.826 139 132.34C139 129.367 141.438 126.93 144.41 126.93Z" fill="#A5E0DA"/>
<path d="M169.319 136.561V128.178H144.409C142.09 128.178 140.188 130.081 140.188 132.399C140.188 133.529 140.604 134.599 141.436 135.372C142.209 136.145 143.279 136.62 144.409 136.62H169.319V136.561Z" fill="white"/>
<path opacity="0.3" d="M140.366 133.588C140.247 133.232 140.188 132.815 140.188 132.399C140.188 130.081 142.09 128.178 144.409 128.178H169.319V130.556H144.409C142.506 130.556 140.901 131.864 140.366 133.588Z" fill="#004F3F"/>
<path d="M165.396 122.649C165.396 125.027 163.494 126.93 161.115 126.93H100.891V118.369H161.115C162.304 118.369 163.375 118.844 164.147 119.617C164.92 120.449 165.396 121.52 165.396 122.649Z" fill="#FFBD00"/>
<path d="M130.795 122.649C130.795 125.027 128.892 126.93 126.514 126.93H100.891V118.369H126.514C127.703 118.369 128.774 118.844 129.546 119.617C130.319 120.449 130.795 121.52 130.795 122.649Z" fill="#FFD600"/>
<path d="M126.516 125.741C128.181 125.741 129.607 124.373 129.607 122.649C129.607 121.817 129.31 121.044 128.716 120.45C128.121 119.855 127.348 119.558 126.575 119.558H102.141V125.681H126.516V125.741Z" fill="white"/>
<path opacity="0.3" d="M126.517 119.617C127.349 119.617 128.122 119.914 128.657 120.509C129.252 121.103 129.549 121.876 129.549 122.709C129.549 122.946 129.549 123.125 129.489 123.303C129.37 122.709 129.073 122.174 128.657 121.757C128.063 121.163 127.29 120.866 126.517 120.866H102.082V119.617H126.517Z" fill="#004F3F"/>
<path d="M172.591 110.699C172.591 115.039 169.024 118.606 164.684 118.606H110.82V102.792H164.684C166.883 102.792 168.845 103.684 170.272 105.111C171.699 106.538 172.591 108.5 172.591 110.699Z" fill="#A5E0DA"/>
<path d="M144.352 110.699C144.352 115.039 140.785 118.606 136.445 118.606H110.762V102.792H136.445C138.645 102.792 140.607 103.684 142.033 105.111C143.46 106.538 144.352 108.5 144.352 110.699Z" fill="#009887"/>
<path d="M136.443 117.358C140.129 117.358 143.161 114.385 143.161 110.64C143.161 108.856 142.447 107.192 141.199 105.884C139.95 104.635 138.226 103.922 136.443 103.922H112.008V117.299H136.443V117.358Z" fill="white"/>
<path opacity="0.3" d="M136.443 103.981C138.226 103.981 139.891 104.695 141.199 105.943C142.447 107.192 143.161 108.916 143.161 110.699C143.161 111.234 143.101 111.71 142.982 112.245C142.685 111.056 142.09 109.926 141.199 109.035C139.95 107.786 138.226 107.073 136.443 107.073H112.008V103.981H136.443Z" fill="#004F3F"/>
<path d="M156.064 88.7021V102.971H101.427C99.4653 102.971 97.6817 102.198 96.3738 100.89C95.0658 99.5819 94.293 97.7983 94.293 95.8364C94.293 91.9126 97.5034 88.7021 101.427 88.7021H156.064Z" fill="#FFD600"/>
<path d="M129.787 88.7021H161.119V89.8912H129.728C126.458 89.8912 123.842 92.5665 123.842 95.7769C123.842 97.3821 124.437 98.8684 125.566 99.9386C126.696 101.068 128.182 101.663 129.728 101.663H161.119V102.852H129.728C127.766 102.852 125.983 102.079 124.675 100.771C123.367 99.4629 122.594 97.6794 122.594 95.7175C122.653 91.9126 125.804 88.7021 129.787 88.7021Z" fill="#FFBD00"/>
<path d="M159.93 101.782V89.9507H129.788C126.518 89.9507 123.902 92.626 123.902 95.8364C123.902 97.4416 124.497 98.9279 125.626 99.9981C126.756 101.128 128.242 101.722 129.788 101.722H159.93V101.782Z" fill="white"/>
<path opacity="0.3" d="M123.959 97.0253C123.899 96.6686 123.84 96.2525 123.84 95.8958C123.84 92.6259 126.515 90.01 129.726 90.01H159.927V92.2692H129.785C126.872 92.2097 124.494 94.2905 123.959 97.0253Z" fill="#004F3F"/>
<path d="M160.405 77.2279V88.7616H119.204C117.599 88.7616 116.172 88.1076 115.102 87.0969C114.032 86.0268 113.438 84.5999 113.438 82.9947C113.438 79.7843 115.994 77.2279 119.204 77.2279H160.405Z" fill="#009887"/>
<path d="M147.443 77.2279H170.569V78.4169H147.443C144.946 78.4169 142.924 80.4383 142.924 82.9353C142.924 84.1243 143.4 85.3134 144.232 86.1457C145.065 86.978 146.254 87.4536 147.443 87.4536H170.569V88.6427H147.443C145.837 88.6427 144.411 87.9887 143.34 86.978C142.27 85.9079 141.676 84.481 141.676 82.8758C141.676 79.7843 144.232 77.2279 147.443 77.2279Z" fill="#A5E0DA"/>
<path d="M169.322 87.513V78.4169H147.444C144.947 78.4169 142.926 80.4382 142.926 82.9352C142.926 84.1243 143.401 85.3133 144.234 86.1456C145.066 86.9779 146.255 87.4536 147.444 87.4536H169.322V87.513Z" fill="white"/>
<path opacity="0.3" d="M142.985 83.8271C142.926 83.5299 142.926 83.292 142.926 82.9948C142.926 80.4978 144.947 78.4764 147.444 78.4764H169.322V80.1411H147.444C145.244 80.0816 143.342 81.6868 142.985 83.8271Z" fill="#004F3F"/>
<path opacity="0.3" d="M151.484 113.077H166.466C167.061 113.077 167.536 112.602 167.536 112.007V109.391C167.536 108.797 167.061 108.321 166.466 108.321H151.544C150.949 108.321 150.474 108.797 150.474 109.391V112.007C150.414 112.602 150.89 113.077 151.484 113.077Z" fill="#009887"/>
<path opacity="0.3" d="M139.594 124.195H158.203C159.154 124.195 159.867 123.422 159.867 122.53C159.867 121.579 159.095 120.866 158.203 120.866H139.594C138.643 120.866 137.93 121.638 137.93 122.53C137.93 123.422 138.703 124.195 139.594 124.195Z" fill="#FFD600"/>
<path opacity="0.3" d="M108.144 134.777H132.282C133.471 134.777 134.422 133.826 134.422 132.637C134.422 131.448 133.471 130.497 132.282 130.497H108.144C106.955 130.497 106.004 131.448 106.004 132.637C106.004 133.826 106.955 134.777 108.144 134.777Z" fill="white"/>
<path opacity="0.3" d="M117.832 85.5512H135.846C136.44 85.5512 136.916 85.0756 136.916 84.4811V81.8652C136.916 81.2707 136.44 80.795 135.846 80.795H117.832C117.237 80.795 116.762 81.2707 116.762 81.8652V84.4216C116.762 85.0161 117.237 85.5512 117.832 85.5512Z" fill="white"/>
<path opacity="0.3" d="M98.7563 98.155H119.267C119.981 98.155 120.516 97.6199 120.516 96.9065V93.9339C120.516 93.2205 119.981 92.6854 119.267 92.6854H98.7563C98.0429 92.6854 97.5078 93.2205 97.5078 93.9339V96.9065C97.5078 97.5605 98.1023 98.155 98.7563 98.155Z" fill="white"/>
<path d="M158.265 69.5586H131.512V77.3468H158.265V69.5586Z" fill="#006B5C"/>
<path d="M158.27 69.5586H145.547V77.3468H158.27V69.5586Z" fill="#007C6B"/>
<path d="M125.746 68.8452L144.592 63.0189L166.352 68.8452L145.544 72.5907L125.746 68.8452Z" fill="#009887"/>
<path d="M166.356 83.7676H164.156L164.751 81.984H165.821L166.356 83.7676Z" fill="#007C6B"/>
<path d="M166.255 81.7424C166.344 81.1914 165.97 80.6723 165.419 80.5829C164.868 80.4934 164.349 80.8676 164.26 81.4186C164.17 81.9696 164.544 82.4887 165.095 82.5782C165.646 82.6676 166.165 82.2934 166.255 81.7424Z" fill="#007C6B"/>
<path d="M165.519 68.7856H165.043V81.0922H165.519V68.7856Z" fill="#007C6B"/>
<path d="M58.8569 107.192C58.6191 106.954 58.3813 106.776 58.0841 106.597C58.0841 106.597 56.5978 105.23 54.6953 105.705C53.2685 106.062 52.8523 107.608 52.7928 108.321C52.0794 108.678 50.2959 109.808 48.6907 112.483C48.6312 112.542 48.6312 112.602 48.5718 112.661C48.4529 112.721 48.3934 112.78 48.2745 112.84C48.2745 112.959 48.2745 113.077 48.2745 113.196C47.3827 114.921 46.6693 116.942 46.2531 119.201C46.2531 118.488 46.1937 117.715 46.1937 116.942C46.0748 110.462 46.5504 107.786 46.9071 106.716C47.0855 106.835 47.2638 106.894 47.4422 107.013C50.3553 108.321 50.712 109.213 50.712 109.213C50.712 109.213 52.1983 107.905 51.7227 104.576C51.1876 101.247 47.5611 102.257 47.026 103.387C44.4696 102.614 44.4696 105.17 46.6693 106.597C46.2531 107.727 45.7775 110.462 45.8964 116.942C45.8964 117.655 45.9559 118.369 45.9559 119.082C45.9559 119.082 45.8964 119.082 45.8964 119.023C45.7181 117.536 45.5397 116.347 45.3614 115.277C45.4803 114.623 45.3614 113.969 45.0046 113.494C44.9452 113.196 44.8857 112.959 44.8263 112.721C44.4101 110.997 44.0534 109.986 43.7562 109.451C43.8156 109.213 44.4696 105.408 40.4863 104.992C37.9299 104.695 36.1463 106.597 35.1356 108.024C34.0655 109.154 33.8871 110.343 33.8871 110.343C37.811 107.43 42.2104 108.856 43.4589 109.273C43.6967 109.748 44.1723 110.759 44.6479 112.84C44.6479 112.959 44.7074 113.018 44.7074 113.137C44.0534 112.602 43.1022 112.602 41.9131 113.672C41.7942 113.256 41.3186 112.245 40.2485 111.948C38.9405 111.591 36.5625 112.661 37.6921 117.239C37.0381 117.239 36.503 117.358 36.2652 117.417C36.0274 116.942 35.4329 115.931 33.8277 116.288C31.7469 116.704 31.1523 121.639 31.1523 121.639C32.7575 118.071 36.3841 117.655 36.3841 117.655V117.596C36.6219 117.536 37.157 117.417 37.811 117.417C37.811 117.477 37.8704 117.596 37.8704 117.655C38.5838 119.736 39.7729 120.985 39.7729 120.985C39.7729 120.985 40.3674 119.974 41.5564 118.844C42.2104 119.379 42.8644 120.152 43.5183 121.222C43.5183 121.639 43.5183 121.995 43.5778 122.411C43.3994 122.293 43.2211 122.233 42.9833 122.174C41.5564 121.757 40.189 122.53 39.654 122.887C39.5945 122.59 39.4162 122.174 38.5838 122.174C37.3948 122.174 36.1463 124.671 36.1463 127.465C36.1463 127.465 38.4055 126.216 40.3079 125.562C41.9726 124.968 41.3781 122.887 39.8918 122.947C40.4863 122.59 41.6753 121.995 42.9238 122.352C43.1616 122.411 43.34 122.53 43.5778 122.649C43.7562 123.898 44.1129 125.146 44.529 125.919C44.529 125.919 44.9452 125.562 45.5992 125.087C45.6586 125.265 45.7775 125.384 45.837 125.562C45.837 127.227 45.9559 129.011 46.1937 130.913H43.9345C43.9345 136.858 45.183 137.572 45.7775 137.572C46.372 137.572 46.9666 137.572 46.9666 137.572C46.9666 137.572 47.5611 137.572 48.1556 137.572C48.7501 137.572 49.9986 136.858 49.9986 130.913H47.3233C47.4422 126.989 48.5123 124.314 50.4742 122.768C51.5444 123.779 53.4468 124.373 53.4468 124.373C53.4468 124.373 54.1602 122.768 54.0413 121.52C54.8737 121.46 55.5871 121.579 56.0032 121.639C56.0032 121.757 56.0627 121.876 56.1816 121.936C56.9545 122.411 58.2624 123.66 58.6191 126.038C58.6191 126.038 59.4515 119.201 56.1816 121.282C56.1222 121.341 56.0627 121.401 56.0032 121.46C55.5276 121.401 54.8142 121.282 53.9819 121.341C53.9224 120.866 53.7441 120.509 53.3279 120.271C52.1983 119.677 51.5444 120.45 51.3065 120.866C50.712 120.45 50.177 120.45 49.8797 120.985C49.5824 121.579 49.8202 122.174 50.2959 122.649C48.2745 124.195 47.2044 126.93 47.0855 130.913H46.9071H46.8477C46.7882 129.843 46.7287 128.892 46.7287 127.94C46.9071 126.335 47.026 124.908 47.2044 123.6C47.68 123.125 48.0961 122.649 48.4529 122.174C49.523 120.806 48.8096 119.855 47.7394 119.617C48.2745 116.526 48.7501 115.099 48.9879 114.564C49.4041 114.921 50.0581 115.396 50.9498 116.11C53.0901 117.953 57.2517 119.379 57.2517 119.379C57.2517 119.379 55.9438 108.856 48.9879 112.483C50.4148 110.164 52.02 109.035 52.7928 108.619C52.7928 108.678 52.7928 108.678 52.7928 108.678C52.7928 108.678 58.3813 106.954 60.9378 113.375C60.8783 113.434 61.1756 109.629 58.8569 107.192ZM46.5504 130.973H46.4315C46.4315 130.735 46.4909 130.497 46.4909 130.319C46.4909 130.556 46.4909 130.794 46.5504 130.973ZM46.0153 124.73C46.0748 124.671 46.1342 124.611 46.1937 124.611C46.1937 125.206 46.2531 125.8 46.2531 126.395C46.1937 126.157 46.0748 125.979 46.0153 125.8C46.0153 125.444 46.0153 125.087 46.0153 124.73ZM45.7181 119.023C45.5397 118.963 45.3614 118.963 45.183 118.963C44.8263 118.012 44.4696 117.358 44.2318 116.942C44.7074 116.645 45.0641 116.228 45.2424 115.812C45.3614 116.764 45.5397 117.834 45.7181 119.023ZM41.6159 118.844C42.2699 118.25 43.0427 117.655 43.994 117.12C44.2318 117.536 44.529 118.131 44.8857 119.023C44.7074 119.023 44.5885 119.082 44.4101 119.142C43.8156 119.379 43.5183 120.093 43.4589 121.044C42.9238 120.093 42.2699 119.379 41.6159 118.844ZM45.7775 124.968C45.7775 125.027 45.7775 125.146 45.7775 125.206C45.7775 125.146 45.7181 125.087 45.7181 125.027L45.7775 124.968ZM46.3126 126.989C46.372 127.762 46.372 128.476 46.4315 129.13C46.372 129.546 46.372 129.902 46.3126 130.319C46.1342 128.892 46.0748 127.524 46.0153 126.276C46.1342 126.514 46.1937 126.751 46.3126 126.989ZM46.4315 124.373C46.6098 124.195 46.7882 124.076 46.9071 123.898C46.7882 124.79 46.6693 125.8 46.5504 126.87C46.5504 125.979 46.4909 125.146 46.4315 124.373ZM47.5611 119.677C47.2638 119.617 46.9666 119.677 46.6693 119.736C46.6098 119.677 46.5504 119.617 46.4315 119.498C46.8477 117.061 47.5611 115.158 48.2745 113.731C48.3339 114.029 48.5123 114.267 48.8096 114.564C48.6312 115.039 48.0961 116.466 47.5611 119.677Z" fill="#009887"/>
<path d="M188.762 107.37C188.762 107.37 194.231 107.132 197.561 111.294C197.561 111.294 197.263 108.024 195.004 106.062C192.745 104.1 189.118 105.884 188.762 107.37Z" fill="#009887"/>
<path d="M185.61 115.575C185.61 115.575 176.217 115.575 172.828 119.201C172.828 119.201 173.363 114.683 177.644 113.494C181.924 112.305 185.61 115.575 185.61 115.575Z" fill="#009887"/>
<path d="M189.299 102.257C189.299 102.257 192.271 100.414 195.422 101.663C195.422 101.663 193.401 99.4038 191.023 99.8794C188.704 100.355 189.299 102.257 189.299 102.257Z" fill="#009887"/>
<path d="M182.279 98.6308C182.279 98.6308 176.809 97.5607 174.609 99.1659C174.609 99.1659 176.512 95.9555 180.079 96.2527C183.587 96.4311 182.279 98.6308 182.279 98.6308Z" fill="#009887"/>
<path d="M188.82 98.0363C188.82 98.0363 192.744 96.2528 195.241 96.015C195.241 96.015 191.615 94.9448 190.544 95.7772C189.474 96.4906 188.82 98.0363 188.82 98.0363Z" fill="#009887"/>
<path d="M184.954 95.9555C184.954 95.9555 182.159 94.4098 180.316 94.0531C180.316 94.0531 183.111 93.518 183.824 94.172C184.538 94.7665 184.954 95.9555 184.954 95.9555Z" fill="#009887"/>
<path d="M189.355 113.078C189.355 113.078 192.566 111.532 195.598 112.483C195.598 112.483 194.052 110.045 192.09 110.462C190.128 110.878 189.474 111.948 189.355 113.078Z" fill="#009887"/>
<path d="M184.838 103.446C184.838 103.446 180.677 103.09 177.645 105.408C177.645 105.408 178.299 102.079 180.677 101.722C183.114 101.306 184.244 102.257 184.838 103.446Z" fill="#009887"/>
<path d="M184.715 120.45C184.715 120.45 185.726 121.401 185.429 122.947C185.131 124.492 181.386 125.681 179.543 125.503C179.602 125.503 179.781 117.655 184.715 120.45Z" fill="#009887"/>
<path d="M190.482 118.25C190.482 118.25 191.492 119.082 192.8 118.607C194.108 118.131 194.822 116.229 194.822 116.229C194.822 116.229 187.45 114.564 190.482 118.25Z" fill="#009887"/>
<path d="M189.293 121.817C189.293 121.817 188.64 122.59 189.234 123.482C189.769 124.433 192.98 125.325 192.98 125.325C192.98 125.325 193.336 122.828 192.682 122.233C192.028 121.579 189.769 120.985 189.293 121.817Z" fill="#009887"/>
<path d="M184.658 107.786C186.144 107.667 188.463 107.311 188.165 108.559C187.809 109.748 183.528 111.591 183.528 111.591C183.528 111.591 178.831 108.856 180.199 107.786C181.566 106.776 184.658 107.786 184.658 107.786Z" fill="#009887"/>
<path d="M185.908 94.8853C184.601 94.2313 184.125 91.1398 186.384 89.8913C188.643 88.6428 191.081 88.9996 191.081 88.9996C191.081 88.9996 190.011 92.0316 189.832 93.1017C189.594 94.1124 188.405 96.1338 185.908 94.8853Z" fill="#009887"/>
<path d="M186.621 94.6475H186.324V128.654H186.621V94.6475Z" fill="#009887"/>
<path d="M186.384 102.02C184.719 99.8794 181.984 98.4525 181.984 98.4525L182.103 98.2742C182.103 98.2742 184.898 99.701 186.562 101.901L186.384 102.02Z" fill="#009887"/>
<path d="M186.565 123.601L186.387 123.482C187.1 122.114 189.419 122.055 189.538 122.055V122.233C189.538 122.293 187.219 122.352 186.565 123.601Z" fill="#009887"/>
<path d="M184.307 120.925L184.129 120.806C184.129 120.747 184.664 119.915 185.437 119.796C185.794 119.736 186.21 119.855 186.566 120.152L186.448 120.331C186.15 120.093 185.794 119.974 185.496 120.033C184.783 120.093 184.307 120.866 184.307 120.925Z" fill="#009887"/>
<path d="M186.38 116.764C185.607 115.575 185.25 115.515 185.25 115.515V115.337C185.309 115.337 185.726 115.396 186.558 116.645L186.38 116.764Z" fill="#009887"/>
<path d="M186.565 119.379L186.387 119.261C187.873 117.477 189.894 116.645 189.894 116.645L189.954 116.823C189.954 116.823 187.992 117.655 186.565 119.379Z" fill="#009887"/>
<path d="M186.565 100.652L186.387 100.533C187.278 98.8092 189.24 97.5607 189.3 97.5012L189.419 97.6796C189.419 97.739 187.397 99.047 186.565 100.652Z" fill="#009887"/>
<path d="M186.565 105.17L186.387 105.052C187.516 103.03 189.419 101.96 189.419 101.96L189.538 102.138C189.478 102.138 187.695 103.209 186.565 105.17Z" fill="#009887"/>
<path d="M186.382 104.635C185.491 103.803 184.242 103.268 184.242 103.268L184.302 103.09C184.361 103.09 185.61 103.625 186.501 104.457L186.382 104.635Z" fill="#009887"/>
<path d="M186.565 109.629L186.387 109.51C187.219 107.965 189.3 106.835 189.419 106.776L189.538 106.954C189.478 107.013 187.397 108.143 186.565 109.629Z" fill="#009887"/>
<path d="M186.56 115.039L186.441 114.921C187.69 113.672 189.592 112.78 189.592 112.78L189.652 112.959C189.652 112.959 187.749 113.791 186.56 115.039Z" fill="#009887"/>
<path d="M191.435 126.989H186.501H181.566C181.566 126.989 182.101 137.631 184.48 137.631H186.501H188.522C190.9 137.631 191.435 126.989 191.435 126.989Z" fill="#009887"/>
<path d="M186.382 98.3335C185.906 96.9662 184.599 95.6582 184.539 95.6582L184.658 95.5393C184.717 95.5988 186.025 96.8473 186.56 98.3335H186.382Z" fill="#009887"/>
<path d="M65.6925 93.2206C79.4829 93.2206 90.6623 82.0413 90.6623 68.2508C90.6623 54.4604 79.4829 43.281 65.6925 43.281C51.902 43.281 40.7227 54.4604 40.7227 68.2508C40.7227 82.0413 51.902 93.2206 65.6925 93.2206Z" fill="#009887"/>
<path d="M65.6909 89.5942C77.4784 89.5942 87.0341 80.0385 87.0341 68.251C87.0341 56.4634 77.4784 46.9077 65.6909 46.9077C53.9034 46.9077 44.3477 56.4634 44.3477 68.251C44.3477 80.0385 53.9034 89.5942 65.6909 89.5942Z" fill="#A5E0DA"/>
<path d="M85.8483 68.2509C85.8483 79.3684 76.8116 88.4051 65.6941 88.4051C64.4456 88.4051 63.1971 88.2862 62.0081 88.0484C61.5325 87.9889 61.0569 87.87 60.5813 87.7511C59.5706 87.4538 58.5599 87.1566 57.6087 86.7404C56.1818 86.0865 54.8144 85.3136 53.5659 84.4218C50.8906 82.4004 48.6909 79.7251 47.3235 76.6336C46.7884 75.4446 46.3128 74.1366 46.0155 72.8287C45.6588 71.4018 45.4805 69.8561 45.4805 68.3103C45.4805 67.7753 45.4805 67.2402 45.5399 66.7646C45.5994 66.1106 45.6588 65.4566 45.7777 64.8027C47.264 56.4794 53.8037 49.9397 62.0676 48.5128C62.7215 48.3939 63.3755 48.3345 64.0295 48.275C64.5645 48.2156 65.0402 48.2156 65.5752 48.2156C67.121 48.2156 68.6667 48.3939 70.0936 48.7506C71.4015 49.0479 72.7095 49.4641 73.8985 50.0586C76.99 51.4854 79.6653 53.6257 81.6867 56.301C82.6379 57.5495 83.4108 58.8575 84.0053 60.3438C84.4215 61.295 84.7782 62.3057 85.016 63.3164C85.1349 63.792 85.2538 64.2676 85.3133 64.7432C85.7294 65.7539 85.8483 67.0024 85.8483 68.2509Z" fill="white"/>
<path d="M67.7586 68.252C67.7625 67.1028 66.8341 66.168 65.6849 66.1641C64.5357 66.1602 63.6009 67.0886 63.597 68.2378C63.593 69.387 64.5215 70.3218 65.6707 70.3257C66.8199 70.3296 67.7547 69.4012 67.7586 68.252Z" fill="#006B5C"/>
<path d="M65.9886 52.0799H65.3941C65.2752 52.0799 65.1562 51.961 65.1562 51.8421V49.7018C65.1562 49.5829 65.2752 49.464 65.3941 49.464H65.9291C66.048 49.464 66.1669 49.5829 66.1669 49.7018V51.8421C66.2264 51.961 66.1075 52.0799 65.9886 52.0799Z" fill="#FBE600"/>
<path d="M57.6122 54.2797C57.3743 54.3986 57.0771 54.3391 56.8987 54.1013L56.1259 52.7339C56.007 52.4961 56.0664 52.1989 56.3042 52.0205C56.542 51.9016 56.8393 51.9611 57.0176 52.1989L57.7905 53.5663C57.9094 53.8041 57.85 54.1013 57.6122 54.2797Z" fill="#FBE600"/>
<path d="M51.6654 60.1654C51.5465 60.4032 51.1897 60.5221 50.9519 60.3438L49.5845 59.5709C49.3467 59.452 49.2278 59.0953 49.4062 58.8575C49.5251 58.6197 49.8818 58.5008 50.1196 58.6791L51.487 59.452C51.7248 59.6304 51.8437 59.9276 51.6654 60.1654Z" fill="#FBE600"/>
<path d="M49.5221 67.9536V68.4887C49.5221 68.6076 49.4032 68.7265 49.2843 68.7265H47.1441C47.0252 68.7265 46.9062 68.6076 46.9062 68.4887V67.9536C46.9062 67.8347 47.0252 67.7158 47.1441 67.7158H49.2843C49.4032 67.7158 49.5221 67.8347 49.5221 67.9536Z" fill="#FBE600"/>
<path d="M51.6624 76.3363C51.7813 76.5741 51.7218 76.8713 51.484 77.0497L50.1166 77.8226C49.8788 77.9415 49.5816 77.882 49.4032 77.6442C49.2843 77.4064 49.3438 77.1091 49.5816 76.9308L50.949 76.1579C51.2462 75.9795 51.5435 76.0984 51.6624 76.3363Z" fill="#FBE600"/>
<path d="M57.6073 82.2816C57.8451 82.4005 57.964 82.7572 57.7857 82.995L57.0128 84.3624C56.8939 84.6002 56.5372 84.7191 56.2994 84.5407C56.0616 84.4218 55.9427 84.0651 56.121 83.8273L56.8939 82.4599C57.0128 82.2221 57.3695 82.1032 57.6073 82.2816Z" fill="#FBE600"/>
<path d="M65.3941 84.4218H65.9291C66.048 84.4218 66.1669 84.5407 66.1669 84.6596V86.7998C66.1669 86.9187 66.048 87.0376 65.9291 87.0376H65.3941C65.2752 87.0376 65.1562 86.9187 65.1562 86.7998V84.6596C65.1562 84.5407 65.2752 84.4218 65.3941 84.4218Z" fill="#FBE600"/>
<path d="M73.7799 82.2815C74.0177 82.1626 74.3149 82.222 74.4933 82.4599L75.2662 83.8272C75.3851 84.0651 75.3256 84.3623 75.0878 84.5407C74.85 84.6596 74.5527 84.6001 74.3744 84.3623L73.6015 82.9949C73.4231 82.6977 73.542 82.4004 73.7799 82.2815Z" fill="#FBE600"/>
<path d="M79.6649 76.3363C79.7838 76.0984 80.1405 75.9795 80.3783 76.1579L81.7457 76.9308C81.9835 77.0497 82.1025 77.4064 81.9241 77.6442C81.8052 77.882 81.4485 78.0009 81.2107 77.8226L79.8433 77.0497C79.6055 76.8713 79.546 76.5741 79.6649 76.3363Z" fill="#FBE600"/>
<path d="M81.8672 68.5481V68.0131C81.8672 67.8942 81.9861 67.7753 82.105 67.7753H84.2453C84.3642 67.7753 84.4831 67.8942 84.4831 68.0131V68.5481C84.4831 68.667 84.3642 68.7859 84.2453 68.7859H82.105C81.9266 68.7859 81.8672 68.667 81.8672 68.5481Z" fill="#FBE600"/>
<path d="M79.6649 60.1654C79.546 59.9276 79.6055 59.6303 79.8433 59.452L81.2107 58.6791C81.4485 58.5602 81.7457 58.6196 81.9241 58.8574C82.043 59.0952 81.9835 59.3925 81.7457 59.5709L80.3783 60.3437C80.1405 60.5221 79.8433 60.4032 79.6649 60.1654Z" fill="#FBE600"/>
<path d="M73.7799 54.2797C73.542 54.1608 73.4231 53.8041 73.6015 53.5663L74.3744 52.1989C74.4933 51.9611 74.85 51.8422 75.0878 52.0206C75.3256 52.1395 75.4445 52.4962 75.2662 52.734L74.4933 54.1014C74.3149 54.3392 74.0177 54.3986 73.7799 54.2797Z" fill="#FBE600"/>
<path d="M64.2071 68.4886L64.7421 69.3804L54.6947 75.2067C54.4569 75.3256 54.1597 75.2662 53.9813 75.0284C53.8624 74.7906 53.9219 74.4933 54.1597 74.3149L64.2071 68.4886Z" fill="#006B5C"/>
<path d="M66.2294 66.824H65.2188V52.8528C65.2188 52.7339 65.3377 52.615 65.4566 52.615H65.9916C66.1105 52.615 66.2294 52.7339 66.2294 52.8528V66.824Z" fill="#006B5C"/>
<path d="M77.6445 79.844L66.7054 68.9048C66.8243 68.7265 66.8837 68.4886 66.8837 68.3103C66.8837 67.6563 66.3487 67.1213 65.6947 67.1213C65.6352 67.1213 65.5758 67.1213 65.4569 67.1213C65.338 67.1213 65.1596 67.1807 65.0407 67.2996L62.3059 64.5648L61.9492 64.9215L64.684 67.6563C64.6246 67.7752 64.5651 67.8941 64.5057 68.0725C64.5057 68.1319 64.5057 68.1914 64.5057 68.3103C64.5057 68.9643 65.0407 69.4993 65.6947 69.4993C65.9325 69.4993 66.1109 69.4399 66.2892 69.321L77.2878 80.2007L77.6445 79.844Z" fill="#009887"/>
<path d="M206.714 139.058C206.714 139.415 206.595 139.771 206.358 140.069C206.12 140.307 205.763 140.485 205.406 140.485H1.30794C0.594519 140.485 0 139.89 0 139.117C0 138.761 0.118904 138.404 0.356712 138.107C0.594519 137.869 0.951231 137.691 1.30794 137.691H205.406C206.12 137.631 206.714 138.285 206.714 139.058Z" fill="#FFBD00"/>
<path d="M114.879 45.0396C114.879 45.0396 110.788 49.3913 108.159 52.0023C105.237 47.8682 103.264 45.6198 100.416 42.0659C102.826 43.7341 108.67 48.8836 108.67 48.8836L114.879 45.0396Z" fill="#009887"/>
<path d="M137.23 33.8707C133.797 35.1762 125.032 40.3982 125.032 40.3982C125.032 40.3982 113.198 31.5498 110.422 29.8091C116.485 31.7673 125.616 36.8443 125.616 36.8443C125.616 36.8443 134.382 34.3784 137.23 33.8707Z" fill="#009887"/>
<path d="M99.4688 1.37803C97.2773 2.90112 90.63 8.84842 90.63 8.84842C90.63 8.84842 82.3026 1.52309 80.2573 0C84.6402 1.66814 91.2144 6.01982 91.2144 6.01982C91.2144 6.01982 97.4234 1.88573 99.4688 1.37803Z" fill="#009887"/>
</svg>
