<svg width="18" height="18" viewBox="0 0 18 18" fill="none" xmlns="http://www.w3.org/2000/svg">
<path fill-rule="evenodd" clip-rule="evenodd" d="M9.89347 12.1695V7.58521H7.72186C7.62468 7.58521 7.54591 7.63668 7.54591 7.70018V8.52499C7.54591 8.5885 7.62468 8.64 7.72186 8.64H8.09339V12.1695H7.6486C7.55142 12.1695 7.47266 12.221 7.47266 12.2845V13.0282C7.47266 13.0917 7.55142 13.1432 7.6486 13.1432H10.3383C10.4354 13.1432 10.5142 13.0917 10.5142 13.0282V12.2845C10.5142 12.221 10.4354 12.1695 10.3383 12.1695H9.89347Z" fill="#FF7700"/>
<path fill-rule="evenodd" clip-rule="evenodd" d="M9.92439 5.95022C9.92439 6.54483 9.45426 7.02688 8.8743 7.02688C8.29435 7.02688 7.82422 6.54483 7.82422 5.95022C7.82422 5.35559 8.29435 4.87354 8.8743 4.87354C9.45426 4.87354 9.92439 5.35559 9.92439 5.95022Z" fill="#FF7700"/>
<path fill-rule="evenodd" clip-rule="evenodd" d="M8.9884 15.1984C5.57524 15.1984 2.79844 12.4215 2.79844 9.00839C2.79844 5.59522 5.57524 2.81842 8.9884 2.81842C12.4015 2.81842 15.1784 5.59522 15.1784 9.00839C15.1784 12.4215 12.4015 15.1984 8.9884 15.1984ZM8.98945 1.82361C5.0214 1.82361 1.80469 5.04032 1.80469 9.00837C1.80469 12.9764 5.0214 16.1931 8.98945 16.1931C12.9575 16.1931 16.1742 12.9764 16.1742 9.00837C16.1742 5.04032 12.9575 1.82361 8.98945 1.82361Z" fill="#FF7700"/>
</svg>
