<svg width="41" height="48" viewBox="0 0 41 48" fill="none" xmlns="http://www.w3.org/2000/svg">
<path d="M4.8984 47.5105C2.44942 47.5105 0.490234 45.5514 0.490234 43.1024V5.87789C0.490234 3.42891 2.44942 1.46973 4.8984 1.46973H28.2127L38.6943 11.9514V43.1024C38.6943 45.5514 36.7351 47.5105 34.2862 47.5105H4.8984Z" fill="#F6F6F6"/>
<path d="M28.0163 1.95908L38.2041 12.1468V43.1019C38.2041 45.257 36.4408 47.0203 34.2857 47.0203H4.89796C2.74286 47.0203 0.979592 45.257 0.979592 43.1019V5.87745C0.979592 3.72235 2.74286 1.95908 4.89796 1.95908H28.0163ZM28.4082 0.979492H4.89796C2.1551 0.979492 0 3.13459 0 5.87745V43.1019C0 45.8448 2.1551 47.9999 4.89796 47.9999H34.2857C37.0286 47.9999 39.1837 45.8448 39.1837 43.1019V11.755L28.4082 0.979492Z" fill="#E0E0E0"/>
<path d="M4.8984 47.5105C2.44942 47.5105 0.490234 45.5514 0.490234 43.1024V5.87789C0.490234 3.42891 2.44942 1.46973 4.8984 1.46973H28.2127L38.6943 11.9514V43.1024C38.6943 45.5514 36.7351 47.5105 34.2862 47.5105H4.8984Z" fill="#74BD71"/>
<path d="M28.0163 1.95908L38.2041 12.1468V43.1019C38.2041 45.257 36.4408 47.0203 34.2857 47.0203H4.89796C2.74286 47.0203 0.979592 45.257 0.979592 43.1019V5.87745C0.979592 3.72235 2.74286 1.95908 4.89796 1.95908H28.0163ZM28.4082 0.979492H4.89796C2.1551 0.979492 0 3.13459 0 5.87745V43.1019C0 45.8448 2.1551 47.9999 4.89796 47.9999H34.2857C37.0286 47.9999 39.1837 45.8448 39.1837 43.1019V11.755L28.4082 0.979492Z" fill="#6AAD68"/>
<path d="M29.7793 10.2861L39.2813 19.7882V10.2861H29.7793Z" fill="#6AAD68"/>
<path d="M40.1633 11.7551H33.3062C30.5633 11.7551 28.4082 9.6 28.4082 6.85714V0H40.1633V11.7551Z" fill="#B9DEB8"/>
<path d="M6.85731 7.05273H8.03283V11.0691C8.03283 11.5589 7.93485 12.0487 7.64097 12.3425C7.3471 12.6364 6.95528 12.8323 6.46548 12.8323C6.1716 12.8323 5.77977 12.7344 5.58385 12.5384C5.28998 12.3425 5.09405 12.0487 4.99609 11.6568L5.87772 10.9711C5.87772 10.9711 5.87773 11.0691 5.97569 11.167C6.07364 11.265 6.07363 11.3629 6.17159 11.4609C6.26955 11.5589 6.36752 11.6568 6.46548 11.6568C6.56344 11.6568 6.66139 11.5589 6.75935 11.4609C6.85731 11.3629 6.85731 11.167 6.85731 10.9711V7.05273Z" fill="white"/>
<path d="M9.30664 7.05273H11.2658C11.7556 7.05273 12.2454 7.24865 12.5393 7.54253C12.8332 7.83641 13.0291 8.22824 13.0291 8.71804C13.0291 9.01192 12.9311 9.3058 12.8332 9.59967C12.6373 9.89355 12.4413 10.0895 12.1475 10.2854C11.8536 10.3833 11.5597 10.4813 11.3638 10.4813H10.6781V12.7344H9.50257V7.05273H9.30664ZM10.4822 8.13029V9.59967H10.972C11.1679 9.59967 11.3638 9.50171 11.4618 9.40376C11.5597 9.3058 11.6577 9.10988 11.6577 8.91396C11.6577 8.71804 11.5597 8.52212 11.4618 8.42416C11.2658 8.3262 11.0699 8.22824 10.776 8.22824L10.4822 8.13029Z" fill="white"/>
<path d="M16.4577 7.05273C17.4373 7.05273 18.221 7.44457 18.7108 8.3262L17.9271 9.10988C17.7312 8.816 17.5353 8.62008 17.3393 8.42416C17.0455 8.3262 16.8495 8.22824 16.5557 8.22824C16.0659 8.22824 15.772 8.42416 15.3802 8.71804C15.0863 9.01192 14.8904 9.40376 14.8904 9.89355C14.8904 10.3833 15.0863 10.7752 15.3802 11.167C15.674 11.4609 16.0659 11.6568 16.5557 11.6568C16.8495 11.6568 17.0455 11.5589 17.2414 11.4609C17.4373 11.3629 17.6332 11.0691 17.8291 10.7752H16.4577V9.59967H19.1026V10.2854C19.1026 10.6772 19.0046 11.0691 18.7108 11.4609C18.4169 11.8527 18.123 12.2446 17.7312 12.4405C17.3393 12.6364 16.8495 12.7344 16.4577 12.7344C15.674 12.7344 14.9883 12.4405 14.4985 11.8527C14.0087 11.265 13.7148 10.5793 13.7148 9.79559C13.7148 9.01192 14.0087 8.3262 14.4985 7.73845C14.9883 7.24865 15.674 7.05273 16.4577 7.05273Z" fill="white"/>
<path d="M28.4074 27.429V37.2249H10.7747V27.429H28.4074ZM31.3461 24.4902H7.83594V40.1637H31.3461V24.4902Z" fill="#E0E0E0"/>
<path d="M33.3055 41.8288H5.87695V38.89H8.81573L12.7341 34.188C13.028 33.8941 13.3219 33.6982 13.7137 33.6982C14.1055 33.6982 14.4974 33.7961 14.7912 34.09L17.73 36.6369C17.9259 36.8329 18.2198 36.9308 18.5137 36.8329C18.8076 36.8329 19.0035 36.6369 19.1994 36.441L23.1178 31.1512C23.4117 30.7594 23.9014 30.5635 24.3912 30.5635C24.881 30.5635 25.2729 30.8574 25.5668 31.2492L30.2688 38.89H33.2076V41.8288H33.3055Z" fill="#E0E0E0"/>
<path d="M16.6525 32.3266C17.7346 32.3266 18.6117 31.4494 18.6117 30.3674C18.6117 29.2854 17.7346 28.4082 16.6525 28.4082C15.5705 28.4082 14.6934 29.2854 14.6934 30.3674C14.6934 31.4494 15.5705 32.3266 16.6525 32.3266Z" fill="#E0E0E0"/>
</svg>
