<svg width="30" height="30" viewBox="0 0 30 30" fill="none" xmlns="http://www.w3.org/2000/svg">
<path d="M9.85392 15.4276H3.99829L4.27277 25.309H25.7739V15.4276H19.9183V13.5978L14.9776 9.57202L10.0369 13.5978L9.85392 15.4276Z" fill="#FCD734"/>
<path d="M13.3874 24.927H16.5367V21.3604C16.5367 20.943 16.3849 20.5257 16.0814 20.2601C15.8158 19.9945 15.3984 19.8047 14.981 19.8047C14.5637 19.8047 14.1463 19.9945 13.8807 20.2601C13.6151 20.5257 13.4254 20.943 13.4254 21.3604V24.927H13.3874ZM18.5097 7.20778V5.083C18.0923 5.04505 17.7129 5.15888 17.2955 5.27271C16.6884 5.46242 16.0434 5.61419 15.3605 5.38654V5.61419V7.43544C15.9675 7.70104 16.5367 7.58721 17.0679 7.3975C17.5611 7.28367 18.0164 7.16984 18.5097 7.20778ZM19.3065 4.74151V7.6631C19.3065 7.85281 19.1547 8.04252 18.965 8.04252C18.8891 8.04252 18.8512 8.04252 18.8132 8.04252C18.32 7.89075 17.8267 8.04252 17.3335 8.15635C16.7264 8.34607 16.0814 8.49784 15.3984 8.27018V9.33257L20.1412 13.1268C20.2551 13.2027 20.3309 13.3166 20.3309 13.4683V15.0619H25.8326C26.0603 15.0619 26.25 15.2516 26.25 15.4793V25.3064C26.25 25.5341 26.0603 25.7238 25.8326 25.7238H19.8756H16.9161H13.008H10.0485H4.12943C3.90177 25.7238 3.75 25.5341 3.75 25.3064V15.4793C3.75 15.2516 3.90177 15.0619 4.12943 15.0619H9.63111V13.4683C9.63111 13.3545 9.66906 13.2407 9.78288 13.1648L14.5637 9.33257V7.70104V5.61419V4.74151C14.5637 4.66563 14.6016 4.58974 14.6395 4.5518C14.7534 4.36209 15.019 4.32414 15.2087 4.43797C15.8537 4.85534 16.4987 4.70357 17.1438 4.51386C17.7508 4.32414 18.32 4.17237 19.0409 4.36209C19.1547 4.40003 19.3065 4.58974 19.3065 4.74151ZM14.981 13.2027C15.4743 13.2027 15.9675 13.4304 16.309 13.7719C16.6505 14.1133 16.8782 14.5687 16.8782 15.0999C16.8782 15.6311 16.6884 16.0864 16.309 16.4279C15.9675 16.7693 15.5122 16.997 14.981 16.997C14.4498 16.997 13.9945 16.8073 13.653 16.4279C13.3116 16.0864 13.0839 15.6311 13.0839 15.0999C13.0839 14.6066 13.2736 14.1133 13.653 13.7719C13.9945 13.4304 14.4498 13.2027 14.981 13.2027ZM15.7399 14.341C15.5502 14.1513 15.2846 13.9995 14.981 13.9995C14.6775 13.9995 14.4119 14.1513 14.2222 14.341C14.0325 14.5307 13.9186 14.7963 13.9186 15.0999C13.9186 15.4034 14.0325 15.669 14.2222 15.8587C14.4119 16.0484 14.7154 16.1623 14.981 16.1623C15.2466 16.1623 15.5502 16.0484 15.7399 15.8587C15.9296 15.669 16.0434 15.3655 16.0434 15.0999C16.0434 14.7963 15.9296 14.5307 15.7399 14.341ZM22.2281 21.9675H23.4043V18.8182H22.2281V21.9675ZM23.8217 22.7263H21.8487C21.621 22.7263 21.4313 22.5366 21.4313 22.3469V18.4009C21.4313 18.2112 21.621 18.0214 21.8487 18.0214H23.8217C24.0493 18.0214 24.2011 18.2112 24.2011 18.4009V22.3469C24.2011 22.5746 24.0493 22.7263 23.8217 22.7263ZM20.293 24.927H25.4153V15.8587H20.293V24.927ZM6.51981 21.9675H7.69604V18.8182H6.51981V21.9675ZM8.07546 22.7263H6.10245C5.91273 22.7263 5.72302 22.5366 5.72302 22.3469V18.4009C5.72302 18.2112 5.91273 18.0214 6.10245 18.0214H8.07546C8.26518 18.0214 8.45489 18.2112 8.45489 18.4009V22.3469C8.45489 22.5746 8.30312 22.7263 8.07546 22.7263ZM4.50885 24.927H9.63111V15.8587H4.50885V24.927ZM10.4279 24.927H12.5906V21.3604C12.5906 20.7154 12.8562 20.1462 13.2736 19.6909V19.653C13.691 19.2356 14.2981 18.97 14.9431 18.97C15.5881 18.97 16.1952 19.2356 16.6126 19.653C17.0299 20.0703 17.2955 20.6774 17.2955 21.3225V24.8511H19.4583V15.4793V13.696L14.9431 10.0914L10.39 13.696V15.4793V24.927H10.4279Z" fill="#26A69A"/>
</svg>
