<svg width="24" height="24" viewBox="0 0 24 24" fill="none" xmlns="http://www.w3.org/2000/svg">
<circle cx="12" cy="12" r="10.75" fill="#FCD734" stroke="#26A69A"/>
<path d="M16.375 7.08182H13.0032C13.3933 7.29074 13.6936 7.54318 13.9042 7.83914C14.1147 8.12929 14.2541 8.45717 14.3222 8.82277H16.375V10.1546H14.3036C14.1736 10.7581 13.867 11.2862 13.384 11.7389C12.9072 12.1915 12.2756 12.5252 11.4891 12.7399C11.7864 12.885 12.0372 13.0997 12.2415 13.3841L15.9942 18.25H14.2293C13.8825 18.25 13.6224 18.1194 13.449 17.8583L10.1608 13.5233C10.0556 13.3782 9.94099 13.2767 9.81714 13.2187C9.69329 13.1548 9.50442 13.1229 9.25053 13.1229H7.64358V11.8433H9.41773C10.2475 11.8433 10.9101 11.6895 11.4055 11.382C11.9071 11.0686 12.2384 10.6595 12.3994 10.1546H7.625V8.82277H12.4459C12.3158 8.28308 12.0031 7.86815 11.5077 7.57799C11.0185 7.28203 10.3435 7.13405 9.48275 7.13405H7.64358V5.75H16.375V7.08182Z" fill="#26A69A"/>
</svg>
