<svg width="24" height="24" viewBox="0 0 24 24" fill="none" xmlns="http://www.w3.org/2000/svg">
<mask id="path-1-inside-1" fill="white">
<path d="M23.25 12C23.25 9.52349 22.4328 7.11618 20.9252 5.15143C19.4176 3.18669 17.3038 1.7743 14.9117 1.13333L12 12H23.25Z"/>
</mask>
<path d="M23.25 12C23.25 9.52349 22.4328 7.11618 20.9252 5.15143C19.4176 3.18669 17.3038 1.7743 14.9117 1.13333L12 12H23.25Z" fill="white" stroke="#26A69A" stroke-width="2" mask="url(#path-1-inside-1)"/>
<mask id="path-2-inside-2" fill="white">
<path d="M12 0.75C9.90023 0.75 7.84237 1.33765 6.05924 2.44648C4.27611 3.5553 2.83889 5.14103 1.91018 7.02425C0.981477 8.90748 0.598358 11.013 0.804172 13.1027C1.00999 15.1924 1.79652 17.1827 3.07477 18.8486C4.35303 20.5144 6.072 21.7893 8.03719 22.5289C10.0024 23.2686 12.1353 23.4435 14.1948 23.0338C16.2542 22.6242 18.1579 21.6464 19.6904 20.211C21.223 18.7756 22.3232 16.9399 22.8667 14.9117L12 12V0.75Z"/>
</mask>
<path d="M12 0.75C9.90023 0.75 7.84237 1.33765 6.05924 2.44648C4.27611 3.5553 2.83889 5.14103 1.91018 7.02425C0.981477 8.90748 0.598358 11.013 0.804172 13.1027C1.00999 15.1924 1.79652 17.1827 3.07477 18.8486C4.35303 20.5144 6.072 21.7893 8.03719 22.5289C10.0024 23.2686 12.1353 23.4435 14.1948 23.0338C16.2542 22.6242 18.1579 21.6464 19.6904 20.211C21.223 18.7756 22.3232 16.9399 22.8667 14.9117L12 12V0.75Z" fill="#FCD734" stroke="#26A69A" stroke-width="2" mask="url(#path-2-inside-2)"/>
</svg>
