<svg width="22" height="24" viewBox="0 0 22 24" fill="none" xmlns="http://www.w3.org/2000/svg">
<path d="M21 23.25V20.75C21 19.4239 20.4732 18.1521 19.5355 17.2145C18.5979 16.2768 17.3261 15.75 16 15.75H6C4.67392 15.75 3.40215 16.2768 2.46447 17.2145C1.52678 18.1521 1 19.4239 1 20.75V23.25" fill="#FCD734"/>
<path d="M21 23.25V20.75C21 19.4239 20.4732 18.1521 19.5355 17.2145C18.5979 16.2768 17.3261 15.75 16 15.75H6C4.67392 15.75 3.40215 16.2768 2.46447 17.2145C1.52678 18.1521 1 19.4239 1 20.75V23.25" stroke="#4DB6AC" stroke-width="1.5" stroke-linecap="round" stroke-linejoin="round"/>
<path d="M11 10.75C13.7614 10.75 16 8.51142 16 5.75C16 2.98858 13.7614 0.75 11 0.75C8.23858 0.75 6 2.98858 6 5.75C6 8.51142 8.23858 10.75 11 10.75Z" fill="white" stroke="#4DB6AC" stroke-width="1.5" stroke-linecap="round" stroke-linejoin="round"/>
</svg>
