<svg width="24" height="22" viewBox="0 0 24 22" fill="none" xmlns="http://www.w3.org/2000/svg">
<path d="M0.75 1H7.5C8.69347 1 9.83807 1.47411 10.682 2.31802C11.5259 3.16193 12 4.30653 12 5.5V21.25C12 20.3549 11.6444 19.4964 11.0115 18.8635C10.3786 18.2306 9.52011 17.875 8.625 17.875H0.75V1Z" fill="white" stroke="#4DB6AC" stroke-width="1.5" stroke-linecap="round" stroke-linejoin="round"/>
<path d="M23.25 1H16.5C15.3065 1 14.1619 1.47411 13.318 2.31802C12.4741 3.16193 12 4.30653 12 5.5V21.25C12 20.3549 12.3556 19.4964 12.9885 18.8635C13.6214 18.2306 14.4799 17.875 15.375 17.875H23.25V1Z" fill="#FCD734" stroke="#4DB6AC" stroke-width="1.5" stroke-linecap="round" stroke-linejoin="round"/>
</svg>
