<svg width="188" height="57" viewBox="0 0 188 57" fill="none" xmlns="http://www.w3.org/2000/svg">
<path fill-rule="evenodd" clip-rule="evenodd" d="M20 21C20 9.95431 28.9543 1 40 1H148C159.046 1 168 9.95431 168 21V37C168 48.0457 176.954 57 188 57H168H20H0C11.0457 57 20 48.0457 20 37L20 21Z" fill="#EFF8F8"/>
<path fill-rule="evenodd" clip-rule="evenodd" d="M19.5 21C19.5 9.67816 28.6782 0.5 40 0.5H148C159.322 0.5 168.5 9.67816 168.5 21V36.5C168.5 47.2696 177.23 56 188 56V57C176.845 57 167.771 48.0908 167.506 37H167.5V36.5V21C167.5 10.2304 158.77 1.5 148 1.5H40C29.2304 1.5 20.5 10.2304 20.5 21V36.5V37H20.494C20.2285 48.0908 11.1547 57 0 57V56C10.7696 56 19.5 47.2696 19.5 36.5V21Z" fill="#009688"/>
</svg>
