<svg width="24" height="24" viewBox="0 0 24 24" fill="none" xmlns="http://www.w3.org/2000/svg">
<path d="M18.8606 10.3636C18.8606 16.0909 11.497 21 11.497 21C11.497 21 4.13333 16.0909 4.13333 10.3636C4.13333 8.41068 4.90914 6.53771 6.29009 5.15676C7.67104 3.77581 9.54401 3 11.497 3C13.4499 3 15.3229 3.77581 16.7038 5.15676C18.0848 6.53771 18.8606 8.41068 18.8606 10.3636Z" stroke="#4DB6AC" stroke-width="1.5" stroke-linecap="round" stroke-linejoin="round"/>
<path d="M11.497 12.8183C12.8526 12.8183 13.9515 11.7193 13.9515 10.3637C13.9515 9.00812 12.8526 7.90918 11.497 7.90918C10.1414 7.90918 9.04243 9.00812 9.04243 10.3637C9.04243 11.7193 10.1414 12.8183 11.497 12.8183Z" stroke="#4DB6AC" stroke-width="1.5" stroke-linecap="round" stroke-linejoin="round"/>
</svg>
