<svg width="24" height="24" viewBox="0 0 24 24" fill="none" xmlns="http://www.w3.org/2000/svg">
<path d="M15.8 4.80005H17.6C18.0774 4.80005 18.5352 4.98969 18.8728 5.32726C19.2104 5.66482 19.4 6.12266 19.4 6.60005V19.2C19.4 19.6774 19.2104 20.1353 18.8728 20.4728C18.5352 20.8104 18.0774 21 17.6 21H6.8C6.32261 21 5.86477 20.8104 5.52721 20.4728C5.18964 20.1353 5 19.6774 5 19.2V6.60005C5 6.12266 5.18964 5.66482 5.52721 5.32726C5.86477 4.98969 6.32261 4.80005 6.8 4.80005H8.6" stroke="#4DB6AC" stroke-width="1.5" stroke-linecap="round" stroke-linejoin="round"/>
<path d="M14.9001 3H9.5001C9.00304 3 8.6001 3.40294 8.6001 3.9V5.7C8.6001 6.19706 9.00304 6.6 9.5001 6.6H14.9001C15.3972 6.6 15.8001 6.19706 15.8001 5.7V3.9C15.8001 3.40294 15.3972 3 14.9001 3Z" stroke="#4DB6AC" stroke-width="1.5" stroke-linecap="round" stroke-linejoin="round"/>
</svg>
