<svg width="377" height="60" viewBox="0 0 377 60" fill="none" xmlns="http://www.w3.org/2000/svg">
<path d="M77.5143 50.7963C78.1695 48.7215 79.0431 46.8433 80.2443 44.9432C81.0305 43.6983 82.0133 42.4098 83.3019 41.6672C84.5249 40.9683 85.7261 41.0338 86.9928 41.8638C89.7883 43.6765 91.4263 47.3456 92.7585 50.2503C93.3701 51.5825 95.3575 50.425 94.746 49.0928C92.9333 45.1179 89.1113 37.2992 83.4111 39.1338C79.9604 40.2476 77.8637 44.0914 76.4878 47.1927C76.051 48.1755 75.6361 49.1801 75.3085 50.1848C74.8498 51.6044 77.0557 52.194 77.5143 50.7963Z" fill="#007C6B"/>
<path d="M76.9684 51.0158C77.6891 48.6353 78.65 46.4513 79.9167 44.311C80.7467 42.9132 81.795 41.4499 83.1709 40.62C84.4813 39.812 85.7698 39.8775 87.1457 40.8384C90.1815 42.9569 91.9068 47.1065 93.3046 50.3606C93.8943 51.7147 95.8599 50.5353 95.292 49.2031C93.5012 45.0099 89.4608 35.8808 83.2801 38.0211C79.5018 39.3315 77.3833 43.765 75.9419 47.1938C75.5051 48.2422 75.0901 49.3123 74.7625 50.4043C74.3257 51.8239 76.5534 52.4136 76.9684 51.0158Z" fill="#004F3F"/>
<path d="M87.7574 46.0801C87.7574 47.5434 86.5781 48.7228 85.1148 48.7228C83.6515 48.7228 82.4722 47.5434 82.4722 46.0801C82.4722 44.6169 83.6515 43.4375 85.1148 43.4375C86.5781 43.4375 87.7574 44.6169 87.7574 46.0801Z" fill="#FFA300"/>
<path d="M103.329 24.8957C98.1315 25.6601 88.1725 28.8705 91.2956 35.9467C92.8244 39.4192 96.3625 41.909 99.3983 43.9619C100.621 44.7918 101.779 42.8044 100.556 41.9745C98.0223 40.271 95.1832 38.2835 93.6544 35.5536C92.8681 34.1558 92.7589 32.8891 93.5452 31.6879C95.0521 29.3947 98.6775 28.3027 101.386 27.6257C102.237 27.4073 103.089 27.2326 103.941 27.1015C105.404 26.905 104.771 24.6991 103.329 24.8957Z" fill="#007C6B"/>
<path d="M103.941 24.3491C98.4588 25.048 86.6434 28.1056 90.247 35.9242C91.9942 39.7025 96.0564 42.367 99.4197 44.5292C100.665 45.3372 101.822 43.3498 100.577 42.5417C97.7162 40.7072 94.5058 38.6105 92.693 35.6403C92.2344 34.8759 91.8631 33.9805 91.885 33.2161C91.885 32.5391 92.0597 32.0586 92.4746 31.4252C93.2827 30.2459 94.9207 29.3286 96.384 28.6734C97.9346 27.9964 99.66 27.5159 101.32 27.1228C101.997 26.9699 102.674 26.8388 103.351 26.7296C103.569 26.686 103.766 26.6641 103.984 26.6204C104.312 26.5768 104.028 26.6204 103.941 26.6204C105.382 26.4676 105.404 24.1744 103.941 24.3491Z" fill="#004F3F"/>
<path d="M98.0007 36.3611C99.4421 36.6014 100.796 35.6186 101.036 34.1771C101.277 32.7357 100.294 31.3816 98.8524 31.1414C97.411 30.9011 96.0569 31.8839 95.8167 33.3254C95.5764 34.7668 96.5592 36.1209 98.0007 36.3611Z" fill="#D68505"/>
<path d="M97.4105 36.4925C98.8519 36.7327 100.206 35.7499 100.446 34.3085C100.686 32.867 99.7037 31.513 98.2622 31.2727C96.8208 31.0325 95.4667 32.0153 95.2265 33.4567C95.0081 34.8763 95.969 36.2522 97.4105 36.4925Z" fill="#FFA300"/>
<path d="M90.6186 21.2039C92.06 21.4441 93.4141 20.4613 93.6543 19.0199C93.8946 17.5785 92.9118 16.2244 91.4703 15.9842C90.0289 15.7439 88.6748 16.7267 88.4346 18.1681C88.1944 19.5877 89.1771 20.9636 90.6186 21.2039Z" fill="#D68505"/>
<path d="M90.029 21.3128C91.4704 21.553 92.8245 20.5702 93.0647 19.1288C93.305 17.6874 92.3222 16.3333 90.8807 16.093C89.4393 15.8528 88.0852 16.8356 87.845 18.277C87.6048 19.7185 88.5875 21.0725 90.029 21.3128Z" fill="#FFA300"/>
<path d="M84.067 10.2615C82.9532 15.2847 82.2762 25.9644 89.9638 25.6368C93.764 25.4839 97.3675 23.0815 100.36 20.963C101.561 20.1113 100.403 18.1238 99.2021 18.9756C96.6687 20.7665 93.7421 22.8194 90.5753 23.2781C89.7236 23.4091 89.0465 23.3873 88.3258 23.1033C87.9327 22.9505 87.2994 22.47 87.081 22.1642C85.3338 19.871 85.5958 16.1801 85.9234 13.2535C85.989 12.642 86.0326 12.3799 86.1637 11.6156C86.2074 11.3535 86.251 11.1132 86.3166 10.8512C86.6005 9.43156 84.3946 8.82004 84.067 10.2615Z" fill="#007C6B"/>
<path d="M83.7171 9.82537C82.4722 15.0233 81.1837 27.2099 89.592 26.6421C93.7634 26.3582 97.6509 23.5845 100.883 21.1821C102.063 20.3085 100.905 18.3211 99.7257 19.1947C96.9521 21.2695 93.8071 23.5408 90.3346 24.2397C89.4173 24.4144 88.6092 24.4363 87.823 24.1524C87.3425 23.9995 86.731 23.519 86.4471 23.104C85.508 21.7936 85.2459 20.0901 85.1585 18.474C85.1148 17.5349 85.1367 16.5957 85.1804 15.6785C85.2022 15.2417 85.2459 14.783 85.2896 14.3462C85.3114 14.1497 85.3332 13.975 85.3551 13.7784C85.3769 13.5163 85.3988 13.3853 85.4206 13.3198C85.5516 12.337 85.7264 11.3542 85.9448 10.3932C86.2724 8.99546 84.0447 8.38394 83.7171 9.82537Z" fill="#004F3F"/>
<path d="M92.7812 20.09C93.5237 18.8233 93.0869 17.2071 91.8202 16.4864C90.5535 15.7439 88.9374 16.1807 88.2166 17.4474C87.4741 18.7141 87.9109 20.3302 89.1776 21.051C90.4443 21.7935 92.0605 21.3567 92.7812 20.09Z" fill="#FFA300"/>
<path d="M72.9503 22.1206C71.5089 22.3609 70.1548 21.3781 69.9146 19.9366C69.6743 18.4952 70.6571 17.1411 72.0986 16.9009C73.54 16.6607 74.8941 17.6435 75.1343 19.0849C75.3745 20.5263 74.3918 21.8804 72.9503 22.1206Z" fill="#D68505"/>
<path d="M73.5399 22.231C72.0985 22.4712 70.7444 21.4884 70.5042 20.047C70.2639 18.6056 71.2467 17.2515 72.6882 17.0112C74.1296 16.771 75.4837 17.7538 75.7239 19.1952C75.9423 20.6367 74.9813 21.9907 73.5399 22.231Z" fill="#FFA300"/>
<path d="M70.766 21.0068C70.0234 19.74 70.4602 18.1239 71.7269 17.4032C72.9936 16.6606 74.6098 17.0974 75.3305 18.3641C76.0731 19.6308 75.6363 21.247 74.3695 21.9677C73.1247 22.7103 71.5085 22.2735 70.766 21.0068Z" fill="#FFA300"/>
<path d="M64.0176 25.1349C69.0189 26.904 79.3929 28.6948 79.8952 20.898C80.1354 17.1634 78.1699 13.3195 76.4445 10.1309C75.7456 8.84237 73.7582 9.97804 74.4571 11.2884C75.8985 13.9529 77.5147 17.0323 77.602 20.1554C77.6239 20.9854 77.5147 21.8589 77.1871 22.4486C76.8595 23.0383 76.5319 23.3441 75.9422 23.6935C74.7628 24.3487 73.2122 24.4579 71.6616 24.3705C70.0891 24.305 68.7132 24.0648 67.097 23.6498C66.2671 23.4533 65.4372 23.213 64.6291 22.9291C63.2314 22.4268 62.6417 24.6545 64.0176 25.1349Z" fill="#007C6B"/>
<path d="M63.5371 25.4406C68.6695 27.3407 80.3757 29.9396 80.8125 21.4876C81.0309 17.338 78.6722 13.0792 76.6848 9.62854C75.964 8.33999 73.9766 9.4975 74.7192 10.7861C76.4008 13.7344 78.3227 17.1415 78.5193 20.614C78.5411 21.0508 78.5193 21.6842 78.4756 21.9681C78.3883 22.4267 78.2791 22.798 78.1262 23.0601C77.7767 23.7153 77.4491 23.9992 76.7503 24.3923C76.2916 24.6544 75.2652 24.9165 74.7847 24.9602C73.8456 25.0694 72.9064 25.0694 71.9673 25.0038C70.3293 24.8728 68.6913 24.5452 66.9878 24.0866C66.0269 23.8245 65.0659 23.5406 64.1486 23.213C62.7509 22.7106 62.1612 24.9383 63.5371 25.4406Z" fill="#004F3F"/>
<path d="M71.4869 17.4035C72.6444 16.5299 74.3042 16.7483 75.1997 17.9058C76.0733 19.0634 75.8549 20.7232 74.6974 21.6186C73.5398 22.4922 71.88 22.2738 70.9846 21.1163C70.111 19.9588 70.3294 18.299 71.4869 17.4035Z" fill="#FFA300"/>
<path d="M70.963 38.8504C69.5216 39.0906 68.1675 38.1078 67.9273 36.6664C67.687 35.2249 68.6698 33.8709 70.1113 33.6306C71.5527 33.3904 72.9068 34.3732 73.147 35.8146C73.3872 37.2342 72.4044 38.6101 70.963 38.8504Z" fill="#D68505"/>
<path d="M71.5526 38.9593C70.1112 39.1995 68.7571 38.2167 68.5169 36.7753C68.2766 35.3338 69.2594 33.9798 70.7009 33.7395C72.1423 33.4993 73.4964 34.4821 73.7366 35.9235C73.955 37.3649 72.994 38.719 71.5526 38.9593Z" fill="#FFA300"/>
<path d="M68.8004 37.7365C68.0578 36.4698 68.4946 34.8536 69.7613 34.1329C71.0281 33.3903 72.6442 33.8271 73.3649 35.0939C74.1075 36.3606 73.6707 37.9767 72.404 38.6974C71.1373 39.44 69.5211 39.0032 68.8004 37.7365Z" fill="#FFA300"/>
<path d="M69.5211 34.1333C70.6786 33.2597 72.3384 33.4781 73.2339 34.6356C74.1075 35.7931 73.8891 37.4529 72.7315 38.3484C71.574 39.222 69.9142 39.0036 69.0188 37.846C68.1233 36.6667 68.3417 35.0069 69.5211 34.1333Z" fill="#FFA300"/>
<path d="M71.4215 46.8872C75.3963 43.4147 82.0357 35.3121 75.5929 31.0096C72.4479 28.913 68.1018 28.7383 64.4764 28.6728C62.9913 28.6509 62.9913 30.9441 64.4764 30.966C67.534 31.0315 71.0502 31.1407 73.802 32.6039C74.5009 32.9752 75.1779 33.4994 75.5492 34.0672C75.8768 34.6132 76.0079 35.1374 76.0079 35.7489C75.986 38.4789 73.5836 41.3836 71.6617 43.4365C71.072 44.0699 70.4605 44.6814 69.8272 45.2492C68.6915 46.232 70.3076 47.8482 71.4215 46.8872Z" fill="#007C6B"/>
<path d="M71.4432 47.4553C75.6146 43.9391 83.6953 34.941 76.4663 30.442C72.9501 28.258 68.1453 28.2144 64.1705 28.2144C62.6854 28.2144 62.6854 30.5075 64.1705 30.5075C67.5775 30.4857 71.5087 30.4857 74.6318 32.0363C75.418 32.4295 76.2043 32.9973 76.5974 33.6088C76.9905 34.2203 77.0997 34.7226 77.0779 35.4652C77.0342 36.8848 76.2043 38.4791 75.287 39.855C74.326 41.2965 73.2122 42.585 71.9673 43.8517C71.2903 44.5506 70.5914 45.2276 69.8488 45.8392C68.6913 46.8001 70.3293 48.4163 71.4432 47.4553Z" fill="#004F3F"/>
<path d="M70.0454 33.8933C68.7131 34.483 68.0798 36.0336 68.6695 37.3659C69.2591 38.6981 70.8098 39.3315 72.142 38.7418C73.4742 38.1521 74.1076 36.6015 73.5179 35.2692C72.9282 33.937 71.3776 33.3037 70.0454 33.8933Z" fill="#FFA300"/>
<path d="M85.6608 49.3772C84.2193 49.6175 82.8653 48.6347 82.625 47.1932C82.3848 45.7518 83.3676 44.3977 84.809 44.1575C86.2504 43.9173 87.6045 44.9 87.8448 46.3415C88.085 47.7829 87.1022 49.137 85.6608 49.3772Z" fill="#D68505"/>
<path d="M85.6608 48.6785C84.2193 48.9187 82.8653 47.9359 82.625 46.4945C82.3848 45.0531 83.3676 43.699 84.809 43.4588C86.2504 43.2185 87.6045 44.2013 87.8448 45.6427C88.085 47.0842 87.1022 48.4383 85.6608 48.6785Z" fill="#FFA300"/>
<path d="M82.9093 47.4557C82.1667 46.189 82.6035 44.5729 83.8702 43.8521C85.1369 43.1096 86.7531 43.5464 87.4738 44.8131C88.2164 46.0798 87.7796 47.696 86.5129 48.4167C85.268 49.1592 83.63 48.7224 82.9093 47.4557Z" fill="#FFA300"/>
<path d="M83.6303 43.8525C84.7878 42.9789 86.4476 43.1973 87.343 44.3548C88.2166 45.5123 87.9982 47.1722 86.8407 48.0676C85.6832 48.9412 84.0234 48.7228 83.1279 47.5653C82.2325 46.3859 82.4727 44.7479 83.6303 43.8525Z" fill="#FFA300"/>
<path d="M84.1543 43.6121C82.822 44.2018 82.1887 45.7524 82.7783 47.0846C83.368 48.4169 84.9187 49.0502 86.2509 48.4606C87.5831 47.8709 88.2165 46.3202 87.6268 44.988C87.059 43.6558 85.4865 43.0443 84.1543 43.6121Z" fill="#FFA300"/>
<path d="M136.153 36.918C136.354 39.5746 138.969 40.8741 141.986 40.8741C144.17 40.8741 145.951 40.5853 147.675 40.0367L148.508 44.3971C146.411 45.2345 143.825 45.6677 141.038 45.6677C134.027 45.6388 130.033 41.5671 130.033 35.0987C130.033 29.8431 133.28 24.01 140.463 24.01C147.129 24.01 149.658 29.2367 149.658 34.3479C149.658 35.4453 149.543 36.4271 149.457 36.8891H136.153V36.918ZM143.71 32.4998C143.71 30.9405 143.049 28.3127 140.09 28.3127C137.389 28.3127 136.297 30.7672 136.124 32.4998H143.71Z" fill="#004F3F"/>
<path d="M173.478 15.1167V39.0268C173.478 41.3658 173.564 43.8203 173.65 45.2064H167.961L167.674 42.1455H167.588C166.266 44.4845 163.795 45.6684 161.122 45.6684C156.238 45.6684 152.301 41.4813 152.301 35.0129C152.272 28.0247 156.611 23.9819 161.553 23.9819C164.082 23.9819 166.065 24.8771 166.984 26.3209H167.07V15.1167H173.478ZM167.07 33.2514C167.07 32.9049 167.042 32.4428 166.984 32.0963C166.611 30.3637 165.203 28.9198 163.22 28.9198C160.318 28.9198 158.795 31.5476 158.795 34.8107C158.795 38.3337 160.519 40.5283 163.191 40.5283C165.059 40.5283 166.524 39.2578 166.898 37.4385C167.013 36.9765 167.07 36.5145 167.07 35.9658V33.2514V33.2514Z" fill="#004F3F"/>
<path d="M198.074 38.5645C198.074 41.2789 198.16 43.4736 198.246 45.2351H192.672L192.385 42.3185H192.27C191.465 43.5891 189.54 45.6971 185.805 45.6971C181.638 45.6971 178.535 43.0693 178.535 36.6586V24.5015H185V35.6479C185 38.6511 185.977 40.4704 188.218 40.4704C190 40.4704 191.005 39.2287 191.436 38.218C191.609 37.8426 191.637 37.3228 191.637 36.8319V24.5015H198.103V38.5645H198.074Z" fill="#004F3F"/>
<path d="M209.108 21.0076H201.005V16.6472H222.469V21.0076H214.28V45.2064H209.079V21.0076H209.108Z" fill="#E28C03"/>
<path d="M230.371 18.8131C230.371 20.3724 229.221 21.6141 227.411 21.6141C225.687 21.6141 224.538 20.3724 224.538 18.8131C224.538 17.196 225.716 15.9832 227.44 15.9832C229.221 15.9543 230.313 17.196 230.371 18.8131ZM224.825 45.2354V24.5596H230.055V45.2066H224.825V45.2354Z" fill="#E28C03"/>
<path d="M235.629 30.7097C235.629 28.3418 235.6 26.3493 235.457 24.559H240.025L240.284 27.6488H240.399C241.29 26.0317 243.531 24.0969 246.95 24.0969C250.542 24.0969 254.249 26.4359 254.249 32.9621V45.2059H249.048V33.5685C249.048 30.5942 247.956 28.3418 245.111 28.3418C243.042 28.3418 241.606 29.8145 241.06 31.4028C240.887 31.8648 240.859 32.5001 240.859 33.1065V45.2348H235.629V30.7097V30.7097Z" fill="#E28C03"/>
<path d="M264.967 33.6557H265.053C265.57 32.8471 266.145 31.9519 266.691 31.23L271.661 24.5594H277.897L270.311 33.0204L278.989 45.2353H272.61L266.691 36.1102L264.909 38.1893V45.2353H259.708V15.1167H264.909V33.6557H264.967Z" fill="#E28C03"/>
<path d="M284.62 36.3705C284.735 40.0956 287.666 41.7127 290.942 41.7127C293.355 41.7127 295.079 41.3662 296.631 40.7887L297.378 44.3983C295.596 45.1202 293.154 45.6689 290.195 45.6689C283.528 45.6689 279.592 41.5683 279.592 35.2443C279.592 29.5267 283.04 24.1267 289.62 24.1267C296.286 24.1267 298.47 29.6422 298.47 34.1759C298.47 35.1577 298.384 35.9085 298.297 36.3705H284.62V36.3705ZM293.643 32.7031C293.671 30.7973 292.838 27.6497 289.39 27.6497C286.172 27.6497 284.821 30.5663 284.62 32.7031H293.643Z" fill="#E28C03"/>
<path d="M302.723 31.2295C302.723 28.4285 302.694 26.436 302.55 24.559H307.061L307.234 28.5151H307.406C308.412 25.5985 310.826 24.0969 313.009 24.0969C313.527 24.0969 313.814 24.1258 314.245 24.2124V29.1215C313.814 29.0349 313.354 28.9482 312.722 28.9482C310.222 28.9482 308.556 30.5653 308.067 32.9044C307.981 33.3664 307.895 33.9151 307.895 34.5215V45.2059H302.723V31.2295Z" fill="#E28C03"/>
</svg>
