<svg width="300" height="77" viewBox="0 0 300 77" fill="none" xmlns="http://www.w3.org/2000/svg">
<path d="M42.3924 30.9717C44.0026 30.9717 45.3079 29.6664 45.3079 28.0562C45.3079 26.4459 44.0026 25.1406 42.3924 25.1406C40.7822 25.1406 39.4768 26.4459 39.4768 28.0562C39.4768 29.6664 40.7822 30.9717 42.3924 30.9717Z" fill="#FFA300"/>
<path d="M17.2982 20.8715C16.7775 20.8715 16.1528 20.7673 15.6321 20.6632L4.28241 17.4353C3.4494 17.2271 3.0329 16.394 3.24115 15.561C3.4494 14.728 4.28241 14.3115 5.11542 14.5198L16.361 17.7477C17.4023 18.0601 18.5477 17.7477 19.3807 17.0188C20.2137 16.1858 20.5261 15.1445 20.2137 13.9991L17.2982 2.5453C17.0899 1.71229 17.6105 0.983407 18.3394 0.775155C19.1724 0.566903 19.9013 1.08753 20.1096 1.81641L23.0251 13.2703C23.5457 15.4569 22.921 17.6436 21.3591 19.1013C20.3178 20.2467 18.86 20.8715 17.2982 20.8715Z" fill="#A5E0DA"/>
<path d="M32.8129 19.622C31.5634 19.622 30.2097 19.2055 29.0644 18.5807C26.9818 17.2271 25.7323 14.9363 25.8365 12.4373L26.253 2.1288C26.253 1.29579 26.9818 0.671036 27.8148 0.671036C28.6479 0.671036 29.2726 1.39992 29.2726 2.23292L28.8561 12.5414C28.752 13.9992 29.4809 15.2487 30.6262 16.0817C31.8758 16.8106 33.3335 16.9147 34.583 16.2899L43.7461 11.5001C44.475 11.0836 45.4121 11.396 45.7245 12.1249C46.141 12.8538 45.8286 13.7909 45.0997 14.1033L36.0408 18.7889C34.9995 19.3096 33.8541 19.622 32.8129 19.622Z" fill="#A5E0DA"/>
<path d="M32.188 19.3096C30.9385 19.3096 29.5849 18.8931 28.4395 18.1642C26.357 16.8106 25.1074 14.5198 25.2116 12.0208L25.6281 1.71229C25.6281 0.879287 26.357 0.254532 27.19 0.254532C28.023 0.254532 28.6477 0.983413 28.6477 1.81642L28.2312 12.1249C28.1271 13.5827 28.856 14.8322 30.0014 15.6652C31.2509 16.3941 32.7086 16.4982 33.9581 15.8734L43.1212 11.0836C43.8501 10.6671 44.7872 10.9795 45.0996 11.7084C45.5161 12.4373 45.2038 13.3744 44.4749 13.6868L35.4159 18.4766C34.3747 18.9972 33.3334 19.3096 32.188 19.3096Z" fill="#66CCC3"/>
<path d="M16.2567 20.1426C15.7361 20.1426 15.1114 20.0385 14.5907 19.9343L3.34512 16.7064C2.51212 16.4982 2.09561 15.6652 2.30386 14.8322C2.51211 13.9991 3.34512 13.5826 4.17813 13.7909L15.5279 17.0188C16.5691 17.3312 17.7145 17.0188 18.5475 16.2899C19.3805 15.4569 19.6929 14.4157 19.3805 13.2703L16.465 1.81641C16.2567 1.08753 16.6732 0.254525 17.5062 0.0462729C18.3393 -0.161979 19.0681 0.358651 19.2764 1.08753L22.1919 12.5414C22.7125 14.728 22.0878 16.9147 20.5259 18.3724C19.3805 19.5178 17.8186 20.1426 16.2567 20.1426Z" fill="#004F3F"/>
<path d="M16.9857 47.4236C16.7775 47.4236 16.4651 47.3194 16.2568 47.2153C15.528 46.7988 15.2156 45.9658 15.6321 45.2369L20.4219 36.0738C21.5673 33.8872 23.7539 32.4294 26.2529 32.4294C28.7519 32.3253 31.0427 33.5748 32.3964 35.6573L37.915 44.4039C38.3315 45.1328 38.1233 45.9658 37.4985 46.4864C36.8738 47.0071 35.9366 46.6947 35.416 46.0699L29.8973 37.3234C29.1684 36.0738 27.8148 35.4491 26.357 35.4491C24.8993 35.5532 23.6498 36.2821 23.025 37.5316L18.2352 46.6947C18.027 47.1112 17.5063 47.4236 16.9857 47.4236Z" fill="#A5E0DA"/>
<path d="M17.9227 47.2153C17.7145 47.2153 17.4021 47.1112 17.1938 47.0071C16.465 46.5906 16.1526 45.7576 16.5691 45.0287L21.3589 35.8656C22.5043 33.679 24.6909 32.2212 27.1899 32.2212C29.689 32.1171 31.9797 33.3666 33.3334 35.4491L38.852 44.1957C39.2685 44.9246 39.0603 45.7576 38.4355 46.2782C37.7067 46.6947 36.8736 46.4864 36.353 45.8617L30.8343 37.1151C30.1055 35.8656 28.7518 35.2408 27.2941 35.2408C25.8363 35.345 24.5868 36.0738 23.962 37.3234L19.1722 46.4864C18.964 47.0071 18.4434 47.2153 17.9227 47.2153Z" fill="#008B7B"/>
<path d="M44.0585 42.7379C43.642 42.7379 43.2255 42.5297 43.0173 42.2173L33.8542 32.2212C32.1882 30.4511 31.6675 27.952 32.3964 25.6613C33.1253 23.3705 34.9996 21.6003 37.2903 21.0797L50.5143 18.0601C51.3473 17.8518 52.0762 18.3724 52.2845 19.2055C52.4927 20.0385 51.9721 20.7673 51.1391 20.9756L37.9151 23.9952C36.5614 24.3076 35.5202 25.2448 35.2078 26.4943C34.7913 27.7438 35.1037 29.2015 36.0408 30.1387L45.2039 40.1348C45.7245 40.7595 45.7245 41.6967 45.0998 42.2173C44.7874 42.5297 44.475 42.7379 44.0585 42.7379Z" fill="#A5E0DA"/>
<path d="M44.3709 41.5925C43.9544 41.5925 43.5379 41.3843 43.3297 41.0719L34.1666 31.0758C32.5006 29.3056 31.98 26.8066 32.7088 24.5159C33.4377 22.2251 35.312 20.4549 37.6028 19.9343L50.8268 16.9147C51.6598 16.7064 52.3886 17.227 52.5969 18.06C52.8052 18.8931 52.2845 19.6219 51.4515 19.8302L38.2275 22.954C36.8739 23.2663 35.8326 24.2035 35.5202 25.453C35.1037 26.8066 35.4161 28.1603 36.2491 29.2015L45.4122 39.1976C45.9328 39.8224 45.9328 40.7595 45.3081 41.2801C45.0998 41.4884 44.7875 41.5925 44.3709 41.5925Z" fill="#00A899"/>
<path d="M9.90517 45.0287C9.59279 45.0287 9.28041 44.9245 8.96803 44.7163C8.34328 44.1957 8.23915 43.2585 8.75978 42.6338L16.8816 32.7418C17.8187 31.5964 18.1311 30.0345 17.6105 28.5768C17.0899 27.119 15.8403 26.1819 14.3826 25.8695L1.78334 23.787C0.950336 23.6828 0.429706 22.8498 0.533832 22.121C0.637958 21.288 1.47097 20.7673 2.19985 20.8714L14.7991 22.954C17.4022 23.3705 19.3806 25.0365 20.3178 27.5355C21.2549 29.9304 20.7343 32.6377 19.1724 34.6161L11.0506 44.508C10.7382 44.8204 10.3217 45.0287 9.90517 45.0287Z" fill="#A5E0DA"/>
<path d="M9.38454 43.8833C9.07216 43.8833 8.75978 43.7792 8.4474 43.5709C7.82265 43.0503 7.71852 42.1132 8.23915 41.4884L16.361 31.5964C17.2981 30.451 17.6105 28.8892 17.0899 27.4314C16.5692 25.9736 15.3197 25.0365 13.862 24.7241L1.26271 22.6416C0.429706 22.5375 -0.0909235 21.7045 0.0132024 20.9756C0.117328 20.1426 0.950336 19.622 1.67922 19.7261L14.2785 21.8086C16.8816 22.2251 18.86 23.8911 19.7971 26.3901C20.7343 28.785 20.2136 31.4923 18.6517 33.4707L10.5299 43.3627C10.2175 43.675 9.80104 43.8833 9.38454 43.8833Z" fill="#007C6B"/>
<path d="M33.6459 14.1033C35.2561 14.1033 36.5614 12.798 36.5614 11.1878C36.5614 9.57756 35.2561 8.27223 33.6459 8.27223C32.0357 8.27223 30.7304 9.57756 30.7304 11.1878C30.7304 12.798 32.0357 14.1033 33.6459 14.1033Z" fill="#FF7700"/>
<path d="M27.5026 44.2998C29.1128 44.2998 30.4181 42.9945 30.4181 41.3843C30.4181 39.7741 29.1128 38.4688 27.5026 38.4688C25.8924 38.4688 24.587 39.7741 24.587 41.3843C24.587 42.9945 25.8924 44.2998 27.5026 44.2998Z" fill="#FFBD00"/>
<path d="M12.0919 32.2212C13.7021 32.2212 15.0074 30.9159 15.0074 29.3057C15.0074 27.6955 13.7021 26.3901 12.0919 26.3901C10.4817 26.3901 9.17636 27.6955 9.17636 29.3057C9.17636 30.9159 10.4817 32.2212 12.0919 32.2212Z" fill="#FFA300"/>
<path d="M14.1744 14.9363C15.7846 14.9363 17.0899 13.631 17.0899 12.0208C17.0899 10.4106 15.7846 9.10524 14.1744 9.10524C12.5642 9.10524 11.2589 10.4106 11.2589 12.0208C11.2589 13.631 12.5642 14.9363 14.1744 14.9363Z" fill="#FFA300"/>
<path d="M14.5908 62.1053C15.4238 62.8342 15.9444 63.8755 15.9444 65.125C15.9444 66.3745 15.5279 67.4157 14.5908 68.1446C13.7577 68.8735 12.5082 69.29 10.9463 69.1859H7.71844V73.0385H6.46893V60.8558H11.0505C12.5082 60.9599 13.7577 61.3764 14.5908 62.1053ZM13.6536 67.4157C14.2784 66.8951 14.5908 66.1662 14.5908 65.2291C14.5908 64.292 14.2784 63.459 13.6536 62.9383C13.0289 62.4177 12.0917 62.1053 10.8422 62.1053H7.61432V68.2487H10.8422C12.0917 68.1446 13.0289 67.9364 13.6536 67.4157Z" fill="#007C6B"/>
<path d="M19.6929 72.622C18.964 72.2055 18.4434 71.6849 18.0269 70.956C17.6104 70.2272 17.4022 69.3942 17.4022 68.5611C17.4022 67.624 17.6104 66.8951 18.0269 66.1662C18.4434 65.4374 18.964 64.9167 19.6929 64.5002C20.4218 64.0837 21.1507 63.8755 22.0878 63.8755C22.9208 63.8755 23.7538 64.0837 24.4827 64.5002C25.2116 64.9167 25.7322 65.4374 26.1487 66.1662C26.5652 66.8951 26.7735 67.7281 26.7735 68.5611C26.7735 69.4983 26.5652 70.2272 26.1487 70.956C25.7322 71.6849 25.2116 72.2055 24.4827 72.622C23.7538 73.0386 23.025 73.2468 22.0878 73.2468C21.2548 73.2468 20.4218 73.0386 19.6929 72.622ZM23.858 71.6849C24.3786 71.3725 24.7951 70.956 25.1075 70.4354C25.4199 69.9148 25.524 69.29 25.524 68.5611C25.524 67.8323 25.4199 67.2075 25.1075 66.6869C24.7951 66.1662 24.3786 65.7497 23.858 65.4374C23.3373 65.125 22.7126 65.0209 22.0878 65.0209C21.4631 65.0209 20.8383 65.125 20.3177 65.4374C19.7971 65.7497 19.3806 66.1662 19.0682 66.6869C18.7558 67.2075 18.6517 67.8323 18.6517 68.5611C18.6517 69.29 18.7558 69.9148 19.0682 70.4354C19.3806 70.956 19.7971 71.3725 20.3177 71.6849C20.8383 71.9973 21.4631 72.1014 22.0878 72.1014C22.7126 72.1014 23.3373 71.9973 23.858 71.6849Z" fill="#007C6B"/>
<path d="M42.4966 64.0837L38.9563 73.2468H37.8109L34.8954 65.7497L31.9799 73.2468H30.8345L27.3983 64.0837H28.5437L31.3551 71.8932L34.3748 64.0837H35.416L38.3316 71.8932L41.2471 64.0837H42.4966Z" fill="#007C6B"/>
<path d="M52.0762 69.0818H44.3708C44.475 70.0189 44.7874 70.8519 45.4121 71.3725C46.0369 71.9973 46.8699 72.3097 47.9111 72.3097C48.4318 72.3097 48.9524 72.2055 49.473 71.9973C49.9936 71.789 50.4102 71.4766 50.7225 71.0601L51.4514 71.8932C51.0349 72.3097 50.6184 72.7262 49.9936 72.9344C49.3689 73.1427 48.7441 73.3509 48.0153 73.3509C47.0781 73.3509 46.2451 73.1427 45.5162 72.7262C44.7874 72.3097 44.2667 71.789 43.8502 71.0601C43.4337 70.3313 43.2255 69.4983 43.2255 68.6653C43.2255 67.7281 43.4337 66.9992 43.8502 66.2704C44.2667 65.5415 44.7874 65.0208 45.4121 64.6043C46.141 64.1878 46.8699 63.9796 47.7029 63.9796C48.5359 63.9796 49.2648 64.1878 49.9936 64.6043C50.6184 65.0208 51.2432 65.5415 51.5555 66.2704C51.972 66.9992 52.0762 67.7281 52.0762 68.6653V69.0818ZM45.4121 65.958C44.7874 66.4786 44.475 67.2075 44.3708 68.1446H50.8267C50.7225 67.2075 50.4102 66.4786 49.7854 65.958C49.1606 65.4373 48.4318 65.125 47.5988 65.125C46.7657 65.125 46.0369 65.3332 45.4121 65.958Z" fill="#007C6B"/>
<path d="M57.0741 64.5002C57.6988 64.1878 58.3236 64.0837 59.2607 64.0837V65.3332H58.9484C58.0112 65.3332 57.1782 65.6456 56.6576 66.1662C56.137 66.791 55.8246 67.624 55.8246 68.6653V73.3509H54.5751V64.1878H55.7205V65.958C56.137 65.3332 56.5535 64.8126 57.0741 64.5002Z" fill="#007C6B"/>
<path d="M61.4475 61.8971C61.2393 61.6888 61.2393 61.4806 61.2393 61.2723C61.2393 61.0641 61.3434 60.8558 61.5517 60.6476C61.7599 60.4393 61.9682 60.4393 62.1764 60.4393C62.3847 60.4393 62.6971 60.5434 62.8012 60.6476C63.0094 60.8558 63.1136 61.0641 63.0094 61.2723C63.0094 61.4806 62.9053 61.7929 62.6971 61.8971C62.4888 62.1053 62.2805 62.2094 62.0723 62.1053C61.864 62.1053 61.6558 62.1053 61.4475 61.8971ZM61.4475 64.1878H62.6971V73.3509H61.4475V64.1878Z" fill="#007C6B"/>
<path d="M73.526 65.125C74.1508 65.7497 74.5673 66.791 74.5673 68.0405V73.3509H73.3177V68.1446C73.3177 67.2075 73.1095 66.4786 72.5889 65.958C72.0682 65.4373 71.4435 65.2291 70.5063 65.2291C69.5692 65.2291 68.7362 65.5415 68.1114 66.0621C67.4867 66.6869 67.2784 67.4157 67.2784 68.457V73.2468H66.0289V64.0837H67.1743V65.7497C67.4867 65.2291 68.0073 64.8126 68.528 64.5002C69.1527 64.1878 69.7775 64.0837 70.6105 64.0837C71.9641 64.0837 72.9012 64.5002 73.526 65.125Z" fill="#007C6B"/>
<path d="M86.4376 64.1878V72.2055C86.4376 73.7674 86.0211 74.9128 85.2922 75.6417C84.5634 76.3706 83.418 76.7871 81.8561 76.7871C81.0231 76.7871 80.1901 76.683 79.4612 76.3706C78.7323 76.1623 78.1075 75.7458 77.5869 75.3293L78.2117 74.3922C78.6282 74.8087 79.1488 75.1211 79.7736 75.3293C80.3983 75.5376 81.0231 75.6417 81.7519 75.6417C82.8973 75.6417 83.7303 75.3293 84.3551 74.8087C84.8757 74.2881 85.1881 73.455 85.1881 72.3097V71.1643C84.7716 71.789 84.251 72.2055 83.6262 72.5179C83.0015 72.8303 82.2726 72.9344 81.5437 72.9344C80.7107 72.9344 79.8777 72.7262 79.2529 72.3097C78.524 71.8932 78.0034 71.3725 77.5869 70.7478C77.1704 70.0189 76.9622 69.29 76.9622 68.457C76.9622 67.624 77.1704 66.791 77.5869 66.1662C78.0034 65.5415 78.524 65.0208 79.2529 64.6043C79.9818 64.1878 80.7107 64.0837 81.6478 64.0837C82.3767 64.0837 83.1056 64.292 83.7303 64.6043C84.3551 64.9167 84.8757 65.3332 85.2922 65.958V64.1878H86.4376ZM83.5221 71.4766C84.0427 71.1643 84.4592 70.7478 84.7716 70.3313C85.084 69.8106 85.1881 69.29 85.1881 68.5611C85.1881 67.9364 85.084 67.3116 84.7716 66.791C84.4592 66.2704 84.0427 65.8539 83.5221 65.6456C83.0015 65.3332 82.3767 65.2291 81.7519 65.2291C81.1272 65.2291 80.5024 65.3332 79.9818 65.6456C79.4612 65.958 79.0447 66.2704 78.7323 66.791C78.4199 67.3116 78.3158 67.8322 78.3158 68.5611C78.3158 69.1859 78.4199 69.8106 78.7323 70.3313C79.0447 70.8519 79.4612 71.2684 79.9818 71.4766C80.5024 71.789 81.1272 71.8932 81.7519 71.8932C82.3767 71.8932 83.0015 71.789 83.5221 71.4766Z" fill="#007C6B"/>
<path d="M99.2452 72.8303C99.037 73.0386 98.7246 73.2468 98.4122 73.3509C98.0998 73.4551 97.6833 73.5592 97.371 73.5592C96.538 73.5592 95.8091 73.3509 95.3926 72.8303C94.9761 72.4138 94.6637 71.6849 94.6637 70.8519V65.3332H92.9977V64.292H94.6637V62.3136H95.9132V64.292H98.7246V65.3332H95.9132V70.8519C95.9132 71.3725 96.0173 71.789 96.3297 72.1014C96.6421 72.4138 96.9545 72.5179 97.4751 72.5179C97.6833 72.5179 97.9957 72.5179 98.204 72.4138C98.4122 72.3097 98.6205 72.2055 98.8287 72.1014L99.2452 72.8303Z" fill="#007C6B"/>
<path d="M108.929 65.2291C109.554 65.8538 109.97 66.8951 109.97 68.1446V73.455H108.721V68.2487C108.721 67.3116 108.512 66.5827 107.992 66.0621C107.471 65.5415 106.846 65.3332 105.909 65.3332C104.972 65.3332 104.139 65.6456 103.514 66.1662C102.889 66.791 102.681 67.5199 102.681 68.5611V73.3509H101.432V60.4393H102.681V65.8538C102.994 65.3332 103.514 64.9167 104.035 64.6043C104.66 64.292 105.284 64.1878 106.117 64.1878C107.367 64.1878 108.304 64.6043 108.929 65.2291Z" fill="#007C6B"/>
<path d="M121.32 69.29H113.614C113.719 70.2271 114.031 71.0601 114.656 71.5808C115.28 72.2055 116.113 72.5179 117.155 72.5179C117.675 72.5179 118.196 72.4138 118.717 72.2055C119.237 71.9973 119.654 71.6849 119.966 71.2684L120.695 72.1014C120.279 72.622 119.758 72.9344 119.133 73.2468C118.508 73.455 117.884 73.6633 117.155 73.6633C116.218 73.6633 115.385 73.455 114.656 73.0385C113.927 72.622 113.406 72.1014 112.99 71.3725C112.573 70.6436 112.365 69.8106 112.365 68.9776C112.365 68.0405 112.573 67.3116 112.99 66.5827C113.406 65.8539 113.927 65.3332 114.552 64.9167C115.28 64.5002 116.009 64.292 116.842 64.292C117.675 64.292 118.404 64.5002 119.133 64.9167C119.758 65.3332 120.383 65.8539 120.695 66.5827C121.112 67.3116 121.216 68.0405 121.216 68.9776L121.32 69.29ZM114.76 66.1662C114.135 66.6869 113.823 67.4157 113.719 68.3529H120.174C120.07 67.4157 119.758 66.6869 119.133 66.1662C118.508 65.6456 117.78 65.3332 116.947 65.3332C116.009 65.3332 115.28 65.6456 114.76 66.1662Z" fill="#007C6B"/>
<path d="M137.355 72.4138V73.5592H128.713V61.3764H137.043V62.5218H129.962V66.8951H136.314V68.0405H129.962V72.5179L137.355 72.4138Z" fill="#007C6B"/>
<path d="M148.392 60.6476V73.5592H147.247V71.789C146.831 72.4138 146.414 72.8303 145.789 73.2468C145.165 73.5592 144.54 73.7674 143.707 73.7674C142.874 73.7674 142.041 73.5592 141.416 73.1427C140.687 72.7262 140.167 72.2055 139.75 71.4766C139.334 70.7478 139.125 69.9148 139.125 69.0818C139.125 68.1446 139.334 67.4157 139.75 66.6869C140.167 65.958 140.687 65.4373 141.416 65.0208C142.145 64.6043 142.874 64.3961 143.707 64.3961C144.436 64.3961 145.165 64.6043 145.685 64.9167C146.31 65.2291 146.726 65.6456 147.143 66.2704V60.7517L148.392 60.6476ZM145.477 72.1014C145.998 71.789 146.414 71.3725 146.726 70.8519C147.039 70.3313 147.143 69.7065 147.143 68.9776C147.143 68.2487 147.039 67.624 146.726 67.1034C146.414 66.5827 145.998 66.1662 145.477 65.8538C144.956 65.5415 144.332 65.4373 143.707 65.4373C143.082 65.4373 142.457 65.5415 141.937 65.8538C141.416 66.1662 141 66.5827 140.687 67.1034C140.375 67.624 140.271 68.2487 140.271 68.9776C140.271 69.7065 140.375 70.3313 140.687 70.8519C141 71.3725 141.416 71.789 141.937 72.1014C142.457 72.4138 143.082 72.5179 143.707 72.5179C144.332 72.622 144.956 72.4138 145.477 72.1014Z" fill="#007C6B"/>
<path d="M160.055 64.5002V73.6633H158.909V71.9973C158.597 72.5179 158.18 72.9344 157.556 73.2468C157.035 73.5592 156.306 73.6633 155.577 73.6633C154.432 73.6633 153.391 73.3509 152.766 72.622C152.037 71.9973 151.725 70.956 151.725 69.7065V64.3961H152.974V69.6024C152.974 70.5395 153.182 71.2684 153.703 71.789C154.224 72.3097 154.848 72.5179 155.786 72.5179C156.723 72.5179 157.556 72.2055 158.076 71.6849C158.597 71.0602 158.909 70.3313 158.909 69.29V64.5002H160.055Z" fill="#007C6B"/>
<path d="M164.844 73.1427C164.116 72.7262 163.595 72.2055 163.178 71.4767C162.762 70.7478 162.554 69.9148 162.554 69.0818C162.554 68.1446 162.762 67.4157 163.178 66.6869C163.595 65.958 164.116 65.4373 164.844 65.0208C165.573 64.6043 166.406 64.3961 167.239 64.3961C168.072 64.3961 168.697 64.6043 169.322 64.9167C169.947 65.2291 170.467 65.6456 170.78 66.2704L169.842 66.8951C169.53 66.4786 169.114 66.0621 168.697 65.8539C168.281 65.6456 167.76 65.5415 167.135 65.5415C166.51 65.5415 165.886 65.6456 165.365 65.958C164.844 66.2704 164.428 66.6869 164.116 67.2075C163.803 67.7281 163.699 68.3529 163.699 69.0818C163.699 69.8106 163.803 70.4354 164.116 70.956C164.428 71.4767 164.844 71.8932 165.365 72.2055C165.886 72.5179 166.51 72.622 167.135 72.622C167.656 72.622 168.176 72.5179 168.697 72.3097C169.114 72.1014 169.53 71.789 169.842 71.2684L170.78 71.8932C170.467 72.5179 169.947 72.9344 169.322 73.2468C168.697 73.5592 167.968 73.6633 167.239 73.6633C166.406 73.7674 165.573 73.5592 164.844 73.1427Z" fill="#007C6B"/>
<path d="M179.214 65.3332C179.839 65.958 180.151 66.791 180.151 68.0405V73.7674H179.006V72.3097C178.693 72.8303 178.277 73.1427 177.756 73.455C177.235 73.7674 176.611 73.8715 175.882 73.8715C174.841 73.8715 174.008 73.6633 173.487 73.1427C172.862 72.622 172.55 71.9973 172.55 71.1643C172.55 70.4354 172.862 69.8106 173.383 69.29C173.903 68.7694 174.841 68.5611 176.09 68.5611H179.006V68.0405C179.006 67.2075 178.797 66.6868 178.381 66.2703C177.964 65.8538 177.34 65.6456 176.402 65.6456C175.778 65.6456 175.257 65.7497 174.736 65.958C174.216 66.1662 173.695 66.3745 173.383 66.791L172.862 65.8538C173.279 65.4373 173.903 65.125 174.528 64.9167C175.153 64.7085 175.882 64.6043 176.611 64.6043C177.756 64.5002 178.589 64.8126 179.214 65.3332ZM177.86 72.3097C178.381 71.9973 178.693 71.5808 179.006 70.956V69.4982H176.09C174.528 69.4982 173.695 70.0189 173.695 71.1643C173.695 71.6849 173.903 72.1014 174.32 72.4138C174.736 72.7262 175.257 72.8303 175.986 72.8303C176.715 72.8303 177.34 72.622 177.86 72.3097Z" fill="#007C6B"/>
<path d="M188.377 73.1427C188.169 73.3509 187.856 73.5592 187.544 73.6633C187.232 73.7674 186.815 73.8716 186.503 73.8716C185.67 73.8716 184.941 73.6633 184.524 73.1427C184.108 72.7262 183.795 71.9973 183.795 71.1643V65.6456H182.129V64.6044H183.795V62.626H185.045V64.6044H187.856V65.6456H185.045V71.1643C185.045 71.6849 185.149 72.1014 185.461 72.4138C185.774 72.7262 186.086 72.8303 186.607 72.8303C186.815 72.8303 187.127 72.8303 187.336 72.7262C187.544 72.6221 187.752 72.5179 187.96 72.4138L188.377 73.1427Z" fill="#007C6B"/>
<path d="M190.668 62.3136C190.459 62.1053 190.459 61.8971 190.459 61.6888C190.459 61.4806 190.564 61.2723 190.772 61.0641C190.98 60.8558 191.188 60.8558 191.397 60.8558C191.605 60.8558 191.917 60.9599 192.021 61.0641C192.23 61.2723 192.334 61.4806 192.23 61.6888C192.23 61.8971 192.125 62.2094 191.917 62.3136C191.709 62.5218 191.501 62.6259 191.292 62.5218C191.084 62.6259 190.772 62.5218 190.668 62.3136ZM190.668 64.6043H191.917V73.7674H190.668V64.6043Z" fill="#007C6B"/>
<path d="M196.707 73.2468C195.978 72.8303 195.458 72.3097 195.041 71.5808C194.625 70.8519 194.416 70.0189 194.416 69.1859C194.416 68.2487 194.625 67.5199 195.041 66.791C195.458 66.0621 195.978 65.5415 196.707 65.125C197.436 64.7085 198.165 64.5002 199.102 64.5002C199.935 64.5002 200.768 64.7085 201.497 65.125C202.226 65.5415 202.746 66.0621 203.163 66.791C203.579 67.5199 203.788 68.3529 203.788 69.1859C203.788 70.123 203.579 70.8519 203.163 71.5808C202.746 72.3097 202.226 72.8303 201.497 73.2468C200.768 73.6633 200.039 73.8715 199.102 73.8715C198.165 73.8715 197.332 73.6633 196.707 73.2468ZM200.768 72.3097C201.289 71.9973 201.705 71.5808 202.017 71.0601C202.33 70.5395 202.434 69.9148 202.434 69.1859C202.434 68.457 202.33 67.8322 202.017 67.3116C201.705 66.791 201.289 66.3745 200.768 66.0621C200.247 65.7497 199.623 65.6456 198.998 65.6456C198.373 65.6456 197.748 65.7497 197.228 66.0621C196.707 66.3745 196.291 66.791 195.978 67.3116C195.666 67.8322 195.562 68.457 195.562 69.1859C195.562 69.9148 195.666 70.5395 195.978 71.0601C196.291 71.5808 196.707 71.9973 197.228 72.3097C197.748 72.622 198.373 72.7262 198.998 72.7262C199.727 72.7262 200.247 72.622 200.768 72.3097Z" fill="#007C6B"/>
<path d="M213.68 65.5415C214.304 66.1662 214.721 67.2075 214.721 68.457V73.7674H213.471V68.5611C213.471 67.624 213.263 66.8951 212.742 66.3745C212.222 65.8538 211.597 65.6456 210.66 65.6456C209.723 65.6456 208.89 65.958 208.265 66.4786C207.64 67.1034 207.432 67.8322 207.432 68.8735V73.6633H206.183V64.5002H207.328V66.1662C207.64 65.6456 208.161 65.2291 208.682 64.9167C209.306 64.6043 209.931 64.5002 210.764 64.5002C212.118 64.6043 212.951 64.9167 213.68 65.5415Z" fill="#007C6B"/>
<path d="M223.988 73.3509C223.259 72.9344 222.738 72.4138 222.322 71.6849C221.905 70.956 221.697 70.123 221.697 69.29C221.697 68.3529 221.905 67.624 222.322 66.8951C222.738 66.1662 223.259 65.6456 223.988 65.2291C224.717 64.8126 225.446 64.6043 226.383 64.6043C227.216 64.6043 228.049 64.8126 228.778 65.2291C229.507 65.6456 230.027 66.1662 230.444 66.8951C230.86 67.624 231.069 68.457 231.069 69.29C231.069 70.2271 230.86 70.956 230.444 71.6849C230.027 72.4138 229.507 72.9344 228.778 73.3509C228.049 73.7674 227.32 73.9757 226.383 73.9757C225.446 73.9757 224.613 73.7674 223.988 73.3509ZM228.049 72.4138C228.57 72.1014 228.986 71.6849 229.298 71.1643C229.611 70.6436 229.715 70.0189 229.715 69.29C229.715 68.5611 229.611 67.9364 229.298 67.4157C228.986 66.8951 228.57 66.4786 228.049 66.1662C227.528 65.8539 226.903 65.7497 226.279 65.7497C225.654 65.7497 225.029 65.8539 224.509 66.1662C223.988 66.4786 223.571 66.8951 223.259 67.4157C222.947 67.9364 222.843 68.5611 222.843 69.29C222.843 70.0189 222.947 70.6436 223.259 71.1643C223.571 71.6849 223.988 72.1014 224.509 72.4138C225.029 72.7262 225.654 72.8303 226.279 72.8303C226.903 72.8303 227.528 72.7262 228.049 72.4138Z" fill="#007C6B"/>
<path d="M235.338 62.3136C235.025 62.626 234.921 63.0425 234.921 63.5631V64.6044H237.733V65.6456H234.921V73.7674H233.672V65.6456H232.006V64.6044H233.672V63.459C233.672 62.626 233.88 62.0012 234.401 61.4806C234.921 60.9599 235.546 60.7517 236.483 60.7517C236.796 60.7517 237.212 60.7517 237.524 60.8558C237.837 60.9599 238.149 61.0641 238.357 61.2723L237.941 62.2095C237.629 61.8971 237.108 61.793 236.587 61.793C236.067 61.8971 235.65 62.1053 235.338 62.3136Z" fill="#007C6B"/>
<path d="M245.542 62.8342V67.624H251.894V68.7694H245.542V73.9757H244.292V61.793H252.623V62.9383L245.542 62.8342Z" fill="#007C6B"/>
<path d="M262.931 64.8126V73.9757H261.786V72.3097C261.473 72.8303 261.057 73.2468 260.432 73.5592C259.912 73.8716 259.183 73.9757 258.454 73.9757C257.308 73.9757 256.267 73.6633 255.642 72.9344C254.913 72.3097 254.601 71.2684 254.601 70.0189V64.7085H255.851V69.9148C255.851 70.8519 256.059 71.5808 256.579 72.1014C257.1 72.622 257.725 72.8303 258.662 72.8303C259.599 72.8303 260.432 72.5179 260.953 71.9973C261.473 71.3725 261.786 70.6437 261.786 69.6024V64.8126H262.931Z" fill="#007C6B"/>
<path d="M271.261 73.455C271.053 73.6633 270.741 73.8715 270.428 73.9757C270.116 74.0798 269.699 74.1839 269.387 74.1839C268.554 74.1839 267.825 73.9757 267.409 73.455C266.992 73.0385 266.68 72.3097 266.68 71.4766V65.958H265.014V64.9167H266.68V62.9383H267.929V64.9167H270.741V65.958H267.929V71.4766C267.929 71.9973 268.033 72.4138 268.346 72.7262C268.658 73.0385 268.97 73.1427 269.491 73.1427C269.699 73.1427 270.012 73.1427 270.22 73.0385C270.428 72.9344 270.636 72.8303 270.845 72.7262L271.261 73.455Z" fill="#007C6B"/>
<path d="M281.778 64.9167V74.0798H280.632V72.4138C280.32 72.9344 279.904 73.3509 279.279 73.6633C278.758 73.9757 278.029 74.0798 277.3 74.0798C276.155 74.0798 275.114 73.7674 274.489 73.0385C273.76 72.4138 273.448 71.3725 273.448 70.123V64.8126H274.697V70.0189C274.697 70.956 274.905 71.6849 275.426 72.2055C275.947 72.7262 276.571 72.9344 277.509 72.9344C278.446 72.9344 279.279 72.622 279.799 72.1014C280.32 71.4766 280.632 70.7478 280.632 69.7065V64.9167H281.778Z" fill="#007C6B"/>
<path d="M287.713 65.3332C288.338 65.0208 288.963 64.9167 289.9 64.9167V66.1662H289.587C288.65 66.1662 287.817 66.4786 287.297 66.9992C286.776 67.624 286.464 68.457 286.464 69.4983V74.1839H285.214V65.0208H286.359V66.791C286.672 66.0621 287.088 65.6456 287.713 65.3332Z" fill="#007C6B"/>
<path d="M299.896 69.9148H292.19C292.295 70.8519 292.607 71.6849 293.232 72.2055C293.856 72.8303 294.689 73.0385 295.731 73.1427C296.251 73.1427 296.772 73.0385 297.293 72.8303C297.813 72.622 298.23 72.3097 298.542 71.8932L299.271 72.7262C298.855 73.2468 298.334 73.5592 297.709 73.8715C297.084 74.0798 296.46 74.2881 295.731 74.2881C294.794 74.2881 293.961 74.0798 293.232 73.6633C292.503 73.2468 291.982 72.7262 291.566 71.9973C291.149 71.2684 290.941 70.4354 290.941 69.6024C290.941 68.6653 291.149 67.9364 291.566 67.2075C291.982 66.4786 292.503 65.958 293.128 65.5415C293.856 65.125 294.585 64.9167 295.418 64.9167C296.251 64.9167 296.98 65.125 297.709 65.5415C298.334 65.958 298.959 66.4786 299.271 67.2075C299.688 67.9364 299.792 68.6653 299.792 69.6024L299.896 69.9148ZM293.336 66.791C292.711 67.3116 292.399 68.0405 292.295 68.9776H298.75C298.646 68.0405 298.334 67.3116 297.709 66.791C297.084 66.2704 296.355 65.958 295.522 65.958C294.689 65.958 293.961 66.1662 293.336 66.791Z" fill="#007C6B"/>
<path d="M91.4359 32.2212H72.9015C73.2139 33.7831 74.0469 34.9285 75.2964 35.8656C76.5459 36.6986 78.1078 37.2192 79.9821 37.2192C81.2316 37.2192 82.3769 37.011 83.4182 36.6986C84.3553 36.2821 85.2925 35.7615 86.1255 34.9285L89.874 38.9894C87.5832 41.5925 84.1471 42.9462 79.7738 42.9462C76.9624 42.9462 74.5675 42.4255 72.3809 41.2801C70.2983 40.2389 68.6323 38.677 67.4869 36.8027C66.3416 34.9285 65.7168 32.7418 65.7168 30.2428C65.7168 27.8479 66.2374 25.6613 67.3828 23.787C68.5282 21.8086 70.0901 20.3508 72.0685 19.3096C74.0469 18.2683 76.3376 17.6436 78.7325 17.6436C81.1274 17.6436 83.3141 18.1642 85.2925 19.2054C87.2709 20.2467 88.7286 21.7045 89.874 23.6829C91.0194 25.6613 91.54 27.8479 91.54 30.451C91.6442 30.451 91.54 31.0758 91.4359 32.2212ZM74.8799 24.3076C73.7345 25.2447 73.1097 26.4943 72.9015 28.0561H84.9801C84.7718 26.4943 84.043 25.2447 83.0017 24.3076C81.8563 23.3705 80.6068 22.954 78.9408 22.954C77.2748 22.954 75.9211 23.4746 74.8799 24.3076Z" fill="#00A899"/>
<path d="M121.32 8.68872V42.5296H114.552V39.6141C112.782 41.6966 110.283 42.842 106.847 42.842C104.556 42.842 102.473 42.3214 100.599 41.2801C98.7248 40.2389 97.267 38.7811 96.2257 36.9068C95.1845 35.0326 94.6638 32.7418 94.6638 30.2428C94.6638 27.7438 95.1845 25.453 96.2257 23.5787C97.267 21.7045 98.7248 20.1426 100.599 19.2054C102.473 18.1642 104.556 17.6435 106.847 17.6435C109.97 17.6435 112.469 18.5807 114.24 20.5591V8.68872H121.32ZM112.574 35.1367C113.719 33.8872 114.344 32.2212 114.344 30.1387C114.344 28.0561 113.719 26.3901 112.574 25.1406C111.428 23.8911 109.866 23.2663 108.096 23.2663C106.222 23.2663 104.764 23.8911 103.619 25.1406C102.473 26.3901 101.849 28.0561 101.849 30.1387C101.849 32.2212 102.473 33.8872 103.619 35.1367C104.764 36.3862 106.326 37.011 108.096 37.011C109.97 37.011 111.428 36.3862 112.574 35.1367Z" fill="#00A899"/>
<path d="M152.662 17.9559V42.5296H145.894V39.6141C144.957 40.6554 143.811 41.4884 142.562 42.009C141.208 42.5296 139.855 42.842 138.293 42.842C135.065 42.842 132.566 41.9049 130.587 40.0306C128.713 38.1563 127.776 35.4491 127.776 31.8047V17.9559H134.857V30.7634C134.857 34.7202 136.523 36.6986 139.855 36.6986C141.521 36.6986 142.874 36.178 143.915 35.0326C144.957 33.8872 145.477 32.2212 145.477 30.0345V17.9559H152.662Z" fill="#00A899"/>
<path d="M168.905 14.8321H157.972V10.8754H184.42V14.8321H173.487V42.7379H169.01V14.8321H168.905Z" fill="#FFBD00"/>
<path d="M188.273 13.1661C187.752 12.6455 187.44 11.9166 187.44 11.1877C187.44 10.3547 187.752 9.72998 188.273 9.20935C188.794 8.68872 189.522 8.37634 190.355 8.37634C191.188 8.37634 191.917 8.68872 192.438 9.20935C192.959 9.72998 193.271 10.3547 193.271 11.1877C193.271 12.0208 192.959 12.7496 192.438 13.2703C191.917 13.7909 191.188 14.1033 190.355 14.1033C189.522 13.895 188.794 13.6868 188.273 13.1661ZM188.169 18.5807H192.542V42.7379H188.169V18.5807Z" fill="#FFBD00"/>
<path d="M221.073 21.0797C222.843 22.8499 223.78 25.453 223.78 28.8892V42.7379H219.406V29.4098C219.406 27.119 218.886 25.3489 217.74 24.0994C216.595 22.954 215.033 22.3292 212.951 22.3292C210.556 22.3292 208.682 23.0581 207.328 24.4117C205.974 25.7654 205.245 27.7438 205.245 30.3469V42.842H200.872V18.5807H205.037V22.2251C205.87 20.9756 207.12 20.0385 208.577 19.3096C210.035 18.6848 211.805 18.2683 213.68 18.2683C216.907 18.3724 219.302 19.3096 221.073 21.0797Z" fill="#FFBD00"/>
<path d="M241.377 31.4923L236.379 36.178V42.7379H232.006V8.89697H236.379V30.6593L249.603 18.5807H254.914L244.709 28.5768L255.851 42.7379H250.436L241.377 31.4923Z" fill="#FFBD00"/>
<path d="M280.841 32.117H261.265C261.578 34.1996 262.515 35.9697 264.077 37.2192C265.638 38.4687 267.617 39.1976 270.012 39.1976C272.927 39.1976 275.218 38.2605 276.988 36.2821L279.383 39.0935C278.238 40.343 276.884 41.3843 275.322 42.009C273.656 42.6338 271.886 43.0503 269.908 43.0503C267.304 43.0503 265.118 42.5296 263.139 41.4884C261.161 40.4471 259.599 38.9894 258.558 37.1151C257.517 35.2408 256.892 33.0542 256.892 30.7634C256.892 28.4726 257.413 26.286 258.454 24.4117C259.495 22.5375 260.953 21.0797 262.827 20.0384C264.701 18.9972 266.784 18.4765 269.075 18.4765C271.365 18.4765 273.448 18.9972 275.218 20.0384C276.988 21.0797 278.446 22.5375 279.487 24.4117C280.528 26.286 281.049 28.4726 281.049 30.8675C280.945 31.1799 280.841 31.5964 280.841 32.117ZM263.66 23.9952C262.202 25.2447 261.369 26.9107 261.161 28.9933H276.676C276.468 26.9107 275.635 25.2447 274.177 23.9952C272.719 22.7457 271.053 22.0168 268.866 22.0168C266.888 22.0168 265.118 22.7457 263.66 23.9952Z" fill="#FFBD00"/>
<path d="M294.585 19.4137C296.043 18.6848 297.917 18.2683 300 18.2683V22.5375C299.792 22.5375 299.375 22.5375 298.959 22.5375C296.564 22.5375 294.689 23.2664 293.336 24.62C291.982 25.9736 291.357 28.0561 291.357 30.6593V42.7379H286.984V18.5807H291.149V22.6416C291.878 21.288 293.023 20.1426 294.585 19.4137Z" fill="#FFBD00"/>
</svg>