<svg width="300" height="84" viewBox="0 0 300 84" fill="none" xmlns="http://www.w3.org/2000/svg">
<path d="M8.72648 68.9582C9.62318 69.7237 10.0825 70.7516 10.0825 72.0857C10.0825 73.4199 9.62318 74.4478 8.70461 75.1914C7.78604 75.935 6.53941 76.3068 4.96473 76.3068H1.94657L1.9247 80.0029H0.175049L0.240661 67.7991L5.00847 67.821C6.58316 67.821 7.80791 68.2146 8.72648 68.9582ZM7.45798 74.1197C8.04849 73.6604 8.33281 72.9824 8.33281 72.0857C8.33281 71.2109 8.04849 70.5329 7.45798 70.0518C6.86747 69.5706 6.03639 69.3519 4.94285 69.33H1.96844L1.94657 74.7977H4.92098C6.01452 74.8196 6.86747 74.579 7.45798 74.1197Z" fill="#3C858E"/>
<path d="M13.8222 79.5436C13.1005 79.1281 12.51 78.5813 12.1163 77.8596C11.7007 77.1379 11.5039 76.3286 11.5039 75.432C11.5039 74.5353 11.7226 73.726 12.1382 73.0043C12.5537 72.2826 13.1223 71.7358 13.8659 71.3421C14.6095 70.9485 15.4188 70.7516 16.3373 70.7516C17.2559 70.7516 18.087 70.9485 18.8087 71.364C19.5304 71.7577 20.0991 72.3263 20.5146 73.0481C20.9302 73.7698 21.127 74.579 21.127 75.4757C21.127 76.3724 20.9083 77.1816 20.4928 77.9033C20.0772 78.6251 19.5086 79.1718 18.7868 79.5874C18.0651 79.981 17.234 80.1998 16.3155 80.1998C15.375 80.1779 14.5439 79.9592 13.8222 79.5436ZM17.8901 78.297C18.3713 78.0346 18.7212 77.6409 19.0056 77.1597C19.268 76.6567 19.3992 76.1099 19.4211 75.4538C19.4211 74.8196 19.2899 74.2509 19.0274 73.7479C18.765 73.2449 18.3932 72.8731 17.9339 72.6106C17.4746 72.3482 16.9278 72.217 16.3373 72.1951C15.7468 72.1732 15.2219 72.3263 14.7408 72.5888C14.2596 72.8512 13.8878 73.2449 13.6254 73.726C13.341 74.2291 13.2098 74.7758 13.2098 75.432C13.2098 76.0662 13.341 76.6348 13.6035 77.1379C13.8659 77.6409 14.2377 78.0127 14.7189 78.297C15.1782 78.5813 15.7249 78.7126 16.3155 78.7126C16.906 78.7126 17.409 78.5813 17.8901 78.297Z" fill="#3C858E"/>
<path d="M37.1584 70.9047L33.6809 80.1342H32.0844L29.438 73.1137L26.7042 80.1123H25.1076L21.6958 70.861H23.2924L25.9606 78.2314L28.7819 70.8829H30.2035L32.9155 78.2751L35.693 70.8829L37.1584 70.9047Z" fill="#3C858E"/>
<path d="M46.8908 76.1099L39.3891 76.0881C39.4985 76.8973 39.8484 77.5534 40.4608 78.0564C41.0732 78.5595 41.8168 78.8 42.7353 78.8C43.8289 78.8 44.7256 78.4282 45.4036 77.6846L46.3221 78.7782C45.9066 79.2593 45.3817 79.6311 44.7474 79.8936C44.1351 80.156 43.4352 80.2654 42.6697 80.2654C41.6855 80.2654 40.8326 80.0685 40.0671 79.653C39.3235 79.2593 38.733 78.6907 38.3175 77.9689C37.9019 77.2472 37.7051 76.438 37.7051 75.5194C37.7051 74.6227 37.9019 73.8135 38.3175 73.0918C38.7111 72.3701 39.2798 71.8233 39.9796 71.4077C40.6795 71.0141 41.4887 70.8172 42.3635 70.8172C43.2384 70.8172 44.0257 71.0141 44.7256 71.4296C45.4254 71.8233 45.9503 72.3919 46.344 73.1137C46.7377 73.8354 46.9126 74.6665 46.9126 75.585C46.9126 75.7381 46.9126 75.8912 46.8908 76.1099ZM40.3514 72.9606C39.8047 73.4417 39.4985 74.076 39.3891 74.8852L45.3161 74.907C45.2286 74.1197 44.9005 73.4855 44.3756 73.0043C43.8289 72.5013 43.1728 72.2607 42.3635 72.2607C41.5543 72.2388 40.8982 72.4794 40.3514 72.9606Z" fill="#3C858E"/>
<path d="M52.1398 71.2765C52.7085 70.9922 53.4083 70.861 54.2175 70.861V72.4794C54.1301 72.4576 53.9988 72.4575 53.8239 72.4575C52.9272 72.4575 52.2054 72.72 51.6805 73.2668C51.1556 73.8135 50.8932 74.579 50.8932 75.5851L50.8713 80.1779H49.1873L49.2091 70.9266H50.8057V72.4794C51.1556 71.9545 51.5712 71.5609 52.1398 71.2765Z" fill="#3C858E"/>
<path d="M56.3171 68.8708C56.0984 68.652 55.989 68.4115 55.989 68.1053C55.989 67.7991 56.0984 67.5366 56.3171 67.3398C56.5358 67.1211 56.7982 67.0117 57.1263 67.0117C57.4543 67.0117 57.7168 67.1211 57.9355 67.3179C58.1542 67.5148 58.2636 67.7772 58.2636 68.0834C58.2636 68.3896 58.1542 68.652 57.9355 68.8708C57.7168 69.0895 57.4543 69.1988 57.1263 69.1988C56.7982 69.1769 56.5358 69.0676 56.3171 68.8708ZM56.2733 70.9485H57.9574L57.9355 80.1998H56.2515L56.2733 70.9485Z" fill="#3C858E"/>
<path d="M68.8708 71.9326C69.5706 72.6106 69.8987 73.6167 69.8987 74.9289L69.8768 80.2435H68.1928L68.2147 75.1258C68.2147 74.2291 67.996 73.5511 67.5804 73.0918C67.143 72.6325 66.5306 72.4138 65.7433 72.4138C64.8466 72.4138 64.1248 72.6763 63.5999 73.2011C63.075 73.726 62.8126 74.4915 62.8126 75.4757L62.7907 80.2435H61.1067L61.1286 70.9922H62.7251V72.3919C63.0532 71.9108 63.5125 71.5608 64.103 71.2984C64.6716 71.036 65.3277 70.9266 66.0713 70.9266C67.2524 70.9047 68.1928 71.2547 68.8708 71.9326Z" fill="#3C858E"/>
<path d="M81.9058 71.0359L81.8839 79.0187C81.8839 80.6372 81.4684 81.8182 80.6592 82.6055C79.8499 83.371 78.6471 83.7647 77.0724 83.7428C76.1975 83.7428 75.3665 83.6116 74.5791 83.371C73.7918 83.1304 73.1575 82.7805 72.6545 82.3431L73.4637 81.0527C73.9011 81.4245 74.426 81.7307 75.0603 81.9494C75.6945 82.1681 76.3506 82.2775 77.0286 82.2775C78.1003 82.2775 78.9095 82.0369 79.4344 81.512C79.9593 81.009 80.2217 80.2216 80.2217 79.1718V78.4501C79.8281 78.9313 79.3469 79.2812 78.7564 79.5218C78.1878 79.7624 77.5535 79.8717 76.8755 79.8717C76.0007 79.8717 75.1915 79.6749 74.4698 79.3031C73.748 78.9313 73.2013 78.3845 72.7857 77.7065C72.3702 77.0285 72.1733 76.2412 72.1733 75.3663C72.1733 74.4915 72.392 73.726 72.7857 73.0481C73.2013 72.3701 73.748 71.8452 74.4698 71.4734C75.1915 71.1016 75.9788 70.9266 76.8755 70.9266C77.5754 70.9266 78.2096 71.0578 78.822 71.3203C79.4125 71.5827 79.9156 71.9545 80.2874 72.4575V71.0359H81.9058ZM78.7127 78.0346C79.1938 77.7721 79.5656 77.4222 79.8499 76.9629C80.1343 76.5036 80.2655 75.9787 80.2655 75.4101C80.2655 74.5134 79.9812 73.7917 79.3907 73.2449C78.8002 72.6981 78.0347 72.4138 77.1161 72.4138C76.1757 72.4138 75.4102 72.6762 74.8197 73.2449C74.2292 73.7917 73.923 74.5134 73.923 75.4101C73.923 76.0006 74.0542 76.5036 74.3167 76.9629C74.5791 77.4222 74.9728 77.7721 75.4539 78.0346C75.9351 78.297 76.4819 78.4282 77.0942 78.4282C77.6848 78.4282 78.2315 78.297 78.7127 78.0346Z" fill="#3C858E"/>
<path d="M94.9625 79.7842C94.722 80.0029 94.4158 80.156 94.044 80.2654C93.694 80.3747 93.3004 80.4185 92.9286 80.4185C91.9881 80.4185 91.2883 80.156 90.7634 79.653C90.2603 79.15 89.9979 78.4282 89.9979 77.5097L90.0198 72.4357H88.4451V71.0578H90.0198V69.0457H91.7038V71.0578H94.3501V72.4357H91.7038L91.6819 77.4441C91.6819 77.9471 91.8132 78.3189 92.0537 78.6032C92.2943 78.8656 92.6661 78.9969 93.1254 78.9969C93.6284 78.9969 94.0658 78.8657 94.4376 78.5595L94.9625 79.7842Z" fill="#3C858E"/>
<path d="M104.739 72.042C105.439 72.72 105.767 73.726 105.767 75.0383L105.745 80.3529H104.061L104.083 75.2351C104.083 74.3384 103.864 73.6604 103.448 73.2012C103.011 72.7419 102.399 72.5232 101.611 72.5232C100.714 72.5232 99.9928 72.7856 99.4679 73.3105C98.943 73.8354 98.6805 74.6009 98.6805 75.5851L98.6587 80.3529H96.9746L97.0184 67.4054H98.7024L98.6805 72.4138C99.0305 71.9764 99.4897 71.6265 100.058 71.3859C100.627 71.1453 101.261 71.0141 101.961 71.036C103.12 71.036 104.061 71.364 104.739 72.042Z" fill="#3C858E"/>
<path d="M117.227 76.3505L109.725 76.3286C109.835 77.1379 110.185 77.794 110.797 78.297C111.409 78.8 112.153 79.0406 113.071 79.0406C114.165 79.0406 115.062 78.6688 115.74 77.9252L116.658 79.0187C116.243 79.4999 115.718 79.8717 115.084 80.1341C114.471 80.3966 113.771 80.506 113.006 80.506C112.022 80.506 111.169 80.3091 110.403 79.8936C109.66 79.4999 109.069 78.9313 108.654 78.2095C108.238 77.4878 108.041 76.6786 108.041 75.76C108.041 74.8633 108.238 74.0541 108.654 73.3324C109.047 72.6106 109.616 72.0639 110.316 71.6483C111.016 71.2547 111.825 71.0578 112.7 71.0578C113.575 71.0578 114.362 71.2547 115.062 71.6702C115.762 72.0639 116.286 72.6325 116.68 73.3542C117.074 74.076 117.249 74.9071 117.249 75.8256C117.271 75.9569 117.271 76.1318 117.227 76.3505ZM110.709 73.2011C110.163 73.6823 109.857 74.3165 109.747 75.1258L115.674 75.1476C115.587 74.3603 115.259 73.726 114.734 73.2449C114.187 72.7419 113.531 72.5013 112.722 72.5013C111.912 72.4794 111.234 72.72 110.709 73.2011Z" fill="#3C858E"/>
<path d="M133.367 78.9313V80.4403L124.51 80.4185L124.554 68.2146L133.171 68.2365V69.7456L126.303 69.7237L126.281 73.4636L132.405 73.4855V74.9727L126.281 74.9508L126.259 78.8875L133.367 78.9313Z" fill="#3C858E"/>
<path d="M144.587 67.5585L144.543 80.5059H142.947V79.0406C142.575 79.5436 142.094 79.9373 141.525 80.1998C140.957 80.4622 140.322 80.5934 139.644 80.5934C138.748 80.5934 137.938 80.3966 137.239 80.0029C136.539 79.6092 135.97 79.0406 135.576 78.3407C135.183 77.619 134.986 76.8098 134.986 75.8694C134.986 74.9289 135.183 74.1197 135.598 73.4198C135.992 72.72 136.561 72.1513 137.26 71.7795C137.96 71.3859 138.769 71.189 139.666 71.189C140.322 71.189 140.935 71.3203 141.503 71.5608C142.05 71.8233 142.531 72.1732 142.903 72.6762L142.925 67.5804L144.587 67.5585ZM141.372 78.7125C141.853 78.4501 142.225 78.0564 142.487 77.5753C142.75 77.0722 142.881 76.5255 142.903 75.8694C142.903 75.2351 142.772 74.6665 142.509 74.1634C142.247 73.6604 141.875 73.2886 141.394 73.0262C140.913 72.7637 140.388 72.6325 139.819 72.6106C139.229 72.6106 138.704 72.7418 138.223 73.0043C137.742 73.2667 137.37 73.6604 137.107 74.1416C136.823 74.6446 136.692 75.1914 136.692 75.8475C136.692 76.4817 136.823 77.0504 137.085 77.5534C137.348 78.0564 137.72 78.4282 138.201 78.7125C138.66 78.9969 139.207 79.1281 139.797 79.1281C140.366 79.1281 140.891 78.975 141.372 78.7125Z" fill="#3C858E"/>
<path d="M156.354 71.2984L156.332 80.5497H154.735V79.15C154.407 79.6311 153.948 80.0029 153.401 80.2435C152.854 80.5059 152.242 80.6372 151.586 80.6372C150.361 80.6372 149.377 80.2872 148.677 79.6092C147.977 78.9313 147.627 77.9252 147.627 76.5911L147.649 71.2765H149.333L149.311 76.3943C149.311 77.291 149.53 77.9689 149.945 78.4282C150.383 78.8875 150.995 79.1281 151.783 79.1281C152.657 79.1281 153.357 78.8656 153.882 78.3407C154.385 77.8159 154.648 77.0504 154.648 76.0662L154.67 71.2984H156.354Z" fill="#3C858E"/>
<path d="M161.034 80.0467C160.29 79.6311 159.722 79.0844 159.306 78.3626C158.89 77.6409 158.694 76.8317 158.694 75.935C158.694 75.0383 158.912 74.2291 159.328 73.5073C159.743 72.7856 160.334 72.2388 161.077 71.8452C161.821 71.4515 162.652 71.2547 163.593 71.2547C164.424 71.2547 165.167 71.4296 165.823 71.7577C166.48 72.1076 166.983 72.5888 167.354 73.223L166.086 74.0322C165.802 73.5948 165.43 73.2668 165.014 73.0262C164.577 72.8075 164.117 72.6981 163.593 72.6981C162.98 72.6981 162.433 72.8293 161.952 73.0918C161.471 73.3542 161.099 73.7479 160.815 74.2291C160.531 74.7321 160.4 75.2789 160.4 75.935C160.4 76.5911 160.531 77.1597 160.793 77.6628C161.056 78.1658 161.449 78.5376 161.93 78.8C162.412 79.0625 162.958 79.1937 163.549 79.2156C164.074 79.2156 164.555 79.1062 164.97 78.8875C165.408 78.6688 165.758 78.3408 166.064 77.9033L167.332 78.7126C166.961 79.3468 166.458 79.8498 165.802 80.1779C165.145 80.5278 164.402 80.6809 163.549 80.6809C162.608 80.659 161.777 80.4622 161.034 80.0467Z" fill="#3C858E"/>
<path d="M175.818 72.217C176.496 72.8512 176.824 73.7917 176.824 75.0383L176.802 80.6153H175.206V79.3905C174.921 79.828 174.528 80.156 174.003 80.3747C173.478 80.5934 172.866 80.7028 172.166 80.7028C171.138 80.7028 170.307 80.4403 169.694 79.9373C169.082 79.4343 168.776 78.7782 168.776 77.969C168.776 77.1597 169.082 76.5036 169.673 76.0006C170.263 75.5194 171.204 75.257 172.494 75.2789H175.14V74.9508C175.14 74.2291 174.943 73.6823 174.528 73.2886C174.112 72.895 173.5 72.72 172.691 72.6981C172.144 72.6981 171.619 72.7856 171.094 72.9606C170.569 73.1355 170.132 73.3761 169.76 73.6823L169.06 72.4138C169.541 72.042 170.11 71.7358 170.766 71.539C171.422 71.3421 172.122 71.2328 172.888 71.2328C174.156 71.2547 175.14 71.5827 175.818 72.217ZM174.112 78.975C174.572 78.6907 174.921 78.297 175.118 77.7721V76.4818H172.538C171.116 76.4818 170.416 76.941 170.416 77.9033C170.416 78.3626 170.591 78.7344 170.963 78.9969C171.313 79.2593 171.816 79.3905 172.472 79.4124C173.106 79.4124 173.653 79.2593 174.112 78.975Z" fill="#3C858E"/>
<path d="M185.092 80.0904C184.851 80.3091 184.545 80.4622 184.173 80.5715C183.823 80.6809 183.43 80.7246 183.058 80.7246C182.117 80.7246 181.417 80.4622 180.893 79.9592C180.389 79.4561 180.127 78.7344 180.127 77.8158L180.149 72.7419H178.574V71.364H180.149V69.3519H181.833V71.364H184.479V72.7419H181.833L181.811 77.7502C181.811 78.2533 181.942 78.6251 182.183 78.9094C182.423 79.1718 182.795 79.3031 183.255 79.3031C183.758 79.3031 184.195 79.1718 184.567 78.8656L185.092 80.0904Z" fill="#3C858E"/>
<path d="M187.191 69.3082C186.972 69.0895 186.863 68.8489 186.863 68.5427C186.863 68.2365 186.972 67.9741 187.191 67.7772C187.41 67.5585 187.672 67.4492 188 67.4492C188.328 67.4492 188.591 67.5585 188.809 67.7553C189.028 67.9522 189.138 68.2146 189.138 68.5208C189.138 68.827 189.028 69.0895 188.809 69.3082C188.591 69.5269 188.328 69.6362 188 69.6362C187.672 69.6144 187.41 69.505 187.191 69.3082ZM187.147 71.3859H188.831L188.809 80.6372H187.125L187.147 71.3859Z" fill="#3C858E"/>
<path d="M193.468 80.156C192.746 79.7405 192.156 79.1937 191.762 78.472C191.346 77.7503 191.15 76.941 191.15 76.0443C191.15 75.1476 191.368 74.3384 191.784 73.6167C192.199 72.895 192.768 72.3482 193.512 71.9545C194.255 71.5609 195.065 71.364 195.983 71.364C196.902 71.364 197.733 71.5609 198.455 71.9764C199.176 72.3701 199.745 72.9387 200.16 73.6604C200.576 74.3822 200.773 75.1914 200.773 76.0881C200.773 76.9848 200.554 77.794 200.139 78.5157C199.723 79.2375 199.154 79.7842 198.433 80.1998C197.711 80.5934 196.88 80.8121 195.961 80.8121C195.021 80.7684 194.212 80.5716 193.468 80.156ZM197.536 78.9094C198.017 78.6469 198.367 78.2533 198.651 77.7721C198.914 77.2691 199.045 76.7223 199.067 76.0662C199.067 75.432 198.936 74.8633 198.673 74.3603C198.411 73.8573 198.039 73.4855 197.58 73.223C197.12 72.9606 196.574 72.8294 195.983 72.8075C195.393 72.8075 194.868 72.9387 194.387 73.2012C193.905 73.4636 193.534 73.8573 193.271 74.3384C192.987 74.8415 192.856 75.3882 192.856 76.0443C192.856 76.6786 192.987 77.2472 193.249 77.7503C193.512 78.2533 193.884 78.6251 194.365 78.9094C194.824 79.1937 195.371 79.3249 195.961 79.3249C196.552 79.3031 197.077 79.1718 197.536 78.9094Z" fill="#3C858E"/>
<path d="M210.811 72.4138C211.511 73.0918 211.839 74.0979 211.839 75.4101L211.818 80.7247H210.133L210.155 75.6069C210.155 74.7102 209.937 74.0322 209.521 73.573C209.084 73.1137 208.471 72.895 207.684 72.895C206.787 72.895 206.066 73.1574 205.541 73.6823C205.016 74.2072 204.753 74.9727 204.753 75.9569L204.731 80.7247H203.047L203.069 71.4734H204.666V72.8731C204.994 72.3919 205.453 72.042 206.044 71.7796C206.612 71.5171 207.268 71.4078 208.012 71.4078C209.193 71.3859 210.133 71.714 210.811 72.4138Z" fill="#3C858E"/>
<path d="M221.112 80.2435C220.391 79.828 219.8 79.2812 219.407 78.5595C218.991 77.8377 218.794 77.0285 218.794 76.1318C218.794 75.2351 219.013 74.4259 219.428 73.7042C219.844 72.9824 220.413 72.4357 221.156 72.042C221.9 71.6483 222.709 71.4515 223.628 71.4515C224.546 71.4515 225.377 71.6483 226.099 72.0639C226.821 72.4575 227.389 73.0262 227.805 73.7479C228.22 74.4696 228.417 75.2789 228.417 76.1756C228.417 77.0723 228.199 77.8815 227.783 78.6032C227.368 79.3249 226.799 79.8717 226.077 80.2872C225.355 80.6809 224.524 80.8996 223.606 80.8996C222.665 80.8559 221.834 80.659 221.112 80.2435ZM225.18 78.9969C225.662 78.7344 226.012 78.3408 226.296 77.8596C226.558 77.3566 226.69 76.8098 226.711 76.1537C226.711 75.5194 226.58 74.9508 226.318 74.4478C226.055 73.9447 225.683 73.5729 225.224 73.3105C224.765 73.0481 224.218 72.9168 223.628 72.895C223.037 72.895 222.512 73.0262 222.031 73.2886C221.55 73.5511 221.178 73.9447 220.916 74.4259C220.631 74.9289 220.5 75.4757 220.5 76.1318C220.5 76.7661 220.631 77.3347 220.894 77.8377C221.156 78.3408 221.528 78.7126 222.009 78.9969C222.49 79.2812 223.015 79.4124 223.606 79.4124C224.174 79.3905 224.699 79.2593 225.18 78.9969Z" fill="#3C858E"/>
<path d="M232.617 70.7516V71.5609H235.307V72.9387H232.66L232.638 80.8121H230.954L230.976 72.9387H229.402V71.5609H230.976V70.7516C230.976 69.8331 231.239 69.1113 231.786 68.5646C232.332 68.0397 233.076 67.7772 234.038 67.7772C234.41 67.7772 234.76 67.821 235.088 67.9303C235.416 68.0178 235.7 68.149 235.919 68.324L235.416 69.5925C235.044 69.3082 234.607 69.1551 234.126 69.1551C233.12 69.1332 232.617 69.6581 232.617 70.7516Z" fill="#3C858E"/>
<path d="M243.552 70.1392L243.53 74.404L249.654 74.4259V75.935L243.53 75.9131L243.508 80.8559H241.759L241.802 68.652L250.419 68.6739V70.183L243.552 70.1392Z" fill="#3C858E"/>
<path d="M260.961 71.6483L260.939 80.8996H259.343V79.4999C259.015 79.9811 258.555 80.3529 258.008 80.5934C257.462 80.8559 256.849 80.9871 256.193 80.9871C254.968 80.9871 253.984 80.6372 253.284 79.9592C252.585 79.2812 252.235 78.2751 252.235 76.941L252.256 71.6265H253.941L253.919 76.7442C253.919 77.6409 254.137 78.3189 254.553 78.7782C254.99 79.2375 255.603 79.478 256.39 79.478C257.265 79.478 257.965 79.2156 258.49 78.6907C258.993 78.1658 259.255 77.4003 259.255 76.4161L259.277 71.6483H260.961Z" fill="#3C858E"/>
<path d="M269.315 80.3747C269.075 80.5934 268.769 80.7465 268.397 80.8559C268.025 80.9652 267.653 81.009 267.281 81.009C266.341 81.009 265.641 80.7465 265.116 80.2435C264.613 79.7405 264.351 79.0188 264.351 78.1002L264.373 73.0262H262.798V71.6483H264.373V69.6362H266.057V71.6483H268.703V73.0262H266.057L266.035 78.0346C266.035 78.5376 266.166 78.9094 266.407 79.1937C266.647 79.4562 267.019 79.5874 267.478 79.5874C267.981 79.5874 268.419 79.4562 268.79 79.15L269.315 80.3747Z" fill="#3C858E"/>
<path d="M279.988 71.7139L279.966 80.9652H278.37V79.5655C278.042 80.0467 277.583 80.4185 277.036 80.659C276.489 80.9215 275.877 81.0527 275.221 81.0527C273.996 81.0527 273.012 80.7028 272.312 80.0248C271.612 79.3468 271.262 78.3408 271.262 77.0066L271.284 71.6921H272.968L272.946 76.8098C272.946 77.7065 273.165 78.3845 273.58 78.8438C274.018 79.3031 274.63 79.5436 275.417 79.5436C276.292 79.5436 276.992 79.2812 277.517 78.7563C278.02 78.2314 278.282 77.4659 278.282 76.4818L278.304 71.7139H279.988Z" fill="#3C858E"/>
<path d="M286.069 72.0639C286.637 71.7796 287.337 71.6483 288.146 71.6483V73.2668C288.059 73.2449 287.927 73.2449 287.753 73.2449C286.856 73.2449 286.134 73.5073 285.609 74.0541C285.084 74.6009 284.822 75.3663 284.822 76.3724L284.8 80.9652H283.116L283.138 71.7139H284.734V73.2668C285.062 72.7419 285.5 72.3263 286.069 72.0639Z" fill="#3C858E"/>
<path d="M298.404 76.941L290.902 76.9192C291.011 77.7284 291.361 78.3845 291.974 78.8875C292.586 79.3906 293.33 79.6311 294.248 79.6311C295.342 79.6311 296.239 79.2593 296.917 78.5157L297.835 79.6093C297.42 80.0904 296.895 80.4622 296.26 80.7247C295.648 80.9871 294.948 81.0965 294.183 81.0965C293.198 81.0965 292.346 80.8996 291.58 80.4841C290.836 80.0904 290.246 79.5218 289.83 78.8C289.415 78.0783 289.218 77.2691 289.218 76.3505C289.218 75.4538 289.415 74.6446 289.83 73.9229C290.224 73.2011 290.793 72.6544 291.493 72.2388C292.192 71.8452 293.002 71.6483 293.876 71.6483C294.751 71.6483 295.539 71.8452 296.239 72.2607C296.938 72.6544 297.463 73.223 297.857 73.9448C298.251 74.6665 298.426 75.4976 298.426 76.4161C298.448 76.5692 298.426 76.7442 298.404 76.941ZM291.864 73.7917C291.318 74.2728 291.011 74.9071 290.902 75.7163L296.829 75.7381C296.742 74.9508 296.414 74.3166 295.889 73.8354C295.342 73.3324 294.686 73.0918 293.876 73.0918C293.089 73.0699 292.411 73.3105 291.864 73.7917Z" fill="#3C858E"/>
<path d="M36.699 15.7469H43.457V48.3342H0V16.6217H6.75804V40.2639H18.0652V19.2899H24.7139V40.2639H36.699V15.7469Z" fill="#FFB600"/>
<path d="M21.8268 14.3909C25.8007 14.3909 29.0222 11.1694 29.0222 7.19545C29.0222 3.22151 25.8007 0 21.8268 0C17.8529 0 14.6313 3.22151 14.6313 7.19545C14.6313 11.1694 17.8529 14.3909 21.8268 14.3909Z" fill="#3C858E"/>
<path d="M9.29492 19.1368V22.7018H17.8901V40.3076H24.8668V22.7018H34.4462V19.1368H9.29492Z" fill="#3C858E"/>
<path d="M80.0905 37.5082H60.5162C60.8662 39.1048 61.6972 40.3733 63.0095 41.3137C64.3217 42.2541 65.962 42.7134 67.9085 42.7134C69.2645 42.7134 70.4455 42.5166 71.4953 42.101C72.5451 41.7074 73.5074 41.0731 74.4041 40.1983L78.4064 44.5287C75.9788 47.3281 72.4139 48.706 67.7336 48.706C64.8248 48.706 62.2221 48.1374 59.9913 47.0001C57.7386 45.8628 56.0109 44.2881 54.7861 42.2541C53.5614 40.242 52.949 37.9456 52.949 35.3649C52.949 32.8279 53.5614 30.5533 54.7424 28.5194C55.9453 26.4854 57.6074 24.8888 59.707 23.7516C61.8066 22.6143 64.1468 22.0456 66.7494 22.0456C69.2864 22.0456 71.5828 22.5924 73.6386 23.6859C75.6945 24.7795 77.3129 26.3323 78.472 28.3881C79.6531 30.4221 80.2217 32.7841 80.2217 35.4961C80.2217 35.5836 80.178 36.2616 80.0905 37.5082ZM62.5283 29.1755C61.3692 30.1378 60.6693 31.45 60.4069 33.1122H73.1575C72.895 31.4719 72.1952 30.1597 71.036 29.1973C69.8769 28.2132 68.4771 27.732 66.7931 27.732C65.1091 27.732 63.6875 28.2132 62.5283 29.1755Z" fill="#3C858E"/>
<path d="M111.606 12.6412V48.3342H104.433V45.3598C102.574 47.6124 99.8834 48.7278 96.3404 48.7278C93.9127 48.7278 91.7038 48.1811 89.7354 47.0875C87.7671 45.994 86.2142 44.4412 85.0988 42.4291C83.9834 40.417 83.4148 38.0768 83.4148 35.4086C83.4148 32.7404 83.9834 30.4002 85.0988 28.3881C86.2142 26.376 87.7671 24.8013 89.7354 23.7297C91.7038 22.6361 93.9127 22.0894 96.3404 22.0894C99.6428 22.0894 102.224 23.1392 104.083 25.2169V12.6412H111.606ZM102.355 40.6138C103.601 39.3235 104.236 37.5738 104.236 35.3867C104.236 33.1997 103.601 31.4719 102.355 30.1596C101.108 28.8693 99.5335 28.2132 97.6307 28.2132C95.7061 28.2132 94.1096 28.8693 92.8629 30.1596C91.6163 31.45 90.982 33.1997 90.982 35.3867C90.982 37.5738 91.6163 39.3016 92.8629 40.6138C94.1096 41.9042 95.7061 42.5603 97.6307 42.5603C99.5335 42.5603 101.108 41.9042 102.355 40.6138Z" fill="#3C858E"/>
<path d="M144.609 22.4393V48.3342H137.479V45.2504C136.495 46.3658 135.292 47.2406 133.914 47.8311C132.536 48.4216 131.049 48.7278 129.431 48.7278C126.041 48.7278 123.329 47.7437 121.339 45.7972C119.348 43.8507 118.364 40.9419 118.364 37.0926V22.4612H125.866V35.9772C125.866 40.1545 127.616 42.2323 131.115 42.2323C132.908 42.2323 134.352 41.6417 135.445 40.4826C136.539 39.3016 137.086 37.5738 137.086 35.2555V22.4612H144.609V22.4393Z" fill="#3C858E"/>
<path d="M161.799 19.1368H150.251V14.9595H178.115V19.1368H166.567V48.6404H161.799V19.1368Z" fill="#FFB600"/>
<path d="M182.139 17.3653C181.548 16.7967 181.242 16.0749 181.242 15.2439C181.242 14.4128 181.548 13.691 182.139 13.1005C182.729 12.51 183.473 12.2038 184.37 12.2038C185.266 12.2038 186.01 12.4882 186.6 13.0349C187.191 13.6036 187.497 14.3034 187.497 15.1345C187.497 16.0093 187.191 16.7311 186.6 17.3216C186.01 17.9121 185.266 18.2183 184.37 18.2183C183.473 18.2183 182.729 17.934 182.139 17.3653ZM182.073 23.1392H186.688V48.6404H182.073V23.1392Z" fill="#FFB600"/>
<path d="M216.826 25.698C218.729 27.5789 219.691 30.3346 219.691 33.9433V48.6185H215.076V34.4682C215.076 31.9968 214.486 30.1378 213.305 28.8912C212.124 27.6445 210.418 27.0103 208.209 27.0103C205.716 27.0103 203.725 27.732 202.282 29.1973C200.838 30.6627 200.117 32.7404 200.117 35.4742V48.6185H195.502V23.1392H199.92V26.9884C200.86 25.6762 202.107 24.6701 203.703 23.9484C205.3 23.2485 207.093 22.8986 209.127 22.8986C212.342 22.8986 214.923 23.839 216.826 25.698Z" fill="#FFB600"/>
<path d="M238.172 36.7427L232.879 41.6418V48.6185H228.264V12.9256H232.879V35.8242L246.789 23.1173H252.366L241.627 33.659L253.415 48.6185H247.729L238.172 36.7427Z" fill="#FFB600"/>
<path d="M279.791 37.4207H259.102C259.386 39.6734 260.37 41.4668 262.054 42.8446C263.738 44.2006 265.838 44.8786 268.331 44.8786C271.371 44.8786 273.843 43.8507 275.702 41.7948L278.261 44.7693C277.101 46.1252 275.68 47.1532 273.952 47.853C272.246 48.5529 270.321 48.9028 268.2 48.9028C265.51 48.9028 263.126 48.356 261.026 47.2406C258.949 46.1252 257.33 44.5943 256.193 42.6041C255.056 40.6138 254.487 38.3612 254.487 35.8679C254.487 33.3965 255.034 31.1657 256.149 29.1755C257.265 27.1852 258.774 25.6324 260.72 24.5389C262.667 23.4235 264.854 22.8767 267.281 22.8767C269.709 22.8767 271.896 23.4235 273.799 24.5389C275.702 25.6543 277.189 27.1852 278.282 29.1755C279.354 31.1657 279.901 33.4403 279.901 35.9991C279.879 36.3709 279.857 36.8521 279.791 37.4207ZM261.726 28.8037C260.239 30.1597 259.364 31.9093 259.102 34.0964H275.461C275.199 31.953 274.324 30.1815 272.837 28.8255C271.349 27.4696 269.49 26.7916 267.281 26.7916C265.072 26.7916 263.213 27.4696 261.726 28.8037Z" fill="#FFB600"/>
<path d="M294.27 24.0359C295.845 23.2704 297.747 22.8767 300 22.8767V27.3602C299.738 27.3383 299.388 27.3165 298.95 27.3165C296.457 27.3165 294.489 28.0601 293.067 29.5473C291.645 31.0345 290.924 33.1559 290.924 35.9335V48.6404H286.287V23.1392H290.705V27.4258C291.514 25.9386 292.695 24.8232 294.27 24.0359Z" fill="#FFB600"/>
</svg>
