<svg width="55" height="23" viewBox="0 0 55 23" fill="none" xmlns="http://www.w3.org/2000/svg">
<rect width="55" height="23" rx="4" fill="#B2DFDB"/>
<path d="M11.1812 14.185V15H7.11617V7.835H8.08117V14.185H11.1812ZM14.3166 9.855C14.6866 9.855 15.0199 9.91667 15.3166 10.04C15.6132 10.1633 15.8666 10.3383 16.0766 10.565C16.2866 10.7917 16.4466 11.0667 16.5566 11.39C16.6699 11.71 16.7266 12.0683 16.7266 12.465C16.7266 12.865 16.6699 13.225 16.5566 13.545C16.4466 13.865 16.2866 14.1383 16.0766 14.365C15.8666 14.5917 15.6132 14.7667 15.3166 14.89C15.0199 15.01 14.6866 15.07 14.3166 15.07C13.9432 15.07 13.6066 15.01 13.3066 14.89C13.0099 14.7667 12.7566 14.5917 12.5466 14.365C12.3366 14.1383 12.1749 13.865 12.0616 13.545C11.9516 13.225 11.8966 12.865 11.8966 12.465C11.8966 12.0683 11.9516 11.71 12.0616 11.39C12.1749 11.0667 12.3366 10.7917 12.5466 10.565C12.7566 10.3383 13.0099 10.1633 13.3066 10.04C13.6066 9.91667 13.9432 9.855 14.3166 9.855ZM14.3166 14.375C14.8166 14.375 15.1899 14.2083 15.4366 13.875C15.6832 13.5383 15.8066 13.07 15.8066 12.47C15.8066 11.8667 15.6832 11.3967 15.4366 11.06C15.1899 10.7233 14.8166 10.555 14.3166 10.555C14.0632 10.555 13.8416 10.5983 13.6516 10.685C13.4649 10.7717 13.3082 10.8967 13.1816 11.06C13.0582 11.2233 12.9649 11.425 12.9016 11.665C12.8416 11.9017 12.8116 12.17 12.8116 12.47C12.8116 13.07 12.9349 13.5383 13.1816 13.875C13.4316 14.2083 13.8099 14.375 14.3166 14.375ZM19.1954 10.67C19.3054 10.5467 19.4221 10.435 19.5454 10.335C19.6687 10.235 19.7987 10.15 19.9354 10.08C20.0754 10.0067 20.2221 9.95167 20.3754 9.915C20.5321 9.875 20.7004 9.855 20.8804 9.855C21.1571 9.855 21.4004 9.90167 21.6104 9.995C21.8237 10.085 22.0004 10.215 22.1404 10.385C22.2837 10.5517 22.3921 10.7533 22.4654 10.99C22.5387 11.2267 22.5754 11.4883 22.5754 11.775V15H21.6804V11.775C21.6804 11.3917 21.5921 11.095 21.4154 10.885C21.2421 10.6717 20.9771 10.565 20.6204 10.565C20.3571 10.565 20.1104 10.6283 19.8804 10.755C19.6537 10.8817 19.4437 11.0533 19.2504 11.27V15H18.3554V9.935H18.8904C19.0171 9.935 19.0954 9.99667 19.1254 10.12L19.1954 10.67ZM26.1966 12.525C26.3766 12.525 26.5349 12.5 26.6716 12.45C26.8082 12.4 26.9232 12.33 27.0166 12.24C27.1099 12.15 27.1799 12.0433 27.2266 11.92C27.2732 11.7933 27.2966 11.655 27.2966 11.505C27.2966 11.195 27.2016 10.9483 27.0116 10.765C26.8249 10.5817 26.5532 10.49 26.1966 10.49C25.8366 10.49 25.5616 10.5817 25.3716 10.765C25.1849 10.9483 25.0916 11.195 25.0916 11.505C25.0916 11.655 25.1149 11.7933 25.1616 11.92C25.2116 12.0433 25.2832 12.15 25.3766 12.24C25.4699 12.33 25.5849 12.4 25.7216 12.45C25.8582 12.5 26.0166 12.525 26.1966 12.525ZM27.8016 15.275C27.8016 15.1517 27.7666 15.0517 27.6966 14.975C27.6266 14.8983 27.5316 14.8383 27.4116 14.795C27.2949 14.7517 27.1582 14.7217 27.0016 14.705C26.8449 14.685 26.6782 14.67 26.5016 14.66C26.3282 14.65 26.1516 14.64 25.9716 14.63C25.7916 14.62 25.6182 14.6033 25.4516 14.58C25.2649 14.6667 25.1116 14.7767 24.9916 14.91C24.8749 15.04 24.8166 15.1933 24.8166 15.37C24.8166 15.4833 24.8449 15.5883 24.9016 15.685C24.9616 15.785 25.0516 15.87 25.1716 15.94C25.2916 16.0133 25.4416 16.07 25.6216 16.11C25.8049 16.1533 26.0199 16.175 26.2666 16.175C26.5066 16.175 26.7216 16.1533 26.9116 16.11C27.1016 16.0667 27.2616 16.005 27.3916 15.925C27.5249 15.845 27.6266 15.75 27.6966 15.64C27.7666 15.53 27.8016 15.4083 27.8016 15.275ZM28.7066 10.135V10.465C28.7066 10.575 28.6366 10.645 28.4966 10.675L27.9216 10.75C28.0349 10.97 28.0916 11.2133 28.0916 11.48C28.0916 11.7267 28.0432 11.9517 27.9466 12.155C27.8532 12.355 27.7232 12.5267 27.5566 12.67C27.3899 12.8133 27.1899 12.9233 26.9566 13C26.7232 13.0767 26.4699 13.115 26.1966 13.115C25.9599 13.115 25.7366 13.0867 25.5266 13.03C25.4199 13.0967 25.3382 13.1683 25.2816 13.245C25.2249 13.3183 25.1966 13.3933 25.1966 13.47C25.1966 13.59 25.2449 13.6817 25.3416 13.745C25.4416 13.805 25.5716 13.8483 25.7316 13.875C25.8916 13.9017 26.0732 13.9183 26.2766 13.925C26.4832 13.9317 26.6932 13.9433 26.9066 13.96C27.1232 13.9733 27.3332 13.9983 27.5366 14.035C27.7432 14.0717 27.9266 14.1317 28.0866 14.215C28.2466 14.2983 28.3749 14.4133 28.4716 14.56C28.5716 14.7067 28.6216 14.8967 28.6216 15.13C28.6216 15.3467 28.5666 15.5567 28.4566 15.76C28.3499 15.9633 28.1949 16.1433 27.9916 16.3C27.7882 16.46 27.5382 16.5867 27.2416 16.68C26.9482 16.7767 26.6166 16.825 26.2466 16.825C25.8766 16.825 25.5532 16.7883 25.2766 16.715C24.9999 16.6417 24.7699 16.5433 24.5866 16.42C24.4032 16.2967 24.2649 16.1533 24.1716 15.99C24.0816 15.83 24.0366 15.6617 24.0366 15.485C24.0366 15.235 24.1149 15.0233 24.2716 14.85C24.4282 14.6767 24.6432 14.5383 24.9166 14.435C24.7666 14.3683 24.6466 14.28 24.5566 14.17C24.4699 14.0567 24.4266 13.905 24.4266 13.715C24.4266 13.6417 24.4399 13.5667 24.4666 13.49C24.4932 13.41 24.5332 13.3317 24.5866 13.255C24.6432 13.175 24.7116 13.1 24.7916 13.03C24.8716 12.96 24.9649 12.8983 25.0716 12.845C24.8216 12.705 24.6266 12.52 24.4866 12.29C24.3466 12.0567 24.2766 11.7867 24.2766 11.48C24.2766 11.2333 24.3232 11.01 24.4166 10.81C24.5132 10.6067 24.6466 10.435 24.8166 10.295C24.9866 10.1517 25.1882 10.0417 25.4216 9.965C25.6582 9.88833 25.9166 9.85 26.1966 9.85C26.4166 9.85 26.6216 9.875 26.8116 9.925C27.0016 9.97167 27.1749 10.0417 27.3316 10.135H28.7066ZM36.8684 12.34L35.7434 9.425C35.7101 9.33833 35.6751 9.23833 35.6384 9.125C35.6018 9.00833 35.5668 8.885 35.5334 8.755C35.4634 9.025 35.3918 9.25 35.3184 9.43L34.1934 12.34H36.8684ZM38.8884 15H38.1384C38.0518 15 37.9818 14.9783 37.9284 14.935C37.8751 14.8917 37.8351 14.8367 37.8084 14.77L37.1384 13.04H33.9234L33.2534 14.77C33.2334 14.83 33.1951 14.8833 33.1384 14.93C33.0818 14.9767 33.0118 15 32.9284 15H32.1784L35.0434 7.835H36.0234L38.8884 15ZM40.9415 10.67C41.0515 10.5467 41.1682 10.435 41.2915 10.335C41.4148 10.235 41.5448 10.15 41.6815 10.08C41.8215 10.0067 41.9682 9.95167 42.1215 9.915C42.2782 9.875 42.4465 9.855 42.6265 9.855C42.9032 9.855 43.1465 9.90167 43.3565 9.995C43.5698 10.085 43.7465 10.215 43.8865 10.385C44.0298 10.5517 44.1382 10.7533 44.2115 10.99C44.2848 11.2267 44.3215 11.4883 44.3215 11.775V15H43.4265V11.775C43.4265 11.3917 43.3382 11.095 43.1615 10.885C42.9882 10.6717 42.7232 10.565 42.3665 10.565C42.1032 10.565 41.8565 10.6283 41.6265 10.755C41.3998 10.8817 41.1898 11.0533 40.9965 11.27V15H40.1015V9.935H40.6365C40.7632 9.935 40.8415 9.99667 40.8715 10.12L40.9415 10.67ZM49.1277 10.77C49.0877 10.8433 49.026 10.88 48.9427 10.88C48.8927 10.88 48.836 10.8617 48.7727 10.825C48.7093 10.7883 48.631 10.7483 48.5377 10.705C48.4477 10.6583 48.3393 10.6167 48.2127 10.58C48.086 10.54 47.936 10.52 47.7627 10.52C47.6127 10.52 47.4777 10.54 47.3577 10.58C47.2377 10.6167 47.1343 10.6683 47.0477 10.735C46.9643 10.8017 46.8993 10.88 46.8527 10.97C46.8093 11.0567 46.7877 11.1517 46.7877 11.255C46.7877 11.385 46.8243 11.4933 46.8977 11.58C46.9743 11.6667 47.0743 11.7417 47.1977 11.805C47.321 11.8683 47.461 11.925 47.6177 11.975C47.7743 12.0217 47.9343 12.0733 48.0977 12.13C48.2643 12.1833 48.426 12.2433 48.5827 12.31C48.7393 12.3767 48.8793 12.46 49.0027 12.56C49.126 12.66 49.2243 12.7833 49.2977 12.93C49.3743 13.0733 49.4127 13.2467 49.4127 13.45C49.4127 13.6833 49.371 13.9 49.2877 14.1C49.2043 14.2967 49.081 14.4683 48.9177 14.615C48.7543 14.7583 48.5543 14.8717 48.3177 14.955C48.081 15.0383 47.8077 15.08 47.4977 15.08C47.1443 15.08 46.8243 15.0233 46.5377 14.91C46.251 14.7933 46.0077 14.645 45.8077 14.465L46.0177 14.125C46.0443 14.0817 46.076 14.0483 46.1127 14.025C46.1493 14.0017 46.196 13.99 46.2527 13.99C46.3127 13.99 46.376 14.0133 46.4427 14.06C46.5093 14.1067 46.5893 14.1583 46.6827 14.215C46.7793 14.2717 46.896 14.3233 47.0327 14.37C47.1693 14.4167 47.3393 14.44 47.5427 14.44C47.716 14.44 47.8677 14.4183 47.9977 14.375C48.1277 14.3283 48.236 14.2667 48.3227 14.19C48.4093 14.1133 48.4727 14.025 48.5127 13.925C48.556 13.825 48.5777 13.7183 48.5777 13.605C48.5777 13.465 48.5393 13.35 48.4627 13.26C48.3893 13.1667 48.291 13.0883 48.1677 13.025C48.0443 12.9583 47.9027 12.9017 47.7427 12.855C47.586 12.805 47.4243 12.7533 47.2577 12.7C47.0943 12.6467 46.9327 12.5867 46.7727 12.52C46.616 12.45 46.476 12.3633 46.3527 12.26C46.2293 12.1567 46.1293 12.03 46.0527 11.88C45.9793 11.7267 45.9427 11.5417 45.9427 11.325C45.9427 11.1317 45.9827 10.9467 46.0627 10.77C46.1427 10.59 46.2593 10.4333 46.4127 10.3C46.566 10.1633 46.7543 10.055 46.9777 9.975C47.201 9.895 47.456 9.855 47.7427 9.855C48.076 9.855 48.3743 9.90833 48.6377 10.015C48.9043 10.1183 49.1343 10.2617 49.3277 10.445L49.1277 10.77Z" fill="#00695C"/>
</svg>
