<svg width="55" height="23" viewBox="0 0 55 23" fill="none" xmlns="http://www.w3.org/2000/svg">
<rect opacity="0.4" width="55" height="23" rx="4" fill="#FCD734"/>
<path d="M24.4511 7.835V15H23.6011V9.735C23.6011 9.665 23.6027 9.59 23.6061 9.51C23.6127 9.43 23.6194 9.34833 23.6261 9.265L21.1661 13.745C21.0894 13.895 20.9727 13.97 20.8161 13.97H20.6761C20.5194 13.97 20.4027 13.895 20.3261 13.745L17.8161 9.245C17.8361 9.42167 17.8461 9.585 17.8461 9.735V15H16.9961V7.835H17.7111C17.7977 7.835 17.8644 7.84333 17.9111 7.86C17.9577 7.87667 18.0027 7.92333 18.0461 8L20.5211 12.41C20.5611 12.49 20.5994 12.5733 20.6361 12.66C20.6761 12.7467 20.7127 12.835 20.7461 12.925C20.7794 12.835 20.8144 12.7467 20.8511 12.66C20.8877 12.57 20.9277 12.485 20.9711 12.405L23.4011 8C23.4411 7.92333 23.4844 7.87667 23.5311 7.86C23.5811 7.84333 23.6494 7.835 23.7361 7.835H24.4511ZM31.8132 13.52C31.8665 13.52 31.9132 13.5417 31.9532 13.585L32.3382 14C32.0448 14.34 31.6882 14.605 31.2682 14.795C30.8515 14.985 30.3465 15.08 29.7532 15.08C29.2398 15.08 28.7732 14.9917 28.3532 14.815C27.9332 14.635 27.5748 14.385 27.2782 14.065C26.9815 13.7417 26.7515 13.355 26.5882 12.905C26.4248 12.455 26.3432 11.96 26.3432 11.42C26.3432 10.88 26.4282 10.385 26.5982 9.935C26.7682 9.485 27.0065 9.09833 27.3132 8.775C27.6232 8.45167 27.9932 8.20167 28.4232 8.025C28.8532 7.845 29.3282 7.755 29.8482 7.755C30.3582 7.755 30.8082 7.83667 31.1982 8C31.5882 8.16333 31.9315 8.385 32.2282 8.665L31.9082 9.11C31.8882 9.14333 31.8615 9.17167 31.8282 9.195C31.7982 9.215 31.7565 9.225 31.7032 9.225C31.6432 9.225 31.5698 9.19333 31.4832 9.13C31.3965 9.06333 31.2832 8.99 31.1432 8.91C31.0032 8.83 30.8282 8.75833 30.6182 8.695C30.4082 8.62833 30.1498 8.595 29.8432 8.595C29.4732 8.595 29.1348 8.66 28.8282 8.79C28.5215 8.91667 28.2565 9.10167 28.0332 9.345C27.8132 9.58833 27.6415 9.885 27.5182 10.235C27.3948 10.585 27.3332 10.98 27.3332 11.42C27.3332 11.8667 27.3965 12.265 27.5232 12.615C27.6532 12.965 27.8282 13.2617 28.0482 13.505C28.2715 13.745 28.5332 13.9283 28.8332 14.055C29.1365 14.1817 29.4632 14.245 29.8132 14.245C30.0265 14.245 30.2182 14.2333 30.3882 14.21C30.5615 14.1833 30.7198 14.1433 30.8632 14.09C31.0098 14.0367 31.1448 13.97 31.2682 13.89C31.3948 13.8067 31.5198 13.7083 31.6432 13.595C31.6998 13.545 31.7565 13.52 31.8132 13.52ZM34.3761 11.42C34.3761 11.86 34.4361 12.255 34.5561 12.605C34.6761 12.9517 34.8461 13.2467 35.0661 13.49C35.2895 13.73 35.5578 13.915 35.8711 14.045C36.1845 14.1717 36.5328 14.235 36.9161 14.235C37.3028 14.235 37.6528 14.1717 37.9661 14.045C38.2795 13.915 38.5461 13.73 38.7661 13.49C38.9861 13.2467 39.1561 12.9517 39.2761 12.605C39.3961 12.255 39.4561 11.86 39.4561 11.42C39.4561 10.98 39.3961 10.585 39.2761 10.235C39.1561 9.885 38.9861 9.59 38.7661 9.35C38.5461 9.10667 38.2795 8.92 37.9661 8.79C37.6528 8.66 37.3028 8.595 36.9161 8.595C36.5328 8.595 36.1845 8.66 35.8711 8.79C35.5578 8.92 35.2895 9.10667 35.0661 9.35C34.8461 9.59 34.6761 9.885 34.5561 10.235C34.4361 10.585 34.3761 10.98 34.3761 11.42ZM40.7811 16.48H39.9811C39.8611 16.48 39.7545 16.4633 39.6611 16.43C39.5678 16.3967 39.4828 16.3383 39.4061 16.255L38.1511 14.885C37.7711 15.0117 37.3595 15.075 36.9161 15.075C36.3895 15.075 35.9095 14.9867 35.4761 14.81C35.0428 14.63 34.6711 14.3783 34.3611 14.055C34.0511 13.7317 33.8111 13.3467 33.6411 12.9C33.4711 12.45 33.3861 11.9567 33.3861 11.42C33.3861 10.8833 33.4711 10.3917 33.6411 9.945C33.8111 9.495 34.0511 9.10833 34.3611 8.785C34.6711 8.45833 35.0428 8.205 35.4761 8.025C35.9095 7.845 36.3895 7.755 36.9161 7.755C37.4428 7.755 37.9228 7.845 38.3561 8.025C38.7928 8.205 39.1661 8.45833 39.4761 8.785C39.7861 9.10833 40.0261 9.495 40.1961 9.945C40.3661 10.3917 40.4511 10.8833 40.4511 11.42C40.4511 11.7567 40.4161 12.0767 40.3461 12.38C40.2795 12.6833 40.1811 12.9667 40.0511 13.23C39.9211 13.49 39.7628 13.7267 39.5761 13.94C39.3895 14.1533 39.1795 14.3383 38.9461 14.495L40.7811 16.48Z" fill="#00695C"/>
</svg>
