<svg width="60" height="60" viewBox="0 0 60 60" fill="none" xmlns="http://www.w3.org/2000/svg">
<path d="M29.32 7.5C27.6925 7.5 26.1317 8.14651 24.9809 9.2973C23.8301 10.4481 23.1836 12.0089 23.1836 13.6364V30C23.1836 31.6275 23.8301 33.1883 24.9809 34.3391C26.1317 35.4899 27.6925 36.1364 29.32 36.1364C30.9474 36.1364 32.5082 35.4899 33.659 34.3391C34.8098 33.1883 35.4563 31.6275 35.4563 30V13.6364C35.4563 12.0089 34.8098 10.4481 33.659 9.2973C32.5082 8.14651 30.9474 7.5 29.32 7.5V7.5Z" stroke="#4DB6AC" stroke-width="3.75" stroke-linecap="round" stroke-linejoin="round"/>
<path d="M43.6364 25.9092V30.0001C43.6364 33.7975 42.1278 37.4394 39.4427 40.1246C36.7575 42.8098 33.1156 44.3183 29.3182 44.3183C25.5208 44.3183 21.8789 42.8098 19.1937 40.1246C16.5085 37.4394 15 33.7975 15 30.0001V25.9092" stroke="#4DB6AC" stroke-width="3.75" stroke-linecap="round" stroke-linejoin="round"/>
<path d="M29.3164 44.3181V52.4999" stroke="#4DB6AC" stroke-width="3.75" stroke-linecap="round" stroke-linejoin="round"/>
<path d="M21.1367 52.5H37.5004" stroke="#4DB6AC" stroke-width="3.75" stroke-linecap="round" stroke-linejoin="round"/>
</svg>
