<svg width="18" height="18" viewBox="0 0 18 18" fill="none" xmlns="http://www.w3.org/2000/svg">
<path d="M8.79403 2.25C8.30579 2.25 7.83755 2.44395 7.49231 2.78919C7.14708 3.13443 6.95312 3.60267 6.95312 4.09091V9C6.95312 9.48824 7.14708 9.95648 7.49231 10.3017C7.83755 10.647 8.30579 10.8409 8.79403 10.8409C9.28227 10.8409 9.75052 10.647 10.0958 10.3017C10.441 9.95648 10.6349 9.48824 10.6349 9V4.09091C10.6349 3.60267 10.441 3.13443 10.0958 2.78919C9.75052 2.44395 9.28227 2.25 8.79403 2.25V2.25Z" stroke="#F47E16" stroke-linecap="round" stroke-linejoin="round"/>
<path d="M13.0909 7.77295V9.00022C13.0909 10.1394 12.6384 11.232 11.8328 12.0376C11.0272 12.8431 9.93468 13.2957 8.79545 13.2957C7.65623 13.2957 6.56366 12.8431 5.75811 12.0376C4.95256 11.232 4.5 10.1394 4.5 9.00022V7.77295" stroke="#F47E16" stroke-linecap="round" stroke-linejoin="round"/>
<path d="M8.79688 13.2954V15.75" stroke="#F47E16" stroke-linecap="round" stroke-linejoin="round"/>
<path d="M6.33984 15.75H11.2489" stroke="#F47E16" stroke-linecap="round" stroke-linejoin="round"/>
</svg>
