<svg width="41" height="48" viewBox="0 0 41 48" fill="none" xmlns="http://www.w3.org/2000/svg">
<path d="M4.8984 47.5105C2.44942 47.5105 0.490234 45.5514 0.490234 43.1024V5.87789C0.490234 3.42891 2.44942 1.46973 4.8984 1.46973H28.2127L38.6943 11.9514V43.1024C38.6943 45.5514 36.7351 47.5105 34.2862 47.5105H4.8984Z" fill="#F6F6F6"/>
<path d="M28.0163 1.95908L38.2041 12.1468V43.1019C38.2041 45.257 36.4408 47.0203 34.2857 47.0203H4.89796C2.74286 47.0203 0.979592 45.257 0.979592 43.1019V5.87745C0.979592 3.72235 2.74286 1.95908 4.89796 1.95908H28.0163ZM28.4082 0.979492H4.89796C2.1551 0.979492 0 3.13459 0 5.87745V43.1019C0 45.8448 2.1551 47.9999 4.89796 47.9999H34.2857C37.0286 47.9999 39.1837 45.8448 39.1837 43.1019V11.755L28.4082 0.979492Z" fill="#E0E0E0"/>
<path d="M4.8984 47.5105C2.44942 47.5105 0.490234 45.5514 0.490234 43.1024V5.87789C0.490234 3.42891 2.44942 1.46973 4.8984 1.46973H28.2127L38.6943 11.9514V43.1024C38.6943 45.5514 36.7351 47.5105 34.2862 47.5105H4.8984Z" fill="#006BB8"/>
<path d="M28.0163 1.95908L38.2041 12.1468V43.1019C38.2041 45.257 36.4408 47.0203 34.2857 47.0203H4.89796C2.74286 47.0203 0.979592 45.257 0.979592 43.1019V5.87745C0.979592 3.72235 2.74286 1.95908 4.89796 1.95908H28.0163ZM28.4082 0.979492H4.89796C2.1551 0.979492 0 3.13459 0 5.87745V43.1019C0 45.8448 2.1551 47.9999 4.89796 47.9999H34.2857C37.0286 47.9999 39.1837 45.8448 39.1837 43.1019V11.755L28.4082 0.979492Z" fill="#015EA4"/>
<path d="M29.7793 10.2861L39.2813 19.7882V10.2861H29.7793Z" fill="#015EA4"/>
<path d="M40.1633 11.7551H33.3062C30.5633 11.7551 28.4082 9.6 28.4082 6.85714V0H40.1633V11.7551Z" fill="#669AC1"/>
<path d="M5.87743 7.05273H7.34681L8.42437 10.4813L9.50191 7.05273H10.8734L11.5591 12.7344H10.3836L9.89376 8.71804L8.62029 12.7344H8.03253L6.75905 8.71804L6.26926 12.7344H5.09375L5.87743 7.05273Z" fill="white"/>
<path d="M12.2441 9.89356C12.2441 9.01193 12.538 8.32621 13.0278 7.83641C13.6156 7.24866 14.2033 7.05273 14.987 7.05273C15.8686 7.05273 16.5543 7.34661 17.0441 7.83641C17.6319 8.42417 17.8278 9.10989 17.8278 9.89356C17.8278 10.6772 17.5339 11.4609 17.0441 11.9507C16.4564 12.5384 15.7707 12.7344 14.987 12.7344C14.2033 12.7344 13.5176 12.4405 12.9299 11.9507C12.538 11.4609 12.2441 10.7752 12.2441 9.89356ZM15.085 8.13029C14.5952 8.13029 14.2033 8.32621 13.9094 8.62009C13.6156 8.91396 13.5176 9.40376 13.5176 9.89356C13.5176 10.3834 13.7135 10.7752 14.0074 11.167C14.3013 11.4609 14.6931 11.6568 15.085 11.6568C15.5747 11.6568 15.9666 11.4609 16.2605 11.167C16.5544 10.8731 16.6523 10.3834 16.6523 9.89356C16.6523 9.40376 16.5544 8.91396 16.2605 8.62009C15.9666 8.32621 15.5747 8.13029 15.085 8.13029Z" fill="white"/>
<path d="M18.2207 7.05273H19.4942L20.9635 10.7752L22.4329 7.05273H23.7064L21.5513 12.7344H20.4738L18.2207 7.05273Z" fill="white"/>
<path d="M8.81641 32.3262C8.81641 26.9384 13.2246 22.5303 18.6123 22.5303C24.0001 22.5303 28.4082 26.9384 28.4082 32.3262C28.4082 37.7139 24.0001 42.1221 18.6123 42.1221C13.2246 42.1221 8.81641 37.7139 8.81641 32.3262ZM18.6123 34.2854C19.6899 34.2854 20.5715 33.4037 20.5715 32.3262C20.5715 31.2486 19.6899 30.367 18.6123 30.367C17.5348 30.367 16.6531 31.2486 16.6531 32.3262C16.6531 33.4037 17.5348 34.2854 18.6123 34.2854ZM18.6123 28.8976C19.9838 28.8976 21.0613 27.8201 21.0613 26.4486C21.0613 25.0772 19.9838 23.9997 18.6123 23.9997C17.2409 23.9997 16.1633 25.0772 16.1633 26.4486C16.1633 27.8201 17.2409 28.8976 18.6123 28.8976ZM15.3797 31.2486C15.7715 29.9752 15.0858 28.6037 13.8123 28.2119C12.5389 27.8201 11.1674 28.5058 10.7756 29.7792C10.3838 31.0527 11.0695 32.4242 12.3429 32.816C13.5185 33.2078 14.8899 32.5221 15.3797 31.2486ZM16.5552 35.0691C15.4776 34.2854 13.9103 34.4813 13.1266 35.6568C12.3429 36.7343 12.5389 38.3017 13.7144 39.0854C14.7919 39.869 16.3593 39.6731 17.1429 38.4976C17.9266 37.4201 17.7307 35.8527 16.5552 35.0691ZM20.6695 35.0691C19.5919 35.8527 19.298 37.4201 20.0817 38.4976C20.8654 39.5752 22.4327 39.869 23.5103 39.0854C24.5878 38.3017 24.8817 36.7343 24.098 35.6568C23.2164 34.5792 21.747 34.2854 20.6695 35.0691ZM21.845 31.2486C22.2368 32.5221 23.6082 33.2078 24.9797 32.816C26.2531 32.4242 26.9389 31.0527 26.547 29.7792C26.1552 28.5058 24.7837 27.8201 23.4123 28.2119C22.1388 28.6037 21.4531 29.9752 21.845 31.2486Z" fill="#E0E0E0"/>
<path d="M28.8973 40.1637C28.1136 40.1637 27.4279 39.478 27.4279 38.6943V34.2861H25.4688V39.1841C25.4688 40.8494 26.7422 42.1229 28.4075 42.1229H32.3259V40.1637H28.8973Z" fill="#E0E0E0"/>
</svg>
