<svg width="41" height="48" viewBox="0 0 41 48" fill="none" xmlns="http://www.w3.org/2000/svg">
<path d="M4.8984 47.5105C2.44942 47.5105 0.490234 45.5514 0.490234 43.1024V5.87789C0.490234 3.42891 2.44942 1.46973 4.8984 1.46973H28.2127L38.6943 11.9514V43.1024C38.6943 45.5514 36.7351 47.5105 34.2862 47.5105H4.8984Z" fill="#F6F6F6"/>
<path d="M28.0163 1.95908L38.2041 12.1468V43.1019C38.2041 45.257 36.4408 47.0203 34.2857 47.0203H4.89796C2.74286 47.0203 0.979592 45.257 0.979592 43.1019V5.87745C0.979592 3.72235 2.74286 1.95908 4.89796 1.95908H28.0163ZM28.4082 0.979492H4.89796C2.1551 0.979492 0 3.13459 0 5.87745V43.1019C0 45.8448 2.1551 47.9999 4.89796 47.9999H34.2857C37.0286 47.9999 39.1837 45.8448 39.1837 43.1019V11.755L28.4082 0.979492Z" fill="#E0E0E0"/>
<path d="M4.8984 47.5105C2.44942 47.5105 0.490234 45.5514 0.490234 43.1024V5.87789C0.490234 3.42891 2.44942 1.46973 4.8984 1.46973H28.2127L38.6943 11.9514V43.1024C38.6943 45.5514 36.7351 47.5105 34.2862 47.5105H4.8984Z" fill="#9A50A6"/>
<path d="M28.0163 1.95908L38.2041 12.1468V43.1019C38.2041 45.257 36.4408 47.0203 34.2857 47.0203H4.89796C2.74286 47.0203 0.979592 45.257 0.979592 43.1019V5.87745C0.979592 3.72235 2.74286 1.95908 4.89796 1.95908H28.0163ZM28.4082 0.979492H4.89796C2.1551 0.979492 0 3.13459 0 5.87745V43.1019C0 45.8448 2.1551 47.9999 4.89796 47.9999H34.2857C37.0286 47.9999 39.1837 45.8448 39.1837 43.1019V11.755L28.4082 0.979492Z" fill="#884792"/>
<path d="M29.7793 10.2861L39.2813 19.7882V10.2861H29.7793Z" fill="#884792"/>
<path d="M40.1633 11.7551H33.3062C30.5633 11.7551 28.4082 9.6 28.4082 6.85714V0H40.1633V11.7551Z" fill="#CDACD2"/>
<path d="M5.87741 7.05273H7.3468L8.42436 10.4813L9.50191 7.05273H10.8733L11.559 12.7344H10.3835L9.89374 8.71804L8.62026 12.7344H8.03253L6.75904 8.71804L6.26924 12.7344H5.09375L5.87741 7.05273Z" fill="white"/>
<path d="M12.4395 7.05273H14.3986C14.8884 7.05273 15.3782 7.24865 15.6721 7.54253C15.966 7.83641 16.1619 8.22825 16.1619 8.71804C16.1619 9.01192 16.0639 9.3058 15.966 9.59968C15.77 9.89356 15.5741 10.0895 15.2803 10.2854C14.9864 10.3833 14.6925 10.4813 14.4966 10.4813H13.8109V12.7344H12.6354V7.05273H12.4395ZM13.7129 8.13029V9.59968H14.2027C14.3986 9.59968 14.5945 9.50172 14.6925 9.40376C14.7905 9.3058 14.8884 9.10988 14.8884 8.91396C14.8884 8.71804 14.7905 8.52212 14.6925 8.42416C14.4966 8.32621 14.3007 8.22825 14.0068 8.22825L13.7129 8.13029Z" fill="white"/>
<path d="M18.8063 8.03202C18.4144 8.03202 18.1205 8.3259 18.1205 8.81569H17.043C17.043 8.3259 17.2389 7.93406 17.6307 7.64019C17.9246 7.34631 18.4144 7.15039 18.8063 7.15039C19.296 7.15039 19.7858 7.24834 20.0797 7.54222C20.4715 7.8361 20.6675 8.22794 20.6675 8.61978C20.6675 9.10957 20.4715 9.50141 19.9817 9.79529C20.2756 9.9912 20.4715 10.1871 20.5695 10.383C20.6675 10.579 20.7654 10.7749 20.7654 11.0688C20.7654 11.5586 20.5695 11.9504 20.2756 12.3422C19.9818 12.6361 19.4919 12.832 18.9042 12.832C18.4144 12.832 17.9246 12.6361 17.6307 12.3422C17.3369 12.0483 17.043 11.6565 17.043 11.0688H18.2185C18.3165 11.5586 18.6103 11.8524 19.0022 11.8524C19.1981 11.8524 19.394 11.7545 19.4919 11.6565C19.5899 11.5586 19.6879 11.3626 19.6879 11.1667C19.6879 10.8728 19.5899 10.6769 19.4919 10.579C19.296 10.383 19.1001 10.383 18.9042 10.383H18.7083V9.50141H18.8063C19.1001 9.50141 19.296 9.40345 19.394 9.30549C19.5899 9.20753 19.5899 9.01161 19.5899 8.81569C19.5899 8.61978 19.4919 8.42386 19.394 8.3259C19.1981 8.12998 19.0022 8.03202 18.8063 8.03202Z" fill="white"/>
<path d="M14.3993 24.5879C13.9095 24.6859 13.5177 25.0777 13.5177 25.5675V29.7797V36.6369C13.0279 36.441 12.5381 36.343 11.9504 36.343C9.99118 36.343 8.42383 37.6165 8.42383 39.2818C8.42383 40.8491 9.99118 42.2205 11.9504 42.2205C13.9095 42.2205 15.4769 40.9471 15.4769 39.2818V29.5838L25.3708 28.2124V34.7757C24.881 34.5797 24.3912 34.4818 23.8034 34.4818C21.8442 34.4818 20.2769 35.7552 20.2769 37.4205C20.2769 38.9879 21.8442 40.3593 23.8034 40.3593C25.7626 40.3593 27.3299 39.0859 27.3299 37.4205V28.0165V24.0981C27.3299 23.8042 27.232 23.5103 27.0361 23.3144C26.8402 23.1185 26.5463 23.0205 26.2524 23.1185L14.3993 24.5879Z" fill="#E0E0E0"/>
</svg>
