<svg width="509" height="341" viewBox="0 0 509 341" fill="none" xmlns="http://www.w3.org/2000/svg">
<g opacity="0.2">
<path opacity="0.2" d="M176.166 313.445C176.421 314.493 176.761 315.518 177.182 316.511C183.72 313.943 190.329 311.482 197.011 309.127C196.955 308.849 196.899 308.558 196.828 308.271C196.155 305.312 194.718 302.581 192.661 300.35C189.989 297.528 186.546 296.164 183.197 296.997C179.849 297.829 177.417 300.68 176.307 304.428C175.477 307.37 175.428 310.478 176.166 313.445Z" fill="#3F3D56"/>
<path opacity="0.2" d="M185.56 307.834C191.3 306.552 194.563 299.288 192.847 291.609C191.132 283.93 185.089 278.744 179.35 280.026C173.61 281.308 170.347 288.572 172.062 296.251C173.777 303.93 179.821 309.116 185.56 307.834Z" fill="#3F3D56"/>
<path opacity="0.2" d="M181.533 290.894C187.273 289.612 190.535 282.348 188.82 274.669C187.105 266.99 181.062 261.804 175.322 263.086C169.583 264.368 166.32 271.632 168.035 279.311C169.75 286.99 175.793 292.176 181.533 290.894Z" fill="#3F3D56"/>
<path opacity="0.2" d="M177.496 273.964C183.236 272.682 186.498 265.418 184.783 257.739C183.068 250.06 177.025 244.874 171.285 246.156C165.545 247.438 162.283 254.702 163.998 262.381C165.713 270.06 171.756 275.246 177.496 273.964Z" fill="#3F3D56"/>
<path opacity="0.2" d="M173.461 257.03C179.2 255.748 182.463 248.484 180.748 240.805C179.033 233.126 172.99 227.94 167.25 229.222C161.51 230.504 158.248 237.768 159.963 245.447C161.678 253.126 167.721 258.312 173.461 257.03Z" fill="#3F3D56"/>
<path d="M181.429 117.556C182.408 115.361 183.234 113.101 183.903 110.793L155.683 113.013L185.098 105.896C186.503 98.4992 186.325 90.8881 184.576 83.5646C183.042 77.0812 180.292 70.9477 176.472 65.4893L142.043 96.2732L171.848 59.8358C159.681 46.8449 141.276 40.6646 122.984 45.2552C95.6528 52.0892 78.9039 80.3286 85.5734 108.328C88.2245 119.638 94.5801 129.736 103.63 137.019C102.109 140.438 100.954 144.007 100.182 147.668L139.889 157.611L99.2415 154.088C98.7554 159.763 99.1809 165.479 100.502 171.02C103.158 182.329 109.514 192.427 118.563 199.711C113.808 210.389 112.71 222.337 115.44 233.703C122.11 261.702 149.672 278.856 177.003 272.026C204.335 265.197 221.084 236.958 214.414 208.958C211.759 197.649 205.402 187.551 196.353 180.267C201.109 169.589 202.206 157.641 199.476 146.275C196.832 134.957 190.48 124.848 181.429 117.556Z" fill="#26A69A"/>
<path opacity="0.1" d="M100.511 171.001C103.167 182.31 109.524 192.408 118.573 199.692C113.817 210.37 112.719 222.319 115.45 233.684C122.119 261.683 149.681 278.837 177.013 272.007C204.344 265.178 221.093 236.939 214.424 208.939C211.768 197.63 205.411 187.533 196.363 180.248C200.944 169.967 99.1569 165.324 100.511 171.001Z" fill="black"/>
</g>
<g opacity="0.2">
<path opacity="0.2" d="M303.013 308.276C302.841 309.5 302.774 310.737 302.81 311.972C311.01 312.104 319.241 312.38 327.503 312.8C327.56 312.476 327.616 312.147 327.663 311.813C328.196 308.364 327.798 304.836 326.511 301.592C324.808 297.444 321.634 294.476 317.659 293.902C313.685 293.328 309.809 295.285 307.011 298.775C304.856 301.529 303.475 304.809 303.013 308.276Z" fill="#3F3D56"/>
<path opacity="0.2" d="M330.518 292.107C331.799 283.196 327.319 275.178 320.51 274.199C313.701 273.22 307.144 279.651 305.862 288.563C304.581 297.475 309.062 305.493 315.871 306.472C322.679 307.45 329.237 301.019 330.518 292.107Z" fill="#3F3D56"/>
<path opacity="0.2" d="M333.35 272.384C334.631 263.472 330.151 255.454 323.342 254.475C316.533 253.497 309.976 259.928 308.695 268.84C307.413 277.751 311.894 285.769 318.703 286.748C325.512 287.727 332.069 281.296 333.35 272.384Z" fill="#3F3D56"/>
<path opacity="0.2" d="M336.184 252.665C337.465 243.753 332.985 235.735 326.176 234.757C319.367 233.778 312.81 240.209 311.529 249.121C310.247 258.032 314.728 266.05 321.537 267.029C328.346 268.008 334.903 261.577 336.184 252.665Z" fill="#3F3D56"/>
<path opacity="0.2" d="M339.022 232.942C340.303 224.03 335.822 216.012 329.014 215.034C322.205 214.055 315.647 220.486 314.366 229.398C313.085 238.309 317.566 246.327 324.375 247.306C331.183 248.285 337.741 241.854 339.022 232.942Z" fill="#3F3D56"/>
<path d="M392.219 102.825C394.212 100.92 396.07 98.8764 397.778 96.7107L366.157 86.777L401.146 92.0684C405.556 85.2397 408.526 77.5833 409.876 69.5673C411.226 61.5513 410.926 53.3443 408.996 45.448L358.5 63.0576L406.418 37.4239C403.366 29.8236 398.782 22.9332 392.951 17.182C387.119 11.4308 380.166 6.94188 372.525 3.99504C364.883 1.0482 356.716 -0.293478 348.533 0.0535867C340.351 0.400652 332.327 2.42903 324.962 6.01235C317.597 9.59566 311.049 14.6572 305.726 20.8815C300.403 27.1058 296.418 34.3597 294.021 42.1911C291.623 50.0226 290.864 58.2638 291.791 66.4015C292.717 74.5391 295.309 82.3988 299.406 89.4909C296.308 92.451 293.537 95.7356 291.142 99.2881L330.044 127.17L287.379 105.685C282.891 114.536 280.681 124.367 280.948 134.288C281.216 144.208 283.953 153.906 288.912 162.502C280.81 170.227 275.046 180.075 272.277 190.921C269.508 201.768 269.848 213.174 273.256 223.837C276.665 234.499 283.005 243.988 291.552 251.217C300.098 258.446 310.507 263.124 321.587 264.716C332.668 266.309 343.972 264.751 354.209 260.222C364.446 255.692 373.201 248.373 379.475 239.102C385.748 229.831 389.286 218.982 389.684 207.795C390.082 196.608 387.324 185.535 381.725 175.841C391.408 166.61 397.706 154.391 399.609 141.149C401.513 127.907 398.91 114.41 392.219 102.825Z" fill="#26A69A"/>
<path opacity="0.1" d="M281.523 124.179C279.6 137.421 282.204 150.924 288.912 162.502C280.81 170.227 275.046 180.075 272.277 190.921C269.508 201.768 269.848 213.174 273.256 223.837C276.665 234.499 283.005 243.988 291.552 251.217C300.098 258.446 310.507 263.124 321.587 264.716C332.668 266.309 343.972 264.751 354.209 260.222C364.446 255.692 373.201 248.373 379.475 239.102C385.748 229.831 389.286 218.982 389.684 207.795C390.082 196.608 387.324 185.535 381.725 175.841C391.085 166.928 282.478 117.552 281.523 124.179Z" fill="black"/>
</g>
<path opacity="0.1" d="M254.5 340.997C395.056 340.997 509 334.506 509 326.497C509 318.489 395.056 311.997 254.5 311.997C113.944 311.997 0 318.489 0 326.497C0 334.506 113.944 340.997 254.5 340.997Z" fill="#FF7700"/>
<path d="M421 320.997C427.627 320.997 433 319.878 433 318.497C433 317.117 427.627 315.997 421 315.997C414.373 315.997 409 317.117 409 318.497C409 319.878 414.373 320.997 421 320.997Z" fill="#0D352D" fill-opacity="0.3"/>
<path d="M420.5 318.997C421.328 318.997 422 318.102 422 316.997C422 315.893 421.328 314.997 420.5 314.997C419.672 314.997 419 315.893 419 316.997C419 318.102 419.672 318.997 420.5 318.997Z" fill="#3F3D56"/>
<path d="M420.5 316.997C421.328 316.997 422 316.102 422 314.997C422 313.893 421.328 312.997 420.5 312.997C419.672 312.997 419 313.893 419 314.997C419 316.102 419.672 316.997 420.5 316.997Z" fill="#3F3D56"/>
<path d="M420.5 314.997C421.328 314.997 422 314.102 422 312.997C422 311.893 421.328 310.997 420.5 310.997C419.672 310.997 419 311.893 419 312.997C419 314.102 419.672 314.997 420.5 314.997Z" fill="#3F3D56"/>
<path d="M420.5 311.997C421.328 311.997 422 311.326 422 310.497C422 309.669 421.328 308.997 420.5 308.997C419.672 308.997 419 309.669 419 310.497C419 311.326 419.672 311.997 420.5 311.997Z" fill="#3F3D56"/>
<path d="M420.5 309.997C421.328 309.997 422 309.326 422 308.497C422 307.669 421.328 306.997 420.5 306.997C419.672 306.997 419 307.669 419 308.497C419 309.326 419.672 309.997 420.5 309.997Z" fill="#3F3D56"/>
<path d="M420.5 307.997C421.328 307.997 422 307.102 422 305.997C422 304.893 421.328 303.997 420.5 303.997C419.672 303.997 419 304.893 419 305.997C419 307.102 419.672 307.997 420.5 307.997Z" fill="#3F3D56"/>
<path d="M420.5 305.997C421.328 305.997 422 305.102 422 303.997C422 302.893 421.328 301.997 420.5 301.997C419.672 301.997 419 302.893 419 303.997C419 305.102 419.672 305.997 420.5 305.997Z" fill="#3F3D56"/>
<path d="M425.611 288.87C425.797 288.626 425.966 288.369 426.117 288.101L422.556 287.498L426.407 287.526C426.775 286.696 426.977 285.798 426.998 284.885C427.019 283.972 426.86 283.065 426.531 282.218L421.365 284.986L426.131 281.368C425.686 280.567 425.086 279.87 424.368 279.319C423.65 278.769 422.83 278.378 421.959 278.17C421.088 277.962 420.185 277.942 419.306 278.111C418.427 278.28 417.591 278.634 416.851 279.152C416.111 279.67 415.482 280.34 415.005 281.12C414.527 281.9 414.21 282.774 414.075 283.686C413.94 284.598 413.988 285.529 414.217 286.421C414.447 287.313 414.852 288.147 415.408 288.87C415.12 289.249 414.872 289.658 414.667 290.09L419.267 292.569L414.34 290.859C413.995 291.917 413.912 293.048 414.099 294.147C414.285 295.247 414.735 296.281 415.408 297.155C414.655 298.144 414.186 299.331 414.056 300.581C413.925 301.831 414.139 303.094 414.671 304.225C415.203 305.356 416.033 306.309 417.065 306.976C418.098 307.644 419.291 307.997 420.509 307.997C421.727 307.997 422.921 307.644 423.953 306.976C424.986 306.309 425.816 305.356 426.348 304.225C426.88 303.094 427.093 301.831 426.963 300.581C426.832 299.331 426.364 298.144 425.611 297.155C426.511 295.975 427 294.517 427 293.015C427 291.513 426.511 290.055 425.611 288.875V288.87Z" fill="#FF7700"/>
<path opacity="0.1" d="M414.009 293.095C414.005 294.588 414.492 296.039 415.391 297.213C414.637 298.196 414.168 299.377 414.037 300.621C413.907 301.864 414.12 303.12 414.653 304.245C415.186 305.37 416.017 306.318 417.051 306.982C418.085 307.645 419.28 307.997 420.5 307.997C421.72 307.997 422.915 307.645 423.949 306.982C424.983 306.318 425.814 305.37 426.347 304.245C426.88 303.12 427.093 301.864 426.963 300.621C426.832 299.377 426.363 298.196 425.609 297.213C426.489 296.08 414.009 292.349 414.009 293.095Z" fill="black"/>
<path d="M147.5 338.997C156.06 338.997 163 337.654 163 335.997C163 334.341 156.06 332.997 147.5 332.997C138.94 332.997 132 334.341 132 335.997C132 337.654 138.94 338.997 147.5 338.997Z" fill="#0D352D" fill-opacity="0.3"/>
<path d="M147 336.997C148.105 336.997 149 335.878 149 334.497C149 333.117 148.105 331.997 147 331.997C145.895 331.997 145 333.117 145 334.497C145 335.878 145.895 336.997 147 336.997Z" fill="#3F3D56"/>
<path d="M147 333.997C148.105 333.997 149 332.878 149 331.497C149 330.117 148.105 328.997 147 328.997C145.895 328.997 145 330.117 145 331.497C145 332.878 145.895 333.997 147 333.997Z" fill="#3F3D56"/>
<path d="M147 330.997C148.105 330.997 149 329.878 149 328.497C149 327.117 148.105 325.997 147 325.997C145.895 325.997 145 327.117 145 328.497C145 329.878 145.895 330.997 147 330.997Z" fill="#3F3D56"/>
<path d="M147 327.997C148.105 327.997 149 326.878 149 325.497C149 324.117 148.105 322.997 147 322.997C145.895 322.997 145 324.117 145 325.497C145 326.878 145.895 327.997 147 327.997Z" fill="#3F3D56"/>
<path d="M147 324.997C148.105 324.997 149 323.878 149 322.497C149 321.117 148.105 319.997 147 319.997C145.895 319.997 145 321.117 145 322.497C145 323.878 145.895 324.997 147 324.997Z" fill="#3F3D56"/>
<path d="M147 321.997C148.105 321.997 149 320.878 149 319.497C149 318.117 148.105 316.997 147 316.997C145.895 316.997 145 318.117 145 319.497C145 320.878 145.895 321.997 147 321.997Z" fill="#3F3D56"/>
<path d="M147 318.997C148.105 318.997 149 317.878 149 316.497C149 315.117 148.105 313.997 147 313.997C145.895 313.997 145 315.117 145 316.497C145 317.878 145.895 318.997 147 318.997Z" fill="#3F3D56"/>
<path d="M154.074 296.423C154.328 296.096 154.56 295.754 154.77 295.398L149.844 294.591L155.175 294.633C155.688 293.526 155.968 292.325 155.997 291.106C156.027 289.887 155.805 288.674 155.347 287.543L148.194 291.235L154.789 286.433C154.168 285.375 153.336 284.455 152.343 283.73C151.35 283.005 150.219 282.491 149.018 282.22C147.818 281.948 146.574 281.925 145.364 282.152C144.154 282.378 143.004 282.85 141.985 283.537C140.966 284.225 140.1 285.113 139.44 286.147C138.78 287.182 138.34 288.34 138.149 289.55C137.957 290.761 138.017 291.997 138.325 293.184C138.634 294.37 139.183 295.48 139.941 296.446C139.542 296.953 139.199 297.5 138.915 298.079L145.319 301.401L138.491 299.123C138.011 300.531 137.89 302.037 138.14 303.503C138.389 304.969 139.002 306.351 139.922 307.523C138.879 308.843 138.231 310.428 138.051 312.097C137.871 313.766 138.167 315.452 138.904 316.961C139.641 318.471 140.79 319.744 142.22 320.635C143.649 321.525 145.302 321.997 146.988 321.997C148.675 321.997 150.327 321.525 151.757 320.635C153.186 319.744 154.335 318.471 155.072 316.961C155.809 315.452 156.105 313.766 155.925 312.097C155.745 310.428 155.097 308.843 154.054 307.523C155.299 305.946 155.976 303.998 155.976 301.992C155.976 299.986 155.299 298.038 154.054 296.461L154.074 296.423Z" fill="#26A69A"/>
<path opacity="0.1" d="M138.014 302.128C138.008 304.119 138.681 306.055 139.924 307.623C138.881 308.934 138.232 310.508 138.051 312.165C137.871 313.823 138.167 315.497 138.905 316.996C139.643 318.495 140.794 319.76 142.225 320.644C143.657 321.528 145.311 321.997 147 321.997C148.689 321.997 150.343 321.528 151.775 320.644C153.206 319.76 154.357 318.495 155.095 316.996C155.833 315.497 156.129 313.823 155.949 312.165C155.768 310.508 155.119 308.934 154.076 307.623C155.293 306.11 138.014 301.133 138.014 302.128Z" fill="black"/>
<path d="M194.013 115.886C193.893 117.511 193.327 119.071 193.119 120.692C192.884 122.476 193.092 124.293 192.977 126.091C192.861 127.889 192.35 129.781 191 130.953C198.846 131.642 206.575 133.337 214 135.997C211.756 133.195 211.696 129.281 211.752 125.685C211.825 120.365 211.917 114.942 213.631 109.921C208.52 108.763 203.226 108.693 198.086 109.716C196.971 109.94 193.594 109.8 193.092 110.855C192.728 111.631 194.096 114.709 194.013 115.886Z" fill="#A1616A"/>
<path opacity="0.1" d="M194.013 115.886C193.893 117.511 193.327 119.071 193.119 120.692C192.884 122.476 193.092 124.293 192.977 126.091C192.861 127.889 192.35 129.781 191 130.953C198.846 131.642 206.575 133.337 214 135.997C211.756 133.195 211.696 129.281 211.752 125.685C211.825 120.365 211.917 114.942 213.631 109.921C208.52 108.763 203.226 108.693 198.086 109.716C196.971 109.94 193.594 109.8 193.092 110.855C192.728 111.631 194.096 114.709 194.013 115.886Z" fill="black"/>
<path d="M203.387 311.027C203.671 311.422 203.986 311.797 204.33 312.146C204.861 312.535 205.473 312.814 206.126 312.962L211.066 314.447C212.9 315.001 214.936 315.714 215.714 317.373C216.59 319.246 215.341 321.526 213.494 322.591C211.646 323.657 209.383 323.814 207.22 323.894C195.106 324.335 182.98 323.363 171.118 320.999C170.873 320.966 170.637 320.887 170.425 320.767C169.482 320.165 170.288 318.818 171.104 318.091C174.285 315.237 177.745 312.244 182.077 311.584C184.354 311.232 186.64 311.375 188.902 310.862C190.529 310.491 192.065 309.854 193.687 309.475C196.708 308.774 201.229 308.525 203.387 311.027Z" fill="#46455B"/>
<path opacity="0.1" d="M203.387 311.027C203.671 311.422 203.986 311.797 204.33 312.146C204.861 312.535 205.473 312.814 206.126 312.962L211.066 314.447C212.9 315.001 214.936 315.714 215.714 317.373C216.59 319.246 215.341 321.526 213.494 322.591C211.646 323.657 209.383 323.814 207.22 323.894C195.106 324.335 182.98 323.363 171.118 320.999C170.873 320.966 170.637 320.887 170.425 320.767C169.482 320.165 170.288 318.818 171.104 318.091C174.285 315.237 177.745 312.244 182.077 311.584C184.354 311.232 186.64 311.375 188.902 310.862C190.529 310.491 192.065 309.854 193.687 309.475C196.708 308.774 201.229 308.525 203.387 311.027Z" fill="black"/>
<path d="M178.392 204.741C175.958 211.139 175.808 218.176 177.969 224.67C176.326 224.492 175.615 226.705 175.657 228.355C175.716 230.653 176.065 232.934 176.698 235.144C176.999 236.194 177.366 237.263 177.248 238.341C177.079 239.851 176.005 241.089 175.445 242.5C174.268 245.486 175.478 248.815 175.681 252.017C175.869 255.022 175.149 257.999 174.57 260.953C173.61 265.881 173.044 270.877 172.875 275.894C172.871 277.796 172.747 279.695 172.503 281.581C172.079 284.244 171.09 286.808 170.902 289.495C170.634 293.677 172.409 297.779 172.249 301.97C172.06 306.888 169.217 311.67 170.21 316.504C170.351 317.183 170.733 317.985 171.434 317.994C178.534 318.084 185.167 316.119 192.191 317.146C192.907 300.962 193.604 284.703 196.805 268.815C199.63 254.67 204.418 240.685 203.971 226.264C203.712 218.018 201.744 209.931 200.548 201.764C193.042 200.104 185.188 201.159 178.392 204.741Z" fill="#BBBDC8"/>
<path opacity="0.1" d="M178.392 204.741C175.958 211.139 175.808 218.176 177.969 224.67C176.326 224.492 175.615 226.705 175.657 228.355C175.716 230.653 176.065 232.934 176.698 235.144C176.999 236.194 177.366 237.263 177.248 238.341C177.079 239.851 176.005 241.089 175.445 242.5C174.268 245.486 175.478 248.815 175.681 252.017C175.869 255.022 175.149 257.999 174.57 260.953C173.61 265.881 173.044 270.877 172.875 275.894C172.871 277.796 172.747 279.695 172.503 281.581C172.079 284.244 171.09 286.808 170.902 289.495C170.634 293.677 172.409 297.779 172.249 301.97C172.06 306.888 169.217 311.67 170.21 316.504C170.351 317.183 170.733 317.985 171.434 317.994C178.534 318.084 185.167 316.119 192.191 317.146C192.907 300.962 193.604 284.703 196.805 268.815C199.63 254.67 204.418 240.685 203.971 226.264C203.712 218.018 201.744 209.931 200.548 201.764C193.042 200.104 185.188 201.159 178.392 204.741Z" fill="black"/>
<path d="M210.387 318.027C210.671 318.422 210.986 318.797 211.33 319.146C211.861 319.535 212.473 319.814 213.126 319.962L218.066 321.447C219.9 322.001 221.936 322.714 222.714 324.373C223.59 326.246 222.341 328.526 220.494 329.591C218.646 330.657 216.383 330.814 214.22 330.894C202.106 331.335 189.98 330.363 178.118 327.999C177.873 327.966 177.637 327.887 177.425 327.767C176.482 327.165 177.288 325.818 178.104 325.091C181.285 322.237 184.745 319.244 189.077 318.584C191.354 318.232 193.64 318.375 195.902 317.862C197.529 317.491 199.065 316.854 200.687 316.475C203.708 315.774 208.229 315.525 210.387 318.027Z" fill="#46455B"/>
<path d="M181.472 205.201C179.678 207.535 179.148 210.617 179.389 213.54C179.631 216.463 180.612 219.269 181.574 222.038C180.296 223.22 180.561 225.256 180.728 226.993C181.337 233.446 179.106 239.885 179.431 246.357C179.566 249.079 180.156 251.764 180.296 254.486C180.449 257.46 180.073 260.435 179.719 263.39C177.462 282.313 176.221 301.343 176 320.399C176 322.155 175.972 323.938 176.465 325.619C179.845 328.117 184.089 328.454 188.18 327.52C192.271 326.586 196.004 324.503 199.672 322.449C201.682 321.404 203.587 320.169 205.362 318.76C205.905 318.374 206.307 317.82 206.506 317.182C206.896 315.314 204.312 314.469 202.829 313.26C200.672 311.499 200.704 308.24 200.927 305.457L202.276 288.572C202.582 284.748 202.88 280.849 202.015 277.114C201.662 275.601 201.118 274.046 201.443 272.524C201.973 270.049 204.521 268.667 206.255 266.822C208.877 264.021 209.686 260.047 210.29 256.265C213.138 238.322 213.744 220.091 212.094 201.997C208.677 203.188 204.628 202.539 201.025 202.819C197.422 203.099 193.843 204.309 190.193 204.407C187.153 204.477 183.341 202.791 181.472 205.201Z" fill="#BBBDC8"/>
<path d="M206 120.997C215.389 120.997 223 113.162 223 103.497C223 93.8324 215.389 85.9974 206 85.9974C196.611 85.9974 189 93.8324 189 103.497C189 113.162 196.611 120.997 206 120.997Z" fill="#A1616A"/>
<path d="M215.602 131.863C210.102 129.299 204.366 127.29 198.478 125.864C194.33 124.861 189.593 124.258 186.128 126.778C185.2 127.451 184.36 128.511 184.56 129.65C185.171 129.671 185.755 129.911 186.208 130.329C186.661 130.746 186.953 131.313 187.032 131.929C187.134 132.928 186.652 133.883 186.179 134.755L182.175 142.289C181.408 143.646 180.748 145.063 180.203 146.527C179.396 148.919 179.219 151.481 179.048 154.005L178.584 160.842C178.296 165.151 178.004 169.479 178.389 173.778C178.677 177.022 179.345 180.281 178.89 183.507C178.524 186.101 177.443 188.536 176.835 191.088C175.693 195.891 176.213 201.156 174 205.564C174.899 205.142 175.913 205.049 176.872 205.3C183.59 206.557 188.874 211.94 195.397 213.997C197.044 211.558 199.276 209.759 201.118 207.49C202.488 205.788 203.395 203.752 203.749 201.584C205.14 203.468 206.323 204.937 207.154 207.122C207.302 207.631 207.555 208.101 207.896 208.502C208.773 209.368 210.216 209.034 211.39 208.671C217.144 206.91 223.094 205.886 229.099 205.625C230.064 205.582 230.532 205.112 230.834 204.179C231.136 203.247 230.968 202.239 230.788 201.278C229.632 195.001 228.343 188.715 228.129 182.334C227.999 178.567 228.254 174.748 227.786 170.99C227.554 169.149 227.15 167.336 226.751 165.528L223.439 150.586C223.253 149.753 222.371 149.206 221.996 148.439C220.474 145.312 217.565 143.052 216.062 139.916C214.926 137.383 214.762 134.512 215.602 131.863Z" fill="#46455B"/>
<path d="M191.187 110.039C191.166 109.795 191.224 109.55 191.352 109.341C191.539 109.145 191.773 109.001 192.031 108.922C192.735 108.588 193.31 108.034 193.67 107.344C194.031 106.654 194.156 105.865 194.027 105.097L195.678 104.753L195.73 99.0051C198.184 97.6471 201.529 98.675 203.836 97.0765C205.133 96.1712 205.799 94.634 206.591 93.2665C207.384 91.8991 208.563 90.5222 210.139 90.409C209.597 91.7867 209.365 93.2665 209.459 94.7438C209.553 96.2211 209.97 97.6598 210.682 98.958C212.334 98.1223 213.714 96.8334 214.659 95.2423L215.48 99.9576C215.497 100.248 215.621 100.522 215.829 100.726C216.259 101.042 216.839 100.646 217.216 100.255L219.354 98.1563C220.253 100.412 220.87 102.77 221.189 105.178C224.699 101.773 225.789 96.3032 224.44 91.6067C223.09 86.9102 219.557 83.0201 215.301 80.6199C211.045 78.2198 206.11 77.2107 201.227 77.0315C199.588 76.9357 197.943 77.0418 196.33 77.3475C194.599 77.7826 192.924 78.4155 191.338 79.2336C188.899 80.3795 186.436 81.6384 184.615 83.6189C181.444 87.0705 180.732 92.1443 181.081 96.8219C181.553 102.952 183.544 108.87 185.86 114.566C186.629 116.452 187.45 118.362 188.719 119.97C190.63 122.389 195.325 120.38 194.725 115.598C194.31 112.185 191.187 113.5 191.187 110.039Z" fill="#0D352D"/>
<path d="M198.276 203.678C192.421 215.627 183.43 225.765 172.262 233.012C168.889 235.191 165.225 237.131 161.279 237.769C160.74 237.858 160.2 237.918 159.651 237.956C157.616 238.124 155.572 237.778 153.707 236.949C152.472 236.327 151.329 235.539 150.31 234.606C146.66 231.414 143.759 227.457 141.814 223.017C140.671 220.231 139.723 217.369 138.976 214.451C137.825 210.371 136.677 206.29 135.532 202.207C134.411 198.215 133.28 194.175 133.046 190.024C132.666 183.281 134.693 176.603 137.54 170.479C138.026 169.535 138.417 168.547 138.708 167.526C138.708 167.456 138.741 167.386 138.755 167.311C139.093 165.694 138.92 164.003 139.224 162.372C139.797 159.092 142.218 156.374 145.061 154.645C147.904 152.916 151.16 152.03 154.392 151.168L159.426 149.814L162.55 148.975L175.26 145.559C177.019 145.09 178.797 144.467 180.584 144.153C182.578 143.778 182.564 143.975 182.719 145.924C183.005 149.458 182.911 152.93 183.657 156.43C184.366 159.771 185.614 162.991 186.552 166.271C188.921 174.551 189.315 183.267 191.182 191.678C191.609 193.594 192.201 195.637 193.744 196.832C195.513 198.238 198.492 198.585 198.961 200.787C199.135 201.767 198.698 202.769 198.276 203.678Z" fill="#26A69A"/>
<path opacity="0.1" d="M161.142 237.764C160.605 237.854 160.068 237.915 159.522 237.953C157.499 238.128 155.464 237.786 153.607 236.959C152.378 236.336 151.24 235.543 150.226 234.606C146.593 231.399 143.706 227.424 141.771 222.963C140.634 220.164 139.69 217.288 138.947 214.357C137.801 210.259 136.659 206.158 135.52 202.056C134.404 198.045 133.279 193.987 133.046 189.816C132.667 183.041 134.684 176.333 137.518 170.18C138.002 169.232 138.391 168.239 138.681 167.214C138.681 167.143 138.713 167.073 138.727 166.997C146.347 168.349 155.488 183.046 160.203 202.306C163.677 216.707 163.826 229.968 161.142 237.764Z" fill="black"/>
<path opacity="0.1" d="M174.974 186.78L173.674 186.997C172.336 183.588 171.003 180.174 169.437 176.856C168.622 175.124 167.742 173.414 167.056 171.626C164.485 164.761 164.923 156.616 160.157 150.961C159.817 150.541 159.429 150.16 159 149.824L162.171 148.997C164.948 153.258 166.906 157.971 167.951 162.908C168.465 165.32 168.756 167.787 169.594 170.106C170.307 171.866 171.122 173.584 172.036 175.253C173.846 178.852 175.207 182.784 174.974 186.78Z" fill="black"/>
<path d="M187.186 133.965C190.612 131.045 195.286 129.443 199.721 130.173C202.332 130.595 204.757 131.766 207.096 133.017C211.655 135.425 216.148 138.198 219.435 142.157C221.406 144.653 223.043 147.394 224.304 150.31C224.923 151.585 225.402 152.921 225.734 154.297C226.896 159.654 224.042 164.977 221.293 169.727L216.005 178.857C213.575 183.053 211.126 187.277 207.963 190.96C206.505 192.657 204.904 194.226 203.308 195.795L196.3 202.678C196.174 202.826 196.009 202.936 195.824 202.996C195.671 203.004 195.518 202.979 195.376 202.923C195.233 202.866 195.105 202.779 195 202.669L192.684 200.834C194.817 199.368 196.799 197.696 198.601 195.843C201.631 192.723 204.123 189.135 206.601 185.56L214.309 174.439C216.562 171.183 218.916 167.599 218.663 163.655C218.544 161.759 217.83 159.976 217.082 158.236C215.757 155.142 214.319 152.098 212.765 149.102C211.022 145.741 209.116 142.422 206.605 139.583C204.095 136.743 200.922 134.368 197.267 133.339C196.178 132.985 195.022 132.875 193.885 133.017C191.379 133.43 189.597 135.572 188.011 137.563L183.18 143.726C182.079 145.124 181.069 146.746 181.002 144.091C180.888 140.303 184.738 136.402 187.186 133.965Z" fill="#26A69A"/>
<path d="M188.546 175.414C189.488 179.055 190.879 183.188 194.372 184.569C196.847 185.548 199.746 184.754 201.886 183.15C204.026 181.547 205.544 179.287 206.939 177.003C208.12 174.95 209.422 172.97 210.838 171.072C213.633 167.554 217.437 164.764 219.323 160.668C219.879 159.448 220.266 158.143 220.897 156.97C221.572 155.889 222.335 154.865 223.179 153.91C225.349 151.213 227.085 148.19 228.322 144.953C228.755 143.823 229.128 142.613 228.958 141.416C228.623 139.113 226.45 137.6 224.428 136.469C223.198 135.784 221.911 135.117 220.511 135.013C218.465 134.852 216.452 135.959 215.193 137.581C213.982 139.259 213.305 141.265 213.251 143.336C213.11 145.857 213.6 148.477 212.78 150.86C212.346 151.972 211.747 153.012 211.003 153.943C208.355 157.497 205.077 160.532 201.334 162.896C201.232 161.107 200.845 159.346 200.189 157.679C199.831 156.762 192.807 157.679 191.892 157.831C190.082 158.096 186.575 158.304 185.434 160.035C184.294 161.765 185.708 164.674 186.17 166.419L188.546 175.414Z" fill="#A1616A"/>
<path d="M188.313 136.196C187.277 137.044 186.313 137.974 185.431 138.978C183.354 141.458 182.339 144.684 182.077 147.896C181.815 151.108 182.26 154.335 182.816 157.51C183.321 160.359 183.919 163.188 184.608 165.997C184.8 163.879 186.53 162.127 188.537 161.362C190.544 160.597 192.747 160.681 194.885 160.991C197.636 161.395 200.32 162.164 202.865 163.276L203.852 149.57C204.06 147.72 204.049 145.854 203.819 144.007C203.508 142.294 202.833 140.665 201.838 139.231C200.842 137.796 199.55 136.588 198.047 135.687C194.295 133.424 191.681 133.281 188.313 136.196Z" fill="#46455B"/>
<path d="M289.85 319.133C290.886 320.076 292.471 320.052 293.877 319.948L300.286 319.477C305.378 319.1 310.643 318.676 315.134 316.239C315.61 316.02 316.031 315.699 316.367 315.296C316.724 314.68 316.91 313.978 316.906 313.265C317.513 306.284 318.894 299.393 321.023 292.72C323.836 283.836 328.055 275.079 327.999 265.78C327.999 265.554 327.999 265.309 327.999 265.106C327.919 262.193 327.408 259.313 327.094 256.415C326.574 251.565 326.625 246.677 326.663 241.804C326.623 239.893 326.755 237.983 327.057 236.096C327.352 234.565 328.463 233.028 327.783 231.68C326.466 229.064 321.689 228.103 319.119 228.009C315.659 227.886 312.255 228.796 308.913 229.701C307.895 229.979 306.831 230.276 306.062 230.997C305.031 231.968 304.735 233.49 304.698 234.909C304.52 241.201 308.125 247.054 308.411 253.337C308.463 254.468 308.411 255.694 309.067 256.636C309.5 257.15 309.971 257.63 310.474 258.074C311.88 259.624 311.923 261.962 311.824 264.064C311.782 264.913 311.735 265.761 311.679 266.609C310.913 277.932 308.637 289.1 304.913 299.814C304.555 300.957 304.083 302.063 303.507 303.113C302.566 304.587 301.391 305.896 300.028 306.987C298.097 308.645 296.028 310.134 293.844 311.436C292.386 312.304 290.83 313.133 289.831 314.509C288.832 315.886 288.612 317.973 289.85 319.133Z" fill="#FDA8A8"/>
<path opacity="0.1" d="M289.85 319.133C290.886 320.076 292.471 320.052 293.877 319.948L300.286 319.477C305.378 319.1 310.643 318.676 315.134 316.239C315.61 316.02 316.031 315.699 316.367 315.296C316.724 314.68 316.91 313.978 316.906 313.265C317.513 306.284 318.894 299.393 321.023 292.72C323.836 283.836 328.055 275.079 327.999 265.78C327.999 265.554 327.999 265.309 327.999 265.106C327.919 262.193 327.408 259.313 327.094 256.415C326.574 251.565 326.625 246.677 326.663 241.804C326.623 239.893 326.755 237.983 327.057 236.096C327.352 234.565 328.463 233.028 327.783 231.68C326.466 229.064 321.689 228.103 319.119 228.009C315.659 227.886 312.255 228.796 308.913 229.701C307.895 229.979 306.831 230.276 306.062 230.997C305.031 231.968 304.735 233.49 304.698 234.909C304.52 241.201 308.125 247.054 308.411 253.337C308.463 254.468 308.411 255.694 309.067 256.636C309.5 257.15 309.971 257.63 310.474 258.074C311.88 259.624 311.923 261.962 311.824 264.064C311.782 264.913 311.735 265.761 311.679 266.609C310.913 277.932 308.637 289.1 304.913 299.814C304.555 300.957 304.083 302.063 303.507 303.113C302.566 304.587 301.391 305.896 300.028 306.987C298.097 308.645 296.028 310.134 293.844 311.436C292.386 312.304 290.83 313.133 289.831 314.509C288.832 315.886 288.612 317.973 289.85 319.133Z" fill="black"/>
<path d="M289.85 319.136C290.886 320.075 292.471 320.052 293.877 319.949L300.286 319.479C305.378 319.104 310.643 318.681 315.134 316.254C315.61 316.036 316.031 315.716 316.367 315.315C316.725 314.701 316.911 314.003 316.907 313.292C317.513 306.339 318.894 299.476 321.023 292.83C323.836 283.981 328.056 275.259 327.999 265.997C322.581 266.597 317.13 266.867 311.679 266.805C310.913 278.082 308.638 289.205 304.914 299.876C304.555 301.015 304.083 302.116 303.507 303.162C302.566 304.63 301.391 305.934 300.028 307.02C298.097 308.672 296.028 310.154 293.844 311.452C292.386 312.316 290.83 313.142 289.831 314.513C288.832 315.883 288.612 317.982 289.85 319.136Z" fill="#EEEFF3"/>
<path opacity="0.1" d="M289.85 319.136C290.886 320.075 292.471 320.052 293.877 319.949L300.286 319.479C305.378 319.104 310.643 318.681 315.134 316.254C315.61 316.036 316.031 315.716 316.367 315.315C316.725 314.701 316.911 314.003 316.907 313.292C317.513 306.339 318.894 299.476 321.023 292.83C323.836 283.981 328.056 275.259 327.999 265.997C322.581 266.597 317.13 266.867 311.679 266.805C310.913 278.082 308.638 289.205 304.914 299.876C304.555 301.015 304.083 302.116 303.507 303.162C302.566 304.63 301.391 305.934 300.028 307.02C298.097 308.672 296.028 310.154 293.844 311.452C292.386 312.316 290.83 313.142 289.831 314.513C288.832 315.883 288.612 317.982 289.85 319.136Z" fill="black"/>
<path d="M304.265 316.943C305.824 316.391 307.322 315.684 308.736 314.833L315.888 310.846C316.534 310.433 317.254 310.145 318.009 309.997L318.864 316.306C319.077 317.853 319.191 319.673 318.009 320.71C317.587 321.043 317.104 321.291 316.586 321.441C313.99 322.328 311.19 322.346 308.442 322.431C300.003 322.698 291.48 323.674 283.165 322.21C282.149 322.032 281.048 321.741 280.436 320.944C279.738 320.006 279.938 318.646 280.612 317.694C281.35 316.789 282.291 316.065 283.359 315.579C285.476 314.453 287.674 313.496 289.871 312.535C290.007 312.455 290.167 312.429 290.322 312.46C290.535 312.53 290.602 312.788 290.659 313.004C291.043 314.542 292.296 315.757 293.725 316.484C293.744 316.484 301.104 317.938 304.265 316.943Z" fill="#BBBDC8"/>
<path opacity="0.1" d="M304.265 316.943C305.824 316.391 307.322 315.684 308.736 314.833L315.888 310.846C316.534 310.433 317.254 310.145 318.009 309.997L318.864 316.306C319.077 317.853 319.191 319.673 318.009 320.71C317.587 321.043 317.104 321.291 316.586 321.441C313.99 322.328 311.19 322.346 308.442 322.431C300.003 322.698 291.48 323.674 283.165 322.21C282.149 322.032 281.048 321.741 280.436 320.944C279.738 320.006 279.938 318.646 280.612 317.694C281.35 316.789 282.291 316.065 283.359 315.579C285.476 314.453 287.674 313.496 289.871 312.535C290.007 312.455 290.167 312.429 290.322 312.46C290.535 312.53 290.602 312.788 290.659 313.004C291.043 314.542 292.296 315.757 293.725 316.484C293.744 316.484 301.104 317.938 304.265 316.943Z" fill="black"/>
<path d="M294.85 326.133C295.886 327.076 297.471 327.052 298.877 326.948L305.286 326.477C310.378 326.1 315.643 325.676 320.134 323.239C320.61 323.02 321.031 322.699 321.367 322.296C321.724 321.68 321.91 320.978 321.906 320.265C322.513 313.284 323.894 306.393 326.023 299.72C328.836 290.836 333.055 282.079 332.999 272.78C332.999 272.554 332.999 272.309 332.999 272.106C332.919 269.193 332.408 266.313 332.094 263.415C331.574 258.565 331.625 253.677 331.663 248.804C331.623 246.893 331.755 244.983 332.057 243.096C332.352 241.565 333.463 240.028 332.783 238.68C331.466 236.064 326.689 235.103 324.119 235.009C320.659 234.886 317.255 235.796 313.913 236.701C312.895 236.979 311.831 237.276 311.062 237.997C310.031 238.968 309.735 240.49 309.698 241.909C309.52 248.201 313.125 254.054 313.411 260.337C313.463 261.468 313.411 262.694 314.067 263.636C314.5 264.15 314.971 264.63 315.474 265.074C316.88 266.624 316.923 268.962 316.824 271.064C316.782 271.913 316.735 272.761 316.679 273.609C315.913 284.932 313.637 296.1 309.913 306.814C309.555 307.957 309.083 309.063 308.507 310.113C307.566 311.587 306.391 312.896 305.028 313.987C303.097 315.645 301.028 317.134 298.844 318.436C297.386 319.304 295.83 320.133 294.831 321.509C293.832 322.886 293.612 324.973 294.85 326.133Z" fill="#FDA8A8"/>
<path d="M294.85 326.12C295.886 327.077 297.471 327.053 298.877 326.948L305.286 326.469C310.378 326.087 315.643 325.657 320.134 323.185C320.61 322.963 321.031 322.636 321.367 322.229C321.725 321.603 321.911 320.892 321.907 320.168C322.513 313.086 323.894 306.096 326.023 299.327C328.836 290.314 333.056 281.431 332.999 271.997C327.581 272.608 322.13 272.883 316.679 272.82C315.913 284.306 313.638 295.635 309.914 306.503C309.555 307.664 309.083 308.785 308.507 309.85C307.566 311.346 306.391 312.673 305.028 313.78C303.097 315.462 301.028 316.972 298.844 318.294C297.386 319.173 295.83 320.015 294.831 321.411C293.832 322.807 293.612 324.944 294.85 326.12Z" fill="#EEEFF3"/>
<path d="M308.643 323.943C310.162 323.391 311.621 322.684 312.999 321.833L319.968 317.846C320.597 317.433 321.299 317.145 322.035 316.997L322.867 323.306C323.075 324.853 323.186 326.673 322.035 327.71C321.624 328.043 321.152 328.291 320.648 328.441C318.118 329.328 315.39 329.346 312.712 329.431C304.491 329.698 296.185 330.674 288.084 329.21C287.094 329.032 286.021 328.741 285.425 327.944C284.745 327.006 284.939 325.646 285.596 324.694C286.316 323.789 287.232 323.065 288.273 322.579C290.336 321.453 292.477 320.496 294.618 319.535C294.75 319.455 294.907 319.429 295.057 319.46C295.265 319.53 295.33 319.788 295.385 320.004C295.76 321.542 296.981 322.757 298.373 323.484C298.391 323.484 305.563 324.938 308.643 323.943Z" fill="#BBBDC8"/>
<path d="M285 134.997C287.342 132.193 287.404 128.276 287.347 124.677C287.347 123.274 287.303 121.825 287.25 120.4V120.367C287.185 117.747 286.901 115.136 286.399 112.561C286.146 111.325 285.809 110.107 285.39 108.915C285.707 108.845 286.024 108.779 286.351 108.723C291.392 107.755 296.578 107.755 301.619 108.723C302.489 108.891 304.691 108.854 305.947 109.27C306.304 109.353 306.615 109.565 306.817 109.864C307.062 110.364 306.557 111.813 306.192 113.098C305.991 113.678 305.877 114.282 305.855 114.893C305.904 115.467 305.994 116.037 306.124 116.599C306.35 117.632 306.649 118.656 306.788 119.703C307.033 121.489 306.817 123.307 306.937 125.107C307.057 126.906 307.591 128.799 309 129.972C300.814 130.655 292.749 132.343 285 134.997Z" fill="#FDA8A8"/>
<path opacity="0.1" d="M308 116.112C307.381 116.162 306.766 116.221 306.137 116.289C299.935 116.932 293.814 118.174 287.866 119.997V119.966L287.042 112.413C287.042 111.96 287.042 111.508 287.042 111.033C287.042 110.26 287.019 109.477 287 108.7C291.881 107.763 296.903 107.763 301.784 108.7C302.627 108.862 304.759 108.826 305.975 109.229C305.975 109.966 305.975 110.703 306.002 111.44C306.033 111.942 306.103 112.441 306.212 112.933C306.435 114.154 307.063 115.27 308 116.112Z" fill="black"/>
<path d="M296 117.997C305.389 117.997 313 110.162 313 100.497C313 90.8324 305.389 82.9974 296 82.9974C286.611 82.9974 279 90.8324 279 100.497C279 110.162 286.611 117.997 296 117.997Z" fill="#FDA8A8"/>
<path d="M280.596 166.841C277.493 155.894 280.326 144.138 287.737 135.494C289.385 133.569 291.043 131.592 293.206 130.438C295.78 129.073 298.826 129.026 301.74 128.997C304.314 128.997 306.968 128.997 309.335 130.019C312.532 131.38 314.738 134.336 316.599 137.269C318.582 140.396 320.377 143.781 320.679 147.472C320.84 149.661 320.453 151.883 320.778 154.063C321.194 156.827 322.738 159.303 323.371 162.024C323.716 163.493 323.787 165.014 324.009 166.511C324.343 168.559 324.83 170.58 325.464 172.556C330.156 188.088 336.582 203.047 344.62 217.151C346.981 221.308 349.508 225.418 351.095 229.924C351.813 231.962 352.332 234.161 351.747 236.261C350.769 239.745 346.353 241.793 343.052 240.291C343.174 240.678 343.149 241.096 342.982 241.466C342.815 241.836 342.517 242.131 342.145 242.296C341.36 242.65 340.502 242.811 339.642 242.767L310.473 243.539C309.707 243.559 308.945 243.661 308.201 243.845C304.772 244.721 306.062 246.199 305.693 247.433C305.245 248.939 303.077 248.817 301.565 248.375C301.797 250.573 301.849 253.261 299.001 253.902C298.262 254.051 297.499 254.025 296.772 253.826C291.604 252.499 286.245 252.069 280.931 252.555C278.985 252.734 276.76 252.951 275.32 251.614C274.234 250.62 273.95 249.038 273.766 247.579C270.861 224.509 276.836 201.407 281.323 178.615C281.927 175.541 281.71 170.56 280.803 167.556L280.596 166.841Z" fill="#F8A724"/>
<path d="M318.938 150.756C319.627 152.713 320.486 154.637 320.719 156.698C320.904 158.346 320.681 160.013 320.781 161.666C320.963 163.501 321.347 165.311 321.926 167.065C322.84 170.475 323.968 173.826 325.302 177.099C325.939 178.574 326.675 180.199 326.162 181.721C325.649 183.242 324.058 184.184 323.602 185.696C323.127 187.293 324.077 188.974 325.288 190.14C326.499 191.306 328.014 192.134 329.135 193.375C330.356 194.729 331.035 196.456 331.894 198.058C333.115 200.176 334.515 202.189 336.079 204.075L341.821 211.422C342.179 211.951 342.648 212.398 343.198 212.733C345.098 213.707 347.088 211.745 349.021 210.86C351.585 209.656 354.587 210.363 357.422 210.565C360.257 210.766 363.672 210.04 364.684 207.427C365.019 206.367 365.089 205.243 364.888 204.15C364.444 200.414 363.348 196.781 361.649 193.413C360.614 191.362 359.35 189.4 358.7 187.204C358.168 185.42 358.063 183.542 357.641 181.73C357.218 179.918 356.472 178.185 355.874 176.415C351.628 163.838 354.819 150.077 353.447 136.891C352.939 132.026 351.433 126.692 347.187 124.159C344.665 122.656 341.635 122.422 338.638 122.286L337.285 122.225L335.105 122.118C331.951 121.963 328.788 121.846 325.716 122.506C321.394 123.443 316.193 126.753 316.022 131.511C315.836 138.045 316.823 144.56 318.938 150.756Z" fill="#26A69A"/>
<path opacity="0.1" d="M335 121.997C335.581 125.211 335.871 128.47 335.866 131.736C335.952 141.058 336.96 150.343 337.973 159.6L338.641 165.74C338.764 166.873 338.911 168.063 339.588 168.975C340.265 169.886 341.685 170.363 342.58 169.66C343.129 167.492 343.02 165.215 342.911 162.982C342.675 158.231 342.44 153.478 342.206 148.724C341.979 144.095 341.733 139.462 341.169 134.862C340.727 131.299 340.076 127.765 339.218 124.278C339.056 123.556 338.829 122.85 338.541 122.167L337.192 122.106L335 121.997Z" fill="black"/>
<path d="M304.603 125.342C301.682 124.928 298.623 124.716 295.849 125.718C293.2 126.682 291.084 128.661 289.178 130.744C287.879 132.086 286.804 133.624 285.995 135.3C284.37 138.987 285.004 143.237 285.995 147.14C288.697 157.888 294.062 168.256 302.673 175.351C305.294 177.452 308.084 179.339 311.017 180.993C314.829 183.198 318.765 185.225 322.982 186.499C324.159 186.856 325.412 187.157 326.617 186.903C327.823 186.649 328.962 185.685 329 184.468C322.091 180.636 315.896 175.684 309.744 170.757C308.058 169.473 306.479 168.058 305.022 166.525C302.84 164.104 301.3 161.179 299.185 158.701C297.279 156.477 294.896 154.601 293.467 152.058C292.57 150.32 291.969 148.449 291.689 146.519C290.984 142.584 290.851 138.404 292.433 134.722C294.015 131.04 297.641 128.017 301.691 128.083C303.769 128.116 305.746 128.929 307.662 129.724L319.718 134.746C319.57 134.68 320.409 132.616 320.37 132.329C320.256 131.431 320.094 131.417 319.417 130.735C318.264 129.597 316.473 128.798 315.01 128.135C311.694 126.717 308.189 125.776 304.603 125.342Z" fill="#26A69A"/>
<path d="M280.809 97.6652C284.231 96.909 287.397 95.2846 290 92.9501L287.493 106.039C289.991 104.899 292.413 103.601 294.745 102.154C295.082 108.142 294.594 114.267 292.375 119.84C290.157 125.413 286.066 130.402 280.577 132.877C285.45 133.688 289.825 130.209 294.162 127.856C297.187 126.22 302.353 127.903 305.662 126.913C308.468 126.092 311.35 125.376 313.882 123.909C318.584 121.179 319.651 113.206 320.603 107.878C321.556 102.55 320.689 97.0334 319.105 91.8468C318.578 90.0099 317.865 88.2311 316.977 86.5376C315.756 84.3137 314.084 82.3659 312.068 80.8173C310.052 79.2686 307.734 78.1529 305.262 77.5405C302.79 76.9281 300.217 76.8324 297.706 77.2594C295.195 77.6864 292.801 78.6269 290.674 80.0213C286.303 82.8834 282.25 87.094 278.913 91.0876C278.439 91.6393 276.481 93.6008 277.131 94.4259C277.922 95.4255 282.568 92.5776 283.355 92.191C283.127 93.0444 281.714 97.4436 280.809 97.6652Z" fill="#0D352D"/>
<g opacity="0.1">
<path opacity="0.1" d="M300.55 249.718C299.814 249.867 299.054 249.841 298.33 249.643C293.183 248.317 287.847 247.887 282.554 248.373C280.617 248.552 278.401 248.768 276.967 247.432C275.885 246.44 275.603 244.859 275.419 243.401C272.527 220.354 278.476 197.275 282.945 174.505C283.547 171.434 283.33 166.458 282.427 163.457L282.216 162.728C280.475 156.51 280.577 149.92 282.512 143.759C279.303 150.908 278.696 158.955 280.795 166.505L281.007 167.234C281.91 170.235 282.126 175.23 281.524 178.282C277.07 201.052 271.12 224.145 273.999 247.178C274.182 248.636 274.469 250.217 275.546 251.209C276.957 252.531 279.196 252.314 281.134 252.15C286.426 251.664 291.763 252.094 296.909 253.42C297.633 253.618 298.394 253.644 299.129 253.495C301.443 252.973 301.834 251.087 301.777 249.219C301.402 249.458 300.986 249.627 300.55 249.718Z" fill="black"/>
<path opacity="0.1" d="M344.413 236.12C344.535 236.507 344.51 236.925 344.343 237.294C344.177 237.664 343.88 237.959 343.51 238.124C342.728 238.477 341.874 238.638 341.017 238.594L311.969 239.366C311.206 239.385 310.447 239.487 309.707 239.671C306.292 240.546 307.576 242.023 307.209 243.255C306.762 244.761 304.603 244.638 303.098 244.196C303.239 245.537 303.31 247.056 302.703 248.185C304.025 248.382 305.445 248.208 305.798 247.018C306.151 245.828 304.881 244.309 308.295 243.434C309.036 243.25 309.795 243.148 310.558 243.128L339.587 242.357C340.444 242.401 341.299 242.24 342.08 241.887C342.45 241.722 342.747 241.427 342.914 241.057C343.08 240.688 343.105 240.27 342.983 239.883C346.276 241.383 350.669 239.338 351.642 235.857C351.789 235.33 351.871 234.786 351.887 234.239C350.128 236.346 346.944 237.287 344.413 236.12Z" fill="black"/>
</g>
<path d="M305.759 137.997C308.292 143.263 310.531 148.659 312.467 154.161C314.03 158.595 315.408 163.253 314.888 167.915C314.369 172.577 311.551 177.286 306.975 178.754C305.03 179.379 302.947 179.384 300.901 179.43C296.003 179.543 291.115 179.929 286.261 180.587C284.002 180.952 281.725 181.2 279.439 181.328C276.207 181.431 272.975 180.936 269.753 181.193C264.537 181.608 259.584 183.99 254.35 183.99C253.711 184.029 253.073 183.913 252.49 183.654C251.537 183.151 251.113 182.06 250.789 181.053C250.059 178.778 249.487 176.167 250.722 174.111C252.243 171.579 255.699 171.071 258.697 170.847C265.448 170.381 272.206 170.055 278.972 169.868C284.745 169.71 291 169.495 295.476 165.924C295.778 165.713 296.025 165.435 296.196 165.113C296.365 164.567 296.345 163.982 296.139 163.448C294.365 156.668 293.604 149.672 293.879 142.678C293.849 142.051 294.015 141.429 294.356 140.897C294.761 140.47 295.287 140.172 295.867 140.039C299.864 138.785 304.143 138.669 308.205 139.704" fill="#FDA8A8"/>
<path d="M293.744 142.761C293.058 142.992 292.46 143.423 292.032 143.997C292.221 142.066 291.966 140.116 292.004 138.17C292.042 136.225 292.41 134.196 293.663 132.686C295.256 130.759 297.965 130.068 300.499 130.004C304.177 129.906 307.983 130.953 310.677 133.408C312.412 134.999 313.538 137.125 313.868 139.43C313.953 140.065 314.237 142.446 313.561 142.853C312.97 143.215 310.724 141.968 310.001 141.769C304.631 140.223 298.877 140.574 293.744 142.761Z" fill="#F75842"/>
<path opacity="0.2" d="M222.5 31.9974C224.433 31.9974 226 30.4304 226 28.4974C226 26.5644 224.433 24.9974 222.5 24.9974C220.567 24.9974 219 26.5644 219 28.4974C219 30.4304 220.567 31.9974 222.5 31.9974Z" fill="#FF7700"/>
<path opacity="0.2" d="M244.5 94.9974C246.433 94.9974 248 93.4304 248 91.4974C248 89.5644 246.433 87.9974 244.5 87.9974C242.567 87.9974 241 89.5644 241 91.4974C241 93.4304 242.567 94.9974 244.5 94.9974Z" fill="#FF7700"/>
<path opacity="0.2" d="M182 34.9974C183.657 34.9974 185 33.4304 185 31.4974C185 29.5644 183.657 27.9974 182 27.9974C180.343 27.9974 179 29.5644 179 31.4974C179 33.4304 180.343 34.9974 182 34.9974Z" fill="#FF7700"/>
<path opacity="0.2" d="M80.5 189.997C85.1944 189.997 89 186.192 89 181.497C89 176.803 85.1944 172.997 80.5 172.997C75.8056 172.997 72 176.803 72 181.497C72 186.192 75.8056 189.997 80.5 189.997Z" fill="#FF7700"/>
<path opacity="0.2" d="M422 49.9974C423.657 49.9974 425 48.6542 425 46.9974C425 45.3405 423.657 43.9974 422 43.9974C420.343 43.9974 419 45.3405 419 46.9974C419 48.6542 420.343 49.9974 422 49.9974Z" fill="#FF7700"/>
<path opacity="0.2" d="M425.5 102.997C431.299 102.997 436 98.0725 436 91.9974C436 85.9222 431.299 80.9974 425.5 80.9974C419.701 80.9974 415 85.9222 415 91.9974C415 98.0725 419.701 102.997 425.5 102.997Z" fill="#FF7700"/>
<path opacity="0.2" d="M443 63.9974C444.657 63.9974 446 62.6542 446 60.9974C446 59.3405 444.657 57.9974 443 57.9974C441.343 57.9974 440 59.3405 440 60.9974C440 62.6542 441.343 63.9974 443 63.9974Z" fill="#FF7700"/>
<path opacity="0.2" d="M414 124.997C415.657 124.997 417 123.43 417 121.497C417 119.564 415.657 117.997 414 117.997C412.343 117.997 411 119.564 411 121.497C411 123.43 412.343 124.997 414 124.997Z" fill="#FF7700"/>
<path opacity="0.2" d="M216 57.9974C217.657 57.9974 219 56.4304 219 54.4974C219 52.5644 217.657 50.9974 216 50.9974C214.343 50.9974 213 52.5644 213 54.4974C213 56.4304 214.343 57.9974 216 57.9974Z" fill="#FF7700"/>
<path opacity="0.2" d="M92.5 223.997C94.433 223.997 96 222.654 96 220.997C96 219.341 94.433 217.997 92.5 217.997C90.567 217.997 89 219.341 89 220.997C89 222.654 90.567 223.997 92.5 223.997Z" fill="#FF7700"/>
<path opacity="0.2" d="M87.5 148.997C89.433 148.997 91 147.654 91 145.997C91 144.341 89.433 142.997 87.5 142.997C85.567 142.997 84 144.341 84 145.997C84 147.654 85.567 148.997 87.5 148.997Z" fill="#FF7700"/>
<path opacity="0.2" d="M268 27.9974C269.657 27.9974 271 26.6542 271 24.9974C271 23.3405 269.657 21.9974 268 21.9974C266.343 21.9974 265 23.3405 265 24.9974C265 26.6542 266.343 27.9974 268 27.9974Z" fill="#FF7700"/>
<path opacity="0.2" d="M279 57.9974C280.657 57.9974 282 56.4304 282 54.4974C282 52.5644 280.657 50.9974 279 50.9974C277.343 50.9974 276 52.5644 276 54.4974C276 56.4304 277.343 57.9974 279 57.9974Z" fill="#FF7700"/>
</svg>
