<svg width="150" height="160" viewBox="0 0 150 160" fill="none" xmlns="http://www.w3.org/2000/svg">
<path d="M57.8248 113.41C59.6026 107.78 61.973 102.684 65.2322 97.5285C67.3656 94.1507 70.0322 90.6544 73.5285 88.6396C76.8471 86.7433 80.1063 86.9211 83.5434 89.173C91.1285 94.0915 95.573 104.047 99.1878 111.928C100.847 115.543 106.24 112.403 104.58 108.788C99.6619 98.0026 89.2915 76.7878 73.8248 81.7655C64.4619 84.7878 58.773 95.2174 55.0397 103.632C53.8545 106.299 52.7285 109.025 51.8397 111.751C50.5952 115.603 56.5804 117.203 57.8248 113.41Z" fill="#007C6B"/>
<path d="M56.3435 114.003C58.299 107.543 60.9064 101.617 64.3435 95.81C66.5953 92.0175 69.4398 88.0471 73.1731 85.7952C76.7287 83.6026 80.225 83.7804 83.9583 86.3878C92.1953 92.136 96.8768 103.395 100.669 112.225C102.269 115.899 107.603 112.699 106.062 109.084C101.203 97.7063 90.2398 72.936 73.4694 78.7434C63.2176 82.2989 57.4694 94.3286 53.5583 103.632C52.3731 106.477 51.2472 109.38 50.3583 112.343C49.1731 116.195 55.2176 117.795 56.3435 114.003Z" fill="#004F3F"/>
<path d="M85.6176 100.61C85.6176 104.58 82.4176 107.78 78.4472 107.78C74.4769 107.78 71.2769 104.58 71.2769 100.61C71.2769 96.6395 74.4769 93.4395 78.4472 93.4395C82.4176 93.4395 85.6176 96.6395 85.6176 100.61Z" fill="#FFA300"/>
<path d="M127.87 43.1283C113.766 45.2024 86.7436 53.9135 95.2177 73.1135C99.3658 82.5357 108.966 89.2913 117.203 94.8617C120.521 97.1135 123.662 91.7209 120.344 89.4691C113.47 84.8468 105.766 79.4542 101.618 72.0468C99.4843 68.2542 99.188 64.8172 101.321 61.558C105.41 55.3357 115.247 52.3728 122.595 50.5357C124.907 49.9431 127.218 49.4691 129.529 49.1135C133.499 48.5802 131.781 42.595 127.87 43.1283Z" fill="#007C6B"/>
<path d="M129.528 41.6468C114.654 43.5431 82.5951 51.8394 92.3729 73.0543C97.1136 83.3061 108.136 90.5357 117.262 96.4024C120.64 98.595 123.78 93.2024 120.403 91.0098C112.64 86.032 103.928 80.3431 99.0099 72.2839C97.7655 70.2098 96.7581 67.7802 96.8173 65.7061C96.8173 63.8691 97.2914 62.5654 98.4173 60.8468C100.61 57.6468 105.054 55.158 109.025 53.3802C113.232 51.5431 117.914 50.2394 122.417 49.1728C124.254 48.758 126.091 48.4024 127.928 48.1061C128.521 47.9876 129.054 47.9283 129.647 47.8098C130.536 47.6913 129.765 47.8098 129.528 47.8098C133.44 47.395 133.499 41.1728 129.528 41.6468Z" fill="#004F3F"/>
<path d="M113.41 74.2396C117.321 74.8914 120.995 72.2248 121.647 68.3136C122.299 64.4025 119.632 60.7285 115.721 60.0766C111.81 59.4248 108.136 62.0914 107.484 66.0025C106.832 69.9136 109.499 73.5877 113.41 74.2396Z" fill="#D68505"/>
<path d="M111.81 74.595C115.721 75.2469 119.395 72.5802 120.047 68.6691C120.699 64.758 118.032 61.0839 114.121 60.4321C110.21 59.7802 106.536 62.4469 105.884 66.358C105.292 70.2099 107.899 73.9432 111.81 74.595Z" fill="#FFA300"/>
<path d="M93.3805 33.1136C97.2916 33.7654 100.966 31.0988 101.618 27.1877C102.269 23.2766 99.6027 19.6025 95.6916 18.9506C91.7805 18.2988 88.1064 20.9654 87.4545 24.8766C86.8027 28.7284 89.4694 32.4617 93.3805 33.1136Z" fill="#D68505"/>
<path d="M91.7804 33.41C95.6915 34.0618 99.3656 31.3952 100.017 27.4841C100.669 23.5729 98.0026 19.8989 94.0915 19.247C90.1804 18.5952 86.5063 21.2618 85.8544 25.1729C85.2026 29.0841 87.8693 32.7581 91.7804 33.41Z" fill="#FFA300"/>
<path d="M75.6027 3.4247C72.5805 17.0543 70.7435 46.0321 91.6027 45.1432C101.914 44.7284 111.692 38.2099 119.81 32.4617C123.069 30.1506 119.929 24.758 116.669 27.0691C109.795 31.9284 101.855 37.4988 93.262 38.7432C90.9509 39.0988 89.1138 39.0395 87.1583 38.2691C86.0916 37.8543 84.3731 36.5506 83.7805 35.721C79.0398 29.4988 79.7509 19.484 80.6398 11.5432C80.8175 9.88396 80.9361 9.17285 81.2916 7.09878C81.4101 6.38767 81.5287 5.73581 81.7064 5.0247C82.4768 1.17285 76.4916 -0.486409 75.6027 3.4247Z" fill="#007C6B"/>
<path d="M74.6545 2.23953C71.2767 16.3432 67.7804 49.4099 90.5952 47.8692C101.914 47.0988 112.462 39.5729 121.232 33.0543C124.432 30.684 121.291 25.2914 118.091 27.6618C110.566 33.2914 102.032 39.4543 92.61 41.3506C90.1211 41.8247 87.9285 41.884 85.7952 41.1136C84.4915 40.6988 82.8322 39.3951 82.0619 38.2692C79.5137 34.7136 78.8026 30.0914 78.5656 25.7062C78.447 23.158 78.5063 20.6099 78.6248 18.121C78.6841 16.9358 78.8026 15.6914 78.9211 14.5062C78.9804 13.9729 79.0396 13.4988 79.0989 12.9655C79.1582 12.2543 79.2174 11.8988 79.2767 11.721C79.6322 9.05434 80.1063 6.38768 80.6989 3.78027C81.5878 -0.012322 75.5433 -1.67158 74.6545 2.23953Z" fill="#004F3F"/>
<path d="M99.2474 30.0912C101.262 26.6541 100.077 22.2689 96.64 20.3134C93.203 18.2986 88.8178 19.4838 86.8622 22.9208C84.8474 26.3578 86.0326 30.743 89.4696 32.6986C92.9067 34.7134 97.2918 33.5282 99.2474 30.0912Z" fill="#FFA300"/>
<path d="M45.4396 35.6024C41.5285 36.2542 37.8544 33.5875 37.2026 29.6764C36.5507 25.7653 39.2174 22.0913 43.1285 21.4394C47.0396 20.7875 50.7137 23.4542 51.3656 27.3653C52.0174 31.2764 49.3507 34.9505 45.4396 35.6024Z" fill="#D68505"/>
<path d="M47.0397 35.8988C43.1286 36.5506 39.4545 33.8839 38.8027 29.9728C38.1508 26.0617 40.8175 22.3876 44.7286 21.7358C48.6397 21.0839 52.3138 23.7506 52.9656 27.6617C53.5582 31.5728 50.9508 35.2469 47.0397 35.8988Z" fill="#FFA300"/>
<path d="M39.5136 32.5804C37.4988 29.1434 38.684 24.7582 42.121 22.8026C45.558 20.7878 49.9432 21.973 51.8988 25.4101C53.9136 28.8471 52.7284 33.2323 49.2914 35.1878C45.9136 37.2026 41.5284 36.0175 39.5136 32.5804Z" fill="#FFA300"/>
<path d="M21.2027 43.7804C34.7731 48.5804 62.9212 53.4396 64.2842 32.2841C64.9361 22.1507 59.6027 11.7211 54.9212 3.06925C53.0249 -0.427049 47.6324 2.65443 49.5287 6.20999C53.4398 13.4396 57.8249 21.7952 58.062 30.2692C58.1212 32.5211 57.8249 34.8915 56.9361 36.4915C56.0472 38.0915 55.1583 38.9211 53.5583 39.8693C50.3583 41.647 46.1509 41.9433 41.9435 41.7063C37.6768 41.5285 33.9435 40.8767 29.5583 39.7507C27.3064 39.2174 25.0546 38.5655 22.862 37.7952C19.0694 36.4322 17.4694 42.4767 21.2027 43.7804Z" fill="#007C6B"/>
<path d="M19.899 44.6101C33.8249 49.7657 65.5879 56.8175 66.7731 33.8842C67.3657 22.6249 60.9657 11.0694 55.5731 1.70642C53.6175 -1.78988 48.2249 1.35086 50.2398 4.84716C54.8027 12.8472 60.0175 22.0916 60.5509 31.5138C60.6101 32.699 60.5509 34.4175 60.4323 35.1879C60.1953 36.4323 59.899 37.4398 59.4842 38.1509C58.5361 39.9286 57.6472 40.699 55.7509 41.7657C54.5064 42.4768 51.7212 43.1879 50.4175 43.3064C47.8694 43.6027 45.3212 43.6027 42.7731 43.4249C38.3286 43.0694 33.8842 42.1805 29.262 40.9361C26.6546 40.2249 24.0472 39.4546 21.5583 38.5657C17.7657 37.2027 16.1657 43.2472 19.899 44.6101Z" fill="#004F3F"/>
<path d="M41.4692 22.8025C44.6099 20.4321 49.1136 21.0247 51.5432 24.1655C53.9136 27.3062 53.321 31.8099 50.1803 34.2395C47.0395 36.6099 42.5358 36.0173 40.1062 32.8766C37.7358 29.7358 38.3284 25.2321 41.4692 22.8025Z" fill="#FFA300"/>
<path d="M40.047 80.9949C36.1359 81.6468 32.4619 78.9801 31.81 75.069C31.1582 71.1579 33.8248 67.4838 37.7359 66.832C41.647 66.1801 45.3211 68.8468 45.973 72.7579C46.6248 76.6098 43.9582 80.3431 40.047 80.9949Z" fill="#D68505"/>
<path d="M41.6471 81.2913C37.736 81.9432 34.062 79.2765 33.4101 75.3654C32.7583 71.4543 35.4249 67.7802 39.336 67.1284C43.2471 66.4765 46.9212 69.1432 47.5731 73.0543C48.1657 76.9654 45.5583 80.6395 41.6471 81.2913Z" fill="#FFA300"/>
<path d="M34.1806 77.973C32.1658 74.536 33.3509 70.1508 36.788 68.1952C40.225 66.1804 44.6102 67.3656 46.5658 70.8026C48.5806 74.2397 47.3954 78.6249 43.9584 80.5804C40.5213 82.5952 36.1361 81.41 34.1806 77.973Z" fill="#FFA300"/>
<path d="M36.1363 68.1951C39.277 65.8247 43.7807 66.4173 46.2104 69.558C48.5807 72.6988 47.9881 77.2025 44.8474 79.6321C41.7067 82.0025 37.2029 81.4099 34.7733 78.2691C32.3437 75.0691 32.9363 70.5654 36.1363 68.1951Z" fill="#FFA300"/>
<path d="M41.2915 102.803C52.0767 93.3803 70.0915 71.3951 52.61 59.721C44.0767 54.0322 32.2841 53.5581 22.447 53.3803C18.4174 53.321 18.4174 59.5433 22.447 59.6025C30.7433 59.7803 40.2841 60.0766 47.7507 64.047C49.647 65.0544 51.4841 66.4766 52.4915 68.0173C53.3804 69.4988 53.7359 70.921 53.7359 72.5803C53.6767 79.9877 47.1581 87.8692 41.9433 93.4396C40.3433 95.1581 38.6841 96.8173 36.9655 98.3581C33.8841 101.025 38.2693 105.41 41.2915 102.803Z" fill="#007C6B"/>
<path d="M41.3508 104.343C52.6693 94.8024 74.5952 70.3876 54.9804 58.1802C45.4397 52.2543 32.4026 52.1357 21.6174 52.1357C17.5878 52.1357 17.5878 58.358 21.6174 58.358C30.8619 58.2987 41.5285 58.2987 50.0026 62.5061C52.136 63.5728 54.2693 65.1135 55.336 66.7728C56.4026 68.432 56.6989 69.795 56.6397 71.8098C56.5211 75.6617 54.2693 79.9876 51.7804 83.7209C49.173 87.632 46.1508 91.1283 42.773 94.5654C40.936 96.4617 39.0397 98.2987 37.0248 99.958C33.8841 102.565 38.3285 106.951 41.3508 104.343Z" fill="#004F3F"/>
<path d="M37.5582 67.5431C33.9434 69.1431 32.2248 73.3505 33.8248 76.9653C35.4248 80.5801 39.6322 82.2986 43.2471 80.6986C46.8619 79.0986 48.5804 74.8912 46.9804 71.2764C45.3804 67.6616 41.173 65.9431 37.5582 67.5431Z" fill="#FFA300"/>
<path d="M79.9289 109.558C76.0178 110.21 72.3437 107.543 71.6918 103.632C71.04 99.7209 73.7067 96.0468 77.6178 95.395C81.5289 94.7431 85.203 97.4098 85.8548 101.321C86.5067 105.232 83.84 108.906 79.9289 109.558Z" fill="#D68505"/>
<path d="M79.9289 107.662C76.0178 108.314 72.3437 105.647 71.6918 101.736C71.04 97.8249 73.7067 94.1508 77.6178 93.499C81.5289 92.8471 85.203 95.5138 85.8548 99.4249C86.5067 103.336 83.84 107.01 79.9289 107.662Z" fill="#FFA300"/>
<path d="M72.4618 104.343C70.447 100.906 71.6322 96.5209 75.0692 94.5653C78.5063 92.5505 82.8915 93.7357 84.847 97.1727C86.8618 100.61 85.6766 104.995 82.2396 106.951C78.8618 108.965 74.4174 107.78 72.4618 104.343Z" fill="#FFA300"/>
<path d="M74.4174 94.5657C77.5581 92.1953 82.0618 92.7879 84.4914 95.9286C86.8618 99.0694 86.2692 103.573 83.1285 106.003C79.9877 108.373 75.484 107.78 73.0544 104.64C70.6248 101.44 71.2766 96.9953 74.4174 94.5657Z" fill="#FFA300"/>
<path d="M75.8399 93.9135C72.2251 95.5135 70.5066 99.7209 72.1066 103.336C73.7066 106.951 77.914 108.669 81.5288 107.069C85.1436 105.469 86.8621 101.262 85.2621 97.6468C83.7214 94.032 79.4547 92.3727 75.8399 93.9135Z" fill="#FFA300"/>
<g clip-path="url(#clip0)">
<path d="M4.98116 152.856C5.14486 155.018 7.27296 156.075 9.72846 156.075C11.5058 156.075 12.9557 155.84 14.3588 155.394L15.037 158.943C13.3299 159.624 11.2252 159.977 8.95673 159.977C3.25062 159.953 0 156.639 0 151.375C0 147.098 2.64259 142.35 8.48902 142.35C13.9145 142.35 15.9725 146.604 15.9725 150.764C15.9725 151.657 15.8789 152.456 15.8088 152.832H4.98116V152.856ZM11.1316 149.26C11.1316 147.991 10.5937 145.852 8.18501 145.852C5.98675 145.852 5.09809 147.85 4.95778 149.26H11.1316Z" fill="#004F3F"/>
<path d="M35.3594 135.111V154.571C35.3594 156.475 35.4296 158.473 35.4997 159.601H30.8694L30.6355 157.109H30.5653C29.4896 159.013 27.4784 159.977 25.3036 159.977C21.328 159.977 18.1241 156.569 18.1241 151.304C18.1008 145.617 21.632 142.327 25.6543 142.327C27.7123 142.327 29.3259 143.055 30.0743 144.23H30.1444V135.111H35.3594ZM30.1444 149.871C30.1444 149.589 30.121 149.213 30.0743 148.931C29.7702 147.521 28.6243 146.345 27.0107 146.345C24.6488 146.345 23.4093 148.484 23.4093 151.14C23.4093 154.007 24.8125 155.793 26.9873 155.793C28.5074 155.793 29.7001 154.759 30.0041 153.279C30.0976 152.903 30.1444 152.526 30.1444 152.08V149.871Z" fill="#004F3F"/>
<path d="M55.3774 154.195C55.3774 156.404 55.4475 158.19 55.5177 159.624H50.9809L50.747 157.25H50.6535C49.9987 158.284 48.4318 160 45.3917 160C42.0008 160 39.4751 157.861 39.4751 152.644V142.75H44.7369V151.821C44.7369 154.266 45.532 155.746 47.3561 155.746C48.806 155.746 49.6245 154.736 49.9753 153.913C50.1156 153.608 50.139 153.185 50.139 152.785V142.75H55.4008V154.195H55.3774Z" fill="#004F3F"/>
<path d="M64.3575 139.906H57.7627V136.357H75.2318V139.906H68.5669V159.601H64.3341V139.906H64.3575Z" fill="#E28C03"/>
<path d="M81.6628 138.12C81.6628 139.389 80.7274 140.399 79.2541 140.399C77.851 140.399 76.9155 139.389 76.9155 138.12C76.9155 136.803 77.8743 135.816 79.2775 135.816C80.7274 135.793 81.6161 136.803 81.6628 138.12ZM77.1494 159.624V142.796H81.4056V159.601H77.1494V159.624Z" fill="#E28C03"/>
<path d="M85.9426 147.802C85.9426 145.875 85.9192 144.254 85.8022 142.796H89.5206L89.7311 145.311H89.8246C90.5496 143.995 92.3736 142.42 95.1565 142.42C98.0798 142.42 101.097 144.324 101.097 149.636V159.601H96.8637V150.129C96.8637 147.708 95.975 145.875 93.6599 145.875C91.9761 145.875 90.8068 147.074 90.3625 148.366C90.2221 148.743 90.1988 149.26 90.1988 149.753V159.624H85.9426V147.802Z" fill="#E28C03"/>
<path d="M109.82 150.2H109.89C110.311 149.542 110.778 148.813 111.223 148.226L115.268 142.797H120.343L114.169 149.683L121.232 159.624H116.04L111.223 152.197L109.773 153.89V159.624H105.54V135.111H109.773V150.2H109.82Z" fill="#E28C03"/>
<path d="M125.815 152.409C125.909 155.441 128.294 156.757 130.96 156.757C132.924 156.757 134.328 156.475 135.59 156.005L136.198 158.942C134.749 159.53 132.761 159.977 130.352 159.977C124.927 159.977 121.723 156.639 121.723 151.492C121.723 146.839 124.529 142.444 129.884 142.444C135.31 142.444 137.087 146.933 137.087 150.623C137.087 151.422 137.017 152.033 136.947 152.409H125.815ZM133.158 149.424C133.182 147.873 132.503 145.311 129.697 145.311C127.078 145.311 125.979 147.685 125.815 149.424H133.158Z" fill="#E28C03"/>
<path d="M140.548 148.225C140.548 145.946 140.525 144.324 140.408 142.796H144.079L144.22 146.016H144.36C145.178 143.643 147.143 142.42 148.92 142.42C149.341 142.42 149.575 142.444 149.926 142.514V146.51C149.575 146.439 149.201 146.369 148.686 146.369C146.652 146.369 145.295 147.685 144.898 149.589C144.828 149.965 144.757 150.411 144.757 150.905V159.601H140.548V148.225Z" fill="#E28C03"/>
</g>
<defs>
<clipPath id="clip0">
<rect width="149.926" height="24.8889" fill="white" transform="translate(0 135.111)"/>
</clipPath>
</defs>
</svg>
