<svg width="24" height="24" viewBox="0 0 24 24" fill="none" xmlns="http://www.w3.org/2000/svg">
<path d="M18.5333 11.1001H5.9333C4.93919 11.1001 4.1333 11.906 4.1333 12.9001V19.2001C4.1333 20.1942 4.93919 21.0001 5.9333 21.0001H18.5333C19.5274 21.0001 20.3333 20.1942 20.3333 19.2001V12.9001C20.3333 11.906 19.5274 11.1001 18.5333 11.1001Z" stroke="#4DB6AC" stroke-width="1.5" stroke-linecap="round" stroke-linejoin="round"/>
<path d="M7.73328 11.1V7.5C7.73328 6.30653 8.20738 5.16193 9.0513 4.31802C9.89521 3.47411 11.0398 3 12.2333 3C13.4268 3 14.5713 3.47411 15.4153 4.31802C16.2592 5.16193 16.7333 6.30653 16.7333 7.5V11.1" stroke="#4DB6AC" stroke-width="1.5" stroke-linecap="round" stroke-linejoin="round"/>
</svg>
