<svg width="24" height="24" viewBox="0 0 24 24" fill="none" xmlns="http://www.w3.org/2000/svg">
<path d="M15.8 4.79999H17.6C18.0774 4.79999 18.5352 4.98963 18.8728 5.3272C19.2104 5.66476 19.4 6.1226 19.4 6.59999V19.2C19.4 19.6774 19.2104 20.1352 18.8728 20.4728C18.5352 20.8103 18.0774 21 17.6 21H6.8C6.32261 21 5.86477 20.8103 5.52721 20.4728C5.18964 20.1352 5 19.6774 5 19.2V6.59999C5 6.1226 5.18964 5.66476 5.52721 5.3272C5.86477 4.98963 6.32261 4.79999 6.8 4.79999H8.6" stroke="#4DB6AC" stroke-width="1.5" stroke-linecap="round" stroke-linejoin="round"/>
<path d="M14.8996 3H9.49961C9.00255 3 8.59961 3.40294 8.59961 3.9V5.7C8.59961 6.19706 9.00255 6.6 9.49961 6.6H14.8996C15.3967 6.6 15.7996 6.19706 15.7996 5.7V3.9C15.7996 3.40294 15.3967 3 14.8996 3Z" stroke="#4DB6AC" stroke-width="1.5" stroke-linecap="round" stroke-linejoin="round"/>
</svg>
