<svg width="41" height="48" viewBox="0 0 41 48" fill="none" xmlns="http://www.w3.org/2000/svg">
<path d="M4.8984 47.5105C2.44942 47.5105 0.490234 45.5514 0.490234 43.1024V5.87789C0.490234 3.42891 2.44942 1.46973 4.8984 1.46973H28.2127L38.6943 11.9514V43.1024C38.6943 45.5514 36.7351 47.5105 34.2862 47.5105H4.8984Z" fill="#D84953"/>
<path d="M28.0163 1.95908L38.2041 12.1468V43.1019C38.2041 45.257 36.4408 47.0203 34.2857 47.0203H4.89796C2.74286 47.0203 0.979592 45.257 0.979592 43.1019V5.87745C0.979592 3.72235 2.74286 1.95908 4.89796 1.95908H28.0163ZM28.4082 0.979492H4.89796C2.1551 0.979492 0 3.13459 0 5.87745V43.1019C0 45.8448 2.1551 47.9999 4.89796 47.9999H34.2857C37.0286 47.9999 39.1837 45.8448 39.1837 43.1019V11.755L28.4082 0.979492Z" fill="#C4434C"/>
<path d="M29.7793 10.2861L39.2813 19.7882V10.2861H29.7793Z" fill="#C4434C"/>
<path d="M40.1633 11.7551H33.3062C30.5633 11.7551 28.4082 9.6 28.4082 6.85714V0H40.1633V11.7551Z" fill="#ECA4A9"/>
<path d="M10.0879 7.05273H12.0471C12.8307 7.05273 13.5165 7.34661 14.0063 7.83641C14.4961 8.3262 14.7899 9.01192 14.7899 9.89355C14.7899 10.7752 14.4961 11.4609 14.0063 11.9507C13.5165 12.4405 12.8307 12.7344 11.9491 12.7344H10.0879V7.05273ZM11.3614 8.13029V11.6568H11.8512C12.341 11.6568 12.7328 11.5589 13.1246 11.265C13.4185 10.9711 13.6144 10.5793 13.6144 9.89355C13.6144 9.50171 13.5165 9.20784 13.4185 8.91396C13.3205 8.62008 13.0267 8.42416 12.7328 8.3262C12.4389 8.22824 12.145 8.13029 11.8512 8.13029H11.3614Z" fill="white"/>
<path d="M15.7715 7.05273H18.9062V8.13029H16.947V9.3058H18.9062V10.3833H16.947V12.7344H15.7715V7.05273Z" fill="white"/>
<path d="M13.7137 37.7141C13.7137 38.4978 13.028 39.1835 12.2443 39.1835H7.34634C6.56267 39.1835 5.87695 38.4978 5.87695 37.7141V31.8366C5.87695 31.0529 6.56267 30.3672 7.34634 30.3672H12.2443C13.028 30.3672 13.7137 31.0529 13.7137 31.8366V37.7141Z" fill="#E0E0E0"/>
</svg>
