<svg width="26" height="36" viewBox="0 0 26 36" fill="none" xmlns="http://www.w3.org/2000/svg">
<path d="M3.92773 5.29004H5.16447C5.47365 5.29004 5.78283 5.43698 5.96834 5.65739C6.15385 5.87779 6.27752 6.17167 6.27752 6.53902C6.27752 6.75943 6.21569 6.97984 6.15385 7.20024C6.03018 7.42065 5.90651 7.56759 5.721 7.71453C5.53549 7.788 5.34997 7.86147 5.2263 7.86147H4.79344V9.55126H4.05141V5.29004H3.92773ZM4.66977 6.0982V7.20024H4.97896C5.10263 7.20024 5.2263 7.12677 5.28814 7.0533C5.34998 6.97984 5.41181 6.8329 5.41181 6.68596C5.41181 6.53902 5.34997 6.39208 5.2263 6.31861C5.10263 6.24514 4.97896 6.17167 4.79344 6.17167L4.66977 6.0982Z" fill="white"/>
<path d="M3.56 35.6332C2.01408 35.6332 0.777344 34.1638 0.777344 32.327V4.40866C0.777344 2.57193 2.01408 1.10254 3.56 1.10254H18.2771L24.8937 8.96376V32.327C24.8937 34.1638 23.6569 35.6332 22.111 35.6332H3.56Z" fill="#F6F6F6"/>
<path d="M18.1521 1.46907L24.5831 9.10989V32.3262C24.5831 33.9425 23.4701 35.265 22.1097 35.265H3.55863C2.19823 35.265 1.08516 33.9425 1.08516 32.3262V4.40784C1.08516 2.79152 2.19823 1.46907 3.55863 1.46907H18.1521ZM18.3995 0.734375H3.55863C1.82721 0.734375 0.466797 2.3507 0.466797 4.40784V32.3262C0.466797 34.3834 1.82721 35.9997 3.55863 35.9997H22.1097C23.8411 35.9997 25.2015 34.3834 25.2015 32.3262V8.81601L18.3995 0.734375Z" fill="#E0E0E0"/>
<path d="M3.55804 35.6327C2.01213 35.6327 0.775391 34.1633 0.775391 32.3265V4.40817C0.775391 2.57144 2.01213 1.10205 3.55804 1.10205H18.2752L24.8917 8.96328V32.3265C24.8917 34.1633 23.655 35.6327 22.1091 35.6327H3.55804Z" fill="#D84953"/>
<path d="M18.1521 1.46907L24.5831 9.10989V32.3262C24.5831 33.9425 23.4701 35.265 22.1097 35.265H3.55863C2.19823 35.265 1.08516 33.9425 1.08516 32.3262V4.40784C1.08516 2.79152 2.19823 1.46907 3.55863 1.46907H18.1521ZM18.3995 0.734375H3.55863C1.82721 0.734375 0.466797 2.3507 0.466797 4.40784V32.3262C0.466797 34.3834 1.82721 35.9997 3.55863 35.9997H22.1097C23.8411 35.9997 25.2015 34.3834 25.2015 32.3262V8.81601L18.3995 0.734375Z" fill="#C4434C"/>
<path d="M19.2656 7.71436L25.2638 14.8409V7.71436H19.2656Z" fill="#C4434C"/>
<path d="M25.8188 8.81633H21.4903C19.7588 8.81633 18.3984 7.2 18.3984 5.14286V0H25.8188V8.81633Z" fill="#ECA4A9"/>
<path d="M6.83398 5.28955H8.07072C8.56541 5.28955 8.99827 5.50996 9.30745 5.87731C9.61664 6.24465 9.80215 6.75894 9.80215 7.42016C9.80215 8.08139 9.61664 8.59567 9.30745 8.96302C8.99827 9.33037 8.56541 9.55078 8.00888 9.55078H6.83398V5.28955ZM7.63786 6.09771V8.74261H7.94705C8.25623 8.74261 8.50357 8.66914 8.75092 8.44873C8.93643 8.22833 9.0601 7.93445 9.0601 7.42016C9.0601 7.12629 8.99827 6.90588 8.93643 6.68547C8.87459 6.46506 8.68908 6.31812 8.50357 6.24465C8.31806 6.17118 8.13256 6.09771 7.94705 6.09771H7.63786Z" fill="white"/>
<path d="M3.74219 5.25H4.97892C5.28811 5.25 5.59729 5.39694 5.7828 5.61735C5.96831 5.83776 6.09199 6.13163 6.09199 6.49898C6.09199 6.71939 6.03015 6.9398 5.96831 7.1602C5.84464 7.38061 5.72097 7.52755 5.53546 7.67449C5.34995 7.74796 5.16444 7.82143 5.04076 7.82143H4.60791V9.51122H3.86587V5.25H3.74219ZM4.48424 6.05816V7.1602H4.79342C4.91709 7.1602 5.04077 7.08674 5.1026 7.01327C5.16444 6.9398 5.22627 6.79286 5.22627 6.64592C5.22627 6.49898 5.16444 6.35204 5.04076 6.27857C4.91709 6.2051 4.79342 6.13163 4.60791 6.13163L4.48424 6.05816Z" fill="white"/>
<path d="M10.4238 5.28955H12.4026V6.09771H11.1659V6.97935H12.4026V7.78751H11.1659V9.55078H10.4238V5.28955Z" fill="white"/>
<path d="M9.12272 28.2856C9.12272 28.8733 8.68986 29.3876 8.19517 29.3876H5.10333C4.60864 29.3876 4.17578 28.8733 4.17578 28.2856V23.8774C4.17578 23.2897 4.60864 22.7754 5.10333 22.7754H8.19517C8.68986 22.7754 9.12272 23.2897 9.12272 23.8774V28.2856Z" fill="#ECA4A9"/>
<path d="M20.131 22.7754H11.783C11.2883 22.7754 10.8555 23.2897 10.8555 23.8774C10.8555 24.4652 11.2883 24.9795 11.783 24.9795H20.131C20.6257 24.9795 21.0585 24.4652 21.0585 23.8774C20.9967 23.2897 20.6257 22.7754 20.131 22.7754Z" fill="#ECA4A9"/>
<path d="M20.131 27.1836H11.783C11.2883 27.1836 10.8555 27.6979 10.8555 28.2856C10.8555 28.8734 11.2883 29.3877 11.783 29.3877H20.131C20.6257 29.3877 21.0585 28.8734 21.0585 28.2856C21.0585 27.6979 20.6257 27.1836 20.131 27.1836Z" fill="#ECA4A9"/>
<path d="M20.3764 18.3677H5.22638C4.73169 18.3677 4.29883 18.882 4.29883 19.4697C4.29883 20.0575 4.73169 20.5718 5.22638 20.5718H20.3764C20.8711 20.5718 21.3039 20.0575 21.3039 19.4697C21.3039 18.882 20.9329 18.3677 20.3764 18.3677Z" fill="#ECA4A9"/>
</svg>
