<svg width="13" height="13" viewBox="0 0 13 13" fill="none" xmlns="http://www.w3.org/2000/svg">
<path d="M5.832 3.232C5.832 3.66933 5.75733 4.064 5.608 4.416C5.464 4.768 5.26933 5.06933 5.024 5.32C4.77867 5.56533 4.49333 5.75467 4.168 5.888C3.84267 6.02133 3.504 6.088 3.152 6.088C2.768 6.088 2.41333 6.02133 2.088 5.888C1.76267 5.75467 1.48 5.56533 1.24 5.32C1.00533 5.06933 0.821333 4.768 0.688 4.416C0.554667 4.064 0.488 3.66933 0.488 3.232C0.488 2.784 0.554667 2.37867 0.688 2.016C0.821333 1.65333 1.00533 1.34667 1.24 1.096C1.48 0.845333 1.76267 0.653333 2.088 0.52C2.41333 0.381333 2.768 0.311999 3.152 0.311999C3.536 0.311999 3.89067 0.381333 4.216 0.52C4.54667 0.653333 4.832 0.845333 5.072 1.096C5.312 1.34667 5.49867 1.65333 5.632 2.016C5.76533 2.37867 5.832 2.784 5.832 3.232ZM4.304 3.232C4.304 2.92267 4.27467 2.664 4.216 2.456C4.15733 2.248 4.07467 2.08 3.968 1.952C3.86667 1.824 3.744 1.73333 3.6 1.68C3.46133 1.62133 3.312 1.592 3.152 1.592C2.992 1.592 2.84267 1.62133 2.704 1.68C2.56533 1.73333 2.44533 1.824 2.344 1.952C2.24267 2.08 2.16267 2.248 2.104 2.456C2.05067 2.664 2.024 2.92267 2.024 3.232C2.024 3.53067 2.05067 3.78133 2.104 3.984C2.16267 4.18133 2.24267 4.34133 2.344 4.464C2.44533 4.58667 2.56533 4.67467 2.704 4.728C2.84267 4.78133 2.992 4.808 3.152 4.808C3.312 4.808 3.46133 4.78133 3.6 4.728C3.744 4.67467 3.86667 4.58667 3.968 4.464C4.07467 4.34133 4.15733 4.18133 4.216 3.984C4.27467 3.78133 4.304 3.53067 4.304 3.232ZM9.68 0.743999C9.744 0.664 9.824 0.592 9.92 0.528C10.016 0.463999 10.1493 0.431999 10.32 0.431999H11.752L3.16 11.704C3.096 11.7893 3.01333 11.8613 2.912 11.92C2.816 11.9733 2.69867 12 2.56 12H1.088L9.68 0.743999ZM12.36 9.28C12.36 9.71733 12.2853 10.112 12.136 10.464C11.992 10.816 11.7973 11.1173 11.552 11.368C11.3067 11.6133 11.0213 11.8053 10.696 11.944C10.3707 12.0773 10.032 12.144 9.68 12.144C9.296 12.144 8.94133 12.0773 8.616 11.944C8.29067 11.8053 8.008 11.6133 7.768 11.368C7.53333 11.1173 7.34933 10.816 7.216 10.464C7.08267 10.112 7.016 9.71733 7.016 9.28C7.016 8.832 7.08267 8.42667 7.216 8.064C7.34933 7.70133 7.53333 7.39467 7.768 7.144C8.008 6.89333 8.29067 6.70133 8.616 6.568C8.94133 6.42933 9.296 6.36 9.68 6.36C10.064 6.36 10.4187 6.42933 10.744 6.568C11.0747 6.70133 11.36 6.89333 11.6 7.144C11.84 7.39467 12.0267 7.70133 12.16 8.064C12.2933 8.42667 12.36 8.832 12.36 9.28ZM10.84 9.28C10.84 8.97067 10.808 8.712 10.744 8.504C10.6853 8.296 10.6027 8.128 10.496 8C10.3947 7.872 10.272 7.78133 10.128 7.728C9.98933 7.66933 9.84 7.64 9.68 7.64C9.52 7.64 9.37067 7.66933 9.232 7.728C9.09333 7.78133 8.97333 7.872 8.872 8C8.776 8.128 8.69867 8.296 8.64 8.504C8.58133 8.712 8.552 8.97067 8.552 9.28C8.552 9.57867 8.58133 9.82933 8.64 10.032C8.69867 10.2347 8.776 10.3973 8.872 10.52C8.97333 10.6427 9.09333 10.7307 9.232 10.784C9.37067 10.8373 9.52 10.864 9.68 10.864C9.84 10.864 9.98933 10.8373 10.128 10.784C10.272 10.7307 10.3947 10.6427 10.496 10.52C10.6027 10.3973 10.6853 10.2347 10.744 10.032C10.808 9.82933 10.84 9.57867 10.84 9.28Z" fill="#4DB6AC"/>
</svg>
