<svg width="41" height="48" viewBox="0 0 41 48" fill="none" xmlns="http://www.w3.org/2000/svg">
<path d="M4.8984 47.5105C2.44942 47.5105 0.490234 45.5514 0.490234 43.1024V5.87789C0.490234 3.42891 2.44942 1.46973 4.8984 1.46973H28.2127L38.6943 11.9514V43.1024C38.6943 45.5514 36.7351 47.5105 34.2862 47.5105H4.8984Z" fill="#F6F6F6"/>
<path d="M28.0163 1.95908L38.2041 12.1468V43.1019C38.2041 45.257 36.4408 47.0203 34.2857 47.0203H4.89796C2.74286 47.0203 0.979592 45.257 0.979592 43.1019V5.87745C0.979592 3.72235 2.74286 1.95908 4.89796 1.95908H28.0163ZM28.4082 0.979492H4.89796C2.1551 0.979492 0 3.13459 0 5.87745V43.1019C0 45.8448 2.1551 47.9999 4.89796 47.9999H34.2857C37.0286 47.9999 39.1837 45.8448 39.1837 43.1019V11.755L28.4082 0.979492Z" fill="#E0E0E0"/>
<path d="M4.8984 47.5105C2.44942 47.5105 0.490234 45.5514 0.490234 43.1024V5.87789C0.490234 3.42891 2.44942 1.46973 4.8984 1.46973H28.2127L38.6943 11.9514V43.1024C38.6943 45.5514 36.7351 47.5105 34.2862 47.5105H4.8984Z" fill="#7BB2D1"/>
<path d="M28.0163 1.95908L38.2041 12.1468V43.1019C38.2041 45.257 36.4408 47.0203 34.2857 47.0203H4.89796C2.74286 47.0203 0.979592 45.257 0.979592 43.1019V5.87745C0.979592 3.72235 2.74286 1.95908 4.89796 1.95908H28.0163ZM28.4082 0.979492H4.89796C2.1551 0.979492 0 3.13459 0 5.87745V43.1019C0 45.8448 2.1551 47.9999 4.89796 47.9999H34.2857C37.0286 47.9999 39.1837 45.8448 39.1837 43.1019V11.755L28.4082 0.979492Z" fill="#679FB7"/>
<path d="M29.7793 10.2861L39.2813 19.7882V10.2861H29.7793Z" fill="#679FB7"/>
<path d="M40.1633 11.7551H33.3062C30.5633 11.7551 28.4082 9.6 28.4082 6.85714V0H40.1633V11.7551Z" fill="#BDD8E8"/>
<path d="M5.48438 7.05273H7.44356C7.93335 7.05273 8.42314 7.24865 8.71702 7.54253C9.01089 7.83641 9.20681 8.22824 9.20681 8.71804C9.20681 9.01192 9.10887 9.3058 9.01091 9.59967C8.81499 9.89355 8.61906 10.0895 8.32519 10.2854C8.03131 10.3833 7.73744 10.4813 7.54152 10.4813H6.8558V12.7344H5.68028V7.05273H5.48438ZM6.65987 8.13029V9.59967H7.14966C7.34558 9.59967 7.5415 9.50171 7.63946 9.40376C7.73742 9.3058 7.83539 9.10988 7.83539 8.91396C7.83539 8.71804 7.73744 8.52212 7.54152 8.42416C7.34561 8.3262 7.14968 8.22824 6.8558 8.22824L6.65987 8.13029Z" fill="white"/>
<path d="M13.91 7.05273H15.0855V12.7344H13.91L11.363 9.10988V12.7344H10.1875V7.05273H11.363L13.91 10.6772V7.05273Z" fill="white"/>
<path d="M18.7097 7.05273C19.6893 7.05273 20.4729 7.44457 20.9627 8.3262L20.1791 9.10988C19.9831 8.816 19.7872 8.62008 19.5913 8.42416C19.2974 8.3262 19.1015 8.22824 18.8076 8.22824C18.3178 8.22824 18.024 8.42416 17.6321 8.71804C17.3382 9.01192 17.1423 9.40376 17.1423 9.89355C17.1423 10.3833 17.3382 10.7752 17.6321 11.167C17.926 11.4609 18.3178 11.6568 18.8076 11.6568C19.1015 11.6568 19.2974 11.5589 19.4933 11.4609C19.6893 11.3629 19.8852 11.0691 20.0811 10.7752H18.7097V9.59967H21.3546V10.2854C21.3546 10.6772 21.2566 11.0691 20.9627 11.4609C20.6688 11.8527 20.375 12.2446 19.9831 12.4405C19.5913 12.6364 19.1015 12.7344 18.7097 12.7344C17.926 12.7344 17.2403 12.4405 16.7505 11.8527C16.2607 11.265 15.9668 10.5793 15.9668 9.79559C15.9668 9.01192 16.2607 8.3262 16.7505 7.73845C17.2403 7.24865 17.926 7.05273 18.7097 7.05273Z" fill="white"/>
<path d="M10.7747 23.5098H7.83594V26.4485H10.7747V23.5098Z" fill="#E0E0E0"/>
<path d="M16.6536 23.5098H13.7148V26.4485H16.6536V23.5098Z" fill="#E0E0E0"/>
<path d="M22.5306 23.5098H19.5918V26.4485H22.5306V23.5098Z" fill="#E0E0E0"/>
<path d="M28.4075 23.5098H25.4688V26.4485H28.4075V23.5098Z" fill="#E0E0E0"/>
<path d="M34.2864 23.5098H31.3477V26.4485H34.2864V23.5098Z" fill="#E0E0E0"/>
<path d="M10.7747 29.3877H7.83594V32.3265H10.7747V29.3877Z" fill="#E0E0E0"/>
<path d="M16.6536 29.3877H13.7148V32.3265H16.6536V29.3877Z" fill="#E0E0E0"/>
<path d="M22.5306 29.3877H19.5918V32.3265H22.5306V29.3877Z" fill="#E0E0E0"/>
<path d="M28.4075 29.3877H25.4688V32.3265H28.4075V29.3877Z" fill="#E0E0E0"/>
<path d="M34.2864 29.3877H31.3477V32.3265H34.2864V29.3877Z" fill="#E0E0E0"/>
<path d="M7.83721 26.4492H4.89844V29.388H7.83721V26.4492Z" fill="#E0E0E0"/>
<path d="M13.7142 26.4492H10.7754V29.388H13.7142V26.4492Z" fill="#E0E0E0"/>
<path d="M19.5911 26.4492H16.6523V29.388H19.5911V26.4492Z" fill="#E0E0E0"/>
<path d="M25.47 26.4492H22.5312V29.388H25.47V26.4492Z" fill="#E0E0E0"/>
<path d="M31.347 26.4492H28.4082V29.388H31.347V26.4492Z" fill="#E0E0E0"/>
<path d="M10.7747 35.2656H7.83594V38.2044H10.7747V35.2656Z" fill="#E0E0E0"/>
<path d="M16.6536 35.2656H13.7148V38.2044H16.6536V35.2656Z" fill="#E0E0E0"/>
<path d="M22.5306 35.2656H19.5918V38.2044H22.5306V35.2656Z" fill="#E0E0E0"/>
<path d="M28.4075 35.2656H25.4688V38.2044H28.4075V35.2656Z" fill="#E0E0E0"/>
<path d="M34.2864 35.2656H31.3477V38.2044H34.2864V35.2656Z" fill="#E0E0E0"/>
<path d="M7.83721 32.3262H4.89844V35.2649H7.83721V32.3262Z" fill="#E0E0E0"/>
<path d="M13.7142 32.3262H10.7754V35.2649H13.7142V32.3262Z" fill="#E0E0E0"/>
<path d="M19.5911 32.3262H16.6523V35.2649H19.5911V32.3262Z" fill="#E0E0E0"/>
<path d="M25.47 32.3262H22.5312V35.2649H25.47V32.3262Z" fill="#E0E0E0"/>
<path d="M31.347 32.3262H28.4082V35.2649H31.347V32.3262Z" fill="#E0E0E0"/>
<path d="M7.83721 38.2041H4.89844V41.1429H7.83721V38.2041Z" fill="#E0E0E0"/>
<path d="M13.7142 38.2041H10.7754V41.1429H13.7142V38.2041Z" fill="#E0E0E0"/>
<path d="M19.5911 38.2041H16.6523V41.1429H19.5911V38.2041Z" fill="#E0E0E0"/>
<path d="M25.47 38.2041H22.5312V41.1429H25.47V38.2041Z" fill="#E0E0E0"/>
<path d="M31.347 38.2041H28.4082V41.1429H31.347V38.2041Z" fill="#E0E0E0"/>
</svg>
