<svg width="220" height="159" viewBox="0 0 220 159" fill="none" xmlns="http://www.w3.org/2000/svg">
<path d="M115.064 40.0288V87.0075C115.064 88.1103 115.947 89.0366 117.094 89.0366H180.449C181.552 89.0366 182.479 88.1544 182.479 87.0075V40.0288H115.064Z" fill="#0A8171"/>
<path d="M182.434 40.2493V37.0291C182.434 35.9263 181.551 35 180.404 35H117.049C115.946 35 115.02 35.8822 115.02 37.0291V40.2493H182.434Z" fill="#014E3F"/>
<path d="M119.08 37.6026C119.08 38.1761 118.595 38.6613 118.022 38.6613C117.448 38.6613 116.963 38.1761 116.963 37.6026C116.963 37.0292 117.448 36.5439 118.022 36.5439C118.595 36.5439 119.08 37.0292 119.08 37.6026Z" fill="#DBF2F0"/>
<path d="M122.477 37.6026C122.477 38.1761 121.991 38.6613 121.418 38.6613C120.845 38.6613 120.359 38.1761 120.359 37.6026C120.359 37.0292 120.845 36.5439 121.418 36.5439C122.036 36.5439 122.477 37.0292 122.477 37.6026Z" fill="#FFBD00"/>
<path d="M125.916 37.6026C125.916 38.1761 125.431 38.6613 124.858 38.6613C124.284 38.6613 123.799 38.1761 123.799 37.6026C123.799 37.0292 124.284 36.5439 124.858 36.5439C125.431 36.5439 125.916 37.0292 125.916 37.6026Z" fill="#FFDC26"/>
<path d="M187.993 42.9844H125.344V63.3639H187.993V42.9844Z" fill="#96E2DD"/>
<path d="M176.832 46.5134H153.846V48.0573H176.832V46.5134Z" fill="#00A899"/>
<path d="M180.053 49.7776H153.846V50.9245H180.053V49.7776Z" fill="#00A899"/>
<path d="M176.611 52.4685H153.713V53.6154H176.611V52.4685Z" fill="#00A899"/>
<path d="M179.214 55.071H153.713V56.2179H179.214V55.071Z" fill="#00A899"/>
<path d="M159.404 57.8943H153.713V59.0412H159.404V57.8943Z" fill="#00A899"/>
<path d="M151.681 46.6016H128.562V60.0997H151.681V46.6016Z" fill="#66CCC3"/>
<path d="M140.126 51.0569C138.847 51.0569 137.832 52.0714 137.832 53.3507C137.832 54.5858 138.847 55.6004 140.126 55.6004C141.361 55.6004 142.42 54.5858 142.42 53.3507C142.376 52.0714 141.361 51.0569 140.126 51.0569ZM141.052 53.3507L139.552 54.2329C139.552 54.2329 139.552 54.2329 139.508 54.2329C139.508 54.2329 139.508 54.2329 139.508 54.1888V52.4243C139.508 52.4243 139.508 52.4243 139.508 52.3802C139.508 52.3802 139.508 52.3802 139.552 52.3802L141.052 53.3507C141.052 53.3066 141.052 53.3507 141.052 53.3507Z" fill="white"/>
<path d="M187.993 65.481H125.344V85.8605H187.993V65.481Z" fill="#96E2DD"/>
<path d="M166.111 69.01H128.918V70.5539H166.111V69.01Z" fill="#00A899"/>
<path d="M180.052 72.2744H128.918V73.4213H180.052V72.2744Z" fill="#00A899"/>
<path d="M176.61 74.9651H128.785V76.112H176.61V74.9651Z" fill="#00A899"/>
<path d="M179.214 77.5676H128.785V78.7145H179.214V77.5676Z" fill="#00A899"/>
<path d="M146.653 80.3909H128.785V81.5378H146.653V80.3909Z" fill="#00A899"/>
<path d="M181.65 116.694C208.23 119.615 221.761 126.833 217.09 134.223C213.223 141.698 190.832 149.346 166.83 153.814C116.892 163.18 94.0175 158.454 56.0005 150.721C19.7554 142.815 -19.8725 134.652 11.2177 128.294C26.5212 125.115 56.967 121.248 89.0238 118.24C121.403 115.405 155.231 113.428 181.65 116.694Z" fill="#EFF8F8"/>
<ellipse cx="96.0171" cy="30" rx="30.0053" ry="30" fill="#FFD600"/>
<path fill-rule="evenodd" clip-rule="evenodd" d="M110.618 20.3989C110.081 19.867 109.21 19.867 108.673 20.3989L92.1965 36.7129L85.8633 30.4421C85.3263 29.9103 84.4556 29.9104 83.9184 30.4421C83.3814 30.9739 83.3814 31.836 83.9184 32.3678L91.2241 39.6013C91.761 40.1331 92.6323 40.1327 93.169 39.6013L110.618 22.3246C111.155 21.7928 111.155 20.9307 110.618 20.3989Z" fill="white" stroke="white"/>
<path d="M77.5876 56.7446C75.6756 60.6388 70.9309 62.1964 66.9652 60.2847C62.9995 58.373 61.2999 53.6292 63.212 49.8058C65.124 45.9117 69.8687 44.354 73.8344 46.2657C77.8 48.1066 79.4996 52.8504 77.5876 56.7446Z" fill="#014E3F"/>
<path d="M81.6251 66.6569C79.2173 71.5423 73.2688 73.5248 68.2409 71.1175C63.2129 68.7102 61.0884 62.7627 63.4962 57.8773C65.9039 52.9918 71.8525 51.0094 76.8804 53.4167C81.8375 55.824 83.962 61.7715 81.6251 66.6569Z" fill="#014E3F"/>
<path d="M73.1972 77.49C73.1972 77.49 72.914 78.7645 79.2166 80.393C85.5192 82.0214 95.1502 82.8003 95.1502 82.8003L80.987 77.7732C80.987 77.7024 75.4633 76.074 73.1972 77.49Z" fill="#004F3F"/>
<path d="M90.0496 81.9504C93.0239 82.8001 93.8736 84.641 94.9359 85.4198C95.9981 86.1986 96.9895 87.2607 96.9895 87.2607C96.7063 85.7738 95.7149 85.4906 95.3608 84.9242C95.0067 84.3578 95.0775 84.641 96.1398 84.8534C96.7771 84.995 97.4853 86.3402 98.1226 87.1191C98.6183 87.8271 99.0432 87.9687 99.0432 87.9687C99.0432 87.9687 98.5475 86.6943 97.8393 85.5614C96.9187 84.1453 95.7149 82.8709 95.4316 82.6585C94.8651 82.2337 92.8822 81.5964 91.4659 81.384C89.7663 81.1716 87.9251 81.384 90.0496 81.9504Z" fill="#004F3F"/>
<path d="M95.2188 82.7292C95.2188 82.7292 97.3429 83.9329 97.6261 84.3577C97.8385 84.6409 98.6881 86.1986 98.6881 86.1986C98.6881 86.1986 97.9093 85.8446 97.4845 85.2074C97.1304 84.6409 95.2188 82.7292 95.2188 82.7292Z" fill="#004F3F"/>
<path d="M76.7356 75.5782C76.7356 75.5782 70.8578 74.3038 70.2913 77.7731C69.9372 79.7556 71.0703 80.8177 72.8407 81.1717C76.169 81.8797 79.9223 82.4461 79.9223 82.4461L83.109 77.6315L76.7356 75.5782Z" fill="#66CCC3"/>
<path d="M77.0897 72.6752L75.461 56.6736C75.461 56.6736 75.6026 52.4962 74.0446 52.5671C71.8494 52.7087 71.4245 56.3196 71.2828 57.5941C70.9287 60.2138 70.3622 61.2759 70.3622 67.9314C70.3622 72.038 70.079 76.6402 70.3622 79.4015C70.5039 81.3132 72.4159 79.1891 74.3279 78.9767C77.9395 78.6935 77.0897 72.6752 77.0897 72.6752Z" fill="#66CCC3"/>
<path d="M112.146 117.423L117.528 129.035L124.893 129.176L128.647 128.397L120.574 126.486L116.254 115.794L112.146 117.423Z" fill="#38BBAF"/>
<path d="M118.306 130.876L119.298 130.663L119.864 129.46L125.813 129.743L130.628 128.822C130.628 128.822 130.557 128.468 130.274 128.327C129.424 127.902 125.671 127.619 125.671 127.619C125.671 127.619 126.096 128.681 125.671 128.893C125.246 129.106 120.643 128.822 119.51 128.681C117.598 128.397 116.607 127.902 116.677 128.185C116.89 128.539 118.306 130.876 118.306 130.876Z" fill="#161711"/>
<path d="M82.5452 93.9162L100.037 93.4206L113.067 121.884L118.449 119.759L105.773 85.4906C105.773 85.4906 104.781 83.2957 99.4702 83.2957C94.3715 83.2957 73.6224 82.7293 71.2855 83.3665C65.6911 84.995 83.5367 89.1724 82.5452 93.9162Z" fill="#FFA300"/>
<path d="M70.1521 46.549C68.24 50.4432 63.4954 52.0009 59.5297 50.0892C55.564 48.1775 53.8644 43.4337 55.7764 39.6103C57.6885 35.7161 62.4331 34.1584 66.3988 36.0701C70.3645 37.9818 72.0641 42.6548 70.1521 46.549Z" fill="#014E3F"/>
<path d="M78.2963 44.0707C76.8092 47.0445 73.2684 48.3189 70.2941 46.8321L70.1525 43.5751C67.1782 42.0882 65.9035 38.5481 67.3907 35.5743L68.3821 33.521C69.7984 30.5473 73.41 29.2728 76.3843 30.7597L77.7298 31.3969C80.7041 32.813 81.9788 36.424 80.4916 39.3977L78.2963 44.0707Z" fill="#014E3F"/>
<path d="M79.9966 35.0786C79.7133 35.5742 79.43 36.0699 79.1468 36.5655C76.8807 39.7516 73.5523 41.3801 71.0738 40.6013C70.224 42.1589 69.2326 43.3626 68.2411 44.4246C67.1789 45.5575 64.842 46.2655 64.842 46.2655C63.284 48.4604 64.1338 54.9035 69.7991 55.5408C73.1982 55.9656 72.4901 52.3546 71.2862 50.1597C70.7197 49.0977 70.224 47.894 70.2948 47.3276C70.7197 45.2743 71.4987 44.9911 72.6317 44.283C74.6854 43.3626 76.5266 44.3538 76.5266 44.3538C76.739 44.4246 76.8807 44.4246 77.0931 44.3538C77.3764 44.0706 77.5888 43.7166 77.8013 43.2918L79.9966 38.8312C80.6339 37.6275 80.5631 36.2115 79.9966 35.0786Z" fill="white"/>
<path d="M62.4316 88.252C62.4316 88.252 64.981 88.7476 65.6892 89.0309C66.6098 89.3849 69.4424 88.9601 69.4424 88.9601C69.4424 88.9601 69.7965 75.2242 70.4338 70.4804C71.0712 65.6658 72.3459 64.3913 72.3459 62.9044C72.3459 60.4971 72.1334 59.9307 71.7085 58.0898C71.2836 56.2489 72.4875 53.7708 72.1334 54.2664C71.4253 55.0453 68.9467 56.1781 66.539 53.5584C66.1141 53.0628 62.4316 88.252 62.4316 88.252Z" fill="#0A8171"/>
<path d="M71.4966 48.6731C71.4966 48.6731 74.9666 52.2133 74.8249 53.3461C74.6833 54.479 75.0374 59.3644 74.2584 64.4622C73.4794 69.6309 72.8421 70.9053 72.7005 74.6579C72.5588 78.4105 73.4086 79.2601 73.1254 83.8623C72.9129 87.4733 72.2756 90.6595 72.2756 90.6595C72.2756 90.6595 70.6468 91.1551 69.3721 89.8098C68.0974 88.4645 68.5931 75.8616 69.018 72.817C69.4429 69.7017 71.2841 61.5593 71.2133 59.4352C71.0717 57.3111 70.4344 52.1425 70.0095 51.4344C69.0889 49.7351 71.2133 48.8147 71.4966 48.6731Z" fill="#38BBAF"/>
<path d="M71.4961 48.3188C71.4961 48.3188 71.2837 48.6021 71.0713 48.8145C70.6465 49.0977 70.0801 49.7349 70.0801 49.7349C70.0801 49.7349 70.7881 49.3809 71.0713 50.0181C71.4253 50.7262 71.5669 52.4254 71.5669 52.4254C71.5669 52.4254 72.8414 50.3013 72.5582 49.5933C71.9918 48.3897 71.4961 48.3188 71.4961 48.3188Z" fill="#66CCC3"/>
<path d="M66.7529 56.6738C65.4074 60.9928 60.8044 63.3293 56.343 61.984C51.9524 60.6388 49.4739 56.0366 50.8194 51.7176C52.1649 47.3986 56.7679 45.0621 61.2293 46.4073C65.6199 47.7526 68.0984 52.3548 66.7529 56.6738Z" fill="#014E3F"/>
<path d="M94.9375 119.972L95.2208 128.114L96.8495 130.026L101.24 132.575L104.498 132.009L98.7616 127.69L98.3367 119.193L94.9375 119.972Z" fill="#38BBAF"/>
<path d="M95.435 129.884L96.9222 130.946L97.3471 130.592L101.454 133.212C101.454 133.212 105.137 134.203 105.916 133.354C106.128 133.071 105.562 132.646 104.712 132.009C104.075 131.513 103.65 131.3 103.65 131.3C103.65 131.3 103.508 131.938 102.021 132.15C101.525 132.221 98.6218 130.309 97.6303 129.814C95.8599 128.893 95.1518 127.69 95.0102 127.76C94.7977 128.044 95.435 129.884 95.435 129.884Z" fill="#161711"/>
<path d="M60.3801 77.2065L62.5046 82.1628L66.1162 82.5876L95.3631 84.4285C95.3631 84.4285 97.9833 83.6496 99.6121 87.7562C101.949 93.6329 98.9039 123.087 98.9039 123.087L94.5842 123.016L92.2472 95.2614C92.2472 95.2614 64.1333 100.147 56.0603 97.6687C52.9444 96.7483 50.6075 91.2256 51.0324 85.7029C51.3865 81.3839 54.2899 77.3481 54.2899 77.3481L60.3801 77.2065Z" fill="#FFB93D"/>
<path d="M64.3459 87.6855C64.3459 87.6855 65.6914 75.4365 66.4704 69.6307C67.2494 63.8248 67.0369 54.1247 67.2494 52.7087C67.4618 51.2926 68.17 49.3101 68.17 49.3101C68.17 49.3101 66.7537 46.124 64.9125 46.2656C63.2837 46.3364 58.185 48.1065 55.7064 49.0977C54.0068 49.8057 54.8566 69.3474 54.715 70.3387C54.1485 74.0205 52.3072 78.2687 51.1742 81.2424C50.2536 83.5789 49.4746 87.0483 49.4746 87.0483C49.4746 87.0483 58.8223 85.9154 64.3459 87.6855Z" fill="#38BBAF"/>
<path d="M65.2652 45.2744L66.6105 46.8321C66.6105 46.8321 68.5221 49.4518 67.8849 49.0978C67.1061 48.6022 66.1856 51.4343 66.1856 51.4343L63.6367 46.1949L65.2652 45.2744Z" fill="#66CCC3"/>
<path d="M54.0065 75.0116C54.0065 75.0116 51.882 76.4984 59.9551 77.3481C68.0281 78.1977 80.0668 77.5605 80.0668 77.5605L61.6546 74.0911C61.6546 74.0911 56.5559 73.0999 54.0065 75.0116Z" fill="white"/>
<path d="M73.6949 77.4898C77.519 77.9854 78.9353 79.9679 80.3516 80.6759C81.7679 81.3839 83.1842 82.446 83.1842 82.446C82.5469 80.8175 81.2722 80.6759 80.7765 80.1095C80.21 79.5431 80.3516 79.8263 81.6971 79.8971C82.4761 79.9679 83.6799 81.3839 84.5297 82.1628C85.3087 82.8708 85.8044 83.0124 85.8044 83.0124C85.8044 83.0124 84.9546 81.5964 83.8924 80.4635C82.5469 79.0474 80.7765 77.773 80.3516 77.5606C79.5726 77.1357 77.0232 76.7109 75.182 76.7109C73.1284 76.6401 70.9331 77.1357 73.6949 77.4898Z" fill="white"/>
<path d="M80.209 77.5605C80.209 77.5605 83.0411 78.6226 83.5367 79.0474C83.8908 79.3306 85.1652 80.9591 85.1652 80.9591C85.1652 80.9591 84.1032 80.6759 83.5367 80.0387C82.9703 79.4014 80.209 77.5605 80.209 77.5605Z" fill="#70D7D0"/>
<path d="M58.8222 72.746L61.4424 54.9744C61.4424 54.9744 60.805 51.2926 59.672 50.0889C58.3265 48.6021 55.7771 49.0269 55.7771 49.0269C55.7771 49.0269 52.8028 51.505 52.5196 65.5948C52.3779 75.2241 51.4573 79.1891 55.6355 79.6139C59.5303 80.0387 63.9209 80.2511 63.9209 80.2511L66.8952 74.4453L58.8222 72.746Z" fill="#66CCC3"/>
<path d="M78.3672 82.5169V81.8796H105.348V82.5169L105.277 82.6585C104.923 83.2249 104.286 83.2957 103.578 83.2957H80.1376C79.4294 83.2957 78.7921 83.2249 78.438 82.6585L78.3672 82.5169Z" fill="#33B9AD"/>
<path d="M84.8827 82.6585L84.8119 82.8001C84.6702 82.9417 84.5994 83.0833 84.387 83.1541H80.2797C79.5715 83.1541 79.005 83.0833 78.6509 82.5877L78.5801 82.5169V82.1628H84.8119V82.6585H84.8827Z" fill="#96E2DD"/>
<path d="M101.949 82.0212H88.4941V82.4461H101.949V82.0212Z" fill="#66CCC3"/>
<path d="M85.0234 81.8088L88.4934 68.5686C88.5642 68.2146 88.9183 67.9314 89.2724 67.9314H108.18C108.534 67.9314 108.747 68.2146 108.676 68.5686L105.206 81.8088H85.0234Z" fill="#66CCC3"/>
<path d="M95.715 74.9408C95.5026 75.6489 95.9274 76.1445 96.6355 76.1445C97.3435 76.1445 97.9807 75.5781 98.1931 74.9408C98.4055 74.2328 97.9807 73.7372 97.2727 73.7372C96.5647 73.6664 95.9274 74.2328 95.715 74.9408Z" fill="#33B9AD"/>
<path d="M96.2847 139.513H95.4349C95.1516 139.513 94.9392 139.23 94.9392 138.947V128.893C94.9392 128.61 95.1516 128.326 95.4349 128.326H96.2847V127.194H31.4173C30.5675 127.194 29.8594 127.972 29.8594 128.893V138.947C29.8594 139.867 30.5675 140.646 31.4173 140.646H96.2847V139.513Z" fill="#FF7700"/>
<path d="M96.2842 139.513H95.4344C95.1511 139.513 94.9387 139.23 94.9387 138.947V128.893C94.9387 128.61 95.1511 128.326 95.4344 128.326H96.2842V127.194H57.4062V140.646H96.355V139.513H96.2842Z" fill="#A5E0DA"/>
<path d="M94.9375 138.947V128.893C94.9375 128.61 95.1499 128.327 95.4332 128.327H31.4156C31.1324 128.327 30.9199 128.61 30.9199 128.893V138.947C30.9199 139.23 31.1324 139.514 31.4156 139.514H95.4332C95.1499 139.514 94.9375 139.23 94.9375 138.947Z" fill="#33B9AD"/>
<path d="M94.938 138.947V128.893C94.938 128.61 95.1505 128.327 95.4337 128.327H56.3434C56.0601 128.327 55.8477 128.61 55.8477 128.893V138.947C55.8477 139.23 56.0601 139.514 56.3434 139.514H95.4337C95.1505 139.514 94.938 139.23 94.938 138.947Z" fill="#96E2DD"/>
<path d="M38.0734 143.054L35.5953 141.567L33.1172 143.054V137.248H35.5953H38.0734V143.054Z" fill="url(#paint0_linear)"/>
<path d="M87.9972 105.316C87.7139 106.873 87.5723 108.573 87.5723 110.343C87.5723 112.325 87.7847 114.166 88.1388 115.936H46.3574V105.316H87.9972Z" fill="#96E2DD"/>
<path opacity="0.2" d="M87.9993 105.316C87.9285 105.67 87.8576 106.024 87.8576 106.449H50.1836V105.316H87.9993Z" fill="#008B7B"/>
<path d="M44.7281 103.616H88.4923C88.7756 103.616 88.9881 103.829 88.9881 104.112V105.315H68.8055V115.936H88.9172V117.14C88.9172 117.423 88.7048 117.635 88.4215 117.635H44.7281C44.4449 117.635 44.2324 117.423 44.2324 117.14V104.112C44.2324 103.829 44.4449 103.616 44.7281 103.616Z" fill="#008B7B"/>
<path d="M33.8941 103.616H67.6733C67.3901 103.616 67.1776 103.829 67.1776 104.112V117.14C67.1776 117.423 67.3901 117.635 67.6733 117.635H33.8941C33.6109 117.635 33.3984 117.423 33.3984 117.14V104.112C33.4693 103.829 33.6817 103.616 33.8941 103.616Z" fill="#2B9F91"/>
<path opacity="0.4" d="M33.8936 103.616H67.6728C67.3896 103.616 67.1771 103.829 67.1771 104.112V105.67H33.4688V104.112C33.4688 103.829 33.6812 103.616 33.8936 103.616Z" fill="#008B7B"/>
<path d="M38.2852 126.061H39.1349C39.4182 126.061 39.6307 125.778 39.6307 125.494V119.335C39.6307 118.981 39.4182 118.768 39.1349 118.768H38.2852V117.635H90.8305C91.6803 117.635 92.3177 118.414 92.3177 119.405V125.565C92.3177 126.556 91.6803 127.335 90.8305 127.335H38.2852V126.061Z" fill="#008B7B"/>
<path d="M38.2852 126.061H39.1349C39.4182 126.061 39.6307 125.778 39.6307 125.494V119.335C39.6307 118.981 39.4182 118.768 39.1349 118.768H38.2852V117.635H65.5493V127.265H38.2852V126.061Z" fill="#2B9F91"/>
<path d="M39.5582 125.494V119.334C39.5582 118.98 39.3458 118.768 39.0625 118.768H90.7581C91.0414 118.768 91.2538 119.051 91.2538 119.334V125.494C91.2538 125.848 91.0414 126.061 90.7581 126.061H39.0625C39.3458 126.061 39.5582 125.848 39.5582 125.494Z" fill="#33B9AD"/>
<path d="M39.5582 125.494V119.334C39.5582 118.98 39.3458 118.768 39.0625 118.768H66.4682C66.7515 118.768 66.964 119.051 66.964 119.334V125.494C66.964 125.848 66.7515 126.061 66.4682 126.061H39.0625C39.3458 126.061 39.5582 125.848 39.5582 125.494Z" fill="#96E2DD"/>
<path d="M53.3001 96.6066V95.6154C45.2271 95.6154 37.4374 93.9869 31.3472 91.084L31.1348 92.0044C37.3666 94.9782 45.2271 96.6066 53.3001 96.6066Z" fill="#008B7B"/>
<path d="M92.7443 95.6152H52.875V96.6773H92.7443V95.6152Z" fill="#2B9F91"/>
<path d="M92.7443 96.7483H52.875V103.758H92.7443V96.7483Z" fill="#2B9F91"/>
<path d="M55.07 96.6066H75.6066C70.5787 95.6154 66.0465 95.0489 59.4606 92.0752H31.2051C38.0742 94.9781 46.4305 96.6066 55.07 96.6066Z" fill="#008B7B"/>
<path d="M55.07 96.536H75.6066C70.5787 96.0403 66.0465 95.7571 59.4606 94.1995H31.2051C38.0742 95.6863 46.4305 96.536 55.07 96.536Z" fill="#66CCC3"/>
<path d="M55.6364 102.696H29.8594V103.687H55.6364V102.696Z" fill="#006B5C"/>
<path d="M58.8941 91.084H31.2051V92.0752H58.8941V91.084Z" fill="#006B5C"/>
<path d="M80.7747 96.6066V95.6154C72.7017 95.6154 64.912 93.9869 58.8218 91.084L58.6094 92.0044C64.8412 94.9782 72.7017 96.6066 80.7747 96.6066Z" fill="#2B9F91"/>
<path d="M56.2739 96.6775H31.2051V102.696H56.2739V96.6775Z" fill="#96E2DD"/>
<path d="M91.8924 96.6775H56.2012V102.696H91.8924V96.6775Z" fill="#33B9AD"/>
<path d="M173.543 124.078C181.247 124.078 187.493 117.833 187.493 110.13C187.493 102.426 181.247 96.1816 173.543 96.1816C165.838 96.1816 159.592 102.426 159.592 110.13C159.592 117.833 165.838 124.078 173.543 124.078Z" fill="#FFD600"/>
<mask id="mask0" mask-type="alpha" maskUnits="userSpaceOnUse" x="159" y="96" width="29" height="29">
<path d="M173.543 124.078C181.247 124.078 187.493 117.833 187.493 110.13C187.493 102.426 181.247 96.1816 173.543 96.1816C165.838 96.1816 159.592 102.426 159.592 110.13C159.592 117.833 165.838 124.078 173.543 124.078Z" fill="#FFD600"/>
</mask>
<g mask="url(#mask0)">
<path d="M179.773 113.316C179.773 113.316 182.889 113.458 188.696 120.679C189.192 121.317 189.758 122.237 190.325 123.016C197.407 132.645 196.203 133.141 196.203 133.141L197.123 135.69L193.158 138.239L181.544 122.945L179.773 113.316Z" fill="#3DBDB1"/>
<path d="M181.542 122.875L191.386 135.761H191.456L190.748 133.141C190.748 133.141 191.952 132.716 185.579 122.662C183.525 119.334 181.684 117.069 180.268 115.582L181.542 122.875Z" fill="#68CDC4"/>
<path d="M176.163 112.608C176.022 114.024 175.313 115.228 174.464 115.299C173.685 115.299 172.977 115.299 172.198 115.299C171.419 115.228 170.64 114.024 170.498 112.608C170.286 110.272 170.144 107.935 169.931 105.599C169.79 104.183 170.356 101.421 171.56 100.572C172.693 99.8635 173.897 99.8635 175.03 100.572C176.234 101.421 176.801 104.183 176.659 105.599C176.517 107.935 176.376 110.272 176.163 112.608Z" fill="white"/>
<path d="M182.465 114.59L179.987 113.316L176.942 113.174L172.622 114.52L169.01 113.741L164.195 115.865C164.195 115.865 162 117.989 164.053 124.715C166.107 131.442 165.328 139.23 165.328 139.23L181.191 139.867C181.191 139.796 180.766 118.343 182.465 114.59Z" fill="#3DBDB1"/>
<path d="M167.312 116.148C167.312 116.148 166.037 115.086 164.337 115.794C163.629 116.077 162.779 116.998 162 117.918C157.468 123.511 155.273 130.45 154.848 131.795C154.352 133.141 153.786 137.177 155.627 138.38C157.468 139.584 157.468 139.584 157.468 139.584L161.576 137.247L160.726 135.973L160.443 135.194C160.443 135.194 162.638 130.379 164.975 126.06C167.312 121.812 167.312 116.148 167.312 116.148Z" fill="#3DBDB1"/>
<path d="M172.479 114.307L170.78 116.219L169.01 113.741L170.072 112.183L172.479 114.307Z" fill="#68CDC4"/>
<path d="M176.375 112.112L173.047 114.236L174.605 116.148L177.224 113.174L176.375 112.112Z" fill="#68CDC4"/>
<path d="M173.614 114.237H172.127V139.584H173.614V114.237Z" fill="#68CDC4"/>
<path d="M173.686 100.147V98.5889H174.323H176.022H177.084C178.217 98.5889 179.137 99.5093 179.137 100.642V102.2H178.5H176.801H175.739C174.606 102.271 173.686 101.35 173.686 100.147Z" fill="#007C6B"/>
<path d="M170.355 109.776C170.355 110.767 171.205 111.617 172.197 111.617H176.375C177.366 111.617 178.216 110.767 178.216 109.776V101.421C178.216 100.43 177.366 99.5801 176.375 99.5801H172.197C171.205 99.5801 170.355 100.43 170.355 101.421V109.776Z" fill="white"/>
<path d="M173.543 98.5889C172.835 98.5889 172.197 98.9429 171.772 99.5093H171.064C170.144 99.5093 169.436 100.217 169.436 101.138V105.103H170.569V103.474C170.569 102.837 171.064 102.341 171.702 102.341H172.339H174.039H175.101C176.234 102.341 177.154 101.421 177.154 100.288V98.5889H173.543Z" fill="#007C6B"/>
<path d="M170.922 106.165C170.922 105.598 170.498 105.174 169.931 105.174H169.86C169.294 105.174 168.869 105.598 168.869 106.165V107.368C168.869 107.935 169.294 108.36 169.86 108.36H169.931C170.356 108.36 170.71 108.147 170.852 107.793" fill="white"/>
</g>
<path d="M154.991 110.13C154.991 117.848 148.76 124.078 141.041 124.078C133.322 124.078 127.09 117.848 127.09 110.13C127.09 102.413 133.322 96.1819 141.041 96.1819C148.76 96.1819 154.991 102.413 154.991 110.13Z" fill="#66CCC3"/>
<mask id="mask1" mask-type="alpha" maskUnits="userSpaceOnUse" x="126" y="96" width="29" height="28">
<path d="M154.663 109.989C154.663 117.706 148.431 123.937 140.712 123.937C132.994 123.937 126.762 117.706 126.762 109.989C126.762 102.271 132.994 96.0403 140.712 96.0403C148.431 96.0403 154.663 102.271 154.663 109.989Z" fill="#66CCC3"/>
</mask>
<g mask="url(#mask1)">
<path d="M130.842 116.007L133.462 122.804L124.539 137.531L119.016 137.248L119.653 131.513L130.842 116.007Z" fill="#0A8171"/>
<path d="M143.307 106.519C143.094 107.298 143.307 108.006 143.802 108.148C144.298 108.289 144.935 107.794 145.148 107.015L145.431 106.095C145.643 105.316 145.431 104.608 144.935 104.466C144.439 104.325 143.802 104.82 143.59 105.528L143.307 106.519Z" fill="white"/>
<path d="M138.207 113.458C138.277 114.874 138.986 116.078 139.765 116.149C140.473 116.149 141.252 116.219 141.96 116.219C142.739 116.219 143.518 115.016 143.73 113.67C144.013 111.405 144.297 109.139 144.58 106.873C144.792 105.528 144.368 102.767 143.235 101.917C142.172 101.138 140.968 101.067 139.835 101.776C138.631 102.554 137.994 105.245 137.994 106.59C137.994 108.927 138.065 111.192 138.207 113.458Z" fill="#78D9D2"/>
<path d="M137.145 109.918C137.428 111.192 137.994 111.546 138.915 111.759C139.836 111.9 140.048 111.971 140.898 112.113C141.818 112.183 142.881 110.98 143.164 109.847C143.589 107.935 144.722 106.448 145.147 104.607C145.43 103.475 145.005 102.413 143.66 101.563C142.456 100.784 140.969 99.2264 139.623 99.6512C138.136 100.147 137.215 102.342 137.215 103.475C137.215 105.315 137.145 107.935 137.145 109.918Z" fill="white"/>
<path d="M145.924 103.121L145.145 104.537C145.145 104.537 143.729 102.838 142.808 101.422C142.525 100.997 139.126 100.784 138.347 100.926C137.709 100.997 137.638 101.776 137.497 102.2C136.93 103.758 137.851 99.5098 137.851 99.5098C137.851 99.5098 139.055 97.5273 141.179 97.4565C142.383 97.3857 142.879 98.0938 143.304 99.0142C143.374 99.2266 142.029 98.5894 142.241 98.5894C142.312 98.5894 143.658 99.8639 143.658 99.9347C143.87 100.43 144.083 100.855 144.366 101.28C145.357 102.908 145.924 103.121 145.924 103.121Z" fill="#007C6B"/>
<path d="M140.828 103.758L139.908 103.829L140.12 104.395L139.412 104.679L138.562 107.44L139.766 107.581L140.049 105.882L140.828 105.033L142.669 104.962L140.828 103.758Z" fill="#78D9D2"/>
<path d="M131.408 116.715L138.49 113.67L140.898 115.086L145.217 113.954C145.217 113.954 150.245 116.998 150.741 116.998C151.237 116.998 150.599 145.249 150.599 145.249L137.852 149.284L132.966 146.098L131.408 116.715Z" fill="#FFDC26"/>
<path d="M136.507 147.09L137.357 120.255L138.348 113.883L130.771 116.007L130.275 148.647L136.507 147.09Z" fill="#0A8171"/>
<path d="M143.871 113.67L145.854 117.423L147.058 145.319L147.27 147.444L155.627 146.523L152.794 120.609L151.236 115.299L143.871 113.67Z" fill="#0A8171"/>
<path d="M135.798 134.345L133.604 123.442L134.949 121.459L133.816 116.22L134.949 114.52L138.489 113.387L137.356 125.636L136.648 141.78L135.798 134.345Z" fill="#007C6B"/>
<path d="M143.873 113.6C143.731 114.095 145.643 117.706 145.643 117.706L146.705 137.956L149.254 123.016L148.546 120.326L149.254 118.627L147.13 114.378L143.873 113.6Z" fill="#007C6B"/>
<path d="M140.683 115.016L138.984 116.927L137.639 113.67L138.063 112.821L140.683 115.016Z" fill="#FFD600"/>
<path d="M143.871 112.75L141.322 115.016L143.022 116.998L144.438 113.741L143.871 112.75Z" fill="#FFD600"/>
</g>
<path d="M206.048 124.078C213.753 124.078 219.999 117.833 219.999 110.13C219.999 102.426 213.753 96.1816 206.048 96.1816C198.344 96.1816 192.098 102.426 192.098 110.13C192.098 117.833 198.344 124.078 206.048 124.078Z" fill="#FF7700"/>
<mask id="mask2" mask-type="alpha" maskUnits="userSpaceOnUse" x="192" y="96" width="28" height="29">
<path d="M206.048 124.078C213.753 124.078 219.999 117.833 219.999 110.13C219.999 102.426 213.753 96.1816 206.048 96.1816C198.344 96.1816 192.098 102.426 192.098 110.13C192.098 117.833 198.344 124.078 206.048 124.078Z" fill="#FF7700"/>
</mask>
<g mask="url(#mask2)">
<path d="M209.164 105.74C209.66 105.74 210.155 105.811 210.58 105.882C210.509 106.377 210.439 106.802 210.439 107.298C210.439 111.192 213.342 114.449 217.095 115.086C216.387 118.768 213.13 121.6 209.164 121.6C204.702 121.6 201.091 118.06 201.091 113.67C201.02 109.28 204.702 105.74 209.164 105.74Z" fill="#007C6B"/>
<path d="M198.968 106.094C199.959 105.598 201.021 105.244 202.225 105.244C205.907 105.244 208.882 108.147 208.882 111.758C208.882 115.369 205.907 118.272 202.225 118.272C198.613 118.272 195.71 115.511 195.568 111.971C197.48 110.696 198.755 108.572 198.968 106.094Z" fill="#007C6B"/>
<path d="M198.896 105.244C198.896 108.714 201.517 111.475 204.703 111.475C207.89 111.475 210.51 108.714 210.51 105.244C210.51 101.775 207.89 99.0137 204.703 99.0137C201.517 99.0137 198.896 101.775 198.896 105.244Z" fill="#007C6B"/>
<path d="M212.279 115.299C212.279 115.299 209.517 120.68 206.26 121.388C203.002 122.096 198.541 121.458 198.045 120.113C197.549 118.839 198.683 116.29 199.461 115.653C200.17 115.015 202.577 114.378 203.286 113.174C203.781 112.183 203.64 110.413 203.286 108.997C202.931 107.581 201.798 107.51 202.931 106.873C204.065 106.236 203.569 105.599 204.702 105.74C205.835 105.953 206.472 105.528 206.472 106.59C206.472 108.501 206.331 111.263 207.393 112.537C208.526 113.883 209.73 114.307 212.279 115.299Z" fill="white"/>
<path d="M202.579 101.563C202.65 101.563 202.791 101.492 202.862 101.492C203.075 102.625 203.995 103.97 205.412 105.032C205.766 105.315 206.12 105.527 206.474 105.669V106.731C206.474 108.289 205.128 109.634 203.5 109.634C201.871 109.634 200.525 108.36 200.525 106.731V104.324C201.234 103.828 202.013 102.766 202.579 101.563Z" fill="white"/>
<path d="M202.508 138.309C203.075 141 202.508 141.425 204.066 139.088L215.538 121.033C217.096 118.768 216.176 116.006 213.485 115.511L199.18 112.891C196.489 112.325 195.639 115.015 196.206 117.706L202.508 138.309Z" fill="white"/>
<path d="M213.837 116.29C211.926 122.874 215.891 135.548 215.891 135.548C215.891 135.548 217.236 136.256 217.732 135.123C218.369 133.707 218.156 129.672 217.448 120.255C216.953 114.449 214.121 115.157 213.837 116.29Z" fill="#66CCC3"/>
<path d="M196.133 123.228C196.771 120.963 197.337 118.697 197.904 116.36C198.045 115.865 198.187 115.369 198.47 115.015C203.498 116.219 208.739 116.856 213.908 116.998C213.908 117.21 213.979 117.422 213.979 117.635C214.121 120.113 213.908 122.591 214.05 124.998C214.121 126.06 213.342 127.052 212.421 127.689C212.492 127.901 212.563 128.043 212.563 128.326L212.775 129.53C212.846 130.521 212.138 133.849 211.217 133.92L201.232 134.486C200.311 134.557 199.108 132.504 199.037 131.512L197.691 126.698C197.691 126.627 197.691 126.556 197.691 126.414C196.7 125.636 195.85 124.361 196.133 123.228Z" fill="#007C6B"/>
<path d="M210.226 114.52C210.226 114.52 215.396 114.378 216.316 116.856C217.237 119.334 215.041 122.945 215.041 122.945C215.041 122.945 213.767 127.547 213.342 130.025C212.988 132.504 214.546 134.84 214.05 134.415C213.979 134.344 212.775 134.415 210.934 133.566C209.093 132.716 210.084 129.317 210.297 128.185C210.509 127.123 211.359 121.741 211.217 120.821C211.005 119.83 210.226 114.52 210.226 114.52Z" fill="#66CCC3"/>
<path d="M195.497 116.573C195.497 116.573 195.072 114.52 195.922 113.67C197.196 112.466 200.171 112.608 201.162 112.891C202.154 113.174 202.791 113.458 202.791 113.458C202.791 113.458 199.392 114.803 199.533 121.883C199.533 123.087 199.887 125.565 200.312 127.406C200.737 129.318 200.879 132.929 200.879 132.929C200.879 132.929 198.825 133.353 198.754 133.637C198.684 133.92 198.542 131.442 197.126 129.105C195.709 126.84 195.497 116.573 195.497 116.573Z" fill="#66CCC3"/>
<path d="M199.958 112.749C198.046 114.307 196.913 115.652 197.196 123.866C197.267 125.211 197.196 127.618 197.409 129.884C197.267 129.671 196.701 128.609 196.63 128.326C194.789 123.653 195.497 116.573 195.497 116.573C195.497 116.573 195.072 114.52 195.922 113.67C196.842 112.82 198.683 112.608 199.958 112.749Z" fill="#38BBAF"/>
</g>
<defs>
<linearGradient id="paint0_linear" x1="35.6058" y1="143.085" x2="35.6058" y2="137.223" gradientUnits="userSpaceOnUse">
<stop offset="0.863" stop-color="#FFD354"/>
<stop offset="1" stop-color="#FF7700"/>
</linearGradient>
</defs>
</svg>
