<svg width="41" height="48" viewBox="0 0 41 48" fill="none" xmlns="http://www.w3.org/2000/svg">
<path d="M4.8984 47.5105C2.44942 47.5105 0.490234 45.5514 0.490234 43.1024V5.87789C0.490234 3.42891 2.44942 1.46973 4.8984 1.46973H28.2127L38.6943 11.9514V43.1024C38.6943 45.5514 36.7351 47.5105 34.2862 47.5105H4.8984Z" fill="#F6F6F6"/>
<path d="M28.0163 1.95908L38.2041 12.1468V43.1019C38.2041 45.257 36.4408 47.0203 34.2857 47.0203H4.89796C2.74286 47.0203 0.979592 45.257 0.979592 43.1019V5.87745C0.979592 3.72235 2.74286 1.95908 4.89796 1.95908H28.0163ZM28.4082 0.979492H4.89796C2.1551 0.979492 0 3.13459 0 5.87745V43.1019C0 45.8448 2.1551 47.9999 4.89796 47.9999H34.2857C37.0286 47.9999 39.1837 45.8448 39.1837 43.1019V11.755L28.4082 0.979492Z" fill="#E0E0E0"/>
<path d="M4.8984 47.5105C2.44942 47.5105 0.490234 45.5514 0.490234 43.1024V5.87789C0.490234 3.42891 2.44942 1.46973 4.8984 1.46973H28.2127L38.6943 11.9514V43.1024C38.6943 45.5514 36.7351 47.5105 34.2862 47.5105H4.8984Z" fill="#F78852"/>
<path d="M28.0163 1.95908L38.2041 12.1468V43.1019C38.2041 45.257 36.4408 47.0203 34.2857 47.0203H4.89796C2.74286 47.0203 0.979592 45.257 0.979592 43.1019V5.87745C0.979592 3.72235 2.74286 1.95908 4.89796 1.95908H28.0163ZM28.4082 0.979492H4.89796C2.1551 0.979492 0 3.13459 0 5.87745V43.1019C0 45.8448 2.1551 47.9999 4.89796 47.9999H34.2857C37.0286 47.9999 39.1837 45.8448 39.1837 43.1019V11.755L28.4082 0.979492Z" fill="#E27140"/>
<path d="M29.7793 10.2861L39.2813 19.7882V10.2861H29.7793Z" fill="#E27140"/>
<path d="M40.1633 11.7551H33.3062C30.5633 11.7551 28.4082 9.6 28.4082 6.85714V0H40.1633V11.7551Z" fill="#FBC3A9"/>
<path d="M5.48438 7.05273H7.44356C7.93335 7.05273 8.42314 7.24865 8.71702 7.54253C9.01089 7.83641 9.20681 8.22824 9.20681 8.71804C9.20681 9.01192 9.10886 9.3058 9.0109 9.59967C8.81498 9.89355 8.61906 10.0895 8.32519 10.2854C8.03131 10.3833 7.73743 10.4813 7.54151 10.4813H6.8558V12.7344H5.68029V7.05273H5.48438ZM6.65988 8.13029V9.59967H7.14968C7.3456 9.59967 7.54151 9.50171 7.63947 9.40376C7.73743 9.3058 7.83539 9.10988 7.83539 8.91396C7.83539 8.71804 7.73743 8.52212 7.54151 8.42416C7.34559 8.3262 7.14968 8.22824 6.8558 8.22824L6.65988 8.13029Z" fill="white"/>
<path d="M10.1875 7.05273H12.1467C12.6365 7.05273 13.1263 7.24865 13.4202 7.54253C13.714 7.83641 13.91 8.22824 13.91 8.71804C13.91 9.01192 13.812 9.3058 13.714 9.59967C13.5181 9.89355 13.3222 10.0895 13.0283 10.2854C12.7344 10.3833 12.4406 10.4813 12.2446 10.4813H11.5589V12.7344H10.3834V7.05273H10.1875ZM11.363 8.13029V9.59967H11.8528C12.0487 9.59967 12.2447 9.50171 12.3426 9.40376C12.4406 9.3058 12.5385 9.10988 12.5385 8.91396C12.5385 8.71804 12.4406 8.52212 12.2446 8.42416C12.0487 8.3262 11.8528 8.22824 11.5589 8.22824L11.363 8.13029Z" fill="white"/>
<path d="M14.3984 7.05273H18.2189V8.22824H16.9454V12.7344H15.7699V8.3262H14.4964V7.05273H14.3984Z" fill="white"/>
<path d="M18.6123 40.1625C14.7919 40.1625 11.7552 37.1258 11.7552 33.3054C11.7552 29.8768 14.3021 27.036 17.6327 26.5462V23.6074C12.6368 24.0972 8.81641 28.3095 8.81641 33.3054C8.81641 38.6931 13.2246 43.1013 18.6123 43.1013C23.7062 43.1013 27.8205 39.2809 28.3103 34.285H25.3715C24.8817 37.6156 22.0409 40.1625 18.6123 40.1625Z" fill="#E0E0E0"/>
<path d="M19.592 32.3268V26.5472C19.2981 26.5472 18.9063 26.4492 18.6124 26.4492C18.3185 26.4492 17.9267 26.4492 17.6328 26.5472V32.3268H19.592Z" fill="#E0E0E0"/>
<path d="M18.6124 26.4485C18.9063 26.4485 19.2981 26.4485 19.592 26.5465V23.6077C19.2981 23.6077 18.9063 23.5098 18.6124 23.5098C18.3185 23.5098 17.9267 23.5098 17.6328 23.6077V26.5465C17.9267 26.4485 18.3185 26.4485 18.6124 26.4485Z" fill="#E0E0E0"/>
<path d="M19.5918 34.2854H25.3714C25.3714 33.9915 25.4693 33.5996 25.4693 33.3058C25.4693 33.0119 25.4693 32.62 25.3714 32.3262H19.5918V34.2854Z" fill="#E0E0E0"/>
<path d="M28.3099 32.3262H25.3711C25.3711 32.62 25.4691 33.0119 25.4691 33.3058C25.4691 33.5996 25.4691 33.9915 25.3711 34.2854H28.3099C28.3099 33.9915 28.4078 33.5996 28.4078 33.3058C28.4078 33.0119 28.4078 32.62 28.3099 32.3262Z" fill="#E0E0E0"/>
<path d="M19.592 32.3262H17.6328V34.2854H19.592V32.3262Z" fill="#E0E0E0"/>
<path d="M31.1508 28.408C30.3671 24.5876 27.3304 21.5509 23.51 20.7672C22.9222 20.6692 22.2365 20.5713 21.5508 20.5713V23.5101V28.408V30.3672H23.51H28.4079H31.3467C31.3467 29.6815 31.2487 28.9958 31.1508 28.408ZM23.51 28.408V23.8039C25.763 24.4897 27.4283 26.155 28.114 28.408H23.51Z" fill="#E0E0E0"/>
</svg>
