<svg width="26" height="36" viewBox="0 0 26 36" fill="none" xmlns="http://www.w3.org/2000/svg">
<path d="M3.55804 35.6327C2.01213 35.6327 0.775391 34.1633 0.775391 32.3265V4.40817C0.775391 2.57144 2.01213 1.10205 3.55804 1.10205H18.2752L24.8917 8.96328V32.3265C24.8917 34.1633 23.655 35.6327 22.1091 35.6327H3.55804Z" fill="#F6F6F6"/>
<path d="M18.1521 1.46907L24.5831 9.10989V32.3262C24.5831 33.9425 23.4701 35.265 22.1097 35.265H3.55863C2.19823 35.265 1.08516 33.9425 1.08516 32.3262V4.40784C1.08516 2.79152 2.19823 1.46907 3.55863 1.46907H18.1521ZM18.3995 0.734375H3.55863C1.82721 0.734375 0.466797 2.3507 0.466797 4.40784V32.3262C0.466797 34.3834 1.82721 35.9997 3.55863 35.9997H22.1097C23.8411 35.9997 25.2015 34.3834 25.2015 32.3262V8.81601L18.3995 0.734375Z" fill="#E0E0E0"/>
<path d="M3.55804 35.6327C2.01213 35.6327 0.775391 34.1633 0.775391 32.3265V4.40817C0.775391 2.57144 2.01213 1.10205 3.55804 1.10205H18.2752L24.8917 8.96328V32.3265C24.8917 34.1633 23.655 35.6327 22.1091 35.6327H3.55804Z" fill="#F78852"/>
<path d="M18.1521 1.46907L24.5831 9.10989V32.3262C24.5831 33.9425 23.4701 35.265 22.1097 35.265H3.55863C2.19823 35.265 1.08516 33.9425 1.08516 32.3262V4.40784C1.08516 2.79152 2.19823 1.46907 3.55863 1.46907H18.1521ZM18.3995 0.734375H3.55863C1.82721 0.734375 0.466797 2.3507 0.466797 4.40784V32.3262C0.466797 34.3834 1.82721 35.9997 3.55863 35.9997H22.1097C23.8411 35.9997 25.2015 34.3834 25.2015 32.3262V8.81601L18.3995 0.734375Z" fill="#E27140"/>
<path d="M19.2656 7.71436L25.2638 14.8409V7.71436H19.2656Z" fill="#E27140"/>
<path d="M25.8188 8.81633H21.4903C19.7588 8.81633 18.3984 7.2 18.3984 5.14286V0H25.8188V8.81633Z" fill="#FBC3A9"/>
<path d="M3.92773 5.29004H5.16447C5.47365 5.29004 5.78283 5.43698 5.96834 5.65739C6.15385 5.87779 6.27752 6.17167 6.27752 6.53902C6.27752 6.75943 6.21569 6.97984 6.15385 7.20024C6.03018 7.42065 5.90651 7.56759 5.721 7.71453C5.53549 7.788 5.34997 7.86147 5.2263 7.86147H4.79344V9.55126H4.05141V5.29004H3.92773ZM4.66977 6.0982V7.20024H4.97896C5.10263 7.20024 5.2263 7.12677 5.28814 7.0533C5.34998 6.97984 5.41181 6.8329 5.41181 6.68596C5.41181 6.53902 5.34997 6.39208 5.2263 6.31861C5.10263 6.24514 4.97896 6.17167 4.79344 6.17167L4.66977 6.0982Z" fill="white"/>
<path d="M6.89844 5.28955H8.13517C8.44436 5.28955 8.75354 5.43649 8.93905 5.6569C9.12456 5.87731 9.24824 6.17118 9.24824 6.53853C9.24824 6.75894 9.1864 6.97935 9.12456 7.19976C9.00089 7.42016 8.87722 7.5671 8.69171 7.71404C8.5062 7.78751 8.32069 7.86098 8.19701 7.86098H7.76416V9.55078H7.02212V5.28955H6.89844ZM7.64049 6.09771V7.19976H7.94967C8.07334 7.19976 8.19702 7.12629 8.25885 7.05282C8.32069 6.97935 8.38252 6.83241 8.38252 6.68547C8.38252 6.53853 8.32069 6.39159 8.19701 6.31812C8.07334 6.24465 7.94967 6.17118 7.76416 6.17118L7.64049 6.09771Z" fill="white"/>
<path d="M9.55664 5.28955H11.9683V6.17118H11.1644V9.55078H10.4224V6.24465H9.61848V5.28955H9.55664Z" fill="white"/>
<path d="M12.2169 30.1219C9.80524 30.1219 7.88831 27.8443 7.88831 24.979C7.88831 22.4076 9.49606 20.277 11.5985 19.9096V17.7056C8.44484 18.0729 6.0332 21.2321 6.0332 24.979C6.0332 29.0199 8.81586 32.326 12.2169 32.326C15.4324 32.326 18.0295 29.4607 18.3387 25.7137H16.4836C16.1744 28.2117 14.3812 30.1219 12.2169 30.1219Z" fill="#FBC3A9"/>
<path d="M12.8344 24.2451V19.9104C12.6489 19.9104 12.4015 19.8369 12.216 19.8369C12.0305 19.8369 11.7832 19.8369 11.5977 19.9104V24.2451H12.8344Z" fill="#FBC3A9"/>
<path d="M12.216 19.8369C12.4015 19.8369 12.6489 19.8369 12.8344 19.9104V17.7063C12.6489 17.7063 12.4015 17.6328 12.216 17.6328C12.0305 17.6328 11.7832 17.6328 11.5977 17.7063V19.9104C11.7832 19.8369 12.0305 19.8369 12.216 19.8369Z" fill="#FBC3A9"/>
<path d="M12.8359 25.7145H16.4843C16.4843 25.4941 16.5461 25.2002 16.5461 24.9798C16.5461 24.7594 16.5461 24.4655 16.4843 24.2451H12.8359V25.7145Z" fill="#FBC3A9"/>
<path d="M18.3356 24.2446H16.4805C16.4805 24.465 16.5423 24.7589 16.5423 24.9793C16.5423 25.1997 16.5423 25.4936 16.4805 25.714H18.3356C18.3356 25.4936 18.3974 25.1997 18.3974 24.9793C18.3974 24.7589 18.3974 24.465 18.3356 24.2446Z" fill="#FBC3A9"/>
<path d="M12.8344 24.2446H11.5977V25.714H12.8344V24.2446Z" fill="#FBC3A9"/>
<path d="M20.1323 21.3063C19.6376 18.441 17.7206 16.1634 15.309 15.5757C14.938 15.5022 14.5051 15.4287 14.0723 15.4287V17.6328V21.3063V22.7756H15.309H18.4008H20.2559C20.2559 22.2614 20.1941 21.7471 20.1323 21.3063ZM15.309 21.3063V17.8532C16.7312 18.3675 17.7825 19.6165 18.2153 21.3063H15.309Z" fill="#FBC3A9"/>
</svg>
