<svg width="41" height="48" viewBox="0 0 41 48" fill="none" xmlns="http://www.w3.org/2000/svg">
<path d="M4.8984 47.5105C2.44942 47.5105 0.490234 45.5514 0.490234 43.1024V5.87789C0.490234 3.42891 2.44942 1.46973 4.8984 1.46973H28.2127L38.6943 11.9514V43.1024C38.6943 45.5514 36.7351 47.5105 34.2862 47.5105H4.8984Z" fill="#F6F6F6"/>
<path d="M28.0163 1.95908L38.2041 12.1468V43.1019C38.2041 45.257 36.4408 47.0203 34.2857 47.0203H4.89796C2.74286 47.0203 0.979592 45.257 0.979592 43.1019V5.87745C0.979592 3.72235 2.74286 1.95908 4.89796 1.95908H28.0163ZM28.4082 0.979492H4.89796C2.1551 0.979492 0 3.13459 0 5.87745V43.1019C0 45.8448 2.1551 47.9999 4.89796 47.9999H34.2857C37.0286 47.9999 39.1837 45.8448 39.1837 43.1019V11.755L28.4082 0.979492Z" fill="#E0E0E0"/>
<path d="M4.8984 47.5105C2.44942 47.5105 0.490234 45.5514 0.490234 43.1024V5.87789C0.490234 3.42891 2.44942 1.46973 4.8984 1.46973H28.2127L38.6943 11.9514V43.1024C38.6943 45.5514 36.7351 47.5105 34.2862 47.5105H4.8984Z" fill="#3098D8"/>
<path d="M28.0163 1.95908L38.2041 12.1468V43.1019C38.2041 45.257 36.4408 47.0203 34.2857 47.0203H4.89796C2.74286 47.0203 0.979592 45.257 0.979592 43.1019V5.87745C0.979592 3.72235 2.74286 1.95908 4.89796 1.95908H28.0163ZM28.4082 0.979492H4.89796C2.1551 0.979492 0 3.13459 0 5.87745V43.1019C0 45.8448 2.1551 47.9999 4.89796 47.9999H34.2857C37.0286 47.9999 39.1837 45.8448 39.1837 43.1019V11.755L28.4082 0.979492Z" fill="#2C8AC4"/>
<path d="M29.7793 10.2861L39.2813 19.7882V10.2861H29.7793Z" fill="#2C8AC4"/>
<path d="M40.1633 11.7551H33.3062C30.5633 11.7551 28.4082 9.6 28.4082 6.85714V0H40.1633V11.7551Z" fill="#97CBEC"/>
<path d="M5.48438 7.05273H7.44356C8.22723 7.05273 8.91295 7.34661 9.40274 7.83641C9.89254 8.3262 10.1864 9.01192 10.1864 9.89355C10.1864 10.7752 9.89254 11.4609 9.40274 11.9507C8.81499 12.4405 8.12927 12.7344 7.24764 12.7344H5.48438V7.05273ZM6.65989 8.13029V11.6568H7.14968C7.63948 11.6568 8.03131 11.5589 8.42315 11.265C8.71703 10.9711 8.91295 10.5793 8.91295 9.89355C8.91295 9.50171 8.81499 9.20784 8.71703 8.91396C8.61907 8.62008 8.22723 8.42416 7.93336 8.3262C7.63948 8.22824 7.3456 8.13029 7.14968 8.13029H6.65989Z" fill="white"/>
<path d="M10.873 9.89355C10.873 9.01192 11.1669 8.3262 11.6567 7.83641C12.2445 7.24865 12.8322 7.05273 13.6159 7.05273C14.4975 7.05273 15.1833 7.34661 15.673 7.83641C16.2608 8.42416 16.4567 9.10988 16.4567 9.89355C16.4567 10.6772 16.1628 11.3629 15.673 11.9507C15.0853 12.5384 14.3996 12.7344 13.6159 12.7344C12.8322 12.7344 12.1465 12.4405 11.5588 11.9507C11.1669 11.4609 10.873 10.7752 10.873 9.89355ZM13.7139 8.13029C13.2241 8.13029 12.8322 8.3262 12.5384 8.62008C12.2445 8.91396 12.1465 9.40376 12.1465 9.89355C12.1465 10.3833 12.3424 10.7752 12.6363 11.167C12.9302 11.4609 13.322 11.6568 13.7139 11.6568C14.2037 11.6568 14.5955 11.4609 14.8894 11.167C15.1833 10.8731 15.2812 10.3833 15.2812 9.89355C15.2812 9.40376 15.1833 8.91396 14.8894 8.62008C14.5955 8.3262 14.2037 8.13029 13.7139 8.13029Z" fill="white"/>
<path d="M20.1784 7.05273C20.6682 7.05273 21.256 7.15069 21.7458 7.44457V8.816C21.158 8.42416 20.5702 8.22824 20.1784 8.22824C19.6886 8.22824 19.3947 8.42416 19.1009 8.71804C18.807 9.01192 18.709 9.50171 18.709 9.99151C18.709 10.4813 18.807 10.8731 19.1009 11.167C19.3947 11.4609 19.7866 11.6568 20.2764 11.6568C20.6682 11.6568 21.256 11.4609 21.8437 11.167V12.5384C21.158 12.7344 20.6682 12.8323 20.1784 12.8323C19.3947 12.8323 18.807 12.5384 18.2192 11.9507C17.7294 11.3629 17.4355 10.6772 17.4355 9.89355C17.4355 9.10988 17.7294 8.42416 18.2192 7.83641C18.807 7.24865 19.3947 7.05273 20.1784 7.05273Z" fill="white"/>
<path d="M31.8366 24.4902H7.83658C7.0529 24.4902 6.36719 25.1759 6.36719 25.9596C6.36719 26.7433 7.0529 27.429 7.83658 27.429H31.8366C32.6202 27.429 33.306 26.7433 33.306 25.9596C33.306 25.1759 32.6202 24.4902 31.8366 24.4902Z" fill="#D8D8D8"/>
<path d="M31.8366 30.3672H7.83658C7.0529 30.3672 6.36719 31.0529 6.36719 31.8366C6.36719 32.6202 7.0529 33.306 7.83658 33.306H31.8366C32.6202 33.306 33.306 32.6202 33.306 31.8366C33.306 31.0529 32.6202 30.3672 31.8366 30.3672Z" fill="#D8D8D8"/>
<path d="M21.5509 36.2451H7.83658C7.0529 36.2451 6.36719 36.9308 6.36719 37.7145C6.36719 38.4982 7.0529 39.1839 7.83658 39.1839H21.5509C22.3345 39.1839 23.0202 38.4982 23.0202 37.7145C23.0202 36.9308 22.3345 36.2451 21.5509 36.2451Z" fill="#D8D8D8"/>
</svg>
