<svg width="64" height="64" viewBox="0 0 64 64" fill="none" xmlns="http://www.w3.org/2000/svg">
<circle cx="32" cy="32" r="24" fill="#5448B7"/>
<path fill-rule="evenodd" clip-rule="evenodd" d="M32 37.9604C27.1817 37.9604 23.272 34.0507 23.272 29.2324C23.272 24.414 27.1817 20.5043 32 20.5043C36.8183 20.5043 40.728 24.414 40.728 29.2324C40.728 34.0507 36.8183 37.9604 32 37.9604ZM32 56C45.2546 56 56 45.2546 56 32C56 18.7454 45.2546 8 32 8C18.7454 8 8 18.7454 8 32C8 45.2546 18.7454 56 32 56ZM18.0868 48.7225C20.3209 43.2372 25.7061 39.3692 32 39.3692C38.2939 39.3692 43.6791 43.2372 45.9132 48.7225C50.7065 44.7294 53.7576 38.719 53.7576 32C53.7576 19.9875 44.0208 10.2424 32 10.2424C19.9792 10.2424 10.2424 19.9792 10.2424 32C10.2424 38.719 13.2935 44.7378 18.0868 48.7225Z" fill="#F6C6A5"/>
</svg>
