<svg width="88" height="88" viewBox="0 0 88 88" fill="none" xmlns="http://www.w3.org/2000/svg">
<circle cx="44" cy="44" r="33" fill="#E0F2F1"/>
<path fill-rule="evenodd" clip-rule="evenodd" d="M44 52.1956C37.3748 52.1956 31.999 46.8197 31.999 40.1945C31.999 33.5693 37.3748 28.1935 44 28.1935C50.6252 28.1935 56.001 33.5693 56.001 40.1945C56.001 46.8197 50.6252 52.1956 44 52.1956ZM44 77C62.2251 77 77 62.2251 77 44C77 25.7749 62.2251 11 44 11C25.7749 11 11 25.7749 11 44C11 62.2251 25.7749 77 44 77ZM24.8694 66.9934C27.9413 59.4512 35.346 54.1327 44 54.1327C52.654 54.1327 60.0587 59.4512 63.1306 66.9934C69.7214 61.503 73.9166 53.2386 73.9166 44C73.9166 27.4828 60.5287 14.0834 44 14.0834C27.4713 14.0834 14.0834 27.4713 14.0834 44C14.0834 53.2386 18.2786 61.5144 24.8694 66.9934Z" fill="#26A69A"/>
</svg>
