<svg width="172" height="97" viewBox="0 0 172 97" fill="none" xmlns="http://www.w3.org/2000/svg">
<g filter="url(#filter0_d)">
<path d="M10 10C10 4.47715 14.4772 0 20 0H152C157.523 0 162 4.47715 162 10V46C162 51.5229 157.523 56 152 56H55L31 77L35.5 56H20C14.4772 56 10 51.5228 10 46V10Z" fill="#FDEEEE"/>
<path d="M55 55.5H54.8121L54.6707 55.6237L31.8046 75.6316L35.9889 56.1048L36.1185 55.5H35.5H20C14.7533 55.5 10.5 51.2467 10.5 46V10C10.5 4.75329 14.7533 0.5 20 0.5H152C157.247 0.5 161.5 4.7533 161.5 10V46C161.5 51.2467 157.247 55.5 152 55.5H55Z" stroke="#EB5757"/>
</g>
<defs>
<filter id="filter0_d" x="0" y="0" width="172" height="97" filterUnits="userSpaceOnUse" color-interpolation-filters="sRGB">
<feFlood flood-opacity="0" result="BackgroundImageFix"/>
<feColorMatrix in="SourceAlpha" type="matrix" values="0 0 0 0 0 0 0 0 0 0 0 0 0 0 0 0 0 0 127 0"/>
<feOffset dy="10"/>
<feGaussianBlur stdDeviation="5"/>
<feColorMatrix type="matrix" values="0 0 0 0 0.921569 0 0 0 0 0.341176 0 0 0 0 0.341176 0 0 0 0.1 0"/>
<feBlend mode="normal" in2="BackgroundImageFix" result="effect1_dropShadow"/>
<feBlend mode="normal" in="SourceGraphic" in2="effect1_dropShadow" result="shape"/>
</filter>
</defs>
</svg>
