<svg width="30" height="30" viewBox="0 0 30 30" fill="none" xmlns="http://www.w3.org/2000/svg">
<circle cx="15" cy="15" r="10.75" fill="#FCD734" stroke="#26A69A"/>
<path d="M19.375 10.0818H16.0032C16.3933 10.2907 16.6936 10.5432 16.9042 10.8391C17.1147 11.1293 17.2541 11.4572 17.3222 11.8228H19.375V13.1546H17.3036C17.1736 13.7581 16.867 14.2862 16.384 14.7389C15.9072 15.1915 15.2756 15.5252 14.4891 15.7399C14.7864 15.885 15.0372 16.0997 15.2415 16.3841L18.9942 21.25H17.2293C16.8825 21.25 16.6224 21.1194 16.449 20.8583L13.1608 16.5233C13.0556 16.3782 12.941 16.2767 12.8171 16.2187C12.6933 16.1548 12.5044 16.1229 12.2505 16.1229H10.6436V14.8433H12.4177C13.2475 14.8433 13.9101 14.6895 14.4055 14.382C14.9071 14.0686 15.2384 13.6595 15.3994 13.1546H10.625V11.8228H15.4459C15.3158 11.2831 15.0031 10.8682 14.5077 10.578C14.0185 10.282 13.3435 10.1341 12.4827 10.1341H10.6436V8.75H19.375V10.0818Z" fill="#26A69A"/>
</svg>
