<svg width="215" height="180" viewBox="0 0 215 180" fill="none" xmlns="http://www.w3.org/2000/svg">
<g opacity="0.24">
<path opacity="0.5" d="M105.439 57.0614H164.91V171.694H105.439V57.0614Z" fill="#FD7701"/>
<path opacity="0.5" d="M80.451 37.7013H130.019V171.694H80.451V37.7013Z" fill="#FD7701"/>
<path opacity="0.5" d="M21.4926 90.5852H77.0127V171.694H21.4926V90.5852Z" fill="#FD7701"/>
<path opacity="0.5" d="M171.222 92.725H235.055V171.694H171.222V92.725Z" fill="#FD7701"/>
<path opacity="0.5" d="M38.2709 62.2071H77.4736V171.694H38.2709V62.2071Z" fill="#FD7701"/>
<path opacity="0.5" d="M206.269 81.4145H235.209V171.643H206.269V81.4145Z" fill="#FD7701"/>
<path opacity="0.5" d="M-21.559 85.7962H15.1807V171.694H-21.559V85.7962Z" fill="#FD7701"/>
</g>
<path d="M-26.7925 179.031H240.443C242.752 179.031 244.65 177.146 244.65 174.853C244.65 172.56 242.752 170.675 240.443 170.675H-26.7925C-29.1015 170.675 -31.0001 172.56 -31.0001 174.853C-31.0001 177.146 -29.1015 179.031 -26.7925 179.031Z" fill="#009887"/>
<path d="M216.224 37.5485C215.454 37.5485 214.684 37.7523 214.069 38.058C213.248 33.3198 209.091 29.7535 204.114 29.7535C199.958 29.7535 196.366 32.2499 194.827 35.8163C193.903 35.3068 192.825 35.0011 191.645 35.0011C188.361 35.0011 185.642 37.3957 185.128 40.5544C184.513 39.4336 183.384 38.6694 181.998 38.6694C180.767 38.6694 179.689 39.2807 179.074 40.1978C177.996 38.5675 176.149 37.4976 174.096 37.4976C171.223 37.4976 168.862 39.5355 168.298 42.1848H221.252C221.047 39.5864 218.841 37.5485 216.224 37.5485Z" fill="#DBF2F0"/>
<path d="M169.734 17.4242C169.375 15.641 167.784 14.3164 165.885 14.3164C164.603 14.3164 163.474 14.9277 162.755 15.8958C161.934 13.1955 159.369 11.2086 156.341 11.2086C155.264 11.2086 154.238 11.4633 153.314 11.9218C153.211 7.03083 149.209 3.10785 144.283 3.10785C140.024 3.10785 136.432 6.06282 135.508 10.0368C134.277 9.06875 132.738 8.50832 131.044 8.50832C127.606 8.50832 124.733 10.9029 124.014 14.0616C123.142 13.2974 121.962 12.8389 120.73 12.8389C118.832 12.8389 117.19 13.8578 116.318 15.4372C115.599 12.5332 112.982 10.4443 109.852 10.4443C106.671 10.4443 104.054 12.6351 103.336 15.5391C102.669 15.0806 101.899 14.7749 101.027 14.7749C99.2819 14.7749 97.7938 15.8958 97.2807 17.4751H169.734V17.4242Z" fill="#DBF2F0"/>
<path d="M-1.0843 39.6375C-0.00674057 39.6375 0.968201 40.147 1.53263 40.9621V40.9112C1.43001 39.9941 1.7892 38.7204 1.7892 38.7204C2.6102 36.173 5.02188 34.3899 7.84406 34.3899C9.33212 34.3899 10.7176 34.8993 11.7951 35.7655C12.6161 32.301 15.7462 29.7027 19.492 29.7027C23.8022 29.7027 27.3428 33.1671 27.4454 37.4467C28.2664 37.0392 29.1387 36.8354 30.1137 36.8354C32.7819 36.8354 34.9883 38.5676 35.758 40.9621C36.3738 40.147 37.4 39.5866 38.5289 39.5866C40.2222 39.5866 41.6077 40.7584 41.9155 42.2868H-4.26568C-3.95781 40.7584 -2.67499 39.6375 -1.0843 39.6375Z" fill="#DBF2F0"/>
<path d="M8.04829 120.339H192.773V174.089H8.04829V120.339Z" fill="#009887"/>
<path d="M6.45854 167.822H194.365V174.089H6.45854V167.822Z" fill="#007C6B"/>
<path d="M8.15123 110.608H192.671L195.955 120.543H4.86725L8.15123 110.608Z" fill="#FF7700"/>
<path d="M175.687 126.249H184.307V141.176H175.687V126.249Z" fill="#A5E0DA"/>
<path d="M175.739 141.177H184.308L184.821 142.196H175.225L175.739 141.177Z" fill="#006B5C"/>
<path opacity="0.2" d="M175.738 141.126H184.307V137.61L175.738 129.357V141.126Z" fill="#17BEB3"/>
<path d="M163.732 126.249H172.352V141.177H163.732V126.249Z" fill="#A5E0DA"/>
<path d="M163.783 141.177H172.352L172.865 142.196H163.27L163.783 141.177Z" fill="#006B5C"/>
<path opacity="0.2" d="M163.783 141.126H172.352V137.61L163.783 129.357V141.126Z" fill="#17BEB3"/>
<path d="M147.927 126.249H156.548V141.177H147.927V126.249Z" fill="#A5E0DA"/>
<path d="M147.979 141.177H156.548L157.061 142.196H147.466L147.979 141.177Z" fill="#006B5C"/>
<path opacity="0.2" d="M147.927 141.126H156.548V137.61L147.927 129.357V141.126Z" fill="#17BEB3"/>
<path d="M135.971 126.249H144.592V141.177H135.971V126.249Z" fill="#A5E0DA"/>
<path d="M135.971 141.177H144.592L145.105 142.196H135.51L135.971 141.177Z" fill="#006B5C"/>
<path opacity="0.2" d="M135.971 141.126H144.592V137.61L135.971 129.357V141.126Z" fill="#17BEB3"/>
<path d="M175.687 147.341H184.307V162.269H175.687V147.341Z" fill="#A5E0DA"/>
<path d="M175.739 162.269H184.308L184.821 163.288H175.225L175.739 162.269Z" fill="#006B5C"/>
<g opacity="0.2">
<path opacity="0.2" d="M175.738 162.269H184.307V158.703L175.738 150.449V162.269Z" fill="#17BEB3"/>
</g>
<path d="M163.732 147.341H172.352V162.269H163.732V147.341Z" fill="#A5E0DA"/>
<path d="M163.783 162.269H172.352L172.865 163.288H163.27L163.783 162.269Z" fill="#006B5C"/>
<path opacity="0.2" d="M163.783 162.269H172.352V158.703L163.783 150.449V162.269Z" fill="#17BEB3"/>
<path d="M147.927 147.341H156.548V162.269H147.927V147.341Z" fill="#A5E0DA"/>
<path d="M147.979 162.269H156.548L157.061 163.288H147.466L147.979 162.269Z" fill="#006B5C"/>
<path opacity="0.2" d="M147.927 162.269H156.548V158.702L147.927 150.449V162.269Z" fill="#17BEB3"/>
<path d="M135.971 147.341H144.592V162.269H135.971V147.341Z" fill="#A5E0DA"/>
<path d="M135.971 162.269H144.592L145.105 163.288H135.51L135.971 162.269Z" fill="#006B5C"/>
<path opacity="0.2" d="M135.971 162.269H144.592V158.702L135.971 150.449V162.269Z" fill="#17BEB3"/>
<path d="M56.1791 126.249H64.7996V141.177H56.1791V126.249Z" fill="#A5E0DA"/>
<path d="M56.2314 141.177H64.8006L65.3137 142.196H55.7183L56.2314 141.177Z" fill="#006B5C"/>
<path opacity="0.2" d="M56.1791 141.126H64.7996V137.61L56.1791 129.357V141.126Z" fill="#17BEB3"/>
<path d="M44.2233 126.249H52.8438V141.177H44.2233V126.249Z" fill="#A5E0DA"/>
<path d="M44.2233 141.177H52.8438L53.3569 142.196H43.7615L44.2233 141.177Z" fill="#006B5C"/>
<path opacity="0.2" d="M44.2233 141.126H52.8438V137.61L44.2233 129.357V141.126Z" fill="#17BEB3"/>
<path d="M28.3683 126.249H36.9888V141.177H28.3683V126.249Z" fill="#A5E0DA"/>
<path d="M28.4194 141.177H36.9886L37.5017 142.196H27.9062L28.4194 141.177Z" fill="#006B5C"/>
<path opacity="0.2" d="M28.4196 141.126H36.9888V137.61L28.4196 129.357V141.126Z" fill="#17BEB3"/>
<path d="M16.413 126.249H25.0334V141.177H16.413V126.249Z" fill="#A5E0DA"/>
<path d="M16.4646 141.177H25.0338L25.5469 142.196H15.9514L16.4646 141.177Z" fill="#006B5C"/>
<path opacity="0.2" d="M16.4642 141.126H25.0334V137.61L16.4642 129.357V141.126Z" fill="#17BEB3"/>
<path d="M56.1791 147.341H64.7996V162.269H56.1791V147.341Z" fill="#A5E0DA"/>
<path d="M56.2314 162.269H64.8006L65.3137 163.288H55.7183L56.2314 162.269Z" fill="#006B5C"/>
<g opacity="0.2">
<path opacity="0.2" d="M56.1791 162.269H64.7996V158.703L56.1791 150.449V162.269Z" fill="#17BEB3"/>
</g>
<path d="M44.2233 147.341H52.8438V162.269H44.2233V147.341Z" fill="#A5E0DA"/>
<path d="M44.2233 162.269H52.8438L53.3569 163.288H43.7615L44.2233 162.269Z" fill="#006B5C"/>
<path opacity="0.2" d="M44.2233 162.269H52.8438V158.703L44.2233 150.449V162.269Z" fill="#17BEB3"/>
<path d="M28.3683 147.341H36.9888V162.269H28.3683V147.341Z" fill="#A5E0DA"/>
<path d="M28.4194 162.269H36.9886L37.5017 163.288H27.9062L28.4194 162.269Z" fill="#006B5C"/>
<path opacity="0.2" d="M28.4196 162.269H36.9888V158.703L28.4196 150.449V162.269Z" fill="#17BEB3"/>
<path d="M16.413 147.341H25.0334V162.269H16.413V147.341Z" fill="#A5E0DA"/>
<path d="M16.4646 162.269H25.0338L25.5469 163.288H15.9514L16.4646 162.269Z" fill="#006B5C"/>
<path opacity="0.2" d="M16.4642 162.269H25.0334V158.703L16.4642 150.449V162.269Z" fill="#17BEB3"/>
<path opacity="0.55" d="M8.04829 120.594H192.773V121.918H8.04829V120.594Z" fill="#99E3DD"/>
<path d="M135.201 104.086L100.411 75.9633L65.5696 104.086H135.201Z" fill="#FF7700"/>
<path d="M71.7269 174.14H129.043V104.087L100.411 80.8544L71.7269 104.087V174.14Z" fill="#004F3F"/>
<path d="M79.6805 142.807H121.09V174.14H79.6805V142.807Z" fill="#FF7700"/>
<path opacity="0.2" d="M121.09 143.164V174.14H119.191V144.233H81.579V174.14H79.6805V143.164H121.09Z" fill="#4FCEC5"/>
<path d="M70.1361 138.425H130.634V143.164H70.1361V138.425Z" fill="#008B7B"/>
<path d="M88.8651 156.716C89.0704 152.283 94.1503 148.717 100.359 148.717C106.568 148.717 111.648 152.283 111.853 156.716V174.14H88.8138L88.8651 156.716Z" fill="#006B5C"/>
<path opacity="0.2" d="M100.41 174.14H88.9164V156.716C89.1217 152.283 94.2016 148.717 100.41 148.717V174.14Z" fill="#17BEB3"/>
<path d="M94.048 98.0238C94.048 101.539 96.9215 104.341 100.411 104.341C103.951 104.341 106.773 101.488 106.773 98.0238C106.773 94.5084 103.9 91.7063 100.411 91.7063C96.8701 91.7063 94.048 94.5084 94.048 98.0238Z" fill="#009887"/>
<path d="M95.383 98.0237C95.383 100.775 97.6407 103.017 100.412 103.017C103.182 103.017 105.44 100.775 105.44 98.0237C105.44 95.2725 103.182 93.0308 100.412 93.0308C97.6407 93.0308 95.383 95.2725 95.383 98.0237Z" fill="#A5E0DA"/>
<path d="M114.008 111.066H122.628V131.7H114.008V111.066Z" fill="#A5E0DA"/>
<path d="M114.06 131.7H122.629L123.142 132.719H113.547L114.06 131.7Z" fill="#009887"/>
<g opacity="0.2">
<path opacity="0.2" d="M114.059 131.7H122.628V128.134L114.059 119.931V131.7Z" fill="#3DC9BF"/>
</g>
<path d="M102.053 111.066H110.673V131.7H102.053V111.066Z" fill="#A5E0DA"/>
<path d="M102.104 131.7H110.674L111.187 132.719H101.591L102.104 131.7Z" fill="#009887"/>
<path opacity="0.2" d="M102.104 131.7H110.673V128.134L102.104 119.931V131.7Z" fill="#3DC9BF"/>
<path d="M90.0966 111.066H98.717V131.7H90.0966V111.066Z" fill="#A5E0DA"/>
<path d="M90.1482 131.7H98.7173L99.2305 132.719H89.635L90.1482 131.7Z" fill="#009887"/>
<path opacity="0.2" d="M90.0966 131.7H98.717V128.134L90.0966 119.931V131.7Z" fill="#3DC9BF"/>
<path d="M78.141 111.066H86.7615V131.7H78.141V111.066Z" fill="#A5E0DA"/>
<path d="M78.141 131.7H86.7615L87.2747 132.719H77.6792L78.141 131.7Z" fill="#009887"/>
<path d="M86.7616 111.066H78.141L77.6791 110.047H87.2234L86.7616 111.066Z" fill="#009887"/>
<path d="M98.7174 111.066H90.0969L89.6351 110.047H99.1792L98.7174 111.066Z" fill="#009887"/>
<path d="M110.672 111.066H102.052L101.59 110.047H111.134L110.672 111.066Z" fill="#009887"/>
<path d="M122.629 111.066H114.008L113.546 110.047H123.142L122.629 111.066Z" fill="#009887"/>
<path opacity="0.2" d="M78.141 131.7H86.7615V128.134L78.141 119.931V131.7Z" fill="#3DC9BF"/>
<path opacity="0.3" d="M129.043 105.921L100.411 82.6884L71.7269 105.921V104.087L100.411 80.8034L129.043 104.087V105.921Z" fill="#00B8AB"/>
<path d="M70.9063 165.377H80.4504V174.14H70.9063V165.377Z" fill="#008B7B"/>
<path d="M70.8563 143.164H80.4004V145.049H70.8563V143.164Z" fill="#008B7B"/>
<path opacity="0.4" d="M70.8563 143.164H80.4004V143.826H70.8563V143.164Z" fill="#4FCEC5"/>
<path d="M120.371 165.377H129.915V174.14H120.371V165.377Z" fill="#008B7B"/>
<path d="M120.371 143.164H129.915V145.049H120.371V143.164Z" fill="#008B7B"/>
<path opacity="0.4" d="M120.371 143.164H129.915V143.826H120.371V143.164Z" fill="#4FCEC5"/>
<path d="M143.821 68.3209H144.95V174.191H143.821V68.3209Z" fill="#004F3F"/>
<path d="M125.453 78.8163C131.918 83.1978 138.435 74.4347 144.9 78.8163C144.9 75.148 144.9 71.5307 144.9 67.8624C138.435 63.4809 131.918 72.244 125.453 67.8624C125.453 71.5307 125.453 75.1989 125.453 78.8163Z" fill="#FFA300"/>
<path d="M190.541 161.657L191.464 161.25C192.029 162.473 193.619 165.224 195.415 166.243C195.929 166.447 196.082 165.886 196.082 165.428V160.74H197.93V165.479C197.981 165.937 198.135 166.498 198.699 166.192C200.495 165.122 202.035 162.422 202.548 161.25L203.471 161.657C203.369 161.861 201.47 166.039 198.802 167.262C198.186 167.567 197.981 168.484 197.93 169.096V174.089H196.082V169.147C196.031 168.484 195.826 167.567 195.21 167.262C192.542 165.988 190.643 161.861 190.541 161.657Z" fill="#004F3F"/>
<path d="M187.309 154.423C187.257 154.168 187.257 153.964 187.257 153.71C187.257 150.857 189.566 148.513 192.491 148.513C192.542 148.513 192.542 148.513 192.594 148.513C193.517 147.035 195.159 146.017 197.058 146.017C198.957 146.017 200.599 147.035 201.522 148.513C201.573 148.513 201.573 148.513 201.625 148.513C204.498 148.513 206.859 150.806 206.859 153.71C206.859 153.964 206.859 154.168 206.807 154.423C207.731 155.34 208.295 156.614 208.295 158.04C208.295 160.893 205.986 163.237 203.062 163.237C201.522 163.237 200.137 162.575 199.162 161.505C198.495 161.81 197.828 161.963 197.058 161.963C196.288 161.963 195.621 161.81 194.954 161.505C193.979 162.575 192.594 163.237 191.054 163.237C188.181 163.237 185.821 160.944 185.821 158.04C185.821 156.614 186.385 155.34 187.309 154.423Z" fill="#66CCC3"/>
<path d="M191.003 162.167C192.543 162.167 193.928 161.505 194.903 160.435C195.57 160.741 196.237 160.893 197.007 160.893C197.776 160.893 198.444 160.741 199.111 160.435C200.085 161.505 201.471 162.167 203.01 162.167C205.73 162.167 207.936 160.129 208.193 157.48C208.193 157.633 208.193 157.836 208.193 157.989C208.193 160.842 205.884 163.186 202.959 163.186C201.42 163.186 200.034 162.524 199.059 161.454C198.392 161.759 197.725 161.912 196.955 161.912C196.186 161.912 195.519 161.759 194.852 161.454C193.877 162.524 192.491 163.186 190.952 163.186C188.078 163.186 185.718 160.893 185.718 157.989C185.718 157.836 185.718 157.633 185.718 157.48C186.077 160.129 188.335 162.167 191.003 162.167Z" fill="#00A899"/>
<path d="M7.70952 156.257L8.94102 155.697C9.6594 157.276 11.7632 160.995 14.1749 162.32C14.842 162.575 15.0472 161.81 15.0985 161.25V155.034H17.5102V161.301C17.5615 161.861 17.7668 162.626 18.5365 162.218C20.8968 160.842 22.898 157.276 23.6164 155.697L24.8479 156.257C24.7453 156.512 22.1796 162.065 18.6391 163.696C17.8181 164.103 17.5615 165.275 17.5102 166.141V174.14H15.0985V166.192C14.9959 165.326 14.7393 164.103 13.9183 163.696C10.3778 162.014 7.86346 156.512 7.70952 156.257Z" fill="#004F3F"/>
<path d="M3.39895 146.679C3.34764 146.373 3.34764 146.067 3.34764 145.762C3.34764 141.992 6.42638 138.884 10.2748 138.884C10.3261 138.884 10.3774 138.884 10.3774 138.884C11.6089 136.897 13.7641 135.572 16.2784 135.572C18.7927 135.572 20.9991 136.897 22.1793 138.884C22.2306 138.884 22.2819 138.884 22.2819 138.884C26.079 138.884 29.2091 141.941 29.2091 145.762C29.2091 146.067 29.2091 146.373 29.1578 146.679C30.3893 147.902 31.1077 149.583 31.1077 151.468C31.1077 155.238 28.0289 158.346 24.1805 158.346C22.128 158.346 20.2807 157.48 19.0492 156.053C18.1769 156.41 17.2533 156.614 16.2784 156.614C15.3034 156.614 14.3285 156.41 13.5075 156.053C12.2247 157.429 10.4287 158.346 8.37625 158.346C4.57913 158.346 1.44907 155.289 1.44907 151.468C1.44907 149.583 2.21877 147.902 3.39895 146.679Z" fill="#66CCC3"/>
<path d="M8.3765 156.97C10.429 156.97 12.2762 156.104 13.5077 154.678C14.38 155.034 15.3037 155.238 16.2786 155.238C17.2535 155.238 18.2285 155.034 19.0495 154.678C20.3323 156.053 22.1282 156.97 24.1807 156.97C27.7726 156.97 30.6974 154.27 31.0566 150.755C31.0566 150.959 31.1079 151.213 31.1079 151.417C31.1079 155.187 28.0292 158.295 24.1807 158.295C22.1282 158.295 20.281 157.429 19.0495 156.002C18.1772 156.359 17.2535 156.563 16.2786 156.563C15.3037 156.563 14.3287 156.359 13.5077 156.002C12.2249 157.378 10.429 158.295 8.3765 158.295C4.57937 158.295 1.44932 155.238 1.44932 151.417C1.44932 151.213 1.44932 150.959 1.50063 150.755C1.80851 154.27 4.78462 156.97 8.3765 156.97Z" fill="#00A899"/>
<path d="M169.605 154.27L170.991 153.659C171.812 155.442 174.121 159.518 176.789 161.046C177.507 161.352 177.764 160.486 177.815 159.874V152.945H180.535V159.925C180.586 160.588 180.843 161.403 181.664 160.944C184.281 159.416 186.538 155.391 187.359 153.659L188.745 154.27C188.591 154.576 185.769 160.74 181.818 162.575C180.945 163.033 180.638 164.358 180.535 165.275V174.089H177.815V165.326C177.713 164.358 177.405 162.982 176.533 162.575H176.584C172.581 160.74 169.759 154.576 169.605 154.27Z" fill="#004F3F"/>
<path d="M164.783 143.622C164.731 143.265 164.731 142.96 164.731 142.603C164.731 138.374 168.169 134.961 172.428 134.961C172.48 134.961 172.531 134.961 172.582 134.961C173.916 132.77 176.379 131.293 179.15 131.293C181.921 131.293 184.384 132.77 185.718 134.961C185.77 134.961 185.821 134.961 185.872 134.961C190.131 134.961 193.569 138.374 193.569 142.603C193.569 142.96 193.569 143.316 193.518 143.622C194.852 144.998 195.724 146.883 195.724 148.971C195.724 153.2 192.286 156.614 188.027 156.614C185.77 156.614 183.717 155.646 182.28 154.066C181.305 154.474 180.279 154.729 179.15 154.729C178.021 154.729 176.995 154.474 176.02 154.066C174.635 155.646 172.582 156.614 170.273 156.614C166.014 156.614 162.576 153.2 162.576 148.971C162.628 146.883 163.449 144.998 164.783 143.622Z" fill="#66CCC3"/>
<path d="M170.323 155.085C172.581 155.085 174.634 154.117 176.07 152.538C177.045 152.945 178.072 153.2 179.2 153.2C180.329 153.2 181.356 152.945 182.331 152.538C183.716 154.117 185.768 155.085 188.078 155.085C192.08 155.085 195.364 152.079 195.723 148.207C195.723 148.462 195.774 148.717 195.774 148.972C195.774 153.2 192.336 156.614 188.078 156.614C185.82 156.614 183.767 155.646 182.331 154.066C181.356 154.474 180.329 154.729 179.2 154.729C178.072 154.729 177.045 154.474 176.07 154.066C174.685 155.646 172.633 156.614 170.323 156.614C166.065 156.614 162.627 153.2 162.627 148.972C162.627 148.717 162.627 148.462 162.678 148.207C163.037 152.079 166.321 155.085 170.323 155.085Z" fill="#00A899"/>
<path d="M61.8237 31.6385C61.8237 31.6385 58.9502 34.6954 57.103 36.5295C55.0505 33.6255 53.6651 32.0461 51.6639 29.5496C53.3572 30.7214 57.4622 34.3387 57.4622 34.3387L61.8237 31.6385Z" fill="#009887"/>
<path d="M77.5256 23.7927C75.1139 24.7097 68.9565 28.378 68.9565 28.378C68.9565 28.378 60.6438 22.1623 58.694 20.9396C62.9529 22.3152 69.367 25.8815 69.367 25.8815C69.367 25.8815 75.5244 24.1493 77.5256 23.7927Z" fill="#009887"/>
<path d="M50.9973 0.968009C49.4579 2.03791 44.7885 6.21563 44.7885 6.21563C44.7885 6.21563 38.9389 1.0699 37.5021 0C40.5809 1.1718 45.199 4.22867 45.199 4.22867C45.199 4.22867 49.5606 1.32464 50.9973 0.968009Z" fill="#009887"/>
</svg>
