<svg width="208" height="180" viewBox="0 0 208 180" fill="none" xmlns="http://www.w3.org/2000/svg">
<path d="M192.108 26.5155C174.309 5.1462 141.471 6.60689 122.157 26.5155L112.474 36.4699L102.79 26.5155C83.4762 6.60689 50.6377 5.1462 32.8931 26.5155C-22.018 92.5711 80.4466 159.06 112.528 177.778C144.555 159.06 247.019 92.5711 192.108 26.5155Z" fill="#DBF2F0"/>
<path d="M158.187 129.738C165.382 121.514 167.222 109.667 165.328 98.9008C164.409 93.7073 161.487 80.3447 151.046 71.9592C154.076 70.0657 155.915 66.0083 155.266 62.1672C153.859 54.1064 143.688 50.2112 142.931 42.0962C142.66 39.3913 143.58 36.7945 144.013 34.1436C144.824 29.5451 144.392 24.4598 141.849 20.6728C140.442 18.617 138.333 17.0481 136.006 16.453C130.921 18.9957 126.214 22.3499 122.103 26.6238L112.419 36.5781L102.789 26.5156C101.22 24.8926 99.5431 23.3778 97.8119 22.0253C97.1627 23.8647 96.784 25.7582 96.784 27.7058C96.8381 29.491 97.2709 31.3304 97.1627 33.1157C96.9463 39.4454 91.32 43.4487 88.2904 48.6964C86.0182 52.5916 85.1526 57.5687 86.3969 62.059C86.8838 63.9525 87.8035 65.7378 88.9937 67.1984C78.1197 70.0657 65.0817 71.7969 56.3717 67.6853C45.6599 62.7082 41.4402 55.7293 37.3286 44.9635C37.0581 45.0717 36.7876 45.1258 36.5171 45.234C36.5171 44.693 36.4089 44.2061 36.4089 43.7733C36.3548 42.6913 36.2466 41.6635 35.9761 40.6356C35.4892 38.7421 34.5695 36.9568 33.1088 35.6584C32.5137 35.1174 31.7563 34.6846 30.999 34.4141C30.2416 33.4403 29.4301 32.5747 28.7268 31.8714C26.1841 35.4961 24.0742 39.1749 22.343 42.7995C22.8299 43.2864 23.4791 43.6651 24.1283 43.8815C24.6693 44.5848 25.2644 45.234 25.9136 45.8291C27.1579 46.9652 28.6186 47.8308 30.0793 48.7505C30.458 49.021 30.8908 49.2374 31.3235 49.3456C30.458 50.5899 29.917 51.8883 29.7547 52.8621C32.135 68.8214 45.2271 92.8958 82.3395 95.0056C86.6674 98.8467 87.0461 118.377 84.6116 135.31C83.9083 140.179 82.8264 147.807 81.5821 155.705C93.5381 164.848 105.007 172.206 113.284 177.183C122.157 171.989 135.952 163.388 150.234 152.297C150.18 151.269 150.072 150.187 150.018 149.213L161.379 139.53L155.482 132.226C156.51 131.523 157.376 130.657 158.187 129.738Z" fill="#A5E0DA"/>
<path d="M182.478 94.1941C181.991 94.4105 181.45 94.735 180.964 95.1137C181.829 93.058 182.478 91.4891 182.803 90.6235C184.48 90.1907 184.805 87.5398 184.751 86.025C184.642 83.861 183.831 81.8053 182.857 79.8577C181.396 81.4266 180.152 83.3741 179.773 85.484C179.449 87.2693 179.611 90.2448 181.883 90.6776C181.288 92.2465 179.99 95.3842 178.096 99.4958C178.042 98.9548 177.934 98.4679 177.826 98.0892C177.231 95.9793 175.986 94.14 174.58 92.517C173.498 94.4104 172.74 96.5203 172.849 98.6843C172.957 100.524 173.822 103.337 176.095 103.229C176.203 103.229 176.257 103.229 176.311 103.175C174.959 105.988 173.336 109.126 171.442 112.534C171.442 112.047 171.388 111.614 171.334 111.235C171.063 109.071 170.035 107.07 168.899 105.284C167.547 107.016 166.519 109.017 166.357 111.181C166.194 113.021 166.681 115.942 168.953 116.158C169.116 116.158 169.278 116.158 169.44 116.158C168.088 118.539 166.573 120.973 165.004 123.516C165.112 122.542 164.896 121.406 164.68 120.649C164.084 118.539 162.84 116.699 161.434 115.076C160.352 116.97 159.594 119.08 159.702 121.244C159.811 123.083 160.676 125.896 162.948 125.788C163.219 125.788 163.381 125.734 163.598 125.68C162.299 127.682 160.947 129.683 159.54 131.739C159.486 130.819 159.216 129.9 158.945 129.196C158.134 127.195 156.673 125.464 155.104 124.003C154.238 126.005 153.697 128.223 154.076 130.333C154.347 132.064 155.429 134.661 157.538 134.552C156.294 136.284 154.942 138.069 153.589 139.8C153.535 138.88 153.265 137.852 152.994 137.203C152.183 135.202 150.722 133.47 149.153 132.01C148.287 134.011 147.746 136.229 148.125 138.339C148.396 140.016 149.424 142.559 151.425 142.559C150.127 144.182 148.774 145.805 147.368 147.374C147.368 146.4 147.043 145.318 146.773 144.561C145.961 142.559 144.5 140.828 142.932 139.367C142.066 141.369 141.525 143.587 141.904 145.697C142.174 147.374 143.202 149.863 145.15 149.917C136.115 159.817 125.349 169.122 112.798 176.263L113.231 177.021C125.025 170.366 135.195 161.764 143.905 152.567C143.905 152.567 143.905 152.567 143.905 152.622C143.959 155.164 147.314 154.948 149.045 154.515C151.155 153.974 153.048 152.784 154.725 151.431C152.886 150.295 150.776 149.484 148.612 149.538C147.963 149.538 147.205 149.646 146.448 149.863C147.746 148.456 148.991 146.995 150.235 145.535C150.506 147.753 153.643 147.536 155.32 147.158C157.43 146.617 159.324 145.426 161.001 144.074C159.161 142.938 157.052 142.126 154.888 142.18C154.238 142.18 153.481 142.289 152.778 142.505C152.94 142.289 153.156 142.018 153.319 141.802C153.319 141.802 153.319 141.802 153.319 141.748C154.563 140.233 155.699 138.664 156.889 137.149C156.997 139.638 160.298 139.421 161.975 138.988C164.084 138.448 165.978 137.257 167.655 135.905C165.816 134.769 163.706 133.957 161.542 134.011C160.73 134.011 159.648 134.174 158.783 134.606C159.919 133.038 161.001 131.523 162.029 129.954C162.029 130.116 162.029 130.224 162.083 130.387C162.678 132.875 165.87 131.901 167.493 131.144C169.44 130.17 171.009 128.601 172.362 126.924C170.306 126.221 168.088 125.842 165.978 126.383C165.329 126.546 164.517 126.816 163.814 127.249C165.275 125.031 166.627 122.867 167.926 120.703C167.926 120.865 167.926 121.027 167.98 121.19C168.575 123.678 171.767 122.705 173.39 121.947C175.337 120.973 176.906 119.404 178.259 117.727C176.203 117.024 173.985 116.645 171.875 117.186C171.117 117.349 170.144 117.727 169.386 118.268C171.172 115.239 172.795 112.317 174.201 109.612C175.121 111.993 178.15 110.64 179.665 109.612C181.45 108.422 182.803 106.637 183.939 104.798C181.829 104.365 179.557 104.311 177.501 105.122C177.068 105.284 176.636 105.501 176.149 105.825C176.744 104.689 177.285 103.553 177.772 102.525C177.88 102.417 177.934 102.255 177.988 102.093C178.529 101.011 179.016 99.9286 179.449 98.9548C179.449 99.0089 179.503 99.063 179.503 99.1712C180.585 101.497 183.506 99.9286 184.967 98.8466C186.698 97.5482 187.942 95.6547 188.916 93.7613C186.698 93.1662 184.426 93.2744 182.478 94.1941Z" fill="#009887"/>
<path d="M50.1502 103.716C50.583 103.878 51.0699 104.148 51.5568 104.473C50.6371 102.634 49.9879 101.281 49.6092 100.47C48.0403 100.199 47.6075 97.7647 47.5534 96.3581C47.4993 94.3564 48.0944 92.4088 48.9059 90.6235C50.3666 91.976 51.5568 93.6531 52.0437 95.6007C52.4224 97.2237 52.4765 99.9286 50.4207 100.47C51.0699 101.876 52.4224 104.635 54.424 108.26C54.424 107.773 54.5322 107.34 54.5863 106.962C54.965 105.014 56.047 103.283 57.2372 101.66C58.3192 103.337 59.1307 105.23 59.1848 107.178C59.1848 108.855 58.5897 111.506 56.4798 111.506C56.4257 111.506 56.3175 111.506 56.2634 111.506C57.67 113.995 59.3471 116.754 61.2406 119.729C61.1865 119.296 61.2406 118.918 61.2406 118.539C61.3488 116.537 62.1603 114.698 63.1341 112.967C64.4325 114.427 65.5145 116.213 65.7849 118.214C66.0554 119.837 65.785 122.596 63.7292 122.921C63.5669 122.921 63.4046 122.975 63.2964 122.921C64.703 124.977 66.1636 127.141 67.7866 129.359C67.6243 128.439 67.7325 127.411 67.8948 126.708C68.2735 124.76 69.3555 123.029 70.5457 121.406C71.6277 123.083 72.4392 124.977 72.4933 126.924C72.4933 128.601 71.8982 131.252 69.7883 131.252C69.5719 131.252 69.3555 131.198 69.1932 131.198C70.4916 132.929 71.8441 134.715 73.2507 136.446C73.2507 135.634 73.4671 134.715 73.6294 134.12C74.2245 132.226 75.4688 130.603 76.8213 129.142C77.741 130.874 78.3361 132.875 78.1738 134.877C78.0115 136.5 77.2 138.934 75.2524 138.934C76.4967 140.449 77.7951 141.964 79.1475 143.479C79.1475 142.613 79.3098 141.694 79.5262 141.044C80.1213 139.151 81.3656 137.528 82.7181 136.067C83.6378 137.798 84.2329 139.8 84.0706 141.802C83.9083 143.371 83.1509 145.697 81.3115 145.859C82.6099 147.266 83.9624 148.618 85.3149 150.025C85.2608 149.105 85.4772 148.131 85.6936 147.428C86.2887 145.535 87.533 143.912 88.8855 142.451C89.8052 144.182 90.4003 146.184 90.238 148.185C90.0757 149.7 89.3183 152.027 87.533 152.243C96.3512 160.737 106.738 168.581 118.64 174.316L118.316 175.019C107.171 169.663 97.3791 162.414 88.8855 154.569C88.8855 154.569 88.8855 154.569 88.8855 154.623C88.9937 156.95 85.9641 156.95 84.3411 156.625C82.3935 156.3 80.6082 155.273 78.9852 154.191C80.6082 153.054 82.5017 152.189 84.4493 152.081C85.0444 152.081 85.7477 152.081 86.451 152.297C85.2067 151.053 83.9624 149.808 82.7722 148.564C82.664 150.62 79.7967 150.62 78.2279 150.349C76.2803 150.025 74.495 148.997 72.872 147.915C74.495 146.779 76.3885 145.913 78.3361 145.805C78.9311 145.805 79.6344 145.805 80.2836 145.967C80.1213 145.751 79.9049 145.589 79.7426 145.372C78.5524 144.074 77.3623 142.721 76.2262 141.369C76.2803 143.641 73.2507 143.641 71.6818 143.371C69.7342 143.046 67.9489 142.018 66.3259 140.936C67.9489 139.8 69.8424 138.934 71.79 138.826C72.5474 138.772 73.5212 138.88 74.3327 139.205C73.1966 137.852 72.1146 136.5 71.0867 135.147C71.0867 135.256 71.0867 135.418 71.0326 135.58C70.6539 137.852 67.6784 137.203 66.1636 136.554C64.3243 135.797 62.8095 134.444 61.457 132.983C63.2964 132.226 65.2981 131.739 67.2456 132.118C67.8407 132.226 68.5981 132.442 69.2473 132.767C67.7866 130.82 66.38 128.926 65.0817 127.033C65.0817 127.195 65.0817 127.303 65.0276 127.465C64.6489 129.738 61.6734 129.088 60.1586 128.439C58.3192 127.682 56.8044 126.329 55.4519 124.869C57.2913 124.111 59.293 123.624 61.2406 124.003C61.9439 124.111 62.8095 124.382 63.5669 124.869C61.7816 122.218 60.1045 119.621 58.6438 117.241C57.9405 119.459 55.0732 118.377 53.6666 117.565C51.9355 116.591 50.6371 115.022 49.4469 113.399C51.3404 112.858 53.4502 112.696 55.2896 113.291C55.6683 113.399 56.1011 113.616 56.5339 113.832C55.9388 112.804 55.3978 111.831 54.8568 110.911C54.7486 110.803 54.6945 110.64 54.6404 110.532C54.0994 109.558 53.5584 108.639 53.1256 107.773C53.1256 107.827 53.0715 107.881 53.0715 107.935C52.2601 110.099 49.4469 108.855 48.0944 107.935C46.4714 106.853 45.2271 105.23 44.1992 103.499C46.255 103.066 48.3108 103.012 50.1502 103.716Z" fill="#009887"/>
<path d="M109.605 4.76747C103.168 5.74126 97.7576 10.8266 94.5116 16.994C93.105 19.6989 91.9689 22.7826 92.0771 25.9204C92.1312 27.7057 92.564 29.5451 92.4558 31.3304C92.2394 37.66 86.613 41.6634 83.5835 46.911C81.3113 50.8062 80.4457 55.7834 81.69 60.2736C82.9343 64.7639 86.3425 68.605 90.4541 69.5788C92.023 69.9575 93.646 69.9575 94.9985 70.9313C96.4592 72.0132 97.1084 74.0149 98.1904 75.5297C100.408 78.5593 104.25 79.3167 107.766 79.8036C114.366 80.7774 121.832 81.4807 126.917 76.8281C128.648 75.2592 130.001 73.0952 132.003 71.9591C135.79 69.8493 140.55 72.1214 144.662 70.8771C148.611 69.687 151.316 64.818 150.559 60.3277C149.152 52.2669 138.981 48.3717 138.224 40.2568C137.954 37.5518 138.873 34.955 139.306 32.3042C140.118 27.7057 139.685 22.6203 137.142 18.8334C135.519 16.453 132.976 14.7218 130.271 14.3972C126.863 13.9644 126.43 15.2087 124.266 11.9086C120.912 6.71505 115.232 3.90188 109.605 4.76747Z" fill="#014E3F"/>
<path d="M21.1532 44.0978C22.3975 45.2339 23.8582 46.0995 25.3189 47.0192C25.8058 47.2897 26.2927 47.6143 26.8878 47.6684C27.4829 47.7225 28.078 47.5061 28.6731 47.2356C29.3223 46.9651 30.0256 46.6405 30.4583 46.0995C30.9452 45.5044 30.9452 44.6929 30.8911 43.9355C30.7288 35.7665 23.0467 29.2745 21.6401 27.922C18.6646 25.1089 15.3646 25.4335 18.5023 31.8713C19.0974 33.0615 17.9072 34.4681 17.6908 35.8206C17.0958 39.0125 18.7728 41.9879 21.1532 44.0978Z" fill="url(#paint0_linear)"/>
<path d="M0 0.872325L25.0481 43.8274L27.4826 42.0962L1.35249 0.00673146C0.595095 -0.0473681 0.162299 0.22313 0 0.872325Z" fill="#FF7700"/>
<path d="M31.2149 38.9044C30.728 37.0109 29.8083 35.2256 28.3477 33.9272C26.887 32.6829 24.8312 31.9796 22.9377 32.4124C22.2885 32.5747 21.5311 33.0616 21.6393 33.7108C21.7475 34.2518 22.2885 34.5223 22.7754 34.7928C23.7492 35.3338 24.5066 36.0912 25.0476 37.065C25.6968 38.2552 25.9132 39.6618 26.2378 40.9601C26.5624 42.3126 26.9952 43.6651 28.0231 44.5848C28.8345 45.2881 31.1608 46.0996 31.7018 44.693C31.9723 43.9897 31.7559 42.7454 31.7018 42.0421C31.5936 41.0142 31.4854 39.9323 31.2149 38.9044Z" fill="url(#paint1_linear)"/>
<path d="M16.6629 39.7158C17.1498 40.9601 18.394 41.8798 19.6924 42.2585C20.3957 42.4749 21.2072 42.5831 21.9105 42.2585C22.9925 41.8257 23.5876 40.6355 23.5876 39.4994C23.5335 38.3633 22.9384 37.2813 22.181 36.4158C21.5859 35.7666 20.8285 35.2256 19.9088 35.0633C17.5825 34.6846 15.9055 37.7682 16.6629 39.7158Z" fill="url(#paint2_linear)"/>
<path d="M76.9295 153.974C90.8331 164.686 104.142 172.909 112.473 177.778C120.426 173.179 132.814 165.497 146.015 155.543C145.203 147.158 144.824 138.772 145.528 134.065C146.988 124.652 148.016 117.241 148.503 107.665C149.261 93.0039 145.69 78.7757 138.928 65.7918C117.017 56.5408 97.0004 61.4097 92.6184 62.9245C80.9329 66.982 62.7554 71.2018 51.6109 66.0082C40.8992 60.9769 36.6794 53.9981 32.5137 43.2323C27.9153 44.6389 25.4808 48.7504 24.9939 51.1849C27.3743 67.1443 40.4664 91.2186 77.5787 93.3285C81.9067 97.1696 82.2854 116.7 79.8509 133.633C79.2558 138.502 78.1738 146.13 76.9295 153.974Z" fill="#00B8AB"/>
<path d="M94.0251 120L128.757 161.656L156.672 137.852L121.941 94.7351L94.0251 120Z" fill="#FFBD00"/>
<path d="M103.763 120.703L121.129 104.96L146.935 136.933L129.623 151.702L103.763 120.703Z" fill="#FF7700"/>
<path d="M113.231 138.015C111.77 137.961 110.309 137.961 108.903 137.907C108.091 137.907 107.28 137.852 106.468 138.123C105.711 138.339 104.954 138.88 104.683 139.638C104.413 140.395 104.683 141.369 105.441 141.693C104.791 143.479 104.467 145.805 105.495 147.428C106.468 149.051 108.524 149.917 110.472 149.754C112.365 149.538 114.151 148.402 115.287 146.833C116.423 145.264 117.018 143.371 117.234 141.477L113.231 138.015Z" fill="url(#paint3_linear)"/>
<path d="M110.742 51.2391L109.227 65.2509C114.15 67.6853 119.344 66.8738 121.886 63.3574L119.993 47.398L110.742 51.2391Z" fill="url(#paint4_linear)"/>
<path d="M141.47 99.0089C144.77 106.691 142.552 115.076 136.872 121.082C131.516 126.762 112.473 137.744 112.473 137.744L116.747 143.966C116.747 143.966 130.488 141.531 137.088 138.285C142.931 135.418 149.152 132.929 153.426 128.006C160.621 119.783 162.461 107.935 160.567 97.1695C159.485 90.9481 155.482 72.8247 138.927 65.8459C134.221 69.8493 132.76 76.7199 133.626 82.8332C134.545 88.8923 139.036 93.2744 141.47 99.0089Z" fill="#66CCC3"/>
<path d="M124.267 23.2695C121.075 19.2121 115.449 17.2104 110.417 18.3465C106.63 19.2121 102.573 21.6466 100.679 25.0007C98.4072 29.0041 101.22 34.3059 100.301 38.7961C100.03 40.0404 99.7597 41.3929 99.8138 42.6372C99.922 45.0717 100.95 47.0193 102.519 48.9127C104.575 51.4554 106.739 55.2965 109.822 56.3785C113.068 57.5146 116.801 55.5129 119.722 53.6735C122.644 51.8341 124.808 49.1291 126.647 46.2078C127.567 46.6947 128.324 46.5865 129.244 46.1537C130.164 45.6668 130.921 44.9094 131.516 44.0438C132.382 42.8536 132.977 41.5011 133.139 40.0404C133.247 38.5797 132.869 37.0649 131.787 36.037C130.759 35.0092 128.757 35.3337 127.459 35.9829C128.865 30.2484 125.727 25.1089 124.267 23.2695Z" fill="url(#paint5_linear)"/>
<path d="M109.552 43.611C109.335 43.4487 109.119 43.2864 108.902 43.1241C108.578 42.9077 108.199 42.6372 107.874 42.3667C107.009 41.6634 107.117 40.4733 107.712 39.77C107.874 39.6077 107.983 39.3913 108.091 39.229C108.145 39.1208 108.199 39.0126 108.307 38.9044C108.686 38.3093 108.848 37.6601 108.74 36.9568L109.281 36.9027C109.389 37.7142 109.173 38.5257 108.74 39.1749C108.686 39.2831 108.632 39.3913 108.578 39.4995C108.47 39.7159 108.307 39.9323 108.145 40.1487C107.712 40.6356 107.658 41.447 108.253 41.988C108.578 42.2585 108.902 42.4749 109.227 42.6913C109.443 42.8536 109.66 43.0159 109.93 43.1782L109.552 43.611Z" fill="#15223F"/>
<path d="M111.12 50.1029C110.254 50.1029 109.389 49.8865 108.631 49.3996L108.902 48.9127C110.038 49.5619 111.282 49.7242 112.418 49.3455C113.338 49.0209 114.204 48.3717 114.853 47.3979C114.907 47.3438 114.907 47.2897 114.853 47.1815C114.853 47.1274 114.799 47.0733 114.799 47.0733L108.036 47.1274V46.5864L114.799 46.5323C115.015 46.5323 115.232 46.6405 115.34 46.8569C115.502 47.1274 115.448 47.452 115.286 47.6684C114.528 48.6963 113.609 49.4537 112.581 49.7783C112.094 49.9947 111.607 50.1029 111.12 50.1029Z" fill="#15223F"/>
<path d="M98.2443 176.263C98.2443 176.263 91.2655 136.067 68.5437 125.842C61.7271 142.938 78.7144 167.12 98.3525 177.562" fill="#FF7700"/>
<path d="M70.5463 154.461C70.5463 154.461 62.9182 133.254 42.2522 131.306C46.3097 148.294 54.6951 151.486 70.5463 154.461Z" fill="#FF7700"/>
<path d="M112.202 179.239C112.202 179.239 149.423 176.425 160.784 156.625C145.798 148.889 122.265 162.251 111.012 179.239" fill="#FF7700"/>
<path d="M152.831 151.431C152.831 151.431 171.333 154.515 181.125 140.341C167.114 136.392 161.379 141.098 152.831 151.431Z" fill="#FF7700"/>
<path d="M52.044 131.306C52.044 131.306 50.4751 112.642 34.2993 106.637C33.9206 121.136 39.9257 125.518 52.044 131.306Z" fill="#FF7700"/>
<path d="M168.899 134.823C168.899 134.823 182.857 132.659 186.535 120.216C175.553 120.703 172.578 125.41 168.899 134.823Z" fill="#FF7700"/>
<defs>
<linearGradient id="paint0_linear" x1="17.2735" y1="37.0017" x2="30.9279" y2="37.0017" gradientUnits="userSpaceOnUse">
<stop stop-color="#FFA58E"/>
<stop offset="1" stop-color="#FFC39F"/>
</linearGradient>
<linearGradient id="paint1_linear" x1="21.6003" y1="38.8994" x2="31.7681" y2="38.8994" gradientUnits="userSpaceOnUse">
<stop stop-color="#FFA58E"/>
<stop offset="1" stop-color="#FFC39F"/>
</linearGradient>
<linearGradient id="paint2_linear" x1="16.4862" y1="38.7606" x2="23.5861" y2="38.7606" gradientUnits="userSpaceOnUse">
<stop stop-color="#FFA58E"/>
<stop offset="1" stop-color="#FFC39F"/>
</linearGradient>
<linearGradient id="paint3_linear" x1="104.594" y1="143.823" x2="117.203" y2="143.823" gradientUnits="userSpaceOnUse">
<stop stop-color="#FFA58E"/>
<stop offset="1" stop-color="#FFC39F"/>
</linearGradient>
<linearGradient id="paint4_linear" x1="115.543" y1="47.3716" x2="115.543" y2="66.6042" gradientUnits="userSpaceOnUse">
<stop stop-color="#FFC39F"/>
<stop offset="1" stop-color="#FFA58E"/>
</linearGradient>
<linearGradient id="paint5_linear" x1="134.764" y1="57.8226" x2="101.07" y2="24.2916" gradientUnits="userSpaceOnUse">
<stop stop-color="#FFA58E"/>
<stop offset="1" stop-color="#FFC39F"/>
</linearGradient>
</defs>
</svg>
