<svg width="24" height="24" viewBox="0 0 24 24" fill="none" xmlns="http://www.w3.org/2000/svg">
<path fill-rule="evenodd" clip-rule="evenodd" d="M10.875 18.75C6.5325 18.75 3 15.2175 3 10.875C3 6.5325 6.5325 3 10.875 3C15.2175 3 18.75 6.5325 18.75 10.875C18.75 15.2175 15.2175 18.75 10.875 18.75ZM10.875 5.25C7.77338 5.25 5.25 7.77338 5.25 10.875C5.25 13.9766 7.77338 16.5 10.875 16.5C13.9766 16.5 16.5 13.9766 16.5 10.875C16.5 7.77338 13.9766 5.25 10.875 5.25ZM17.9782 16.3875L20.6704 19.0796C21.1102 19.5195 21.1102 20.2305 20.6704 20.6704C20.451 20.8898 20.163 21 19.875 21C19.587 21 19.299 20.8898 19.0796 20.6704L16.3875 17.9783C16.9826 17.5159 17.5159 16.9826 17.9782 16.3875Z" fill="#4DB6AC"/>
</svg>
