<svg width="12" height="12" viewBox="0 0 12 12" fill="none" xmlns="http://www.w3.org/2000/svg">
<path fill-rule="evenodd" clip-rule="evenodd" d="M5.25 10.5C2.355 10.5 0 8.145 0 5.25C0 2.355 2.355 0 5.25 0C8.145 0 10.5 2.355 10.5 5.25C10.5 8.145 8.145 10.5 5.25 10.5ZM5.25 1.5C3.18225 1.5 1.5 3.18225 1.5 5.25C1.5 7.31775 3.18225 9 5.25 9C7.31775 9 9 7.31775 9 5.25C9 3.18225 7.31775 1.5 5.25 1.5ZM9.9855 8.925L11.7803 10.7198C12.0735 11.013 12.0735 11.487 11.7803 11.7803C11.634 11.9265 11.442 12 11.25 12C11.058 12 10.866 11.9265 10.7198 11.7803L8.925 9.9855C9.32175 9.67725 9.67725 9.32175 9.9855 8.925Z" fill="#FF7700"/>
</svg>
