<svg width="55" height="23" viewBox="0 0 55 23" fill="none" xmlns="http://www.w3.org/2000/svg">
<rect width="55" height="23" rx="4" fill="#EFF8F8"/>
<path d="M8.73234 8.955C8.70234 9.005 8.66901 9.04333 8.63234 9.07C8.59901 9.09333 8.55734 9.105 8.50734 9.105C8.45068 9.105 8.38401 9.07667 8.30734 9.02C8.23068 8.96333 8.13401 8.90167 8.01734 8.835C7.90401 8.765 7.76568 8.70167 7.60234 8.645C7.44234 8.58833 7.24734 8.56 7.01734 8.56C6.80068 8.56 6.60901 8.59 6.44234 8.65C6.27901 8.70667 6.14068 8.785 6.02734 8.885C5.91734 8.985 5.83401 9.10333 5.77734 9.24C5.72068 9.37333 5.69234 9.51833 5.69234 9.675C5.69234 9.875 5.74068 10.0417 5.83734 10.175C5.93734 10.305 6.06734 10.4167 6.22734 10.51C6.39068 10.6033 6.57401 10.685 6.77734 10.755C6.98401 10.8217 7.19401 10.8917 7.40734 10.965C7.62401 11.0383 7.83401 11.1217 8.03734 11.215C8.24401 11.305 8.42734 11.42 8.58734 11.56C8.75068 11.7 8.88068 11.8717 8.97734 12.075C9.07734 12.2783 9.12734 12.5283 9.12734 12.825C9.12734 13.1383 9.07401 13.4333 8.96734 13.71C8.86068 13.9833 8.70401 14.2217 8.49734 14.425C8.29401 14.6283 8.04234 14.7883 7.74234 14.905C7.44568 15.0217 7.10734 15.08 6.72734 15.08C6.26068 15.08 5.83734 14.9967 5.45734 14.83C5.07734 14.66 4.75234 14.4317 4.48234 14.145L4.76234 13.685C4.78901 13.6483 4.82068 13.6183 4.85734 13.595C4.89734 13.5683 4.94068 13.555 4.98734 13.555C5.03068 13.555 5.07901 13.5733 5.13234 13.61C5.18901 13.6433 5.25234 13.6867 5.32234 13.74C5.39234 13.7933 5.47234 13.8517 5.56234 13.915C5.65234 13.9783 5.75401 14.0367 5.86734 14.09C5.98401 14.1433 6.11568 14.1883 6.26234 14.225C6.40901 14.2583 6.57401 14.275 6.75734 14.275C6.98734 14.275 7.19234 14.2433 7.37234 14.18C7.55234 14.1167 7.70401 14.0283 7.82734 13.915C7.95401 13.7983 8.05068 13.66 8.11734 13.5C8.18401 13.34 8.21734 13.1617 8.21734 12.965C8.21734 12.7483 8.16734 12.5717 8.06734 12.435C7.97068 12.295 7.84234 12.1783 7.68234 12.085C7.52234 11.9917 7.33901 11.9133 7.13234 11.85C6.92568 11.7833 6.71568 11.7167 6.50234 11.65C6.28901 11.58 6.07901 11.5 5.87234 11.41C5.66568 11.32 5.48234 11.2033 5.32234 11.06C5.16234 10.9167 5.03234 10.7383 4.93234 10.525C4.83568 10.3083 4.78734 10.0417 4.78734 9.725C4.78734 9.47167 4.83568 9.22667 4.93234 8.99C5.03234 8.75333 5.17568 8.54333 5.36234 8.36C5.55234 8.17667 5.78401 8.03 6.05734 7.92C6.33401 7.81 6.65068 7.755 7.00734 7.755C7.40734 7.755 7.77068 7.81833 8.09734 7.945C8.42734 8.07167 8.71734 8.255 8.96734 8.495L8.73234 8.955ZM11.5941 10.61C11.8108 10.38 12.0508 10.1967 12.3141 10.06C12.5775 9.92333 12.8808 9.855 13.2241 9.855C13.5008 9.855 13.7441 9.90167 13.9541 9.995C14.1675 10.085 14.3441 10.215 14.4841 10.385C14.6275 10.5517 14.7358 10.7533 14.8091 10.99C14.8825 11.2267 14.9191 11.4883 14.9191 11.775V15H14.0241V11.775C14.0241 11.3917 13.9358 11.095 13.7591 10.885C13.5858 10.6717 13.3208 10.565 12.9641 10.565C12.7008 10.565 12.4541 10.6283 12.2241 10.755C11.9975 10.8817 11.7875 11.0533 11.5941 11.27V15H10.6991V7.635H11.5941V10.61ZM18.9103 9.855C19.2803 9.855 19.6136 9.91667 19.9103 10.04C20.207 10.1633 20.4603 10.3383 20.6703 10.565C20.8803 10.7917 21.0403 11.0667 21.1503 11.39C21.2636 11.71 21.3203 12.0683 21.3203 12.465C21.3203 12.865 21.2636 13.225 21.1503 13.545C21.0403 13.865 20.8803 14.1383 20.6703 14.365C20.4603 14.5917 20.207 14.7667 19.9103 14.89C19.6136 15.01 19.2803 15.07 18.9103 15.07C18.537 15.07 18.2003 15.01 17.9003 14.89C17.6036 14.7667 17.3503 14.5917 17.1403 14.365C16.9303 14.1383 16.7686 13.865 16.6553 13.545C16.5453 13.225 16.4903 12.865 16.4903 12.465C16.4903 12.0683 16.5453 11.71 16.6553 11.39C16.7686 11.0667 16.9303 10.7917 17.1403 10.565C17.3503 10.3383 17.6036 10.1633 17.9003 10.04C18.2003 9.91667 18.537 9.855 18.9103 9.855ZM18.9103 14.375C19.4103 14.375 19.7836 14.2083 20.0303 13.875C20.277 13.5383 20.4003 13.07 20.4003 12.47C20.4003 11.8667 20.277 11.3967 20.0303 11.06C19.7836 10.7233 19.4103 10.555 18.9103 10.555C18.657 10.555 18.4353 10.5983 18.2453 10.685C18.0586 10.7717 17.902 10.8967 17.7753 11.06C17.652 11.2233 17.5586 11.425 17.4953 11.665C17.4353 11.9017 17.4053 12.17 17.4053 12.47C17.4053 13.07 17.5286 13.5383 17.7753 13.875C18.0253 14.2083 18.4036 14.375 18.9103 14.375ZM23.7941 10.95C23.9541 10.6033 24.1508 10.3333 24.3841 10.14C24.6175 9.94333 24.9025 9.845 25.2391 9.845C25.3458 9.845 25.4475 9.85667 25.5441 9.88C25.6441 9.90333 25.7325 9.94 25.8091 9.99L25.7441 10.655C25.7241 10.7383 25.6741 10.78 25.5941 10.78C25.5475 10.78 25.4791 10.77 25.3891 10.75C25.2991 10.73 25.1975 10.72 25.0841 10.72C24.9241 10.72 24.7808 10.7433 24.6541 10.79C24.5308 10.8367 24.4191 10.9067 24.3191 11C24.2225 11.09 24.1341 11.2033 24.0541 11.34C23.9775 11.4733 23.9075 11.6267 23.8441 11.8V15H22.9491V9.935H23.4591C23.5558 9.935 23.6225 9.95333 23.6591 9.99C23.6958 10.0267 23.7208 10.09 23.7341 10.18L23.7941 10.95ZM28.6467 15.08C28.2467 15.08 27.9384 14.9683 27.7217 14.745C27.5084 14.5217 27.4017 14.2 27.4017 13.78V10.68H26.7917C26.7384 10.68 26.6934 10.665 26.6567 10.635C26.6201 10.6017 26.6017 10.5517 26.6017 10.485V10.13L27.4317 10.025L27.6367 8.46C27.6467 8.41 27.6684 8.37 27.7017 8.34C27.7384 8.30667 27.7851 8.29 27.8417 8.29H28.2917V10.035H29.7567V10.68H28.2917V13.72C28.2917 13.9333 28.3434 14.0917 28.4467 14.195C28.5501 14.2983 28.6834 14.35 28.8467 14.35C28.9401 14.35 29.0201 14.3383 29.0867 14.315C29.1567 14.2883 29.2167 14.26 29.2667 14.23C29.3167 14.2 29.3584 14.1733 29.3917 14.15C29.4284 14.1233 29.4601 14.11 29.4867 14.11C29.5334 14.11 29.5751 14.1383 29.6117 14.195L29.8717 14.62C29.7184 14.7633 29.5334 14.8767 29.3167 14.96C29.1001 15.04 28.8767 15.08 28.6467 15.08ZM37.9173 12.34L36.7923 9.425C36.7589 9.33833 36.7239 9.23833 36.6873 9.125C36.6506 9.00833 36.6156 8.885 36.5823 8.755C36.5123 9.025 36.4406 9.25 36.3673 9.43L35.2423 12.34H37.9173ZM39.9373 15H39.1873C39.1006 15 39.0306 14.9783 38.9773 14.935C38.9239 14.8917 38.8839 14.8367 38.8573 14.77L38.1873 13.04H34.9723L34.3023 14.77C34.2823 14.83 34.2439 14.8833 34.1873 14.93C34.1306 14.9767 34.0606 15 33.9773 15H33.2273L36.0923 7.835H37.0723L39.9373 15ZM41.9903 10.67C42.1003 10.5467 42.217 10.435 42.3403 10.335C42.4636 10.235 42.5936 10.15 42.7303 10.08C42.8703 10.0067 43.017 9.95167 43.1703 9.915C43.327 9.875 43.4953 9.855 43.6753 9.855C43.952 9.855 44.1953 9.90167 44.4053 9.995C44.6186 10.085 44.7953 10.215 44.9353 10.385C45.0786 10.5517 45.187 10.7533 45.2603 10.99C45.3336 11.2267 45.3703 11.4883 45.3703 11.775V15H44.4753V11.775C44.4753 11.3917 44.387 11.095 44.2103 10.885C44.037 10.6717 43.772 10.565 43.4153 10.565C43.152 10.565 42.9053 10.6283 42.6753 10.755C42.4486 10.8817 42.2386 11.0533 42.0453 11.27V15H41.1503V9.935H41.6853C41.812 9.935 41.8903 9.99667 41.9203 10.12L41.9903 10.67ZM50.1765 10.77C50.1365 10.8433 50.0748 10.88 49.9915 10.88C49.9415 10.88 49.8848 10.8617 49.8215 10.825C49.7582 10.7883 49.6798 10.7483 49.5865 10.705C49.4965 10.6583 49.3882 10.6167 49.2615 10.58C49.1348 10.54 48.9848 10.52 48.8115 10.52C48.6615 10.52 48.5265 10.54 48.4065 10.58C48.2865 10.6167 48.1832 10.6683 48.0965 10.735C48.0132 10.8017 47.9482 10.88 47.9015 10.97C47.8582 11.0567 47.8365 11.1517 47.8365 11.255C47.8365 11.385 47.8732 11.4933 47.9465 11.58C48.0232 11.6667 48.1232 11.7417 48.2465 11.805C48.3698 11.8683 48.5098 11.925 48.6665 11.975C48.8232 12.0217 48.9832 12.0733 49.1465 12.13C49.3132 12.1833 49.4748 12.2433 49.6315 12.31C49.7882 12.3767 49.9282 12.46 50.0515 12.56C50.1748 12.66 50.2732 12.7833 50.3465 12.93C50.4232 13.0733 50.4615 13.2467 50.4615 13.45C50.4615 13.6833 50.4198 13.9 50.3365 14.1C50.2532 14.2967 50.1298 14.4683 49.9665 14.615C49.8032 14.7583 49.6032 14.8717 49.3665 14.955C49.1298 15.0383 48.8565 15.08 48.5465 15.08C48.1932 15.08 47.8732 15.0233 47.5865 14.91C47.2998 14.7933 47.0565 14.645 46.8565 14.465L47.0665 14.125C47.0932 14.0817 47.1248 14.0483 47.1615 14.025C47.1982 14.0017 47.2448 13.99 47.3015 13.99C47.3615 13.99 47.4248 14.0133 47.4915 14.06C47.5582 14.1067 47.6382 14.1583 47.7315 14.215C47.8282 14.2717 47.9448 14.3233 48.0815 14.37C48.2182 14.4167 48.3882 14.44 48.5915 14.44C48.7648 14.44 48.9165 14.4183 49.0465 14.375C49.1765 14.3283 49.2848 14.2667 49.3715 14.19C49.4582 14.1133 49.5215 14.025 49.5615 13.925C49.6048 13.825 49.6265 13.7183 49.6265 13.605C49.6265 13.465 49.5882 13.35 49.5115 13.26C49.4382 13.1667 49.3398 13.0883 49.2165 13.025C49.0932 12.9583 48.9515 12.9017 48.7915 12.855C48.6348 12.805 48.4732 12.7533 48.3065 12.7C48.1432 12.6467 47.9815 12.5867 47.8215 12.52C47.6648 12.45 47.5248 12.3633 47.4015 12.26C47.2782 12.1567 47.1782 12.03 47.1015 11.88C47.0282 11.7267 46.9915 11.5417 46.9915 11.325C46.9915 11.1317 47.0315 10.9467 47.1115 10.77C47.1915 10.59 47.3082 10.4333 47.4615 10.3C47.6148 10.1633 47.8032 10.055 48.0265 9.975C48.2498 9.895 48.5048 9.855 48.7915 9.855C49.1248 9.855 49.4232 9.90833 49.6865 10.015C49.9532 10.1183 50.1832 10.2617 50.3765 10.445L50.1765 10.77Z" fill="#00695C"/>
</svg>
