<svg width="18" height="18" viewBox="0 0 18 18" fill="none" xmlns="http://www.w3.org/2000/svg">
<path fill-rule="evenodd" clip-rule="evenodd" d="M10.1301 12.9598V7.21729H7.40982C7.28809 7.21729 7.18942 7.28176 7.18942 7.36131V8.39451C7.18942 8.47406 7.28809 8.53857 7.40982 8.53857H7.87522V12.9598H7.31806C7.19633 12.9598 7.09766 13.0244 7.09766 13.1039V14.0354C7.09766 14.115 7.19633 14.1795 7.31806 14.1795H10.6873C10.809 14.1795 10.9077 14.115 10.9077 14.0354V13.1039C10.9077 13.0244 10.809 12.9598 10.6873 12.9598H10.1301Z" fill="#FF7700"/>
<path fill-rule="evenodd" clip-rule="evenodd" d="M10.1698 5.16902C10.1698 5.91386 9.58093 6.5177 8.85445 6.5177C8.12797 6.5177 7.53906 5.91386 7.53906 5.16902C7.53906 4.42415 8.12797 3.82031 8.85445 3.82031C9.58093 3.82031 10.1698 4.42415 10.1698 5.16902Z" fill="#FF7700"/>
<path fill-rule="evenodd" clip-rule="evenodd" d="M8.99876 16.7539C4.72326 16.7539 1.24489 13.2755 1.24489 9.00002C1.24489 4.72452 4.72326 1.24615 8.99876 1.24615C13.2742 1.24615 16.7526 4.72452 16.7526 9.00002C16.7526 13.2755 13.2742 16.7539 8.99876 16.7539ZM9 0C4.02942 0 0 4.02942 0 9C0 13.9705 4.02942 18 9 18C13.9705 18 18 13.9705 18 9C18 4.02942 13.9705 0 9 0Z" fill="#FF7700"/>
</svg>
