<svg width="16" height="16" viewBox="0 0 16 16" fill="none" xmlns="http://www.w3.org/2000/svg">
<path fill-rule="evenodd" clip-rule="evenodd" d="M8.89347 11.1698V6.58545H6.72186C6.62468 6.58545 6.54591 6.63692 6.54591 6.70043V7.52524C6.54591 7.58874 6.62468 7.64024 6.72186 7.64024H7.09339V11.1698H6.6486C6.55142 11.1698 6.47266 11.2213 6.47266 11.2848V12.0284C6.47266 12.092 6.55142 12.1434 6.6486 12.1434H9.33826C9.43544 12.1434 9.5142 12.092 9.5142 12.0284V11.2848C9.5142 11.2213 9.43544 11.1698 9.33826 11.1698H8.89347Z" fill="#FF7700"/>
<path fill-rule="evenodd" clip-rule="evenodd" d="M8.92439 4.95022C8.92439 5.54483 8.45426 6.02688 7.8743 6.02688C7.29435 6.02688 6.82422 5.54483 6.82422 4.95022C6.82422 4.35559 7.29435 3.87354 7.8743 3.87354C8.45426 3.87354 8.92439 4.35559 8.92439 4.95022Z" fill="#FF7700"/>
<path fill-rule="evenodd" clip-rule="evenodd" d="M7.9884 14.1985C4.57524 14.1985 1.79844 11.4216 1.79844 8.00851C1.79844 4.59535 4.57524 1.81854 7.9884 1.81854C11.4015 1.81854 14.1784 4.59535 14.1784 8.00851C14.1784 11.4216 11.4015 14.1985 7.9884 14.1985ZM7.98945 0.82373C4.0214 0.82373 0.804688 4.04045 0.804688 8.00849C0.804688 11.9765 4.0214 15.1933 7.98945 15.1933C11.9575 15.1933 15.1742 11.9765 15.1742 8.00849C15.1742 4.04045 11.9575 0.82373 7.98945 0.82373Z" fill="#FF7700"/>
</svg>
