<svg width="24" height="24" viewBox="0 0 24 24" fill="none" xmlns="http://www.w3.org/2000/svg">
<path d="M7.5 11.5C8.32843 11.5 9 10.8284 9 10C9 9.17157 8.32843 8.5 7.5 8.5C6.67157 8.5 6 9.17157 6 10C6 10.8284 6.67157 11.5 7.5 11.5Z" fill="#009688"/>
<path d="M16.5 11.5C17.3284 11.5 18 10.8284 18 10C18 9.17157 17.3284 8.5 16.5 8.5C15.6716 8.5 15 9.17157 15 10C15 10.8284 15.6716 11.5 16.5 11.5Z" fill="#009688"/>
<path d="M12 23C18.0751 23 23 18.0751 23 12C23 5.92487 18.0751 1 12 1C5.92487 1 1 5.92487 1 12C1 18.0751 5.92487 23 12 23Z" stroke="#009688" stroke-miterlimit="10" stroke-linecap="round" stroke-linejoin="round"/>
<path d="M18 14C18 17.3 15.3 20 12 20C8.7 20 6 17.3 6 14H18Z" stroke="#009688" stroke-miterlimit="10" stroke-linecap="round" stroke-linejoin="round"/>
</svg>
