<svg width="48" height="48" viewBox="0 0 48 48" fill="none" xmlns="http://www.w3.org/2000/svg">
<path d="M16.2063 32.1765H14.3722C12.7105 32.1765 11.3711 30.7712 11.3711 28.8051V19.7718C11.3711 17.8057 12.7105 16.4004 14.3722 16.4004H16.2063V32.1765Z" stroke="#009688" stroke-miterlimit="10"/>
<path d="M16.8398 32.0414C22.8079 32.0414 28.0598 34.0706 31.9987 36.3384C32.7149 36.6965 33.5504 35.9804 33.5504 35.1448V12.2275C33.5504 11.392 32.7149 10.6758 31.9987 11.1533C28.1791 13.4211 22.8079 16.5245 16.8398 16.5245V32.0414Z" fill="#00695C" stroke="#009688" stroke-miterlimit="10"/>
<path d="M34.7415 28.5733H33.5479V19.0244H34.7415C36.0544 19.0244 37.1287 20.0987 37.1287 21.4116V26.1861C37.1287 27.499 36.0544 28.5733 34.7415 28.5733Z" fill="#009688" stroke="#009688" stroke-miterlimit="10"/>
</svg>
