<svg width="30" height="30" viewBox="0 0 30 30" fill="none" xmlns="http://www.w3.org/2000/svg">
<path d="M27 22.4615H3V23.923H27V22.4615Z" fill="#C6CFCE"/>
<path d="M9.77013 6H6.30859V22.4615H9.77013V6Z" fill="#C6CFCE"/>
<path d="M9.77013 7.53846H6.30859V8.23077H9.77013V7.53846Z" fill="#DDE2E2"/>
<path d="M9.77013 20.1538H6.30859V20.8461H9.77013V20.1538Z" fill="#DDE2E2"/>
<path d="M23.5377 7.84608H20.0762V22.4615H23.5377V7.84608Z" fill="#C6CFCE"/>
<path d="M23.5377 9.23092H20.0762V9.8463H23.5377V9.23092Z" fill="#DDE2E2"/>
<path d="M23.5377 20.4614H20.0762V21.0768H23.5377V20.4614Z" fill="#DDE2E2"/>
<path d="M17.667 7.45143L15.375 7.71912L17.0972 22.4643L19.3892 22.1966L17.667 7.45143Z" fill="#C6CFCE"/>
<path d="M17.7998 8.79141L15.5078 9.06002L15.5794 9.67122L17.8714 9.40261L17.7998 8.79141Z" fill="#DDE2E2"/>
<path d="M17.9999 10.3075L15.6922 10.6152L15.6152 9.92293L17.9229 9.69216L17.9999 10.3075Z" fill="#DDE2E2"/>
<path d="M19.1534 20.7692L16.9226 21.0768L16.8457 20.3845L19.0765 20.1538L19.1534 20.7692Z" fill="#DDE2E2"/>
<path d="M15.4606 9.46154H10.6914V22.4615H15.4606V9.46154Z" fill="#C6CFCE"/>
<path d="M15.4606 10.6924H10.6914V12.6924H15.4606V10.6924Z" fill="#DDE2E2"/>
<path d="M15.4606 19.2309H10.6914V21.2309H15.4606V19.2309Z" fill="#DDE2E2"/>
<path d="M23.0768 10.6154H20.6152V17.9231H23.0768V10.6154Z" fill="#DDE2E2"/>
</svg>
