<svg width="20" height="24" viewBox="0 0 20 24" fill="none" xmlns="http://www.w3.org/2000/svg">
<path d="M13.4703 14.1595C13.4445 15.3215 11.7316 16.2578 9.61639 16.2578C7.50484 16.2578 5.78829 15.3215 5.76245 14.1595C2.53238 14.4555 0 17.1793 0 20.4953C0 23.9926 2.81293 24 6.29403 24C6.31249 24 6.32725 24 6.34571 24H12.8834C12.9018 24 12.9166 24 12.9351 24C16.4162 24 19.2291 23.9926 19.2291 20.4953C19.2328 17.1793 16.7004 14.4555 13.4703 14.1595Z" fill="#F6C6A5"/>
<path d="M2.89049 3.37147L3.34454 3.56762L3.30763 3.87479C3.13413 3.90439 3.00123 4.05613 3.00123 4.23747C3.00123 4.40031 3.10829 4.54094 3.25595 4.58905L2.97908 8.45644C2.96801 8.61927 3.00123 8.87463 3.04922 9.03007L3.2744 9.70362C3.32609 9.85906 3.4073 9.85906 3.45898 9.70362L3.68416 9.03007C3.73584 8.87833 3.76907 8.61927 3.7543 8.45644L3.48113 4.58905C3.62879 4.54094 3.73584 4.40401 3.73584 4.23747C3.73584 4.05613 3.60295 3.90439 3.42945 3.87479L3.39622 3.58982L4.44461 4.04503L4.95773 4.26708V6.20262C4.89867 6.41357 4.85068 6.63192 4.81746 6.85397C4.78054 7.10933 4.76208 7.36839 4.76208 7.63115C4.76208 7.73847 4.76578 7.8458 4.77316 7.94942C4.78423 8.10486 4.79531 8.25659 4.81746 8.40833C4.82115 8.45274 4.82484 8.50085 4.82853 8.54526C4.98727 10.3328 5.60006 11.9093 6.4934 13.0233C6.59677 13.1528 6.70382 13.2749 6.81456 13.3897C7.60455 14.2187 8.57172 14.7072 9.62011 14.7072C10.6648 14.7072 11.6357 14.2187 12.4257 13.3897C12.5364 13.2749 12.6435 13.1528 12.7468 13.0233C13.6402 11.913 14.253 10.3328 14.4117 8.54526C14.4154 8.50085 14.4191 8.45274 14.4228 8.40833C14.4449 8.25659 14.4597 8.10486 14.4671 7.94942C14.4745 7.8421 14.4781 7.73847 14.4781 7.63115C14.4781 7.36839 14.4597 7.10563 14.4228 6.85397C14.3895 6.63192 14.3416 6.41727 14.2825 6.20632V4.27078L14.7956 4.04873L16.346 3.37517C16.7521 3.19753 16.7521 2.91257 16.346 2.73493L10.3547 0.133231C9.94866 -0.0444102 9.28788 -0.0444102 8.88181 0.133231L2.89049 2.73123C2.48442 2.90517 2.48442 3.19383 2.89049 3.37147ZM6.02458 6.71704L6.65214 6.9872L8.88181 7.95312C9.28788 8.13076 9.95235 8.13076 10.3547 7.95312L12.5844 6.9872L13.212 6.71704C13.3559 7.67556 13.1492 8.90054 13.1492 8.90054C13.4039 8.7229 13.6328 8.63038 13.8247 8.58226C13.5442 11.617 11.7723 13.9596 9.62011 13.9596C7.46796 13.9596 5.69234 11.6207 5.41179 8.58226C5.60006 8.63038 5.83262 8.7229 6.08734 8.90054C6.08734 8.90054 5.88061 7.67186 6.02458 6.71704Z" fill="#5448B7"/>
</svg>
