<svg width="115" height="115" viewBox="0 0 115 115" fill="none" xmlns="http://www.w3.org/2000/svg">
<path d="M35.7119 0.133606C35.7119 0.133606 32.1665 6.00383 32.1665 9.54922C32.1665 13.0365 45.7668 100.509 45.7668 100.509L37.0486 101.671C37.0486 101.671 23.4483 12.4553 23.4483 11.5835C23.4483 11.1185 23.2739 8.3868 25.4825 6.23632C27.1681 4.66705 31.0622 1.93536 35.7119 0.133606Z" fill="#009688"/>
<path d="M47.7423 17.2793L41.4652 2.92338C41.4652 2.92338 39.431 0.30793 36.8155 0.0173244C35.4206 -0.157039 32.9214 1.00538 30.5385 2.57465C28.5042 3.85332 26.4119 5.53883 26.4119 5.53883C26.4119 5.53883 30.4803 4.37641 32.5146 7.28246C34.5488 10.1885 40.0703 26.4043 40.0703 26.4043L47.7423 17.2793Z" fill="#B2DFDB"/>
<path d="M95.8089 0.249924C95.8089 0.249924 99.3542 6.12015 99.3542 9.66554C99.3542 13.1528 85.7539 100.625 85.7539 100.625L94.4721 101.787C94.4721 101.787 108.072 12.5716 108.072 11.6998C108.072 11.2348 108.247 8.50312 106.038 6.35264C104.353 4.78337 100.459 2.05168 95.8089 0.249924Z" fill="#009688"/>
<path d="M83.7781 17.3375L90.1133 2.98156C90.1133 2.98156 92.1475 0.366112 94.763 0.0755062C96.1579 -0.0988571 98.6571 1.06356 101.04 2.63283C103.074 3.9115 105.167 5.59701 105.167 5.59701C105.167 5.59701 101.098 4.43459 99.0639 7.34064C97.0297 10.2467 91.5082 26.4625 91.5082 26.4625L83.7781 17.3375Z" fill="#B2DFDB"/>
<path d="M93.252 21.9289C93.252 21.9289 99.4709 26.9273 102.784 34.7737C106.097 42.62 113.652 89.2913 112.664 94.9871C111.734 100.625 104.644 110.97 100.75 112.54C96.8555 114.109 81.279 114.109 81.279 114.109H66.865V11.5834C66.9231 11.5834 81.6277 12.5133 93.252 21.9289Z" fill="#00897B"/>
<path d="M62.4505 15.8844L62.3342 5.88755C62.3342 3.5627 63.7291 3.2721 65.2984 3.2721H68.7275C70.2968 3.2721 71.6917 3.67895 71.6917 6.00379L71.5755 15.8263H75.0627V5.53882C75.0627 3.21398 72.796 0.191681 69.9481 0.191681H63.8454C61.0556 0.191681 58.7307 3.21398 58.7307 5.53882V15.8844H62.4505Z" fill="#009688"/>
<path d="M62.3318 0.482269C60.2394 1.29596 58.7283 3.67893 58.7283 5.5388V15.8844H62.3318V0.482269Z" fill="#B2DFDB"/>
<path d="M71.5149 0.482269C73.6073 1.29596 75.1184 3.67893 75.1184 5.5388V15.8844H71.5149V0.482269Z" fill="#B2DFDB"/>
<path d="M100.11 37.6216C101.563 42.2132 102.784 46.6304 102.784 48.2578V107.948C102.784 111.377 100.168 114.167 96.8552 114.167H66.9229V37.6216H100.11Z" fill="#4DB6AC"/>
<path d="M40.5943 21.9289C40.5943 21.9289 34.3753 26.9273 31.0624 34.7737C27.7495 42.62 20.1938 89.2913 21.1819 94.9871C22.1118 100.625 29.2026 110.97 33.0967 112.54C36.9908 114.109 52.5672 114.109 52.5672 114.109H66.9813V11.5834C66.9231 11.5834 52.1604 12.5133 40.5943 21.9289Z" fill="#4DB6AC"/>
<path d="M33.7361 37.6216C32.283 42.2132 31.0625 46.6304 31.0625 48.2578V107.948C31.0625 111.377 33.6779 114.167 36.9908 114.167H66.9232V37.6216H33.7361Z" fill="#B2DFDB"/>
<path d="M92.0901 70.8088C92.0901 71.2156 91.567 71.5062 90.9276 71.5062H88.7772C88.1378 71.5062 87.6147 71.2156 87.6147 70.8088V58.2546C87.6147 57.8478 88.1378 57.5572 88.7772 57.5572H90.9276C91.567 57.5572 92.0901 57.8478 92.0901 58.2546V70.8088Z" fill="#006B5C"/>
<path d="M97.9594 24.0214C96.2158 19.5461 90.5199 15.9426 84.1847 13.6759C81.1624 12.5716 78.4888 11.9323 75.5828 11.351C72.3861 10.7117 70.0032 10.363 66.9227 10.4792C64.1329 10.4792 61.285 10.7117 58.3789 11.2348C55.2985 11.816 52.9155 12.4553 49.6608 13.6759C43.3256 16.0007 37.6297 19.5461 35.8861 24.0214C32.4569 33.0302 32.6894 29.5429 32.6894 36.6337C32.6894 43.7826 23.5644 52.0358 31.062 52.0358C38.5596 52.0358 63.0867 57.0342 63.0867 57.0342C63.0867 57.0342 82.2667 62.8463 89.8224 62.8463C97.3201 62.8463 102.783 61.2771 102.783 54.1282C102.783 46.9793 101.389 32.9721 97.9594 24.0214Z" fill="#00897B"/>
<path d="M66.9223 9.31678L66.806 53.2563C66.806 53.2563 58.4366 50.9896 51.3458 47.9673C37.978 42.3296 34.6069 33.6114 34.6069 33.6114C34.6069 33.6114 32.3983 31.8678 35.8275 22.859C37.5711 18.3837 43.267 14.7802 49.6022 12.5134C52.857 11.2929 55.2399 10.6536 58.3204 10.0724C61.2845 9.54927 64.1325 9.25866 66.9223 9.31678Z" fill="#00796B"/>
<path d="M66.9221 9.31675L66.8059 53.2563C66.8059 53.2563 82.2661 61.6839 89.7637 61.6839C97.2614 61.6839 102.725 60.1146 102.725 52.9657C102.725 45.8168 101.33 31.8096 97.9007 22.859C96.1571 18.3836 90.4612 14.7801 84.126 12.5134C81.1037 11.4091 78.4301 10.7698 75.5241 10.1886C72.3855 9.54923 70.0026 9.20051 66.9221 9.31675Z" fill="#00796B"/>
<path d="M52.2766 27.741C52.3928 27.0436 51.986 26.4623 51.3467 26.3461L48.9637 25.9393C48.3244 25.823 47.7432 26.288 47.5688 26.9273L45.9414 35.8198C47.3944 36.9241 48.7893 38.1447 50.1261 39.4233L52.2766 27.741Z" fill="#00695C"/>
<path d="M29.6096 49.7107C29.6096 49.7107 37.1654 50.4663 45.0698 50.9894C52.9743 51.5125 69.0738 54.4185 69.0738 54.4185L36.7004 39.6558L29.6096 49.7107Z" fill="#00695C"/>
<path d="M33.9104 32.2164C33.9104 32.2164 41.8149 30.2402 47.627 33.5532C53.4391 36.8661 53.4391 40.5858 58.0888 45.7586C62.7385 50.9314 66.8069 53.3143 66.8069 53.3143C66.8069 53.3143 50.998 48.9552 44.5466 44.538C36.2934 38.9003 33.9104 32.2164 33.9104 32.2164Z" fill="#00695C"/>
<path d="M33.9104 32.2165C33.9104 32.2165 41.2337 30.8797 47.1039 34.1926C52.9741 37.5055 52.916 41.2252 57.5657 46.398C62.2154 51.5708 66.8069 53.2563 66.8069 53.2563C66.8069 53.2563 50.4749 49.5365 43.9654 45.1775C35.7122 39.5978 33.9104 32.2165 33.9104 32.2165Z" fill="#00897B"/>
<path d="M46.3481 51.0475C45.9413 50.5244 44.1395 46.3397 43.2677 45.1772C29.3186 26.811 19.5543 8.9678 19.5543 8.9678L2.81543 22.045C2.81543 22.045 18.3919 37.2147 27.5169 47.3858C27.8075 47.7346 28.0981 48.0252 28.4468 48.432C28.7956 48.8389 29.2024 49.3038 29.6093 49.7688C30.2486 50.0013 30.946 50.0594 31.5273 50.1757C36.0607 50.1175 42.6865 51.0475 46.3481 51.0475Z" fill="#B2DFDB"/>
<path d="M14.0606 19.1861C18.6659 15.5915 21.1183 11.0364 19.5383 9.01212C17.9582 6.9878 12.944 8.2608 8.33867 11.8554C3.73335 15.4501 1.28089 20.0051 2.86095 22.0295C4.44101 24.0538 9.45525 22.7808 14.0606 19.1861Z" fill="#4DB6AC"/>
<path d="M4.03621 19.6622C4.03621 19.6622 3.68748 17.0467 9.32523 13.2107C15.0211 9.37473 16.3579 9.60721 16.5904 9.83969C16.8228 10.0722 18.9152 13.3851 18.9152 13.3851C18.9152 13.3851 17.7528 16.4655 13.9749 19.0809C10.1389 21.6964 6.59354 22.5682 6.59354 22.5682L4.03621 19.6622Z" fill="#009688"/>
<path d="M15.4281 17.3954L13.5101 14.7218C13.5101 14.7218 13.2195 16.3492 11.1271 17.6279C5.6056 21.057 4.21069 19.7784 4.21069 19.7784L6.82614 22.7425C6.82614 22.7425 8.16293 22.7425 10.3715 21.6382C12.6964 20.4758 15.7768 17.8023 15.7768 17.8023L15.7187 17.7441C15.3699 18.0347 15.0793 18.3253 14.7306 18.6159C14.6725 18.6159 15.0212 18.151 15.4281 17.3954Z" fill="#80CBC4"/>
<path d="M16.648 9.83972C18.0429 12.0483 15.7181 16.698 14.6719 18.616L15.6599 17.7442C16.648 16.8143 17.4617 16.0006 18.101 15.1287C18.7985 14.1407 19.2634 13.0945 19.2634 13.0945C19.2634 13.0945 16.9967 10.0722 16.648 9.83972Z" fill="#80CBC4"/>
<path d="M14.6719 18.6159C15.0206 18.3253 15.3693 18.0347 15.6599 17.7441L15.3693 17.3954C15.0206 18.151 14.6719 18.6159 14.6719 18.6159Z" fill="#BFBFBF"/>
<path d="M26.0061 35.2386C16.2417 22.975 14.6725 18.6159 14.6725 18.6159L13.3938 19.6621C13.3938 19.6621 15.2537 24.4862 21.3564 31.7513C25.1343 36.2847 32.3413 44.3054 37.2234 49.7688C37.3978 49.7688 38.0953 50.2919 38.2115 50.2919C34.8986 46.2234 29.9002 40.1207 26.0061 35.2386Z" fill="#80CBC4"/>
<path d="M50.3008 28.8453C50.3008 29.1941 50.0102 29.4265 49.7196 29.4265C49.3709 29.4265 49.1384 29.1359 49.1384 28.8453C49.1384 28.4966 49.429 28.2641 49.7196 28.2641C50.0684 28.2641 50.3008 28.4966 50.3008 28.8453Z" fill="#D3D3D3"/>
<path d="M94.7044 75.8653H68.2012H64.5977H38.0945C36.0603 75.8653 34.3748 77.3764 34.3748 79.1782V106.611C34.3748 108.471 36.0603 109.924 38.0945 109.924H64.5977H68.2012H94.7044C96.7387 109.924 98.4242 108.413 98.4242 106.611V79.1782C98.4242 77.3183 96.7968 75.8653 94.7044 75.8653Z" fill="#006B5C"/>
<path d="M68.3765 78.6552H38.2117C36.1193 78.6552 34.4919 79.9338 34.4919 81.5612V105.623C34.4919 107.251 36.1775 108.529 38.2117 108.529H68.3765V78.6552Z" fill="#007C6B"/>
<path d="M94.7051 78.6552H67.2139V108.529H94.7051C96.7394 108.529 98.4249 107.251 98.4249 105.623V81.5612C98.4249 79.9919 96.7975 78.6552 94.7051 78.6552Z" fill="#006B5C"/>
<path d="M68.3175 77.4928H66.4576H34.3748V94.5804C34.3748 96.2078 36.0603 97.4864 38.1526 97.4864H66.5157H68.3756H94.7626C96.7968 97.4864 98.4823 96.2078 98.4823 94.5804V77.4928H68.3175Z" fill="#006B5C"/>
<path d="M33.4453 75.8653V92.9529C33.4453 94.5803 35.1889 95.8589 37.3394 95.8589H68.7829V75.8653H33.4453Z" fill="#FFBD00"/>
<path d="M66.8069 75.8653V95.8589H96.2162C98.3666 95.8589 100.11 94.5803 100.11 92.9529V75.8653H66.8069Z" fill="#FF7700"/>
<path d="M47.7425 92.8367C47.7425 93.2436 47.3938 93.5923 46.9869 93.5923H40.9423C40.5355 93.5923 40.1868 93.2436 40.1868 92.8367C40.1868 92.4299 40.5355 92.0811 40.9423 92.0811H46.9869C47.3938 92.023 47.7425 92.3717 47.7425 92.8367Z" fill="#D3D3D3"/>
<path d="M94.4722 92.023C94.4722 92.4298 94.1235 92.7786 93.7167 92.7786H87.6721C87.2652 92.7786 86.9165 92.4298 86.9165 92.023C86.9165 91.6162 87.2652 91.2674 87.6721 91.2674H93.7167C94.1235 91.2674 94.4722 91.6162 94.4722 92.023Z" fill="#D3D3D3"/>
<path d="M92.7871 69.937C92.7871 70.3439 92.264 70.6345 91.6247 70.6345H89.4742C88.8349 70.6345 88.3118 70.3439 88.3118 69.937V57.3829C88.3118 56.976 88.8349 56.6854 89.4742 56.6854H91.6247C92.264 56.6854 92.7871 56.976 92.7871 57.3829V69.937Z" fill="#00695C"/>
<path d="M90.8684 68.6003C91.4462 68.6003 91.9146 68.1319 91.9146 67.5541C91.9146 66.9763 91.4462 66.5079 90.8684 66.5079C90.2907 66.5079 89.8223 66.9763 89.8223 67.5541C89.8223 68.1319 90.2907 68.6003 90.8684 68.6003Z" fill="#D3D3D3"/>
<path d="M28.0982 80.8057V99.9857C28.0982 99.9857 21.4143 99.8113 20.0194 93.5923C18.6245 87.4315 21.1818 73.3662 22.4024 72.0875C23.5648 70.8089 28.0982 80.8057 28.0982 80.8057Z" fill="#009688"/>
<path d="M23.8554 69.6464L29.2606 78.6551C29.2606 78.6551 27.7495 78.1902 26.8777 80.2244C26.0058 82.2587 26.5289 81.6193 25.9477 82.3168C25.3665 82.9561 24.8434 83.0724 23.4485 82.3168C22.0536 81.5612 19.9613 77.0278 19.9613 77.0278C19.9613 77.0278 19.6707 73.0174 21.0074 70.2276C22.4023 67.3797 23.8554 69.6464 23.8554 69.6464Z" fill="#00796B"/>
<path d="M106.387 79.7594V98.9394C106.387 98.9394 113.071 98.765 114.466 92.5461C115.861 86.3852 113.303 72.3199 112.083 71.0413C110.862 69.7626 106.387 79.7594 106.387 79.7594Z" fill="#009688"/>
<path d="M110.572 68.6002L105.167 77.6089C105.167 77.6089 106.678 77.144 107.55 79.1782C108.48 81.2706 107.899 80.5731 108.48 81.2706C109.061 81.9099 109.584 82.0261 110.979 81.2706C112.374 80.515 114.466 75.9816 114.466 75.9816C114.466 75.9816 114.757 71.9712 113.42 69.1814C112.025 66.3335 110.572 68.6002 110.572 68.6002Z" fill="#00796B"/>
<path d="M42.4542 50.699C45.1859 50.9896 55.3571 52.152 56.5195 52.3263L58.3794 47.3861C58.6119 46.8048 58.2631 46.1655 57.6819 45.933L36.9327 38.2029C36.3515 37.9704 35.654 38.261 35.4216 38.8423L31.1787 50.0596C32.1668 50.0596 40.4781 50.4665 42.4542 50.699Z" fill="#FFBD00"/>
<path d="M58.4956 48.0835L37.8045 40.3534C37.2233 40.1209 36.5258 40.4115 36.2933 40.9927L33.1548 49.3622C33.5616 49.4203 34.0266 49.4203 34.4334 49.4784C35.4796 49.3041 36.5258 49.1878 37.5139 49.0716C39.49 48.8972 41.5242 48.8391 43.5003 49.0716C46.232 49.3622 49.2543 49.8853 51.9279 51.0477C52.3929 51.0477 52.8578 51.0477 53.3228 51.0477C55.1246 51.1639 56.8101 51.4545 58.4956 51.8614L59.2512 49.8271C59.4836 49.2459 59.0768 48.316 58.4956 48.0835Z" fill="#FFBD00"/>
<path d="M58.4956 48.6066L37.2233 40.8184L33.9104 50.1759C34.0266 50.1759 41.9892 50.7571 43.9654 50.9896C46.697 51.2802 56.5195 52.2101 58.205 52.6169L59.1931 50.0596C59.4256 49.4784 59.135 48.8391 58.4956 48.6066Z" fill="#FF7700"/>
<path d="M58.1472 46.8629L37.1074 38.9584C36.8168 38.8422 36.7005 39.0747 36.7587 39.4234C36.8168 39.714 37.0493 40.1209 37.3399 40.2371L57.566 47.7928C58.6703 48.1416 58.8447 48.374 58.8447 48.374L58.1472 46.8629Z" fill="white"/>
<path d="M33.9099 50.1758C35.6536 45.2355 37.2228 40.8183 37.2228 40.8183C37.1647 40.8183 36.2348 40.2952 36.0023 39.4234C35.7698 38.5516 36.1185 38.261 36.1185 38.261C36.1185 38.261 35.8279 38.0285 35.1886 39.5977C34.3168 41.8063 32.515 46.1073 31.062 50.0595C32.2244 50.2339 33.0381 50.0595 33.9099 50.1758Z" fill="#FF7700"/>
</svg>
