<svg width="48" height="48" viewBox="0 0 48 48" fill="none" xmlns="http://www.w3.org/2000/svg">
<circle cx="24" cy="24" r="18" fill="#26A69A"/>
<path fill-rule="evenodd" clip-rule="evenodd" d="M24 28.4703C20.3862 28.4703 17.454 25.538 17.454 21.9243C17.454 18.3105 20.3862 15.3783 24 15.3783C27.6138 15.3783 30.546 18.3105 30.546 21.9243C30.546 25.538 27.6138 28.4703 24 28.4703ZM24 42C33.941 42 42 33.941 42 24C42 14.059 33.941 6 24 6C14.059 6 6 14.059 6 24C6 33.941 14.059 42 24 42ZM13.5651 36.5419C15.2407 32.4279 19.2796 29.5269 24 29.5269C28.7204 29.5269 32.7593 32.4279 34.4349 36.5419C38.0299 33.5471 40.3182 29.0392 40.3182 24C40.3182 14.9906 33.0156 7.68183 24 7.68183C14.9844 7.68183 7.68183 14.9844 7.68183 24C7.68183 29.0392 9.97013 33.5533 13.5651 36.5419Z" fill="white"/>
</svg>
