<svg width="30" height="30" viewBox="0 0 30 30" fill="none" xmlns="http://www.w3.org/2000/svg">
<path d="M27 22.4615H3V23.923H27V22.4615Z" fill="#B2DFDB"/>
<path d="M9.76989 6H6.30835V22.4615H9.76989V6Z" fill="#FABF2C"/>
<path d="M9.76989 7.53845H6.30835V8.23076H9.76989V7.53845Z" fill="white"/>
<path d="M9.76989 20.1538H6.30835V20.8461H9.76989V20.1538Z" fill="white"/>
<path d="M23.5378 7.84607H20.0763V22.4615H23.5378V7.84607Z" fill="#FABF2C"/>
<path d="M23.5378 9.23093H20.0763V9.84631H23.5378V9.23093Z" fill="#26A69A"/>
<path d="M23.5378 20.4614H20.0763V21.0768H23.5378V20.4614Z" fill="#26A69A"/>
<path d="M17.6672 7.45142L15.3752 7.71912L17.0974 22.4643L19.3894 22.1966L17.6672 7.45142Z" fill="#FABF2C"/>
<path d="M17.7996 8.79141L15.5076 9.06003L15.5792 9.67123L17.8712 9.40261L17.7996 8.79141Z" fill="white"/>
<path d="M18.0003 10.3076L15.6926 10.6152L15.6157 9.92294L17.9234 9.69217L18.0003 10.3076Z" fill="white"/>
<path d="M19.1539 20.7692L16.9231 21.0769L16.8462 20.3845L19.077 20.1538L19.1539 20.7692Z" fill="white"/>
<path d="M15.4615 9.46155H10.6923V22.4615H15.4615V9.46155Z" fill="#26A69A"/>
<path d="M15.4615 10.6924H10.6923V12.6924H15.4615V10.6924Z" fill="#B2DFDB"/>
<path d="M15.4615 19.2309H10.6923V21.2309H15.4615V19.2309Z" fill="#B2DFDB"/>
<path d="M23.0773 10.6154H20.6157V17.9231H23.0773V10.6154Z" fill="#26A69A"/>
</svg>
