<svg width="24" height="24" viewBox="0 0 24 24" fill="none" xmlns="http://www.w3.org/2000/svg">
<path d="M19.3002 20.2897C19.3002 20.6739 18.916 20.9941 18.4037 20.9941H5.59669C5.08441 20.9941 4.7002 20.6739 4.7002 20.2897V5.2415C4.7002 4.85729 5.08441 4.53711 5.59669 4.53711H18.4037C18.916 4.53711 19.3002 4.85729 19.3002 5.2415V20.2897Z" fill="#DDE2E2"/>
<path d="M17.6365 5.69043H6.23828V19.3299H17.6365V5.69043Z" fill="white"/>
<path d="M15.7789 7.80273H8.09473V7.9308H15.7789V7.80273Z" fill="#C6CFCE"/>
<path d="M15.7789 9.01904H8.09473V9.14711H15.7789V9.01904Z" fill="#C6CFCE"/>
<path d="M15.7789 10.2358H8.09473V10.3639H15.7789V10.2358Z" fill="#C6CFCE"/>
<path d="M15.7789 11.3887H8.09473V11.5167H15.7789V11.3887Z" fill="#C6CFCE"/>
<path d="M15.7789 12.6055H8.09473V12.7335H15.7789V12.6055Z" fill="#C6CFCE"/>
<path d="M15.7789 13.7578H8.09473V13.8859H15.7789V13.7578Z" fill="#C6CFCE"/>
<path d="M15.7789 14.9746H8.09473V15.1027H15.7789V14.9746Z" fill="#C6CFCE"/>
<path d="M15.7789 16.1914H8.09473V16.3195H15.7789V16.1914Z" fill="#C6CFCE"/>
<path d="M15.843 5.43319C15.843 5.94547 15.4588 6.32968 14.9465 6.32968H8.99122C8.47894 6.32968 8.09473 5.94547 8.09473 5.43319V4.92091C8.09473 4.40862 8.47894 4.02441 8.99122 4.02441H14.9465C15.4588 4.02441 15.843 4.40862 15.843 4.92091V5.43319Z" fill="#C6CFCE"/>
<path d="M11.1037 4.0886C11.2317 3.76842 11.5519 3.57632 12.0002 3.57632C12.4484 3.57632 12.7686 3.76842 12.8966 4.0886H13.473C13.4089 3.44825 12.7686 3 12.0002 3C11.2317 3 10.6554 3.44825 10.5273 4.0886H11.1037Z" fill="#C6CFCE"/>
</svg>
