<svg width="24" height="24" viewBox="0 0 24 24" fill="none" xmlns="http://www.w3.org/2000/svg">
<path d="M19.3052 20.2951C19.3052 20.6795 18.9208 20.9997 18.4084 20.9997H5.59699C5.08454 20.9997 4.7002 20.6795 4.7002 20.2951V5.24174C4.7002 4.85739 5.08454 4.53711 5.59699 4.53711H18.4084C18.9208 4.53711 19.3052 4.85739 19.3052 5.24174V20.2951Z" fill="#009688"/>
<path d="M17.6404 5.69043H6.23828V19.3346H17.6404V5.69043Z" fill="white"/>
<path d="M15.7825 7.8042H8.0957V7.93231H15.7825V7.8042Z" fill="#4DB6AC"/>
<path d="M15.7825 9.02148H8.0957V9.1496H15.7825V9.02148Z" fill="#4DB6AC"/>
<path d="M15.7825 10.2383H8.0957V10.3664H15.7825V10.2383Z" fill="#4DB6AC"/>
<path d="M15.7825 11.3916H8.0957V11.5197H15.7825V11.3916Z" fill="#4DB6AC"/>
<path d="M15.7825 12.6084H8.0957V12.7365H15.7825V12.6084Z" fill="#4DB6AC"/>
<path d="M15.7825 13.7612H8.0957V13.8893H15.7825V13.7612Z" fill="#4DB6AC"/>
<path d="M15.7825 14.9785H8.0957V15.1066H15.7825V14.9785Z" fill="#4DB6AC"/>
<path d="M15.7825 16.1958H8.0957V16.3239H15.7825V16.1958Z" fill="#4DB6AC"/>
<path d="M15.8466 5.43415C15.8466 5.94661 15.4623 6.33095 14.9498 6.33095H8.9925C8.48004 6.33095 8.0957 5.94661 8.0957 5.43415V4.9217C8.0957 4.40924 8.48004 4.0249 8.9925 4.0249H14.9498C15.4623 4.0249 15.8466 4.40924 15.8466 4.9217V5.43415Z" fill="#FCD734"/>
<path d="M11.1058 4.08897C11.2339 3.76868 11.5542 3.57651 12.0026 3.57651C12.451 3.57651 12.7713 3.76868 12.8994 4.08897H13.4759C13.4119 3.4484 12.7713 3 12.0026 3C11.2339 3 10.6574 3.4484 10.5293 4.08897H11.1058Z" fill="#FCD734"/>
</svg>
