<svg width="13" height="20" viewBox="0 0 13 20" fill="none" xmlns="http://www.w3.org/2000/svg">
<g opacity="0.4">
<path fill-rule="evenodd" clip-rule="evenodd" d="M12.013 1.5C12.013 0.671589 11.3419 0 10.513 0H1.5C0.67259 0 0 0.672125 0 1.5V18.5C0 19.3279 0.67259 20 1.5 20H10.513C11.3419 20 12.013 19.3284 12.013 18.5V16.5414C12.0132 16.5356 12.0133 16.5298 12.0133 16.5239C12.0133 16.518 12.0132 16.5122 12.013 16.5064V1.5ZM11.013 16.0239V1.5C11.013 1.22372 10.7894 1 10.513 1H1.5C1.22472 1 1 1.22456 1 1.5V3.0239H9.5133C9.78944 3.0239 10.0133 3.24776 10.0133 3.5239C10.0133 3.80004 9.78944 4.0239 9.5133 4.0239H1V18.5C1 18.7754 1.22472 19 1.5 19H10.513C10.7894 19 11.013 18.7763 11.013 18.5V17.0239H2.5003C2.22416 17.0239 2.0003 16.8 2.0003 16.5239C2.0003 16.2478 2.22416 16.0239 2.5003 16.0239H11.013Z" fill="#009688"/>
</g>
</svg>
