<svg width="24" height="21" viewBox="0 0 24 21" fill="none" xmlns="http://www.w3.org/2000/svg">
<path d="M18.1386 2.43176C18.1536 2.43176 18.1686 2.44672 18.1686 2.46167V6.70793C18.5887 6.77272 18.9937 6.87738 19.3838 7.01693V2.46167C19.3838 1.77389 18.8237 1.2157 18.1336 1.2157H12.3555V2.42678H18.1386V2.43176Z" fill="#2857A9"/>
<path d="M12.4735 1.2157H7.02734V2.42678H12.4735V1.2157Z" fill="#2857A9"/>
<path d="M1.25026 15.0161C1.23525 15.0161 1.22025 15.0011 1.22025 14.9862V2.46167C1.22025 2.44672 1.23525 2.43176 1.25026 2.43176H7.07314V1.2157H1.25026C0.560116 1.2157 0 1.77389 0 2.46167V14.9862C0 15.6739 0.560116 16.2321 1.25026 16.2321H10.7172C10.5522 15.8434 10.4171 15.4397 10.3221 15.021H1.25026V15.0161Z" fill="#2857A9"/>
<path d="M5.91016 2.87212C5.91016 3.16341 6.15219 3.40227 6.44736 3.40227C6.74252 3.40227 6.98456 3.16341 6.98456 2.87212V0.530148C6.98456 0.238858 6.74252 0 6.44736 0C6.15219 0 5.91016 0.238858 5.91016 0.530148V2.87212Z" fill="#2857A9"/>
<path d="M12.7129 2.87212C12.7129 3.16341 12.9549 3.40227 13.2501 3.40227C13.5453 3.40227 13.7873 3.16341 13.7873 2.87212V0.530148C13.7873 0.238858 13.5453 0 13.2501 0C12.9549 0 12.7129 0.238858 12.7129 0.530148V2.87212Z" fill="#2857A9"/>
<path d="M4.8904 5.20782H2.89498C2.51991 5.20782 2.21484 5.51184 2.21484 5.88563V7.15652C2.21484 7.53031 2.51991 7.83433 2.89498 7.83433H4.8904C5.26547 7.83433 5.56554 7.53031 5.56554 7.15652V5.88065C5.56554 5.50686 5.26047 5.20782 4.8904 5.20782Z" fill="#2857A9"/>
<path d="M8.80141 5.22278H6.806C6.43092 5.22278 6.13086 5.5268 6.13086 5.90059V7.17646C6.13086 7.55025 6.43592 7.84928 6.806 7.84928H8.80141C9.17649 7.84928 9.48155 7.54527 9.48155 7.17646V5.90059C9.48155 5.5268 9.17649 5.22278 8.80141 5.22278Z" fill="#2857A9"/>
<path d="M12.8318 5.22278H10.8364C10.4613 5.22278 10.1562 5.5268 10.1562 5.90059V7.17646C10.1562 7.55025 10.4613 7.84928 10.8364 7.84928H12.8318C13.2069 7.84928 13.5119 7.54527 13.5119 7.17646V5.90059C13.5069 5.5268 13.2069 5.22278 12.8318 5.22278Z" fill="#2857A9"/>
<path d="M16.7478 5.17792H14.7524C14.3773 5.17792 14.0723 5.48193 14.0723 5.85573V7.1316C14.0723 7.18642 14.0823 7.24124 14.0923 7.29607C14.9975 6.86745 16.0077 6.62324 17.0729 6.62324C17.1879 6.62324 17.3079 6.62823 17.423 6.63321V5.85573C17.423 5.48193 17.1229 5.17792 16.7478 5.17792Z" fill="#2857A9"/>
<path d="M4.8561 8.17816H2.86569C2.49061 8.17816 2.18555 8.48218 2.18555 8.85099V10.1269C2.18555 10.5007 2.49061 10.8047 2.86569 10.8047H4.8611C5.23618 10.8047 5.53624 10.5007 5.53624 10.1269V8.85099C5.53624 8.48218 5.23118 8.17816 4.8561 8.17816Z" fill="#2857A9"/>
<path d="M8.77211 8.19812H6.7767C6.40162 8.19812 6.10156 8.50214 6.10156 8.87593V10.1468C6.10156 10.5206 6.40663 10.8196 6.7767 10.8196H8.77211C9.14719 10.8196 9.45225 10.5156 9.45225 10.1468V8.87094C9.45225 8.49715 9.14719 8.19812 8.77211 8.19812Z" fill="#2857A9"/>
<path d="M10.127 8.87094V10.1468C10.127 10.4857 10.377 10.7648 10.7071 10.8147C11.1472 9.79296 11.8273 8.89586 12.6725 8.19812H10.8021C10.432 8.19812 10.127 8.49715 10.127 8.87094Z" fill="#2857A9"/>
<path d="M4.75563 11.303H2.76022C2.38514 11.303 2.08008 11.6071 2.08008 11.9808V13.2567C2.08008 13.6305 2.38514 13.9295 2.76022 13.9295H4.75563C5.13071 13.9295 5.43077 13.6255 5.43077 13.2567V11.9808C5.43077 11.6021 5.13071 11.303 4.75563 11.303Z" fill="#2857A9"/>
<path d="M8.71157 11.2732H6.71616C6.34108 11.2732 6.04102 11.5772 6.04102 11.951V13.2269C6.04102 13.6007 6.34608 13.8997 6.71616 13.8997H8.71157C9.08664 13.8997 9.38671 13.5957 9.38671 13.2269V11.951C9.38671 11.5772 9.08664 11.2732 8.71157 11.2732Z" fill="#2857A9"/>
<path d="M19.3882 7.01694C18.9981 6.87739 18.588 6.77273 18.1729 6.70794C17.9279 6.66806 17.6778 6.64314 17.4277 6.62819C17.3127 6.62321 17.1977 6.61823 17.0777 6.61823C16.0125 6.61823 15.0022 6.86244 14.0971 7.29105C13.587 7.53526 13.1119 7.83928 12.6768 8.19313C11.8266 8.89087 11.1465 9.78797 10.7114 10.8097C10.3563 11.642 10.1562 12.554 10.1562 13.5109C10.1562 14.0243 10.2163 14.5276 10.3213 15.0111C10.4163 15.4297 10.5463 15.8384 10.7164 16.2222C11.7766 18.6792 14.2271 20.4036 17.0777 20.4036C20.8935 20.4036 23.9991 17.3086 23.9991 13.5059C23.9941 10.5206 22.0687 7.96886 19.3882 7.01694ZM17.0727 18.749C14.1771 18.749 11.8216 16.4016 11.8216 13.5159C11.8216 10.6302 14.1771 8.28284 17.0727 8.28284C19.9683 8.28284 22.3238 10.6302 22.3238 13.5159C22.3288 16.4016 19.9733 18.749 17.0727 18.749Z" fill="#78F0FC"/>
<path d="M16.9589 13.7701C17.0939 13.496 17.3539 13.3464 17.539 13.4362L18.2091 13.7601C18.2291 13.6754 18.2391 13.5857 18.2391 13.491C18.2391 13.2368 18.1641 13.0026 18.0391 12.8082L17.899 13.0973C17.804 13.2916 17.529 13.3514 17.2789 13.2318C17.0289 13.1122 16.9038 12.858 16.9989 12.6637L17.2039 12.245C17.1239 12.2301 17.0439 12.2201 16.9639 12.2201C16.2587 12.2201 15.6836 12.7883 15.6836 13.496C15.6836 14.1987 16.2537 14.7718 16.9639 14.7718C17.1589 14.7718 17.3439 14.727 17.509 14.6472L17.0639 14.4329C16.8688 14.3382 16.8238 14.0392 16.9589 13.7701Z" fill="#2857A9"/>
<path d="M17.2728 13.2318C17.5229 13.3515 17.7979 13.2916 17.8929 13.0973L18.033 12.8082L19.1532 10.5057C19.2482 10.3113 19.1232 10.0571 18.8731 9.9375C18.6231 9.81788 18.348 9.87769 18.253 10.0721L17.1978 12.24L16.9927 12.6587C16.8977 12.858 17.0227 13.1122 17.2728 13.2318Z" fill="#2857A9"/>
<path d="M21.0896 15.1556L18.209 13.7601L17.5389 13.4361C17.3488 13.3464 17.0888 13.4959 16.9588 13.7701C16.8237 14.0442 16.8687 14.3382 17.0588 14.4279L17.5039 14.6422L20.6095 16.1424C20.7996 16.2321 21.0596 16.0826 21.1896 15.8085C21.3197 15.5393 21.2747 15.2453 21.0896 15.1556Z" fill="#2857A9"/>
</svg>
