<svg width="18" height="20" viewBox="0 0 18 20" fill="none" xmlns="http://www.w3.org/2000/svg">
<path d="M1 4.6001H2.8H17.2" stroke="#F47E16" stroke-width="1.5" stroke-linecap="round" stroke-linejoin="round"/>
<path d="M5.4998 4.6V2.8C5.4998 2.32261 5.68945 1.86477 6.02701 1.52721C6.36458 1.18964 6.82241 1 7.2998 1H10.8998C11.3772 1 11.835 1.18964 12.1726 1.52721C12.5102 1.86477 12.6998 2.32261 12.6998 2.8V4.6M15.3998 4.6V17.2C15.3998 17.6774 15.2102 18.1352 14.8726 18.4728C14.535 18.8104 14.0772 19 13.5998 19H4.5998C4.12241 19 3.66458 18.8104 3.32701 18.4728C2.98945 18.1352 2.7998 17.6774 2.7998 17.2V4.6H15.3998Z" stroke="#F47E16" stroke-width="1.5" stroke-linecap="round" stroke-linejoin="round"/>
<path d="M7.2998 9.1001V14.5001" stroke="#F47E16" stroke-width="1.5" stroke-linecap="round" stroke-linejoin="round"/>
<path d="M10.8999 9.1001V14.5001" stroke="#F47E16" stroke-width="1.5" stroke-linecap="round" stroke-linejoin="round"/>
</svg>
