<svg width="41" height="49" viewBox="0 0 41 49" fill="none" xmlns="http://www.w3.org/2000/svg">
<path d="M5 48.5C2.5 48.5 0.5 46.5 0.5 44V6C0.5 3.5 2.5 1.5 5 1.5H28.8L39.5 12.2V44C39.5 46.5 37.5 48.5 35 48.5H5Z" fill="#F6F6F6"/>
<path d="M28.6 2L39 12.4V44C39 46.2 37.2 48 35 48H5C2.8 48 1 46.2 1 44V6C1 3.8 2.8 2 5 2H28.6ZM29 1H5C2.2 1 0 3.2 0 6V44C0 46.8 2.2 49 5 49H35C37.8 49 40 46.8 40 44V12L29 1Z" fill="#E0E0E0"/>
<path d="M5 48.5C2.5 48.5 0.5 46.5 0.5 44V6C0.5 3.5 2.5 1.5 5 1.5H28.8L39.5 12.2V44C39.5 46.5 37.5 48.5 35 48.5H5Z" fill="#E6E6E6"/>
<path d="M28.6 2L39 12.4V44C39 46.2 37.2 48 35 48H5C2.8 48 1 46.2 1 44V6C1 3.8 2.8 2 5 2H28.6ZM29 1H5C2.2 1 0 3.2 0 6V44C0 46.8 2.2 49 5 49H35C37.8 49 40 46.8 40 44V12L29 1Z" fill="#D2D2D2"/>
<path d="M30.4004 10.5L40.1004 20.2V10.5H30.4004Z" fill="#D2D2D2"/>
<path d="M41 12H34C31.2 12 29 9.8 29 7V0H41V12Z" fill="#EFEFEF"/>
<path d="M21.9992 34.8V35.6H18.4992V32.2H19.0992C20.0992 32.2 20.7992 32 21.3992 31.5C21.9992 31.1 22.2992 30.5 22.2992 29.8C22.2992 29.2 22.0992 28.8 21.5992 28.3C21.1992 27.9 20.6992 27.7 20.0992 27.7C19.5992 27.7 19.1992 27.9 18.7992 28.3C18.3992 28.7 18.1992 29.1 18.1992 29.7V30H14.6992V29.8C14.6992 28.4 15.2992 27.2 16.3992 26.1C17.4992 25.1 18.8992 24.5 20.3992 24.5C21.8992 24.5 23.0992 25 24.1992 26C25.2992 27 25.7992 28.2 25.7992 29.6C25.7992 30.6 25.4992 31.7 24.8992 32.6C24.1992 33.8 23.2992 34.5 21.9992 34.8ZM18.2992 39.4C18.2992 38.9 18.4992 38.4 18.8992 38C19.2992 37.6 19.6992 37.4 20.2992 37.4C20.8992 37.4 21.2992 37.6 21.6992 38C22.0992 38.4 22.2992 38.9 22.2992 39.4C22.2992 39.9 22.0992 40.4 21.6992 40.8C21.2992 41.2 20.8992 41.4 20.2992 41.4C19.7992 41.4 19.2992 41.2 18.8992 40.8C18.4992 40.5 18.2992 40 18.2992 39.4Z" fill="#D2D2D2"/>
</svg>
