<svg width="18" height="18" viewBox="0 0 18 18" fill="none" xmlns="http://www.w3.org/2000/svg">
<path fill-rule="evenodd" clip-rule="evenodd" d="M9.89054 12.1703V7.58594H7.71893C7.62175 7.58594 7.54298 7.63741 7.54298 7.70091V8.52573C7.54298 8.58923 7.62175 8.64073 7.71893 8.64073H8.09046V12.1703H7.64567C7.54849 12.1703 7.46973 12.2218 7.46973 12.2853V13.0289C7.46973 13.0924 7.54849 13.1439 7.64567 13.1439H10.3353C10.4325 13.1439 10.5113 13.0924 10.5113 13.0289V12.2853C10.5113 12.2218 10.4325 12.1703 10.3353 12.1703H9.89054Z" fill="#FF7700"/>
<path fill-rule="evenodd" clip-rule="evenodd" d="M9.92146 5.95169C9.92146 6.54629 9.45133 7.02834 8.87137 7.02834C8.29142 7.02834 7.82129 6.54629 7.82129 5.95169C7.82129 5.35705 8.29142 4.875 8.87137 4.875C9.45133 4.875 9.92146 5.35705 9.92146 5.95169Z" fill="#FF7700"/>
<path fill-rule="evenodd" clip-rule="evenodd" d="M8.98743 15.199C5.57427 15.199 2.79746 12.4221 2.79746 9.009C2.79746 5.59584 5.57427 2.81903 8.98743 2.81903C12.4006 2.81903 15.1774 5.59584 15.1774 9.009C15.1774 12.4221 12.4006 15.199 8.98743 15.199ZM8.98847 1.82422C5.02043 1.82422 1.80371 5.04093 1.80371 9.00898C1.80371 12.977 5.02043 16.1937 8.98847 16.1937C12.9565 16.1937 16.1732 12.977 16.1732 9.00898C16.1732 5.04093 12.9565 1.82422 8.98847 1.82422Z" fill="#FF7700"/>
</svg>
