<svg width="85" height="96" viewBox="0 0 85 96" fill="none" xmlns="http://www.w3.org/2000/svg">
<path d="M84.2925 27.3739V92.831C84.2925 94.5794 82.7589 95.9454 80.8967 95.9454H18.8958C17.8552 95.9454 16.924 95.5083 16.3216 94.8526C15.8286 94.3062 15.5 93.5959 15.5 92.831V12.239C15.5 10.4906 17.0336 9.12463 18.8958 9.12463H64.6297C65.2321 9.12463 65.7799 9.28855 66.3276 9.5071L73.393 15.8452L83.1971 24.9698C83.8543 25.6255 84.2925 26.4997 84.2925 27.3739Z" fill="#66CCC3"/>
<path d="M84.2937 27.374H64.6309V9.07007C65.2333 9.07007 65.7811 9.23398 66.3288 9.45254C66.6026 9.61645 66.9312 9.78037 67.1503 9.99892L73.3942 15.8453L83.1982 24.9699C83.8555 25.6256 84.2937 26.4998 84.2937 27.374Z" fill="#2B9F91"/>
<path opacity="0.4" d="M18.8958 9.07007C17.0336 9.07007 15.5 10.436 15.5 12.0752V67.2055H43.8714C48.6913 67.2055 52.58 63.3262 52.58 58.518V9.07007H18.8958Z" fill="#2B9F91"/>
<path d="M70.0529 51.1417H28.2626C27.9887 51.1417 27.7148 50.8685 27.7148 50.5953V47.5355C27.7148 47.2077 27.9339 46.9891 28.2626 46.9891H69.9981C70.272 46.9891 70.5458 47.2623 70.5458 47.5355V50.5953C70.5458 50.8685 70.3268 51.1417 70.0529 51.1417Z" fill="white"/>
<path d="M56.2505 37.045H28.4268C28.0434 37.045 27.7695 36.7718 27.7695 36.4986V33.4388C27.7695 33.111 28.0434 32.8925 28.4268 32.8925H56.3053C56.6887 32.8925 56.9625 33.1656 56.9625 33.4388V36.4986C56.9077 36.7718 56.6339 37.045 56.2505 37.045Z" fill="white"/>
<path d="M50.0065 64.9107H28.4815C28.0981 64.9107 27.8242 64.6375 27.8242 64.3643V61.3046C27.8242 60.9767 28.0981 60.7582 28.4815 60.7582H50.0065C50.3899 60.7582 50.6638 61.0314 50.6638 61.3046V64.3643C50.6638 64.6375 50.3351 64.9107 50.0065 64.9107Z" fill="white"/>
<path d="M74.6523 64.9107H54.8252C54.4418 64.9107 54.168 64.6375 54.168 64.3643V61.3046C54.168 60.9767 54.4418 60.7582 54.8252 60.7582H74.6523C75.0357 60.7582 75.3096 61.0314 75.3096 61.3046V64.3643C75.3644 64.6375 75.0357 64.9107 74.6523 64.9107Z" fill="white"/>
<path d="M76.7898 78.625H65.4522C65.0688 78.625 64.7949 78.3518 64.7949 78.0786V75.0188C64.7949 74.691 65.0688 74.4724 65.4522 74.4724H76.7898C77.1732 74.4724 77.447 74.7456 77.447 75.0188V78.0786C77.447 78.3518 77.1184 78.625 76.7898 78.625Z" fill="white"/>
<path d="M61.1249 78.625H28.4813C28.2074 78.625 27.9336 78.3518 27.9336 78.0786V75.0188C27.9336 74.691 28.1527 74.4724 28.4813 74.4724H61.1249C61.3987 74.4724 61.6726 74.7456 61.6726 75.0188V78.0786C61.6726 78.3518 61.3987 78.625 61.1249 78.625Z" fill="white"/>
<path d="M19.2246 38.3563C29.8421 38.3563 38.4493 29.7699 38.4493 19.1781C38.4493 8.58635 29.8421 0 19.2246 0C8.60717 0 0 8.58635 0 19.1781C0 29.7699 8.60717 38.3563 19.2246 38.3563Z" fill="#007C6B"/>
<path d="M27.4954 14.807L20.9229 8.63289C20.8134 8.57825 20.7038 8.52361 20.649 8.46897C20.5943 8.41433 20.5395 8.41433 20.5395 8.35969C20.43 8.30505 20.3752 8.19578 20.2656 8.19578H20.2109C20.0466 8.14114 19.937 8.14114 19.7727 8.0865C19.6084 8.0865 19.4989 8.03186 19.3345 8.03186H19.2798H19.225C19.0607 8.03186 18.9511 8.0865 18.7868 8.0865C18.6225 8.14114 18.513 8.14114 18.3487 8.19578H18.2939C18.1843 8.25041 18.1296 8.30505 18.02 8.35969C17.9653 8.35969 17.9105 8.41433 17.9105 8.46897C17.8009 8.52361 17.6914 8.57825 17.6366 8.63289L11.0093 14.807C10.0235 15.7359 9.96869 17.2658 10.8998 18.1946C11.3927 18.6864 11.9952 18.9596 12.6525 18.9596C13.255 18.9596 13.8574 18.741 14.2956 18.3039L16.8151 15.9545V27.9749C16.8151 29.2863 17.9105 30.379 19.225 30.379C20.5395 30.379 21.6349 29.2863 21.6349 27.9749V15.9545L24.1544 18.3039C24.6473 18.741 25.195 18.9596 25.7975 18.9596C26.4548 18.9596 27.112 18.6864 27.5502 18.1946C28.5361 17.2658 28.4813 15.7359 27.4954 14.807Z" fill="white"/>
</svg>
