<svg width="24" height="24" viewBox="0 0 24 24" fill="none" xmlns="http://www.w3.org/2000/svg">
<circle cx="12" cy="12" r="9" fill="#5448B7"/>
<path fill-rule="evenodd" clip-rule="evenodd" d="M12 14.2352C10.1931 14.2352 8.72699 12.769 8.72699 10.9621C8.72699 9.15526 10.1931 7.68913 12 7.68913C13.8069 7.68913 15.273 9.15526 15.273 10.9621C15.273 12.769 13.8069 14.2352 12 14.2352ZM12 21C16.9705 21 21 16.9705 21 12C21 7.02952 16.9705 3 12 3C7.02952 3 3 7.02952 3 12C3 16.9705 7.02952 21 12 21ZM6.78256 18.2709C7.62035 16.214 9.63981 14.7635 12 14.7635C14.3602 14.7635 16.3796 16.214 17.2174 18.2709C19.0149 16.7735 20.1591 14.5196 20.1591 12C20.1591 7.49531 16.5078 3.84092 12 3.84092C7.49218 3.84092 3.84092 7.49218 3.84092 12C3.84092 14.5196 4.98506 16.7767 6.78256 18.2709Z" fill="#F6C6A5"/>
</svg>
