<svg width="15" height="16" viewBox="0 0 15 16" fill="none" xmlns="http://www.w3.org/2000/svg">
<path d="M13.7322 7.5788L7.71272 13.5983C6.97529 14.3357 5.97512 14.75 4.93223 14.75C3.88935 14.75 2.88917 14.3357 2.15174 13.5983C1.41431 12.8608 1.00002 11.8607 1.00002 10.8178C1.00002 9.7749 1.41431 8.77473 2.15174 8.0373L8.17123 2.01781C8.66285 1.52619 9.32963 1.25 10.0249 1.25C10.7201 1.25 11.3869 1.52619 11.8785 2.01781C12.3702 2.50943 12.6464 3.17621 12.6464 3.87147C12.6464 4.56673 12.3702 5.23351 11.8785 5.72513L5.85251 11.7446C5.6067 11.9904 5.27331 12.1285 4.92568 12.1285C4.57805 12.1285 4.24466 11.9904 3.99885 11.7446C3.75304 11.4988 3.61495 11.1654 3.61495 10.8178C3.61495 10.4702 3.75304 10.1368 3.99885 9.89096L9.55983 4.33653" stroke="#F47E16" stroke-linecap="round" stroke-linejoin="round"/>
</svg>
