<svg width="24" height="19" viewBox="0 0 24 19" fill="none" xmlns="http://www.w3.org/2000/svg">
<path fill-rule="evenodd" clip-rule="evenodd" d="M4.88027 10.5004L0.793498 17.8257C0.72232 17.9503 0.740115 18.0986 0.835018 18.2053C0.929921 18.3121 1.07228 18.3477 1.2087 18.2943L23.0424 9.59285C23.1729 9.53946 23.25 9.42084 23.25 9.28441C23.25 9.14799 23.167 9.02936 23.0424 8.97598L1.2087 0.274526C1.07228 0.221143 0.929921 0.256731 0.835018 0.363498C0.740115 0.470264 0.72232 0.618551 0.793498 0.743111L4.88027 8.06846L15.2188 9.16578C15.2959 9.17171 15.3552 9.2251 15.3552 9.28441C15.3552 9.34373 15.2959 9.39711 15.2188 9.40304L4.88027 10.5004Z" fill="#80CBC4"/>
</svg>
