<svg width="24" height="24" viewBox="0 0 24 24" fill="none" xmlns="http://www.w3.org/2000/svg">
<path d="M19.7487 6.7438H19.0024V4.47643C19.0024 3.66439 18.3109 3 17.4658 3H6.54511C5.69999 3 5.00853 3.66439 5.00853 4.47643V6.7438H4.2567C3.56524 6.7438 3 7.28691 3 7.9513V10.187H3.83414V7.9513C3.83414 7.72457 4.02622 7.54529 4.2567 7.54529H5.00304V17.3424C5.00304 17.8065 5.32134 18.2019 5.75487 18.339V18.956C5.75487 19.5307 6.24329 20 6.84145 20H8.63596C9.23413 20 9.72255 19.5307 9.72255 18.956V18.3917H14.2719V18.956C14.2719 19.5307 14.7603 20 15.3585 20H17.1585C17.7567 20 18.2451 19.5307 18.2451 18.956V18.339C18.6786 18.2019 18.9969 17.8065 18.9969 17.3424V7.54529H19.7433C19.9792 7.54529 20.1658 7.72984 20.1658 7.9513V10.187H21V7.9513C21.0054 7.28691 20.4402 6.7438 19.7487 6.7438ZM5.83719 6.34833H11.5884V12.37H5.83719V6.34833ZM8.89389 18.956C8.89389 19.0931 8.77865 19.2038 8.63596 19.2038H6.84694C6.70426 19.2038 6.58902 19.0931 6.58902 18.956V18.3917H8.89389V18.956ZM17.4164 18.956C17.4164 19.0931 17.3012 19.2038 17.1585 19.2038H15.364C15.2213 19.2038 15.1061 19.0931 15.1061 18.956V18.3917H17.4109V18.956H17.4164ZM18.1683 17.3424C18.1683 17.4795 18.053 17.5903 17.9103 17.5903H6.08963C5.94694 17.5903 5.8317 17.4795 5.8317 17.3424V13.1663H18.1628V17.3424H18.1683ZM18.1683 12.37H12.4171V6.34833H18.1683V12.37ZM18.1683 5.54684H5.83719V4.47643C5.83719 4.10205 6.15548 3.80149 6.53963 3.80149H17.4603C17.85 3.80149 18.1628 4.10732 18.1628 4.47643V5.54684H18.1683Z" fill="#4DB6AC" stroke="#4DB6AC" stroke-width="0.25"/>
<path d="M8.1746 16.777C8.97581 16.777 9.63435 16.1892 9.63435 15.4632C9.63435 14.7421 8.9813 14.1494 8.1746 14.1494C7.37338 14.1494 6.71484 14.7372 6.71484 15.4632C6.72033 16.1892 7.37338 16.777 8.1746 16.777ZM8.1746 14.9001C8.52033 14.9001 8.8002 15.152 8.8002 15.4632C8.8002 15.7743 8.52033 16.0262 8.1746 16.0262C7.82887 16.0262 7.54899 15.7743 7.54899 15.4632C7.54899 15.157 7.82887 14.9001 8.1746 14.9001Z" fill="#4DB6AC" stroke="#4DB6AC" stroke-width="0.25"/>
<path d="M15.8269 16.777C16.6282 16.777 17.2867 16.1892 17.2867 15.4632C17.2867 14.7421 16.6336 14.1494 15.8269 14.1494C15.0257 14.1494 14.3672 14.7372 14.3672 15.4632C14.3727 16.1892 15.0257 16.777 15.8269 16.777ZM15.8269 14.9001C16.1727 14.9001 16.4525 15.152 16.4525 15.4632C16.4525 15.7743 16.1727 16.0262 15.8269 16.0262C15.4812 16.0262 15.2013 15.7743 15.2013 15.4632C15.2068 15.157 15.4867 14.9001 15.8269 14.9001Z" fill="#4DB6AC" stroke="#4DB6AC" stroke-width="0.25"/>
</svg>
