<svg width="30" height="30" viewBox="0 0 30 30" fill="none" xmlns="http://www.w3.org/2000/svg">
<rect x="6.875" y="4.45483" width="16.25" height="17.9469" rx="1" fill="#FCD734"/>
<path d="M24.6859 8.42975H23.753V5.59553C23.753 4.58049 22.8887 3.75 21.8323 3.75H8.18139C7.12499 3.75 6.26066 4.58049 6.26066 5.59553V8.42975H5.32088C4.45655 8.42975 3.75 9.10864 3.75 9.93913V12.7338H4.79268V9.93913C4.79268 9.65571 5.03277 9.43161 5.32088 9.43161H6.25381V21.678C6.25381 22.2581 6.65167 22.7524 7.19359 22.9238V23.6949C7.19359 24.4134 7.80411 25 8.55182 25H10.795C11.5427 25 12.1532 24.4134 12.1532 23.6949V22.9897H17.8399V23.6949C17.8399 24.4134 18.4504 25 19.1981 25H21.4481C22.1958 25 22.8064 24.4134 22.8064 23.6949V22.9238C23.3483 22.7524 23.7461 22.2581 23.7461 21.678V9.43161H24.6791C24.974 9.43161 25.2073 9.6623 25.2073 9.93913V12.7338H26.2499V9.93913C26.2568 9.10864 25.5503 8.42975 24.6859 8.42975ZM7.29649 7.93541H14.4855V15.4625H7.29649V7.93541ZM11.1174 23.6949C11.1174 23.8663 10.9733 24.0047 10.795 24.0047H8.55868C8.38032 24.0047 8.23627 23.8663 8.23627 23.6949V22.9897H11.1174V23.6949ZM21.7705 23.6949C21.7705 23.8663 21.6265 24.0047 21.4481 24.0047H19.205C19.0266 24.0047 18.8826 23.8663 18.8826 23.6949V22.9897H21.7637V23.6949H21.7705ZM22.7103 21.678C22.7103 21.8494 22.5663 21.9878 22.3879 21.9878H7.61203C7.43368 21.9878 7.28963 21.8494 7.28963 21.678V16.4578H22.7035V21.678H22.7103ZM22.7103 15.4625H15.5213V7.93541H22.7103V15.4625ZM22.7103 6.93355H7.29649V5.59553C7.29649 5.12756 7.69435 4.75186 8.17453 4.75186H21.8254C22.3125 4.75186 22.7035 5.13415 22.7035 5.59553V6.93355H22.7103Z" fill="#26A69A"/>
<path d="M10.2187 20.9715C11.2203 20.9715 12.0434 20.2368 12.0434 19.3292C12.0434 18.4279 11.2271 17.687 10.2187 17.687C9.21721 17.687 8.39404 18.4217 8.39404 19.3292C8.4009 20.2368 9.21721 20.9715 10.2187 20.9715ZM10.2187 18.6254C10.6509 18.6254 11.0007 18.9403 11.0007 19.3292C11.0007 19.7182 10.6509 20.033 10.2187 20.033C9.78657 20.033 9.43672 19.7182 9.43672 19.3292C9.43672 18.9465 9.78657 18.6254 10.2187 18.6254Z" fill="#26A69A"/>
<path d="M19.7812 20.9715C20.7828 20.9715 21.6059 20.2368 21.6059 19.3292C21.6059 18.4279 20.7896 17.687 19.7812 17.687C18.7797 17.687 17.9565 18.4217 17.9565 19.3292C17.9634 20.2368 18.7797 20.9715 19.7812 20.9715ZM19.7812 18.6254C20.2134 18.6254 20.5632 18.9403 20.5632 19.3292C20.5632 19.7182 20.2134 20.033 19.7812 20.033C19.3491 20.033 18.9992 19.7182 18.9992 19.3292C19.0061 18.9465 19.3559 18.6254 19.7812 18.6254Z" fill="#26A69A"/>
</svg>
