<svg width="56" height="56" viewBox="0 0 56 56" fill="none" xmlns="http://www.w3.org/2000/svg">
<g opacity="0.1" filter="url(#filter0_d)">
<rect x="10" y="5" width="36" height="36" rx="10" fill="#2BC480"/>
</g>
<path fill-rule="evenodd" clip-rule="evenodd" d="M41.6543 22.6523C41.6543 29.9162 35.6867 35.8046 28.3239 35.8046C25.9866 35.8046 23.7907 35.2106 21.8802 34.1681L14.5 36.5L16.9062 29.4434C15.6924 27.4616 14.9933 25.1372 14.9933 22.6523C14.9933 15.3884 20.9615 9.5 28.3239 9.5C35.6873 9.5 41.6543 15.3884 41.6543 22.6523ZM28.3247 11.5946C22.1444 11.5946 17.1172 16.5551 17.1172 22.6523C17.1172 25.0718 17.9104 27.3125 19.2521 29.1353L17.8519 33.242L22.1588 31.8809C23.9284 33.0362 26.0482 33.71 28.325 33.71C34.5044 33.71 39.5324 28.7501 39.5324 22.6529C39.5324 16.5557 34.5047 11.5946 28.3247 11.5946ZM34.6047 25.3908C34.8333 25.4998 34.9877 25.5734 35.0541 25.6816C35.1353 25.816 35.1353 26.4613 34.8637 27.2149C34.5904 27.9673 33.2562 28.6933 32.6576 28.747C32.555 28.7562 32.4699 28.7765 32.3827 28.7973C31.9609 28.8979 31.4894 29.0105 28.7362 27.9412C25.6663 26.7482 23.6429 23.7871 23.2247 23.1752C23.1904 23.125 23.1669 23.0905 23.1545 23.0743L23.154 23.0735C22.9881 22.8561 21.8203 21.325 21.8203 19.7404C21.8203 18.2563 22.5591 17.4779 22.8994 17.1195C22.9228 17.0949 22.9443 17.0722 22.9635 17.0515C23.2631 16.729 23.6173 16.6483 23.8352 16.6483C23.9477 16.6483 24.0604 16.6555 24.1693 16.6624C24.2711 16.669 24.3695 16.6753 24.4615 16.6753C24.4844 16.6753 24.5084 16.6737 24.5334 16.6721C24.7175 16.6603 24.9569 16.645 25.1965 17.2129C25.2837 17.4198 25.4102 17.7233 25.5445 18.0457C25.8291 18.729 26.1489 19.4965 26.2042 19.606C26.2863 19.7677 26.3409 19.9558 26.2314 20.1709C26.2158 20.2018 26.2014 20.2311 26.1876 20.2591C26.1052 20.4259 26.0452 20.5474 25.9049 20.7088C25.8508 20.7711 25.7949 20.8382 25.739 20.9054C25.6261 21.041 25.5131 21.1767 25.4146 21.2734C25.2514 21.4339 25.0809 21.6082 25.2713 21.9307C25.462 22.2538 26.1179 23.3086 27.0891 24.163C28.1339 25.082 29.0417 25.4706 29.5013 25.6673C29.5908 25.7056 29.6633 25.7366 29.7165 25.7629C30.0435 25.9243 30.2339 25.8973 30.4246 25.6816C30.6156 25.4665 31.2419 24.7408 31.4595 24.418C31.677 24.0955 31.8955 24.1495 32.1951 24.2569C32.4938 24.364 34.1007 25.1443 34.4277 25.3054C34.4909 25.3365 34.5499 25.3646 34.6047 25.3908Z" fill="#2BC480"/>
<defs>
<filter id="filter0_d" x="0" y="0" width="56" height="56" filterUnits="userSpaceOnUse" color-interpolation-filters="sRGB">
<feFlood flood-opacity="0" result="BackgroundImageFix"/>
<feColorMatrix in="SourceAlpha" type="matrix" values="0 0 0 0 0 0 0 0 0 0 0 0 0 0 0 0 0 0 127 0"/>
<feOffset dy="5"/>
<feGaussianBlur stdDeviation="5"/>
<feColorMatrix type="matrix" values="0 0 0 0 0.0953314 0 0 0 0 0.716967 0 0 0 0 0.440684 0 0 0 0.2 0"/>
<feBlend mode="normal" in2="BackgroundImageFix" result="effect1_dropShadow"/>
<feBlend mode="normal" in="SourceGraphic" in2="effect1_dropShadow" result="shape"/>
</filter>
</defs>
</svg>
