<svg width="25" height="23" viewBox="0 0 25 23" fill="none" xmlns="http://www.w3.org/2000/svg">
<path d="M22.2214 8.19044C22.0903 8.40266 21.953 8.61487 21.8282 8.82708V16.7851C21.8219 17.6152 21.4038 18.0397 20.5736 18.0522C20.3739 18.0584 20.1742 18.0584 19.9744 18.0584L19.0444 18.0522C18.8946 18.0522 18.7511 18.0522 18.6013 18.0584C17.6089 18.0646 16.735 18.3393 15.9236 18.8885C15.3557 19.2755 14.7814 19.6625 14.2134 20.0432L14.0449 20.1556C13.5144 20.5113 12.8528 20.9545 12.2286 21.3789C12.1225 21.4476 12.0476 21.4975 11.954 21.4975C11.8666 21.4975 11.7855 21.4476 11.6794 21.3727C11.0989 20.9795 10.5059 20.58 9.93172 20.193L9.91299 20.1805C9.26386 19.7499 8.63346 19.3254 8.02803 18.9073C7.18541 18.3268 6.27414 18.0522 5.24428 18.0459H5.16314L4.0459 18.0522C3.7463 18.0522 3.50288 18.0522 3.27194 18.0459C2.50422 18.0272 2.08604 17.5903 2.08604 16.8288C2.0798 14.3696 2.07979 9.5199 2.07979 7.12313V6.30548C2.07979 5.36924 2.49798 4.95106 3.42174 4.94482C4.63885 4.93857 5.84971 4.93857 7.06682 4.93857H18.2892C18.5077 4.5828 18.7324 4.22703 18.9508 3.87126C18.2642 3.86502 17.5777 3.86502 16.8973 3.86502H7.06058C5.84971 3.86502 4.63261 3.86502 3.4155 3.87126C1.90503 3.87126 1 4.78253 1 6.29924L1 6.74239C1 9.264 1 14.2448 1.00624 16.835C1.00624 18.1957 1.88631 19.0945 3.24073 19.1257C3.47791 19.1319 3.73382 19.1382 4.03965 19.1382L5.15066 19.1319L5.2318 19.1382C6.0432 19.1382 6.75475 19.3566 7.41011 19.806C8.02179 20.2305 8.66467 20.6549 9.28259 21.0668L9.30756 21.0856C9.88178 21.4725 10.481 21.872 11.0614 22.2715C11.6482 22.6709 12.2411 22.6709 12.8278 22.2777C13.4332 21.8595 14.0512 21.4476 14.6816 21.0294L14.744 20.9795C15.3307 20.5862 15.9299 20.1868 16.5228 19.7811C17.147 19.3566 17.8273 19.1444 18.6013 19.1382C18.7448 19.1319 18.8884 19.1319 19.0382 19.1319L19.9619 19.1382C20.1679 19.1382 20.3801 19.1382 20.5861 19.1319C21.8719 19.1132 22.7082 18.3767 22.8643 17.1971C22.883 17.1409 22.8955 17.0909 22.8955 17.0285V7.10441L22.2214 8.19044Z" fill="#4DB6AC" stroke="#4DB6AC" stroke-width="0.5"/>
<path d="M16.6227 7.62244C16.4105 7.96572 16.1983 8.30277 15.9861 8.64606C15.9798 8.65854 15.9736 8.66478 15.9736 8.67102H5.09448C4.80737 8.67102 4.57019 8.43384 4.57019 8.14673C4.57019 7.85962 4.80737 7.62244 5.09448 7.62244H16.6227Z" fill="#4DB6AC" stroke="#4DB6AC" stroke-width="0.5"/>
<path d="M15.3057 11.0117C15.2495 11.2488 15.1996 11.486 15.1434 11.7294L15.0623 12.0602H5.09448C4.80737 12.0602 4.57019 11.8293 4.57019 11.536C4.57019 11.2488 4.80737 11.0117 5.09448 11.0117H15.3057Z" fill="#4DB6AC" stroke="#4DB6AC" stroke-width="0.5"/>
<path d="M5.09448 14.4008H18.801C19.0881 14.4008 19.3253 14.638 19.3253 14.9251C19.3253 15.2122 19.0881 15.4494 18.801 15.4494H5.09448C4.80737 15.4494 4.57019 15.2122 4.57019 14.9251C4.57019 14.638 4.80737 14.4008 5.09448 14.4008Z" fill="#4DB6AC" stroke="#4DB6AC" stroke-width="0.5"/>
<path d="M21.3975 1.89267L21.1416 2.29213C19.7061 4.58904 18.2767 6.88594 16.8537 9.18909C16.7788 9.30768 16.7226 9.44499 16.6914 9.56358C16.4604 10.5435 16.2295 11.5297 16.0111 12.5034C15.9923 12.572 15.9736 12.6906 15.9736 12.8155C15.9861 13.0401 16.1421 13.2024 16.3543 13.2024C16.423 13.2024 16.4854 13.1837 16.5541 13.1525C16.6539 13.1026 16.7476 13.0277 16.8225 12.9777L17.2531 12.6282C17.7649 12.21 18.2767 11.7918 18.7886 11.3736L18.851 11.3175C19.0757 11.1302 19.3066 10.943 19.4876 10.6559C20.4613 9.08922 21.4288 7.52882 22.4024 5.96843L23.8817 3.59038C23.9067 3.56542 23.9191 3.53421 23.9441 3.503L21.3975 1.89267ZM18.5951 10.5373C18.2767 10.7994 17.9522 11.0616 17.6339 11.33C17.5652 11.3861 17.5153 11.3924 17.4529 11.3487C17.3592 11.28 17.2594 11.2238 17.172 11.1614C17.147 11.1427 17.1221 11.0928 17.1283 11.0616C17.2344 10.5934 17.3468 10.1316 17.4529 9.65721C17.4591 9.63848 17.4716 9.63224 17.4716 9.626C17.8898 9.88814 18.3017 10.1503 18.7386 10.4187C18.6949 10.4624 18.645 10.4998 18.5951 10.5373Z" fill="#4DB6AC"/>
<path d="M24.6432 0.875293C24.2375 0.619388 23.8318 0.363483 23.4198 0.113819C23.0328 -0.123361 22.5585 0.0201953 22.2838 0.450865C22.1528 0.663079 22.0217 0.869051 21.8906 1.08127L21.7845 1.24979C21.7783 1.26851 21.7658 1.281 21.7596 1.29972L21.7471 1.29348L21.9343 1.41207L21.9905 1.44328L24.0939 2.74777L24.3186 2.88508L24.4746 2.63542C24.5995 2.43569 24.7243 2.2422 24.8429 2.04247C25.1113 1.60556 25.0301 1.12496 24.6432 0.875293Z" fill="#4DB6AC"/>
</svg>
