<svg width="41" height="48" viewBox="0 0 41 48" fill="none" xmlns="http://www.w3.org/2000/svg">
<path d="M4.8984 47.5105C2.44942 47.5105 0.490234 45.5514 0.490234 43.1024V5.87789C0.490234 3.42891 2.44942 1.46973 4.8984 1.46973H28.2127L38.6943 11.9514V43.1024C38.6943 45.5514 36.7351 47.5105 34.2862 47.5105H4.8984Z" fill="#F6F6F6"/>
<path d="M28.0163 1.95908L38.2041 12.1468V43.1019C38.2041 45.257 36.4408 47.0203 34.2857 47.0203H4.89796C2.74286 47.0203 0.979592 45.257 0.979592 43.1019V5.87745C0.979592 3.72235 2.74286 1.95908 4.89796 1.95908H28.0163ZM28.4082 0.979492H4.89796C2.1551 0.979492 0 3.13459 0 5.87745V43.1019C0 45.8448 2.1551 47.9999 4.89796 47.9999H34.2857C37.0286 47.9999 39.1837 45.8448 39.1837 43.1019V11.755L28.4082 0.979492Z" fill="#E0E0E0"/>
<path d="M4.8984 47.5105C2.44942 47.5105 0.490234 45.5514 0.490234 43.1024V5.87789C0.490234 3.42891 2.44942 1.46973 4.8984 1.46973H28.2127L38.6943 11.9514V43.1024C38.6943 45.5514 36.7351 47.5105 34.2862 47.5105H4.8984Z" fill="#68AB46"/>
<path d="M28.0163 1.95908L38.2041 12.1468V43.1019C38.2041 45.257 36.4408 47.0203 34.2857 47.0203H4.89796C2.74286 47.0203 0.979592 45.257 0.979592 43.1019V5.87745C0.979592 3.72235 2.74286 1.95908 4.89796 1.95908H28.0163ZM28.4082 0.979492H4.89796C2.1551 0.979492 0 3.13459 0 5.87745V43.1019C0 45.8448 2.1551 47.9999 4.89796 47.9999H34.2857C37.0286 47.9999 39.1837 45.8448 39.1837 43.1019V11.755L28.4082 0.979492Z" fill="#5C973E"/>
<path d="M29.7793 10.2861L39.2813 19.7882V10.2861H29.7793Z" fill="#5C973E"/>
<path d="M40.1633 11.7551H33.3062C30.5633 11.7551 28.4082 9.6 28.4082 6.85714V0H40.1633V11.7551Z" fill="#B3D5A3"/>
<path d="M5.87695 24.4902V39.1841H33.3055V24.4902H5.87695ZM30.3667 27.429V30.3678H17.6321V27.429H30.3667ZM15.6729 27.429V30.3678H8.81573V27.429H15.6729ZM8.81573 33.3066H15.6729V36.2453H8.81573V33.3066ZM17.6321 36.2453V33.3066H30.3667V36.2453H17.6321Z" fill="#E0E0E0"/>
<path d="M5.28967 7.05273H6.56314L7.64069 8.816L8.8162 7.05273H10.0897L8.32641 9.79559L10.2856 12.7344H9.01212L7.64069 10.6772L6.36722 12.7344H5.09375L7.05293 9.79559L5.28967 7.05273Z" fill="white"/>
<path d="M11.0684 7.05273H12.2439V11.4609H13.9092V12.7344H11.0684V7.05273Z" fill="white"/>
<path d="M16.4553 7.05273C17.043 7.05273 17.6308 7.24865 18.0226 7.64049L17.2389 8.42416C16.8471 8.22825 16.5532 8.03233 16.3573 8.03233C16.2594 8.03233 16.0634 8.13029 15.9655 8.22824C15.8675 8.3262 15.8675 8.42416 15.8675 8.62008C15.8675 8.91396 16.1614 9.10988 16.6512 9.3058C17.043 9.50171 17.3369 9.59967 17.5328 9.69763C17.7287 9.79559 17.9247 9.99151 18.0226 10.1874C18.1206 10.3833 18.2185 10.6772 18.2185 10.9711C18.2185 11.4609 18.0226 11.8527 17.6308 12.2446C17.2389 12.6364 16.7492 12.7344 16.2594 12.7344C15.6716 12.7344 15.0838 12.4405 14.4961 11.9507L15.2798 10.9711C15.6716 11.3629 15.9655 11.5589 16.2594 11.5589C16.3573 11.5589 16.5532 11.4609 16.6512 11.3629C16.7492 11.265 16.8471 11.0691 16.8471 10.9711C16.8471 10.6772 16.5532 10.3833 15.8675 10.1874C15.4757 10.0895 15.2798 9.89355 15.0838 9.79559C14.8879 9.69763 14.79 9.50171 14.692 9.3058C14.692 9.10988 14.692 8.91396 14.692 8.71804C14.692 8.22824 14.8879 7.83641 15.1818 7.54253C15.4757 7.15069 15.8675 7.05273 16.4553 7.05273Z" fill="white"/>
</svg>
