<svg width="285" height="247" viewBox="0 0 285 247" fill="none" xmlns="http://www.w3.org/2000/svg">
<path opacity="0.5" d="M163.495 242.877C230.564 242.877 284.934 188.507 284.934 121.439C284.934 54.3699 230.564 0 163.495 0C96.4266 0 42.0566 54.3699 42.0566 121.439C42.0566 188.507 96.4266 242.877 163.495 242.877Z" fill="#EFF8F8"/>
<path opacity="0.5" d="M100.147 242.351C155.457 242.351 200.295 197.514 200.295 142.204C200.295 86.8942 155.457 42.0566 100.147 42.0566C44.8375 42.0566 0 86.8942 0 142.204C0 197.514 44.8375 242.351 100.147 242.351Z" fill="#EFF8F8"/>
<path d="M74.9115 106.982C74.9115 106.982 81.7457 87.2677 82.2714 80.4334C82.7971 72.8107 79.38 57.5651 75.9629 50.9938C72.5458 44.1596 55.4603 28.6512 55.4603 28.6512C55.4603 28.6512 39.4262 48.3652 42.3176 55.1995C44.1575 59.668 53.8831 59.9308 55.986 64.1365C58.0888 68.3422 54.4089 74.9135 55.1974 79.6449C56.5117 88.0562 74.9115 106.982 74.9115 106.982Z" fill="#F9E635"/>
<path d="M74.1237 104.09C74.1237 104.09 74.1237 104.353 74.1237 104.09C74.3866 104.09 74.3866 104.09 74.3866 103.827C74.3866 103.565 73.0723 74.6506 70.4438 65.4507C68.3409 57.8279 56.7753 37.3253 56.5125 37.0624C56.5125 37.0624 56.2496 36.7996 56.2496 37.0624C56.2496 37.0624 55.9868 37.3253 56.2496 37.3253C56.2496 37.5881 67.8152 58.0908 69.9181 65.7135C72.5466 74.9134 73.8609 103.827 74.1237 104.09C73.8609 104.09 74.1237 104.09 74.1237 104.09Z" fill="#0D352D"/>
<path d="M47.0508 50.2053C47.0508 50.2053 47.3136 50.2053 47.0508 50.2053L61.5078 49.6796C61.5078 49.6796 61.7706 49.6796 61.7706 49.4168C61.7706 49.4168 61.7706 49.1539 61.5078 49.1539L47.3136 49.9425C47.0508 49.9425 47.0508 49.9425 47.0508 50.2053Z" fill="#0D352D"/>
<path d="M69.1288 59.1421H69.3916L74.6487 51.7822V51.5193H74.3859L69.1288 58.8793C68.8659 59.1421 68.8659 59.1421 69.1288 59.1421Z" fill="#0D352D"/>
<path d="M70.7072 86.742C70.7072 87.0049 70.9701 86.742 70.7072 86.742C70.9701 86.742 70.9701 86.4792 70.9701 86.4792L60.9816 78.3307H60.7188V78.5935L70.7072 86.742Z" fill="#0D352D"/>
<path d="M74.123 86.742H74.3859L79.3801 77.5421V77.2792H79.1173L74.123 86.4791V86.742Z" fill="#0D352D"/>
<path d="M57.8281 62.8222V62.2965L67.028 61.7708V62.2965L57.8281 62.8222Z" fill="#0D352D"/>
<path d="M175.588 245.006H86.218C77.2943 245.006 70.1582 237.87 70.1582 228.946V24.971C70.1582 16.0473 77.2943 8.91119 86.218 8.91119H175.851C184.775 8.91119 191.911 16.0473 191.911 24.971V228.939C191.652 237.873 184.507 245.006 175.588 245.006Z" fill="white" stroke="#009688"/>
<path d="M175.588 245.769H86.2172C77.0173 245.769 69.3945 238.146 69.3945 228.946V24.9711C69.3945 15.7712 77.0173 8.14844 86.2172 8.14844H175.85C185.05 8.14844 192.673 15.7712 192.673 24.9711V228.946C192.673 238.146 185.05 245.769 175.588 245.769ZM86.2172 8.67415C77.2802 8.67415 69.9202 16.0341 69.9202 24.9711V228.946C69.9202 237.883 77.2802 245.243 86.2172 245.243H175.85C184.787 245.243 192.147 237.883 192.147 228.946V24.9711C192.147 16.0341 184.787 8.67415 175.85 8.67415H86.2172Z" fill="#B2DFDB"/>
<path d="M187.681 33.3823H74.3906V213.175H187.681V33.3823Z" fill="#EFF8F8"/>
<path d="M130.639 235.517C125.381 235.517 121.176 231.312 121.176 226.055C121.176 220.797 125.381 216.592 130.639 216.592C135.896 216.592 140.101 220.797 140.101 226.055C140.101 231.312 135.896 235.517 130.639 235.517ZM130.639 217.643C125.907 217.643 122.227 221.323 122.227 226.055C122.227 230.786 125.907 234.466 130.639 234.466C135.37 234.466 139.05 230.786 139.05 226.055C139.05 221.323 135.37 217.643 130.639 217.643Z" fill="#009688"/>
<path d="M149.826 99.8846H111.975V137.736H149.826V99.8846Z" fill="#00897B"/>
<path d="M187.679 137.736H149.828V175.587H187.679V137.736Z" fill="#00897B"/>
<path d="M112.242 137.736H74.3906V175.587H112.242V137.736Z" fill="#00695C"/>
<path d="M149.826 137.736H111.975V175.587H149.826V137.736Z" fill="#80CBC4"/>
<path d="M112.242 175.324H74.3906V213.175H112.242V175.324Z" fill="#00897B"/>
<path d="M149.826 175.324H111.975V213.175H149.826V175.324Z" fill="#00695C"/>
<path d="M187.679 175.324H149.828V213.175H187.679V175.324Z" fill="#80CBC4"/>
<path d="M89.637 175.324C89.637 175.324 89.637 174.009 89.637 173.746C89.1113 171.906 85.957 170.329 85.957 166.912C85.957 163.232 90.6884 160.867 93.0541 160.867C95.4198 160.867 99.8883 162.181 99.8883 166.912C99.8883 170.329 97.5226 171.906 97.2598 173.484C97.2598 174.009 97.5226 175.324 97.5226 175.324H89.637Z" fill="#00897B"/>
<path d="M134.58 137.21C134.58 137.21 134.317 138.524 134.58 138.787C135.106 140.627 137.997 142.204 137.997 145.884C137.734 149.564 133.003 151.667 130.637 151.667C128.271 151.667 123.803 150.09 124.066 145.358C124.329 141.941 126.431 140.627 126.957 138.787C126.957 138.261 126.957 136.947 126.957 136.947L134.58 137.21Z" fill="#00897B"/>
<path d="M134.58 176.375C134.58 176.375 134.317 175.061 134.58 174.798C135.106 172.958 137.997 171.381 137.997 167.701C137.734 164.021 133.003 161.918 130.637 161.918C128.271 161.918 123.803 163.495 124.066 168.226C124.329 171.644 126.431 172.958 126.957 174.798C126.957 175.324 126.957 176.638 126.957 176.638L134.58 176.375Z" fill="#00695C"/>
<path d="M112.242 191.621C112.242 191.621 110.928 191.883 110.665 191.621C108.825 191.095 107.248 188.203 103.568 188.203C99.888 188.203 97.7852 193.198 97.7852 195.301C97.7852 197.666 99.3623 202.135 104.094 201.872C107.511 201.872 108.825 199.506 110.665 198.981C111.191 198.981 112.505 198.981 112.505 198.981L112.242 191.621Z" fill="#00695C"/>
<path d="M149.304 191.621C149.304 191.621 150.618 191.883 150.881 191.621C152.721 191.095 154.298 188.203 157.978 188.203C161.658 188.203 163.761 193.198 163.761 195.301C163.761 197.666 162.184 202.135 157.452 201.872C154.035 201.872 152.721 199.506 150.881 198.981C150.355 198.981 149.041 198.981 149.041 198.981L149.304 191.621Z" fill="#00695C"/>
<path d="M149.304 152.981C149.304 152.981 150.618 153.244 150.881 152.981C152.721 152.455 154.298 149.564 157.978 149.564C161.658 149.564 163.761 154.558 163.761 156.661C163.761 159.027 162.184 163.495 157.452 163.232C154.035 163.232 152.721 160.867 150.881 160.341C150.355 160.341 149.041 160.341 149.041 160.341L149.304 152.981Z" fill="#80CBC4"/>
<path d="M150.619 123.279C150.619 123.279 149.305 123.016 149.042 123.279C147.202 123.804 145.625 126.959 142.208 126.696C138.528 126.696 136.162 121.964 136.162 119.599C136.162 117.233 137.476 112.764 142.208 112.764C145.625 112.764 147.202 115.13 148.779 115.393C149.305 115.393 150.619 115.393 150.619 115.393V123.279Z" fill="#EFF8F8"/>
<path d="M96.7343 137.735C96.7343 137.735 96.4714 139.05 96.7343 139.313C97.26 141.152 100.151 142.73 100.151 146.41C99.8885 150.09 95.1571 152.192 92.7914 152.192C90.4258 152.192 85.9572 150.615 86.2201 145.884C86.4829 142.467 88.5858 141.152 89.1115 139.313C89.1115 138.787 89.1115 137.473 89.1115 137.473L96.7343 137.735Z" fill="#EFF8F8"/>
<path d="M174.273 137.735C174.273 137.735 174.01 139.05 174.273 139.313C174.799 141.152 177.69 142.73 177.69 146.41C177.428 150.09 172.696 152.192 170.331 152.192C167.965 152.192 163.496 150.615 163.759 145.884C164.022 142.467 166.125 141.152 166.651 139.313C166.651 138.787 166.651 137.473 166.651 137.473L174.273 137.735Z" fill="#EFF8F8"/>
<path d="M111.714 114.604C111.714 114.604 113.028 114.867 113.291 114.604C115.131 114.079 116.708 111.187 120.388 111.187C124.068 111.187 126.171 116.181 126.171 118.284C126.171 120.65 124.594 125.118 119.862 124.856C116.445 124.856 115.131 122.49 113.291 121.964C112.765 121.964 111.451 121.964 111.451 121.964L111.714 114.604Z" fill="#EFF8F8"/>
<path d="M148.514 23.6567H121.177C120.125 23.6567 119.6 22.8681 119.6 22.0796C119.6 21.291 120.388 20.5024 121.177 20.5024H148.514C149.565 20.5024 150.091 21.291 150.091 22.0796C150.091 22.8681 149.565 23.6567 148.514 23.6567Z" fill="#E0F2F1"/>
<path d="M117.496 22.0796C117.496 22.8681 116.707 23.6567 115.919 23.6567C115.13 23.6567 114.342 22.8681 114.342 22.0796C114.342 21.291 115.13 20.5024 115.919 20.5024C116.707 20.5024 117.496 21.0281 117.496 22.0796Z" fill="#E0F2F1"/>
<path d="M107.774 58.3535C107.774 66.502 101.202 73.0733 93.0538 73.0733C84.9053 73.0733 78.334 66.502 78.334 58.3535C78.334 50.205 84.9053 43.6337 93.0538 43.6337C100.939 43.3708 107.774 50.205 107.774 58.3535Z" fill="#B2DFDB"/>
<path d="M183.472 64.3992H117.232V65.7135H183.472V64.3992Z" fill="#E0F2F1"/>
<path d="M183.472 58H117.232V59.3143H183.472V58Z" fill="#E0F2F1"/>
<path d="M183.472 51.6008H117.232V52.915H183.472V51.6008Z" fill="#E0F2F1"/>
<path d="M183.472 45.2015H117.232V46.5158H183.472V45.2015Z" fill="#E0F2F1"/>
<path d="M183.472 69.1305H117.232V70.4448H183.472V69.1305Z" fill="#E0F2F1"/>
<path d="M212.384 244.191C212.384 244.191 204.762 227.894 203.71 222.112C202.659 215.803 203.973 202.397 206.339 196.352C208.704 190.306 221.847 175.323 221.847 175.323C221.847 175.323 237.618 190.569 235.778 196.878C234.464 200.82 221.847 200.032 220.27 203.975C218.693 207.917 227.104 215.014 226.841 218.957C226.316 226.317 212.384 244.191 212.384 244.191Z" fill="#FCD734"/>
<path d="M212.911 241.826C212.648 241.826 212.648 241.826 212.648 241.563C212.648 241.3 211.071 216.592 212.648 208.443C213.7 201.872 221.848 182.946 221.848 182.946C221.848 182.946 222.111 182.683 222.111 182.946C222.111 182.946 222.374 183.209 222.111 183.209C222.111 183.472 214.225 202.135 212.911 208.706C211.597 216.592 212.911 241.3 212.911 241.826C212.911 241.563 212.911 241.826 212.911 241.826Z" fill="#0D352D"/>
<path d="M230.781 193.197L218.427 194.249C218.427 194.249 218.164 194.249 218.164 193.986C218.164 193.986 218.164 193.723 218.427 193.723L230.781 192.672C230.781 192.935 231.044 192.935 230.781 193.197C231.044 193.197 231.044 193.197 230.781 193.197Z" fill="#0D352D"/>
<path d="M212.906 202.923L207.648 197.14V196.877H207.911L213.168 202.66C213.168 202.66 213.168 202.923 212.906 202.923Z" fill="#0D352D"/>
<path d="M214.222 226.58C213.959 226.58 213.959 226.58 214.222 226.58C213.959 226.58 213.959 226.317 213.959 226.317L221.582 218.432H221.845V218.694L214.222 226.58Z" fill="#0D352D"/>
<path d="M211.068 226.843C211.068 227.106 210.805 226.843 211.068 226.843L205.811 219.483V219.22H206.073L211.068 226.58C211.33 226.843 211.33 226.843 211.068 226.843Z" fill="#0D352D"/>
<path d="M213.173 243.403C213.173 243.403 216.328 233.151 216.328 229.734C216.328 225.791 214.488 218.169 212.648 215.014C210.808 211.597 201.871 204.237 201.871 204.237C201.871 204.237 193.985 214.489 195.562 217.906C196.613 220.272 203.973 218.432 205.288 220.534C206.602 222.637 202.133 227.631 202.659 229.997C203.448 234.203 213.173 243.403 213.173 243.403Z" fill="#80CBC4"/>
<path d="M212.649 242.088C212.649 242.088 212.649 241.826 212.649 242.088C212.649 241.826 211.335 227.106 209.758 222.637C208.443 218.957 202.135 208.706 202.135 208.443C202.135 208.443 202.135 208.443 202.135 208.18C202.135 208.18 202.135 208.18 202.398 208.18C202.398 208.18 208.706 218.432 210.02 222.374C211.335 227.106 212.649 241.826 212.649 242.088C212.912 241.826 212.649 242.088 212.649 242.088Z" fill="#0D352D"/>
<path d="M198.021 215.383C198.021 215.383 197.758 215.383 198.021 215.383C197.758 215.12 198.021 215.12 198.021 215.383L205.381 214.594L198.021 215.383Z" fill="#0D352D"/>
<path d="M209.232 219.22C208.969 219.22 208.969 219.22 209.232 219.22L211.598 215.277C211.598 215.277 211.598 215.277 211.861 215.277C211.861 215.277 211.861 215.277 211.861 215.54L209.232 219.22Z" fill="#0D352D"/>
<path d="M210.281 233.677C210.281 233.414 210.281 233.414 210.281 233.677L204.498 229.209C204.498 229.209 204.498 229.209 204.498 228.946C204.498 228.946 204.498 228.946 204.761 228.946L210.281 233.677C210.281 233.414 210.281 233.414 210.281 233.677Z" fill="#0D352D"/>
<path d="M212.386 233.151C212.386 233.151 212.124 233.151 212.386 233.151L214.489 228.157C214.489 228.157 214.489 228.157 214.752 228.157C214.752 228.157 214.752 228.157 214.752 228.42L212.386 233.151Z" fill="#0D352D"/>
<path d="M32.3301 229.209V243.14L42.8442 244.454L35.7472 241.037L36.01 227.894L32.3301 229.209Z" fill="#F9B18B"/>
<path d="M32.3301 242.089V244.717H33.9072L34.4329 243.929L38.9014 244.454L45.4728 245.243L41.53 243.666C41.53 243.666 40.4786 243.929 40.2157 243.929C38.1129 243.929 32.3301 242.089 32.3301 242.089Z" fill="#0D352D"/>
<path d="M31.0179 163.495L39.9549 203.975L37.5892 232.363H31.0179L31.2807 204.763L19.1895 164.547L31.0179 163.495Z" fill="#004D40"/>
<path d="M24.7072 121.176L40.2156 127.747L63.6096 120.124L62.2953 124.067L38.6384 133.004L22.8672 128.536L24.7072 121.176Z" fill="#F9B18B"/>
<path d="M28.1249 122.753L26.5478 129.587L21.0279 128.798C21.0279 128.798 20.5022 125.381 20.765 124.33C21.0279 123.278 23.1307 120.65 23.1307 120.65L28.1249 122.753Z" fill="#FCD734"/>
<path d="M62.0332 120.65L66.2389 119.073C66.2389 119.073 72.0217 118.81 72.0217 120.124C72.0217 121.701 67.2903 121.175 65.976 121.701C64.9246 121.964 62.0332 124.067 62.0332 124.067V120.65Z" fill="#FCD734"/>
<path d="M28.1251 98.8331C28.1251 98.8331 22.3423 96.7303 19.188 99.8845C17.3481 101.987 17.3481 107.77 17.3481 107.77C17.3481 107.77 12.8795 106.719 9.7253 110.399C6.8339 113.816 10.7767 120.387 10.7767 120.387C10.7767 120.387 4.99393 122.49 8.93674 128.798C10.251 131.164 19.7138 128.798 19.7138 128.798L22.3423 118.284C22.3423 118.284 29.1765 118.547 29.9651 116.707C31.5422 113.553 23.9194 104.616 23.9194 104.616L28.1251 98.8331Z" fill="#0D352D"/>
<path d="M27.3379 100.147C27.3379 100.147 30.4922 102.776 30.755 103.827C31.2807 105.667 31.2807 110.136 29.7036 111.187C28.9151 111.713 26.2865 111.187 26.2865 111.187C26.2865 111.187 24.7094 114.604 24.9722 115.919C24.9722 118.021 27.8636 123.541 27.8636 123.541L19.1895 117.759C19.1895 117.759 22.0808 115.656 22.6066 114.604C23.1323 113.553 22.8694 110.136 22.8694 110.136L27.3379 100.147Z" fill="#F9B18B"/>
<path d="M28.1265 98.8331C28.1265 98.8331 28.9151 104.616 28.1265 106.193C27.3379 107.507 22.8694 109.61 22.8694 109.61L19.1895 106.456L28.1265 98.8331Z" fill="#0D352D"/>
<path d="M19.188 117.496L27.8622 123.278C27.8622 123.278 28.6507 125.644 29.1764 126.433C29.7021 127.221 31.5421 128.798 31.5421 129.85C31.805 130.901 29.965 134.055 29.965 134.055C29.965 134.055 30.7536 145.095 31.5421 148.775C32.0678 151.667 34.6964 160.078 34.6964 160.078L18.9251 159.552C18.9251 159.552 23.1308 151.141 23.1308 147.987C23.1308 143.518 17.8737 135.633 17.0851 131.164C16.5594 127.484 19.188 117.496 19.188 117.496Z" fill="#FCD734"/>
<path d="M17.873 230.26V244.191L28.3872 245.506L21.2902 242.089L21.553 228.946L17.873 230.26Z" fill="#F9B18B"/>
<path d="M18.9226 159.29L34.6939 159.815L27.0711 199.506L22.3397 232.363H16.0312L19.4484 197.141L18.9226 159.29Z" fill="#00897B"/>
<path d="M17.873 243.14V245.769H19.4502L19.9759 244.98L24.4444 245.506L31.0158 246.294L27.0729 244.717C27.0729 244.717 26.0215 244.98 25.7587 244.98C23.6558 244.98 17.873 243.14 17.873 243.14Z" fill="#0D352D"/>
<path d="M83.8514 90.9854L49.1875 106.19L64.3922 140.854L99.0562 125.649L83.8514 90.9854Z" fill="#80CBC4"/>
<path d="M84.904 131.164C84.904 131.164 85.1669 132.215 85.4297 132.741C86.744 134.318 89.8982 134.581 91.2125 137.735C92.5268 141.152 89.1097 145.095 86.744 145.884C84.6412 146.672 79.9098 147.198 78.0698 142.73C76.7555 139.575 78.3327 137.472 78.0698 135.632C78.0698 135.107 77.2812 134.055 77.2812 134.055L84.904 131.164Z" fill="#80CBC4"/>
<path d="M89.1094 104.353C89.1094 104.353 90.4236 104.09 90.6865 103.827C92.2636 102.513 92.5265 99.3588 95.9436 98.3073C99.3607 97.2559 103.041 100.936 103.829 103.039C104.618 105.142 104.881 109.873 100.412 111.45C97.2578 112.501 95.155 110.924 93.315 111.187C92.7893 111.187 91.4751 111.976 91.4751 111.976L89.1094 104.353Z" fill="#80CBC4"/>
<path d="M24.707 126.17L38.6382 135.633L63.0837 133.004L60.718 136.421L36.0097 140.627L21.5527 133.004L24.707 126.17Z" fill="#F9B18B"/>
<path d="M27.8614 128.273L24.97 134.581L19.7129 132.478C19.7129 132.478 19.9757 129.061 20.5015 128.273C21.0272 127.221 23.6557 125.118 23.6557 125.118L27.8614 128.273Z" fill="#FCD734"/>
<path d="M61.2445 133.004L65.713 132.479C65.713 132.479 71.4958 133.267 71.2329 134.844C70.9701 136.421 66.5015 134.844 64.9244 135.107C63.873 135.37 60.7188 136.421 60.7188 136.421L61.2445 133.004Z" fill="#F9B18B"/>
<path d="M268.902 231.575L270.217 241.563H275.737L274.422 228.946L268.902 231.575Z" fill="#F9B18B"/>
<path d="M275.212 237.094L275.737 238.672V244.717H258.652C258.652 244.717 258.389 243.14 258.652 242.614C260.229 240.774 266.012 241.3 268.115 239.986C268.64 239.723 269.955 238.146 269.955 238.146L273.372 238.409L275.212 237.094Z" fill="#0D352D"/>
<path d="M242.879 163.495L258.387 201.083L268.901 237.883L278.364 237.094L265.222 191.884L261.804 163.758L242.879 163.495Z" fill="#00695C"/>
<path d="M248.925 118.547L229.474 126.959L212.125 118.547L210.285 124.067L227.371 133.004L250.239 127.747L248.925 118.547Z" fill="#00695C"/>
<path d="M243.14 94.6274C243.14 94.6274 241.037 99.3588 241.037 103.039C241.037 105.93 241.3 110.399 243.666 111.713C244.717 112.239 248.397 111.976 248.397 111.976L244.717 118.547L254.443 114.079L255.757 102.25L253.391 99.8845L249.448 94.6274H243.14Z" fill="#F9B18B"/>
<path d="M249.448 94.6276H241.825C241.825 94.6276 239.723 94.1018 239.723 91.999C239.723 90.4219 241.563 89.6333 241.563 89.6333C241.563 89.6333 247.871 89.1076 250.237 89.3705C251.814 89.3705 255.231 89.3705 256.282 90.4219C257.597 91.7362 258.385 95.4161 258.385 97.2561C258.385 99.6218 256.02 106.719 256.02 106.719H254.443C254.443 106.719 255.494 103.565 255.231 102.776C254.968 102.25 253.917 100.936 253.128 101.199C252.34 101.462 251.288 103.827 251.288 103.827L249.448 94.6276Z" fill="#0D352D"/>
<path d="M241.566 232.363L242.881 242.351H248.401L247.086 229.734L241.566 232.363Z" fill="#F9B18B"/>
<path d="M247.872 237.883L248.398 239.46V245.506H231.312C231.312 245.506 231.049 243.929 231.312 243.403C232.889 241.563 238.672 242.089 240.775 240.774C241.301 240.511 242.615 238.934 242.615 238.934L246.032 239.197L247.872 237.883Z" fill="#0D352D"/>
<path d="M261.803 163.758L253.391 178.741L250.237 199.506L250.5 238.409H241.037L242.877 163.495L261.803 163.758Z" fill="#00695C"/>
<path d="M247.348 114.079C247.348 114.079 243.405 119.599 242.879 121.964C240.251 131.953 242.879 163.758 242.879 163.758L261.805 164.021C261.805 164.021 262.068 145.359 261.542 139.576C261.016 134.056 260.228 131.427 259.176 120.125C258.913 117.759 255.759 113.553 255.759 113.553L247.348 114.079Z" fill="#009688"/>
<path d="M171.899 120.561L199.367 146.602L225.409 119.134L197.94 93.0922L171.899 120.561Z" fill="#00695C"/>
<path d="M183.21 130.639C183.21 130.639 182.421 131.69 182.158 131.953C180.581 133.004 177.164 131.953 174.798 134.844C172.433 137.473 174.536 142.467 176.113 144.044C177.953 145.621 182.158 147.724 185.313 144.044C187.678 141.416 186.89 138.787 187.678 137.21C187.941 136.684 188.993 135.896 188.993 135.896L183.21 130.639Z" fill="#00695C"/>
<path d="M188.204 104.09C188.204 104.09 187.153 103.302 186.89 103.039C185.838 101.462 186.627 98.0448 183.736 95.942C180.844 93.5763 176.113 95.942 174.799 97.782C173.484 99.622 171.644 104.09 175.061 106.982C177.69 109.085 180.319 108.296 181.896 109.085C182.421 109.348 183.21 110.399 183.21 110.399L188.204 104.09Z" fill="#00695C"/>
<path d="M242.614 139.313L242.352 139.05L253.654 128.536L253.917 128.798L242.614 139.313Z" fill="#009688"/>
<path d="M247.083 121.439L232.889 137.21L212.912 127.747L212.123 133.004L233.677 147.987L255.757 125.907L247.083 121.439Z" fill="#009688"/>
<path d="M212.914 128.01C212.914 128.01 210.285 125.382 208.971 124.856C207.394 124.067 202.925 123.279 201.611 124.856C201.348 125.119 201.611 126.17 201.874 126.433C202.662 127.484 205.028 129.324 206.342 129.85C207.656 130.639 211.862 132.479 211.862 132.479L212.914 128.01Z" fill="#F9B18B"/>
</svg>
